<?xml version="1.0" encoding="utf-8"?>
<!-- Generator: Adobe Illustrator 27.1.1, SVG Export Plug-In . SVG Version: 6.00 Build 0)  -->
<svg version="1.1" xmlns="http://www.w3.org/2000/svg" xmlns:xlink="http://www.w3.org/1999/xlink" x="0px" y="0px"
	 viewBox="0 0 767.8 1013" enable-background="new 0 0 767.8 1013" xml:space="preserve">
<g id="PADS-WHITE">
	<g>
		<g>
			<path fill="#FFFFFF" d="M444.3,342.6c0,0,43.1-17.7,77.1-15.5c34,2.2,75.4,16.8,100.3,40c25,23.3,43.9,58.1,43.9,101.6
				s-22.8,123.1-43.1,149.4c-20.2,26.3-50.4,37.5-71,44.4c-20.7,6.9-37.9,4.3-37.9,4.3l-5.2-153.3l-40-129.6l-28.8-33.6L444.3,342.6
				z"/>
			<g>
				<g>
					<g>
						<g>
							<polygon fill="#625A57" points="443.9,342.1 443.7,342.5 443.1,343.5 							"/>
							<path fill="#625A57" d="M440.1,348.7c0.1-0.2,0.1-0.1,0.2-0.3l2.1-4C441.3,346.1,440.9,347.7,440.1,348.7z"/>
							<path fill="#625A57" d="M439.4,349.8c-0.1,0.1-0.1,0.2-0.2,0.3l-0.2,0.3l0.2,0.3c0.9,1.1,1.4,1.5,1.7,1.8
								c-0.3-0.3-1.2-1.4-1.6-1.8l-0.2-0.2l0.1-0.3C439.4,349.9,439.5,349.8,439.4,349.8z"/>
							<path fill="#625A57" d="M499.1,484.3c0-0.2-0.1-0.4-0.2-0.5C499,484.1,499,484.3,499.1,484.3z"/>
							<path fill="#625A57" d="M508.9,521.9l0.1,0.4c-0.2-2.8-0.3-5.7-0.4-8.7l0,0l0,0c-1.4-4.6-2.8-9.3-4.3-13.8l0.2,0.5
								c-5.7-18.7-11.2-35.8-17-54.3c0.1,0.3,0.2,0.4,0.3,0.7c-0.3-0.9-0.7-1.9-1-2.9c-0.1-0.3,0.1,0.3,0.2,0.6
								c-1-4-3.7-11.5-4.3-13.9c-0.4-1.1-0.6-1.6-0.4-0.9c-4.5-14.5-9.3-30-14-44.7c-0.1-0.3-0.1-0.5-0.1-0.6l0.1,0.1
								c-0.1-0.1-0.1-0.2,0-0.1c-8.8-9.8-17.8-20.4-26.5-30.7c-0.4-0.3,0.8,1.1-0.1,0.1c2.8,3.4,5.3,5.9,7.8,9l-0.4-0.3
								c1.8,2.2,0.5,0.3,2.4,2.6c0.7,0.9-0.3-0.2,0.1,0.3c4,4.6,8.1,9.5,12,13.7c0.6,1,3,3.6,4.6,5.5l-0.1-0.2
								c0.2,0.6,0.3,1.1,0.4,1.6c0.5,1.5,1,3,1.3,3.5c6.2,20.4,12.8,41.2,19.2,62.1c3.3,9.7,6.6,21.5,10.3,33c0,0.1,0,0.1,0,0
								c1.2,3.8,3,9.3,4.3,13.8l1.3,3.8c1.2,3.9,2.3,7.8,3.5,11.7l0-0.1c0.8,24.4,1.6,49.3,2.4,74c0.9,27.8,1.5,52.7,2.6,79.3l0,0.4
								l0.3,0c4.6,0.5,9.4,0.5,14.2,0.1c0,0,0.2,0-0.6,0.1c9.2-0.6,17.6-2.2,25.8-5.1l0,0c5.1-1.8,10.3-3.6,15.4-5.7
								c5.1-2.1,10.2-4.4,15.2-6.9c5-2.5,9.7-5.4,14.3-8.4c4.5-3,8.7-6.4,12.5-9.9c4.7-4.3,9.1-9.1,13.1-14.4
								c3.9-5.4,7.1-11.4,10.1-17.5c5.9-12.3,10.6-25.4,14.6-38.1l0,0.1c3.2-10.2,6-20.4,8.6-30.6c2.5-10.2,4.7-20.5,6.2-31.1
								c0.9-5.4,1.6-11,2-16.6c0.5-5.6,0.7-11.3,0.5-16.9c-0.3-11.3-1.9-22.6-4.6-33.3c-1.6-6.7-4.1-14.2-7.5-21.3
								c-3.3-7.1-7.2-13.8-10.5-19.3c-3.6-5.6-7.5-10.9-11.8-15.8c-4.4-4.9-9-9.5-14-13.7c-5.1-4.1-10.4-7.8-16.1-11.1
								c-5.7-3.2-11.5-6.3-17.6-8.9c-11.1-5.1-22.8-8.8-34.5-11.5c-1.5-0.4-3-0.6-4.4-0.9c-1.5-0.3-2.9-0.6-4.4-0.9
								c-3-0.5-5.9-1-8.9-1.4c-1.5-0.2-3-0.4-4.4-0.5c-1.5-0.1-3-0.3-4.4-0.4c-1.5-0.2-3-0.1-4.4-0.2c-1.5,0-3-0.2-4.4-0.1
								c-1.4,0.1-2.8,0.1-4.2,0.2c-1.4,0-2.9,0.2-4.3,0.3c-2.9,0.2-5.9,0.6-8.9,0.9c-6,0.8-12.1,1.9-18.2,3.4l0.5,0
								c-4.4,0.8-9.6,2.8-12.3,3.3l0.4-0.1c-2.3,0.5-5.1,2-6.6,2.2l-0.3,0.2c-2.7,0.9-0.4,0-2.5,0.7c-0.8,0.3-0.3,0.2-1.9,0.7
								c-0.2-0.1-1.9,0.5-3.5,1.1c-1.6,0.6-3.2,1.2-3.4,1c1.5-0.5-2.4,0.7,0.9-0.6c-0.5,0.1-1.8,0.7-3,1.1c-0.6,0.2-1.1,0.5-1.5,0.6
								c-0.5,0.2-0.6,0.4-0.5,0.3c-0.1,0.2-0.5,0.6-0.5,0.8c0,0.1,0,0.1,0.2,0c0.2-0.1,0.5-0.5,1.2-0.6l0.5-0.3
								c1-0.2,0.7-0.2,1.1-0.2c3.6-1.3,4.1-1.3,6.7-2.1c0,0-0.1,0,0,0c1.7-0.8,4.2-1.5,5.6-1.9l0.6-0.1c0.9-0.1,4-1.6,3-1
								c7.4-2.3,16-4.6,24.4-6.3c1.2-0.4,6.5-1.1,4.6-1c2.2-0.2,8.5-1,10.9-1.3c-0.1,0-0.2,0.1-0.6,0.1c4.6-0.1,5.4-0.8,9.8-0.6
								c0.2-0.1,0.7-0.1,1.5-0.2c0.8,0,1.8-0.1,2.9,0c2.2,0.1,4.6,0.1,5.8,0.1c0.5,0.1,0.7,0.2,0.5,0.2c1.9,0.2,3.9,0.3,5.9,0.5
								c2,0.3,4,0.5,6,0.8c2,0.3,3.9,0.7,5.7,1c1.8,0.3,3.6,0.7,5.2,1.1c2.8,0.4,6.1,1.3,9.3,2.1c1.6,0.5,3.2,0.9,4.6,1.3
								c0.7,0.2,1.4,0.4,2.1,0.6c0.7,0.2,1.3,0.4,1.9,0.5c1.9,0.7,4.4,1.4,7.1,2.5c1.3,0.5,2.7,1,4.1,1.5c1.4,0.5,2.7,1.1,4,1.6
								l-0.5-0.2c3,1.1,6.2,2.6,9.2,4c3,1.4,5.8,2.8,7.7,3.7c0.7,0.6,1.7,1.2,2.8,1.8c1.1,0.7,2.3,1.3,3.4,2.1
								c3.7,2,10.8,6.8,15.8,10.9c0.7,0.8,4,3.5,4.2,3.8c6.8,6,13.6,13.6,19.4,22c5.9,8.4,10.8,17.7,14.3,26.7l-0.1-0.3
								c0.6,1.1,1.1,2.4,1.6,3.6c0.5,1.2,1.1,2.5,1.6,3.7c0.1,0.2,0,0.2-0.2-0.3c0.6,1.6,1,3.3,1.5,5c0.5,1.6,1,3.3,1.4,5
								c0,0,0,0-0.2-0.6c0.4,1.6,0.8,3.3,1.2,5c0.4,1.7,0.7,3.6,1.1,5.5l0,0.2l0.5,2.4c-0.1,0-0.2-0.1-0.4-1.4l0.3,1.4l0.2,1.4
								l0.4,2.8c0.3,1.9,0.5,3.8,0.7,5.7c0.2,1.9,0.3,3.8,0.5,5.7c0.1,1.9,0.1,3.8,0.2,5.7c0.2,7.7-0.4,15.4-1.2,23.1
								c-1.7,15.4-4.8,30.8-8.6,45.9l0.2-1.1c-0.5,2-0.9,3.9-1.4,5.9c0,0,0-0.3,0.1-0.6c-2.1,7.4-4.1,15.1-6.4,22.3
								c0,0,0.3-1.1-0.1-0.2c-0.8,2.7-1.5,4.8-2.2,6.5c-0.6,1.8-1.1,3.2-1.4,4.6c-0.1,0.2-0.2,0.4-0.1-0.2
								c-2.5,7.3-5.3,14.6-8.5,21.8c-3.2,7.1-6.8,14.2-11.1,20.6c-1.8,2.7-3.9,5.3-6.1,7.9c-1.1,1.2-2.3,2.5-3.5,3.8
								c-1.2,1.2-2.5,2.4-3.7,3.6c-5.1,4.7-10.7,8.9-16.3,12.6l0-0.1c-7.3,4.8-15.3,8.9-23.7,12.3c-4.2,1.8-8.5,3.3-12.8,4.8
								c-4.3,1.5-8.6,3-13,4.1c-3.6,0.9-6.7,1.5-9.8,2c-3.1,0.5-6.3,0.8-10,1l-0.2-0.1c-3.8,0.2-7.6,0.2-11.6-0.3l0,0.1
								c-0.3-9.3-0.4-19-0.9-28.4l0.1,0.9c-0.2-2-0.2-8-0.5-7.2l0-2.3c-0.7-9-0.4-16.4-1-27.4l0.1,0.7c-0.2-2.9-0.3-6.3-0.3-8.5
								c0,0.3,0,0.2,0.1,0.9c0-9.2-0.7-19.4-1-29.1l0.2,1.1c-0.3-4.7-0.5-13.3-0.7-19.4l0.1,0.4l-0.2-3.1l0.1-0.1
								C509.4,537.2,509.2,529.7,508.9,521.9z"/>
							<path fill="#625A57" d="M487,444.2C487,444.3,487,444.3,487,444.2C487.1,444.6,487.1,444.4,487,444.2z"/>
							<path fill="#625A57" d="M454.3,339.6c-0.4,0.1-0.6,0.2-0.9,0.3C453.4,339.9,454,339.7,454.3,339.6z"/>
						</g>
					</g>
				</g>
			</g>
		</g>
		<g>
			<path fill="#FFFFFF" d="M383.2,337.9c0,0-13.7-3.1-36.6,0.9c-27.6,4.7-88.7,43.9-108.5,81.4c-19.8,37.5-30.6,74.9-26.7,133.5
				c3.9,58.6,23.2,110.2,57.3,145.1c34,34.9,83.5,68,142.1,63.3c58.6-4.7,83.1-43.5,84.8-46.1c1.7-2.6,27.1-43.5,40-102
				c12.9-58.6,21.1-97.3,11.6-146.8c-9.5-49.5-30.5-79.1-74.9-109.4C431.9,330.1,383.2,337.9,383.2,337.9z"/>
			<g>
				<g>
					<g>
						<g>
							<polygon fill="#625A57" points="383.2,338.6 383.9,338.5 385.3,338.2 							"/>
							<path fill="#625A57" d="M393,337.5c-0.3,0-0.2,0-0.4,0c-1.9,0.2-3.8,0.4-5.7,0.7C389.4,338,391.3,337.4,393,337.5z"/>
							<path fill="#625A57" d="M394.7,337.4c2.2,0,3.2-0.1,3.7-0.2C397.6,337.3,394.2,337.3,394.7,337.4z"/>
							<path fill="#625A57" d="M541.9,446.7c-0.1-0.2-0.1-0.5-0.2-0.7C541.8,446.4,541.9,446.6,541.9,446.7z"/>
							<path fill="#625A57" d="M551,497.2l0.1,0.5c-0.7-9.6-1.8-20.4-3.8-30.4l0.2,0.7c-2.3-12.7-5.6-24.7-10.3-36.2
								c-4.7-11.4-10.8-22.3-18.6-32.4c0.3,0.3,0.3,0.4,0.6,0.7c-0.4-0.5-0.8-1-1.2-1.5c-0.4-0.5-0.9-1-1.3-1.6
								c-0.2-0.3,0.3,0.3,0.6,0.6c-3.2-4.4-10.5-11.9-12.9-14.2c-1.1-1-1.6-1.5-1.1-0.8c-7.2-6.9-15.3-13.4-23.7-19.5l-6.4-4.5
								c-1.1-0.8-2.2-1.4-3.2-2.1l-1.6-1.1l-1.7-1c-4.5-2.6-9.1-4.9-13.8-6.9c-0.9-0.4-1-0.5-0.8-0.5c-8.1-3.2-16.7-5.6-25.5-7.3
								c-8.8-1.6-17.8-2.5-26.7-2.6c-0.7,0.1,1.8,0.1,0.1,0.2c5.7,0.1,10.5,0.1,15.6,0.8l-0.7,0c3.7,0.5,0.8-0.1,4.7,0.5
								c1.5,0.3-0.4,0,0.3,0.1c7.9,1.1,16.1,3,23.3,5.2c0.4,0.2,1.2,0.4,2,0.8c0.9,0.3,1.9,0.7,3,1.1c2.1,0.8,4.4,1.7,5.7,2.4
								c1,0.4,1.9,0.8,2.7,1.1c0.8,0.4,1.4,0.7,1.8,0.8c3.2,1.5,6.2,3.3,9.2,5.1c1.5,0.9,3,1.9,4.4,2.9l4.3,3.1c1.4,1,2.9,2,4.3,3.1
								l4.3,3.2c2.9,2.1,5.6,4.4,8.4,6.7c11,9.1,21,19.6,29.2,31.4c0.9,1.4,1.9,2.8,2.9,4.3c0.5,0.7,1,1.5,1.5,2.2
								c0.4,0.8,0.9,1.6,1.4,2.4c0.9,1.6,1.9,3.2,2.7,4.9c0.8,1.7,1.7,3.4,2.5,5.1c3.2,7,6.1,14.5,8.3,22.2c0,0.1,0,0.1,0,0
								c1.6,5,3.4,12.3,4.6,18.4c0.4,1.7,0.8,3.4,1.1,5.2c1.6,9.2,2.6,18.6,3.1,28c0.5,9.4,0.4,18.9-0.3,28.4
								c-0.7,9.5-1.8,18.9-3.3,28.3c-1.5,9.4-3.3,18.8-5.2,28.1c-2.2,10.6-4.5,20.8-6.7,30.9c-2.3,10-4.9,19.8-7.9,29.4
								c-6.1,19.2-13.5,37.8-23,56.6c0-0.1-0.2,0.2,0.3-0.7c-2.7,5.4-5.5,10.5-8.5,15.4c-3,4.8-6.7,9.1-10.6,13.3l0,0
								c-9.8,10.3-22.2,18.8-35.7,24.5c-13.5,5.8-27.9,8.7-41.5,9.7c-16.6,1.1-34.5-1-51.7-6.4c-17.2-5.3-33.6-13.7-48.2-23.6l0.1,0
								c-11.7-7.9-22.5-16.8-32.5-26.4c-2.5-2.4-5-4.9-7.4-7.4l-3.5-3.8c-1.2-1.3-2.4-2.5-3.5-3.9l-3.3-4c-0.5-0.7-1.1-1.3-1.7-2
								l-1.6-2.1c-1-1.4-2.1-2.8-3.1-4.2c-1.1-1.4-2-2.9-3-4.4c-7.9-12.1-14.8-25.4-20.3-39.3c-5.4-13.9-9.5-28.4-12.2-42.7
								c-1.7-8.9-3.2-19.2-4.3-29.5c-0.2-2.6-0.5-5.1-0.7-7.7c-0.2-2.5-0.3-5-0.5-7.5c-0.3-4.9-0.3-9.6-0.3-13.8
								c0.1-8.7,0.4-17.4,1.2-26c0.8-8.6,1.9-17.1,3.7-25.5c1.7-8.4,3.8-16.8,6.6-24.9c2.7-8.2,5.9-16.2,9.6-24.2l2.6-5.4l2.8-5.4
								c0.9-1.8,1.9-3.5,2.9-5.3c1.1-1.7,2.1-3.4,3.3-5.1c4.5-6.7,9.8-12.8,15.3-18.5c5.5-5.7,11.5-11,17.6-16
								c6.1-5,12.5-9.6,19-13.9c6.1-4.2,12.7-8.2,19.8-11.9c3.5-1.9,7.2-3.6,10.9-5.3c3.7-1.7,7.5-3.2,11.4-4.5l-0.6,0.1
								c2.8-0.9,5.9-1.9,8.9-2.5c2.9-0.6,5.6-1.1,7.5-1.1l-0.6,0.1c3.1-0.3,7.2-1.2,9.1-1.1l0.5-0.1c3.8-0.2,0.5,0.1,3.4,0
								c1.1,0,0.4-0.2,2.7-0.2c0.3,0.2,2.6,0.1,4.9,0.2c2.3,0.1,4.5,0.3,4.6,0.5c-2.1-0.2,3.2,0.4-1.4,0.1c0.7,0.1,2.6,0.2,4.2,0.4
								c1.6,0.2,3.1,0.4,2.8,0.3c0.3-0.1,1-0.1,1.2-0.2c0.1,0,0.1-0.1-0.2-0.1c-0.1,0-0.4,0-0.7-0.1c-0.1,0-0.3,0-0.5-0.1
								c-0.2,0-0.4-0.1-0.6-0.1l-0.8,0c-1.3-0.3-1-0.2-1.4-0.4c-2.5-0.3-3.9-0.5-5.2-0.6c-1.2-0.1-2.3-0.2-4.1-0.3c0,0,0.1,0,0,0
								c-2.5,0.1-5.9,0.1-7.9,0.2l-0.8,0c-1.2-0.1-5.7,0.7-4.2,0.3c-2.6,0.3-5.2,0.6-7.9,1c-2.7,0.4-5.5,0.8-8.2,1.6
								c-5.5,1.4-10.9,3.6-16.1,6c-1.4,0.7-7.9,3.8-5.6,2.9c-1.3,0.5-3.9,1.8-6.5,3.1c-2.6,1.4-5.1,2.8-6.5,3.6
								c0.1-0.1,0.2-0.2,0.6-0.4c-5.4,2.9-6.1,4-11.1,6.8c-0.3,0.4-2.5,1.8-4.9,3.4c-2.4,1.6-5,3.5-6.2,4.6
								c-0.6,0.4-0.8,0.5-0.6,0.3c-8.3,6.2-17.2,13.5-23.4,19.6c-2.6,2.7-5.8,5.9-8.8,9.2c-2.9,3.3-5.7,6.6-7.4,9.3
								c-0.8,1-1.7,2.3-2.7,3.7c-1,1.4-1.9,2.9-3,4.5c-2,3.2-3.7,6.8-5.4,10.2l0.3-0.7c-1,1.9-1.9,3.9-2.9,5.9c-1,2-1.9,4.1-2.8,6.1
								c-1.8,4-3.2,7.8-4.2,10.5c-0.6,1.1-1.1,2.5-1.8,4.1c-0.6,1.6-1.3,3.3-1.8,5c-0.4,1.3-0.9,3-1.5,4.9c-0.6,1.9-1.1,4-1.8,6.3
								c-0.7,2.2-1.2,4.6-1.7,6.8c-0.3,1.1-0.5,2.3-0.8,3.4c-0.2,1.1-0.4,2.2-0.6,3.3c-0.2,0.6-0.5,2.4-0.8,4
								c-0.3,1.6-0.5,3.2-0.7,3.4c-1.8,11.9-2.9,25.3-3,38.9c-0.1,13.6,0.5,27.4,1.8,40.2l-0.1-0.4c0.5,3.3,1.1,7.1,1.8,10.4
								c0,0.3,0,0.3-0.1-0.4c0.4,2.3,0.7,4.5,1,6.8c0.3,2.2,0.8,4.5,1.2,6.8c0,0,0,0-0.2-0.8c0.5,2.1,0.8,4.4,1.3,6.7
								c0.5,2.3,1,4.7,1.7,7.2l0,0.3c0.3,1.1,0.6,2.1,0.9,3.2c-0.1-0.1-0.2-0.2-0.6-1.9c2.5,9.7,5.5,19.4,9.2,28.9
								c3.8,9.5,8.1,18.7,13.2,27.7c1.3,2.2,2.6,4.4,3.9,6.6c1.4,2.2,2.8,4.3,4.3,6.4l1.1,1.6c0.4,0.5,0.8,1,1.1,1.6l2.3,3.1
								l2.3,3.1l2.5,3c3.2,4,6.8,7.8,10.3,11.5c3.6,3.7,7.3,7.3,11.1,10.7l-1.2-1c2,1.8,4,3.5,6,5.2c-0.1,0-0.3-0.2-0.6-0.5
								c3.8,3.4,7.8,6.7,11.9,9.8c4.1,3.1,8.3,6.1,12.4,8.9c-0.1,0-1.3-0.8-0.2,0c6.2,3.9,9.9,6.5,13.2,8c0.3,0.2,0.5,0.4-0.2,0
								c4.5,2.5,9.1,4.8,13.7,7c4.7,2.2,9.5,4.1,14.4,5.9c9.8,3.5,19.9,6.1,30.1,7.6c8.5,1,17.6,1.6,26.8,1
								c9.1-0.5,18.4-1.8,26.9-4.2l-0.1,0.1c11.1-3,22.2-7.7,32.3-14c10.1-6.4,19.4-14.4,26.7-23.9c3.1-3.9,5.1-7.6,7.1-11.2
								c2-3.6,4-7.3,6.2-11.8l0.2-0.2c7.3-15.1,14.9-32,20-48.7l-0.3,1.2c0.3-1.3,1.2-3.8,1.9-5.9c0.6-2.1,1.1-3.7,0.8-3.3l1-2.9
								c3-11.5,5.8-20.8,8.6-35.1l-0.1,0.9c0.8-3.8,1.7-8.2,2.3-11c-0.1,0.4,0,0.2-0.2,1.1c2.8-11.8,5.2-25.1,7.2-37.7l-0.1,1.5
								c0.2-1.5,0.5-3.4,0.8-5.4c0.3-2,0.6-4.3,0.9-6.6c0.3-2.3,0.6-4.7,0.8-6.9c0.3-2.3,0.4-4.5,0.6-6.5l0,0.5l0.3-4.1l0.1-0.1
								C551.6,517.5,551.6,507.5,551,497.2z"/>
							<path fill="#625A57" d="M517.3,397.7C517.3,397.8,517.3,397.8,517.3,397.7C517.6,398.1,517.5,397.9,517.3,397.7z"/>
							<path fill="#625A57" d="M369.6,336.2c0.5,0,0.9,0,1.3,0C370.8,336.2,370,336.2,369.6,336.2z"/>
						</g>
					</g>
				</g>
			</g>
		</g>
	</g>
</g>
<g id="STRAPS">
	<g>
		<g>
			<path fill="#AFB1AF" d="M579.6,651.7c0,0,7,16.5,8.5,30.7c1.6,15.1-1.1,29.9-1.1,29.9l28-5.8c0,0,0.9-19.1-0.2-31.4
				c-1.7-18.7-9.9-39.5-9.9-39.5L579.6,651.7z"/>
			<g>
				<g>
					<g>
						<g>
							<polygon fill="#B9BBB9" points="580.2,651.9 580.4,651.8 580.5,651.7 							"/>
							<path fill="#B9BBB9" d="M581.3,651c-0.1,0-0.1,0-0.1,0l-0.5,0.6C581.2,651.4,581,651.1,581.3,651z"/>
							<path fill="#B9BBB9" d="M581.6,650.8c0.4-0.2,0.4-0.3,0.4-0.3C582,650.6,581.4,650.8,581.6,650.8z"/>
							<path fill="#B9BBB9" d="M605.6,638.4C605.6,638.4,605.5,638.4,605.6,638.4C605.5,638.4,605.6,638.4,605.6,638.4z"/>
							<path fill="#B9BBB9" d="M608.6,646l0.1,0c-0.6-1.4-1-3.1-1.6-4.6l0.1,0.1c-0.7-2.1-1.4-4.1-2.3-6l0-0.1l-0.1,0
								c-1.5,1-2.9,2-4.5,3c0,0,0-0.1,0.1-0.1c-0.1,0.1-0.3,0.3-0.5,0.4c-0.1,0,0-0.1,0.1-0.1c-0.8,0.3-2,1.4-2.6,1.6
								c-0.2,0.1-0.2,0.3-0.1,0.2c-2.6,1.7-5.4,3.5-8,5.3c-0.2,0.1-0.2,0.1-0.2,0c-2.1,1.6-4.6,3.1-7,4.5c0,0.1,0.3-0.1,0.2,0.1
								c0.8-0.4,1.2-0.9,2-1.3l0,0.1c0.5-0.3-0.1-0.1,0.5-0.4c0.3-0.1,0,0.1,0.1,0c1-0.7,2.2-1.3,3-2.1c0.4-0.1,1.1-0.7,1.7-0.9
								c0.2-0.2,0.5-0.4,0.5-0.5c3.8-2.3,7.4-4.8,11.3-7.2c1-0.8,2.2-1.6,3.5-2.3l-0.5-0.2c0.3,0.9,0.6,1.9,1,2.8c0,0,0,0,0,0
								c0.4,0.7,0.8,1.9,1.1,2.8l0.4,0.7c1.6,5.7,3.5,11.4,4.8,17.3c1.5,6.7,2.2,12.6,3,19.1c0,0,0,0-0.1-0.1
								c0.2,1.9,0.1,3.7,0.2,5.5l0,0c0.4,4.5,0.1,9.3,0.3,13.6c-0.1,2.8-0.2,5.9-0.3,9l0.1-0.1c-2.5,0.5-5.1,1.1-7.6,1.7l0-0.1
								c-4.3,1-8.6,1.6-13,2.6c-2.5,0.4-4.9,1.1-7.4,1.7l0.1,0.1c0.3-2.1,0.5-4.3,0.8-6.3c0.6-2.8,0.2-6.6,0.6-9.3
								c0.7-5.5,0.2-10.9-0.8-16.3c-0.5-5.1-2.2-9.9-3.2-14.7c-0.9-2.2-1.2-4.8-2.1-7.2l0,0.1c-0.1-1-1-1.8-0.9-2.5l0,0.1
								c0-0.5-0.8-0.9-0.7-1.3l-0.1,0c-0.2-0.5,0.1-0.1-0.1-0.5c-0.1-0.2-0.2,0-0.3-0.4c0.3-0.2-0.6-1.3-0.3-1.5
								c0.1,0.3,0-0.5,0.3,0.1c0-0.1-0.1-0.4-0.3-0.6c-0.1-0.1-0.1-0.3-0.2-0.2c-0.1,0-0.1,0-0.2,0c-0.1-0.1-0.1-0.2-0.2-0.3
								c0,0-0.1,0-0.1,0c0,0.1-0.2,0.1-0.1,0.3c0.1,0.1,0.1,0.1,0.2,0.1c0,0.2,0,0.2-0.1,0.3c0.3,0.7,0.1,0.9,0.3,1.5c0,0,0,0,0,0
								c0.3,0.3,0.4,0.8,0.5,1.1l0,0.1c-0.1,0.2,0.6,0.7,0.3,0.6c0.6,1.5,1.3,3.2,1.8,4.9c0.2,0.2,0.4,1.3,0.5,0.9
								c-0.1,0.5,0.3,1.8,0.5,2.3c0,0-0.1,0-0.1-0.1c0,1,0.6,1,0.5,2c0.3,0.1,0.4,1.6,0.8,2c0,0.1-0.1,0.2-0.1,0.1
								c0.4,1.6,0.8,3.3,1.1,4.7c0.5,1.1,0.5,2.8,1,3.7c0.1,0.8,0.2,2.2,0.5,3.3l-0.1-0.1c0.2,1.3,0.4,2.9,0.7,3.8
								c-0.3,0.4-0.1,1-0.2,1.5c0.2,0.9,0.3,2.6,0.4,4c-0.1,0.2,0.1,1.1-0.1,1.2c0.5,3.7,0.2,8.4-0.4,12.4l0-0.1
								c0.1,0.5,0.3,1.1,0.3,1.7c0,0.1-0.1,0,0-0.1c0,0.7-0.3,1.4-0.3,2.1c0,0,0,0,0-0.1c0,0.7-0.3,1.4-0.3,2.2l-0.1,0l0,0.5
								c-0.1,0-0.2-0.1-0.1-0.3c-0.2,1.3-0.4,2.7-0.6,4l-0.1,0.8l0.8-0.2c4.9-1.1,9.9-2.3,14.9-3.3l-0.2,0.1l1.2-0.4
								c0,0-0.1,0.1-0.1,0.1c1.6-0.2,3.2-0.7,4.7-1c0,0-0.2,0.1,0,0.1c1.1-0.4,1.9-0.2,2.4-0.6c0.1,0,0.1,0.1,0,0.1
								c1.7-0.4,3.4-0.8,5.1-1.2l0.3-0.1l0-0.3c0.1-1.5,0.1-3,0.2-4.6c-0.2-2.7,0.1-5.7-0.1-8.5l0.1,0c-0.2-3.6,0-7.5-0.2-11.3
								c0-1.6-0.2-2.6-0.3-4.2l0.1,0c-0.2-1.3-0.3-2.7-0.4-4.1c-0.1-1.4-0.2-2.8-0.6-4.2l0.1,0.2c-0.2-0.4-0.2-1.7-0.5-1.5l0-0.5
								c-0.7-1.8-0.4-3.4-1.1-5.6l0.1,0.1c-0.2-0.6-0.4-1.3-0.4-1.7c0,0.1,0,0,0.1,0.2c-0.2-1.9-0.9-3.9-1.5-5.9l0.2,0.2
								c-0.4-0.9-0.7-2.7-1.1-3.9l0.1,0.1l-0.3-0.6l0.1,0C609.7,649,609.1,647.5,608.6,646z"/>
							<path fill="#B9BBB9" d="M600.1,638.7L600.1,638.7C600.1,638.6,600.1,638.6,600.1,638.7z"/>
							<path fill="#B9BBB9" d="M579.9,653.9c0-0.1,0-0.1-0.1-0.2C579.8,653.7,579.9,653.8,579.9,653.9z"/>
						</g>
					</g>
				</g>
			</g>
		</g>
		<g>
			<path fill="#AFB1AF" d="M474.1,412.7c0,0,22.9-21.6,73-59.7c50-38,61.8-37.3,64.4-38c11-3.1,25.8-1.3,25.8-1.3l28.9,24.5
				c0,0,1.8,4.4-1.6,10.4c-3.4,6-25.6,37.8-25.6,37.8s-6.7-8.4-12-13.9c-4.9-5.1-10.6-10.1-10.6-10.1l7-10.7c0,0-10.5,2-39.1,25
				c-28.7,22.9-88.3,74.3-88.3,74.3s-12.2,12-15.4,14.1c-3.1,2.1-21.5,16.2-21.5,16.2s-2.5,0.1-5.6-0.9c-4.5-1.5-10.5-4.8-14.1-9.8
				c-1.5-2.1-3-4.3-3.9-6.6c-2.8-7.6-1.6-17.6,8-25.4C455.9,428.6,474.1,412.7,474.1,412.7z"/>
			<g>
				<g>
					<g>
						<g>
							<polygon fill="#B9BBB9" points="473.7,412.3 473.4,412.4 472.9,413 							"/>
							<path fill="#B9BBB9" d="M469.9,415.8c0.1-0.1,0.1,0,0.2-0.1l2.1-2.2C471.1,414.3,470.7,415.3,469.9,415.8z"/>
							<path fill="#B9BBB9" d="M469.2,416.4c-0.9,0.7-1.2,1.1-1.4,1.4C468.1,417.4,469.5,416.3,469.2,416.4z"/>
							<path fill="#B9BBB9" d="M468,475c-0.1,0.1-0.2,0.2-0.3,0.2C467.9,475.1,468,475,468,475z"/>
							<path fill="#B9BBB9" d="M489,457.7l0.1-0.3c-1.8,1.8-3.8,3.6-5.8,5.4c-2,1.8-4.4,3.3-6.5,4.9l0.3-0.2
								c-6.2,4.6-12.1,9.1-18,13.7l0,0c-2.8,0.1-5.6-0.7-8.2-1.8c-2.6-1.1-5.1-2.6-7.4-4.4c0.2,0.1,0.2,0.1,0.4,0.3
								c-0.5-0.4-1.1-0.8-1.7-1.3c-0.1-0.2,0.2,0.1,0.4,0.3c-2.1-1.9-5.4-6.4-6.1-8.1c-0.4-0.7-0.6-1-0.5-0.6
								c-1.2-2.4-1.8-5.1-2-7.8c-0.2-2.7,0.2-5.5,1.1-8.2c0.9-2.6,2.3-5.1,4.1-7.2c1.7-2.2,3.9-4,5.9-5.7c0.4-0.3,0.5-0.3,0.5-0.2
								c6.9-6.1,14.3-12.2,21.5-18.3c0.2-0.3-0.8,0.6-0.1-0.1c-2.4,1.9-4.1,3.8-6.3,5.4l0.2-0.3c-1.6,1.3-0.2,0.4-1.8,1.7
								c-0.7,0.5,0.1-0.2-0.2,0c-3.2,2.8-6.6,5.6-9.6,8.3c-0.9,0.5-3.5,2.9-4.8,3.8c-0.8,0.7-1.7,1.4-1.9,1.8
								c-1.5,1.2-2.7,2.6-4,4.1c-1.2,1.5-2.2,3.1-3,4.9c-1.5,3.5-2.2,7.4-1.7,11.3c0.2,1.9,0.7,3.8,1.4,5.6c0.8,1.8,1.8,3.4,2.9,5
								c2.1,3.2,5,6,8.3,8c1.8,1,3.7,1.9,5.8,2.7c2.1,0.8,4.4,1.3,6.8,1.3l0.1,0l0.1-0.1c2.9-2.1,5.8-4.3,8.7-6.6c0.1,0,0.1,0,0,0
								c2.1-1.7,5.3-4.2,8-6.1l2.2-1.8c8.3-5.5,14.8-13.4,22.6-19.7c7.6-6.5,15.3-13.1,23-19.6c17.5-14.7,32.9-27.5,49.8-41.9
								c0,0,0.1-0.1-0.3,0.3c4.9-4.1,9.5-7.7,14.2-11.5l0,0c5.5-4.4,11.3-8.8,17.4-12.8c3-2,6.1-3.9,9.2-5.7
								c3.1-1.7,6.2-3.4,9.5-4.4l-0.2-0.2c-0.5,0.8-1,1.6-1.5,2.3c-1.7,2.6-3.5,5.3-5.5,8.4l-0.1,0.1l0.1,0.1
								c3.9,3.5,7.8,7.2,11.6,11.2c3.8,4.1,7.4,8.4,10.9,12.7l0.1,0.1l0.1-0.1c2.5-3.6,5-7.2,7.4-10.8l0,0.1c4.1-6,8.2-12,12.3-17.9
								c2-3,4.1-5.9,5.9-9.1c1.8-3.1,2.8-7,1.6-10.6l0,0l0,0c-0.2-0.1-0.4-0.3-0.5-0.5c-9.2-7.9-19-15.9-28.5-23.9l0,0
								c-3.2-0.3-6.5-0.5-9.7-0.6c-4.8-0.1-10.4,0.2-15.6,1.7c-5.4,0.9-10.3,3.1-14.4,4.9c-8.4,3.9-16.1,8.7-23.7,13.7
								c-7.5,5.1-14.8,10.5-22.1,16.1c-13.7,10.1-26.8,20.8-39.8,30.9c-5.9,5.1-12.9,10.1-19.5,15.8l0.3-0.1
								c-2.5,1.8-5.1,4.7-6.8,5.8l0.2-0.2c-1.4,0.9-2.6,2.8-3.5,3.3l-0.1,0.2c-1.5,1.3-0.2,0.1-1.4,1.1c-0.4,0.4-0.1,0.3-1,1
								c-0.4-0.1-3.6,3.3-4,3.1c0.8-0.7-1.4,1,0.4-0.7c-0.5,0.4-3,2.7-2.7,2.6c-0.1,0.3-0.9,1.3,0.6,0.1l0.2-0.4
								c0.6-0.4,0.4-0.3,0.7-0.4c2-1.8,2.4-1.9,3.8-3.1c0,0,0,0,0,0c0.9-1,2.3-2.1,3.1-2.8l0.4-0.2c0.6-0.3,2.1-2.2,1.6-1.5
								c4-3.6,8.7-7.6,13.4-11.5c0.6-0.6,3.6-2.9,2.4-2.3c1.3-0.8,4.8-3.6,6.1-4.7c0,0.1-0.1,0.1-0.3,0.3c2.7-1.8,2.8-2.6,5.4-4.3
								c0.2-0.5,4.3-3.4,5.5-4.7c0.3-0.2,0.5-0.2,0.4-0.1c4.3-3.4,9.1-7.1,12.7-9.9c3-2.6,7.6-5.8,10.1-8.1c2.3-1.7,5.9-4.3,9-6.8
								l-0.3,0.3c3.5-2.7,7.9-6,10.3-7.9c1.2-0.5,2.7-1.7,4.3-2.7c1.1-0.9,3-2.2,5-3.6c2-1.4,4.1-2.9,6-4.2c0.6-0.3,3.1-2.1,3.4-2.1
								c5.2-3.6,11.2-7.4,17.5-10.6c3.2-1.6,6.5-3.1,9.8-4.3c1.7-0.6,3.3-1,5-1.3c1.8-0.2,3.4-0.8,5-1l-0.2,0.1
								c1.7-0.4,3.6-0.9,5.4-1.2c0.2,0,0.2,0-0.2,0.1c2.4-0.3,4.8-0.2,7.2-0.2c0,0,0,0-0.4,0.1c2.3-0.1,4.7,0.2,7.5,0.3l0.1,0.1
								l1.7,0.1c0,0.1-0.1,0.1-1,0c0.7,0.1,1.3,0.1,2,0.2l-0.3-0.1c9.5,8.1,19.2,16.2,29,24.4l-0.1-0.2c0.6,1.8,0.6,3.9,0.2,5.9
								c-0.5,2-1.3,3.8-2.4,5.5c-2.2,3.5-4.5,6.9-6.8,10.4l0.4-0.7l-2.3,3.5c0,0,0.1-0.2,0.2-0.4c-3.1,4.4-6.1,9.1-9.1,13.3
								c0,0,0.4-0.7-0.1-0.1c-2.1,3.3-3.7,5-4.5,6.8c-0.1,0.1-0.3,0.2-0.1-0.1c-0.9,1.3-1.7,2.5-2.6,3.8l0.6,0
								c-2.9-3.6-6-7.2-9.1-10.7c-3.1-3.5-6.5-6.8-9.9-10c-1.2-1-2.4-2.1-3.7-3.2l0,0.3c2.2-3.5,4.6-7.1,7-10.7l0.3-0.4l-0.5,0.1
								c-3.6,1-6.8,2.8-9.9,4.6l0-0.1c-10.5,6.2-20.9,13.8-30.7,21.7c-4.1,3.3-6.8,5.6-10.8,8.9l-0.2,0
								c-6.6,5.9-14.5,11.7-21.3,17.9l0.4-0.5c-1,1.1-4.3,3.5-3.7,3.4l-1.3,1c-4.5,4.3-8.8,7.2-14.5,12.4l0.3-0.4
								c-1.5,1.4-3.3,2.9-4.5,3.9c0.2-0.2,0.1-0.1,0.4-0.4c-5.1,3.9-10.3,8.8-15.4,13.2l0.5-0.6c-2.4,2.2-7,6-10.2,8.9l0.2-0.2
								l-1.6,1.5l-0.1-0.1c-1.1,0.9-2.1,1.8-3.1,2.7c-1,0.9-2.1,1.8-3,2.8C492.9,454,491,455.8,489,457.7z"/>
							<path fill="#B9BBB9" d="M442.7,474.3C442.7,474.3,442.7,474.3,442.7,474.3C442.9,474.4,442.8,474.4,442.7,474.3z"/>
							<path fill="#B9BBB9" d="M479.8,408.3c-0.2,0.2-0.4,0.3-0.5,0.4C479.4,408.7,479.7,408.5,479.8,408.3z"/>
						</g>
					</g>
				</g>
			</g>
		</g>
		<g>
			<path fill="#AFB1AF" d="M218.3,469.4c0,0-89.5,23.2-88.9,24.3c1,2,49,4.7,62,4.9c13,0.2,21.3-0.2,21.3-0.2s1.2-9.5,2.2-14.4
				C215.8,479.1,218.3,469.4,218.3,469.4z"/>
			<g>
				<g>
					<g>
						<g>
							<polygon fill="#B9BBB9" points="217.8,469.9 217.8,470 217.8,470.2 							"/>
							<path fill="#B9BBB9" d="M217.6,471.3c0-0.1,0-0.1,0.1-0.1l0-0.7C217.4,471,217.7,471,217.6,471.3z"/>
							<path fill="#B9BBB9" d="M217.5,471.6c-0.1,0.4-0.1,0.5-0.1,0.5C217.4,472.1,217.6,471.4,217.5,471.6z"/>
							<path fill="#B9BBB9" d="M207.2,498.2c0,0,0.1,0,0.1,0C207.2,498.2,207.2,498.2,207.2,498.2z"/>
							<path fill="#B9BBB9" d="M198.5,498.8l-0.1,0.1c1.6-0.2,3.4,0,5.1-0.1l-0.1,0c3.2,0,6.2-0.1,9.2-0.4l0,0
								c0.1-1.1,0.2-2.2,0.4-3.4c0,0.1,0,0.1,0,0.2c0-0.2-0.1-0.4,0-0.7c0-0.1,0,0.1,0,0.1c0.3-0.9,0.2-2.7,0.5-3.2
								c0-0.3,0-0.4-0.1-0.2c0.4-3.3,0.9-7,1.7-10.2c0.1-0.2,0.1-0.2,0.2-0.1c0.4-2.8,1.2-5.6,2-8.5c0-0.1-0.1,0.3-0.1,0.1
								c-0.3,1-0.3,1.6-0.6,2.5l0-0.1c-0.2,0.6,0.1,0-0.1,0.7c-0.1,0.3-0.1,0-0.1,0.1c-0.3,1.3-0.7,2.6-0.8,3.7
								c-0.2,0.3-0.3,1.4-0.6,1.8c0,0.3-0.1,0.7,0,0.8c-0.6,2.2-1,4.6-1.3,7c-0.3,2.4-0.6,4.8-1,7.2c0,0.7-0.1,1.4-0.1,2.2l0.3-0.2
								c-1.7,0.1-3.6,0-5.5,0.1c0,0,0,0,0,0c-0.9,0.1-2.2,0.2-3.2,0.1l-0.9,0.1c-6.3-0.2-12.7-0.1-19.1-0.5c-7.3-0.4-13.6-1-20.7-1
								c0,0,0-0.1,0.1-0.1c-2-0.1-3.9-0.3-5.8-0.4l0,0c-4.8-0.1-9.9-0.7-14.5-0.9c-2.8-0.3-5.8-0.6-8.8-1c-1.5-0.2-3-0.4-4.5-0.9
								c-0.1,0-0.2-0.1-0.2-0.1c0,0-0.1,0-0.1-0.1l0,0c0,0,0,0,0,0c0,0,0,0,0,0c0,0,0,0,0,0c0.1-0.1,0.3-0.2,0.5-0.2
								c0.3-0.1,0.7-0.3,1.1-0.4c0.7-0.2,1.4-0.5,2.1-0.7l0,0.1c4.5-1.5,9-2.4,13.6-3.8c4.7-1.2,9.6-3,14.4-4.1
								c3-0.5,6.7-2.2,9.6-2.6c5.8-1,11.2-2.8,16.8-4.6c5.3-1.2,10.4-3,15.6-4c2.3-0.8,5.1-1.1,7.8-1.8l-0.1-0.1
								c1,0,2.1-0.9,2.7-0.7l-0.1,0c0.6,0,1.1-0.7,1.4-0.6l0.1-0.1c0.6-0.2,0.1,0.1,0.6,0c0.2-0.1,0-0.2,0.4-0.2
								c0.2,0.3,1.5-0.5,1.6-0.1c-0.3,0.1,0.6,0-0.2,0.3c0.1,0,0.4-0.1,0.7-0.2c0.1,0,0.1,0,0.2-0.1l0.1,0l0,0c0,0,0,0,0,0
								c-0.1,0-0.1-0.1-0.1-0.1c0-0.1,0,0,0-0.1c0.1,0,0.2,0,0.3,0c0,0,0.1,0,0.1-0.1c0,0,0-0.1,0-0.1c0,0-0.1-0.1-0.3-0.1
								c-0.1,0.1-0.1,0.1-0.1,0.2c-0.2-0.1-0.2,0-0.3-0.1c-0.8,0.2-1,0-1.6,0.1c0,0,0,0,0,0c-0.4,0.3-0.9,0.3-1.3,0.4l-0.1,0
								c-0.2-0.1-0.9,0.5-0.7,0.2c-1.6,0.5-3.6,1-5.4,1.5c-0.2,0.2-1.4,0.4-1,0.4c-0.5-0.1-1.9,0.2-2.4,0.4c0,0,0-0.1,0.1-0.1
								c-1.1,0-1.1,0.6-2.1,0.5c-0.1,0.3-1.7,0.4-2.2,0.8c-0.1,0-0.2-0.1-0.1-0.1c-1.7,0.4-3.6,0.8-5,1.2c-1.2,0.5-3,0.7-3.9,1.2
								c-0.9,0.2-2.3,0.4-3.5,0.8l0.1-0.1c-1.4,0.4-3.1,0.8-4,1.3c-0.5-0.2-1.1,0-1.7,0.1c-0.9,0.4-2.7,0.8-4.1,1.3
								c-0.2-0.1-1.1,0.4-1.3,0.2c-3.8,1.4-8.6,2.5-12.9,3.4l0.1,0c-0.5,0.2-1.1,0.6-1.6,0.9c-0.1,0-0.1,0,0.1-0.1
								c-0.7,0.2-1.5,0.2-2.3,0.5c0,0,0,0,0.1-0.1c-0.7,0.3-1.5,0.2-2.3,0.6l-0.1,0l-0.5,0.2c0-0.1,0-0.2,0.3-0.2
								c-6.5,1.7-13.2,3.9-19.8,5.7l0.2-0.1l-1.3,0.5c0,0,0.1-0.1,0.1-0.1c-1.7,0.4-3.3,1-4.9,1.5c0,0,0.2-0.2,0-0.1
								c-1.1,0.5-2,0.4-2.4,0.9c-0.1,0-0.1-0.1,0-0.1l-0.6,0.3l-0.3,0.1c-0.1,0-0.1,0.1-0.2,0.1c0,0-0.1,0-0.1,0.1
								c0,0-0.1,0.1-0.1,0.1c0,0-0.1,0.1-0.1,0.2c0,0.1,0,0.2,0,0.2c0.2,0.2,0.3,0.3,0.4,0.4c0.1,0.1,0.2,0.1,0.3,0.1
								c0.2,0.1,0.4,0.1,0.7,0.2c0.9,0.2,1.7,0.3,2.6,0.5c1.7,0.3,3.5,0.5,5.2,0.7c2.9,0,6.1,0.6,9.1,0.6l0,0.1
								c3.9,0.1,8,0.6,12,0.9c1.7,0.1,2.8,0.1,4.5,0.2l0,0.1c2.8-0.1,5.9,0.6,8.9,0.4l-0.2,0.1c0.5-0.1,1.8,0.2,1.6-0.1l0.5,0.1
								c2-0.3,3.6,0.4,6.1,0.2l-0.2,0.1c0.7,0,1.4,0,1.9,0.1c-0.1,0,0,0-0.2,0c2,0.4,4.3,0.1,6.5,0.2l-0.2,0.1c1-0.1,3,0.1,4.3,0
								l-0.1,0.1l0.7-0.1l0,0.1C195.1,498.9,196.8,498.8,198.5,498.8z"/>
							<path fill="#B9BBB9" d="M213.1,494.7L213.1,494.7C213.1,494.8,213.1,494.8,213.1,494.7z"/>
							<path fill="#B9BBB9" d="M215.9,469.4c0.1,0,0.1,0,0.2,0C216.1,469.4,216,469.4,215.9,469.4z"/>
						</g>
					</g>
				</g>
			</g>
		</g>
		<g>
			<path fill="#AFB1AF" d="M125.4,493.9l2.2,38.1c0,0,5.6,2.3,30.1,4.3c55.1,4.5,93.7-1,93.7-1l2.1-21.2c0,0-2.9-9.9-11.5-14.6
				c0,0-15,0.7-52.7,0c-37.8-0.8-55.7-3.4-58.8-4.1C127.5,494.8,125.4,493.9,125.4,493.9z"/>
			<g>
				<g>
					<g>
						<g>
							<path fill="#B9BBB9" d="M125.8,494.5c-0.1,0.1-0.3,0.1-0.4,0.1c-0.1,0-0.2,0-0.2,0l0,0l0,0l0.1,0l0.4,0l-0.3-0.1l-0.1,0
								l-0.1,0l0,0c0,0,0,0,0,0c0.1,0,0.1,0,0.2,0C125.5,494.6,125.7,494.5,125.8,494.5z"/>
							<path fill="#B9BBB9" d="M127.7,495.2c-0.1,0,0-0.1-0.1-0.1c-0.5-0.1-1-0.1-1.6-0.2C126.6,495.3,127.3,495,127.7,495.2z"/>
							<path fill="#B9BBB9" d="M128.1,495.3c0.6,0.2,0.8,0.2,1,0.1C128.8,495.5,128,495.2,128.1,495.3z"/>
							<path fill="#B9BBB9" d="M179.6,499.7c-0.1,0-0.1,0-0.2,0C179.5,499.7,179.6,499.7,179.6,499.7z"/>
							<path fill="#B9BBB9" d="M193.1,499.5l0.1-0.1c-2.5,0.2-5.3-0.1-8-0.1l0.2,0c-6.7-0.2-13-0.2-19.7-0.5c0.1,0,0.1,0,0.2,0
								c-0.3,0-0.7,0.1-1,0.1c-0.1,0,0.1,0,0.2-0.1c-1.4-0.3-4.2-0.1-5-0.3c-0.4,0-0.6,0.1-0.4,0.1c-5.2-0.3-10.8-0.6-16.2-1
								c-0.3,0-0.3-0.1-0.2-0.2c-2.3-0.1-4.6-0.3-7-0.6c-2.3-0.3-4.7-0.6-7-1.2c-0.2,0,0.5,0.2,0,0.2c1.5,0.5,2.8,0.3,4.1,0.7
								l-0.2,0c1,0.2,0.2-0.2,1.2,0.1c0.4,0.1-0.1,0.1,0.1,0.1c2.1,0.3,4.3,0.6,6.3,0.6c0.5,0.2,2.3,0.2,3,0.5c0.5,0,1.1,0.1,1.3,0
								c7.3,0.8,14.9,1.1,22.4,1.4c3.5-0.1,7.8,0.4,11.9,0.4c0,0,0,0,0,0c1.4,0,3.4,0,5,0.1l1.4-0.1c9.8,0.5,19.8,0.5,29.8,0.6
								c9.2,0.1,17.4,0.2,26.1-0.2l-0.2-0.1c1.7,0.9,3.4,2.1,4.9,3.5c0,0,0,0.1-0.2-0.1c2.3,2.2,3.8,4.6,5.2,7.3l0,0
								c0.6,1.1,1.2,2.4,1.6,3.6l0-0.1c-0.5,6.2-1.3,12.7-1.7,18.6c-0.1,0.8-0.2,1.7-0.3,2.6l0.1-0.1c-7.9,1-16.7,1.7-25.1,2.2
								l0-0.1c-7.4,0.5-14.5,0.4-21.9,0.5c-7.6-0.1-15.6,0.3-23.2-0.2c-1.2-0.1-2.5-0.2-3.8-0.2c-1.3-0.1-2.7-0.1-4-0.1
								c-2.7-0.1-5.4-0.1-7.6-0.4c-9.1-1.1-17.9-1.5-27-2.5c-1.9-0.3-3.8-0.6-5.7-1c-1.9-0.4-3.8-0.7-5.6-1.3l-0.1,0l0-0.1
								c-0.3-4.6-0.6-9.1-0.7-13.5c-0.4-4-0.2-8-0.5-12.3l-0.1,0.1c0.1-1.4-0.4-3.6-0.2-4.4l0,0.2c0.1-0.7-0.4-2.2-0.3-2.5l-0.1-0.2
								c-0.1-1,0.1,0,0-0.8c0-0.3-0.1-0.2-0.1-0.8c0.2,0.1-0.2-2.5,0.1-2.2c0,0.5,0-0.7,0.2,0.6c0-0.3-0.1-2-0.2-2
								c0-0.1,0.1-0.3,0.1-0.4c0,0,0-0.1-0.1-0.1c-0.1,0-0.3,0-0.3,0.3l0.1,0.3c-0.1,0.2,0,0.2-0.1,0.2c0.1,1.3-0.1,1.3-0.1,2.2
								c0,0,0,0,0,0c0.1,0.8,0.1,1.6,0.1,2.1l0,0.2c-0.1,0.2,0.3,1.7,0.1,1.1c0.1,2.7,0.3,5.8,0.5,8.9c0.1,0.5,0.1,2.3,0.2,1.7
								c-0.2,0.6-0.1,2.9,0,3.7c0,0,0-0.1,0-0.2c-0.2,1.5,0.3,2,0.1,3.4c0.3,0.3,0.1,2.8,0.4,3.7c0,0.2-0.1,0.2-0.1,0.2
								c0.1,2.7,0.2,5.8,0.3,8.1c0.1,0.7,0.2,1.6,0.2,2.5l0,0.4l0.4,0.1c1.5,0.5,2.9,0.9,4,0.9c1.4,0.4,3.6,0.9,5.5,1.1l-0.2,0
								c2.2,0.3,4.9,0.7,6.4,0.7c0.6,0.4,1.6,0.4,2.5,0.6c1.5,0,4.4,0.4,6.7,0.5c0.3,0.2,1.8,0.1,1.9,0.3c6.3,0.2,14,0.9,20.7,1.5
								l-0.1,0c0.9-0.1,1.9-0.2,2.8-0.3c0.1,0,0.1,0.1-0.1,0c1.2,0,2.4,0.2,3.6,0.2c0,0,0,0-0.2,0.1c1.1,0,2.4,0.2,3.7,0.1l0.1,0.1
								l0.9,0c0,0.1-0.1,0.2-0.5,0.1c10.5,0.4,21.3,0.1,32.1-0.2l-0.4,0.1l2.1-0.2c0,0-0.1,0.1-0.2,0.1c2.7,0,5.4-0.3,8-0.4
								c0,0-0.4,0.1,0,0.1c1.9-0.3,3.1,0.1,4-0.4c0.1,0,0.2,0.1,0,0.1c5.3-0.5,10.8-0.9,16.2-1.4c1.5-0.3,3.1-0.5,4.7-0.7l0.2,0
								l0-0.2c0.3-3.1,0.7-6.3,0.8-9.4l0.1,0c0.2-3.9,0.7-7.9,1.1-11.9l0,0l0,0c-0.7-2.2-1.7-4.2-2.9-6.1c-1.4-2.2-2.5-3.6-4.4-5.4
								l0-0.1c-1.4-1.1-2.8-2.1-4.3-3.1l0,0l0,0c-2.8,0-5.7,0-8.5,0.2l0.3-0.1c-0.7,0.2-2.8,0-2.5,0.3l-0.8-0.1
								c-3.1,0.4-5.7-0.1-9.5,0.1l0.3-0.1c-1,0.1-2.2,0.1-2.9,0c0.1,0,0.1,0,0.3,0c-3.2-0.3-6.7,0-10.1,0l0.4-0.1
								c-1.6,0.1-4.6,0-6.7,0l0.1-0.1l-1.1,0.1l0-0.1C198.4,499.5,195.8,499.5,193.1,499.5z"/>
							<path fill="#B9BBB9" d="M165.2,498.7C165.2,498.7,165.2,498.7,165.2,498.7C165.3,498.7,165.2,498.7,165.2,498.7z"/>
							<path fill="#B9BBB9" d="M125.2,497.1c0-0.1,0-0.2,0-0.3C125.2,496.8,125.2,497,125.2,497.1z"/>
						</g>
					</g>
				</g>
			</g>
		</g>
		<path fill="#AFB1AF" stroke="#AFB1AF" d="M265,629c0,0-21.3,8.4-41,18.4c-19.7,10-30,19.4-30,19.4l15.2,32.6
			c0,0,26.6-14.6,42.1-22.3c15.5-7.8,29.3-15.1,29.3-15.1l4.5-3.9L265,629z"/>
		<g>
			<path fill="#AFB1AF" d="M417.4,708.7l30.3-21.3c0,0,3.6,35.9,12.7,61.5c9,25.5,14.9,36.2,22.9,50.1c8.1,13.9,25.2,36.5,32.6,40
				c4,1.9,8.4,4.5,8.4,4.5v2.9c0,0-5.5,1-8.4,0c-1.5-0.5-4.4-0.7-7.9-0.4c-3.1,0.3-6.6,1.1-9.2,1.7c-5.5,1.3-11.6,3.6-11.6,3.6
				l-3.6,0.6l-3.2-3.6c0,0-6.9-4-14.5-11.6c-8.7-8.7-25.5-36.5-33.9-56.2c-8.4-19.7-16.1-39.1-16.1-46.5
				C415.8,726.6,417.4,708.7,417.4,708.7z"/>
			<g>
				<g>
					<g>
						<g>
							<path fill="#B9BBB9" d="M416.9,708.3c-0.1,0.1-0.1,0.3-0.1,0.5l0.1,0.5l0-0.4c0-0.1,0-0.1,0-0.2
								C416.8,708.6,416.8,708.5,416.9,708.3z"/>
							<path fill="#B9BBB9" d="M416.7,712.1c0-0.1,0.1,0,0.1-0.1l-0.1-2C416.4,710.8,416.9,711.5,416.7,712.1z"/>
							<path fill="#B9BBB9" d="M416.6,712.6c-0.1,0.8,0,1.1,0,1.3C416.6,713.7,416.8,712.5,416.6,712.6z"/>
							<path fill="#B9BBB9" d="M430.8,778.7c0-0.1-0.1-0.2-0.1-0.2C430.7,778.6,430.8,778.7,430.8,778.7z"/>
							<path fill="#B9BBB9" d="M438.8,794.7l0.2,0.1c-1.7-2.9-3.2-6.3-4.8-9.5l0.1,0.2c-1.9-4.1-3.6-8-5.3-12
								c-1.7-3.9-3.4-7.9-5.1-12c0.1,0.1,0.1,0.2,0.2,0.3c-0.2-0.4-0.4-0.8-0.6-1.3c0-0.1,0.1,0.1,0.2,0.2c-0.5-1.8-2.1-5.1-2.4-6.3
								c-0.2-0.5-0.4-0.7-0.3-0.4c-1.2-3.3-2.4-6.7-3.5-10.1c-0.5-1.7-1-3.5-1.4-5.3c-0.4-1.8-0.7-3.6-0.7-5.4
								c0-0.3,0.1-0.4,0.1-0.3c-0.2-6.1,0.5-12.4,1-18.6c-0.1-0.2-0.1,0.6-0.2,0c-0.3,2-0.1,3.7-0.4,5.5l-0.1-0.2
								c-0.1,1.3,0.2,0.3,0,1.6c-0.1,0.5-0.1-0.1-0.1,0.1c-0.2,2.8-0.4,5.7-0.3,8.4c-0.2,0.6-0.1,3-0.3,4.1c0.1,0.7,0.1,1.5,0.3,1.8
								c0.3,2.5,0.9,4.9,1.6,7.3c0.7,2.4,1.5,4.7,2.3,7.1c1.7,4.7,3.5,9.4,5.4,14c2,4.2,3.8,9.6,6.1,14.7c0,0,0,0,0,0
								c0.8,1.6,1.9,4.1,2.7,6.1l0.9,1.6c2.6,6,5.7,11.8,8.9,17.6c3.2,5.8,6.7,11.5,10.3,17.1c1.8,2.8,3.7,5.6,5.6,8.2
								c1.9,2.6,3.8,5.2,6.1,7.5c4.5,4.5,9.3,8.5,15,11.9l-0.1-0.1c1,1,2,2.1,3,3.2c0,0,0,0.1-0.2-0.2c0.2,0.2,0.3,0.3,0.5,0.5
								l0.1,0.1l0.2,0c1.2-0.2,2.4-0.4,3.6-0.7l0,0l0,0c2.5-0.9,4.9-1.6,7.4-2.4l0,0c2.3-0.8,4.8-1.4,7.3-1.9c2.5-0.5,5-1,7.5-1.1
								c1.3-0.1,2.5-0.1,3.8,0c0.6,0.1,1.2,0.1,1.8,0.3c0.6,0.1,1.2,0.4,1.8,0.4c2.5,0.4,5,0.1,7.4-0.4c0,0,0,0,0.1,0l0.1,0l0-0.1
								c0-0.9,0-1.8,0-2.9l0-0.1l-0.1,0c-2.3-1.4-4.7-2.7-7.3-4c-2.6-1.1-4.8-3-6.8-5c-4.1-4-7.9-8.5-11.4-12.9l0.1,0
								c-6.1-7.7-11.3-15.7-16.3-24.1c-2.5-4.4-5.1-8.9-7.5-13.4c-2.4-4.6-4.7-9.3-6.6-14c-2.2-5.9-5.7-13.4-7.4-19.1
								c-3.7-11.6-6.7-22.9-9.2-34.8c-1.7-9.6-3.4-19.2-4.3-28.7l0.2,0.1c-1.2,0.8-2.4,1.6-3.5,2.4c-4,3.1-9,6-13.7,9.4l0.2-0.1
								c-1.9,1-3.5,2.8-4.8,3.4l0.2-0.1c-1,0.5-1.7,1.7-2.4,2l-0.1,0.2c-1.1,0.8-0.2,0-1.1,0.6c-0.3,0.2,0,0.2-0.7,0.6
								c-0.4-0.1-2.6,1.9-3,1.7c0.6-0.4-1.1,0.6,0.2-0.4c-0.4,0.2-2.2,1.5-1.9,1.5c0,0.1,0,0.4,0,0.5c0,0.1,0.1,0.1,0.1,0
								c0.1-0.1,0.2-0.3,0.5-0.4l0.1-0.2c0.5-0.2,0.3-0.2,0.6-0.2c1.4-1,1.8-1,2.9-1.7c0,0,0,0,0,0c0.6-0.6,1.6-1.2,2.2-1.6l0.3-0.1
								c0.5-0.1,1.4-1.3,1.2-0.9c2.8-2.1,6.2-4.4,9.4-6.7c0.4-0.4,2.5-1.7,1.6-1.4c1-0.4,3.4-2.1,4.3-2.7c0,0,0,0.1-0.2,0.2
								c1.9-1,1.9-1.6,3.7-2.5c0.1-0.4,3-2,3.7-2.9c0.2-0.1,0.3-0.1,0.3,0l0.1-0.1l-0.9-0.4c0.4,3.6,0.8,7.5,1.2,10.5
								c0.6,2.5,0.8,6.3,1.5,8.4c0.2,1.8,0.6,4.8,1.2,7.4l-0.1-0.2c0.5,2.9,1.3,6.5,1.9,8.4c-0.1,0.9,0.2,2.1,0.4,3.4
								c0.3,0.9,0.6,2.4,1,3.9c0.4,1.6,0.8,3.2,1.2,4.7c0,0.5,0.7,2.4,0.5,2.6c1.2,4,2.7,8.4,4.2,12.9c1.6,4.5,3.2,9,4.6,13.2
								l-0.1-0.1c0.5,1,1.2,2.2,1.8,3.2c0,0.1,0,0.1-0.1-0.1c0.7,1.5,1,3,1.7,4.5c0,0,0,0-0.2-0.2c0.7,1.4,1.1,3,2,4.5l0,0.1l0.5,1
								c-0.1,0-0.2,0-0.4-0.6c2.8,6.4,6.2,12.7,9.8,18.9c1.8,3.1,3.6,6.2,5.5,9.2c1.9,3,3.9,6,6,9l-0.4-0.4l1.7,2.2
								c0,0-0.1-0.1-0.2-0.2c2,2.9,4.3,5.8,6.4,8.5c0,0-0.4-0.4-0.1,0c1.7,1.9,2.4,3.4,3.5,4.1c0.1,0.1,0.1,0.2-0.1,0
								c2.3,2.7,4.7,5.4,7.3,7.9c0.7,0.6,1.3,1.3,2,1.9c0.7,0.6,1.4,1.2,2.1,1.7c0.7,0.6,1.5,1,2.3,1.5c0.8,0.4,1.6,0.8,2.4,1.2
								c2,0.9,4.1,2,6.1,3.2l-0.1-0.2c0,1,0,1.9,0,2.9l0.2-0.2c-1.5,0.2-3,0.4-4.5,0.4c-1.5,0-3,0-4.4-0.5l0-0.1
								c-4-0.7-8.2-0.2-12.3,0.6c-4.1,0.8-8.2,1.8-12.1,3.1c-1.5,0.5-2.7,0.9-3.9,1.4l0,0c-1.1,0.2-2.2,0.4-3.5,0.7l0.1,0
								c-0.3-0.3-0.6-0.7-1-1.1l0-0.1c-0.8-0.7-1.5-1.5-2.2-2.3l0,0l0,0c-4.2-2.5-8.1-6-11.9-9.2l0.4,0.2c-0.8-0.5-2.6-2.6-2.6-2.1
								c-0.2-0.3-0.5-0.5-0.7-0.8c-3.1-2.8-4.7-5.8-7.9-9.8l0.2,0.2c-0.8-1.1-1.7-2.3-2.2-3.2c0.1,0.1,0.1,0.1,0.3,0.3
								c-2.1-3.6-4.9-7.4-7.2-11.3l0.4,0.4c-1.2-1.8-3.1-5.2-4.6-7.7l0.1,0.1l-0.8-1.2l0.1-0.1C442.2,800.9,440.5,797.9,438.8,794.7
								z"/>
							<path fill="#B9BBB9" d="M423.8,760.8C423.8,760.8,423.8,760.9,423.8,760.8C423.8,761,423.8,760.9,423.8,760.8z"/>
							<path fill="#B9BBB9" d="M421.8,706.3c-0.1,0.1-0.3,0.2-0.4,0.2C421.5,706.5,421.7,706.3,421.8,706.3z"/>
						</g>
					</g>
				</g>
			</g>
		</g>
		<g>
			<path fill="#AFB1AF" d="M469.4,144.9l42,15.6c0,0,13.5,10.9,23.7,90.7c8,62.5,7.8,78.6,7.8,78.6s-9.3-1.7-17.3-2.5
				c-7.3-0.7-16.4-0.2-16.4-0.2s-0.9-30.4-8-80.4c-8.1-57.1-17.7-78.7-17.7-78.7s-25.3,12-49.5,78.4c-24.8,68-24.8,86-25.3,92.2
				c-0.5,6.3,0.8,18.5,0.8,18.5l-4.9,17.3l-31.1-2.5c0,0-4.7-11.1-2.6-27.8c2.1-16.7,6-45.9,22.9-86.3
				c16.9-40.4,30.5-68.3,42.2-84.4C449.6,154.9,469.4,144.9,469.4,144.9z"/>
			<g>
				<g>
					<g>
						<g>
							<path fill="#B9BBB9" d="M469.4,144.2c-0.1,0-0.3,0.1-0.4,0.1l-0.2,0.1l-1,0.6l0.7-0.4C468.7,144.6,468.8,144.4,469.4,144.2z"
								/>
							<path fill="#B9BBB9" d="M462.8,148.3c0.2-0.1,0.1,0,0.3-0.1c1.2-0.9,2.4-1.7,3.6-2.6C464.9,146.5,463.9,147.7,462.8,148.3z"
								/>
							<path fill="#B9BBB9" d="M461.7,149c-1.5,0.9-2,1.4-2.3,1.7C459.8,150.2,462.1,148.9,461.7,149z"/>
							<path fill="#B9BBB9" d="M386.4,276.3c0.1-0.2,0.1-0.4,0.2-0.5C386.4,276.1,386.4,276.2,386.4,276.3z"/>
							<path fill="#B9BBB9" d="M376,314l0,0.4c1.3-7.2,3.6-15.1,5.7-22.5l-0.1,0.5c2.8-9.4,5.9-18.3,9.3-27
								c3.4-8.7,7.1-17.4,10.9-26.3c-0.1,0.3-0.1,0.4-0.2,0.7c0.3-0.9,0.7-1.9,1.1-2.8c0.1-0.2-0.1,0.3-0.2,0.6
								c1.8-3.7,4.8-11.1,6-13.3c0.5-1.1,0.6-1.6,0.3-1c3.2-6.9,6.5-14,10.1-21.1c3.6-7.1,7.3-14.1,11.4-20.7
								c0.4-0.6,0.5-0.7,0.5-0.5c3.4-5.7,7.4-11.3,12.1-16.3c4.7-5,10-9.4,15.5-13.4c0.4-0.4-1.2,0.7-0.1-0.1
								c-3.6,2.5-6.3,5-9.3,7.5l0.3-0.4c-2.2,1.9-0.3,0.5-2.6,2.5c-0.9,0.8,0.1-0.3-0.3,0.1c-4.4,4.2-8.7,9.1-11.8,14
								c-1,1.1-3.7,5.5-5,7.3c-0.8,1.4-1.6,2.7-1.8,3.3c-5.5,9.2-10.4,18.9-15,28.7c-4.7,9.8-9.1,19.8-13.4,29.9
								c-3.7,9.5-9,20.7-12.9,32.2c0,0.1,0,0.1,0,0c-0.3,0.9-0.7,2-1.1,3.1c-0.4,1.1-0.7,2.3-1.1,3.5c-0.8,2.4-1.6,4.9-2.3,7.2
								c-0.4,1.3-0.7,2.6-1,3.9c-3.8,12.5-6.7,25.5-8.7,38.6c-0.5,3.3-0.9,6.6-1.4,9.9c-0.4,3.3-0.8,6.6-0.7,10
								c0,6.7,0.8,13.4,3.1,19.7l0.1,0.2l0.2,0c2.4,0.2,4.7,0.4,7.1,0.6c8.2,0.7,16.2,1.3,24,2l0.4,0l0.1-0.4
								c1.7-5.8,3.3-11.6,4.9-17.3l0-0.1l0-0.1c-0.4-4.2-0.7-8.5-0.9-12.7c-0.1-2.1-0.1-4.2,0.1-6.3c0.1-2.1,0.3-4.2,0.6-6.4
								c1-8.5,2.9-16.9,5.1-25.5c0,0,0.1-0.2-0.1,0.6c2.3-8.9,4.8-17,7.4-25.3l0,0c3.2-10.3,6.8-20.9,10.6-31.4
								c0.5-1.3,0.9-2.6,1.4-3.9c0.5-1.3,1-2.6,1.5-3.9c1-2.6,2-5.1,2.9-7.7c1.1-2.5,2.1-5,3.1-7.5c0.5-1.2,1-2.5,1.6-3.7
								c0.6-1.2,1.1-2.4,1.6-3.6c4.3-9.3,9.4-18.9,15.6-28c3.2-4.5,6.5-9,10.2-13.1c3.8-4.1,7.8-8.1,12.6-10.8l-0.1,0
								c1.9,4.7,3.5,9.6,4.9,14.5l-0.1,0c3,10.3,5.3,20.6,7.3,31c2,10.4,3.7,20.8,5.2,31.3c3,21.8,6.2,44.9,7.6,67.1
								c0.3,4.7,0.5,9.9,0.8,15.2l0,0.1l0.1,0c5.1-0.3,10.4-0.4,15.4-0.1c5,0.4,9.8,1.1,13.9,1.9c1.5,0.3,3,0.6,4.4,0.8l0.1,0l0-0.1
								c0-6.2-0.5-12.4-1-18.6c-0.5-6.2-1.1-12.3-1.8-18.4c-1.3-12.3-2.9-24.5-4.6-36.9c-0.7-6.1-1.6-12.1-2.4-18.2
								c-0.5-3-1-6-1.4-9l-0.7-4.5l-0.8-4.5c-2.2-11.9-4.7-23.7-7.9-35.1c-0.3-1-0.6-2-1-3c-0.3-1-0.7-2-1-3.1
								c-0.4-1-0.7-2.1-1.1-3.1c-0.4-1-0.8-2.1-1.2-3.1c-0.8-2.1-1.7-4.2-2.7-6.2c-1.1-2-2.1-4.1-3.8-5.8l0,0l0,0
								c-2.9-1.1-5.8-2.2-8.8-3.3l0.4,0.2c-4.2-1.8-9.4-3.2-12-4.5l0.4,0.1c-2.2-1-5.2-1.5-6.5-2.2l-0.4,0c-2.7-1-0.3-0.2-2.4-1
								c-0.8-0.3-0.3,0-1.9-0.6c-0.3-0.5-6.6-2.4-6.8-2.9c1.5,0.5-2.3-1,1,0.1c-0.9-0.4-5.5-2.1-5.1-1.7c-0.2,0.1-0.8,0.2-0.9,0.3
								c-0.1,0,0,0.1,0.2,0.1c0.2,0.1,0.7-0.1,1.4,0.3l0.5,0.1c0.9,0.5,0.7,0.3,1,0.6c3.6,1.4,4.1,1.7,6.6,2.8c0,0,0,0,0,0
								c1.8,0.5,4.2,1.5,5.6,2l0.5,0.3c0.8,0.5,4.1,1.2,3,1.1c7.3,2.7,15.6,5.8,23.7,8.8c0.1,0,0.2,0,0.3,0.1l-0.1-0.1
								c0.5,0.4,1.5,1.7,2.1,2.6c0.6,1,1,1.6,0.6,0.8c0.5,1,1.4,2.9,2.3,4.9c0.4,1,0.9,2,1.2,2.9c0.4,0.9,0.7,1.7,0.9,2.3
								c-0.1-0.1-0.1-0.2-0.2-0.5c0.7,2.2,1.2,3.5,1.7,4.7c0.5,1.3,1,2.4,1.4,4.6c0.2,0.3,0.8,2.2,1.4,4.3c0.6,2.1,1.2,4.5,1.6,5.6
								c0.1,0.5,0.1,0.7,0,0.5c0.5,1.9,0.9,3.9,1.4,5.8c0.4,2,0.9,3.9,1.3,5.9c0.8,3.9,1.6,7.6,2.1,10.9c0.6,2.8,1.2,6.2,1.8,9.4
								c0.5,3.3,1,6.5,1.5,8.9c0.6,4,1.3,10.5,2.2,16.1l-0.1-0.5c0.8,6.3,1.8,14.2,2.5,18.5c-0.1,1.9,0.3,4.6,0.5,7.4
								c0.6,4.2,1.6,12.7,2.3,19.2c0,1,0.6,5.3,0.4,5.7c0.5,4.4,1,9.2,1.5,14c0.4,4.9,0.8,9.9,0.9,15l0.5-0.4
								c-5.2-0.9-10.4-1.8-15.6-2.4c-5.2-0.6-10.4-0.7-15.3-0.7l0.3,0c-1,0.1-2.1,0.2-3.2,0.3l0.5,0.5c-0.2-1.6-0.3-3.2-0.5-4.8
								c0-0.3,0-0.2,0.1,0.3c-0.2-3.5-0.2-6.9-0.5-10.4c0,0,0,0,0.1,0.6c-0.3-3.3-0.3-6.9-0.8-10.8l0-0.2l-0.3-2.5
								c0.1,0.1,0.2,0.1,0.3,1.5c-1.3-15.2-3.1-30.6-5.2-46c-2.2-15.4-4.6-30.9-7.8-46.3l0.3,1.1l-1.4-5.9c0,0,0.1,0.3,0.2,0.6
								c-1.5-7.6-3.6-15.3-5.7-22.6c0,0,0.4,1.1,0.2,0.1c-1.7-5.3-2.5-8.6-3.8-11.2c-0.1-0.2-0.1-0.4,0.2,0.1
								c-0.4-1-0.7-1.9-1.2-2.9l-0.2-0.4l-0.4,0.2c-1.7,0.9-3.1,2-4.6,3.1l-2.1,1.8l-2,1.9c-1.3,1.3-2.6,2.6-3.9,4
								c-1.2,1.4-2.4,2.8-3.6,4.2c-4.7,5.7-8.8,11.9-12.5,18.1c-6.4,11.4-12.8,24.5-17.5,37.2l0-0.1c-3.1,8.2-6.1,16.7-9.1,25.3
								c-3,8.6-5.9,17.3-8.6,26c-2.2,7.2-3.6,12.1-5.5,19.4l-0.1,0.2c-1.4,6.2-3,12.7-4.1,19.4c-1.1,6.7-1.7,13.6-1,20.2l-0.2-0.9
								c0.2,2.1,0.5,8,0.7,7.2l0.1,2.3c0,0.1,0,0.2,0,0.3l0,0c-1.4,6-3.1,11.1-4.9,17.3l0,0c-2.8-0.2-5.8-0.5-9.2-0.7l0.7,0
								c-2.9-0.2-6.4-0.4-8.5-0.6c0.3,0,0.2,0,0.9,0c-4.8-0.5-9.9-0.9-15-1.3l0.1,0.1c-1.7-4.4-2.6-9.1-3-13.7l0.2,1.1
								c-0.3-2.3-0.5-5.7-0.4-9.2c0.1-3.5,0.7-7.2,1-10.2l0,0.4l0.3-3.1l0.1-0.1C373.2,329.2,374.3,321.7,376,314z"/>
							<path fill="#B9BBB9" d="M402.5,237.6C402.5,237.6,402.5,237.6,402.5,237.6C402.4,237.9,402.5,237.8,402.5,237.6z"/>
							<path fill="#B9BBB9" d="M479.2,149.1c-0.3-0.1-0.6-0.3-0.9-0.4C478.3,148.8,478.9,149,479.2,149.1z"/>
						</g>
					</g>
				</g>
			</g>
		</g>
		<path fill="#AFB1AF" stroke="#AFB1AF" d="M209.2,699.4c0,0,9.7,0.5,31.3-10.8c12-6.3,14-6.4,14-6.4l-3.7-5c0,0-13.9,6.7-23.7,11.8
			C217.3,694,209.2,699.4,209.2,699.4z"/>
		<path fill="#AFB1AF" stroke="#AFB1AF" d="M178.6,480.1c0,0-51.8,12.2-53,13.4c-1.2,1.2,1,3.2,37.8,5.1c36.8,2,78.5,1.2,78.5,1.2
			l-2-1.4c0,0-32.7,0.2-44.3,0c-11.6-0.2-70.6-2.8-65.6-5C134.4,491.6,178.6,480.1,178.6,480.1z"/>
	</g>
</g>
<g id="DETAIL_SHADING">
	<g>
		<path d="M483.6,851.9c0,0,3.2,4.8,9.5,5.7c6.2,0.9,15.8-0.8,18-0.8c2.2,0,9.3-0.6,11.7-2.7c2.5-2.1,6.9-6,6.7-8.8
			c-0.1-2.2-2.5-5.9-1.7-7.1c1-1.5,3.8-2.6,4.5-4.8c0.8-2.2-0.5-7.6-5.1-7.5c-4.6,0-6.4,3.4-6.4,3.4s-0.6-0.9-2.3-1
			c-1.7-0.1-3.1,1.7-3.1,1.7l-2.9-0.6l-1.8-1c0,0-2.3-0.4-3,0c-0.6,0.4-1.3,2.1-1.3,2.1s4,5.3,7.4,7.3c3.4,2.1,7.1,3.7,7.1,3.7
			l4.7-0.5c0,0,1.2,2.4,0.8,3.9c-0.4,1.6-4.4,7.5-9.6,8.7c-5.2,1.2-18.4,3.2-23,1.8c-4.5-1.4-7.2-4.3-7.2-4.3L483.6,851.9z"/>
	</g>
	<g>
		<path d="M521.4,855.2c0,0,14.4,1.3,27.1-6.5c12.7-7.8,32.1-24.5,43.3-46.9c11.2-22.4,21.3-56.4,23.2-67.6
			c1.9-11.2,2.4-21.5,2.4-21.5s1.1-6-0.2-8.4c-1.3-2.4-3.7-3-4.7-2.8c-1.1,0.2-2.6,0.9-2.6,0.9s-1.1-1.3-2.4-1.1
			c-1.3,0.2-3.7,3.7-3.7,3.7s-1.5-0.4-2.4,0c-0.9,0.4-3.4,1.7-3.4,1.7s-3.2-1.5-4.7-0.9c-1.5,0.6-3.4,2.4-3.4,2.4s-2.2,0.9-3,1.5
			c-0.9,0.6-2.4,0.2-4.1,0.2c-1.7,0-5,1.7-5,1.7s-3.7-1.1-5.4-0.9c-1.7,0.2-2.6,0.9-2.6,0.9s-7.8,38.9-18.9,62
			c-19.6,40.5-48,52.7-48,52.7l3.7,4.4c0,0,0.8-2.7,2.7-2.7c1.9,0,5.3,2.4,6.2,1.7c0.9-0.6,2.3-1.6,3.1-1.7c0.9-0.1,2.5,1.2,2.5,1.2
			s2.6-3.8,7-3.2c2.5,0.3,5.3,3,4.3,7.6c-0.5,2.5-5.2,3.6-4.6,5.8c0.6,2.2,2.9,5.4,1.2,8.4C527.2,850.9,521.4,855.2,521.4,855.2z"/>
	</g>
	<path d="M548.9,543.8c1.7-14.3,2.6-39.7,2.6-39.7s-2.2-26-5.6-41.3c-3.4-15.3-12.8-40-12.8-40s15.8-3.2,35.6,22.7
		c15.6,20.4,13.8,30.6,13.8,37.9c0,7.3-3,28.4-12.9,54.7c-9.9,26.3-20.2,40.5-25,44.8c-4.7,4.3-2.9,2.1-2.9,2.1
		S547.2,558.1,548.9,543.8z"/>
	<path opacity="0.35" d="M539.4,596.9c0,0,19.1-9.8,32.8-45.5c13.3-34.6,15.9-69.3,15.5-73.6c-0.4-4.3-15.2-27.4-15.2-27.4
		s10.4,16.7,10.5,27.4c0.1,9.8-5,44.6-16.8,68.7c-17.3,35.4-24.5,38.5-24.5,38.5L539.4,596.9z"/>
	<path opacity="0.2" fill="#FFFFFF" d="M368.9,346.8c0,0-16.6,24.4-19.1,38.6c-2.5,14.3,0,21.7,0,21.7s0.7-18.7,4.6-28.4
		C358.3,369,368.9,346.8,368.9,346.8z"/>
	<path opacity="0.5" d="M370.6,355.5l0.2-8.3c0,0-16.1,30.7-17.7,44.6c-3,25.9,9,28.2,9,28.2s-7.3-10-2.5-26.5
		c3.5-12.1,11.9-29.9,11.9-29.9L370.6,355.5z"/>
	<path d="M379,391.2l-0.4,25.6c0,0,1.6-1.1,4-3.8c2.2-2.5,5.1-6.3,8.5-11.2c4.8-6.9,6.4-9.7,6.4-9.7L379,391.2z"/>
	<polygon points="491.5,469.7 460.1,421.7 466.8,416.9 498.4,464.8 	"/>
	<polygon opacity="0.55" fill="#AEB1AF" points="491.5,469.7 460.1,421.7 466.8,416.9 498.4,464.8 	"/>
	<polygon opacity="0.75" fill="#AEB1AF" points="493.5,457.2 499.6,452.8 504.9,460.4 498.4,464.8 	"/>
	<polygon fill="none" points="509.1,384 539.2,361.7 523.4,372 	"/>
	<g opacity="0.35">
		<g>
			<g>
				<g>
					<g>
						<path fill="#B8BBB9" d="M667,338c0,0-0.1-0.3-0.1-0.3c0,0,0,0-0.1-0.1c0,0-0.1,0-0.1,0c-0.1,0-0.1,0-0.1,0s0.1,0,0.1,0.1
							c0,0,0.1,0.1,0.2,0.2C667,337.9,667,338,667,338z"/>
						<path fill="#B8BBB9" d="M665.9,337.2C665.9,337.3,665.9,337.3,665.9,337.2c0,0.1,0.1,0.1,0.3,0.1c0.2,0,0.3,0,0.3,0
							C666.5,337,665.9,337.4,665.9,337.2z"/>
						<path fill="#B8BBB9" d="M665.8,337.1c-0.1-0.2-0.3-0.1-0.3-0.1C665.6,337,665.7,337.3,665.8,337.1z"/>
						<path fill="#B8BBB9" d="M649.8,339.5C649.8,339.5,649.8,339.5,649.8,339.5C649.8,339.5,649.8,339.5,649.8,339.5z"/>
						<path fill="#B8BBB9" d="M646,341.5l0,0.2c0.7-0.5,1.6-0.6,2.4-1l0,0.1c2-0.7,3.8-1.5,5.8-2.3c0,0,0,0.1-0.1,0.1
							c0.1-0.1,0.2-0.2,0.3-0.2c0,0,0,0.1,0,0.1c0.5,0.1,1.2-0.6,1.5-0.5c0.1-0.1,0.1-0.2,0-0.2c1.6-0.6,3.3-1.1,4.9-1.7
							c0.1,0,0.1,0.1,0.1,0.2c0.3-0.2,0.7-0.3,1.1-0.4c0.2,0,0.4-0.1,0.7-0.1c0.1,0,0.2,0,0.4,0c0.1,0,0.2,0,0.3,0.1
							c0.9,0.2,1.5,0.7,2.2,1.1c0.1-0.1-0.1-0.2,0.1-0.2c-0.4-0.4-0.9-0.3-1.2-0.6l0.1-0.1c-0.3-0.2-0.2,0.2-0.4-0.1
							c-0.1-0.1,0.1-0.1,0-0.1c-0.2-0.1-0.4-0.1-0.6-0.2c-0.1,0-0.2,0-0.3-0.1l-0.2,0l-0.2,0c-0.4,0-0.9,0.1-1.1,0.3
							c-0.2-0.2-0.7,0.1-1,0c-0.2,0.1-0.3,0.1-0.4,0.3c-2.3,0.5-4.5,1.4-6.8,2.2c-0.9,0.7-2.4,0.7-3.6,1.3c0,0,0,0,0,0
							c-0.4,0.2-1,0.5-1.5,0.6l-0.4,0.3c-3.1,0.7-6,2-9,3c-3.4,1.2-6.4,2-9.5,3.8c0,0,0,0,0-0.1c-0.9,0.5-1.8,0.7-2.6,1.2l0,0
							c-1,0.6-2.1,1.1-3.3,1.6c-1.1,0.5-2.2,1-3.1,1.7c-2.5,1.2-5.3,2.7-7.7,4.2l0-0.1c-1,0.6-2,1.2-3,1.7c-1,0.5-2.1,1.1-3,1.8
							c-2.1,1.1-3.9,3.1-6,4.3c-1.5,0.6-2.6,2.4-3.9,2.9c-2.7,1.2-4.7,3.3-6.7,5.4c-2.2,1.5-3.9,3.7-6.2,5c-0.8,1-2.2,1.4-3.2,2.3
							l0.1,0c-0.6,0.1-0.6,1-1.1,0.9l0,0c-0.3,0-0.1,0.8-0.4,0.7l0,0.1c-0.2,0.2-0.1-0.1-0.3,0c-0.1,0.1,0.1,0.2-0.1,0.3
							c-0.3-0.3-0.5,0.6-0.9,0.2c0.1-0.1-0.3,0-0.1-0.3c-0.1,0-0.5,0.4-0.3,0.5c0.1,0.2,0.1,0.5,0.4,0.4l-0.1-0.2
							c0.2,0.1,0.1,0,0.2,0.1c0.3-0.2,0.5-0.1,0.8-0.2c0,0,0,0,0,0c0-0.3,0.3-0.4,0.5-0.5l0.1,0c0.2,0.1,0.1-0.6,0.2-0.3
							c0.6-0.6,1.4-1.2,2.1-1.8c0-0.2,0.6-0.5,0.2-0.5c0.4,0.1,1-0.3,1.1-0.5c0,0,0,0.1,0,0.1c0.6,0,0.2-0.7,0.9-0.6
							c-0.1-0.3,0.7-0.5,0.7-0.9c0.1,0,0.1,0.1,0.2,0.1c0.7-0.5,1.5-1.1,2-1.5c0.3-0.6,1.2-0.9,1.4-1.5c0.4-0.2,1-0.5,1.4-1.1l0,0.1
							c0.5-0.5,1.2-1,1.4-1.5c0.4,0.2,0.6-0.1,0.9-0.2c0.3-0.4,1-1,1.5-1.5c0.2,0.1,0.4-0.4,0.6-0.2c1.3-1.6,3.3-2.9,5.3-3.9l0,0
							c0.1-0.3,0.2-0.7,0.3-1c0,0,0.1,0,0,0.1c0.3-0.3,0.7-0.3,1-0.5c0,0,0,0,0,0.1c0.2-0.3,0.7-0.3,1-0.7l0.1,0l0.2-0.2
							c0,0.1,0.1,0.2,0,0.2c2.8-1.8,5.4-4,8.4-5.7l-0.1,0.1l0.5-0.5c0,0,0,0.1,0,0.1c0.8-0.3,1.4-0.9,2.2-1.3c0,0-0.1,0.2,0.1,0.2
							c0.4-0.5,1-0.2,1-0.8c0,0,0.1,0.1,0.1,0.2c1.4-1,2.9-1.7,4.5-2.5c1.1-1.1,2.7-1.4,3.8-2.3l0,0.1c1.6-1.1,3.6-1.6,5.4-2.5
							c0.8-0.3,1.2-0.6,2-0.9l0.1,0.1c1.1-0.9,2.8-0.8,4-1.7l0,0.2c0.1-0.3,0.8-0.2,0.6-0.6l0.3,0c0.7-0.8,1.8-0.4,2.8-1.2l0,0.1
							c0.3-0.2,0.6-0.4,0.9-0.4c0,0,0,0-0.1,0.1c1.1,0,2-0.8,3-1.1l-0.1,0.2c0.4-0.4,1.4-0.5,2-0.8l0,0.1l0.3-0.2l0.1,0.1
							C644.5,342.3,645.2,341.8,646,341.5z"/>
						<path fill="#B8BBB9" d="M654.3,338.5L654.3,338.5C654.3,338.5,654.3,338.5,654.3,338.5z"/>
						<path fill="#B8BBB9" d="M579.3,381.5c0,0-0.1,0-0.1,0C579.2,381.6,579.2,381.6,579.3,381.5z"/>
					</g>
				</g>
			</g>
		</g>
	</g>
	<path fill="none" d="M623.5,351.8c0,0,35.8-14.1,38.4-11.8c2.6,2.3,1.3,6.8,0,10.3c-1.3,3.6-9,16.1-9,16.1"/>
	<path fill="#AFB1AF" d="M616.2,362.5l7.2-10.7l20.1-7.5c5.6-1.5,9.9-3.1,12.8-3.9c4.2-1.1,5.5-0.5,5.5-0.5s2.9,1.3,0.6,9.1
		c-2.3,7.8-23.5,37.4-23.5,37.4s-6.8-8.8-12-14C622.9,368.6,616.2,362.5,616.2,362.5z"/>
	<path opacity="0.2" fill="#AFB1AF" d="M233.7,490.5c0,0,29.7,15.2,24.2,41.7c-7.5,36-35,16.9-35,16.9s3.3,10.8,16.2,9.2
		c12.9-1.6,24.2-15.5,21.3-36.8C257.6,500.2,233.7,490.5,233.7,490.5z"/>
	<path fill="none" d="M401.5,701.7l-12.1-3.9c0,0-9.5-17.3,0.8-25.4c0,0,0.3,10.8,2.8,17C395.7,695.5,401.5,701.7,401.5,701.7z"/>
	<path fill="none" d="M447.8,705.9c0,0-0.4,2.8-0.1,5.2c0.3,2.4,1.8,8.1,2,8.4c0.2,0.3,0.8,0.3,0.9-0.2c0.1-0.5-1-6-1.1-7.5
		c-0.1-1.5-0.3-6-0.5-6.3C448.9,705.3,447.8,705.9,447.8,705.9z"/>
	<path opacity="0.5" d="M457,738.2c0,0,1.1-13.7,2.1-16.4c1-2.7,1.5-6.9,3.4-6.1c1.8,0.8,4.7,0,4.7,0l-3.6-5.9c0,0-4.3-4.8-7-4.2
		c-2.7,0.6-5.1,6.4-4.8,9C452.1,717.4,457,738.2,457,738.2z"/>
	<path opacity="0.15" fill="#AEB1AF" d="M529.4,831.5c0,1.4-1.2,2.6-2.6,2.6c-1.4,0-2.6-1.2-2.6-2.6c0-1.4,1.2-2.6,2.6-2.6
		C528.3,828.9,529.4,830.1,529.4,831.5z"/>
	<path opacity="0.1" fill="#FFFFFF" d="M472.4,842.4c0,0,4.5,1.8,6.2,1.5c4.9-0.7,6-0.1,7.5-0.4c1.6-0.3,1.1-3,3.2-3
		c2.2,0,3.9,1.3,7.3,0.6c3.4-0.6,3.7-2.4,4.9-2.4c1.3,0,4.1-2.2,4.1-2.8c0-0.6-1.5-3.2-1.5-3.2s1.9,3.7,5.8,6.2
		c3.9,2.6,14.3,7.3,14.3,7.3s-2,0.4-4.9,0.3c-4.3-0.2-10.2-1.1-12.2-0.7c-3.4,0.6-9.3,1.7-9.9,1.9c-0.6,0.2-3.7,1.5-5.2,1.9
		c-1.5,0.4-3.9,1-5.6,1.5c-1.7,0.4-2.9,0.6-2.9,0.6s-2.5-3.3-3.2-3.6c-0.8-0.2-4.1-2.9-5.2-3.6C474.1,844.1,472.4,842.4,472.4,842.4
		z"/>
	<path opacity="5.000000e-02" fill="#FFFFFF" d="M583.6,662l25.1-12.6c0,0,2,5.7,3.2,11.4c1.2,5.6,1.8,9.9,1.8,9.9l-25.6,11.7
		c0,0-0.9-6.2-1.9-10.9C585.1,666.7,583.6,662,583.6,662z"/>
	<path opacity="0.15" fill="#FFFFFF" d="M577.8,711.6c0,0-7.2,38.2-19.2,63.6c-19.2,40.5-41,46.1-41,46.1s16.6-18,22-26
		C543,790,546,783,546,783s-15.9,25.1-28.8,34.6c-12.9,9.4-14.3,8.7-14.3,8.7l3.7,4.4c0,0,0.8-2.2,2-2.5c1.3-0.3,2.3,0.1,3.5,0.6
		c0.6,0.3,2,0.7,2,0.7s0.6,0.7,1.5,0.3c0.9-0.3,2.1-2.1,3.2-1.7c1.6,0.5,2.3,1.1,2.3,1.1s1.6-1.8,2.1-2.1c0.5-0.3,2.3-1.6,5-1.2
		c2.8,0.3,11.9,0.7,16.2-0.2c4.4-0.9,18.9-8.4,25.5-17.1c6.6-8.7,17.8-23.6,26.5-49.2c6-17.8,12-56.4,12-56.4l-0.9-0.7
		c0,0-6.3,47.3-19.5,74.5c-15.6,32-35.3,43.3-35.3,43.3s14.5-6.9,27.4-37.9c10.5-25.1,18.8-59.9,18.8-59.9s-18.6,61.1-31,77.7
		c-12,16.1-23.7,22.9-23.7,22.9h-3.7c0,0,4.7-3.3,7.3-5.2c2.6-1.9,12.8-10.9,24.6-33.7c15.4-29.7,20.3-64.6,20.3-64.6
		S578,774,565.6,792.8c-16.8,25.3-32.5,31.8-32.5,31.8s-1.7,0-0.9-0.5c0.9-0.5,18.8-13.9,27.2-30.2c22-42.4,26.5-76.5,26.5-76.5
		s-17.4,62.1-30.4,78.7c-17.3,22.2-28.1,27.4-29.7,28.1c-1.6,0.7-7.9,2.6-7.9,2.6s10.4-5.1,23.6-20.4
		C573.8,769.1,577.8,711.6,577.8,711.6z"/>
	<polygon opacity="0.4" points="367.8,371.5 363.5,381.7 402.1,383.2 404.6,374.5 	"/>
	<path opacity="5.000000e-02" d="M538.2,597.5c0,0,2.6,6.5,4.7,6.5c2.2,0,2.1,3.9,5.6,6.9c3.4,3,7.3,5.2,7.3,5.2s-0.9,12.5,1.3,14.6
		c2.2,2.2,5.6,11.2,6.9,11.2s9-3.9,10.8-3c1.7,0.9,4.3,4.3,4.3,4.3s0,4.3,2.2,6c2.2,1.7,4.7,0.9,4.7,0.9l18.1-10.3
		c0,0-6.5-1.7-6.9-4.3c-0.4-2.6-3.4-4.3-3.4-4.3l-2.6-3c0,0-1.7-4.7-3.9-6.5c-2.2-1.7-7.7-8.2-7.7-8.2s-2.2-6.9-7.8-9.5
		c-5.6-2.6-7.8-2.6-9-4.7c-1.3-2.2-2.2-4.3-2.2-6.5c0-2.2-1.3-6-1.3-6l-4.2-4.9c0,0-3.5,5.7-8.7,9.6
		C541.3,595.3,538.2,597.5,538.2,597.5z"/>
	<path opacity="5.000000e-02" d="M535,547.4c0,0-6.5,11.6-6.5,13.8c0,2.2-2.6,6-3.9,8.2c-1.3,2.2-9.5,3-10.8,3.4
		c-1.3,0.4-18.1,40.5-20.7,45.6c-2.6,5.2-12.9,32.7-35.7,34c-22.8,1.3-26.3,1.3-41.8,3c-15.5,1.7-24.1,6-32.3,1.7
		c-8.2-4.3-11.6-6.5-24.1-6c-12.5,0.4-22.4,4.7-22.4,4.7s27.1,9,30.6,12.5c3.4,3.4,3.4,31.9,1.3,34.9c-2.2,3-15.1,14.6-13.8,20.2
		c1.3,5.6,7.7,24.5,9.5,25.4c1.7,0.9,0,3.4,0,5.2c0,1.7,18.9,9.5,43.1,4.7c24.1-4.7,61.1-16.8,76.6-40.9
		c15.5-24.1,32.7-54.2,42.2-98.6c9.5-44.3,15.9-77.5,15.9-77.5L535,547.4z"/>
	<path opacity="0.15" d="M527.9,452.8c0,0,9.5,53.5,3.9,102c-5.6,48.2-8.3,72.7-31.9,119.7c-14.1,28-21.5,36.6-21.5,36.6s-3,6-1.3,6
		c1.7,0,39.9-39.5,51.7-115.8C543.4,506.7,527.9,452.8,527.9,452.8z"/>
	<g opacity="0.35">
		<g>
			<g>
				<g>
					<g>
						<polygon fill="#202020" points="254.2,677.3 254.2,677.4 254.5,677.5 						"/>
						<path fill="#202020" d="M255.4,678.3c0-0.1,0-0.1,0-0.1l-0.9-0.5C254.7,678.2,255.4,678,255.4,678.3z"/>
						<path fill="#202020" d="M255.6,678.5c0.2,0.3,0.4,0.3,0.5,0.4C255.9,678.9,255.7,678.3,255.6,678.5z"/>
						<path fill="#202020" d="M276.1,701.9C276,701.9,276,701.9,276.1,701.9C276,701.9,276,701.9,276.1,701.9z"/>
						<path fill="#202020" d="M282.2,707.2l0.2,0c-1.2-0.9-2.3-2.2-3.5-3.3l0.1,0c-2.8-2.9-5.5-5.5-8.3-8.4c0.1,0,0.1,0,0.2,0.1
							c-0.2-0.1-0.4-0.2-0.5-0.4c0-0.1,0.1,0,0.1,0c-0.4-0.8-1.8-1.8-2-2.3c-0.2-0.2-0.3-0.2-0.3,0c-2.1-2.3-4.4-4.8-6.6-7.2
							c-0.1-0.1,0-0.2,0-0.2c-2.1-1.9-3.8-4.2-5.5-6.4c-0.1,0,0.1,0.3-0.2,0.1c0.5,0.8,1.2,1.1,1.6,1.9l-0.1,0
							c0.3,0.5,0.3-0.1,0.6,0.5c0.1,0.2-0.1,0-0.1,0.1c0.8,1,1.6,2,2.6,2.8c0,0.4,0.9,1,1,1.5c0.3,0.2,0.5,0.5,0.7,0.5
							c2.8,3.5,5.9,6.7,9,10.1c1.7,1.3,3.1,3.5,5,5.2c0,0,0,0,0,0c0.6,0.5,1.5,1.3,2.2,2.1l0.7,0.5c1,1.1,2,2.2,3,3.3
							c1.1,1.1,2.1,2.1,3.2,3.1c1.1,1,2.2,2,3.4,3c1.2,1,2.3,1.9,3.5,2.9c5.4,4.2,10.2,7.8,16,11c0,0,0,0.1-0.1,0
							c1.7,1,3.1,2,4.6,2.9l0,0c1,0.5,2,1.1,3,1.7c1,0.6,2,1.2,3,1.7c2,1.2,4,2.3,6,3.2c4.6,2.6,9.9,5.3,15,7.5l0,0.1
							c2.1,0.8,4,1.8,6,2.7c2,0.9,4,1.8,6.1,2.5c1.1,0.4,2.2,0.8,3.3,1.1c0.6,0.2,1.1,0.3,1.7,0.5l1.7,0.4c1.1,0.3,2.3,0.5,3.4,0.8
							c1.1,0.3,2.3,0.5,3.4,0.8c0.7,0.2,1.4,0.4,2.2,0.6c0.8,0.2,1.6,0.2,2.4,0.2c1.6,0.1,3.2,0.3,4.5,0.6
							c5.4,1.2,10.8,0.9,16.3,0.3c5.1,0,10-1.1,14.9-1.5c2.2-0.7,4.9-0.5,7.4-1.2l-0.1-0.1c1,0.1,1.9-0.9,2.6-0.6l-0.1,0
							c0.5,0.1,1-0.8,1.3-0.6l0-0.1c0.6-0.2,0.1,0.1,0.6,0c0.2-0.1,0-0.2,0.4-0.3c0.2,0.4,1.4-0.5,1.6,0c-0.3,0.1,0.6,0-0.1,0.4
							c0.2,0,1.2-0.4,1-0.5c0-0.3,0.3-0.6-0.3-0.5l-0.1,0.2c-0.2-0.1-0.2,0-0.3-0.1c-0.8,0.2-0.9,0-1.5,0.1c0,0,0,0,0,0
							c-0.3,0.3-0.9,0.3-1.2,0.4l-0.1-0.1c-0.2-0.1-0.8,0.6-0.6,0.2c-1.5,0.5-3.3,1-5,1.4c-0.2,0.2-1.3,0.3-0.9,0.4
							c-0.5-0.2-1.8,0-2.3,0.1c0,0,0-0.1,0.1-0.1c-1-0.2-1.1,0.5-2,0.3c-0.1,0.3-1.6,0.2-2.1,0.6c-0.1-0.1-0.2-0.1-0.1-0.2
							c-1.6,0.2-3.4,0.4-4.7,0.5c-1.1,0.4-2.8,0.2-3.8,0.6c-0.8,0-2.2,0-3.3,0.2l0.1-0.1c-1.3,0.1-2.9,0.2-3.8,0.5
							c-0.4-0.4-1-0.3-1.5-0.4c-0.9,0.2-2.6,0.2-4,0.3c-0.2-0.2-1.1,0-1.2-0.2c-0.9,0.1-1.9,0.1-3,0.1c-1,0-2.1-0.1-3.1-0.2
							c-2.1-0.2-4.2-0.7-6.2-1.1l0.1,0c-0.5,0.1-1.2,0.3-1.7,0.3c0,0,0-0.1,0.1,0c-0.7-0.1-1.4-0.5-2.1-0.6c0,0,0,0,0.1-0.1
							c-0.7,0-1.4-0.5-2.2-0.5l0-0.1l-0.5,0c0-0.1,0.1-0.2,0.3-0.1c-6-1.6-12.3-3.4-18.2-5.9l0.2,0l-1.2-0.4c0,0,0.1,0,0.1,0
							c-1.4-0.8-3-1.2-4.4-1.9c0,0,0.3,0,0.1-0.1c-1.1-0.3-1.5-1.1-2.3-0.9c0,0,0-0.2,0.1-0.1c-1.5-0.6-3-1.3-4.4-2
							c-1.4-0.7-2.9-1.5-4.3-2.3c-2.6-0.9-5-2.7-7.6-3.8l0.1-0.1c-1.6-0.8-3.2-1.7-4.9-2.7c-1.6-1-3.2-2.1-4.8-3
							c-1.3-0.8-2.2-1.4-3.6-2.2l0-0.1c-2.5-1.1-4.4-3.3-7-4.5l0.2,0c-0.5-0.1-1.3-1-1.4-0.6l-0.3-0.4c-1.8-0.7-2.7-2.1-4.7-3.2
							l0.2,0c-0.5-0.3-1.1-0.7-1.5-1c0.1,0,0.1,0,0.2,0.1c-1.3-1.4-3.2-2.4-4.7-3.7l0.3,0c-0.9-0.5-2.1-1.8-3.1-2.6l0.1,0l-0.6-0.3
							l0.1-0.1C284.6,709.3,283.4,708.4,282.2,707.2z"/>
						<path fill="#202020" d="M270.5,695.2C270.5,695.2,270.5,695.3,270.5,695.2C270.5,695.3,270.5,695.3,270.5,695.2z"/>
						<path fill="#202020" d="M417.5,750.3c0.1,0,0.1,0,0.2,0C417.7,750.3,417.6,750.3,417.5,750.3z"/>
					</g>
				</g>
			</g>
		</g>
	</g>
	<path opacity="0.35" fill="#AEB1AF" d="M617.1,706.2c0,0-8.3,62.6-33.4,96.3c-24,32.2-40,31-40,31s2,1,5,0.7c3-0.3,23-2.5,47-46.2
		c15.7-28.6,21.1-73.8,21.1-73.8L617.1,706.2z"/>
	<g opacity="0.55">
		<g>
			<g>
				<g>
					<g>
						<polygon fill="#B8BBB9" points="511.5,159.8 511.4,159.7 511.1,159.8 						"/>
						<path fill="#B8BBB9" d="M509.4,159.9C509.5,160,509.5,160,509.4,159.9l1.3-0.2C510.2,159.5,509.8,160.1,509.4,159.9z"/>
						<path fill="#B8BBB9" d="M509.1,159.9c-0.5-0.1-0.7,0-0.8,0.1C508.5,159.8,509.2,160.1,509.1,159.9z"/>
						<path fill="#B8BBB9" d="M471.8,173.1c0,0,0.1-0.1,0.1-0.1C471.9,173.1,471.8,173.1,471.8,173.1z"/>
						<path fill="#B8BBB9" d="M465,181.4l0,0.2c0.5-0.9,1.2-1.6,1.9-2.4c0.7-0.8,1.4-1.6,2.1-2.4l-0.1,0.1
							c3.7-3.8,7.2-7.3,11.5-10.3c-0.1,0.1-0.1,0.1-0.1,0.2c0.2-0.2,0.4-0.4,0.6-0.6c0.1,0,0,0.1-0.1,0.2c0.5-0.2,1.2-0.7,1.8-1.1
							c0.6-0.4,1.3-0.8,1.6-0.9c0.3-0.2,0.3-0.3,0.2-0.3c0.9-0.5,1.9-1,2.8-1.4c1-0.5,2-0.8,3-1.2c2-0.7,4.1-1.4,6.3-1.6
							c0.2,0,0.2,0.1,0.2,0.2c3.6-0.7,7.4-0.4,11.1-0.1c0.1-0.1-0.4-0.1,0-0.2c-1.2-0.2-2.2,0.1-3.3-0.1l0.1-0.1
							c-0.8-0.1-0.2,0.2-1,0.1c-0.3-0.1,0.1-0.1-0.1-0.1c-1.7,0-3.4-0.1-5,0.2c-0.4-0.2-1.8,0.1-2.4-0.1c-0.4,0.1-0.9,0.2-1,0.3
							c-0.4,0-0.7,0.1-1.1,0.2l-0.3,0c-0.1,0-0.2,0-0.3,0.1l-0.5,0.1c-0.7,0.2-1.4,0.4-2.2,0.6c-1.4,0.5-2.8,1-4.2,1.7
							c-1.4,0.6-2.7,1.4-4,2.1c-0.7,0.4-1.3,0.8-1.9,1.2c-0.6,0.4-1.3,0.8-1.9,1.3c-1,1-2.3,1.9-3.5,2.9c-0.6,0.5-1.3,1-1.9,1.5
							c-0.6,0.5-1.2,1.1-1.8,1.7c0,0,0,0,0,0c-0.7,0.8-1.8,2-2.7,2.9l-0.6,0.9c-5.5,5.5-10,12.1-14.2,18.8c-1.2,1.9-2.3,3.8-3.3,5.6
							c-1,1.9-2,3.7-3,5.6c-1.9,3.7-3.6,7.5-5.2,11.5c0,0-0.1,0,0-0.2c-1,2.3-2.1,4.3-2.9,6.5l0,0c-2.1,5.5-4.9,11.2-6.6,16.6
							c-2.6,6.4-5.2,13.7-7.5,20.6l-0.1,0c-1.8,5.6-3.9,10.8-5.5,16.4c-1.9,5.7-3.1,11.9-5,17.6c-1.4,3.5-1.9,8.4-3.1,11.7
							c-0.6,1.7-1.1,3.4-1.6,5.1c-0.4,1.7-0.8,3.5-1.2,5.2c-0.4,1.7-0.6,3.5-0.9,5.3c-0.2,1.8-0.5,3.5-0.7,5.3
							c-1.3,6.5-1.4,13.2-1.9,19.6c0.3,3-0.2,6.4,0.6,9.8l0.1-0.1c0,0.6,0.2,1.3,0.5,1.9c0.3,0.6,0.5,1.1,0.4,1.5l-0.1-0.1
							c0,0.4,0.4,0.8,0.7,1.1l-0.1,0c0-0.3,0-0.5,0.2-0.6l-0.1-0.1c0.2-0.7,0.2,0,0.4-0.6c0.1-0.2-0.2-0.1,0-0.6
							c0.5,0.1,0.5-1.8,1-1.7c-0.1,0.4,0.4-0.6,0.2,0.4c0.1-0.2,0.5-1.5,0.3-1.4c-0.2-0.2-0.2-0.7-0.6,0l0.1,0.2
							c-0.2,0.2-0.1,0.2-0.3,0.2c-0.4,1-0.6,1-1,1.7c0,0,0,0,0,0c0,0.5-0.3,1.2-0.5,1.5l-0.1,0.1c-0.2,0.1-0.1,0.6-0.1,0.8l1.1-0.1
							c-0.1-0.1-0.1-0.1,0.1-0.1c-0.4-0.8-0.8-1.9-1.1-3c-0.3-1.1-0.5-2.3-0.6-3.4c-0.2-0.3-0.2-1.8-0.4-1.2c0.2-0.6,0.2-2.3,0.1-3
							c0,0,0.1,0,0.1,0.1c0.3-1.3-0.4-1.5,0-2.7c-0.3-0.2,0.1-2.1-0.3-2.8c0.1-0.1,0.1-0.2,0.2-0.1c0-1.1,0.1-2.2,0.2-3.2
							c0.1-1.1,0.2-2.1,0.3-3c-0.2-1.6,0.5-3.7,0.3-5c0.2-1.1,0.6-2.8,0.7-4.3l0,0.2c0.2-1.7,0.5-3.8,0.5-5c0.5-0.4,0.5-1.2,0.8-1.9
							c0-1.2,0.5-3.4,0.8-5.2c0.2-0.2,0.2-1.4,0.5-1.5c0.2-1.2,0.4-2.5,0.6-3.8c0.3-1.3,0.6-2.7,1-4c0.4-1.4,0.7-2.7,1.1-4
							c0.4-1.3,0.9-2.6,1.3-3.9l0,0.1c0-0.7,0-1.5,0-2.3c0-0.1,0.1,0,0,0.1c0.2-0.9,0.7-1.7,0.9-2.7c0,0,0,0,0,0.2
							c0.1-0.9,0.7-1.7,0.8-2.8l0.1,0l0.1-0.7c0.1,0,0.2,0.1,0.1,0.4c2.4-7.9,4.4-16.2,7.2-24.2l0,0.3l0.4-1.6c0,0,0,0.1,0,0.2
							c0.8-1.9,1.3-4.1,2-6c0,0,0,0.3,0.1,0.1c0.3-1.5,1.1-2.2,0.9-3.1c0-0.1,0.2-0.1,0.1,0.1c0.6-2,1.3-4,2-6c0.7-2,1.5-4,2.3-6
							c0.9-3.4,2.7-7,3.8-10.5l0.1,0c1.5-4.5,3.8-9,5.8-13.5c0.9-1.8,1.4-3.1,2.2-5l0.1,0c1.1-3.3,3.4-6.4,4.7-9.8l0,0.3
							c0.1-0.6,1-1.9,0.6-1.9l0.4-0.5c0.7-2.4,2.2-3.9,3.5-6.6l0,0.2c0.3-0.7,0.7-1.6,1.1-2c0,0.1,0,0.1-0.1,0.2
							c0.8-1,1.5-2.1,2.1-3.3c0.7-1.2,1.3-2.4,2-3.5l0,0.3c0.6-1.2,2-3,2.9-4.4l0,0.1l0.4-0.7l0.1,0.1c0.7-0.9,1.2-1.8,1.9-2.6
							C463.8,183,464.4,182.2,465,181.4z"/>
						<path fill="#B8BBB9" d="M481,166.4C481,166.4,481,166.4,481,166.4C480.9,166.4,481,166.4,481,166.4z"/>
						<path fill="#B8BBB9" d="M407.9,359.7c0-0.1,0.1-0.2,0.1-0.2C408,359.5,407.9,359.6,407.9,359.7z"/>
					</g>
				</g>
			</g>
		</g>
	</g>
	<g opacity="0.65">
		<g>
			<g>
				<g>
					<g>
						<polygon fill="#B8BBB9" points="541.4,328.2 541.5,328.1 541.4,327.8 						"/>
						<path fill="#B8BBB9" d="M541.2,326.6C541.2,326.6,541.2,326.6,541.2,326.6l0.2,1C541.5,327.2,541.1,326.9,541.2,326.6z"/>
						<path fill="#B8BBB9" d="M541.2,326.3c0-0.4-0.1-0.5-0.1-0.6C541.2,325.8,541.1,326.4,541.2,326.3z"/>
						<path fill="#B8BBB9" d="M538.8,294.4c0,0,0,0.1,0,0.1C538.8,294.5,538.8,294.5,538.8,294.4z"/>
						<path fill="#B8BBB9" d="M537.7,286.2L537.7,286.2c0.2,1.5,0.2,3.2,0.4,4.8l0-0.1c0.4,4.2,0.8,8,1.2,12.1c0-0.1,0-0.1,0-0.1
							c0,0.2,0.1,0.4,0.1,0.6c0,0.1,0-0.1-0.1-0.1c0,0.9,0.3,2.6,0.2,3.1c0,0.2,0.1,0.3,0.1,0.2c0.3,3.2,0.6,6.7,0.9,10
							c0,0.2,0,0.2-0.1,0.1c0.4,2.8,0.5,5.8,0.6,8.6c0.1,0.1,0-0.3,0.1,0c0-0.9-0.2-1.7-0.2-2.5l0.1,0.1c0-0.6-0.1-0.1-0.1-0.8
							c0-0.3,0.1,0.1,0.1-0.1c-0.1-1.3-0.1-2.7-0.3-3.9c0.1-0.3-0.1-1.4,0-1.9c-0.1-0.3-0.1-0.7-0.2-0.8c-0.3-4.6-0.7-9.2-1.1-13.8
							c-0.4-2.2-0.4-4.8-0.7-7.4c0,0,0,0,0,0c-0.1-0.8-0.3-2.1-0.3-3.1l-0.2-0.8c-0.4-6.1-1.2-12.2-1.8-18.4
							c-0.8-7-1.4-13.1-2.6-19.8c0,0,0-0.1,0.1,0.1c-0.3-1.9-0.5-3.7-0.8-5.6l0,0c-0.8-4.5-1.4-9.5-2.3-13.8
							c-0.8-5.3-1.8-11.4-2.8-17l0,0c-0.4-2.3-0.8-4.5-1.2-6.7c-0.3-2.2-0.8-4.4-1.3-6.7c-0.8-4.6-2.3-9.4-3.5-14
							c-0.6-2.9-2.1-6.4-2.9-9.1c-1.6-5.4-3.8-10.5-7-15.2c-0.2-0.3-0.4-0.6-0.6-0.8l0,0c-2.2-1-4.7-1.4-7.1-1.5
							c-2.4-0.1-4.8,0.1-7.1,0.5c-2.3,0.6-4.9,1.1-7.4,2.1l0.1,0c-1,0.2-1.9,1-2.5,1l0.1-0.1c-0.5,0.1-1,0.7-1.3,0.7l0,0.1
							c-0.5,0.3-0.1,0-0.5,0.2c-0.2,0.1,0,0.1-0.4,0.3c-0.2-0.2-1.3,0.7-1.5,0.5c0.3-0.2-0.5,0.2,0.1-0.2c-0.2,0.1-1.1,0.6-1,0.6
							c0,0.1-0.3,0.4,0.3,0.2l0.1-0.1c0.2,0,0.2,0,0.3,0c0.7-0.4,0.9-0.3,1.4-0.5c0,0,0,0,0,0c0.3-0.3,0.8-0.5,1.1-0.6l0.1,0
							c0.2,0,0.8-0.6,0.6-0.3c1.5-0.7,3.2-1.4,5-2c0.2-0.1,1.3-0.4,0.9-0.4c0.5,0,1.8-0.4,2.3-0.5c0,0,0,0-0.1,0.1
							c1-0.1,1.1-0.5,2-0.4c0.1-0.2,1.6-0.3,2.1-0.5c0.1,0,0.2,0,0.1,0.1c1.7-0.3,3.5-0.3,4.9-0.2c1.2-0.1,2.9,0.3,3.9,0.3
							c0.8,0.2,2.1,0.6,3.2,1l-0.1,0c0.1,0,0.2,0.1,0.2,0.1l-0.1-0.1c0.7,1,1.5,2.3,2,3c0,0.4,0.3,0.9,0.5,1.5
							c0.5,0.8,1.2,2.4,1.9,3.6c0,0.2,0.5,1,0.4,1.1c1.7,3.5,3.2,8,4.3,12l0-0.1c0.2,0.5,0.5,1,0.8,1.5c0,0.1,0,0.1,0-0.1
							c0.2,0.7,0.3,1.4,0.5,2.2c0,0,0,0-0.1-0.1c0.3,0.7,0.3,1.4,0.6,2.2l0,0.1l0.2,0.5c0,0-0.1,0-0.2-0.3
							c1.6,6.3,3.3,12.8,4.4,19.3l-0.1-0.2l0.3,1.3c0,0,0-0.1-0.1-0.1c0.2,1.6,0.6,3.3,0.9,4.9c0,0-0.1-0.2-0.1,0
							c0.3,1.2,0.2,1.9,0.5,2.5c0,0.1,0,0.1-0.1,0c0.6,3.2,1.2,6.6,1.6,9.9c0.6,2.7,0.9,5.8,1.5,8.6l0,0c0.7,3.7,1.1,7.6,1.7,11.4
							c0.2,1.6,0.4,2.7,0.6,4.3l0,0c0.6,2.7,0.6,5.7,1.2,8.5l-0.1-0.2c0.2,0.4,0.2,1.7,0.4,1.5l0,0.5c0.5,1.9,0.3,3.5,0.8,5.8
							l-0.1-0.1c0.1,0.6,0.2,1.3,0.2,1.8c0-0.1,0,0-0.1-0.2c0.1,2,0.5,4.1,0.7,6.2l-0.1-0.2c0.2,1,0.3,2.8,0.5,4.1l0-0.1l0.1,0.7
							l-0.1,0C537.4,282.9,537.6,284.5,537.7,286.2z"/>
						<path fill="#B8BBB9" d="M539.4,303.4C539.4,303.4,539.4,303.4,539.4,303.4C539.4,303.3,539.4,303.3,539.4,303.4z"/>
						<path fill="#B8BBB9" d="M485.6,167.4c-0.1,0-0.1,0.1-0.2,0.1C485.4,167.5,485.5,167.4,485.6,167.4z"/>
					</g>
				</g>
			</g>
		</g>
	</g>
	<polygon opacity="5.000000e-02" fill="#FFFFFF" points="381.5,295.5 415.7,293.7 410.5,313.5 376.6,314.5 	"/>
	<path opacity="5.000000e-02" fill="#FFFFFF" d="M391.1,267.2c4-10.7,7.7-18.4,7.7-18.4l32.4-1.7l-12.1,35.1l-33.6,1.3
		C385.5,283.5,387.1,277.9,391.1,267.2z"/>
	<path d="M360.5,390.2l37.1,1.9c0,0,1.7-2.7,2.5-4.4c0.8-1.6,1.7-4.1,1.7-4.1l-38.4-2c0,0-1.4,3.6-1.6,4.3
		C361.6,386.8,360.5,390.2,360.5,390.2z"/>
	<path opacity="0.55" fill="#AEB1AF" d="M360.5,390.2l37.1,1.9c0,0,1.7-2.7,2.5-4.4c0.8-1.6,1.7-4.1,1.7-4.1l-38.4-2
		c0,0-1.4,3.6-1.6,4.3C361.6,386.8,360.5,390.2,360.5,390.2z"/>
	<polygon opacity="0.35" fill="#FFFFFF" points="412.2,712.6 447.8,687.2 442.6,681.7 406.6,707 	"/>
	<polygon opacity="0.25" points="412.2,712.6 447.8,687.2 442.6,681.7 406.6,707 	"/>
	<polygon opacity="0.5" fill="#FFFFFF" points="364,381.8 401.9,383.7 401.2,385.6 363.3,383.3 	"/>
	<path opacity="0.1" d="M467.7,445.9c0,0,6.1-2.2,9.7-2.4c3.5-0.2,12.4-0.2,13.1-2.5c0.7-2.2-9.9-22.1-9.9-22.1l-8.6-5.1l-11.4,7.6
		l-8,10.1L467.7,445.9z"/>
	<path fill="#FFFFFF" d="M261.3,623.5l24.4,35.3c0,0,0.7-5.2,0.5-6.6c-0.3-1.4-14.5-22.4-14.5-22.4s-3-2.6-5.2-3.8
		C264.3,624.8,261.3,623.5,261.3,623.5z"/>
	<path opacity="0.55" d="M261.3,623.5l24.4,35.3c0,0,0.7-5.2,0.5-6.6c-0.3-1.4-14.5-22.4-14.5-22.4s-3-2.6-5.2-3.8
		C264.3,624.8,261.3,623.5,261.3,623.5z"/>
	<path fill="#FFFFFF" d="M253.4,514.2l-4.4,32.8c0,0,6.3-4.7,7.3-14.2C257.2,524.3,253.4,514.2,253.4,514.2z"/>
	<path opacity="0.55" d="M253.4,514.2l-4.4,32.8c0,0,6.3-4.7,7.3-14.2C257.2,524.3,253.4,514.2,253.4,514.2z"/>
	<path opacity="5.000000e-02" d="M580.4,464.8c0,0,28.6-10.6,33.5-18c4.9-7.4,13.9-21.3,21.3-13.9c7.4,7.4,27.8,43.3,19.6,78.5
		c-8.2,35.2-27,48.2-27,53.1c0,4.9,9,26.2,9,26.2s35.3-80.2,27.8-140.6c-5.7-45.8-34.3-74-37.6-77.5c-3.3-3.5-14.7-5.9-18.8,8
		c-4.1,13.9-31.9,15.5-39.2,24.5c-7.4,9-21.3,20.4-21.3,20.4s14.9,12.2,21.1,20C576.3,455,580.4,464.8,580.4,464.8"/>
	<path opacity="0.35" fill="#AEB1AF" d="M251.1,677.8l-0.4-0.6c0,0-33.2,16.7-34.5,18c-1.3,1.3-7.1,4.2-7.1,4.2s6.5,0,13.9-2.9
		c7.4-2.9,31.3-14.5,31.3-14.5l-0.5-0.6c0,0-36.2,17.7-40.2,16.7C212.2,697.7,251.1,677.8,251.1,677.8z"/>
	<g>
		<path opacity="5.000000e-02" fill="#AEB1AF" d="M371.3,515.8c3.8-0.6,15.6,2.7,16.6,12.9c1,10.2-9,14-11.9,14
			c-2.9,0-13.2-3.5-14.3-13.6C360.4,517.1,371.3,515.8,371.3,515.8z"/>
		<g>
			<g opacity="0.15">
				<g>
					<g>
						<g>
							<g>
								<polygon fill="#FFFFFF" points="371.3,515.4 371.2,515.3 371.1,515.4 								"/>
								<path fill="#FFFFFF" d="M370.6,515.6C370.7,515.6,370.6,515.7,370.6,515.6l0.4-0.2C370.8,515.3,370.8,515.7,370.6,515.6z"/>
								<path fill="#FFFFFF" d="M370.5,515.6c-0.2,0-0.2,0.1-0.2,0.1C370.3,515.7,370.6,515.7,370.5,515.6z"/>
								<path fill="#FFFFFF" d="M361.5,524.9C361.5,524.9,361.5,524.9,361.5,524.9C361.5,524.9,361.5,524.9,361.5,524.9z"/>
								<path fill="#FFFFFF" d="M361.7,528.4L361.7,528.4c-0.1-0.6,0-1.4,0-2l0,0c0-0.4,0.1-0.9,0.1-1.3c0.1-0.4,0.2-0.8,0.2-1.2
									c0.1-0.4,0.2-0.8,0.3-1.2c0.1-0.4,0.3-0.8,0.5-1.2c0,0,0,0,0,0.1c0-0.1,0-0.2,0.1-0.3c0,0,0,0,0,0.1
									c0.1-0.1,0.3-0.4,0.4-0.6c0.1-0.2,0.3-0.4,0.4-0.5c0.1-0.1,0-0.2,0-0.1c0.8-1.1,1.9-2.2,3.1-2.9c0.1,0,0.1,0,0.1,0
									c1-0.8,2.2-1.2,3.4-1.5c0-0.1-0.1,0,0-0.1c-0.4,0-0.7,0.3-1,0.4l0-0.1c-0.3,0.1,0,0.1-0.3,0.2c-0.1,0,0-0.1,0-0.1
									c-0.5,0.2-1.1,0.4-1.5,0.8c-0.2,0-0.5,0.3-0.8,0.3c-0.1,0.1-0.2,0.2-0.2,0.3c-1.7,1-3.1,2.6-3.9,4.5c-0.1,0.5-0.3,1-0.5,1.4
									c-0.2,0.5-0.3,1.1-0.4,1.6c0,0,0,0,0,0c0,0.4,0,0.9-0.1,1.3l0.1,0.4c-0.3,2.5,0.3,5.3,1.4,7.6c1.4,2.6,3.2,4.8,5.8,6.1
									c0,0,0,0-0.1,0c0.4,0.2,0.7,0.4,1,0.6c0.3,0.2,0.7,0.4,1.1,0.5l0,0c0.9,0.4,1.9,0.7,2.8,1c1,0.3,2,0.5,2.9,0.3
									c2.3-0.3,4.7-1.5,6.6-2.9l0,0c1.5-1.2,2.9-2.5,3.7-4.3c1-1.8,1.1-3.9,1.1-5.9c0-0.3,0.1-0.6,0-1c-0.1-0.3-0.2-0.7-0.2-1
									c-0.1-0.7-0.4-1.3-0.5-1.9c-0.5-2.4-2.1-4.3-4-5.7c-1.6-1.5-3.7-2.3-5.6-3.2c-1-0.2-2-0.8-3.1-1l0,0.1
									c-0.4-0.2-0.9,0.1-1.1-0.2l0,0c-0.2-0.1-0.5,0.2-0.6,0.1l0,0.1c-0.3,0,0-0.1-0.2-0.1c-0.1,0,0,0.1-0.2,0.1
									c0-0.3-0.6,0.1-0.7-0.2c0.1,0-0.2-0.1,0.1-0.2c-0.1,0-0.5,0-0.5,0.1c0,0.1-0.2,0.2,0.1,0.3l0-0.1c0.1,0.1,0.1,0,0.1,0.1
									c0.3,0,0.4,0.1,0.6,0.1c0,0,0,0,0,0c0.1-0.1,0.4,0,0.5,0l0,0c0.1,0.1,0.4-0.2,0.3,0c0.3,0,0.7,0,1.1,0.1
									c0.4,0.1,0.8,0.1,1.1,0.2c0.1,0,0.6,0.2,0.4,0c0.2,0.2,0.7,0.4,0.9,0.4c0,0,0,0-0.1,0c0.3,0.3,0.5,0,0.8,0.3
									c0.1-0.1,0.6,0.3,0.9,0.2c0,0.1,0,0.1,0,0.1c0.3,0.1,0.6,0.3,1,0.4c0.3,0.2,0.6,0.3,0.8,0.5c0.5,0.1,1,0.7,1.5,0.7
									c0.3,0.2,0.7,0.6,1.1,0.9l-0.1,0c0.5,0.3,0.9,0.8,1.3,1c0,0.2,0.2,0.4,0.3,0.6c0.3,0.2,0.8,0.8,1.2,1.2
									c0,0.1,0.3,0.4,0.2,0.5c0.6,0.6,1,1.4,1.3,2.2c0.1,0.4,0.2,0.9,0.4,1.3c0.1,0.4,0.1,0.9,0.1,1.3l0,0
									c0.1,0.2,0.3,0.4,0.4,0.7c0,0,0,0,0,0c0,0.3-0.1,0.6,0,0.9c0,0,0,0,0-0.1c0.1,0.3-0.1,0.6,0,1l0,0c0,0,0,0.2,0,0.2
									c0,0-0.1,0-0.1-0.1c-0.2,2.6-1,5.4-2.9,7.4l0-0.1l-0.3,0.4c0,0,0,0,0-0.1c-0.2,0.2-0.5,0.5-0.8,0.7
									c-0.2,0.2-0.5,0.5-0.8,0.7c0,0,0-0.1,0-0.1c-0.3,0.4-0.7,0.4-0.8,0.7c0,0-0.1,0,0-0.1c-1.1,0.8-2.4,1.4-3.7,1.8
									c-0.5,0.3-1.1,0.4-1.7,0.5c-0.6,0.1-1.2,0-1.8,0l0,0c-1.6-0.1-3.1-0.9-4.5-1.6c-0.6-0.3-1-0.5-1.6-0.9l0-0.1
									c-1.1-0.4-1.8-1.5-2.8-2.2l0.1,0c-0.2-0.1-0.5-0.6-0.5-0.4l-0.1-0.2c-0.4-0.2-0.6-0.5-0.8-0.9c-0.2-0.3-0.4-0.7-0.7-1.1
									l0.1,0c-0.2-0.2-0.3-0.5-0.4-0.6c0,0,0,0,0.1,0.1c-0.1-0.4-0.4-0.8-0.5-1.2c-0.2-0.4-0.5-0.8-0.6-1.2l0.1,0.1
									c-0.2-0.4-0.4-1.1-0.5-1.7l0,0l-0.1-0.3l0.1,0C361.9,529.8,361.7,529.2,361.7,528.4z"/>
								<path fill="#FFFFFF" d="M362.9,521.4L362.9,521.4C362.9,521.4,362.9,521.4,362.9,521.4z"/>
								<path fill="#FFFFFF" d="M372.3,516.1C372.3,516.1,372.2,516.1,372.3,516.1C372.2,516.1,372.3,516.1,372.3,516.1z"/>
							</g>
						</g>
					</g>
				</g>
			</g>
			<path d="M378.7,518.9c0,0-0.6,6.1,2.2,9.6c2.8,3.4,6.1,5.2,6.1,5.2s1.4-7.9-1.7-11.1C382.1,519.3,378.7,518.9,378.7,518.9z"/>
			<path opacity="0.35" d="M377.7,518.5c0,0-0.4,7.8,2.3,11c2.7,3.2,6.2,5.1,6.2,5.1s-2.5,5.1-5.8,5c-3.3-0.1-11.5-5.1-10.9-12.3
				C370.2,520,377.7,518.5,377.7,518.5z"/>
			<path opacity="0.15" d="M370.7,532.3c0,0-8.1-0.8-8.2-6.1c-0.1-5.4,4.4-10.2,7.8-10.5c3.3-0.3,9.4,2.5,9.4,2.5s-6.5,0.2-8.4,5.3
				C369.3,528.4,370.7,532.3,370.7,532.3z"/>
			<path opacity="0.25" fill="#FFFFFF" d="M369.1,540.7c0,0,1,1.9,2.7,2.4c1.7,0.4,4.2-0.3,4.2-0.3s-2-0.3-3.4-0.9
				C371.1,541.3,369.1,540.7,369.1,540.7z"/>
			<path opacity="0.25" fill="#FFFFFF" d="M387,535.2c0,0,1.8-2.3,1.8-3.2c0-1-1.3-5.2-1.3-5.2s0.3,2.3,0.1,4.3
				C387.4,533.1,387,535.2,387,535.2z"/>
		</g>
	</g>
	<g>
		<path opacity="5.000000e-02" fill="#AEB1AF" d="M371.3,569.6c3.8-0.6,15.6,2.7,16.6,12.9c1,10.2-9,14-11.9,14
			c-2.9,0-13.2-3.5-14.3-13.6C360.4,570.9,371.3,569.6,371.3,569.6z"/>
		<g>
			<g opacity="0.15">
				<g>
					<g>
						<g>
							<g>
								<polygon fill="#FFFFFF" points="371.3,569.2 371.2,569.2 371.1,569.3 								"/>
								<path fill="#FFFFFF" d="M370.6,569.5C370.7,569.5,370.6,569.5,370.6,569.5l0.4-0.2C370.8,569.2,370.8,569.5,370.6,569.5z"/>
								<path fill="#FFFFFF" d="M370.5,569.5c-0.2,0-0.2,0.1-0.2,0.1C370.3,569.5,370.6,569.6,370.5,569.5z"/>
								<path fill="#FFFFFF" d="M361.5,578.7C361.5,578.7,361.5,578.7,361.5,578.7C361.5,578.7,361.5,578.7,361.5,578.7z"/>
								<path fill="#FFFFFF" d="M361.7,582.3L361.7,582.3c-0.1-0.6,0-1.4,0-2l0,0c0-0.4,0.1-0.9,0.1-1.3c0.1-0.4,0.2-0.8,0.2-1.2
									c0.1-0.4,0.2-0.8,0.3-1.2c0.1-0.4,0.3-0.8,0.5-1.2c0,0,0,0,0,0.1c0-0.1,0-0.2,0.1-0.3c0,0,0,0,0,0.1
									c0.1-0.1,0.3-0.4,0.4-0.6c0.1-0.2,0.3-0.4,0.4-0.5c0.1-0.1,0-0.2,0-0.1c0.8-1.1,1.9-2.2,3.1-2.9c0.1,0,0.1,0,0.1,0
									c1-0.8,2.2-1.2,3.4-1.5c0-0.1-0.1,0,0-0.1c-0.4,0-0.7,0.3-1,0.4l0-0.1c-0.3,0.1,0,0.1-0.3,0.2c-0.1,0,0-0.1,0-0.1
									c-0.5,0.2-1.1,0.4-1.5,0.8c-0.2,0-0.5,0.3-0.8,0.3c-0.1,0.1-0.2,0.2-0.2,0.3c-1.7,1-3.1,2.6-3.9,4.5c-0.1,0.5-0.3,1-0.5,1.4
									c-0.2,0.5-0.3,1.1-0.4,1.6c0,0,0,0,0,0c0,0.4,0,0.9-0.1,1.3l0.1,0.4c-0.3,2.5,0.3,5.3,1.4,7.6c1.4,2.6,3.2,4.8,5.8,6.1
									c0,0,0,0-0.1,0c0.4,0.2,0.7,0.4,1,0.6c0.3,0.2,0.7,0.4,1.1,0.5l0,0c0.9,0.4,1.9,0.7,2.8,1c1,0.3,2,0.5,2.9,0.3
									c2.3-0.3,4.7-1.5,6.6-2.9l0,0c1.5-1.2,2.9-2.5,3.7-4.3c1-1.8,1.1-3.9,1.1-5.9c0-0.3,0.1-0.6,0-1c-0.1-0.3-0.2-0.7-0.2-1
									c-0.1-0.7-0.4-1.3-0.5-1.9c-0.5-2.4-2.1-4.3-4-5.7c-1.6-1.5-3.7-2.3-5.6-3.2c-1-0.2-2-0.8-3.1-1l0,0.1
									c-0.4-0.2-0.9,0.1-1.1-0.2l0,0c-0.2-0.1-0.5,0.2-0.6,0.1l0,0.1c-0.3,0,0-0.1-0.2-0.1c-0.1,0,0,0.1-0.2,0.1
									c0-0.3-0.6,0.1-0.7-0.2c0.1,0-0.2-0.1,0.1-0.2c-0.1,0-0.5,0-0.5,0.1c0,0.1-0.2,0.2,0.1,0.3l0-0.1c0.1,0.1,0.1,0,0.1,0.1
									c0.3,0,0.4,0.1,0.6,0.1c0,0,0,0,0,0c0.1-0.1,0.4,0,0.5,0l0,0c0.1,0.1,0.4-0.2,0.3,0c0.3,0,0.7,0,1.1,0.1
									c0.4,0.1,0.8,0.1,1.1,0.2c0.1,0,0.6,0.2,0.4,0c0.2,0.2,0.7,0.4,0.9,0.4c0,0,0,0-0.1,0c0.3,0.3,0.5,0,0.8,0.3
									c0.1-0.1,0.6,0.3,0.9,0.2c0,0.1,0,0.1,0,0.1c0.3,0.1,0.6,0.3,1,0.4c0.3,0.2,0.6,0.3,0.8,0.5c0.5,0.1,1,0.7,1.5,0.7
									c0.3,0.2,0.7,0.6,1.1,0.9l-0.1,0c0.5,0.3,0.9,0.8,1.3,1c0,0.2,0.2,0.4,0.3,0.6c0.3,0.2,0.8,0.8,1.2,1.2
									c0,0.1,0.3,0.4,0.2,0.5c0.6,0.6,1,1.4,1.3,2.2c0.1,0.4,0.2,0.9,0.4,1.3c0.1,0.4,0.1,0.9,0.1,1.3l0,0
									c0.1,0.2,0.3,0.4,0.4,0.7c0,0,0,0,0,0c0,0.3-0.1,0.6,0,0.9c0,0,0,0,0-0.1c0.1,0.3-0.1,0.6,0,1l0,0c0,0,0,0.2,0,0.2
									c0,0-0.1,0-0.1-0.1c-0.2,2.6-1,5.4-2.9,7.4l0-0.1l-0.3,0.4c0,0,0,0,0-0.1c-0.2,0.2-0.5,0.5-0.8,0.7
									c-0.2,0.2-0.5,0.5-0.8,0.7c0,0,0-0.1,0-0.1c-0.3,0.4-0.7,0.4-0.8,0.7c0,0-0.1,0,0-0.1c-1.1,0.8-2.4,1.4-3.7,1.8
									c-0.5,0.3-1.1,0.4-1.7,0.5c-0.6,0.1-1.2,0-1.8,0l0,0c-1.6-0.1-3.1-0.9-4.5-1.6c-0.6-0.3-1-0.5-1.6-0.9l0-0.1
									c-1.1-0.4-1.8-1.5-2.8-2.2l0.1,0c-0.2-0.1-0.5-0.6-0.5-0.4l-0.1-0.2c-0.4-0.2-0.6-0.5-0.8-0.9c-0.2-0.3-0.4-0.7-0.7-1.1
									l0.1,0c-0.2-0.2-0.3-0.5-0.4-0.6c0,0,0,0,0.1,0.1c-0.1-0.4-0.4-0.8-0.5-1.2c-0.2-0.4-0.5-0.8-0.6-1.2l0.1,0.1
									c-0.2-0.4-0.4-1.1-0.5-1.7l0,0l-0.1-0.3l0.1,0C361.9,583.6,361.7,583,361.7,582.3z"/>
								<path fill="#FFFFFF" d="M362.9,575.2L362.9,575.2C362.9,575.2,362.9,575.2,362.9,575.2z"/>
								<path fill="#FFFFFF" d="M372.3,569.9C372.3,569.9,372.2,569.9,372.3,569.9C372.2,569.9,372.3,569.9,372.3,569.9z"/>
							</g>
						</g>
					</g>
				</g>
			</g>
			<path d="M378.7,572.7c0,0-0.6,6.1,2.2,9.6c2.8,3.4,6.1,5.2,6.1,5.2s1.4-7.9-1.7-11.1C382.1,573.2,378.7,572.7,378.7,572.7z"/>
			<path opacity="0.35" d="M377.7,572.3c0,0-0.4,7.8,2.3,11c2.7,3.2,6.2,5.1,6.2,5.1s-2.5,5.1-5.8,5c-3.3-0.1-11.5-5.1-10.9-12.3
				C370.2,573.8,377.7,572.3,377.7,572.3z"/>
			<path opacity="0.15" d="M370.7,586.1c0,0-8.1-0.8-8.2-6.1c-0.1-5.4,4.4-10.2,7.8-10.5c3.3-0.3,9.4,2.5,9.4,2.5s-6.5,0.2-8.4,5.3
				C369.3,582.2,370.7,586.1,370.7,586.1z"/>
			<path opacity="0.25" fill="#FFFFFF" d="M369.1,594.5c0,0,1,1.9,2.7,2.4c1.7,0.4,4.2-0.3,4.2-0.3s-2-0.3-3.4-0.9
				C371.1,595.1,369.1,594.5,369.1,594.5z"/>
			<path opacity="0.25" fill="#FFFFFF" d="M387,589c0,0,1.8-2.3,1.8-3.2c0-1-1.3-5.2-1.3-5.2s0.3,2.3,0.1,4.3
				C387.4,586.9,387,589,387,589z"/>
		</g>
	</g>
	<path opacity="0.5" d="M471.4,723.3c0,0-25.5-49.1-46.5-54.6c-21-5.5-32,0-35.8,4.5c-3.9,4.5-5.3,10.6-1.7,20.5
		c1.2,3.3,4.1,8.2,8.2,13.3c9.4,11.6,23.2,24.6,23.2,24.6s23.8,13.4,34.6,8.4C473.3,730.8,471.4,723.3,471.4,723.3z"/>
	<path opacity="0.25" d="M415.2,715.3c0,0-23.6-19.7-23.2-31.3c0.3-11.6,5.5-15.8,5.5-15.8s-11,3.2-11.9,13.2
		c-1,10,5.3,21.5,13.6,30c9,9.1,17,17.9,17,17.9l0.5-12.7L415.2,715.3z"/>
	<path opacity="0.25" d="M242.4,636.8c0,0,7.4-14.2,16.8-13.6c9.4,0.6,27.4,17.4,27.1,30.7c-0.3,13.2-6.1,16.8-11,17.4
		c-4.8,0.6-10.7-1-10.7-1L242.4,636.8z"/>
	<polygon opacity="0.75" points="258.6,681.4 275.4,671.3 266.3,666.5 251.1,672.3 	"/>
	<path opacity="0.25" d="M228.1,542.7c0,0,12.6,8.6,14.2,8.6c1.6,0,16.9-7.5,14-24.9c-2.9-17.4-7.1-22.5-16.3-27.9
		c-9.2-5.4-14-4.7-14-4.7L228.1,542.7z"/>
	<path opacity="0.25" d="M371.5,363.4c0,0-9.9,20.4-12.4,32.3c-3.5,17,3,24.4,3,24.4s11.8,3.6,20.5-7c8.8-10.6,17.6-23.6,19.4-29.9
		c1.8-6.2,7-24.2,8.3-27.2c1.3-3,2.2-6.8,2.2-6.8l-3.6-0.2"/>
	<path opacity="0.25" d="M541.4,444.7c0,0-10,0.9-16.3,3.6c-4,1.7-13.1,6.9-23.7,14.7c-12.3,9-26.7,15.9-26.7,15.9s-13.1,3.9-20.2,2
		c-7.1-1.8-22.8-11.8-20-27.7c2.9-15.9,19.4-28.6,34.7-37.7c15.3-9.2,49.3-16,49.3-16s10.4,13,14.7,23.4
		C539.9,439.4,541.4,444.7,541.4,444.7z"/>
	<g>
		<path opacity="5.000000e-02" fill="#AEB1AF" d="M327.1,569.6c3.8-0.6,15.6,2.7,16.6,12.9c1,10.2-9,14-11.9,14
			c-2.9,0-13.2-3.5-14.3-13.6C316.1,570.9,327.1,569.6,327.1,569.6z"/>
		<g>
			<g opacity="0.15">
				<g>
					<g>
						<g>
							<g>
								<polygon fill="#FFFFFF" points="327,569.2 327,569.2 326.9,569.2 								"/>
								<path fill="#FFFFFF" d="M326.4,569.5C326.4,569.5,326.4,569.5,326.4,569.5l0.4-0.2C326.6,569.2,326.5,569.5,326.4,569.5z"/>
								<path fill="#FFFFFF" d="M326.2,569.5c-0.2,0-0.2,0.1-0.2,0.1C326,569.5,326.3,569.6,326.2,569.5z"/>
								<path fill="#FFFFFF" d="M317.2,578.7C317.2,578.7,317.2,578.7,317.2,578.7C317.2,578.7,317.2,578.7,317.2,578.7z"/>
								<path fill="#FFFFFF" d="M317.4,582.3L317.4,582.3c-0.1-0.6,0-1.4,0-2l0,0c0-0.4,0.1-0.9,0.1-1.3c0.1-0.4,0.2-0.8,0.2-1.2
									c0.1-0.4,0.2-0.8,0.3-1.2c0.1-0.4,0.3-0.8,0.5-1.2c0,0,0,0,0,0.1c0-0.1,0-0.2,0.1-0.3c0,0,0,0,0,0.1
									c0.1-0.1,0.3-0.4,0.4-0.6c0.1-0.2,0.3-0.4,0.4-0.5c0.1-0.1,0-0.2,0-0.1c0.8-1.1,1.9-2.2,3.1-2.9c0.1,0,0.1,0,0.1,0
									c1-0.8,2.2-1.2,3.4-1.5c0-0.1-0.1,0,0-0.1c-0.4,0-0.7,0.3-1,0.4l0-0.1c-0.3,0.1,0,0.1-0.3,0.2c-0.1,0,0-0.1,0-0.1
									c-0.5,0.2-1.1,0.4-1.5,0.8c-0.2,0-0.5,0.3-0.8,0.3c-0.1,0.1-0.2,0.2-0.2,0.3c-1.7,1-3.1,2.6-3.9,4.5c-0.1,0.5-0.3,1-0.5,1.4
									c-0.2,0.5-0.3,1.1-0.4,1.6c0,0,0,0,0,0c0,0.4,0,0.9-0.1,1.3l0.1,0.4c-0.3,2.5,0.3,5.3,1.4,7.6c1.4,2.6,3.2,4.8,5.8,6.1
									c0,0,0,0-0.1,0c0.4,0.2,0.7,0.4,1,0.6c0.3,0.2,0.7,0.4,1.1,0.5l0,0c0.9,0.4,1.9,0.7,2.8,1c1,0.3,2,0.5,2.9,0.3
									c2.3-0.3,4.7-1.5,6.6-2.9l0,0c1.5-1.2,2.9-2.5,3.7-4.3c1-1.8,1.1-3.9,1.1-5.9c0-0.3,0.1-0.6,0-1c-0.1-0.3-0.2-0.7-0.2-1
									c-0.1-0.7-0.4-1.3-0.5-1.9c-0.5-2.4-2.1-4.3-4-5.7c-1.6-1.5-3.7-2.3-5.6-3.2c-1-0.2-2-0.8-3.1-1l0,0.1
									c-0.4-0.2-0.9,0.1-1.1-0.2l0,0c-0.2-0.1-0.5,0.2-0.6,0.1l0,0.1c-0.3,0,0-0.1-0.2-0.1c-0.1,0,0,0.1-0.2,0.1
									c0-0.3-0.6,0.1-0.7-0.2c0.1,0-0.2-0.1,0.1-0.2c-0.1,0-0.5,0-0.5,0.1c0,0.1-0.2,0.2,0.1,0.3l0-0.1c0.1,0.1,0.1,0,0.1,0.1
									c0.3,0,0.4,0.1,0.6,0.1c0,0,0,0,0,0c0.1-0.1,0.4,0,0.5,0l0,0c0.1,0.1,0.4-0.2,0.3,0c0.3,0,0.7,0,1.1,0.1
									c0.4,0.1,0.8,0.1,1.1,0.2c0.1,0,0.6,0.2,0.4,0c0.2,0.2,0.7,0.4,0.9,0.4c0,0,0,0-0.1,0c0.3,0.3,0.5,0,0.8,0.3
									c0.1-0.1,0.6,0.3,0.9,0.2c0,0.1,0,0.1,0,0.1c0.3,0.1,0.6,0.3,1,0.4c0.3,0.2,0.6,0.3,0.8,0.5c0.5,0.1,1,0.7,1.5,0.7
									c0.3,0.2,0.7,0.6,1.1,0.9l-0.1,0c0.5,0.3,0.9,0.8,1.3,1c0,0.2,0.2,0.4,0.3,0.6c0.3,0.2,0.8,0.8,1.2,1.2
									c0,0.1,0.3,0.4,0.2,0.5c0.6,0.6,1,1.4,1.3,2.2c0.1,0.4,0.2,0.9,0.4,1.3c0.1,0.4,0.1,0.9,0.1,1.3l0,0
									c0.1,0.2,0.3,0.4,0.4,0.7c0,0,0,0,0,0c0,0.3-0.1,0.6,0,0.9c0,0,0,0,0-0.1c0.1,0.3-0.1,0.6,0,1l0,0c0,0,0,0.2,0,0.2
									c0,0-0.1,0-0.1-0.1c-0.2,2.6-1,5.4-2.9,7.4l0-0.1l-0.3,0.4c0,0,0,0,0-0.1c-0.2,0.2-0.5,0.5-0.8,0.7
									c-0.2,0.2-0.5,0.5-0.8,0.7c0,0,0-0.1,0-0.1c-0.3,0.4-0.7,0.4-0.8,0.7c0,0-0.1,0,0-0.1c-1.1,0.8-2.4,1.4-3.7,1.8
									c-0.5,0.3-1.1,0.4-1.7,0.5c-0.6,0.1-1.2,0-1.8,0l0,0c-1.6-0.1-3.1-0.9-4.5-1.6c-0.6-0.3-1-0.5-1.6-0.9l0-0.1
									c-1.1-0.4-1.8-1.5-2.8-2.2l0.1,0c-0.2-0.1-0.5-0.6-0.5-0.4l-0.1-0.2c-0.4-0.2-0.6-0.5-0.8-0.9c-0.2-0.3-0.4-0.7-0.7-1.1
									l0.1,0c-0.2-0.2-0.3-0.5-0.4-0.6c0,0,0,0,0.1,0.1c-0.1-0.4-0.4-0.8-0.5-1.2c-0.2-0.4-0.5-0.8-0.6-1.2l0.1,0.1
									c-0.2-0.4-0.4-1.1-0.5-1.7l0,0l-0.1-0.3l0.1,0C317.6,583.6,317.4,583,317.4,582.3z"/>
								<path fill="#FFFFFF" d="M318.6,575.2L318.6,575.2C318.6,575.2,318.6,575.2,318.6,575.2z"/>
								<path fill="#FFFFFF" d="M328,569.9C328,569.9,328,569.9,328,569.9C328,569.9,328,569.9,328,569.9z"/>
							</g>
						</g>
					</g>
				</g>
			</g>
			<path d="M334.4,572.7c0,0-0.6,6.1,2.2,9.6c2.8,3.4,6.1,5.2,6.1,5.2s1.4-7.9-1.7-11.1C337.8,573.2,334.4,572.7,334.4,572.7z"/>
			<path opacity="0.35" d="M333.4,572.3c0,0-0.4,7.8,2.3,11c2.7,3.2,6.2,5.1,6.2,5.1s-2.5,5.1-5.8,5c-3.3-0.1-11.5-5.1-10.9-12.3
				C325.9,573.8,333.4,572.3,333.4,572.3z"/>
			<path opacity="0.15" d="M326.4,586.1c0,0-8.1-0.8-8.2-6.1c-0.1-5.4,4.4-10.2,7.8-10.5c3.3-0.3,9.4,2.5,9.4,2.5s-6.5,0.2-8.4,5.3
				C325,582.2,326.4,586.1,326.4,586.1z"/>
			<path opacity="0.25" fill="#FFFFFF" d="M324.8,594.5c0,0,1,1.9,2.7,2.4c1.7,0.4,4.2-0.3,4.2-0.3s-2-0.3-3.4-0.9
				C326.9,595.1,324.8,594.5,324.8,594.5z"/>
			<path opacity="0.25" fill="#FFFFFF" d="M342.7,589c0,0,1.8-2.3,1.8-3.2c0-1-1.3-5.2-1.3-5.2s0.3,2.3,0.1,4.3
				C343.1,586.9,342.7,589,342.7,589z"/>
		</g>
	</g>
	<g>
		<path opacity="5.000000e-02" fill="#AEB1AF" d="M327.1,515.8c3.8-0.6,15.6,2.7,16.6,12.9c1,10.2-9,14-11.9,14
			c-2.9,0-13.2-3.5-14.3-13.6C316.1,517.1,327.1,515.8,327.1,515.8z"/>
		<g>
			<g opacity="0.15">
				<g>
					<g>
						<g>
							<g>
								<polygon fill="#FFFFFF" points="327,515.4 327,515.3 326.9,515.4 								"/>
								<path fill="#FFFFFF" d="M326.4,515.6C326.4,515.6,326.4,515.7,326.4,515.6l0.4-0.2C326.6,515.3,326.5,515.7,326.4,515.6z"/>
								<path fill="#FFFFFF" d="M326.2,515.6c-0.2,0-0.2,0.1-0.2,0.1C326,515.7,326.3,515.7,326.2,515.6z"/>
								<path fill="#FFFFFF" d="M317.2,524.9C317.2,524.9,317.2,524.9,317.2,524.9C317.2,524.9,317.2,524.9,317.2,524.9z"/>
								<path fill="#FFFFFF" d="M317.4,528.4L317.4,528.4c-0.1-0.6,0-1.4,0-2l0,0c0-0.4,0.1-0.9,0.1-1.3c0.1-0.4,0.2-0.8,0.2-1.2
									c0.1-0.4,0.2-0.8,0.3-1.2c0.1-0.4,0.3-0.8,0.5-1.2c0,0,0,0,0,0.1c0-0.1,0-0.2,0.1-0.3c0,0,0,0,0,0.1
									c0.1-0.1,0.3-0.4,0.4-0.6c0.1-0.2,0.3-0.4,0.4-0.5c0.1-0.1,0-0.2,0-0.1c0.8-1.1,1.9-2.2,3.1-2.9c0.1,0,0.1,0,0.1,0
									c1-0.8,2.2-1.2,3.4-1.5c0-0.1-0.1,0,0-0.1c-0.4,0-0.7,0.3-1,0.4l0-0.1c-0.3,0.1,0,0.1-0.3,0.2c-0.1,0,0-0.1,0-0.1
									c-0.5,0.2-1.1,0.4-1.5,0.8c-0.2,0-0.5,0.3-0.8,0.3c-0.1,0.1-0.2,0.2-0.2,0.3c-1.7,1-3.1,2.6-3.9,4.5c-0.1,0.5-0.3,1-0.5,1.4
									c-0.2,0.5-0.3,1.1-0.4,1.6c0,0,0,0,0,0c0,0.4,0,0.9-0.1,1.3l0.1,0.4c-0.3,2.5,0.3,5.3,1.4,7.6c1.4,2.6,3.2,4.8,5.8,6.1
									c0,0,0,0-0.1,0c0.4,0.2,0.7,0.4,1,0.6c0.3,0.2,0.7,0.4,1.1,0.5l0,0c0.9,0.4,1.9,0.7,2.8,1c1,0.3,2,0.5,2.9,0.3
									c2.3-0.3,4.7-1.5,6.6-2.9l0,0c1.5-1.2,2.9-2.5,3.7-4.3c1-1.8,1.1-3.9,1.1-5.9c0-0.3,0.1-0.6,0-1c-0.1-0.3-0.2-0.7-0.2-1
									c-0.1-0.7-0.4-1.3-0.5-1.9c-0.5-2.4-2.1-4.3-4-5.7c-1.6-1.5-3.7-2.3-5.6-3.2c-1-0.2-2-0.8-3.1-1l0,0.1
									c-0.4-0.2-0.9,0.1-1.1-0.2l0,0c-0.2-0.1-0.5,0.2-0.6,0.1l0,0.1c-0.3,0,0-0.1-0.2-0.1c-0.1,0,0,0.1-0.2,0.1
									c0-0.3-0.6,0.1-0.7-0.2c0.1,0-0.2-0.1,0.1-0.2c-0.1,0-0.5,0-0.5,0.1c0,0.1-0.2,0.2,0.1,0.3l0-0.1c0.1,0.1,0.1,0,0.1,0.1
									c0.3,0,0.4,0.1,0.6,0.1c0,0,0,0,0,0c0.1-0.1,0.4,0,0.5,0l0,0c0.1,0.1,0.4-0.2,0.3,0c0.3,0,0.7,0,1.1,0.1
									c0.4,0.1,0.8,0.1,1.1,0.2c0.1,0,0.6,0.2,0.4,0c0.2,0.2,0.7,0.4,0.9,0.4c0,0,0,0-0.1,0c0.3,0.3,0.5,0,0.8,0.3
									c0.1-0.1,0.6,0.3,0.9,0.2c0,0.1,0,0.1,0,0.1c0.3,0.1,0.6,0.3,1,0.4c0.3,0.2,0.6,0.3,0.8,0.5c0.5,0.1,1,0.7,1.5,0.7
									c0.3,0.2,0.7,0.6,1.1,0.9l-0.1,0c0.5,0.3,0.9,0.8,1.3,1c0,0.2,0.2,0.4,0.3,0.6c0.3,0.2,0.8,0.8,1.2,1.2
									c0,0.1,0.3,0.4,0.2,0.5c0.6,0.6,1,1.4,1.3,2.2c0.1,0.4,0.2,0.9,0.4,1.3c0.1,0.4,0.1,0.9,0.1,1.3l0,0
									c0.1,0.2,0.3,0.4,0.4,0.7c0,0,0,0,0,0c0,0.3-0.1,0.6,0,0.9c0,0,0,0,0-0.1c0.1,0.3-0.1,0.6,0,1l0,0c0,0,0,0.2,0,0.2
									c0,0-0.1,0-0.1-0.1c-0.2,2.6-1,5.4-2.9,7.4l0-0.1l-0.3,0.4c0,0,0,0,0-0.1c-0.2,0.2-0.5,0.5-0.8,0.7
									c-0.2,0.2-0.5,0.5-0.8,0.7c0,0,0-0.1,0-0.1c-0.3,0.4-0.7,0.4-0.8,0.7c0,0-0.1,0,0-0.1c-1.1,0.8-2.4,1.4-3.7,1.8
									c-0.5,0.3-1.1,0.4-1.7,0.5c-0.6,0.1-1.2,0-1.8,0l0,0c-1.6-0.1-3.1-0.9-4.5-1.6c-0.6-0.3-1-0.5-1.6-0.9l0-0.1
									c-1.1-0.4-1.8-1.5-2.8-2.2l0.1,0c-0.2-0.1-0.5-0.6-0.5-0.4l-0.1-0.2c-0.4-0.2-0.6-0.5-0.8-0.9c-0.2-0.3-0.4-0.7-0.7-1.1
									l0.1,0c-0.2-0.2-0.3-0.5-0.4-0.6c0,0,0,0,0.1,0.1c-0.1-0.4-0.4-0.8-0.5-1.2c-0.2-0.4-0.5-0.8-0.6-1.2l0.1,0.1
									c-0.2-0.4-0.4-1.1-0.5-1.7l0,0l-0.1-0.3l0.1,0C317.6,529.8,317.4,529.2,317.4,528.4z"/>
								<path fill="#FFFFFF" d="M318.6,521.4L318.6,521.4C318.6,521.4,318.6,521.4,318.6,521.4z"/>
								<path fill="#FFFFFF" d="M328,516.1C328,516.1,328,516.1,328,516.1C328,516.1,328,516.1,328,516.1z"/>
							</g>
						</g>
					</g>
				</g>
			</g>
			<path d="M334.4,518.9c0,0-0.6,6.1,2.2,9.6c2.8,3.4,6.1,5.2,6.1,5.2s1.4-7.9-1.7-11.1C337.8,519.3,334.4,518.9,334.4,518.9z"/>
			<path opacity="0.35" d="M333.4,518.5c0,0-0.4,7.7,2.3,11c2.7,3.2,6.2,5.1,6.2,5.1s-2.5,5.1-5.8,5c-3.3-0.1-11.5-5.1-10.9-12.3
				C325.9,520,333.4,518.5,333.4,518.5z"/>
			<path opacity="0.15" d="M326.4,532.3c0,0-8.1-0.8-8.2-6.1c-0.1-5.4,4.4-10.2,7.8-10.5c3.3-0.3,9.4,2.5,9.4,2.5s-6.5,0.2-8.4,5.3
				C325,528.4,326.4,532.3,326.4,532.3z"/>
			<path opacity="0.25" fill="#FFFFFF" d="M324.8,540.7c0,0,1,1.9,2.7,2.4c1.7,0.4,4.2-0.3,4.2-0.3s-2-0.3-3.4-0.9
				C326.9,541.3,324.8,540.7,324.8,540.7z"/>
			<path opacity="0.25" fill="#FFFFFF" d="M342.7,535.2c0,0,1.8-2.3,1.8-3.2c0-1-1.3-5.2-1.3-5.2s0.3,2.3,0.1,4.3
				C343.1,533.1,342.7,535.2,342.7,535.2z"/>
		</g>
	</g>
	<g opacity="0.5">
		<path fill="#AFB1AF" d="M178.7,480.1c0,0-51.8,12.2-53,13.4c-1.2,1.2,1,3.2,37.8,5.1c36.8,2,78.5,1.2,78.5,1.2l-2-1.4
			c0,0-32.7,0.2-44.3,0c-11.6-0.2-70.6-2.8-65.6-5C134.5,491.6,178.7,480.1,178.7,480.1z"/>
	</g>
	<path stroke="#AFB1AF" d="M486.9,851.2c0,0,5.7-1.9,7.8-2.6c2.1-0.6,12.6-3,15.6-2.9c3,0.1,6.8,0.7,8.4,1c1.6,0.3,5.7-0.4,5.7-0.4
		v-2.9l-9.7-5.4c0,0,3.4-0.1,4.3-0.5c0.9-0.4,2.1-1,2.7-0.9c0.6,0.1,3.4,1.6,3.8,2.7c0.4,1.2,1.9,4.5,1.2,6.1
		c-1,1.9-4.4,5.6-6.5,6.9c-2.1,1.3-10.7,2.9-15.8,3.3c-5.1,0.4-9.3,0.1-11.2-0.6C488.9,853.4,486.9,851.2,486.9,851.2z"/>
	<g>
		<g>
			<g>
				<path fill="#004D86" d="M367.7,569.2C367.7,569.2,367.7,569.2,367.7,569.2l-28.7,0c-8.8,0-15.9-7-15.9-15.6
					c0-4.1,1.6-8,4.6-10.9c3-3,7.1-4.7,11.4-4.7c0,0,0,0,0,0l28.7,0c8.8,0,15.9,7,15.9,15.6C383.6,562.2,376.5,569.2,367.7,569.2z
					 M339,540.2c-3.7,0-7.1,1.4-9.7,4c-2.5,2.5-3.9,5.8-3.9,9.3c0,7.3,6.1,13.3,13.6,13.3l28.7,0c0,0,0,0,0,0
					c7.5,0,13.6-6,13.6-13.3c0-7.3-6.1-13.3-13.6-13.3L339,540.2C339,540.2,339,540.2,339,540.2z"/>
			</g>
		</g>
		<g>
			<polygon fill="#004D86" points="361.7,552.2 371.1,543 361.7,543 			"/>
		</g>
		<g>
			<polygon fill="#004D86" points="361.7,554.9 371.1,564.1 361.7,564.1 			"/>
		</g>
		<g>
			<rect x="352" y="543" fill="#004D86" width="7.8" height="21.1"/>
		</g>
		<g>
			<path fill="#004D86" d="M328.8,553.5c0-5.6,4.4-10.2,10.1-10.5l0,21.1C333.2,563.7,328.8,559.1,328.8,553.5L328.8,553.5z
				 M350,552.1l-9.4-9.2l9.4,0L350,552.1z M350,554.9l-9.4,9.2l9.4,0L350,554.9z"/>
		</g>
	</g>
	<g>
	</g>
</g>
</svg>
