<?xml version="1.0" encoding="utf-8"?>
<!-- Generator: Adobe Illustrator 26.0.2, SVG Export Plug-In . SVG Version: 6.00 Build 0)  -->
<svg version="1.1" xmlns="http://www.w3.org/2000/svg" xmlns:xlink="http://www.w3.org/1999/xlink" x="0px" y="0px"
	 viewBox="0 0 615.8 992.2" enable-background="new 0 0 745.8 992.2" xml:space="preserve">

<g id="OUTLINE">
	<g>
		<path fill="#C8C5C3" stroke="#A39E9B" stroke-miterlimit="10" d="M704.3,604.4c-0.9-6.6-10.9-104.8-11.8-112.1
			c-0.9-7.2-9.5-58.4-10-62.6c-0.6-4.2-9.5-30.7-14.2-47c-4.7-16.3-18.6-62.8-20.3-69.7c-1.7-6.9-4.4-21.8-4.8-24.4
			c-0.3-2.6-1-11.9-1.1-13.7c-0.2-1.8-2.6-10.4-2.6-10.4s-0.6-4.4-1.6-9.6c-1-5.3-1.4-11.7-1.4-11.7s0.2-3,0.2-5.7
			c0-2.7-1.4-6.4-1.4-6.4s0-3.6-0.5-8.5c-0.4-4-2.1-7-2.7-8l-7.7-28.7c-0.1-1.1,0.8-24.5,0.6-24.9c0,0,0-0.1,0-0.1l-1.9-14
			c0,0,0,0.2-0.1,0.6c0-1.7,0-3.3,0.1-4.2c-0.1,0.1-0.2,0.2-0.2,0.3c0-0.2,0.1-0.4,0.1-0.6c0-25-115-45.3-256.8-45.3
			c-133.2,0-242.7,17.9-255.5,40.8c-0.2-0.1-0.2-0.1-0.2-0.1s1.2,4.7,1.2,10.4c0,5.7-2.4,8.7-3,11.7c-0.6,3,1.2,9,1.2,10.8
			c0,1.8-1.2,4.5-1.5,6c-0.3,1.5,0.3,3.9,0.3,5.7s-0.9,8.1-1.8,9.9c-0.9,1.8-3.8,13.9-4.7,19c-0.9,5.1-3.5,26.2-4.1,29.5
			c-0.6,3.3-1.5,22-2.4,25.6c-0.9,3.6-8.6,26.2-8.9,28.9c-0.3,2.7-6.5,23.5-7.1,25.3c-0.6,1.8-17.7,122.9-21,142.5
			c-3.3,19.6-11.2,87.4-13.9,100.3c-2.7,13-5.9,54.2-6.2,73.2c-0.3,19,4.1,82.5,4.1,85.5c0,3,4.1,40.4,4.4,42.5
			c0.3,2.1,1.5,11.1,1.5,12c0,0.4,3.2,60.4,3.4,62.1c0.3,3,4.7,30.7,4.7,30.7s0,4.2,0.9,6.3c0.9,2.1,2.7,3.6,5.3,4.5
			c1.3,0.4,4.8,1.4,11.5,2.7c7.1,1.3,17.7,3,33.4,4.9c0.4,0,0.8,0.1,1.2,0.1c22.1,2.6,47.1,4.7,69.1,4.2c3.9-0.1,7.8-0.3,11.5-0.5
			c4-0.3,7.9-0.7,11.5-1.2c0.2,0,0.3,0,0.5-0.1c3.6-0.5,7.3-1.1,11-1.6c8.1-1.2,16.1-2.4,23-3.5c4.3-0.7,8.2-1.3,11.5-1.8l0,0
			c6.9-1.1,11.3-1.8,11.3-1.8s4.7,0.3,7.1,0c1.2-0.1,2.2-0.9,3.1-1.7l25.2-10.4c0.9-6.1,13-79.3,13.3-80.1c1.2-2.7,0.9-6,0.9-6
			s14.2-44.8,22.8-71.9c8.6-27.1,27.5-118.1,27.5-118.1l17.4,5.4c0,0,3.8,13.6,4.1,17.8c0.3,4.2,7.7,32.8,9.2,38.9
			c1.5,6,11.8,42.8,15.4,53.3c3.5,10.5,16.8,59.1,19.7,66.3c1.4,3.4,17.3,86.8,19.4,95.3c6.8,3.4,13.3,4.9,16.3,5.4
			c0,0.2,0,0.4,0,0.5c0.5,0,0.8,0.1,0.8,0.1s6.3,1.2,16.8,3c1,0.2,2.1,0.4,3.2,0.5h0c2.6,0.4,5.4,0.9,8.4,1.4
			c3.6,0.6,7.4,1.2,11.5,1.8c12.2,1.8,26.3,3.8,41.2,5.6c5.4,0.6,10.9,1,16.4,1.1c16,0.4,32-1,46.1-2.8c20.6-2.7,37.3-6.4,43.9-6.9
			c8.4-0.6,18.3-2,25.2-3.1c3.5-0.6,6.3-1.1,7.6-1.4c1.9-0.4,3.1-1.3,3.9-2.2c0.9-0.9,1.4-2,2-2.9c0.2-0.3,0.4-1,0.6-2
			c0.5-2.7,0.9-7.6,1.2-11.5c0.2-3.1,0.3-5.6,0.3-6.1c0-1.2,0-5.1,0-5.1s0-0.1-0.1-0.3c-0.2-0.7-0.8-2.4-0.8-3.3
			c0-1.2,2.1-2.4,3-3.9c0.9-1.5-0.6-4.8-0.6-4.8s-0.6-4.2-0.6-5.4c0-0.6,0.2-2.9,0.4-5.5c0.2-2.7,0.5-5.6,0.5-6.9
			c0-0.5,0.1-2.2,0.3-4.6c0.3-4.5,2.7-31.9,2.9-33.3c0.6-3.3,4.7-34.6,6.5-45.2c1.8-10.5,3.5-43.7,4.4-66.6
			C705.5,643.8,705.2,611,704.3,604.4z M624.9,180.8c0,0.3,0,0.5-0.1,0.7c0,0,0,0,0,0c0,0,0,0,0,0
			C624.9,181.4,624.9,181.2,624.9,180.8z M113.1,139.7c0-0.2,0.2-0.5,0.4-0.9c0.1,0,0.2,0.1,0.2,0.1c-0.2,0.4-0.4,0.7-0.4,0.9
			C113.2,139.8,113.2,139.8,113.1,139.7z"/>
	</g>
</g>
<g id="CAMO3">
	<g>
		<path fill="#FFFFFF" d="M155,823.3h11.5v11.5h11.5v11.5h11.5h11.5v-11.5h-11.5v-11.5v-11.5h11.5v-2.1c-4.4,0.3-8.7,0.6-13.1,0.8
			c-11.5,0.7-22.5,1.1-33,1.2v0.1V823.3z"/>
		<path fill="#FFFFFF" d="M178.1,892.2v0.6c3.9-0.1,7.8-0.3,11.5-0.5v-0.1H178.1z"/>
		<rect x="166.5" y="880.7" fill="#FFFFFF" width="11.5" height="11.5"/>
		<path fill="#FFFFFF" d="M235.7,880.7v5.2c4.3-0.7,8.2-1.3,11.5-1.8v-3.4H235.7z"/>
		<path fill="#FFFFFF" d="M212.6,889.4v-8.7h-11.5v10.4c0.2,0,0.3,0,0.5-0.1C205.2,890.5,208.9,889.9,212.6,889.4z"/>
		<path fill="#FFFFFF" d="M477.2,880.7h3.2c-1.1-0.2-2.2-0.4-3.2-0.5V880.7z"/>
		<path fill="#FFFFFF" d="M673.1,877.7v-8.5v-11.5h11.5v-11.5h3.9c-0.2-0.7-0.8-2.4-0.8-3.3c0-1.2,2.1-2.4,3-3.9
			c0.9-1.5-0.6-4.8-0.6-4.8s-0.6-4.2-0.6-5.4c0-0.6,0.2-2.9,0.4-5.5h-5.4v-11.5h6.1c0.3-4.5,0.8-11.5,1.3-17.9
			c-5.6,1.4-11.9,2.8-18.9,4.1v2.3v11.5h-11.5v-11.5v-0.2c-15.8,2.6-34.4,4.9-56,6.3c-33,2.1-71.1,0.5-105.3-2.3v7.6h11.5v11.5h11.5
			h11.5h11.5h11.5h11.5v11.5h11.5h11.5H604v11.5v11.5h11.5H627v11.5h-11.5v11.5H604v7c20.6-2.7,37.3-6.4,43.9-6.9
			C656.3,880.3,666.2,878.9,673.1,877.7z M638.5,834.7h11.5v11.5h-11.5V834.7z"/>
		<path fill="#FFFFFF" d="M500.3,823.3v-11.5h-11.5v-8.6c-12.4-1.1-24.1-2.4-34.6-3.6v0.7v9.8c0.7,5.8,1.7,10.4,2,14.1
			c0,0.2,0,0.4,0,0.6c0,0.6,0,1.2,0,1.7c0,0.2,0,0.4,0,0.6c-0.1,0.7-0.2,1.4-0.4,2c-1.7,5.4-2.1,9.1-0.4,14.1
			c0.2,0.6,0.3,1.1,0.5,1.6c0.1,0.5,0.2,0.9,0.3,1.4c0,0,0,0,0,0h9.6v11.5v11.5h11.5v11c1,0.2,2.1,0.4,3.2,0.5h8.4v1.4
			c3.6,0.6,7.4,1.2,11.5,1.8v-3.2h11.5v-11.5v-11.5v-11.5v-11.5v-11.5H500.3z M477.2,823.3h-11.5v-11.5h11.5V823.3z"/>
		<path fill="#FFFFFF" d="M456.2,824.2c0,0.2,0,0.4,0,0.6C456.2,824.6,456.2,824.4,456.2,824.2z"/>
		<path fill="#FFFFFF" d="M456.2,846.2c-0.1-0.4-0.2-0.9-0.3-1.4C456,845.3,456.1,845.8,456.2,846.2z"/>
		<path fill="#FFFFFF" d="M456.2,826.5c0,0.2,0,0.4,0,0.6C456.2,827,456.2,826.7,456.2,826.5z"/>
	</g>
</g>
<g id="CAMO2">
	<g>
		<polygon points="212.6,811.8 212.6,823.3 224.1,823.3 235.7,823.3 235.7,811.8 224.1,811.8 		"/>
		<polygon points="189.6,823.3 189.6,834.7 201.1,834.7 201.1,846.2 212.6,846.2 212.6,834.7 212.6,823.3 201.1,823.3 		"/>
		<rect x="224.1" y="834.7" width="11.5" height="11.5"/>
		<path d="M201.1,869.2v-11.5v-11.5h-11.5h-11.5v-11.5h-11.5H155v-11.5h-11.5H132v-11.5h-11.5v-0.9c-3.9-0.2-7.8-0.4-11.5-0.7v1.6
			H97.4v11.5h11.5h11.5v11.5H132h11.5v11.5H155v11.5h-11.5v11.5H155v11.5h11.5h11.5v11.5h11.5v0.1c4-0.3,7.9-0.7,11.5-1.2v-10.4
			V869.2z"/>
		<path d="M247.2,811.8v-5.3c-3.8,0.3-7.7,0.6-11.5,0.8v4.5H247.2z"/>
		<path d="M235.7,869.2h-11.5v11.5h-11.5v8.7c8.1-1.2,16.1-2.4,23-3.5v-5.2V869.2z"/>
		<path d="M62.9,811.8v11.5h11.5h11.5v-11.5h11.5v-2.6c-18.3-1.8-33.7-4.2-46.1-6.7v9.3H62.9z"/>
		<path d="M569.4,880.7v-11.5h11.5v-11.5h-11.5h-11.5v-11.5h-11.5h-11.5v-11.5h-11.5v11.5h-11.5v11.5h11.5v11.5v11.5h-11.5h-11.5
			v3.2c12.2,1.8,26.3,3.8,41.2,5.6c5.4,0.6,10.9,1,16.4,1.1v-9.9H569.4z"/>
		<path d="M108.9,888.6v-7.9H97.4v-11.5v-11.5H85.9v11.5H74.4v11.5v2.9c7.1,1.3,17.7,3,33.4,4.9
			C108.2,888.5,108.6,888.5,108.9,888.6z"/>
		<path d="M270.2,834.7v11.5h2c0.5-3.8,1-7.6,1.5-11.5H270.2z"/>
		<path d="M270.2,804.7v7.1v11.5h5.2c1-6.5,2.1-12.9,3.3-19.2C275.9,804.3,273.1,804.5,270.2,804.7z"/>
		<path d="M465.7,857.7h-10c0.2,1,0.7,2.1,1.8,3.7c1.7,2.8,2.6,4.4,2.6,7.7h5.7V857.7z"/>
		<rect x="534.8" y="823.3" width="11.5" height="11.5"/>
		<rect x="638.5" y="834.7" width="11.5" height="11.5"/>
		<path d="M661.6,811.8h11.5v-11.5V798c-3.7,0.7-7.5,1.4-11.5,2.1v0.2V811.8z"/>
		<rect x="465.7" y="811.8" width="11.5" height="11.5"/>
		<rect x="500.3" y="811.8" width="11.5" height="11.5"/>
		<path d="M684.6,823.3h5.4c0.2-2.7,0.5-5.6,0.5-6.9c0-0.5,0.1-2.2,0.3-4.6h-6.1V823.3z"/>
		<rect x="604" y="869.2" width="11.5" height="11.5"/>
		<path d="M684.6,857.7h-11.5v11.5v8.5c3.5-0.6,6.3-1.1,7.6-1.4c1.9-0.4,3.1-1.3,3.9-2.2v-4.9h2.5c0.5-2.7,0.9-7.6,1.2-11.5H684.6z"
			/>
		<rect x="615.5" y="857.7" width="11.5" height="11.5"/>
		<path d="M500.3,811.8v-7.6c-3.9-0.3-7.7-0.6-11.5-1v8.6H500.3z"/>
	</g>
</g>
<g id="CAMO1">
	<g>
		<rect x="258.7" y="811.8" fill="#64625F" width="11.5" height="11.5"/>
		<path fill="#64625F" d="M108.9,811.8v-1.6c-4-0.3-7.8-0.6-11.5-1v2.6H108.9z"/>
		<g>
			<path fill="#64625F" d="M604,869.2h11.5v-11.5H604v-11.5v-11.5h-11.5h-11.5h-11.5v-11.5h-11.5h-11.5v11.5h-11.5v11.5h11.5h11.5
				v11.5h11.5h11.5v11.5h-11.5v11.5h-11.5v9.9c16,0.4,32-1,46.1-2.8v-7V869.2z"/>
		</g>
		<g>
			<path fill="#64625F" d="M166.5,892.2v-11.5H155v-11.5h-11.5v-11.5H155v-11.5h-11.5v-11.5H132h-11.5v-11.5h-11.5H97.4v-11.5H85.9
				v11.5H74.4H62.9v-11.5H51.3v-9.3c-0.5-0.1-1-0.2-1.4-0.3c0.8,16.5,1.9,35.5,2,37.2c0.3,3,4.7,30.7,4.7,30.7s0,4.2,0.9,6.3
				c0.9,2.1,2.7,3.6,5.3,4.5c1.3,0.4,4.8,1.4,11.5,2.7v-2.9v-11.5h11.5v-11.5h11.5v11.5v11.5h11.5v7.9c22.1,2.6,47.1,4.7,69.1,4.2
				v-0.6H166.5z"/>
		</g>
		<path fill="#64625F" d="M189.6,811.8v11.5h11.5h11.5v-11.5v-2.9c-3.8,0.3-7.7,0.5-11.5,0.8v2.1H189.6z"/>
		<path fill="#64625F" d="M270.2,823.3v11.5h3.5c0.5-3.8,1.1-7.6,1.7-11.5H270.2z"/>
		<path fill="#64625F" d="M270.2,846.2v11.5v6.3c0.6-5.5,1.2-11.5,2-17.7H270.2z"/>
		<g>
			<path fill="#64625F" d="M465.7,846.2h-9.6c0.5,3.1,0,5.2-0.3,7.8c-0.2,1.6-0.3,2.7-0.1,3.7h10V846.2z"/>
		</g>
		<polygon fill="#64625F" points="511.8,823.3 511.8,834.7 511.8,846.2 523.3,846.2 523.3,834.7 534.8,834.7 534.8,823.3 
			523.3,823.3 		"/>
		<path fill="#64625F" d="M688.7,846.5c0,0,0-0.1-0.1-0.3h-3.9v11.5h3.7c0.2-3.1,0.3-5.6,0.3-6.1
			C688.7,850.4,688.7,846.5,688.7,846.5z"/>
		<rect x="155" y="823.3" fill="#64625F" width="11.5" height="11.5"/>
		<path fill="#64625F" d="M132,811.8v11.5h11.5H155v-11.5v-0.1c-12.3,0.1-23.8-0.2-34.6-0.8v0.9H132z"/>
		<path fill="#64625F" d="M224.1,811.8h11.5v-4.5c-7.6,0.5-15.3,1.1-23,1.6v2.9H224.1z"/>
		<path fill="#64625F" d="M270.2,857.7v-11.5v-11.5v-11.5h-11.5v-11.5h11.5v-7.1c-7.5,0.6-15.2,1.2-23,1.7v5.3h-11.5v11.5h-11.5
			h-11.5v11.5v11.5h-11.5v11.5v11.5v11.5h11.5h11.5v-11.5h11.5v11.5h11.5v3.4c6.9-1.1,11.3-1.8,11.3-1.8s4.7,0.3,7.1,0
			c1.2-0.1,2.2-0.9,3.1-1.7c0.4-4.7,0.9-10.4,1.6-16.6V857.7z M235.7,846.2h-11.5v-11.5h11.5V846.2z"/>
		<path fill="#64625F" d="M270,879c0,0,0.1,0,0.2-0.1v-9.8V864c-0.6,6.2-1.2,11.9-1.6,16.6C269.5,879.8,270,879,270,879z"/>
		<path fill="#64625F" d="M480.4,880.7c2.6,0.4,5.4,0.9,8.4,1.4v-1.4H480.4z"/>
		<polygon fill="#64625F" points="511.8,869.2 511.8,880.7 523.3,880.7 523.3,869.2 523.3,857.7 511.8,857.7 		"/>
		<path fill="#64625F" d="M686.6,871.2c0.2-0.3,0.4-1,0.6-2h-2.5v4.9C685.5,873.2,686,872.1,686.6,871.2z"/>
		<path fill="#64625F" d="M452.8,875.7c0.8,0.4,1.4,0.6,1.9,0.7c-0.4-0.3-0.7-0.6-0.9-0.6C453.5,875.8,453.2,875.8,452.8,875.7z"/>
		<path fill="#64625F" d="M465.7,869.2H460c0,0.7,0,1.4-0.1,2.2c-0.1,1-0.1,3.3-0.2,5.7c0.5,0,0.8,0.1,0.8,0.1s6.3,1.2,16.8,3v-11
			H465.7z"/>
	</g>
</g>
	<g id="FRONT_BODY">
<g id="SHORT_BODY">
	<g>
		<g>
			<path fill="#FFFFFF" d="M700.1,733.3c1.8-10.5,3.5-43.7,4.4-66.6c0.9-22.9,0.6-55.7-0.3-62.4c-0.9-6.6-10.9-104.8-11.8-112.1
				c-0.9-7.2-9.5-58.4-10-62.6c-0.6-4.2-9.5-30.7-14.2-47c-4.7-16.3-18.6-62.8-20.3-69.7c-1.7-6.9-4.4-21.8-4.8-24.4
				c-0.3-2.6-1-11.9-1.1-13.7c-0.2-1.8-2.6-10.4-2.6-10.4s-0.6-4.4-1.6-9.6c-1-5.3-1.4-11.7-1.4-11.7s0.2-3,0.2-5.7
				c0-2.7-1.4-6.4-1.4-6.4s0-3.6-0.5-8.5c-0.5-4.9-2.9-8.3-2.9-8.3l-5.2-20.6c0,0-0.3-0.5-1.2-3.1c-1-2.6-0.6-8.4-0.5-9
				c0.1-0.6,0.3-6.1,0.3-7.9c0-1.8,0.3-11-0.3-12.6c-0.6-1.6-1.2-5.6-1.7-8.3c-0.4-2.3-0.4-7.6-0.2-9.5c-9,11.1-53.6,39-274.7,42
				c-125.2,1.7-196-23.1-234.6-46.3c-0.3,0.4-0.4,0.7-0.4,0.9c-1.9-1-3-1.6-3-1.6s1.2,4.7,1.2,10.4c0,5.7-2.4,8.7-3,11.7
				c-0.6,3,1.2,9,1.2,10.8c0,1.8-1.2,4.5-1.5,6c-0.3,1.5,0.3,3.9,0.3,5.7c0,1.8-0.9,8.1-1.8,9.9c-0.9,1.8-3.8,13.9-4.7,19
				c-0.9,5.1-3.5,26.2-4.1,29.5c-0.6,3.3-1.5,22-2.4,25.6c-0.9,3.6-8.6,26.2-8.9,28.9c-0.3,2.7-6.5,23.5-7.1,25.3
				c-0.6,1.8-17.7,122.9-21,142.5c-3.3,19.6-11.2,87.4-13.9,100.3c-2.7,13-5.9,54.2-6.2,73.2c-0.3,19,4.1,82.5,4.1,85.5
				c0,3,4.1,40.4,4.4,42.5c0.3,2.1,1.5,11.1,1.5,12c0,0.4,0.6,11.8,1.2,24.7c29.3,6,76.3,12.1,138.1,8.3c31.3-1.9,59.5-3.7,88.1-5.9
				c4.9-0.4-9.1,59-7.3,76.3l25.2-10.4c0.9-6.1,13-79.3,13.3-80.1c1.2-2.7,0.9-6,0.9-6s14.2-44.8,22.8-71.9
				c8.6-27.1,27.5-118.1,27.5-118.1l17.4,5.4c0,0,3.8,13.6,4.1,17.8c0.3,4.2,7.7,32.8,9.2,38.9c1.5,6,11.8,42.8,15.4,53.3
				c3.5,10.5,16.8,59.1,19.7,66.3c1.4,3.4,17.3,86.8,19.4,95.3c9.4,4.6,18,5.7,18,5.7c1-21.1-7.3-76.5-7.3-76.5
				c41.7,5.1,99,9.3,151.6,5.9c37.7-2.4,66.3-7.6,86.4-12.6c0.6-7.2,1.1-13.8,1.4-15.2C694.2,775.2,698.3,743.8,700.1,733.3z
				 M606.2,155.9c-1.4,0.8-3.7,1.9-7.4,3.3C601.5,158.1,604,157,606.2,155.9C606.2,155.9,606.2,155.9,606.2,155.9z"/>
		</g>
	</g>
	<!--<path fill="none" d="M268.7,893.4c0,0,4.6-70,16.1-113.4c11.6-43.5,31.1-122.1,37.7-142c6.6-19.9,14.1-51.3,25.7-56.3
		c11.6-5,21.5-7.9,30.2-2.1c8.7,5.8,20.7,20.7,24.8,32.3c4.1,11.6,31.9,106.8,35.6,123c3.7,16.1,11.2,48,13.7,61.3
		c2.5,13.2,6.2,25.3,4.6,30.6s-2.1,9.1-0.4,14.1c1.7,5,0.8,7.5,0.4,10.8c-0.4,3.3-0.4,4.1,1.7,7.5c2.1,3.3,2.9,5,2.5,9.9
		c-0.4,5-3.7,19.9-3.7,19.9"/>-->
</g>
		</g>
	<g id="CUSTOM"></g>
<g id="SHORT_STITCHING">
	<g>
		<path d="M320.8,201.6l-6.7,0v1.7h0.8l5.9,0L320.8,201.6 M304,201.6l0,1.7c2.2,0,4.4,0,6.7,0l0-1.7
			C308.5,201.6,306.2,201.6,304,201.6 M330.8,201.6c-2.2,0-4.5,0-6.7,0l0,1.7c2.2,0,4.5,0,6.7,0L330.8,201.6 M294,201.5l0,1.7
			c2.2,0,4.4,0.1,6.7,0.1l0-1.7C298.4,201.6,296.2,201.5,294,201.5 M340.8,201.5l-6.7,0.1l0,1.7l6.7-0.1L340.8,201.5 M350.9,201.3
			l-6.7,0.1l0,1.7l6.7-0.1L350.9,201.3 M284,201.3l0,1.7c2.2,0.1,4.4,0.1,6.7,0.1l0-1.7C288.4,201.4,286.1,201.4,284,201.3
			 M360.9,201.1l-6.7,0.1l0,1.7l6.7-0.1L360.9,201.1 M273.9,201l-0.1,1.7c2.2,0.1,4.4,0.2,6.7,0.2l0-1.7
			C278.3,201.1,276.1,201.1,273.9,201 M371,200.9l-6.7,0.2l0,1.7l6.7-0.2L371,200.9 M381,200.6c-2.2,0.1-4.5,0.1-6.7,0.2l0,1.7
			c2.2-0.1,4.5-0.1,6.7-0.2L381,200.6 M263.9,200.5l-0.1,1.7c2.2,0.1,4.4,0.2,6.7,0.3l0.1-1.7C268.3,200.8,266.1,200.7,263.9,200.5
			 M391.1,200.3l-6.7,0.2l0,1.7l6.7-0.2L391.1,200.3 M401.1,200c-2.2,0.1-4.4,0.2-6.7,0.2l0.1,1.7c2.3-0.1,4.5-0.1,6.7-0.2
			L401.1,200 M253.9,199.9l-0.1,1.7c2.1,0.2,4.4,0.3,6.7,0.5l0.1-1.7C258.2,200.2,256,200.1,253.9,199.9 M411.2,199.6l-6.7,0.2
			l0.1,1.7l6.7-0.2L411.2,199.6 M421.2,199.2c-2.3,0.1-4.5,0.2-6.7,0.3l0.1,1.7c2.2-0.1,4.4-0.2,6.7-0.3L421.2,199.2 M243.9,198.9
			l-0.2,1.7c2.1,0.2,4.3,0.5,6.7,0.7l0.1-1.7C248.2,199.4,246,199.2,243.9,198.9 M431.2,198.8c-2.2,0.1-4.5,0.2-6.7,0.3l0.1,1.7
			c2.2-0.1,4.4-0.2,6.7-0.3L431.2,198.8 M441.3,198.3l-6.7,0.3l0.1,1.7l6.7-0.3L441.3,198.3 M451.3,197.7l-6.7,0.4l0.1,1.7l6.7-0.4
			L451.3,197.7 M234,197.5l-0.3,1.7c2.3,0.4,4.5,0.7,6.6,1l0.2-1.7C238.5,198.2,236.3,197.9,234,197.5 M461.3,197.1l-6.7,0.4
			l0.1,1.7l6.7-0.4L461.3,197.1 M471.4,196.5l-6.7,0.4l0.1,1.7l6.7-0.4L471.4,196.5 M481.4,195.9l-6.7,0.4l0.1,1.7l6.7-0.4
			L481.4,195.9 M224.1,195.7l-0.3,1.6c2.2,0.4,4.4,0.9,6.6,1.2l0.3-1.7C228.6,196.6,226.4,196.2,224.1,195.7 M491.4,195.2l-6.7,0.5
			l0.1,1.7l6.7-0.5L491.4,195.2 M501.5,194.5l-6.7,0.5l0.1,1.7l6.7-0.5L501.5,194.5 M511.5,193.7l-6.7,0.5l0.1,1.7l6.7-0.5
			L511.5,193.7 M214.3,193.6l-0.4,1.6c2.2,0.5,4.4,1,6.6,1.4l0.3-1.6C218.7,194.6,216.5,194.1,214.3,193.6 M521.5,193l-6.7,0.5
			l0.1,1.7l6.7-0.5L521.5,193 M531.5,192.2l-6.7,0.5l0.1,1.7l6.7-0.5L531.5,192.2 M541.6,191.4l-6.7,0.5l0.1,1.7l6.7-0.5
			L541.6,191.4 M204.5,191.4l-0.4,1.6c2.2,0.5,4.4,1.1,6.5,1.6l0.4-1.6C208.9,192.4,206.7,191.9,204.5,191.4 M551.6,190.6l-6.7,0.5
			l0.1,1.7l6.7-0.5L551.6,190.6 M561.7,189.9c-2.1,0.1-4,0.3-5.7,0.4l-1,0.1l0.1,1.7l1-0.1c1.7-0.1,3.6-0.3,5.7-0.4L561.7,189.9
			 M571.7,189.1c-2.1,0.2-4.4,0.3-6.7,0.5l0.1,1.7c2.3-0.2,4.6-0.3,6.7-0.5L571.7,189.1 M194.8,188.9l-0.4,1.6
			c2.2,0.6,4.3,1.1,6.5,1.7l0.4-1.6C199.1,190,197,189.5,194.8,188.9 M581.5,187.9l-0.9,0.2c-0.8,0.2-2.6,0.4-5.6,0.7l0.2,1.7
			c3.1-0.3,5-0.5,5.8-0.7l1-0.2L581.5,187.9 M185.1,186.3l-0.5,1.6c2.1,0.6,4.3,1.2,6.5,1.8l0.4-1.6
			C189.4,187.4,187.2,186.9,185.1,186.3 M591.2,185.4c-2.4,0.7-4.6,1.3-6.5,1.7l0.4,1.6c1.8-0.5,4.1-1.1,6.5-1.7L591.2,185.4
			 M175.5,183.5l-0.5,1.6c2.1,0.6,4.3,1.2,6.4,1.9l0.5-1.6C179.7,184.7,177.6,184.1,175.5,183.5 M600.8,182.4
			c-1.8,0.7-4,1.4-6.3,2.1l0.5,1.6c2.4-0.7,4.5-1.4,6.4-2.1L600.8,182.4 M165.9,180.6l-0.5,1.6c2.1,0.6,4.2,1.3,6.4,2l0.5-1.6
			C170.1,181.9,167.9,181.2,165.9,180.6 M609.5,178.2c-1.1,0.9-3,1.9-5.7,3l0.6,1.5c2.8-1.2,4.8-2.2,6.1-3.3l-0.6-0.6l0.4,0.7
			L609.5,178.2 M156.3,177.5l-0.5,1.6c2,0.7,4.1,1.4,6.4,2.1l0.5-1.6C160.4,178.8,158.3,178.1,156.3,177.5 M146.8,174.1l-0.6,1.6
			c1.9,0.7,4,1.4,6.3,2.3l0.5-1.6C150.8,175.6,148.7,174.8,146.8,174.1 M616.8,171.5c-1.1,1.3-2.6,2.7-4.7,4.6l1.1,1.3
			c2.2-1.9,3.8-3.4,4.9-4.8L616.8,171.5 M137.6,170.3l-0.7,1.5c1.2,0.6,2.4,1.1,3.6,1.6c0.8,0.3,1.6,0.7,2.6,1.1l0.6-1.6
			c-1-0.4-1.8-0.7-2.6-1.1C140,171.4,138.8,170.9,137.6,170.3 M128.8,165.6L128,167c2.1,1.2,4,2.3,5.9,3.3l0.8-1.5
			C132.8,167.9,130.9,166.8,128.8,165.6 M620.6,162.8l-0.3,1.6c-0.1,0.3-0.8,2.7-1.7,4.5l1.5,0.8c0,0,1.6-3.4,1.8-4.9l0.1,0l0.3-1.7
			L620.6,162.8 M120.3,160.4l-0.9,1.4c1.7,1.1,3.7,2.3,5.7,3.6l0.9-1.4C123.9,162.7,122,161.5,120.3,160.4 M112,154.7l-1,1.4
			c0,0,2.2,1.6,5.6,3.8l0.9-1.4C114.1,156.3,112,154.7,112,154.7 M622.1,154.7l-0.9,4.8l1.6,0.3l0.9-4.8L622.1,154.7"/>
		<path d="M304.8,223.6c-2.3,0-4.5,0-6.7,0v1.7c2.2,0,4.4,0,6.7,0L304.8,223.6 M288,223.6l0,1.7c2.2,0.1,4.4,0.1,6.7,0.1l0-1.7
			C292.4,223.7,290.2,223.6,288,223.6 M314.8,223.5c-2.3,0-4.5,0.1-6.7,0.1l0,1.7c2.2,0,4.4-0.1,6.7-0.1L314.8,223.5 M324.8,223.2
			c-2.3,0.1-4.5,0.1-6.7,0.2l0,1.7c2.2-0.1,4.4-0.1,6.7-0.2L324.8,223.2 M278,223.2l-0.1,1.7c0.2,0,0.3,0,0.4,0
			c2,0.1,4.1,0.2,6.3,0.3l0.1-1.7c-2.2-0.1-4.3-0.2-6.3-0.3L278,223.2 M334.9,222.9c-2.3,0.1-4.5,0.1-6.7,0.2l0,1.7
			c2.2-0.1,4.4-0.1,6.7-0.2L334.9,222.9 M344.9,222.6c-2.2,0.1-4.5,0.2-6.7,0.2l0.1,1.7c2.2-0.1,4.5-0.2,6.7-0.2L344.9,222.6
			 M268,222.3l-0.2,1.7c2.3,0.2,4.5,0.4,6.7,0.6l0.1-1.7C272.5,222.8,270.3,222.6,268,222.3 M355,222.2l-6.7,0.3l0.1,1.7l6.7-0.3
			L355,222.2 M365,221.8l-6.7,0.3l0.1,1.7l6.7-0.3L365,221.8 M375,221.4l-6.7,0.2l0.1,1.7l6.7-0.2L375,221.4 M258.1,221.2l-0.2,1.7
			c2.3,0.3,4.5,0.6,6.7,0.8l0.2-1.7C262.5,221.7,260.3,221.5,258.1,221.2 M385.1,221.1l-6.7,0.2l0.1,1.7l6.7-0.2L385.1,221.1
			 M395.1,220.7l-6.7,0.2l0.1,1.7l6.7-0.2L395.1,220.7 M405.2,220.5l-6.7,0.2l0,1.7l6.7-0.2L405.2,220.5 M415.2,220.3
			c-2.2,0-4.5,0.1-6.7,0.1l0,1.7c2.2,0,4.5-0.1,6.7-0.1L415.2,220.3 M425.3,220.1c-2.2,0-4.5,0-6.7,0.1l0,1.7c2.3,0,4.5-0.1,6.7-0.1
			L425.3,220.1 M438.7,220.1l0,1.7l2.4,0c1.4,0,2.9,0,4.4,0v-1.7c-1.5,0-2.9,0-4.3,0L438.7,220.1 M432.9,220.1l-4.2,0l0,1.7l4.2,0
			l2.5,0l0-1.7L432.9,220.1 M455.4,220c-2.3,0.1-4.5,0.1-6.7,0.1l0,1.7c2.2,0,4.4-0.1,6.7-0.1L455.4,220 M465.5,219.7
			c-2.2,0.1-4.5,0.2-6.7,0.2l0,1.7c2.2-0.1,4.5-0.1,6.7-0.2L465.5,219.7 M248.2,219.7l-0.3,1.7c2.2,0.4,4.5,0.7,6.6,1l0.2-1.7
			C252.6,220.4,250.4,220,248.2,219.7 M475.5,219.2c-2.2,0.1-4.5,0.2-6.7,0.3l0.1,1.7c2.2-0.1,4.5-0.2,6.7-0.3L475.5,219.2
			 M485.5,218.6c-2.2,0.2-4.5,0.3-6.7,0.4l0.1,1.7c2.2-0.1,4.5-0.3,6.7-0.4L485.5,218.6 M238.3,218l-0.3,1.7
			c2.2,0.4,4.4,0.8,6.6,1.1l0.3-1.7C242.7,218.8,240.5,218.4,238.3,218 M495.5,217.8c-2.2,0.2-4.5,0.4-6.7,0.5l0.1,1.7
			c2.2-0.2,4.5-0.3,6.7-0.5L495.5,217.8 M505.6,216.9c-2.2,0.2-4.5,0.4-6.7,0.6l0.1,1.7c2.2-0.2,4.5-0.4,6.7-0.6L505.6,216.9
			 M228.4,216.2l-0.3,1.6c2.2,0.4,4.4,0.9,6.6,1.3l0.3-1.6C232.8,217,230.6,216.6,228.4,216.2 M515.5,215.9
			c-2.2,0.2-4.4,0.5-6.7,0.7l0.2,1.7c2.2-0.2,4.5-0.4,6.7-0.7L515.5,215.9 M525.5,214.8c-2.2,0.3-4.4,0.5-6.7,0.7l0.2,1.7
			c2.2-0.2,4.5-0.5,6.7-0.7L525.5,214.8 M218.6,214.1l-0.3,1.6c2.2,0.5,4.4,0.9,6.6,1.4l0.3-1.6C222.9,215,220.7,214.6,218.6,214.1
			 M535.5,213.7c-2.2,0.3-4.4,0.5-6.7,0.8l0.2,1.7c2.2-0.3,4.5-0.5,6.7-0.8L535.5,213.7 M545.5,212.4c-2.2,0.3-4.4,0.6-6.6,0.9
			l0.2,1.7c2.3-0.3,4.5-0.6,6.7-0.9L545.5,212.4 M208.8,212l-0.4,1.6c2.2,0.5,4.4,1,6.6,1.5l0.4-1.6
			C213.1,212.9,210.9,212.5,208.8,212 M555.4,211c-2.2,0.3-4.4,0.6-6.6,0.9l0.2,1.7c2.3-0.3,4.5-0.6,6.6-0.9L555.4,211 M199,209.6
			l-0.4,1.6c2.2,0.5,4.3,1,6.5,1.6l0.4-1.6C203.3,210.7,201.1,210.2,199,209.6 M565.4,209.6c-2.1,0.3-4.3,0.7-6.6,1l0.2,1.7
			c2.3-0.3,4.5-0.7,6.6-1L565.4,209.6 M575.3,208c-2.1,0.4-4.3,0.7-6.6,1.1l0.3,1.7c2.3-0.4,4.5-0.7,6.6-1.1L575.3,208 M189.2,207.2
			l-0.4,1.6c2.1,0.6,4.3,1.1,6.5,1.7l0.4-1.6C193.5,208.3,191.4,207.8,189.2,207.2 M585.2,206.2c-2,0.4-4.2,0.8-6.6,1.2l0.3,1.7
			c2.4-0.4,4.6-0.8,6.6-1.2L585.2,206.2 M179.5,204.6l-0.4,1.6c2.1,0.6,4.3,1.2,6.5,1.7l0.4-1.6
			C183.8,205.8,181.7,205.2,179.5,204.6 M594.9,204c-0.9,0.3-1.9,0.5-2.9,0.7c-1.1,0.3-2.3,0.5-3.6,0.8l0.3,1.6
			c1.4-0.3,2.6-0.5,3.7-0.8c1-0.2,2-0.5,2.9-0.7L594.9,204 M169.9,201.9l-0.5,1.6c2.1,0.6,4.2,1.2,6.5,1.9l0.5-1.6
			C174.1,203.1,172,202.5,169.9,201.9 M604.2,200.6c-2,0.9-4,1.8-6.1,2.5l0.5,1.6c2.1-0.7,4.3-1.6,6.3-2.6L604.2,200.6 M160.3,198.9
			l-0.5,1.6c2,0.7,4.2,1.3,6.4,2l0.5-1.6C164.5,200.2,162.3,199.6,160.3,198.9 M150.8,195.7l-0.6,1.6c2,0.7,4.2,1.5,6.3,2.2l0.5-1.6
			C154.9,197.1,152.8,196.4,150.8,195.7 M612.7,195.5c-1.8,1.3-3.6,2.5-5.6,3.6l0.8,1.5c2-1.1,3.9-2.3,5.7-3.7L612.7,195.5
			 M141.4,192.2l-0.6,1.6c2,0.8,4.1,1.6,6.3,2.4l0.6-1.6C145.5,193.7,143.4,192.9,141.4,192.2 M620,188.9c-1.4,1.6-3,3.1-4.7,4.5
			l1.1,1.3c1.8-1.5,3.5-3.1,4.9-4.7L620,188.9 M132.2,188.3l-0.7,1.5c1.9,0.8,4,1.7,6.2,2.6l0.6-1.6
			C136.2,190,134.1,189.2,132.2,188.3 M622.3,186.1l-0.2,0.3l1.4,1c0.2-0.2,0.3-0.4,0.3-0.4L622.3,186.1 M123.1,184.1l-0.8,1.5
			c1.8,0.9,3.8,1.9,6.1,2.9l0.7-1.5C126.9,185.9,124.9,185,123.1,184.1 M114.4,179.2l-0.9,1.4c1,0.7,2.9,1.8,5.9,3.4l0.8-1.5
			C117.2,181,115.4,179.9,114.4,179.2 M110.5,171l-1.6,0.4l0.1,0.6c0.3,1.5,1,4.3,1.8,6l1.5-0.7c-0.8-1.6-1.4-4.2-1.7-5.6L110.5,171
			"/>
		<path d="M141.7,847.2l0,1.7c1.6,0,3,0,4.4,0l2.3,0l0-1.7l-2.2,0C144.7,847.2,143.3,847.2,141.7,847.2 M131.7,847l-0.1,1.7
			c2.4,0.1,4.6,0.1,6.7,0.2l0-1.7C136.3,847.1,134.1,847,131.7,847 M158.4,846.9c-2.3,0.1-4.5,0.2-6.7,0.3l0,1.7
			c2.2-0.1,4.4-0.1,6.7-0.3L158.4,846.9 M121.6,846.6l-0.1,1.7l0.3,0c2.3,0.1,4.4,0.2,6.4,0.2l0.1-1.7c-2-0.1-4.1-0.1-6.4-0.2
			L121.6,846.6 M168.4,846.3c-2.4,0.2-4.6,0.3-6.7,0.5l0.1,1.7c2.1-0.1,4.3-0.3,6.7-0.5L168.4,846.3 M111.6,846.1l-0.1,1.7
			c2.2,0.1,4.5,0.3,6.7,0.4l0.1-1.7C116.1,846.3,113.8,846.2,111.6,846.1 M178.4,845.5l-6.7,0.5l0.1,1.7l6.7-0.5L178.4,845.5
			 M101.6,845.3l-0.2,1.7c2.2,0.2,4.4,0.4,6.7,0.6l0.1-1.7C106,845.7,103.8,845.5,101.6,845.3 M188.4,844.7l-6.7,0.5l0.1,1.7
			l6.7-0.5L188.4,844.7 M91.7,844.3l-0.2,1.7c2.2,0.2,4.4,0.5,6.7,0.7l0.2-1.7C96,844.7,93.8,844.5,91.7,844.3 M198.4,844l-6.7,0.5
			l0.1,1.7l6.7-0.5L198.4,844 M208.4,843.2l-6.7,0.5l0.1,1.7l6.7-0.5L208.4,843.2 M81.7,843.1l-0.2,1.7c2.1,0.3,4.4,0.6,6.7,0.8
			l0.2-1.7C86,843.6,83.8,843.3,81.7,843.1 M218.4,842.3c-2.1,0.2-4.4,0.4-6.7,0.6l0.1,1.7c2.3-0.2,4.5-0.4,6.7-0.6L218.4,842.3
			 M71.7,841.7l-0.2,1.7c2.1,0.3,4.3,0.6,6.6,1l0.2-1.7C76,842.3,73.8,842,71.7,841.7 M228.3,841.2c-2.1,0.3-4.3,0.5-6.6,0.8
			l0.2,1.7c2.3-0.2,4.5-0.5,6.7-0.8L228.3,841.2 M61.8,840.1l-0.3,1.7c2,0.3,4.2,0.7,6.6,1.1l0.3-1.7
			C66,840.8,63.8,840.4,61.8,840.1 M238.3,839.8c-2.1,0.3-4.3,0.7-6.6,1l0.2,1.7c2.3-0.3,4.5-0.6,6.6-1L238.3,839.8 M51.9,838.3
			l-0.3,1.6c0,0,2.4,0.5,6.6,1.2l0.3-1.7C54.3,838.8,52,838.3,51.9,838.3 M248.1,838.1c-2.1,0.4-4.3,0.8-6.6,1.2l0.3,1.7
			c2.3-0.4,4.5-0.8,6.6-1.2L248.1,838.1 M257.9,836c-2,0.5-4.2,1-6.5,1.5l0.3,1.6c2.3-0.5,4.5-1,6.6-1.5L257.9,836 M267.5,833.3
			c-2,0.6-4.2,1.3-6.4,1.8l0.4,1.6c2.2-0.6,4.4-1.2,6.5-1.9L267.5,833.3 M273,831.4c-0.8,0.3-1.6,0.6-2.4,0.8l0.5,1.6
			c0.5-0.2,1-0.4,1.6-0.6C272.9,832.6,273,832,273,831.4 M276.9,829.9c-0.7,0.3-1.4,0.6-2,0.8c-0.1,0.6-0.2,1.2-0.3,1.9
			c1-0.4,2-0.8,3-1.2L276.9,829.9 M286.2,826c-2.8,1.1-4.7,1.9-6.2,2.5l0.7,1.5c1.5-0.7,3.4-1.4,6.2-2.5L286.2,826 M295.6,822.4
			c-1.8,0.7-3.8,1.5-5.8,2.2l-0.4,0.2l0.6,1.6l0.4-0.2c2-0.8,4-1.5,5.8-2.3L295.6,822.4 M302.9,819c-0.8,0.5-2.2,1.2-4.3,2.1
			l0.7,1.5c2.2-0.9,3.7-1.7,4.6-2.3L302.9,819"/>
		<path d="M129.1,857.9l-4.8,0c-0.2,0-0.4,0-0.6,0c-0.4,0-0.8,0-1.2,0l0,1.7c0.5,0,0.9,0,1.4,0c0.2,0,0.3,0,0.5,0l4.9,0L129.1,857.9
			 M139.2,857.9c-2.2,0-4.5,0-6.7,0.1l0,1.7c2.2,0,4.5,0,6.7-0.1L139.2,857.9 M149.2,857.7c-2.2,0-4.5,0.1-6.7,0.1l0,1.7
			c2.2,0,4.5-0.1,6.7-0.1L149.2,857.7 M112.5,857.6l-0.1,1.7c2.2,0.1,4.5,0.2,6.7,0.3l0-1.7C116.9,857.8,114.7,857.8,112.5,857.6
			 M159.3,857.4c-2.2,0.1-4.5,0.1-6.7,0.2l0,1.7c2.2-0.1,4.5-0.1,6.7-0.2L159.3,857.4 M169.3,857.1c-2.2,0.1-4.5,0.2-6.7,0.3
			l0.1,1.7c2.2-0.1,4.5-0.2,6.7-0.3L169.3,857.1 M102.5,856.9l-0.2,1.7c2.2,0.2,4.4,0.4,6.7,0.5l0.1-1.7
			C106.9,857.3,104.7,857.1,102.5,856.9 M179.3,856.5c-2.2,0.1-4.5,0.2-6.7,0.4l0.1,1.7c2.2-0.1,4.5-0.2,6.7-0.4L179.3,856.5
			 M189.3,855.9c-2.2,0.2-4.5,0.3-6.7,0.5l0.1,1.7c2.2-0.1,4.5-0.3,6.7-0.5L189.3,855.9 M92.5,855.8l-0.2,1.7
			c2.2,0.3,4.4,0.6,6.7,0.8l0.2-1.7C96.9,856.4,94.7,856.1,92.5,855.8 M199.3,855.1c-2.2,0.2-4.4,0.4-6.7,0.6l0.1,1.7
			c2.2-0.2,4.5-0.4,6.7-0.6L199.3,855.1 M82.6,854.3l-0.3,1.7c2.1,0.4,4.3,0.7,6.6,1l0.2-1.7C86.9,855,84.7,854.7,82.6,854.3
			 M209.3,854c-2.2,0.2-4.4,0.5-6.7,0.7l0.2,1.7c2.2-0.2,4.5-0.5,6.7-0.7L209.3,854 M219.3,852.8c-2.2,0.3-4.4,0.6-6.6,0.8l0.2,1.7
			c2.2-0.3,4.5-0.5,6.7-0.8L219.3,852.8 M72.8,852.5l-0.3,1.6c2.1,0.4,4.3,0.9,6.6,1.3l0.3-1.7C77,853.3,74.8,852.9,72.8,852.5
			 M229.2,851.3c-2.2,0.3-4.4,0.7-6.6,1l0.2,1.7c2.2-0.3,4.4-0.7,6.6-1L229.2,851.3 M63,850.2l-0.4,1.6c1.9,0.5,4.1,1,6.5,1.5
			l0.4-1.6C67.1,851.2,64.9,850.7,63,850.2 M239.1,849.6c-2.2,0.4-4.4,0.8-6.6,1.2l0.3,1.7c2.2-0.4,4.4-0.8,6.6-1.2L239.1,849.6
			 M248.9,847.6c-1.1,0.2-2.2,0.5-3.4,0.7c-1,0.2-2.1,0.4-3.2,0.7l0.3,1.6c1.1-0.2,2.1-0.4,3.2-0.7c1.2-0.2,2.3-0.5,3.4-0.7
			L248.9,847.6 M53.3,847.6l-0.5,1.6c0,0,2.4,0.8,6.5,1.9l0.4-1.6C55.7,848.3,53.4,847.6,53.3,847.6 M258.7,845.4
			c-2,0.5-4.2,1-6.5,1.5l0.4,1.6c2.3-0.5,4.5-1,6.5-1.5L258.7,845.4 M268.4,842.9c-2,0.5-4.1,1.1-6.5,1.7l0.4,1.6
			c2.3-0.6,4.5-1.1,6.5-1.7L268.4,842.9 M271.8,842c-0.1,0-0.1,0-0.2,0l0.1,0.5C271.7,842.3,271.8,842.2,271.8,842 M278,840.2
			c-1.4,0.4-2.9,0.9-4.5,1.3c-0.1,0.6-0.1,1.2-0.2,1.8c1.9-0.5,3.6-1,5.2-1.5L278,840.2 M287.4,836.9c-1.8,0.7-3.9,1.5-6.2,2.3
			l0.5,1.6c2.4-0.8,4.5-1.6,6.3-2.3L287.4,836.9 M296.2,832.3c-0.9,0.4-1.8,1-2.8,1.5c-0.6,0.4-1.5,0.9-3.1,1.7l0.7,1.5
			c1.7-0.8,2.6-1.4,3.3-1.8c0.8-0.5,1.7-1,2.5-1.4L296.2,832.3"/>
		<path d="M269.6,869.1c-0.2,2.7-0.3,5-0.4,6.7l1.7,0.1c0.1-1.7,0.2-4,0.4-6.7L269.6,869.1 M461.3,867.1h-1.7v6.7h1.7V867.1
			 M270.3,859c-0.2,2.3-0.3,4.6-0.5,6.7l1.7,0.1c0.1-2.1,0.3-4.4,0.5-6.7L270.3,859 M459,857.2l-1.5,0.8c1.8,3.4,2.1,4.3,2.1,4.6
			v1.2h1.7v-1.2C461.3,861.9,460.9,860.7,459,857.2 M271.1,849c-0.2,2.2-0.4,4.5-0.6,6.7l1.7,0.1c0.2-2.2,0.4-4.5,0.5-6.7L271.1,849
			 M456.3,848.1c-0.1,0-0.2,0-0.4,0c0,0-0.1,0-0.1,0c-0.6,1.3-1,2.6-1,3.7c0,0.8,0.1,1.5,0.4,2.1c0.1,0.3,0.4,0.7,0.6,1.1l1.5-0.8
			c-0.2-0.4-0.4-0.8-0.6-1.1c-0.2-0.4-0.3-0.8-0.3-1.3c0-1,0.3-2.1,0.9-3.1L456.3,848.1 M271.7,842.5c-0.1,1-0.2,2.1-0.3,3.1
			l1.7,0.2c0.1-0.8,0.2-1.7,0.2-2.5c-0.4,0.1-0.8,0.2-1.3,0.4L271.7,842.5 M455.6,839.1l-1,0.4c0.2,0.5,0.5,1,0.8,1.4
			c1.1,1.4,1.8,3,1.8,4.2l0.8,0.1l0.8-0.1c0-1.6-0.8-3.5-2.1-5.2c-0.1-0.2-0.3-0.4-0.4-0.6C456.1,839.2,455.8,839.2,455.6,839.1
			L455.6,839.1 M272.1,838.9c-0.1,1-0.2,2-0.3,3.1c0.6-0.2,1.2-0.3,1.7-0.5c0.1-0.8,0.2-1.6,0.3-2.4L272.1,838.9 M274.6,832.6
			c-0.6,0.2-1.2,0.4-1.8,0.7c-0.1,0.7-0.2,1.5-0.3,2.3l1.7,0.2C274.3,834.6,274.4,833.6,274.6,832.6 M454.7,829.2l-0.9,4.8
			c0,0-0.1,0.5-0.1,1.2c0,0.2,0,0.5,0,0.8l1.7-0.1c0-0.3,0-0.5,0-0.7c0-0.6,0-1,0-1l0.8-4.7L454.7,829.2 M273.5,828.9
			c-0.1,0.8-0.3,1.6-0.4,2.5c0.6-0.2,1.2-0.5,1.8-0.7c0.1-0.5,0.2-1.1,0.3-1.5L273.5,828.9 M456.6,819.3l-1.7,0.3l0.7,4.6l-0.3,1.8
			l1.6,0.3l0.4-2L456.6,819.3 M275.6,819c-0.6,2.6-1.1,4.8-1.5,6.6l1.6,0.3c0.4-1.8,0.9-4,1.5-6.6L275.6,819 M455.1,809.3l-1.7,0.3
			l1,6.6l1.7-0.3L455.1,809.3 M277.8,809.2l-1.5,6.5l1.6,0.4l1.5-6.5L277.8,809.2 M453.6,799.4l-1.7,0.2l1,6.6l1.7-0.3L453.6,799.4
			 M280.1,799.4l-1.5,6.5l1.6,0.4l1.5-6.5L280.1,799.4 M282.4,789.6l-1.5,6.5l1.6,0.4l1.5-6.5L282.4,789.6 M452.1,789.4l-1.7,0.2
			c0.3,2,0.6,4.3,0.9,6.6l1.7-0.2C452.7,793.7,452.4,791.5,452.1,789.4 M284.8,779.8l-1.5,6.5l1.6,0.4l1.6-6.5L284.8,779.8
			 M450.9,779.4l-1.7,0.3c0.1,0.6,0.2,1.1,0.2,1.4c0.1,1,0.3,2.7,0.6,5.2l1.7-0.2c-0.3-2.5-0.5-4.2-0.6-5.1
			C451.1,780.6,451,780,450.9,779.4 M287.1,770l-1.6,6.5l1.6,0.4l1.6-6.5L287.1,770 M448.7,769.5l-1.6,0.4c0.6,2.5,1.1,4.7,1.5,6.5
			l1.6-0.4C449.8,774.2,449.3,772,448.7,769.5 M289.4,760.2l-1.6,6.5l1.6,0.4l1.6-6.5L289.4,760.2 M446.2,759.8l-1.6,0.4
			c0.6,2.3,1.2,4.5,1.7,6.5l1.6-0.4C447.3,764.2,446.8,762,446.2,759.8 M291.8,750.4l-1.6,6.5l1.6,0.4l1.6-6.5L291.8,750.4
			 M443.6,750l-1.6,0.4l1.7,6.5l1.6-0.4L443.6,750 M294.1,740.6l-1.6,6.5l1.6,0.4l1.6-6.5L294.1,740.6 M441,740.3l-1.6,0.4l1.7,6.5
			l1.6-0.4L441,740.3 M296.5,730.8l-1.6,6.5l1.6,0.4l1.6-6.5L296.5,730.8 M438.4,730.6l-1.6,0.4l1.7,6.5l1.6-0.4L438.4,730.6
			 M298.9,721.1l-1.6,6.5l1.6,0.4l1.6-6.5L298.9,721.1 M435.9,720.9l-1.6,0.4l1.7,6.5l1.6-0.4L435.9,720.9 M301.2,711.3l-1.6,6.5
			l1.6,0.4l1.6-6.5L301.2,711.3 M433.4,711.1l-1.6,0.4c0.5,2.1,1.1,4.3,1.7,6.5l1.6-0.4C434.4,715.4,433.9,713.2,433.4,711.1
			 M303.6,701.5L302,708l1.6,0.4l1.6-6.5L303.6,701.5 M430.9,701.4l-1.6,0.4c0.4,1.4,0.7,2.7,1,3.9l0.6,2.6l1.6-0.4l-0.6-2.6
			C431.6,704.1,431.3,702.8,430.9,701.4 M306,691.7l-1.6,6.5l1.6,0.4l1.6-6.5L306,691.7 M428.4,691.6l-1.6,0.4
			c0.6,2.3,1.2,4.5,1.7,6.5l1.6-0.4C429.6,696.1,429,693.9,428.4,691.6 M308.4,681.9l-1.6,6.5l1.6,0.4l1.6-6.5L308.4,681.9
			 M425.8,681.9l-1.6,0.4c0.6,2.2,1.2,4.4,1.7,6.5l1.6-0.4C427,686.3,426.4,684.1,425.8,681.9 M423.1,672.2l-1.6,0.4
			c0.6,2.2,1.2,4.3,1.8,6.5l1.6-0.4C424.3,676.5,423.7,674.4,423.1,672.2 M310.7,672.1l-1.6,6.5l1.6,0.4l1.6-6.5L310.7,672.1
			 M420.4,662.5l-1.6,0.5c0.6,2.2,1.2,4.3,1.8,6.5l1.6-0.5C421.6,666.8,421,664.7,420.4,662.5 M313.4,662.3
			c-0.8,2.6-1.4,4.8-1.8,6.5l1.6,0.4c0.4-1.7,1-3.9,1.8-6.4L313.4,662.3 M417.6,652.8l-1.6,0.5c0.6,2.1,1.3,4.3,1.9,6.4l1.6-0.5
			C418.8,657.1,418.2,655,417.6,652.8 M316.5,652.7c-0.7,2.2-1.4,4.4-2.1,6.4l1.6,0.5c0.6-2,1.3-4.1,2.1-6.4L316.5,652.7
			 M414.6,643.2l-1.6,0.5c0.7,2.1,1.3,4.3,2,6.4l1.6-0.5C415.9,647.5,415.3,645.3,414.6,643.2 M319.7,643.2
			c-0.8,2.2-1.5,4.3-2.2,6.4l1.6,0.5c0.7-2.1,1.4-4.2,2.2-6.3L319.7,643.2 M323.1,633.7c-0.8,2.1-1.5,4.2-2.2,6.3l1.6,0.6
			c0.7-2.1,1.5-4.2,2.2-6.3L323.1,633.7 M411.6,633.6l-1.6,0.5c0.7,2.1,1.4,4.2,2,6.4l1.6-0.5C413,637.8,412.3,635.7,411.6,633.6
			 M326.5,624.2c-0.8,2.1-1.5,4.2-2.3,6.3l1.6,0.6c0.8-2.1,1.5-4.2,2.3-6.3L326.5,624.2 M408.4,624l-1.6,0.5
			c0.7,2.1,1.4,4.2,2.1,6.3l1.6-0.5C409.9,628.2,409.1,626.1,408.4,624 M329.9,614.7l-2.3,6.3l1.6,0.6l2.3-6.3L329.9,614.7
			 M405,614.5l-1.6,0.6c0.7,2,1.5,4.1,2.3,6.3l1.6-0.6C406.6,618.7,405.8,616.5,405,614.5 M333.4,605.3l-2.3,6.3l1.6,0.6l2.3-6.3
			L333.4,605.3 M401.2,605.2l-1.5,0.7c0.8,1.8,1.7,3.9,2.6,6.2l1.6-0.6C402.9,609.1,402.1,607,401.2,605.2 M396.5,596.2l-1.4,0.9
			c0.3,0.4,0.6,0.9,0.9,1.4c0.7,1.1,1.5,2.6,2.4,4.4l1.5-0.7c-0.9-1.8-1.7-3.4-2.5-4.5C397.1,597.1,396.8,596.6,396.5,596.2
			 M337,595.9l-2.4,6.3l1.6,0.6l2.4-6.3L337,595.9 M390.1,588.2l-1.2,1.2c1.5,1.5,2.9,3.2,4.3,5l1.3-1
			C393.1,591.5,391.6,589.8,390.1,588.2 M341.9,586.9c-0.8,0.8-1.7,1.7-2.5,2.6l-1.3,3.2l1.6,0.6l1.1-2.8c0.8-0.9,1.5-1.7,2.3-2.5
			L341.9,586.9 M382.3,581.6l-0.9,1.4c1.7,1.2,3.5,2.5,5.2,4.1l1.1-1.2C386,584.2,384.1,582.8,382.3,581.6 M349.9,580.5
			c-1.9,1.1-3.7,2.5-5.5,4l1.1,1.3c1.7-1.5,3.5-2.8,5.3-3.9L349.9,580.5 M373.1,577.2l-0.5,1.6c2,0.6,4,1.4,6,2.5l0.8-1.5
			C377.3,578.7,375.2,577.8,373.1,577.2 M359.4,576.6c-2.2,0.5-4.4,1.2-6.5,2.2l0.7,1.5c2-1,4.1-1.7,6.1-2.1L359.4,576.6 M365.2,576
			L365.2,576c-0.8,0-1.6,0-2.3,0.1l0.1,1.7c0.7-0.1,1.4-0.1,2.2-0.1c0.1,0,0.3,0,0.4,0c1.3,0,2.6,0.1,3.9,0.4l0.3-1.7
			C368.2,576.1,366.7,576,365.2,576"/>
		<path d="M274.8,830.7c-0.6,0.2-1.2,0.5-1.8,0.7c-0.1,0.6-0.2,1.2-0.3,1.9c0.6-0.2,1.2-0.4,1.8-0.7
			C274.7,831.9,274.8,831.3,274.8,830.7"/>
		<path d="M273.5,841.5c-0.6,0.2-1.1,0.3-1.7,0.5c0,0.2,0,0.3-0.1,0.5l0.3,1.2c0.4-0.1,0.9-0.2,1.3-0.4
			C273.4,842.7,273.5,842.1,273.5,841.5"/>
		<path d="M450.9,845.8l-0.4,1.6c0.3,0.1,0.6,0.1,0.8,0.2c1.5,0.3,3,0.4,4.5,0.4c0-0.1,0.1-0.1,0.1-0.2l0.4,0.2c0.6,0,1,0,1.1-0.1
			l-0.2-1.7c-0.1,0-0.6,0.1-1.4,0.1c-1,0-2.4-0.1-4.2-0.4C451.4,846,451.1,845.9,450.9,845.8 M687.3,845.7c-1.4,0.2-3.6,0.5-6.7,0.8
			l0.2,1.7c3-0.4,5.3-0.6,6.7-0.8L687.3,845.7 M442.4,841.6l-1.2,1.2c0.1,0.1,2.1,2.2,6,3.7l0.6-1.6
			C444.4,843.5,442.4,841.6,442.4,841.6"/>
		<path d="M455.9,847.9c0,0.1-0.1,0.1-0.1,0.2c0,0,0.1,0,0.1,0c0.1,0,0.3,0,0.4,0L455.9,847.9"/>
		<path d="M540.5,857l0,1.7c1.4,0,2.8,0,4.2,0l2.5,0l0-1.7l-2.5,0C543.3,857,541.9,857,540.5,857 M557.2,856.8
			c-2.3,0.1-4.5,0.1-6.7,0.1l0,1.7c2.1,0,4.4-0.1,6.7-0.1L557.2,856.8 M530.5,856.6l-0.1,1.7c2.1,0.1,4.3,0.2,6.7,0.3l0-1.7
			C534.8,856.9,532.6,856.8,530.5,856.6 M567.3,856.5c-2.3,0.1-4.5,0.2-6.7,0.3l0.1,1.7c2.2-0.1,4.4-0.2,6.7-0.3L567.3,856.5
			 M577.3,855.9c-2.3,0.1-4.5,0.2-6.7,0.3l0.1,1.7c2.2-0.1,4.4-0.2,6.7-0.3L577.3,855.9 M520.6,855.5l-0.2,1.7l2.3,0.3
			c1.3,0.2,2.8,0.4,4.4,0.5l0.1-1.7c-1.6-0.1-3-0.3-4.3-0.5L520.6,855.5 M587.3,855.3c-2.3,0.2-4.5,0.3-6.7,0.4l0.1,1.7
			c2.2-0.1,4.4-0.3,6.7-0.4L587.3,855.3 M597.3,854.6c-2.3,0.2-4.5,0.3-6.7,0.5l0.1,1.7c2.2-0.2,4.4-0.3,6.7-0.5L597.3,854.6
			 M510.6,854.1l-0.2,1.7l6.6,1l0.2-1.7L510.6,854.1 M607.3,853.8c-2.3,0.2-4.5,0.4-6.7,0.5l0.1,1.7c2.2-0.2,4.4-0.3,6.7-0.5
			L607.3,853.8 M617.3,853c-1.8,0.2-3.6,0.3-5.4,0.5l-1.3,0.1l0.1,1.7l1.2-0.1c1.8-0.2,3.6-0.3,5.4-0.5L617.3,853 M500.7,852.6
			l-0.2,1.7l6.6,1l0.2-1.7L500.7,852.6 M627.3,852.1c-2.2,0.2-4.4,0.4-6.7,0.6l0.1,1.7c2.3-0.2,4.5-0.4,6.7-0.6L627.3,852.1
			 M490.7,851.2l-0.2,1.7l6.6,1l0.2-1.7L490.7,851.2 M637.3,851.2l-6.7,0.6l0.2,1.7l6.7-0.6L637.3,851.2 M647.3,850.2
			c-2.2,0.2-4.4,0.4-6.7,0.7l0.2,1.7c2.3-0.2,4.5-0.4,6.7-0.7L647.3,850.2 M480.8,849.7l-0.2,1.7l6.6,1l0.2-1.7L480.8,849.7
			 M657.3,849.1c-2.1,0.2-4.4,0.5-6.7,0.7l0.2,1.7c2.3-0.2,4.5-0.5,6.7-0.7L657.3,849.1 M470.8,848.3l-0.2,1.7l6.6,1l0.2-1.7
			L470.8,848.3 M667.3,848c-2.1,0.2-4.3,0.5-6.7,0.7l0.2,1.7c2.3-0.3,4.6-0.5,6.7-0.7L667.3,848 M677.3,846.9
			c-2,0.2-4.2,0.5-6.7,0.8l0.2,1.7c2.4-0.3,4.7-0.5,6.7-0.8L677.3,846.9 M460.8,846.8l-0.2,1.7l6.6,1l0.2-1.7L460.8,846.8"/>
		<path d="M455.9,837.5l-0.3,1.6l0.5-0.2c0.1,0.1,0.1,0.3,0.2,0.4c1.8,0.4,3.8,0.7,5.9,1.1l0.3-1.7
			C460.2,838.4,458,837.9,455.9,837.5 M672.6,836.8c-2,0.3-4.2,0.5-6.6,0.8l0.2,1.7c2.4-0.3,4.6-0.5,6.7-0.8L672.6,836.8
			 M682.5,835.4c-1.9,0.3-4,0.7-6.6,1l0.2,1.7c2.6-0.4,4.8-0.7,6.6-1L682.5,835.4 M446.4,834.9l-0.6,1.6c1.9,0.7,4,1.3,6.5,1.9
			l0.4-1.6C450.3,836.2,448.2,835.5,446.4,834.9 M689.7,833.4c0,0.1-0.6,0.5-4,1.3l0.4,1.6c3.7-0.8,4.6-1.4,5-1.9L689.7,833.4
			 M437.6,829.8l0,0.4c0,1,0.7,2.9,5.1,5l0.7-1.5c-4.1-2-4.1-3.4-4.1-3.5l-0.8-0.2l0.8,0.2l-0.8-0.2L437.6,829.8"/>
		<path d="M456.1,838.9l-0.5,0.2l0,0c0.2,0.1,0.5,0.1,0.7,0.2C456.3,839.2,456.2,839,456.1,838.9"/>
		<path d="M552.4,844.9c-1.7,0-3.5,0-5.2,0h-1.5v1.7h1.5c1.7,0,3.4,0,5.2,0L552.4,844.9 M535.7,844.8l0,1.7c2.2,0,4.4,0.1,6.7,0.1
			l0-1.7C540.1,844.9,537.9,844.8,535.7,844.8 M562.5,844.7c-2.3,0-4.5,0.1-6.7,0.1l0,1.7c2.2,0,4.4-0.1,6.7-0.1L562.5,844.7
			 M525.7,844.5l-0.1,1.7c2.2,0.1,4.4,0.1,6.7,0.2l0-1.7C530.1,844.7,527.9,844.6,525.7,844.5 M572.5,844.5
			c-2.3,0.1-4.5,0.1-6.7,0.2l0,1.7c2.2-0.1,4.4-0.1,6.7-0.2L572.5,844.5 M515.7,844.1l-0.1,1.7c2.2,0.1,4.4,0.2,6.7,0.3l0.1-1.7
			C520.1,844.3,517.9,844.2,515.7,844.1 M582.5,844.1c-2.3,0.1-4.5,0.2-6.7,0.3l0.1,1.7c2.2-0.1,4.4-0.2,6.7-0.3L582.5,844.1
			 M592.6,843.5c-2.3,0.1-4.5,0.3-6.7,0.4l0.1,1.7c2.2-0.1,4.4-0.2,6.7-0.4L592.6,843.5 M505.7,843.5l-0.1,1.7
			c2.2,0.2,4.4,0.3,6.7,0.4l0.1-1.7C510.1,843.8,507.8,843.7,505.7,843.5 M602.6,842.9l-1.8,0.1c-1.7,0.1-3.3,0.2-4.9,0.3l0.1,1.7
			c1.6-0.1,3.3-0.2,4.9-0.3l1.8-0.1L602.6,842.9 M495.7,842.7l-0.1,1.7c2.2,0.2,4.4,0.4,6.7,0.5l0.1-1.7
			C500.1,843.1,497.8,842.9,495.7,842.7 M612.6,842.2c-2.2,0.2-4.4,0.3-6.7,0.5l0.1,1.7c2.3-0.2,4.5-0.3,6.7-0.5L612.6,842.2
			 M485.7,841.8l-0.2,1.7c2.2,0.2,4.4,0.5,6.7,0.7l0.2-1.7C490.1,842.2,487.8,842,485.7,841.8 M622.6,841.5l-6.7,0.5l0.1,1.7
			l6.7-0.5L622.6,841.5 M632.6,840.7c-2.2,0.2-4.4,0.3-6.7,0.5l0.1,1.7c2.3-0.2,4.5-0.3,6.7-0.5L632.6,840.7 M475.7,840.6l-0.2,1.7
			c2.2,0.3,4.4,0.5,6.7,0.8l0.2-1.7C480.1,841.1,477.9,840.9,475.7,840.6 M642.6,839.9l-6.6,0.6l0.1,1.7l6.7-0.6L642.6,839.9
			 M465.8,839.3l-0.2,1.7l2.4,0.3c1.4,0.2,2.8,0.4,4.2,0.6l0.2-1.7c-1.4-0.2-2.8-0.4-4.2-0.6L465.8,839.3 M652.6,839
			c-2.1,0.2-4.3,0.4-6.7,0.6l0.1,1.7c2.3-0.2,4.5-0.4,6.7-0.6L652.6,839 M662.6,838c-2.1,0.2-4.3,0.4-6.7,0.7l0.2,1.7
			c2.3-0.2,4.6-0.5,6.7-0.7L662.6,838"/>
		<path d="M121.1,141.6l-0.9-1c0,0,0.2-0.2,0.6-0.5l0.9,1.1C121.3,141.4,121.1,141.6,121.1,141.6z"/>
		<path d="M617.8,144c-0.3-0.3-0.6-0.6-0.9-0.9l0.9-1c0.4,0.4,0.7,0.7,1,1L617.8,144z M615.9,142.1c-0.3-0.3-0.7-0.6-1-0.9l0.9-1.1
			c0.4,0.3,0.8,0.6,1.1,0.9L615.9,142.1z M613.8,140.5c-0.3-0.3-0.7-0.5-1.1-0.8l0.8-1.1c0.4,0.3,0.8,0.5,1.1,0.8L613.8,140.5z
			 M122.7,140.4l-0.8-1.1c0.3-0.2,0.7-0.5,1.1-0.8l0.8,1.1C123.3,139.9,123,140.2,122.7,140.4z M611.5,138.9
			c-0.4-0.2-0.7-0.5-1.1-0.7l0.7-1.2c0.4,0.3,0.8,0.5,1.2,0.7L611.5,138.9z M124.9,138.9l-0.7-1.2c0.4-0.2,0.8-0.5,1.2-0.7l0.7,1.2
			C125.6,138.4,125.3,138.7,124.9,138.9z M609.2,137.5c-0.4-0.2-0.8-0.4-1.2-0.7l0.7-1.2c0.4,0.2,0.8,0.5,1.2,0.7L609.2,137.5z
			 M127.2,137.5l-0.7-1.2c0.4-0.2,0.8-0.4,1.2-0.7l0.7,1.2C128,137,127.6,137.3,127.2,137.5z M129.6,136.2L129,135
			c0.4-0.2,0.8-0.4,1.2-0.6l0.6,1.2C130.4,135.8,130,136,129.6,136.2z M606.9,136.2c-0.4-0.2-0.8-0.4-1.2-0.6l0.6-1.2
			c0.4,0.2,0.8,0.4,1.2,0.6L606.9,136.2z M132.1,134.9l-0.6-1.2c0.4-0.2,0.8-0.4,1.2-0.6l0.6,1.2
			C132.9,134.6,132.5,134.7,132.1,134.9z M604.4,134.9c-0.4-0.2-0.8-0.4-1.2-0.6l0.6-1.2c0.4,0.2,0.8,0.4,1.2,0.6L604.4,134.9z
			 M134.5,133.8l-0.6-1.3c0.4-0.2,0.8-0.4,1.3-0.6l0.6,1.3L134.5,133.8z M602,133.7c-0.4-0.2-0.8-0.4-1.2-0.6l0.6-1.3
			c0.4,0.2,0.8,0.4,1.3,0.6L602,133.7z M137,132.7l-0.5-1.3l1.3-0.5l0.5,1.3L137,132.7z M599.5,132.6l-1.3-0.5l0.5-1.3l1.3,0.5
			L599.5,132.6z M139.5,131.6l-0.5-1.3l1.3-0.5l0.5,1.3L139.5,131.6z M597,131.5c-0.4-0.2-0.8-0.3-1.3-0.5l0.5-1.3
			c0.4,0.2,0.9,0.3,1.3,0.5L597,131.5z M142.1,130.6l-0.5-1.3l1.3-0.5l0.5,1.3L142.1,130.6z M594.4,130.5c-0.4-0.2-0.8-0.3-1.3-0.5
			l0.5-1.3c0.4,0.2,0.9,0.3,1.3,0.5L594.4,130.5z M144.6,129.6l-0.5-1.3l1.3-0.5l0.5,1.3L144.6,129.6z M591.9,129.6l-1.3-0.5
			l0.5-1.3l1.3,0.5L591.9,129.6z M147.2,128.7l-0.5-1.3l1.3-0.5l0.5,1.3L147.2,128.7z M589.3,128.6l-1.3-0.4l0.4-1.3l1.3,0.5
			L589.3,128.6z M586.7,127.8l-1.3-0.4l0.4-1.3l1.3,0.4L586.7,127.8z M149.8,127.8l-0.4-1.3l1.3-0.4l0.4,1.3L149.8,127.8z
			 M584.1,126.9l-1.3-0.4l0.4-1.3l1.3,0.4L584.1,126.9z M152.4,126.9l-0.4-1.3l1.3-0.4l0.4,1.3L152.4,126.9z M581.5,126.1l-1.3-0.4
			l0.4-1.3l1.3,0.4L581.5,126.1z M155,126l-0.4-1.3l1.3-0.4l0.4,1.3L155,126z M578.8,125.3l-1.3-0.4l0.4-1.3l1.3,0.4L578.8,125.3z
			 M157.6,125.2l-0.4-1.3l1.3-0.4l0.4,1.3L157.6,125.2z M576.2,124.6l-1.3-0.4l0.4-1.3l1.3,0.4L576.2,124.6z M160.3,124.5l-0.4-1.3
			l1.3-0.4l0.4,1.3L160.3,124.5z M573.6,123.8l-1.3-0.4l0.3-1.3l1.3,0.4L573.6,123.8z M162.9,123.7l-0.4-1.3l1.3-0.4l0.4,1.3
			L162.9,123.7z M570.9,123.1l-1.3-0.3l0.3-1.3l1.3,0.3L570.9,123.1z M165.5,123l-0.4-1.3l1.3-0.4l0.4,1.3L165.5,123z M568.3,122.5
			l-1.3-0.3l0.3-1.3l1.3,0.3L568.3,122.5z M168.2,122.3l-0.3-1.3l1.3-0.3l0.3,1.3L168.2,122.3z M565.6,121.8l-1.3-0.3l0.3-1.3
			l1.3,0.3L565.6,121.8z M170.9,121.6l-0.3-1.3l1.3-0.3l0.3,1.3L170.9,121.6z M562.9,121.2l-1.3-0.3l0.3-1.3l1.3,0.3L562.9,121.2z
			 M173.5,120.9l-0.3-1.3l1.3-0.3l0.3,1.3L173.5,120.9z M560.2,120.6l-1.3-0.3l0.3-1.3l1.3,0.3L560.2,120.6z M176.2,120.3l-0.3-1.3
			l1.3-0.3l0.3,1.3L176.2,120.3z M557.6,120l-1.3-0.3l0.3-1.3l1.3,0.3L557.6,120z M178.9,119.7l-0.3-1.3l1.3-0.3l0.3,1.3
			L178.9,119.7z M554.9,119.4l-1.3-0.3l0.3-1.3l1.3,0.3L554.9,119.4z M181.5,119.1l-0.3-1.3l1.3-0.3l0.3,1.3L181.5,119.1z
			 M552.2,118.9l-1.3-0.3l0.3-1.4l1.4,0.3L552.2,118.9z M184.2,118.5l-0.3-1.3l1.3-0.3l0.3,1.3L184.2,118.5z M549.5,118.4l-1.3-0.3
			l0.3-1.4l1.4,0.3L549.5,118.4z M186.9,118l-0.3-1.3l1.4-0.3l0.3,1.3L186.9,118z M546.8,117.8l-1.4-0.3l0.2-1.4l1.4,0.3
			L546.8,117.8z M189.6,117.4l-0.3-1.3l1.4-0.3l0.3,1.4L189.6,117.4z M544.1,117.3l-1.3-0.2l0.2-1.4l1.4,0.2L544.1,117.3z
			 M192.3,116.9l-0.3-1.4l1.4-0.3l0.3,1.4L192.3,116.9z M541.4,116.9l-1.4-0.2l0.2-1.4l1.4,0.2L541.4,116.9z M538.7,116.4l-1.4-0.2
			l0.2-1.4l1.4,0.2L538.7,116.4z M195,116.4l-0.3-1.4l1.4-0.2l0.2,1.4L195,116.4z M536,115.9l-1.4-0.2l0.2-1.4l1.4,0.2L536,115.9z
			 M197.7,115.9l-0.2-1.4l1.4-0.2l0.2,1.4L197.7,115.9z M533.3,115.5l-1.4-0.2l0.2-1.4l1.4,0.2L533.3,115.5z M200.4,115.4l-0.2-1.4
			l1.4-0.2l0.2,1.4L200.4,115.4z M530.6,115.1l-1.4-0.2l0.2-1.4l1.4,0.2L530.6,115.1z M203.1,115l-0.2-1.4l1.4-0.2l0.2,1.4
			L203.1,115z M527.8,114.7l-1.4-0.2l0.2-1.4l1.4,0.2L527.8,114.7z M205.8,114.5l-0.2-1.4l1.4-0.2l0.2,1.4L205.8,114.5z
			 M525.1,114.3l-1.4-0.2l0.2-1.4l1.4,0.2L525.1,114.3z M208.5,114.1l-0.2-1.4l1.4-0.2l0.2,1.4L208.5,114.1z M522.4,113.9l-1.4-0.2
			l0.2-1.4l1.4,0.2L522.4,113.9z M211.3,113.7l-0.2-1.4l1.4-0.2l0.2,1.4L211.3,113.7z M519.7,113.5l-1.4-0.2l0.2-1.4l1.4,0.2
			L519.7,113.5z M214,113.3l-0.2-1.4l1.4-0.2l0.2,1.4L214,113.3z M517,113.1l-1.4-0.2l0.2-1.4l1.4,0.2L517,113.1z M216.7,112.9
			l-0.2-1.4l1.4-0.2l0.2,1.4L216.7,112.9z M514.2,112.8l-1.4-0.2l0.2-1.4l1.4,0.2L514.2,112.8z M219.4,112.5l-0.2-1.4l1.4-0.2
			l0.2,1.4L219.4,112.5z M511.5,112.4l-1.4-0.2l0.2-1.4l1.4,0.2L511.5,112.4z M508.8,112.1l-1.4-0.2l0.2-1.4l1.4,0.2L508.8,112.1z
			 M222.1,112.1l-0.2-1.4l1.4-0.2l0.2,1.4L222.1,112.1z M506,111.8l-1.4-0.2l0.2-1.4l1.4,0.2L506,111.8z M224.9,111.7l-0.2-1.4
			l1.4-0.2l0.2,1.4L224.9,111.7z M503.3,111.5l-1.4-0.2l0.2-1.4l1.4,0.2L503.3,111.5z M227.6,111.4l-0.2-1.4l1.4-0.2l0.2,1.4
			L227.6,111.4z M500.6,111.2l-1.4-0.1l0.1-1.4l1.4,0.1L500.6,111.2z M230.3,111.1l-0.2-1.4l1.4-0.2l0.2,1.4L230.3,111.1z
			 M497.9,110.9l-1.4-0.1l0.1-1.4l1.4,0.1L497.9,110.9z M233,110.7l-0.2-1.4l1.4-0.2l0.2,1.4L233,110.7z M495.1,110.6l-1.4-0.1
			l0.1-1.4l1.4,0.1L495.1,110.6z M235.8,110.4l-0.2-1.4l1.4-0.2l0.2,1.4L235.8,110.4z M492.4,110.3l-1.4-0.1l0.1-1.4l1.4,0.1
			L492.4,110.3z M238.5,110.1l-0.1-1.4l1.4-0.1l0.1,1.4L238.5,110.1z M489.6,110.1l-1.4-0.1l0.1-1.4l1.4,0.1L489.6,110.1z
			 M241.2,109.8l-0.1-1.4l1.4-0.1l0.1,1.4L241.2,109.8z M486.9,109.8l-1.4-0.1l0.1-1.4l1.4,0.1L486.9,109.8z M484.2,109.6l-1.4-0.1
			l0.1-1.4l1.4,0.1L484.2,109.6z M244,109.6l-0.1-1.4l1.4-0.1l0.1,1.4L244,109.6z M481.4,109.3l-1.4-0.1l0.1-1.4l1.4,0.1
			L481.4,109.3z M246.7,109.3l-0.1-1.4l1.4-0.1l0.1,1.4L246.7,109.3z M478.7,109.1l-1.4-0.1l0.1-1.4l1.4,0.1L478.7,109.1z
			 M249.4,109l-0.1-1.4l1.4-0.1l0.1,1.4L249.4,109z M476,108.9l-1.4-0.1l0.1-1.4l1.4,0.1L476,108.9z M252.2,108.8l-0.1-1.4l1.4-0.1
			l0.1,1.4L252.2,108.8z M473.2,108.6l-1.4-0.1l0.1-1.4l1.4,0.1L473.2,108.6z M254.9,108.5l-0.1-1.4l1.4-0.1l0.1,1.4L254.9,108.5z
			 M470.5,108.4l-1.4-0.1l0.1-1.4l1.4,0.1L470.5,108.4z M257.6,108.3l-0.1-1.4l1.4-0.1l0.1,1.4L257.6,108.3z M467.7,108.2l-1.4-0.1
			l0.1-1.4l1.4,0.1L467.7,108.2z M260.4,108.1l-0.1-1.4l1.4-0.1l0.1,1.4L260.4,108.1z M465,108l-1.4-0.1l0.1-1.4l1.4,0.1L465,108z
			 M263.1,107.8l-0.1-1.4l1.4-0.1l0.1,1.4L263.1,107.8z M462.3,107.8l-1.4-0.1l0.1-1.4l1.4,0.1L462.3,107.8z M459.5,107.7l-1.4-0.1
			l0.1-1.4l1.4,0.1L459.5,107.7z M265.9,107.6l-0.1-1.4l1.4-0.1l0.1,1.4L265.9,107.6z M456.8,107.5l-1.4-0.1l0.1-1.4l1.4,0.1
			L456.8,107.5z M268.6,107.4l-0.1-1.4l1.4-0.1l0.1,1.4L268.6,107.4z M454,107.3l-1.4-0.1l0.1-1.4l1.4,0.1L454,107.3z M271.3,107.2
			l-0.1-1.4l1.4-0.1l0.1,1.4L271.3,107.2z M451.3,107.1l-1.4-0.1l0.1-1.4l1.4,0.1L451.3,107.1z M274.1,107.1l-0.1-1.4l1.4-0.1
			l0.1,1.4L274.1,107.1z M448.5,107l-1.4-0.1l0.1-1.4l1.4,0.1L448.5,107z M276.8,106.9l-0.1-1.4l1.4-0.1l0.1,1.4L276.8,106.9z
			 M445.8,106.8l-1.4-0.1l0.1-1.4l1.4,0.1L445.8,106.8z M279.6,106.7l-0.1-1.4l1.4-0.1l0.1,1.4L279.6,106.7z M443.1,106.7l-1.4-0.1
			l0.1-1.4l1.4,0.1L443.1,106.7z M440.3,106.5l-1.4-0.1l0.1-1.4l1.4,0.1L440.3,106.5z M282.3,106.5l-0.1-1.4l1.4-0.1l0.1,1.4
			L282.3,106.5z M437.6,106.4l-1.4-0.1l0.1-1.4l1.4,0.1L437.6,106.4z M285.1,106.4L285,105l1.4-0.1l0.1,1.4L285.1,106.4z
			 M434.8,106.3l-1.4-0.1l0.1-1.4l1.4,0.1L434.8,106.3z M287.8,106.2l-0.1-1.4l1.4-0.1l0.1,1.4L287.8,106.2z M432.1,106.2l-1.4-0.1
			l0.1-1.4l1.4,0.1L432.1,106.2z M290.5,106.1l-0.1-1.4l1.4-0.1l0.1,1.4L290.5,106.1z M429.3,106L428,106l0.1-1.4l1.4,0.1L429.3,106
			z M293.3,106l-0.1-1.4l1.4-0.1l0.1,1.4L293.3,106z M426.6,105.9l-1.4-0.1l0.1-1.4l1.4,0.1L426.6,105.9z M296,105.8l-0.1-1.4
			l1.4-0.1l0.1,1.4L296,105.8z M423.8,105.8l-1.4-0.1l0.1-1.4l1.4,0.1L423.8,105.8z M298.8,105.7l-0.1-1.4l1.4-0.1l0.1,1.4
			L298.8,105.7z M421.1,105.7l-1.4,0l0-1.4l1.4,0L421.1,105.7z M418.3,105.6l-1.4,0l0-1.4l1.4,0L418.3,105.6z M301.5,105.6l-0.1-1.4
			l1.4-0.1l0.1,1.4L301.5,105.6z M415.6,105.5l-1.4,0l0-1.4l1.4,0L415.6,105.5z M304.3,105.5l-0.1-1.4l1.4-0.1l0,1.4L304.3,105.5z
			 M412.8,105.4l-1.4,0l0-1.4l1.4,0L412.8,105.4z M307,105.4l0-1.4l1.4,0l0,1.4L307,105.4z M410.1,105.4l-1.4,0l0-1.4l1.4,0
			L410.1,105.4z M309.8,105.3l0-1.4l1.4,0l0,1.4L309.8,105.3z M407.3,105.3l-1.4,0l0-1.4l1.4,0L407.3,105.3z M312.5,105.2l0-1.4
			l1.4,0l0,1.4L312.5,105.2z M404.6,105.2l-1.4,0l0-1.4l1.4,0L404.6,105.2z M315.3,105.1l0-1.4l1.4,0l0,1.4L315.3,105.1z
			 M401.8,105.1l-1.4,0l0-1.4l1.4,0L401.8,105.1z M399.1,105.1l-1.4,0l0-1.4l1.4,0L399.1,105.1z M318,105.1l0-1.4l1.4,0l0,1.4
			L318,105.1z M396.4,105l-1.4,0l0-1.4l1.4,0L396.4,105z M320.8,105l0-1.4l1.4,0l0,1.4L320.8,105z M393.6,105l-1.4,0l0-1.4l1.4,0
			L393.6,105z M323.5,104.9l0-1.4l1.4,0l0,1.4L323.5,104.9z M390.9,104.9l-1.4,0l0-1.4l1.4,0L390.9,104.9z M326.3,104.9l0-1.4l1.4,0
			l0,1.4L326.3,104.9z M388.1,104.9l-1.4,0l0-1.4l1.4,0L388.1,104.9z M329,104.8l0-1.4l1.4,0l0,1.4L329,104.8z M385.4,104.8l-1.4,0
			l0-1.4l1.4,0L385.4,104.8z M331.8,104.8l0-1.4l1.4,0l0,1.4L331.8,104.8z M382.6,104.8l-1.4,0l0-1.4l1.4,0L382.6,104.8z
			 M379.9,104.7l-1.4,0l0-1.4l1.4,0L379.9,104.7z M334.5,104.7l0-1.4l1.4,0l0,1.4L334.5,104.7z M377.1,104.7l-1.4,0l0-1.4l1.4,0
			L377.1,104.7z M337.2,104.7l0-1.4l1.4,0l0,1.4L337.2,104.7z M374.4,104.7l-1.4,0l0-1.4l1.4,0L374.4,104.7z M340,104.7l0-1.4l1.4,0
			l0,1.4L340,104.7z M371.6,104.7l-1.4,0l0-1.4l1.4,0L371.6,104.7z M342.7,104.6l0-1.4l1.4,0l0,1.4L342.7,104.6z M368.9,104.6
			l-1.4,0l0-1.4l1.4,0L368.9,104.6z M345.5,104.6l0-1.4l1.4,0l0,1.4L345.5,104.6z M366.1,104.6l-1.4,0l0-1.4l1.4,0L366.1,104.6z
			 M348.2,104.6l0-1.4l1.4,0l0,1.4L348.2,104.6z M363.4,104.6l-1.4,0l0-1.4l1.4,0L363.4,104.6z M360.6,104.6l-1.4,0l0-1.4l1.4,0
			L360.6,104.6z M351,104.6l0-1.4l1.4,0l0,1.4L351,104.6z M357.9,104.6l-1.4,0v-1.4l1.4,0L357.9,104.6z M353.7,104.6l0-1.4l1.4,0
			v1.4L353.7,104.6z"/>
		<path d="M619.1,145.6c0,0-0.1-0.2-0.3-0.5l1.1-0.8c0.3,0.4,0.4,0.7,0.4,0.7L619.1,145.6z"/>
		<path d="M136.5,149.4l-1.1-0.8c0,0,0.2-0.2,0.5-0.6l1,1C136.7,149.2,136.5,149.4,136.5,149.4z"/>
		<path d="M607.7,150.8c-0.3-0.3-0.6-0.6-0.9-0.9l0.9-1c0.4,0.4,0.7,0.7,1,1L607.7,150.8z M605.8,149c-0.3-0.3-0.7-0.5-1.1-0.8
			l0.8-1.1c0.4,0.3,0.8,0.6,1.1,0.9L605.8,149z M137.9,148.1l-0.9-1.1c0.3-0.3,0.7-0.5,1.1-0.9l0.8,1.1
			C138.6,147.6,138.2,147.9,137.9,148.1z M603.6,147.4c-0.4-0.2-0.7-0.5-1.1-0.7l0.7-1.2c0.4,0.3,0.8,0.5,1.2,0.8L603.6,147.4z
			 M140.1,146.5l-0.8-1.1c0.4-0.2,0.8-0.5,1.2-0.7l0.7,1.2C140.8,146.1,140.4,146.3,140.1,146.5z M601.3,146
			c-0.4-0.2-0.8-0.4-1.2-0.7l0.7-1.2c0.4,0.2,0.8,0.5,1.2,0.7L601.3,146z M142.4,145.1l-0.7-1.2c0.4-0.2,0.8-0.4,1.2-0.7l0.7,1.2
			C143.1,144.7,142.7,144.9,142.4,145.1z M598.9,144.7c-0.4-0.2-0.8-0.4-1.2-0.6l0.6-1.2c0.4,0.2,0.8,0.4,1.2,0.6L598.9,144.7z
			 M144.7,143.8l-0.6-1.2c0.4-0.2,0.8-0.4,1.2-0.6l0.6,1.2C145.5,143.4,145.1,143.6,144.7,143.8z M596.5,143.5
			c-0.4-0.2-0.8-0.4-1.2-0.6l0.6-1.3c0.4,0.2,0.9,0.4,1.3,0.6L596.5,143.5z M147.2,142.6l-0.6-1.2c0.4-0.2,0.8-0.4,1.3-0.6l0.6,1.3
			C148,142.3,147.6,142.5,147.2,142.6z M594,142.4c-0.4-0.2-0.8-0.4-1.3-0.5l0.5-1.3c0.4,0.2,0.9,0.4,1.3,0.5L594,142.4z
			 M149.7,141.5l-0.5-1.3c0.4-0.2,0.8-0.4,1.3-0.5l0.5,1.3C150.5,141.2,150.1,141.3,149.7,141.5z M591.5,141.3
			c-0.4-0.2-0.8-0.3-1.3-0.5l0.5-1.3c0.4,0.2,0.9,0.3,1.3,0.5L591.5,141.3z M152.2,140.5l-0.5-1.3c0.4-0.2,0.8-0.3,1.3-0.5l0.5,1.3
			C153,140.1,152.6,140.3,152.2,140.5z M589,140.4c-0.4-0.2-0.8-0.3-1.3-0.5l0.5-1.3c0.4,0.2,0.9,0.3,1.3,0.5L589,140.4z
			 M154.7,139.5l-0.5-1.3c0.4-0.2,0.9-0.3,1.3-0.5l0.5,1.3C155.6,139.2,155.2,139.3,154.7,139.5z M586.4,139.5
			c-0.4-0.1-0.9-0.3-1.3-0.4l0.4-1.3c0.4,0.1,0.9,0.3,1.3,0.4L586.4,139.5z M583.8,138.6l-1.3-0.4l0.4-1.3l1.3,0.4L583.8,138.6z
			 M157.3,138.6l-0.5-1.3l1.3-0.4l0.4,1.3L157.3,138.6z M581.2,137.8l-1.3-0.4l0.4-1.3l1.3,0.4L581.2,137.8z M159.9,137.7l-0.4-1.3
			l1.3-0.4l0.4,1.3L159.9,137.7z M578.5,137l-1.3-0.4l0.4-1.3l1.3,0.4L578.5,137z M162.5,136.8l-0.4-1.3l1.3-0.4l0.4,1.3
			L162.5,136.8z M575.9,136.2l-1.3-0.4l0.4-1.3l1.3,0.4L575.9,136.2z M165.1,136.1l-0.4-1.3l1.3-0.4l0.4,1.3L165.1,136.1z
			 M573.3,135.5l-1.3-0.3l0.3-1.3l1.3,0.3L573.3,135.5z M167.8,135.3l-0.4-1.3l1.3-0.4l0.4,1.3L167.8,135.3z M570.6,134.9l-1.3-0.3
			l0.3-1.3l1.3,0.3L570.6,134.9z M170.4,134.6l-0.4-1.3l1.3-0.4l0.3,1.3L170.4,134.6z M567.9,134.2l-1.3-0.3l0.3-1.3l1.3,0.3
			L567.9,134.2z M173.1,133.9l-0.3-1.3l1.3-0.3l0.3,1.3L173.1,133.9z M565.3,133.6l-1.3-0.3l0.3-1.3l1.3,0.3L565.3,133.6z
			 M175.7,133.2l-0.3-1.3l1.3-0.3l0.3,1.3L175.7,133.2z M562.6,133l-1.3-0.3l0.3-1.3l1.3,0.3L562.6,133z M178.4,132.6l-0.3-1.3
			l1.3-0.3l0.3,1.3L178.4,132.6z M559.9,132.4l-1.3-0.3l0.3-1.3l1.4,0.3L559.9,132.4z M181.1,132l-0.3-1.3l1.3-0.3l0.3,1.3
			L181.1,132z M557.2,131.9l-1.3-0.3l0.3-1.4l1.4,0.3L557.2,131.9z M183.7,131.4l-0.3-1.3l1.3-0.3l0.3,1.3L183.7,131.4z
			 M554.5,131.4l-1.3-0.3l0.3-1.4l1.4,0.3L554.5,131.4z M551.8,130.8l-1.3-0.2l0.2-1.4l1.4,0.2L551.8,130.8z M186.4,130.8l-0.3-1.3
			l1.4-0.3l0.3,1.3L186.4,130.8z M549.1,130.4l-1.4-0.2l0.2-1.4l1.4,0.2L549.1,130.4z M189.1,130.3l-0.3-1.4l1.4-0.3l0.3,1.4
			L189.1,130.3z M546.4,129.9l-1.4-0.2l0.2-1.4l1.4,0.2L546.4,129.9z M191.8,129.8l-0.3-1.4l1.4-0.3l0.2,1.4L191.8,129.8z
			 M543.7,129.4l-1.4-0.2l0.2-1.4l1.4,0.2L543.7,129.4z M194.5,129.3l-0.2-1.4l1.4-0.2l0.2,1.4L194.5,129.3z M541,129l-1.4-0.2
			l0.2-1.4l1.4,0.2L541,129z M197.2,128.8l-0.2-1.4l1.4-0.2l0.2,1.4L197.2,128.8z M538.3,128.6l-1.4-0.2l0.2-1.4l1.4,0.2
			L538.3,128.6z M199.9,128.3l-0.2-1.4l1.4-0.2l0.2,1.4L199.9,128.3z M535.6,128.2l-1.4-0.2l0.2-1.4l1.4,0.2L535.6,128.2z
			 M202.6,127.9l-0.2-1.4l1.4-0.2l0.2,1.4L202.6,127.9z M532.9,127.8l-1.4-0.2l0.2-1.4l1.4,0.2L532.9,127.8z M205.3,127.4l-0.2-1.4
			l1.4-0.2l0.2,1.4L205.3,127.4z M530.2,127.4l-1.4-0.2l0.2-1.4l1.4,0.2L530.2,127.4z M527.4,127l-1.4-0.2l0.2-1.4l1.4,0.2
			L527.4,127z M208,127l-0.2-1.4l1.4-0.2l0.2,1.4L208,127z M524.7,126.7l-1.4-0.2l0.2-1.4l1.4,0.2L524.7,126.7z M210.8,126.6
			l-0.2-1.4l1.4-0.2l0.2,1.4L210.8,126.6z M522,126.3l-1.4-0.2l0.2-1.4l1.4,0.2L522,126.3z M213.5,126.2l-0.2-1.4l1.4-0.2l0.2,1.4
			L213.5,126.2z M519.3,126l-1.4-0.2l0.2-1.4l1.4,0.2L519.3,126z M216.2,125.9l-0.2-1.4l1.4-0.2l0.2,1.4L216.2,125.9z M516.5,125.7
			l-1.4-0.2l0.2-1.4l1.4,0.2L516.5,125.7z M218.9,125.5l-0.2-1.4l1.4-0.2l0.2,1.4L218.9,125.5z M513.8,125.4l-1.4-0.2l0.2-1.4
			l1.4,0.2L513.8,125.4z M221.6,125.1l-0.2-1.4l1.4-0.2l0.2,1.4L221.6,125.1z M511.1,125.1l-1.4-0.1l0.1-1.4l1.4,0.1L511.1,125.1z
			 M224.4,124.8l-0.2-1.4l1.4-0.2l0.2,1.4L224.4,124.8z M508.3,124.8l-1.4-0.1l0.1-1.4l1.4,0.1L508.3,124.8z M227.1,124.5l-0.2-1.4
			l1.4-0.2l0.2,1.4L227.1,124.5z M505.6,124.5l-1.4-0.1l0.1-1.4l1.4,0.1L505.6,124.5z M502.9,124.2l-1.4-0.1l0.1-1.4l1.4,0.1
			L502.9,124.2z M229.8,124.2l-0.2-1.4l1.4-0.2l0.2,1.4L229.8,124.2z M500.1,123.9l-1.4-0.1l0.1-1.4l1.4,0.1L500.1,123.9z
			 M232.6,123.9l-0.1-1.4l1.4-0.1l0.1,1.4L232.6,123.9z M497.4,123.7l-1.4-0.1l0.1-1.4l1.4,0.1L497.4,123.7z M235.3,123.6l-0.1-1.4
			l1.4-0.1l0.1,1.4L235.3,123.6z M494.7,123.4l-1.4-0.1l0.1-1.4l1.4,0.1L494.7,123.4z M238,123.3l-0.1-1.4l1.4-0.1l0.1,1.4
			L238,123.3z M491.9,123.2l-1.4-0.1l0.1-1.4l1.4,0.1L491.9,123.2z M240.7,123.1l-0.1-1.4l1.4-0.1l0.1,1.4L240.7,123.1z M489.2,123
			l-1.4-0.1l0.1-1.4l1.4,0.1L489.2,123z M243.5,122.8l-0.1-1.4l1.4-0.1l0.1,1.4L243.5,122.8z M486.5,122.8l-1.4-0.1l0.1-1.4l1.4,0.1
			L486.5,122.8z M246.2,122.5l-0.1-1.4l1.4-0.1l0.1,1.4L246.2,122.5z M483.7,122.5l-1.4-0.1l0.1-1.4l1.4,0.1L483.7,122.5z
			 M481,122.3l-1.4-0.1l0.1-1.4l1.4,0.1L481,122.3z M249,122.3l-0.1-1.4l1.4-0.1l0.1,1.4L249,122.3z M478.2,122.1l-1.4-0.1l0.1-1.4
			l1.4,0.1L478.2,122.1z M251.7,122.1l-0.1-1.4l1.4-0.1l0.1,1.4L251.7,122.1z M475.5,121.9l-1.4-0.1l0.1-1.4l1.4,0.1L475.5,121.9z
			 M254.4,121.9l-0.1-1.4l1.4-0.1l0.1,1.4L254.4,121.9z M472.8,121.7l-1.4-0.1l0.1-1.4l1.4,0.1L472.8,121.7z M257.2,121.6l-0.1-1.4
			l1.4-0.1l0.1,1.4L257.2,121.6z M470,121.6l-1.4-0.1l0.1-1.4l1.4,0.1L470,121.6z M259.9,121.4l-0.1-1.4l1.4-0.1l0.1,1.4
			L259.9,121.4z M467.3,121.4l-1.4-0.1l0.1-1.4l1.4,0.1L467.3,121.4z M262.7,121.2l-0.1-1.4l1.4-0.1l0.1,1.4L262.7,121.2z
			 M464.5,121.2l-1.4-0.1l0.1-1.4l1.4,0.1L464.5,121.2z M461.8,121.1l-1.4-0.1l0.1-1.4l1.4,0.1L461.8,121.1z M265.4,121.1l-0.1-1.4
			l1.4-0.1l0.1,1.4L265.4,121.1z M459,120.9l-1.4-0.1l0.1-1.4l1.4,0.1L459,120.9z M268.1,120.9l-0.1-1.4l1.4-0.1l0.1,1.4
			L268.1,120.9z M456.3,120.8l-1.4-0.1l0.1-1.4l1.4,0.1L456.3,120.8z M270.9,120.7l-0.1-1.4l1.4-0.1l0.1,1.4L270.9,120.7z
			 M453.6,120.6l-1.4-0.1l0.1-1.4l1.4,0.1L453.6,120.6z M273.6,120.5l-0.1-1.4l1.4-0.1l0.1,1.4L273.6,120.5z M450.8,120.5l-1.4-0.1
			l0.1-1.4l1.4,0.1L450.8,120.5z M276.4,120.4l-0.1-1.4l1.4-0.1l0.1,1.4L276.4,120.4z M448.1,120.3l-1.4-0.1l0.1-1.4l1.4,0.1
			L448.1,120.3z M279.1,120.2l-0.1-1.4l1.4-0.1l0.1,1.4L279.1,120.2z M445.3,120.2l-1.4-0.1l0.1-1.4l1.4,0.1L445.3,120.2z
			 M281.9,120.1l-0.1-1.4l1.4-0.1l0.1,1.4L281.9,120.1z M442.6,120.1l-1.4-0.1l0.1-1.4l1.4,0.1L442.6,120.1z M439.8,120l-1.4-0.1
			l0.1-1.4l1.4,0.1L439.8,120z M284.6,120l-0.1-1.4l1.4-0.1l0.1,1.4L284.6,120z M437.1,119.9l-1.4-0.1l0.1-1.4l1.4,0.1L437.1,119.9z
			 M287.3,119.8l-0.1-1.4l1.4-0.1l0.1,1.4L287.3,119.8z M434.3,119.7l-1.4-0.1l0.1-1.4l1.4,0.1L434.3,119.7z M290.1,119.7l-0.1-1.4
			l1.4-0.1l0.1,1.4L290.1,119.7z M431.6,119.6l-1.4-0.1l0.1-1.4l1.4,0.1L431.6,119.6z M292.8,119.6l-0.1-1.4l1.4-0.1l0.1,1.4
			L292.8,119.6z M428.8,119.5l-1.4,0l0-1.4l1.4,0L428.8,119.5z M295.6,119.5l-0.1-1.4l1.4-0.1l0.1,1.4L295.6,119.5z M426.1,119.4
			l-1.4,0l0-1.4l1.4,0L426.1,119.4z M298.3,119.4l-0.1-1.4l1.4-0.1l0,1.4L298.3,119.4z M423.4,119.4l-1.4,0l0-1.4l1.4,0L423.4,119.4
			z M420.6,119.3l-1.4,0l0-1.4l1.4,0L420.6,119.3z M301.1,119.3l0-1.4l1.4,0l0,1.4L301.1,119.3z M417.9,119.2l-1.4,0l0-1.4l1.4,0
			L417.9,119.2z M303.8,119.2l0-1.4l1.4,0l0,1.4L303.8,119.2z M415.1,119.1l-1.4,0l0-1.4l1.4,0L415.1,119.1z M306.6,119.1l0-1.4
			l1.4,0l0,1.4L306.6,119.1z M412.4,119l-1.4,0l0-1.4l1.4,0L412.4,119z M309.3,119l0-1.4l1.4,0l0,1.4L309.3,119z M409.6,119l-1.4,0
			l0-1.4l1.4,0L409.6,119z M312.1,118.9l0-1.4l1.4,0l0,1.4L312.1,118.9z M406.9,118.9l-1.4,0l0-1.4l1.4,0L406.9,118.9z M314.8,118.9
			l0-1.4l1.4,0l0,1.4L314.8,118.9z M404.1,118.8l-1.4,0l0-1.4l1.4,0L404.1,118.8z M401.4,118.8l-1.4,0l0-1.4l1.4,0L401.4,118.8z
			 M317.5,118.8l0-1.4l1.4,0l0,1.4L317.5,118.8z M398.6,118.7l-1.4,0l0-1.4l1.4,0L398.6,118.7z M320.3,118.7l0-1.4l1.4,0l0,1.4
			L320.3,118.7z M395.9,118.7l-1.4,0l0-1.4l1.4,0L395.9,118.7z M323,118.7l0-1.4l1.4,0l0,1.4L323,118.7z M393.1,118.6l-1.4,0l0-1.4
			l1.4,0L393.1,118.6z M325.8,118.6l0-1.4l1.4,0l0,1.4L325.8,118.6z M390.4,118.6l-1.4,0l0-1.4l1.4,0L390.4,118.6z M328.5,118.6
			l0-1.4l1.4,0l0,1.4L328.5,118.6z M387.6,118.6l-1.4,0l0-1.4l1.4,0L387.6,118.6z M331.3,118.5l0-1.4l1.4,0l0,1.4L331.3,118.5z
			 M384.9,118.5l-1.4,0l0-1.4l1.4,0L384.9,118.5z M382.1,118.5l-1.4,0l0-1.4l1.4,0L382.1,118.5z M334,118.5l0-1.4l1.4,0l0,1.4
			L334,118.5z M379.4,118.5l-1.4,0l0-1.4l1.4,0L379.4,118.5z M336.8,118.5l0-1.4l1.4,0l0,1.4L336.8,118.5z M376.6,118.4l-1.4,0
			l0-1.4l1.4,0L376.6,118.4z M339.5,118.4l0-1.4l1.4,0l0,1.4L339.5,118.4z M373.9,118.4l-1.4,0l0-1.4l1.4,0L373.9,118.4z
			 M342.3,118.4l0-1.4l1.4,0l0,1.4L342.3,118.4z M371.1,118.4l-1.4,0l0-1.4l1.4,0L371.1,118.4z M345,118.4l0-1.4l1.4,0l0,1.4
			L345,118.4z M368.4,118.4l-1.4,0l0-1.4l1.4,0L368.4,118.4z M347.8,118.4l0-1.4l1.4,0l0,1.4L347.8,118.4z M365.6,118.4l-1.4,0
			l0-1.4l1.4,0L365.6,118.4z M362.9,118.4l-1.4,0l0-1.4l1.4,0L362.9,118.4z M350.7,118.4l-0.1-0.7l0.1-0.7l1.3,0l0,1.4L350.7,118.4z
			 M360.1,118.4l-1.4,0l0-1.4l1.4,0L360.1,118.4z M353.3,118.4l0-1.4l1.4,0v1.4L353.3,118.4z M357.4,118.4H356V117h1.4V118.4z
			 M350.5,117.7V117V117.7z"/>
		<path d="M608.8,152.5c0,0-0.1-0.2-0.2-0.5l1.2-0.7c0.3,0.4,0.4,0.7,0.4,0.8L608.8,152.5L608.8,152.5z"/>
	</g>
</g>
<g id="CK_LOGO">
	<g id="FILL_1_">
		<g>
			<g>
				<g>
					<g>
						<path d="M186.9,377.5l-0.6,0l-33.9-0.2c-10.2-0.1-18.4-8.4-18.4-18.6c0.1-10,8-18.1,18-18.3l0.6,0l33.9,0.2
							c10.2,0.1,18.4,8.4,18.4,18.6C204.8,369.2,196.9,377.2,186.9,377.5z M152.1,342.3c-8.9,0.2-16,7.4-16.1,16.4
							c-0.1,9.1,7.3,16.5,16.4,16.6l34.4,0.2c8.9-0.2,16-7.4,16-16.4c0.1-9.1-7.3-16.5-16.4-16.6L152.1,342.3z"/>
					</g>
					<g>
						<path d="M140.5,358.7c0-6.7,5.3-12.2,12-12.6l-0.2,25.4C145.6,371,140.4,365.4,140.5,358.7z"/>
						<polygon fill-rule="evenodd" clip-rule="evenodd" points="165.5,357.2 154.5,346 165.6,346.1 						"/>
						<polygon fill-rule="evenodd" clip-rule="evenodd" points="165.5,360.5 154.4,371.5 165.4,371.6 						"/>
					</g>
					<g>
						<polygon fill-rule="evenodd" clip-rule="evenodd" points="179.4,357.2 190.6,346.2 179.5,346.2 						"/>
						<polygon fill-rule="evenodd" clip-rule="evenodd" points="179.4,360.6 190.4,371.7 179.3,371.7 						"/>
						<g>
							
								<rect x="159.7" y="354.3" transform="matrix(5.892445e-03 -1 1 5.892445e-03 -187.4024 529.2267)" width="25.5" height="9.2"/>
							<path d="M172.5,358.9"/>
						</g>
					</g>
				</g>
			</g>
		</g>
	</g>
</g>
<g id="SHADING">
	<g opacity="2.000000e-02">
		<path d="M119.1,142.1c18.3,10.2,43,20.5,76,28.5c0.1-1.5,0.2-2.5,0.2-2.5s-22.3-6-37.6-10.8C147.3,154.1,129.7,146.7,119.1,142.1"
			/>
		<path d="M604.9,191c-2.2,0-5.3,1.1-7.9,1.6c-4.4,0.9-28.4,9.9-40.8,11.7c-12.4,1.8-73.6,7.2-73.6,7.2l7.1,0.9
			c0,0,19.5,52.4,15.1,77.7c-4.4,25.3-10.6,44.3-29.3,93.1c-18.6,48.8,43.4,56,48.8,60.5c5.3,4.5,48.8,20.8,52.3,22.6
			c3.5,1.8-4.4,61.2-10.6,94.6c-6.2,33.4,28.4,65.1,39,93.1c10.6,28-12.4,33.4-23,50.6c-10.6,17.2-8,93.7-15.1,113.6
			c-7.1,19.9,0.9,70.9,0.9,70.9s18.6,0.9,30.1,0.9c11.5,0,25.7-1.8,25.7-1.8s0.9-25.7,2.7-33.9c1.8-8.1,5.3-13.6,9.8-21.7
			c4.4-8.1,20.4-54,20.4-60.3c0-6.3,3.5-75.9,4.4-88.6c0.9-12.7,3.5-54.2,5.3-70.5c1.8-16.3-15.1-116.3-23.9-138.9
			c-8.9-22.6-25.7-75.9-29.3-100.3c-3.5-24.4-8.9-50.6-18.6-84c-9.8-33.4-25.7-25.3-32.8-37c-7.1-11.7-11.5-21.7-11.5-29.8
			c0-8.1,5.3-10.8,5.3-10.8s34.6-8.1,38.1-9.9c3.5-1.8,14.2-4.5,14.2-9l0,0c0-0.2-0.1-0.5-0.1-0.8C607.3,191.4,606.2,191,604.9,191"
			/>
		<path d="M678.3,505.1c1.3,13.3,2.5,24.1,3.5,27.1c0.6,1.8,1.1,3.5,1.6,5.3C681.8,527.8,680.1,516.8,678.3,505.1 M666.4,421.7
			c3.7,27.1,8,57.1,11.9,83.4c-2.6-26.8-5.5-63.7-7.1-67C670.5,436.7,668.6,430.2,666.4,421.7 M623,143.2c-1.2,1.5-3.1,3.3-6,5.4
			l-0.2,0.2c-5.6,6.2-18.9,10.9-18.9,10.9s2.9,9.1,3.5,10.9c0.6,1.8,4.1,4.2,4.1,4.2s1.5,13.5,2,17.8c0.1,0.2,0.1,0.5,0.1,0.8l0,0
			c0.3,3-4.4,9-4.4,9v12l4.5,0.5c0,0,18,51.9,20.4,60.9c2.4,9,14.2,48.2,14.2,54.8c0,6.6,9.5,31.9,10.1,34.9
			c0.4,2.1,8.6,35.1,14.1,55.9c-5.9-42.4-10.6-77.6-11.1-79.4c-1.8-5.4-11.7-49-12.1-53.7c-0.3-4.7-3.3-23.4-4.5-27
			c-1.2-3.6-2.4-12.8-2.2-18.5c0.2-5.7-1.2-12.1-1.2-12.1l-0.5-8.5l-2.9-8.3c0,0-3.8-10.5-3.8-12.9c0-2.4-2.4-7.8-2.7-10.8
			c-0.3-3-0.3-6.6-0.3-6.6s-0.1-7.8,0-10.8c0,0,0.2-8.4-0.2-12c-0.4-3.6-2-9.9-2-12.9C622.9,147.2,623,145.2,623,143.2"/>
		<g>
			<defs>
				<path id="SVGID_1_" d="M607.5,192.7c0,0.3,0.1,0.6,0.1,0.8C607.6,193.2,607.6,192.9,607.5,192.7"/>
			</defs>
			<use xlink:href="#SVGID_1_"  overflow="visible"/>
			<clipPath id="SVGID_00000121254241889460498450000012861396500010211476_">
				<use xlink:href="#SVGID_1_"  overflow="visible"/>
			</clipPath>
			<g clip-path="url(#SVGID_00000121254241889460498450000012861396500010211476_)">
				
					<image overflow="visible" width="3" height="4" xlink:href="A246F765.jpg"  transform="matrix(0.6605 0 0 -0.6605 606.7473 194.3264)">
				</image>
			</g>
		</g>
		<path d="M622.3,139.4C622.3,139.4,622.3,139.4,622.3,139.4c0,0-2.9,6.5-5.3,9.2c2.9-2,4.8-3.8,6-5.4
			C623,141.2,622.9,139.4,622.3,139.4"/>
		<path d="M689.7,573.5c0.4,8.8,0.5,17.3,2.7,22.2c0.1,0.1,0.1,0.2,0.1,0.2C693,595.8,691.8,587.2,689.7,573.5"/>
		<path d="M683.4,537.4c2.5,15.2,4.7,25.4,6.4,36c-0.2-5.2-0.5-10.5-1.4-15.2C686.4,548.2,685.3,544.5,683.4,537.4"/>
		<g>
			<path d="M110.3,138.3l-1.8,44.7c0,0-3,12.9-5.3,19c-2.4,6-3.5,33.7-5.3,39.5c-1.8,5.7-0.6,19.6-3,30.4
				c-2.4,10.8-31,96.1-36.6,109.6c-5.6,13.6,6.2,43.4,3.8,59C59.8,456.2,42,591.4,37.3,631.2c-4.7,39.8,17.7,223,17.7,223l1.5,15.7
				c0,0,0.9,6.3,6.2,10.8c5.3,4.5,77.1,13.3,98.4,13.3c21.3,0,100.7-21.6,100.7-21.6s3.5-62.5,8.5-97.6c5.5-38.5,15-90.4,24.6-127.6
				c2.2-9.7,4.5-19.1,7-27c2.4-7.7,5.9-13.4,8.8-17.1c0.2-0.3,0.5-0.6,0.7-0.9c2.7-3.2,4.7-4.8,4.7-4.8s-21.3-12-24.8-12
				c-3.5,0-26-12-43.7-30.1c-17.7-18.1-68.6-84.7-75.6-91.9c-5.4-5.5-18.4-15.3-25.8-15.3c-2.3,0-4.1,0.9-4.9,3.2
				c-3.5,9.6-4.7,66.6-3.5,108.8c1.2,42.2-5.9,38.6-8.3,72.3c-2.4,33.7,3.5,39.8,9.5,57.8c5.9,18.1,23.6,61.4,31.9,89.2
				c8.3,27.7-13,109.7-13,109.7l-44.6-1.2l3.5-39.8c0,0,0-10.8,0-16.9c0-6-8.3-44.7-10.6-70c-2.4-25.3-9.5-50.6-9.5-66.3
				c0-15.7-15.6-78.3-3.8-128.9c11.8-50.6,11.8-183.5,24.8-201.5c13-18.1,35.5-10.8,46.1-30.1c10.6-19.3-7.1-38.6-7.1-47
				c0-8.4,8.3-18.1,15.4-21.7c7.1-3.6,24.8-13.3,39-25.3C225,228.5,225,220,225,220s0,0-16.5-8.4c-13.9-7.1-13.8-32.9-13.4-41
				c-33-8-57.7-18.3-76-28.5C113.9,139.8,110.3,138.3,110.3,138.3"/>
		</g>
	</g>
</g>
</svg>
