<?xml version="1.0" encoding="utf-8"?>
<!-- Generator: Adobe Illustrator 26.0.2, SVG Export Plug-In . SVG Version: 6.00 Build 0)  -->
<svg version="1.1" xmlns="http://www.w3.org/2000/svg" xmlns:xlink="http://www.w3.org/1999/xlink" x="0px" y="0px"
	 viewBox="0 0 615.6 1000" enable-background="new 0 0 747.6 1000" xml:space="preserve">

<g id="OUTLINE">
	<path fill="#FFFFFF" stroke="#A39E9B" stroke-miterlimit="10" d="M706.7,628.6c-0.3-19.3-3.6-61.3-6.3-74.5
		c-2.7-13.2-10.7-82.2-14-102.1c-3.3-19.9-20.6-143.1-21.2-144.9c-0.6-1.8-6.9-23-7.2-25.7c-0.3-2.8-8-25.7-8.9-29.4
		c-0.9-3.7-1.8-22.7-2.4-26c-0.6-3.4-3.3-24.8-4.2-30c-0.9-5.2-3.9-17.5-4.8-19.3c-0.9-1.8-1.8-8.3-1.8-10.1c0-1.8,0.6-4.3,0.3-5.8
		c-0.3-1.5-1.5-4.3-1.5-6.1c0-1.8,1.8-8,1.2-11c-0.6-3.1-3-6.1-3-12c0-5.8,1.2-10.6,1.2-10.6s-1.1,0.6-3,1.7
		c-0.6-2.6-12.2-25.8-233.1-22.9c-233.7,3.1-281.4,9.8-280.2,21.6c0,0.2,0.1,0.5,0.1,0.7c-0.5,1.1-1.1,2.9-1,3.4
		c0.2,0.8,0.3,7.5-0.2,10.2c-0.4,2.7-1.1,6.8-1.7,8.4c-0.6,1.6-0.3,11-0.3,12.9c0,1.8,0.3,7.4,0.4,8.1c0.1,0.6,0.4,6.5-0.5,9.1
		c-1,2.6-1.2,3.2-1.2,3.2l-5.3,21c0,0-2.4,3.4-2.9,8.4c-0.5,5-0.5,8.6-0.5,8.6s-1.4,3.8-1.4,6.5c0,2.7,0.2,5.8,0.2,5.8
		s-0.4,6.6-1.4,12c-1,5.3-1.6,9.8-1.6,9.8s-2.5,8.8-2.6,10.6c-0.2,1.8-0.8,11.3-1.1,13.9c-0.4,2.6-3.2,17.7-4.8,24.8
		c-1.7,7.1-15.7,54.4-20.4,70.9c-4.8,16.5-13.7,43.5-14.3,47.8c-0.6,4.3-9.2,56.4-10.1,63.7c-0.9,7.4-11,107.3-11.9,114
		c-0.9,6.7-1.2,40.1-0.3,63.4c0.9,23.3,2.7,57,4.5,67.7c1.7,10.1,6.9,63.1,7,63.3c0.5,2.6,1.9,12.1,2.6,17.5c0.2,1.7,0.3,3,0.3,3.6
		c0,2.5,0.9,11.3,0.9,12.6c0,1.2-0.6,5.5-0.6,5.5s-1.5,3.4-0.6,4.9c0.9,1.5,3,2.8,3,4c0,1.2-0.9,3.7-0.9,3.7s0,0.3,0,0.8
		c0,1.2,0,3.5,0,4.4c0,1.2,0.9,18.1,2.1,19.9c1.2,1.8,2.1,4.3,6,5.2c2.4,0.6,9.4,1.8,17.5,2.9c5.1,0.7,10.6,1.3,15.6,1.7
		c5.2,0.4,16.6,2.8,31.3,5.1c13.6,2.2,30,4.3,46.9,4.8c3.9,0.1,7.8,0.1,11.7,0c3.9-0.1,7.8-0.3,11.7-0.6c1.9-0.2,3.8-0.3,5.7-0.6
		c2-0.2,4-0.5,6-0.7v0c12.7-1.6,24.6-3.3,35.2-4.9v-2.2h11.7v0h-11.7v2.2c4.1-0.6,8.1-1.3,11.7-1.8v0c13.1-2.1,22.7-3.9,26.7-4.6
		c0,0,0,0.1,0,0.1c0,0,15.3-4.5,17.9-6.2c3-1.9,14.7-73.6,18.1-74c1-2.3,1.9-4.4,2.6-6.1c3-7.4,16.3-74,19.9-84.7
		c3.6-10.7,14-48.1,15.5-54.2c1.5-6.1,8.9-35.2,9.2-39.5c0.3-4.3,4.2-18.1,4.2-18.1l17.6-5.5c0,0,19.1,92.5,27.7,120.1
		c7,22.4,17.8,68,21.6,84.4l14.3,71.4c0,0,5.2,9.6,26.1,14.7c0.8,0.9,2.2,2.3,3.8,2.5c2.4,0.3,7.2,0,7.2,0s0.5,0.1,1.5,0.2v0
		c6.4,1,32.5,5.1,55.9,8.6c4.5,0.7,9.4,1.1,14.4,1.4c7.4,0.5,15.3,0.5,23.4,0.4c3.9-0.1,7.8-0.2,11.7-0.4
		c11.8-0.6,23.7-1.7,35.2-2.9c3.4-0.4,6.7-0.7,9.9-1.1c5-0.6,9.5-1.2,13.5-1.7c4.4-0.6,8.3-1.2,11.7-1.7c4.9-0.8,8.7-1.5,11.7-2.1
		c2.2-0.4,3.9-0.8,5.2-1.2c1.5-0.4,2.6-0.7,3.1-0.9c1.4-0.5,2.5-1.1,3.4-1.9c0.9-0.8,1.5-1.7,2-2.7c0.8-1.9,0.9-5.3,0.9-6.2
		c0-0.1,0-0.2,0-0.2s4.5-28.2,4.8-31.3c0-0.4,0.1-1.7,0.3-3.6c0.5-6.6,3.1-41.9,3.1-42.2c0-0.9,1.2-27.3,1.5-29.5
		c0.3-2.1,4.5-40.1,4.5-43.2C702.5,712.6,707,647.9,706.7,628.6z"/>
</g>
<g id="CAMO3">
	<rect x="88.3" y="807.2" fill="#FFFFFF" width="11.7" height="11.7"/>
	<path fill="#FFFFFF" d="M193.8,877.3h11.7v-11.7h11.7v11.7H229v-11.7v-11.7h11.7v-11.7h11.7v-11.7h-11.7H229h-11.7h-11.7v-11.7
		h-11.7h-11.7h-11.7v-11.7h-11.7v-4c-8.2-0.2-16-0.5-23.4-1v5h-11.7v11.7v11.7h-11.7v-11.7H100v11.7H88.3v11.7H76.6v11.7h11.7v11.7
		H76.6v9.1c5.1,0.7,10.6,1.3,15.6,1.7c5.2,0.4,16.6,2.8,31.3,5.1v-4.1v-11.7h11.7h11.7h11.7v11.7h11.7v8.9c3.9,0.1,7.8,0.1,11.7,0
		v-9H193.8z M158.6,842.2h-11.7v11.7h-11.7v-11.7h11.7v-11.7h-11.7v-11.7h11.7v11.7h11.7V842.2z"/>
	<path fill="#FFFFFF" d="M240.7,877.3v2.2c4.1-0.6,8.1-1.3,11.7-1.8v-0.3H240.7z"/>
	<path fill="#FFFFFF" d="M693.2,834c0-0.4,0.1-1.7,0.3-3.6h-7.9v11.7h-11.7v11.7h-11.7v-11.7h-11.7h-11.7v11.7v11.7v11.7h11.7v5
		c4.4-0.6,8.3-1.2,11.7-1.7v-3.3h11.7h5.2c1.5-0.4,2.6-0.7,3.1-0.9c1.4-0.5,2.5-1.1,3.4-1.9v-8.9h2.9c0-0.1,0-0.2,0-0.2
		S692.9,837.1,693.2,834z"/>
	<path fill="#FFFFFF" d="M580.1,818.8v11.7h11.7v-11.7h11.7v11.7v11.7h11.7v-11.7H627v-11.7h-11.7v-9.6c-8.2,0.4-16.9,0.8-25.9,0.9
		c-7.1,0.1-14.2,0.1-21-0.1v8.8H580.1z"/>
</g>
<g id="CAMO2">
	<rect x="146.9" y="830.5" width="11.7" height="11.7"/>
	<rect x="135.2" y="818.8" width="11.7" height="11.7"/>
	<rect x="135.2" y="842.2" width="11.7" height="11.7"/>
	<path d="M158.6,877.3v-11.7h-11.7h-11.7h-11.7v11.7v4.1c13.6,2.2,30,4.3,46.9,4.8v-8.9H158.6z"/>
	<path d="M46.3,789.6c0.5,2.6,1.9,12.1,2.6,17.5h4.2v-11.7v-5.1c-2.4-0.6-4.8-1.2-7-1.8C46.2,789.1,46.3,789.4,46.3,789.6z"/>
	<path d="M88.3,865.6v-11.7H76.6H64.9H53.2v-11.7h-2.1c0,1.2,0,3.5,0,4.4c0,1.2,0.9,18.1,2.1,19.9c1.2,1.8,2.1,4.3,6,5.2
		c2.4,0.6,9.4,1.8,17.5,2.9v-9.1H88.3z"/>
	<path d="M182.1,877.3v9c3.9-0.1,7.8-0.3,11.7-0.6v-8.3H182.1z"/>
	<path d="M280.1,865.3c-0.4-5.1,0.4-6.7,2.5-10.1s2.1-4.2,1.7-7.6c-0.4-3.4-1.3-5.9,0.4-11c1.7-5.1,1.3-8.8-0.4-14.3
		c-0.3-1-0.3-2.2-0.2-3.5h-8.3v11.7h-11.7v-11.7h-11.7v-11.7h-11.7v-6.4c-3.9,0.3-7.8,0.6-11.7,0.8v5.6h-11.7v-4.9
		c-15.6,0.8-31.4,1.2-46.9,1.1v3.8v11.7h11.7h11.7h11.7v11.7h11.7H229v-11.7h11.7v11.7h11.7v11.7h11.7v11.7h-11.7v-11.7h-11.7v11.7
		H229v11.7v11.7h-11.7v-11.7h-11.7v11.7v7.1c12.7-1.6,24.6-3.3,35.2-4.9v-2.2h11.7v0.3c13.8-2.2,23.7-4.1,27.3-4.8
		C279.9,869.7,280.2,866.4,280.1,865.3z"/>
	<path d="M287.6,796.4v8.7c0.9-2.8,1.7-5.8,2.5-9C289.2,796.2,288.4,796.3,287.6,796.4z"/>
	<path d="M474.6,818.8v-11.7h11.7v-6.5c-9.3-1.8-17.2-3.6-23.4-5.2c1.6,7.6,3.1,15.5,4.4,23.4H474.6z"/>
	<path d="M474.6,853.8v-11.7h-3.7c0.6,4,1.1,7.9,1.5,11.7H474.6z"/>
	<rect x="662.1" y="842.1" width="11.7" height="11.7"/>
	<path d="M662.1,877.2v3.3c4.9-0.8,8.7-1.5,11.7-2.1v-1.2H662.1z"/>
	<polygon points="673.8,830.4 673.8,842.1 685.6,842.1 685.6,830.4 685.6,818.8 673.8,818.8 	"/>
	<path d="M568.4,818.8V810c-4-0.1-7.9-0.3-11.7-0.5v9.3H568.4z"/>
	<path d="M650.4,807.1v-0.7c-2.2,0.2-4.4,0.5-6.6,0.7H650.4z"/>
	<path d="M627,818.8v-10.3c-3.8,0.3-7.7,0.5-11.7,0.7v9.6H627z"/>
	<path d="M638.7,877.2v-11.7v-11.7H627h-11.7v11.7v11.7H627v7.9c3.4-0.4,6.7-0.7,9.9-1.1c5-0.6,9.5-1.2,13.5-1.7v-5H638.7z"/>
	<path d="M591.8,877.2h-11.7v11.2c3.9-0.1,7.8-0.2,11.7-0.4V877.2z"/>
	<path d="M688.5,865.5h-2.9v8.9c0.9-0.8,1.5-1.7,2-2.7C688.3,869.9,688.4,866.4,688.5,865.5z"/>
	<path d="M556.6,888v-10.8h-11.7v-11.7h11.7v-11.7h11.7v-11.7h11.7v11.7h11.7v11.7h11.7v-11.7h11.7v-11.7h-11.7v-11.7v-11.7h-11.7
		v11.7h-11.7v-11.7h-11.7v11.7h-11.7h-11.7h-11.7v11.7v11.7h-11.7v11.7h11.7v11.7h-11.7v-11.7h-11.7v11.7H498h-11.7v0.8
		c6.4,1,32.5,5.1,55.9,8.6C546.8,887.3,551.6,887.7,556.6,888z"/>
</g>
<g id="CAMO1">
	<path fill="#64625F" d="M451.7,865.5c0.5,0.4,0.9,0.7,1.4,1.1C452.7,866.3,452.3,865.9,451.7,865.5L451.7,865.5z"/>
	<path fill="#64625F" d="M455,868c-0.6-0.4-1.1-0.8-1.7-1.3C453.8,867.2,454.4,867.6,455,868z"/>
	<path fill="#64625F" d="M521.5,806.3v0.8h-11.7v-2.4c-8.5-1.3-16.4-2.7-23.4-4.1v6.5h-11.7v11.7h-7.3c1.4,8,2.6,15.9,3.6,23.4h3.7
		v11.7h-2.1c1,8.2,1.8,15.6,2.3,21.6c-0.1-0.1-0.1-0.1-0.1-0.1s-0.3-0.1-0.9-0.2c0.8,0.9,2.3,2.5,3.9,2.7c2.4,0.3,7.2,0,7.2,0
		s0.5,0.1,1.5,0.2v-0.8H498h11.7v-11.7h11.7v-11.7h11.7v-11.7v-11.7v-11.7h11.7v-10.1C536.8,808,528.9,807.2,521.5,806.3z"/>
	<path fill="#64625F" d="M158.6,803.2v4h11.7v-3.8c-1.4,0-2.9,0-4.3,0C163.5,803.3,161.1,803.3,158.6,803.2z"/>
	<path fill="#64625F" d="M53.2,853.9h11.7h11.7v-11.7h11.7v-11.7H100v-11.7H88.3v-11.7H100v11.7h11.7v11.7h11.7v-11.7v-11.7h11.7v-5
		c-35.3-2.2-62.5-7.1-82-11.8v5.1v11.7h-4.2c0.2,1.7,0.3,3,0.3,3.6c0,2.5,0.9,11.3,0.9,12.6c0,1.2-0.6,5.5-0.6,5.5s-1.5,3.4-0.6,4.9
		c0.9,1.5,3,2.8,3,4c0,1.2-0.9,3.7-0.9,3.7s0,0.3,0,0.8h2.1V853.9z"/>
	<rect x="229" y="818.8" fill="#64625F" width="11.7" height="11.7"/>
	<rect x="521.5" y="865.5" fill="#64625F" width="11.7" height="11.7"/>
	<path fill="#64625F" d="M193.8,877.3v8.3c1.9-0.2,3.8-0.3,5.7-0.6c2-0.2,4-0.5,6-0.7v-7.1H193.8z"/>
	<rect x="252.4" y="842.2" fill="#64625F" width="11.7" height="11.7"/>
	<path fill="#64625F" d="M287.6,796.4c-14.8,1.7-30.6,3.2-46.9,4.4v6.4h11.7v11.7h11.7v11.7h11.7v-11.7h8.3
		c0.3-3.5,1.8-8.2,3.5-13.7V796.4z"/>
	<path fill="#64625F" d="M287.6,807.2v-2c-1.7,5.5-3.2,10.2-3.5,13.7h3.5V807.2z"/>
	<path fill="#64625F" d="M229,807.2v-5.6c-3.9,0.2-7.8,0.5-11.7,0.7v4.9H229z"/>
	<path fill="#64625F" d="M673.8,878.4c2.2-0.4,3.9-0.8,5.2-1.2h-5.2V878.4z"/>
	<path fill="#64625F" d="M533.2,818.8v11.7h11.7h11.7h11.7v-11.7h-11.7v-9.3c-4-0.2-7.9-0.5-11.7-0.8v10.1H533.2z"/>
	<path fill="#64625F" d="M521.5,807.1v-0.8c-4-0.5-7.9-1.1-11.7-1.6v2.4H521.5z"/>
	<path fill="#64625F" d="M615.2,877.2v-11.7v-11.7h-11.7v11.7h-11.7v-11.7h-11.7v-11.7h-11.7v11.7h-11.7v11.7h-11.7v11.7h11.7V888
		c7.4,0.5,15.3,0.5,23.4,0.4v-11.2h11.7V888c11.8-0.6,23.7-1.7,35.2-2.9v-7.9H615.2z"/>
	<path fill="#64625F" d="M650.4,806.4v0.7h-6.6c-5.4,0.5-11,1-16.8,1.4v10.3v11.7h-11.7v11.7v11.7H627h11.7v-11.7h11.7h11.7h11.7
		v-11.7v-11.7h11.7v11.7h7.9c0.5-6.6,1.5-20.5,2.2-30.5C684.4,802,669,804.4,650.4,806.4z"/>
</g>
	<g id="BACK_BODY">
<g id="SHORT_BODY">
	<g>
		<path fill="#FFFFFF" d="M589.5,810.1c47.1-0.8,84.2-6.1,106.3-10.2c0.5-6.4,0.8-11.3,0.8-11.6c0-0.9,1.2-27.3,1.5-29.5
			c0.3-2.1,4.5-40.1,4.5-43.2c0-3.1,4.5-67.7,4.2-87c-0.3-19.3-3.6-61.3-6.3-74.5c-2.7-13.2-10.7-82.2-14-102.1
			c-3.3-19.9-20.6-143.1-21.2-144.9c-0.6-1.8-6.9-23-7.2-25.7c-0.3-2.8-8-25.7-8.9-29.4c-0.9-3.7-1.8-22.7-2.4-26
			c-0.6-3.4-3.3-24.8-4.2-30c-0.9-5.2-3.9-17.5-4.8-19.3c-0.9-1.8-1.8-8.3-1.8-10.1s0.6-4.3,0.3-5.8c-0.3-1.5-1.5-4.3-1.5-6.1
			c0-1.8,1.8-8,1.2-11c-0.6-3.1-3-6.1-3-12c0-5.8,1.2-10.6,1.2-10.6s-1.1,0.6-3,1.7c-0.6-2.6-12.2-25.8-233.1-22.9
			c-233.7,3.1-281.4,9.8-280.2,21.6c0,0.2,0.1,0.5,0.1,0.7c-0.5,1.1-1.1,2.9-1,3.4c0.2,0.8,0.3,7.5-0.2,10.2
			c-0.4,2.7-1.1,6.8-1.7,8.4c-0.6,1.6-0.3,11-0.3,12.9c0,1.8,0.3,7.4,0.4,8.1c0.1,0.6,0.4,6.5-0.5,9.1c-1,2.6-1.2,3.2-1.2,3.2
			l-5.3,21c0,0-2.4,3.4-2.9,8.4c-0.5,5-0.5,8.6-0.5,8.6s-1.4,3.8-1.4,6.5c0,2.7,0.2,5.8,0.2,5.8s-0.4,6.6-1.4,12
			c-1,5.3-1.6,9.8-1.6,9.8s-2.5,8.8-2.6,10.6c-0.2,1.8-0.8,11.3-1.1,13.9c-0.4,2.6-3.2,17.7-4.8,24.8c-1.7,7.1-15.7,54.4-20.4,70.9
			c-4.8,16.5-13.7,43.5-14.3,47.8c-0.6,4.3-9.2,56.4-10.1,63.7c-0.9,7.4-11,107.3-11.9,114c-0.9,6.7-1.2,40.1-0.3,63.4
			c0.9,23.3,2.7,57,4.5,67.7c1.7,10.1,5.5,54.3,6.4,62.1c24.6,6.5,64.4,14,119.9,14.8c42.1,0.6,86.3-2.3,124-6.6
			c0,0-10.8,37.2-10.5,76.5c0,0,15.3-4.5,17.9-6.2c3-1.9,14.7-73.6,18.1-74c1-2.3,1.9-4.4,2.6-6.1c3-7.4,16.3-74,19.9-84.7
			c3.6-10.7,14-48.1,15.5-54.2c1.5-6.1,8.9-35.2,9.2-39.5c0.3-4.3,4.2-18.1,4.2-18.1l17.6-5.5c0,0,19.1,92.5,27.7,120.1
			c7,22.4,17.8,68,21.6,84.4l14.3,71.4c0,0,5.4,9.9,27,14.9c2.1,0.5-11-79.5-11-79.5C487.7,801.9,534.7,811,589.5,810.1z
			 M134.1,138.9C134.1,138.9,134.1,138.9,134.1,138.9c2.2,1.1,4.7,2.2,7.4,3.3C137.8,140.8,135.5,139.7,134.1,138.9z"/>
	</g>
</g>
		</g>
	<g id="CUSTOM"></g>
	
<g id="SHORT_STITCHING">
	<g>
		<path d="M602.2,842.2c-1.5,0-2.9,0-4.2,0c-0.9,0-1.7,0-2.6,0l0,1.7c0.9,0,1.8,0,2.7,0c1.3,0,2.7,0,4.1,0L602.2,842.2 M612.4,842
			c-2.4,0.1-4.7,0.1-6.8,0.2l0,1.7c2.1,0,4.3-0.1,6.8-0.2L612.4,842 M585.3,841.9l-0.1,1.7c2.3,0.1,4.5,0.2,6.8,0.3l0-1.7
			C589.9,842.1,587.7,842,585.3,841.9 M622.5,841.6l-6.8,0.3l0.1,1.7l6.7-0.3h0L622.5,841.6 M575.2,841.2l-0.1,1.7
			c2.4,0.2,4.7,0.3,6.8,0.5l0.1-1.7C579.9,841.6,577.6,841.4,575.2,841.2 M632.7,841c-2.2,0.1-4.5,0.3-6.8,0.4l0.1,1.7
			c2.3-0.1,4.5-0.2,6.8-0.4L632.7,841 M565.1,840.4l-0.1,1.7l6.8,0.5l0.1-1.7L565.1,840.4 M642.8,840.2c-2.2,0.2-4.5,0.4-6.8,0.6
			l0.1,1.7c2.3-0.2,4.6-0.4,6.8-0.6L642.8,840.2 M554.9,839.6l-0.1,1.7l6.8,0.5l0.1-1.7L554.9,839.6 M652.9,839.2
			c-2.2,0.2-4.5,0.5-6.7,0.7l0.2,1.7c2.3-0.2,4.6-0.5,6.8-0.7L652.9,839.2 M544.8,838.8l-0.1,1.7l6.8,0.5l0.1-1.7L544.8,838.8
			 M534.7,838.1l-0.1,1.7l6.8,0.5l0.1-1.7L534.7,838.1 M663,838c-2.2,0.3-4.4,0.6-6.7,0.8l0.2,1.7c2.3-0.3,4.6-0.6,6.7-0.8L663,838
			 M524.5,837.2l-0.2,1.7c2.2,0.2,4.4,0.4,6.8,0.6l0.1-1.7C529,837.6,526.7,837.4,524.5,837.2 M673.1,836.6c-2.1,0.3-4.4,0.6-6.7,1
			l0.2,1.7c2.4-0.3,4.6-0.7,6.7-1L673.1,836.6 M514.5,836l-0.2,1.7c2.2,0.3,4.4,0.5,6.7,0.8l0.2-1.7
			C518.8,836.5,516.6,836.3,514.5,836 M683.1,835c-2,0.3-4.2,0.7-6.7,1.1l0.3,1.7c2.5-0.4,4.7-0.8,6.7-1.1L683.1,835 M504.4,834.6
			l-0.3,1.7c2.1,0.3,4.4,0.7,6.7,1l0.2-1.7C508.8,835.2,506.5,834.9,504.4,834.6 M693.1,833.1c0,0-2.4,0.5-6.7,1.2l0.3,1.7
			c4.3-0.8,6.7-1.3,6.7-1.3L693.1,833.1 M494.4,832.8l-0.3,1.7c2.1,0.4,4.3,0.8,6.7,1.2l0.3-1.7
			C498.7,833.6,496.5,833.2,494.4,832.8 M484.5,830.5l-0.4,1.6c2,0.5,4.3,1,6.6,1.5l0.4-1.7C488.8,831.6,486.6,831.1,484.5,830.5
			 M474.8,827.8l-0.5,1.6c2.1,0.7,4.3,1.3,6.5,2l0.5-1.6C479,829.1,476.9,828.4,474.8,827.8 M470.1,826.1c0.1,0.6,0.2,1.2,0.3,1.9
			c0.2,0.1,0.5,0.2,0.7,0.2l0.6-1.6C471.1,826.5,470.6,826.3,470.1,826.1 M465.4,824.2l-0.7,1.6c1.3,0.6,2.6,1.1,3.9,1.6
			c-0.1-0.7-0.2-1.3-0.3-1.9C467.3,825,466.3,824.6,465.4,824.2 M455.9,820.3l-0.6,1.6c2.3,0.9,4.4,1.7,6.3,2.5l0.7-1.6
			C460.4,822,458.2,821.2,455.9,820.3 M446.5,816.6l-0.6,1.6c2,0.8,4.1,1.6,6.3,2.5l0.6-1.6C450.6,818.2,448.4,817.4,446.5,816.6
			 M440,813.5l-1,1.4c0.8,0.5,2,1.1,3.7,1.9l0.7-1.6C441.7,814.6,440.6,814,440,813.5"/>
		<path d="M614.9,853.1l0,1.7l5.2,0l1.6,0l0-1.7l-1.6,0L614.9,853.1 M604.8,853l0,1.7c2.3,0,4.5,0,6.8,0.1l0-1.7
			C609.3,853.1,607,853.1,604.8,853 M594.6,852.9l0,1.7c2.3,0,4.5,0.1,6.8,0.1l0-1.7C599.1,853,596.9,852.9,594.6,852.9
			 M631.8,852.8c-2.2,0.1-4.5,0.2-6.8,0.3l0,1.7c2.3-0.1,4.6-0.1,6.8-0.3L631.8,852.8 M584.4,852.6l-0.1,1.7
			c2.3,0.1,4.5,0.1,6.8,0.2l0-1.7C589,852.7,586.7,852.7,584.4,852.6 M574.3,852.2l-0.1,1.7c2.3,0.1,4.5,0.2,6.8,0.3l0.1-1.7
			C578.8,852.4,576.5,852.3,574.3,852.2 M642,852.1c-2.2,0.2-4.5,0.4-6.7,0.5l0.1,1.7c2.3-0.2,4.6-0.3,6.8-0.5L642,852.1
			 M564.1,851.7l-0.1,1.7c2.3,0.1,4.5,0.3,6.8,0.4l0.1-1.7C568.6,851.9,566.4,851.8,564.1,851.7 M554,851l-0.1,1.7
			c2.3,0.2,4.5,0.3,6.8,0.5l0.1-1.7C558.5,851.3,556.2,851.1,554,851 M652,851c-2.2,0.3-4.4,0.6-6.7,0.8l0.2,1.7
			c2.3-0.2,4.6-0.5,6.8-0.8L652,851 M543.9,850.1l-0.2,1.7c2.3,0.2,4.5,0.4,6.8,0.6l0.1-1.7C548.4,850.5,546.1,850.3,543.9,850.1
			 M662.1,849.4c-2.1,0.4-4.4,0.7-6.7,1.1l0.2,1.7c2.3-0.3,4.6-0.7,6.7-1.1L662.1,849.4 M533.7,849.1l-0.2,1.7
			c2.2,0.3,4.5,0.5,6.8,0.7l0.2-1.7C538.2,849.6,536,849.3,533.7,849.1 M523.7,847.8l-0.2,1.7c2.2,0.3,4.5,0.6,6.7,0.9l0.2-1.7
			C528.1,848.4,525.9,848.1,523.7,847.8 M672.1,847.6c-2.1,0.4-4.3,0.9-6.6,1.3l0.3,1.7c2.4-0.4,4.6-0.9,6.7-1.3L672.1,847.6
			 M513.6,846.3l-0.3,1.7c2.2,0.4,4.5,0.7,6.7,1l0.2-1.7C518,847,515.8,846.7,513.6,846.3 M682,845.3c-1.9,0.5-4.1,1-6.6,1.6
			l0.4,1.7c2.4-0.5,4.7-1.1,6.6-1.6L682,845.3 M503.6,844.5l-0.3,1.7c2.2,0.4,4.4,0.8,6.7,1.2l0.3-1.7
			C508,845.3,505.8,844.9,503.6,844.5 M691.7,842.6c0,0-2.4,0.8-6.5,1.9l0.4,1.6c4.2-1.1,6.6-1.9,6.6-1.9L691.7,842.6 M493.7,842.4
			l-0.4,1.7c1.4,0.3,2.8,0.6,4.2,0.9c0.8,0.2,1.6,0.3,2.4,0.5l0.3-1.7c-0.8-0.2-1.6-0.3-2.4-0.5C496.4,843,495,842.7,493.7,842.4
			 M483.8,840.1l-0.4,1.6c2.1,0.5,4.3,1,6.6,1.6l0.4-1.7C488,841.1,485.8,840.6,483.8,840.1 M473.9,837.6l-0.5,1.6
			c2,0.6,4.2,1.1,6.6,1.7l0.4-1.6C478.1,838.7,476,838.2,473.9,837.6 M464.2,834.7l-0.5,1.6c1.8,0.6,3.8,1.2,6.1,1.9
			c-0.1-0.6-0.1-1.2-0.2-1.8C467.6,835.8,465.8,835.3,464.2,834.7 M454.8,831.3l-0.7,1.6c1.8,0.8,4,1.6,6.4,2.4l0.6-1.6
			C458.7,832.9,456.6,832.1,454.8,831.3 M445.8,826.6l-0.7,1.5c1.4,0.7,2.6,1.3,3.6,2c0.5,0.3,1.2,0.7,2.3,1.3l0.8-1.5
			c-1-0.5-1.7-1-2.4-1.4C448.5,827.9,447.3,827.3,445.8,826.6"/>
		<path d="M474.1,872.7l-1.7,0.1c0.1,0.9,0.1,1.4,0.1,1.5l0.8,0l-0.6-0.6l1.2,1.2C474.2,874.6,474.2,874.6,474.1,872.7 M473.4,862.5
			l-1.7,0.1c0.2,2.6,0.3,4.9,0.4,6.8l1.7-0.1C473.8,867.4,473.6,865.1,473.4,862.5 M281.9,862.5h-1.7v6.8h1.7V862.5 M282.5,852.4
			c-1.9,3.6-2.3,4.8-2.3,5.4v1.3h1.7v-1.3c0-0.3,0.3-1.2,2.1-4.6L282.5,852.4 M472.7,852.3l-1.7,0.1c0.2,2.3,0.3,4.6,0.5,6.8
			l1.7-0.1C473.1,857,472.9,854.7,472.7,852.3 M285.5,843.1l-1.3,0.7c0.6,1.1,0.9,2.2,0.9,3.1c0,0.5-0.1,1-0.3,1.3
			c-0.1,0.3-0.4,0.7-0.6,1.2l1.5,0.8c0.3-0.5,0.5-0.9,0.6-1.2c0.3-0.6,0.4-1.3,0.4-2.1c0-1.2-0.4-2.5-1-3.8l-0.1,0L285.5,843.1
			 M471.9,842.2l-1.7,0.1c0.2,2.2,0.4,4.5,0.6,6.8l1.7-0.1C472.3,846.7,472.1,844.4,471.9,842.2 M285.8,834c-0.2,0-0.3,0.1-0.5,0.1
			c-0.1,0.2-0.3,0.4-0.4,0.6c-1.4,1.8-2.2,3.7-2.2,5.4l0,0.2l1.7-0.1l0-0.2c0-1.2,0.7-2.8,1.8-4.3c0.3-0.4,0.5-0.8,0.7-1.2
			L285.8,834 M470.9,832l-1.7,0.2c0.2,1.3,0.3,2.8,0.5,4.2c0.3,0.1,0.7,0.2,1.1,0.3l-0.5,1.6c-0.1,0-0.3-0.1-0.4-0.1
			c0,0.2,0,0.5,0.1,0.7l1.7-0.2C471.3,836.4,471.1,834.1,470.9,832 M468.6,827.3c0.1,0.5,0.1,1,0.2,1.5l1.7-0.2
			c0-0.2-0.1-0.4-0.1-0.6C469.8,827.8,469.2,827.6,468.6,827.3 M286.9,824l-1.7,0.3l0.8,4.6c0,0,0,0.4,0,1.1c0,0.3,0,0.6,0,0.9
			l1.7,0.1c0-0.3,0-0.7,0-1c0-0.8-0.1-1.2-0.1-1.3L286.9,824 M469.4,821.8l-1.7,0.3l0.1,0.3c0.2,0.8,0.3,1.8,0.5,3
			c0.6,0.2,1.2,0.5,1.8,0.7c-0.2-1.6-0.5-2.9-0.7-4L469.4,821.8 M285.5,814c-0.7,2.7-1.2,4.5-1.2,4.5l-0.1,0.2l0.4,2.3l1.7-0.3
			l-0.3-1.9c0.1-0.5,0.6-2.1,1.2-4.3L285.5,814 M467.2,811.8l-1.7,0.4c0.6,2.5,1.1,4.8,1.5,6.6l1.7-0.4
			C468.3,816.6,467.8,814.4,467.2,811.8 M288.1,804.2c-0.6,2.3-1.1,4.5-1.7,6.6l1.6,0.4c0.5-2.1,1.1-4.3,1.7-6.6L288.1,804.2
			 M464.9,801.9l-1.7,0.4l1.5,6.6l1.7-0.4L464.9,801.9 M290.2,794.3c-0.3,1.7-0.7,3.9-1.3,6.6l1.7,0.4c0.6-2.7,1.1-5,1.4-6.7
			L290.2,794.3 M462.6,791.9l-1.7,0.4l1.5,6.6l1.7-0.4L462.6,791.9 M291.7,784.2c-0.6,3.1-0.9,5.4-1.1,6.8l1.7,0.2
			c0.2-1.3,0.5-3.6,1.1-6.7L291.7,784.2 M460.3,782l-1.7,0.4l1.5,6.6l1.7-0.4L460.3,782 M293.6,774.1c-0.5,2.4-0.9,4.7-1.3,6.7
			l1.7,0.3c0.4-2,0.8-4.3,1.3-6.7L293.6,774.1 M457.9,772.1l-1.7,0.4l1.6,6.6l1.7-0.4L457.9,772.1 M295.6,764.1
			c-0.5,2.3-0.9,4.5-1.3,6.7l1.7,0.3c0.4-2.1,0.9-4.4,1.3-6.7L295.6,764.1 M455.6,762.2l-1.7,0.4l1.6,6.6l1.7-0.4L455.6,762.2
			 M297.6,754.1c-0.5,2.3-0.9,4.5-1.4,6.7l1.7,0.3c0.4-2.2,0.9-4.4,1.4-6.7L297.6,754.1 M453.2,752.2l-1.7,0.4l1.6,6.6l1.7-0.4
			L453.2,752.2 M299.7,744.1l-1.4,6.7l1.7,0.3l1.4-6.7L299.7,744.1 M450.9,742.3l-1.7,0.4l1.6,6.6l1.7-0.4L450.9,742.3 M301.8,734.2
			l-1.4,6.7l1.7,0.3l1.4-6.7L301.8,734.2 M448.5,732.4l-1.7,0.4l1.6,6.6l1.6-0.4L448.5,732.4 M303.9,724.2l-1.4,6.6l1.7,0.4l1.4-6.6
			L303.9,724.2 M446.2,722.5l-1.7,0.4l1.6,6.6l1.7-0.4L446.2,722.5 M306.1,714.2c-0.5,2.1-1,4.4-1.5,6.6l1.7,0.4
			c0.5-2.3,1-4.5,1.5-6.6L306.1,714.2 M443.8,712.6l-1.7,0.4l1.6,6.6l1.7-0.4L443.8,712.6 M308.3,704.3c-0.5,2.1-1,4.3-1.5,6.6
			l1.7,0.4c0.5-2.3,1-4.5,1.5-6.6L308.3,704.3 M441.4,702.7l-1.7,0.4l1.6,6.6l1.7-0.4L441.4,702.7 M310.7,694.4
			c-0.3,1.2-0.6,2.4-0.8,3.5c-0.2,1-0.5,2.1-0.8,3.2l1.7,0.4c0.3-1.1,0.5-2.1,0.8-3.1c0.3-1.1,0.5-2.2,0.8-3.4L310.7,694.4
			 M439,692.7l-1.6,0.4l1.6,6.6l1.6-0.4L439,692.7 M313.2,684.5c-0.6,2.3-1.2,4.5-1.7,6.6l1.6,0.4c0.5-2.1,1.1-4.3,1.7-6.6
			L313.2,684.5 M436.6,682.8l-1.6,0.4l1.6,6.6l1.6-0.4L436.6,682.8 M315.9,674.6c-0.6,2.3-1.2,4.5-1.7,6.6l1.6,0.4
			c0.6-2.1,1.1-4.3,1.7-6.6L315.9,674.6 M434.2,672.9l-1.6,0.4l1.6,6.6l1.6-0.4L434.2,672.9 M318.5,664.8c-0.6,2.2-1.2,4.4-1.8,6.6
			l1.6,0.4c0.6-2.1,1.2-4.3,1.8-6.5L318.5,664.8 M431.8,663l-1.6,0.4l1.6,6.6l1.6-0.4L431.8,663 M321.3,654.9
			c-0.6,2.2-1.2,4.4-1.8,6.5l1.6,0.5c0.6-2.2,1.2-4.3,1.8-6.5L321.3,654.9 M429.1,653.1l-1.6,0.5c0.7,2.5,1.4,4.7,1.9,6.5l1.6-0.4
			C430.5,657.8,429.9,655.6,429.1,653.1 M324.1,645.2c-0.6,2.2-1.3,4.4-1.9,6.5l1.6,0.5c0.6-2.2,1.3-4.3,1.9-6.5L324.1,645.2
			 M426,643.3l-1.6,0.5c0.8,2.3,1.5,4.4,2.1,6.5l1.6-0.5C427.5,647.8,426.8,645.6,426,643.3 M327.1,635.4c-0.7,2.2-1.3,4.3-2,6.5
			l1.6,0.5c0.6-2.2,1.3-4.4,2-6.5L327.1,635.4 M422.7,633.7l-1.6,0.6c0.8,2.2,1.5,4.3,2.2,6.4l1.6-0.5
			C424.2,638,423.5,635.9,422.7,633.7 M330.1,625.6c-0.7,2.1-1.4,4.3-2,6.5l1.6,0.5c0.7-2.2,1.4-4.4,2-6.5L330.1,625.6 M419.3,624.1
			l-1.6,0.6c0.8,2.1,1.5,4.3,2.2,6.4l1.6-0.6C420.9,628.4,420.1,626.2,419.3,624.1 M333.3,615.9c-0.7,2.1-1.4,4.3-2.1,6.5l1.6,0.5
			c0.7-2.2,1.4-4.4,2.1-6.4L333.3,615.9 M415.9,614.4l-1.6,0.6c0.8,2.1,1.5,4.2,2.3,6.4l1.6-0.6
			C417.4,618.7,416.7,616.6,415.9,614.4 M336.7,606.3c-0.8,2-1.5,4.2-2.3,6.4l1.6,0.6c0.8-2.2,1.5-4.4,2.3-6.4L336.7,606.3
			 M412.4,604.9l-1.6,0.6l2.3,6.4l1.6-0.6L412.4,604.9 M340.4,596.8c-0.8,1.9-1.7,4.1-2.6,6.3l1.6,0.6c0.9-2.3,1.7-4.4,2.5-6.3
			L340.4,596.8 M408.9,595.3l-1.6,0.6c0.7,2,1.5,4.1,2.4,6.4l1.6-0.6C410.4,599.4,409.7,597.3,408.9,595.3 M345.1,587.6l-0.4,0.6
			c-0.9,1.4-1.8,3.2-2.9,5.5l1.5,0.7c1-2.1,1.9-3.9,2.8-5.3l0.4-0.6L345.1,587.6 M405.4,585.7l-1.6,0.6l2.4,6.4l1.6-0.6L405.4,585.7
			 M351.4,579.4c-1.5,1.7-3,3.4-4.3,5.3l1.4,1c1.3-1.8,2.7-3.6,4.2-5.2L351.4,579.4 M400.1,576.8l-1.2,1.2c1,0.9,1.9,2,2.9,3.1
			l0.8,2.1l1.6-0.6l-0.8-2.2l-0.2-0.3C402.1,578.9,401.1,577.8,400.1,576.8 M359.1,572.5c-1.8,1.3-3.6,2.8-5.3,4.4l1.2,1.2
			c1.7-1.6,3.4-3,5.1-4.2L359.1,572.5 M391.9,570.4l-0.9,1.5c1.8,1.1,3.6,2.4,5.4,3.8l1.1-1.3C395.7,572.9,393.8,571.5,391.9,570.4
			 M368.3,567.8c-2.1,0.7-4.3,1.7-6.3,2.9l0.9,1.5c2-1.1,4-2.1,6-2.7L368.3,567.8 M382.1,566.7l-0.3,1.7c2.1,0.4,4.2,1.1,6.3,2
			l0.7-1.5C386.6,567.9,384.4,567.1,382.1,566.7 M377.2,566.3L377.2,566.3c-1.9,0-3.7,0.2-5.5,0.6l0.3,1.7c1.7-0.4,3.4-0.5,5.1-0.5
			c0.5,0,0.9,0,1.4,0l0.1-1.7C378.2,566.3,377.7,566.3,377.2,566.3"/>
		<path d="M468.3,825.4c0.1,0.6,0.2,1.3,0.3,1.9c0.6,0.2,1.2,0.5,1.8,0.7c-0.1-0.7-0.2-1.3-0.3-1.9
			C469.5,825.9,468.9,825.6,468.3,825.4"/>
		<path d="M469.6,836.4c0.1,0.6,0.1,1.2,0.2,1.8c0.1,0,0.3,0.1,0.4,0.1l0.5-1.6C470.3,836.6,470,836.5,469.6,836.4"/>
		<path d="M290.7,840.8c-0.2,0.1-0.5,0.1-0.8,0.2c-1.8,0.3-3.2,0.4-4.2,0.4c-0.9,0-1.4-0.1-1.4-0.1l-0.1,0l-0.1,0l0.3,1.7l-0.2-0.8
			l-0.1,0.8c0,0,0.5,0.1,1.4,0.1l0.2-0.1l0,0.1c1.5,0,3-0.2,4.5-0.4c0.3-0.1,0.6-0.1,0.8-0.2L290.7,840.8 M51.3,840.5l-0.2,1.7
			c1,0.1,3.3,0.4,6.7,0.8l0.2-1.7C54.5,840.9,52.2,840.6,51.3,840.5 M299.2,836.5c0,0-1.9,2-5.4,3.4l0.6,1.6c3.9-1.5,5.9-3.7,6-3.8
			L299.2,836.5"/>
		<polyline points="285.7,843 285.5,843.1 285.6,843.1 285.7,843.1 285.7,843 		"/>
		<path d="M199.9,852.1c-1.2,0-2.5,0-3.9,0l-2.9,0l0,1.7l2.9,0c1.3,0,2.6,0,3.9,0L199.9,852.1 M183,852l-0.1,1.7
			c2.4,0.1,4.6,0.1,6.8,0.2l0-1.7C187.6,852.1,185.3,852,183,852 M210,851.8c-2.1,0.1-4.3,0.2-6.7,0.3l0,1.7
			c2.5-0.1,4.7-0.2,6.8-0.3L210,851.8 M172.8,851.6l-0.1,1.7c2.3,0.1,4.6,0.2,6.8,0.3l0.1-1.7C177.4,851.8,175.1,851.7,172.8,851.6
			 M162.7,851.1l-0.1,1.7c2.3,0.1,4.6,0.3,6.8,0.4l0.1-1.7C167.2,851.3,165,851.2,162.7,851.1 M220.1,850.7l-2,0.3
			c-1.4,0.2-3,0.4-4.7,0.5l0.1,1.7c1.7-0.1,3.3-0.3,4.8-0.5l2-0.3L220.1,850.7 M152.5,850.4l-0.1,1.7c2.3,0.2,4.6,0.3,6.8,0.4
			l0.1-1.7C157.1,850.7,154.8,850.6,152.5,850.4 M142.4,849.7l-0.1,1.7c2.3,0.2,4.6,0.3,6.8,0.5l0.1-1.7
			C146.9,850,144.7,849.9,142.4,849.7 M230.2,849.2l-6.7,1l0.2,1.7l6.7-1L230.2,849.2 M132.2,848.9l-0.1,1.7
			c2.3,0.2,4.5,0.4,6.8,0.5l0.1-1.7C136.8,849.3,134.5,849.1,132.2,848.9 M122.1,848l-0.1,1.7c2,0.2,4.1,0.4,6.2,0.5l0.6,0.1
			l0.1-1.7l-0.6-0.1C126.2,848.4,124.1,848.2,122.1,848 M240.3,847.8l-6.7,1l0.2,1.7l6.7-1L240.3,847.8 M112,847.1l-0.2,1.7l6.8,0.6
			l0.2-1.7L112,847.1 M250.4,846.3l-6.7,1l0.2,1.7l6.7-1L250.4,846.3 M101.8,846.1l-0.2,1.7c2.2,0.2,4.5,0.4,6.8,0.7l0.2-1.7
			C106.3,846.6,104,846.3,101.8,846.1 M91.7,845.1l-0.2,1.7c2.2,0.2,4.4,0.5,6.8,0.7l0.2-1.7C96.1,845.6,93.9,845.3,91.7,845.1
			 M260.4,844.8l-6.7,1l0.2,1.7l6.7-1L260.4,844.8 M81.6,844l-0.2,1.7l6.8,0.7l0.2-1.7L81.6,844 M270.5,843.3l-6.7,1l0.2,1.7l6.7-1
			L270.5,843.3 M71.5,842.9l-0.2,1.7l6.7,0.8l0.2-1.7L71.5,842.9 M280.6,841.8l-6.7,1l0.2,1.7l6.7-1L280.6,841.8 M61.4,841.7
			l-0.2,1.7c2,0.2,4.3,0.5,6.7,0.8l0.2-1.7C65.6,842.2,63.4,842,61.4,841.7"/>
		<path d="M285.6,832.3c-2,0.4-4.2,0.9-6.6,1.3l0.3,1.7c2.1-0.4,4.2-0.7,6-1.1l0.1-0.3l0.4,0.2l0.2,0L285.6,832.3 M66.1,831.5
			l-0.2,1.7c2,0.3,4.3,0.5,6.7,0.8l0.2-1.7C70.4,832,68.2,831.8,66.1,831.5 M56.1,830l-0.3,1.7c1.8,0.3,4.1,0.7,6.7,1.1l0.2-1.7
			C60.2,830.7,58,830.3,56.1,830 M295.3,829.7c-1.8,0.7-4,1.3-6.4,1.9l0.4,1.6c2.5-0.6,4.7-1.3,6.6-2L295.3,829.7 M49.8,828.2
			l-1.4,1c0.3,0.4,1.1,1,4,1.7l0.4-1.6C50.3,828.6,49.9,828.2,49.8,828.2 M304.1,824.4l-1.6,0.4c0,0.1-0.1,1.5-4.2,3.6l0.7,1.5
			c4.5-2.2,5.1-4.1,5.1-5.1L304.1,824.4"/>
		<path d="M285.4,833.9l-0.1,0.3c0.2,0,0.4-0.1,0.5-0.1L285.4,833.9"/>
		<path d="M187.8,839.8l0,1.7c1.9,0,3.8,0,5.7,0h1.1v-1.7h-1.1C191.6,839.8,189.7,839.8,187.8,839.8 M204.8,839.8
			c-2.2,0-4.5,0.1-6.8,0.1l0,1.7c2.3,0,4.6,0,6.8-0.1L204.8,839.8 M177.7,839.7l0,1.7c2.3,0.1,4.6,0.1,6.8,0.1l0-1.7
			C182.2,839.8,180,839.7,177.7,839.7 M214.9,839.5c-2.2,0.1-4.5,0.1-6.8,0.2l0,1.7c2.3-0.1,4.6-0.1,6.8-0.2L214.9,839.5
			 M167.5,839.4l-0.1,1.7c2.3,0.1,4.6,0.1,6.8,0.2l0-1.7C172,839.5,169.8,839.5,167.5,839.4 M225.1,839.1c-2.2,0.1-4.5,0.2-6.8,0.3
			l0.1,1.7c2.3-0.1,4.6-0.2,6.8-0.3L225.1,839.1 M157.3,839l-0.1,1.7c2.3,0.1,4.6,0.2,6.8,0.3l0.1-1.7
			C161.9,839.2,159.6,839.1,157.3,839 M235.2,838.5c-2.2,0.2-4.5,0.3-6.8,0.4l0.1,1.7c2.3-0.1,4.6-0.3,6.8-0.4L235.2,838.5
			 M147.2,838.4l-0.1,1.7c2.3,0.1,4.5,0.3,6.8,0.4l0.1-1.7C151.7,838.7,149.5,838.5,147.2,838.4 M137,837.8l-0.1,1.7l6.8,0.5
			l0.1-1.7L137,837.8 M245.3,837.7c-2.2,0.2-4.5,0.4-6.8,0.6l0.1,1.7c2.3-0.2,4.6-0.4,6.8-0.6L245.3,837.7 M126.9,837l-0.1,1.7
			l6.8,0.5l0.1-1.7L126.9,837 M255.5,836.7c-2.2,0.2-4.4,0.5-6.7,0.7l0.2,1.7c2.3-0.2,4.6-0.4,6.8-0.7L255.5,836.7 M116.7,836.3
			l-0.1,1.7c2.2,0.2,4.5,0.3,6.8,0.5l0.1-1.7C121.2,836.6,118.9,836.5,116.7,836.3 M106.6,835.5l-0.1,1.7c2.2,0.2,4.4,0.4,6.8,0.5
			l0.1-1.7C111.1,835.9,108.8,835.7,106.6,835.5 M265.6,835.5c-2.2,0.3-4.4,0.5-6.7,0.8l0.2,1.7c2.3-0.3,4.5-0.5,6.7-0.8
			L265.6,835.5 M96.5,834.6l-0.1,1.7c2.2,0.2,4.4,0.4,6.8,0.6l0.1-1.7C100.9,835,98.6,834.8,96.5,834.6 M275.6,834.1
			c-0.8,0.1-1.5,0.2-2.3,0.3c-1.4,0.2-2.9,0.4-4.4,0.6l0.2,1.7c1.5-0.2,2.9-0.4,4.4-0.6c0.8-0.1,1.6-0.2,2.3-0.3L275.6,834.1
			 M86.3,833.7l-0.2,1.7c2.2,0.2,4.4,0.4,6.8,0.6l0.2-1.7C90.7,834.1,88.5,833.9,86.3,833.7 M76.2,832.7l-0.2,1.7
			c2.1,0.2,4.4,0.5,6.8,0.7l0.2-1.7C80.6,833.1,78.3,832.9,76.2,832.7"/>
		<path d="M122.8,161.5c-2,0.4-3.2,0.7-3.8,0.9l0.2,0.8l-0.5,0.7l0.9,0.1c0.4-0.1,1.7-0.4,3.6-0.8L122.8,161.5 M132.6,159.4
			c-2.5,0.5-4.7,1-6.6,1.4l0.3,1.7c1.8-0.4,4-0.9,6.5-1.4L132.6,159.4 M142.5,157.4c-2.4,0.4-4.6,0.9-6.6,1.3l0.3,1.7
			c2-0.4,4.2-0.8,6.6-1.3L142.5,157.4 M625.4,156.6l-0.2,1.7c4.3,0.5,6.7,0.8,6.7,0.8l0.2-1.7C632,157.4,629.7,157.1,625.4,156.6
			 M152.3,155.7c-2.3,0.4-4.5,0.8-6.6,1.2l0.3,1.7c2.1-0.4,4.3-0.8,6.6-1.2L152.3,155.7 M615.4,155.4l-0.2,1.7l6.7,0.8l0.2-1.7
			L615.4,155.4 M605.4,154.3l-0.2,1.7l6.7,0.7l0.2-1.7L605.4,154.3 M162.2,154c-2.3,0.4-4.5,0.7-6.6,1.1l0.3,1.7
			c2.1-0.4,4.3-0.7,6.6-1.1L162.2,154 M595.4,153.3l-0.2,1.7l6.6,0.7l0.2-1.7L595.4,153.3 M172.1,152.4c-2.3,0.3-4.5,0.7-6.6,1
			l0.3,1.7c2.1-0.3,4.3-0.7,6.6-1L172.1,152.4 M585.4,152.3l-0.2,1.7l6.6,0.7l0.2-1.7L585.4,152.3 M575.5,151.3l-0.2,1.7l6.7,0.7
			l0.2-1.7L575.5,151.3 M182.1,151c-2.3,0.3-4.5,0.6-6.6,1l0.2,1.7c2.1-0.3,4.4-0.6,6.6-1L182.1,151 M565.5,150.3l-0.2,1.7l6.7,0.6
			l0.2-1.7L565.5,150.3 M192,149.6c-2.3,0.3-4.5,0.6-6.6,0.9l0.2,1.7c2.2-0.3,4.4-0.6,6.6-0.9L192,149.6 M555.5,149.4l-0.1,1.7
			l6.7,0.6l0.2-1.7L555.5,149.4 M545.5,148.5l-0.1,1.7l6.7,0.6l0.1-1.7L545.5,148.5 M202,148.3c-2.3,0.3-4.5,0.6-6.6,0.8l0.2,1.7
			c2.2-0.3,4.4-0.6,6.6-0.8L202,148.3 M535.5,147.6l-0.1,1.7c2.2,0.2,4.5,0.4,6.7,0.6l0.1-1.7C540,148,537.7,147.8,535.5,147.6
			 M211.9,147.1c-2.3,0.3-4.5,0.5-6.6,0.8l0.2,1.7c2.2-0.3,4.4-0.5,6.6-0.8L211.9,147.1 M525.5,146.8l-0.1,1.7l6.7,0.6l0.1-1.7
			L525.5,146.8 M221.9,146c-2.2,0.2-4.5,0.5-6.6,0.7l0.2,1.7c2.2-0.2,4.4-0.5,6.6-0.7L221.9,146 M515.5,146l-0.1,1.7l6.7,0.5
			l0.1-1.7L515.5,146 M505.5,145.2l-0.1,1.7l6.7,0.5l0.1-1.7L505.5,145.2 M231.9,145c-2.2,0.2-4.5,0.4-6.7,0.7l0.2,1.7
			c2.2-0.2,4.4-0.4,6.6-0.7L231.9,145 M495.5,144.5l-0.1,1.7l6.7,0.5l0.1-1.7L495.5,144.5 M241.8,144.1c-2.2,0.2-4.5,0.4-6.7,0.6
			l0.2,1.7c2.2-0.2,4.4-0.4,6.6-0.6L241.8,144.1 M485.5,143.8l-0.1,1.7l6.7,0.5l0.1-1.7L485.5,143.8 M251.8,143.2
			c-2.2,0.2-4.5,0.4-6.7,0.6l0.1,1.7c2.2-0.2,4.4-0.4,6.7-0.6L251.8,143.2 M475.5,143.2l-0.1,1.7l6.7,0.4l0.1-1.7L475.5,143.2
			 M465.5,142.5l-0.1,1.7l6.7,0.4l0.1-1.7L465.5,142.5 M261.8,142.4c-2.2,0.2-4.5,0.3-6.7,0.5l0.1,1.7c2.2-0.2,4.4-0.3,6.7-0.5
			L261.8,142.4 M455.5,142l-0.1,1.7l6.7,0.4l0.1-1.7L455.5,142 M271.8,141.8c-2.2,0.1-4.5,0.3-6.7,0.5l0.1,1.7
			c2.2-0.2,4.4-0.3,6.7-0.5L271.8,141.8 M445.5,141.4l-0.1,1.7c2.2,0.1,4.5,0.2,6.7,0.3l0.1-1.7
			C449.9,141.7,447.7,141.6,445.5,141.4 M281.8,141.1c-2.2,0.1-4.5,0.3-6.7,0.4l0.1,1.7c2.2-0.1,4.4-0.3,6.7-0.4L281.8,141.1
			 M435.5,141l-0.1,1.7c2.2,0.1,4.4,0.2,6.6,0.3l0.1-1.7C439.9,141.2,437.7,141.1,435.5,141 M291.8,140.6c-2.2,0.1-4.5,0.2-6.7,0.3
			l0.1,1.7c2.2-0.1,4.4-0.2,6.7-0.3L291.8,140.6 M425.5,140.5l-0.1,1.7c2.2,0.1,4.4,0.2,6.7,0.3l0.1-1.7
			C429.9,140.7,427.7,140.6,425.5,140.5 M301.9,140.1c-2.2,0.1-4.5,0.2-6.7,0.3l0.1,1.7c2.2-0.1,4.4-0.2,6.7-0.3L301.9,140.1
			 M415.5,140.1l-0.1,1.7c2.2,0.1,4.4,0.2,6.7,0.3l0.1-1.7C419.9,140.3,417.7,140.2,415.5,140.1 M405.5,139.8l-0.1,1.7l6.7,0.2
			l0.1-1.7L405.5,139.8 M311.9,139.7c-2.2,0.1-4.5,0.2-6.7,0.3l0.1,1.7c2.2-0.1,4.4-0.2,6.7-0.3L311.9,139.7 M395.4,139.5l0,1.7
			c2.2,0.1,4.5,0.1,6.7,0.2l0-1.7C399.9,139.6,397.6,139.5,395.4,139.5 M321.9,139.4c-2.2,0.1-4.5,0.1-6.7,0.2l0.1,1.7
			c2.2-0.1,4.4-0.1,6.7-0.2L321.9,139.4 M385.4,139.3l0,1.7c2.2,0,4.4,0.1,6.7,0.1l0-1.7C389.8,139.3,387.6,139.3,385.4,139.3
			 M331.9,139.2c-2.2,0-4.5,0.1-6.7,0.2l0,1.7c2.2-0.1,4.4-0.1,6.7-0.2L331.9,139.2 M375.4,139.1l0,0.8l0.1,0.8l6.6,0.1l0-1.7
			L375.4,139.1 M341.9,139c-2.2,0-4.5,0.1-6.7,0.1l0,1.7c2.2,0,4.4-0.1,6.7-0.1L341.9,139 M365.3,139l0,1.7c2.2,0,4.4,0,6.7,0.1
			l0-1.7C369.8,139,367.5,139,365.3,139 M352,139c-2.2,0-4.5,0-6.7,0l0,1.7c2.2,0,4.4,0,6.7,0L352,139 M356.1,139h-0.9v1.7h0.9
			c1.9,0,3.9,0,5.8,0l0-1.7C360,139,358.1,139,356.1,139"/>
		<path d="M122.4,141.6c-2,0.4-3.2,0.7-3.8,0.9l0.2,0.8l-0.5,0.7l0.9,0.1c0.4-0.1,1.7-0.4,3.6-0.8L122.4,141.6 M132.2,139.5
			c-2.5,0.5-4.7,1-6.6,1.4l0.3,1.7c1.8-0.4,4-0.9,6.5-1.4L132.2,139.5 M142.1,137.6c-2.4,0.4-4.6,0.9-6.6,1.3l0.3,1.7
			c2-0.4,4.2-0.8,6.6-1.3L142.1,137.6 M625,136.7l-0.2,1.7c4.3,0.5,6.7,0.8,6.7,0.8l0.2-1.7C631.6,137.5,629.3,137.2,625,136.7
			 M151.9,135.8c-2.3,0.4-4.5,0.8-6.6,1.2l0.3,1.7c2.1-0.4,4.3-0.8,6.6-1.2L151.9,135.8 M615,135.6l-0.2,1.7l6.7,0.8l0.2-1.7
			L615,135.6 M605,134.5l-0.2,1.7l6.7,0.7l0.2-1.7L605,134.5 M161.8,134.1c-2.3,0.4-4.5,0.7-6.6,1.1l0.3,1.7
			c2.1-0.4,4.3-0.7,6.6-1.1L161.8,134.1 M595,133.4l-0.2,1.7l6.6,0.7l0.2-1.7L595,133.4 M171.7,132.5c-2.3,0.3-4.5,0.7-6.6,1
			l0.3,1.7c2.1-0.3,4.3-0.7,6.6-1L171.7,132.5 M585,132.4l-0.2,1.7l6.6,0.7l0.2-1.7L585,132.4 M575,131.4l-0.2,1.7l6.6,0.7l0.2-1.7
			L575,131.4 M181.7,131.1c-2.3,0.3-4.5,0.6-6.6,1l0.2,1.7c2.1-0.3,4.4-0.6,6.6-1L181.7,131.1 M565.1,130.4l-0.2,1.7l6.7,0.6
			l0.2-1.7L565.1,130.4 M191.6,129.7c-2.3,0.3-4.5,0.6-6.6,0.9l0.2,1.7c2.2-0.3,4.4-0.6,6.6-0.9L191.6,129.7 M555.1,129.5l-0.1,1.7
			l6.7,0.6l0.2-1.7L555.1,129.5 M545.1,128.6l-0.1,1.7l6.7,0.6l0.1-1.7L545.1,128.6 M201.6,128.4c-2.3,0.3-4.5,0.6-6.6,0.8l0.2,1.7
			c2.2-0.3,4.4-0.6,6.6-0.8L201.6,128.4 M535.1,127.8l-0.1,1.7c2.2,0.2,4.5,0.4,6.7,0.6l0.1-1.7
			C539.6,128.1,537.3,127.9,535.1,127.8 M211.5,127.3c-2.3,0.3-4.5,0.5-6.6,0.8l0.2,1.7c2.2-0.3,4.4-0.5,6.6-0.8L211.5,127.3
			 M525.1,126.9l-0.1,1.7l6.7,0.6l0.1-1.7L525.1,126.9 M221.5,126.2c-2.2,0.2-4.5,0.5-6.6,0.7l0.2,1.7c2.2-0.2,4.4-0.5,6.6-0.7
			L221.5,126.2 M515.1,126.1l-0.1,1.7l6.7,0.5l0.1-1.7L515.1,126.1 M505.1,125.4l-0.1,1.7l6.7,0.5l0.1-1.7L505.1,125.4 M231.5,125.1
			c-2.2,0.2-4.5,0.4-6.7,0.7l0.2,1.7c2.2-0.2,4.4-0.5,6.6-0.7L231.5,125.1 M495.1,124.6l-0.1,1.7l6.7,0.5l0.1-1.7L495.1,124.6
			 M241.4,124.2c-2.2,0.2-4.5,0.4-6.7,0.6l0.2,1.7c2.2-0.2,4.4-0.4,6.6-0.6L241.4,124.2 M485.1,124l-0.1,1.7l6.7,0.5l0.1-1.7
			L485.1,124 M251.4,123.4c-2.2,0.2-4.5,0.4-6.7,0.6l0.1,1.7c2.2-0.2,4.4-0.4,6.7-0.6L251.4,123.4 M475.1,123.3L475,125l6.7,0.4
			l0.1-1.7L475.1,123.3 M465.1,122.7l-0.1,1.7l6.7,0.4l0.1-1.7L465.1,122.7 M261.4,122.6c-2.2,0.2-4.5,0.3-6.7,0.5l0.1,1.7
			c2.2-0.2,4.4-0.3,6.7-0.5L261.4,122.6 M455.1,122.1l-0.1,1.7l6.7,0.4l0.1-1.7L455.1,122.1 M271.4,121.9c-2.2,0.1-4.5,0.3-6.7,0.5
			l0.1,1.7c2.2-0.2,4.4-0.3,6.7-0.5L271.4,121.9 M445.1,121.6l-0.1,1.7c2.2,0.1,4.5,0.2,6.7,0.3l0.1-1.7
			C449.5,121.8,447.3,121.7,445.1,121.6 M281.4,121.3c-2.2,0.1-4.5,0.3-6.7,0.4l0.1,1.7c2.2-0.1,4.4-0.3,6.7-0.4L281.4,121.3
			 M435.1,121.1l-0.1,1.7c2.2,0.1,4.4,0.2,6.6,0.3l0.1-1.7C439.5,121.3,437.3,121.2,435.1,121.1 M291.4,120.7
			c-2.2,0.1-4.5,0.2-6.7,0.3l0.1,1.7c2.2-0.1,4.4-0.2,6.7-0.3L291.4,120.7 M425.1,120.6l-0.1,1.7c2.2,0.1,4.4,0.2,6.7,0.3l0.1-1.7
			C429.5,120.8,427.3,120.7,425.1,120.6 M301.5,120.3c-2.2,0.1-4.5,0.2-6.7,0.3l0.1,1.7c2.2-0.1,4.4-0.2,6.7-0.3L301.5,120.3
			 M415.1,120.2l-0.1,1.7c2.2,0.1,4.4,0.2,6.7,0.3l0.1-1.7C419.5,120.4,417.3,120.3,415.1,120.2 M405.1,119.9l-0.1,1.7l6.7,0.2
			l0.1-1.7L405.1,119.9 M311.5,119.9c-2.2,0.1-4.5,0.2-6.7,0.3l0.1,1.7c2.2-0.1,4.4-0.2,6.7-0.3L311.5,119.9 M395,119.6l0,1.7
			c2.2,0.1,4.5,0.1,6.7,0.2l0-1.7C399.5,119.7,397.2,119.7,395,119.6 M321.5,119.6c-2.2,0.1-4.5,0.1-6.7,0.2l0.1,1.7
			c2.2-0.1,4.4-0.1,6.7-0.2L321.5,119.6 M385,119.4l0,1.7c2.2,0,4.4,0.1,6.7,0.1l0-1.7C389.4,119.5,387.2,119.4,385,119.4
			 M331.5,119.3c-2.2,0-4.5,0.1-6.7,0.2l0,1.7c2.2-0.1,4.4-0.1,6.7-0.2L331.5,119.3 M375,119.2l0,0.8l0.1,0.8l6.6,0.1l0-1.7
			L375,119.2 M341.5,119.2c-2.2,0-4.5,0.1-6.7,0.1l0,1.7c2.2,0,4.4-0.1,6.7-0.1L341.5,119.2 M364.9,119.1l0,1.7c2.2,0,4.4,0,6.7,0.1
			l0-1.7C369.4,119.1,367.1,119.1,364.9,119.1 M351.6,119.1c-2.2,0-4.5,0-6.7,0l0,1.7c2.2,0,4.4,0,6.7,0L351.6,119.1 M355.7,119.1
			h-0.9v1.7h0.9c1.9,0,3.9,0,5.8,0l0-1.7C359.6,119.1,357.7,119.1,355.7,119.1"/>
		<path d="M575.2,841.2l-0.1,1.7c0.2,0,0.5,0,0.7,0.1c-0.1-0.6-0.2-1.1-0.3-1.7C575.4,841.2,575.3,841.2,575.2,841.2 M632.7,841
			c-1.5,0.1-3.1,0.2-4.7,0.3c0,0.8,0,1.4,0,1.7c1.6-0.1,3.2-0.2,4.8-0.3L632.7,841 M565.1,840.4l-0.1,1.7l6.8,0.5l0.1-1.7
			L565.1,840.4 M642.8,840.2c-2.2,0.2-4.5,0.4-6.8,0.6l0.1,1.7c2.3-0.2,4.6-0.4,6.8-0.6L642.8,840.2 M554.9,839.6l-0.1,1.7l6.8,0.5
			l0.1-1.7L554.9,839.6 M652.9,839.2c-2.2,0.2-4.5,0.5-6.7,0.7l0.2,1.7c2.3-0.2,4.6-0.5,6.8-0.7L652.9,839.2 M544.8,838.8l-0.1,1.7
			l6.8,0.5l0.1-1.7L544.8,838.8 M534.7,838.1l-0.1,1.7l6.8,0.5l0.1-1.7L534.7,838.1 M663,838c-2.2,0.3-4.4,0.6-6.7,0.8l0.2,1.7
			c2.3-0.3,4.6-0.6,6.7-0.8L663,838 M524.5,837.2l-0.2,1.7c2.2,0.2,4.4,0.4,6.8,0.6l0.1-1.7C529,837.6,526.7,837.4,524.5,837.2
			 M673.1,836.6c-2.1,0.3-4.4,0.6-6.7,1l0.2,1.7c2.4-0.3,4.6-0.7,6.7-1L673.1,836.6 M514.5,836l-0.2,1.7c2.2,0.3,4.4,0.5,6.7,0.8
			l0.2-1.7C518.8,836.5,516.6,836.3,514.5,836 M683.1,835c-2,0.3-4.2,0.7-6.7,1.1l0.3,1.7c2.5-0.4,4.7-0.8,6.7-1.1L683.1,835
			 M504.4,834.6l-0.3,1.7c2.1,0.3,4.4,0.7,6.7,1l0.2-1.7C508.8,835.2,506.5,834.9,504.4,834.6 M691.9,833.4c-1.1,0.2-3,0.6-5.4,1
			l0.3,1.7c2.1-0.4,3.8-0.7,4.9-0.9C691.8,834.6,691.8,834,691.9,833.4 M494.4,832.8l-0.3,1.7c2.1,0.4,4.3,0.8,6.7,1.2l0.3-1.7
			C498.7,833.6,496.5,833.2,494.4,832.8 M484.5,830.5l-0.4,1.6c2,0.5,4.3,1,6.6,1.5l0.4-1.7C488.8,831.6,486.6,831.1,484.5,830.5
			 M478,828.7c0.1,0.6,0.1,1.2,0.2,1.8c0.9,0.3,1.8,0.5,2.7,0.8l0.5-1.6C480.2,829.4,479,829.1,478,828.7"/>
		<path d="M631.8,852.8c-1,0.1-2,0.1-3,0.1l0.1,1.7c1,0,1.9-0.1,2.9-0.1L631.8,852.8 M574.3,852.2l-0.1,1.7c1.3,0.1,2.7,0.1,4,0.2
			c-0.1-0.6-0.3-1.1-0.4-1.7C576.6,852.3,575.5,852.3,574.3,852.2 M642,852.1c-2.2,0.2-4.5,0.4-6.7,0.5l0.1,1.7
			c2.3-0.2,4.6-0.3,6.8-0.5L642,852.1 M564.1,851.7l-0.1,1.7c2.3,0.1,4.5,0.3,6.8,0.4l0.1-1.7C568.6,851.9,566.4,851.8,564.1,851.7
			 M554,851l-0.1,1.7c2.3,0.2,4.5,0.3,6.8,0.5l0.1-1.7C558.5,851.3,556.2,851.1,554,851 M652,851c-2.2,0.3-4.4,0.6-6.7,0.8l0.2,1.7
			c2.3-0.2,4.6-0.5,6.8-0.8L652,851 M543.9,850.1l-0.2,1.7c2.3,0.2,4.5,0.4,6.8,0.6l0.1-1.7C548.4,850.5,546.1,850.3,543.9,850.1
			 M662.1,849.4c-2.1,0.4-4.4,0.7-6.7,1.1l0.2,1.7c2.3-0.3,4.6-0.7,6.7-1.1L662.1,849.4 M533.7,849.1l-0.2,1.7
			c2.2,0.3,4.5,0.5,6.8,0.7l0.2-1.7C538.2,849.6,536,849.3,533.7,849.1 M523.7,847.8l-0.2,1.7c2.2,0.3,4.5,0.6,6.7,0.9l0.2-1.7
			C528.1,848.4,525.9,848.1,523.7,847.8 M672.1,847.6c-2.1,0.4-4.3,0.9-6.6,1.3l0.3,1.7c2.4-0.4,4.6-0.9,6.7-1.3L672.1,847.6
			 M513.6,846.3l-0.3,1.7c2.2,0.4,4.5,0.7,6.7,1l0.2-1.7C518,847,515.8,846.7,513.6,846.3 M682,845.3c-1.9,0.5-4.1,1-6.6,1.6
			l0.4,1.7c2.4-0.5,4.7-1.1,6.6-1.6L682,845.3 M503.6,844.5l-0.3,1.7c2.2,0.4,4.4,0.8,6.7,1.2l0.3-1.7
			C508,845.3,505.8,844.9,503.6,844.5 M690.8,842.9c-1,0.3-2.9,0.9-5.6,1.6l0.4,1.6c2.1-0.6,3.8-1,4.9-1.4
			C690.6,844.1,690.7,843.5,690.8,842.9 M493.7,842.4l-0.4,1.7c1.4,0.3,2.8,0.6,4.2,0.9c0.8,0.2,1.6,0.3,2.4,0.5l0.3-1.7
			c-0.8-0.2-1.6-0.3-2.4-0.5C496.4,843,495,842.7,493.7,842.4 M483.8,840.1l-0.4,1.6c2.1,0.5,4.3,1,6.6,1.6l0.4-1.7
			C488,841.1,485.8,840.6,483.8,840.1 M479,838.9c0.1,0.6,0.1,1.2,0.2,1.8c0.3,0.1,0.6,0.2,1,0.2l0.4-1.6
			C480,839.2,479.5,839.1,479,838.9"/>
		<path d="M625.4,156.6l-0.2,1.7c4.3,0.5,6.7,0.8,6.7,0.8l0.2-1.7C632,157.4,629.7,157.1,625.4,156.6 M615.4,155.4l-0.2,1.7l6.7,0.8
			l0.2-1.7L615.4,155.4 M605.4,154.3l-0.2,1.7l6.7,0.7l0.2-1.7L605.4,154.3 M595.4,153.3l-0.2,1.7l6.6,0.7l0.2-1.7L595.4,153.3
			 M585.4,152.3l-0.2,1.7l6.6,0.7l0.2-1.7L585.4,152.3 M575.5,151.3l-0.2,1.7l6.7,0.7l0.2-1.7L575.5,151.3 M552,150.4
			c-0.4,0.1-0.7,0.2-1,0.3l1,0.1L552,150.4 M565.5,150.3l-0.2,1.7l6.7,0.6l0.2-1.7L565.5,150.3 M555.7,149.4c-0.1,0-0.1,0-0.2,0.1
			l-0.1,1.6l6.7,0.6l0.2-1.7L555.7,149.4"/>
		<path d="M625,136.7l-0.2,1.7c4.3,0.5,6.7,0.8,6.7,0.8l0.2-1.7C631.6,137.5,629.3,137.2,625,136.7 M615,135.6l-0.2,1.7l6.7,0.8
			l0.2-1.7L615,135.6 M601.6,134.9c-0.6,0.3-1.3,0.5-1.9,0.8l1.8,0.2L601.6,134.9 M605,134.5l-0.2,1.7l6.7,0.7l0.2-1.7L605,134.5"/>
		<path d="M172.8,851.6l-0.1,1.7c1.2,0.1,2.3,0.1,3.4,0.1c0-0.6,0.1-1.1,0.1-1.7C175.1,851.7,174,851.6,172.8,851.6 M162.7,851.1
			l-0.1,1.7c2.3,0.1,4.6,0.3,6.8,0.4l0.1-1.7C167.2,851.3,165,851.2,162.7,851.1 M152.5,850.4l-0.1,1.7c2.3,0.2,4.6,0.3,6.8,0.4
			l0.1-1.7C157.1,850.7,154.8,850.6,152.5,850.4 M142.4,849.7l-0.1,1.7c2.3,0.2,4.6,0.3,6.8,0.5l0.1-1.7
			C146.9,850,144.7,849.9,142.4,849.7 M132.2,848.9l-0.1,1.7c2.3,0.2,4.5,0.4,6.8,0.5l0.1-1.7C136.8,849.3,134.5,849.1,132.2,848.9
			 M122.1,848l-0.1,1.7c2,0.2,4.1,0.4,6.2,0.5l0.6,0.1l0.1-1.7l-0.6-0.1C126.2,848.4,124.1,848.2,122.1,848 M113.3,847.2
			c0.2,0.6,0.3,1.1,0.4,1.7l4.9,0.4l0.2-1.7L113.3,847.2"/>
		<path d="M167.5,839.4l-0.1,1.7c2.3,0.1,4.6,0.1,6.8,0.2l0-1.7C172,839.5,169.8,839.5,167.5,839.4 M157.3,839l-0.1,1.7
			c2.3,0.1,4.6,0.2,6.8,0.3l0.1-1.7C161.9,839.2,159.6,839.1,157.3,839 M147.2,838.4l-0.1,1.7c2.3,0.1,4.5,0.3,6.8,0.4l0.1-1.7
			C151.7,838.7,149.5,838.5,147.2,838.4 M137,837.8l-0.1,1.7l6.8,0.5l0.1-1.7L137,837.8 M126.9,837l-0.1,1.7l6.8,0.5l0.1-1.7
			L126.9,837 M116.7,836.3l-0.1,1.7c2.2,0.2,4.5,0.3,6.8,0.5l0.1-1.7C121.2,836.6,118.9,836.5,116.7,836.3 M108.5,835.6
			c0.3,0.6,0.6,1.2,0.9,1.8c1.3,0.1,2.5,0.2,3.8,0.3l0.1-1.7C111.7,835.9,110.1,835.8,108.5,835.6"/>
		<path d="M122.8,161.5c-2,0.4-3.2,0.7-3.8,0.9l0.2,0.8l-0.5,0.7l0.9,0.1c0.4-0.1,1.7-0.4,3.6-0.8L122.8,161.5 M132.6,159.4
			c-2.5,0.5-4.7,1-6.6,1.4l0.3,1.7c1.8-0.4,4-0.9,6.5-1.4L132.6,159.4"/>
		<path d="M122.4,141.6c-2,0.4-3.2,0.7-3.8,0.9l0.2,0.8l-0.5,0.7l0.9,0.1c0.4-0.1,1.7-0.4,3.6-0.8L122.4,141.6 M135.7,139.9l0.1,0.6
			c0.3-0.1,0.6-0.1,0.8-0.2C136.3,140.2,136,140.1,135.7,139.9 M132.2,139.5c-2.5,0.5-4.7,1-6.6,1.4l0.3,1.7c1.8-0.4,4-0.9,6.5-1.4
			L132.2,139.5"/>
	</g>
</g>
<g id="SHADING">
	<g opacity="2.000000e-02">
		<g>
			<path d="M635.3,854.3l-0.1-1.7c2.3-0.2,4.5-0.3,6.7-0.5l0.2,1.7C639.9,854,637.6,854.2,635.3,854.3 M570.8,853.7
				c-2.3-0.1-4.5-0.2-6.8-0.4l0.1-1.7c2.3,0.1,4.5,0.3,6.8,0.4L570.8,853.7 M560.6,853.1c-2.3-0.1-4.5-0.3-6.8-0.5l0.1-1.7
				c2.3,0.2,4.5,0.3,6.8,0.5L560.6,853.1 M645.5,853.4l-0.2-1.7c2.3-0.2,4.5-0.5,6.7-0.8l0.2,1.7
				C650.1,852.9,647.8,853.2,645.5,853.4 M550.5,852.4c-2.3-0.2-4.5-0.4-6.8-0.6l0.2-1.7c2.2,0.2,4.5,0.4,6.8,0.6L550.5,852.4
				 M655.6,852.2l-0.2-1.7c2.3-0.3,4.5-0.7,6.7-1.1l0.3,1.7C660.2,851.5,658,851.8,655.6,852.2 M540.3,851.5
				c-2.3-0.2-4.5-0.5-6.8-0.7l0.2-1.7c2.2,0.3,4.5,0.5,6.7,0.7L540.3,851.5 M530.2,850.4c-2.3-0.3-4.5-0.6-6.7-0.9l0.2-1.7
				c2.2,0.3,4.5,0.6,6.7,0.9L530.2,850.4 M665.7,850.5l-0.3-1.7c2.3-0.4,4.6-0.9,6.6-1.3l0.3,1.7
				C670.3,849.7,668.1,850.1,665.7,850.5 M520,849c-2.3-0.3-4.5-0.7-6.7-1l0.3-1.7c2.2,0.4,4.4,0.7,6.7,1L520,849 M675.7,848.5
				l-0.4-1.7c2.4-0.5,4.6-1.1,6.6-1.6l0.4,1.6C680.4,847.4,678.2,848,675.7,848.5 M510,847.4c-2.2-0.4-4.5-0.8-6.7-1.2l0.3-1.7
				c2.2,0.4,4.4,0.8,6.7,1.2L510,847.4 M499.9,845.5c-0.8-0.2-1.6-0.3-2.4-0.5c-1.5-0.3-2.9-0.6-4.2-0.9l0.4-1.7
				c1.4,0.3,2.8,0.6,4.2,0.9c0.8,0.2,1.6,0.3,2.4,0.5L499.9,845.5 M571.7,842.7l-6.8-0.5l0.1-1.7l6.8,0.5L571.7,842.7 M636.2,842.5
				l-0.1-1.7c2.3-0.2,4.5-0.4,6.8-0.6l0.2,1.7C640.7,842.1,638.5,842.3,636.2,842.5 M490,843.3c-2.3-0.5-4.5-1-6.6-1.6l0.4-1.6
				c2.1,0.5,4.3,1,6.6,1.5L490,843.3 M561.6,841.9l-6.8-0.5l0.1-1.7l6.8,0.5L561.6,841.9 M646.3,841.6l-0.2-1.7
				c2.3-0.2,4.5-0.5,6.7-0.7l0.2,1.7C650.9,841.2,648.6,841.4,646.3,841.6 M551.4,841.1l-6.8-0.5l0.1-1.7l6.8,0.5L551.4,841.1
				 M541.3,840.3l-6.8-0.5l0.1-1.7l6.8,0.5L541.3,840.3 M656.5,840.5l-0.2-1.7c2.3-0.3,4.6-0.6,6.7-0.8l0.2,1.7
				C661.1,840,658.8,840.2,656.5,840.5 M531.1,839.5c-2.3-0.2-4.6-0.4-6.8-0.6l0.2-1.7c2.2,0.2,4.4,0.4,6.7,0.6L531.1,839.5
				 M666.6,839.2l-0.2-1.7c2.4-0.3,4.6-0.7,6.7-1l0.3,1.7C671.2,838.6,669,838.9,666.6,839.2 M521,838.5c-2.3-0.3-4.6-0.5-6.7-0.8
				l0.2-1.7c2.2,0.3,4.4,0.5,6.7,0.8L521,838.5 M676.7,837.7l-0.3-1.7c2.5-0.4,4.7-0.8,6.7-1.1l0.3,1.7
				C681.4,837,679.2,837.3,676.7,837.7 M510.9,837.2c-2.3-0.3-4.6-0.7-6.7-1l0.3-1.7c2.1,0.3,4.4,0.7,6.7,1L510.9,837.2
				 M500.8,835.7c-2.4-0.4-4.6-0.8-6.7-1.2l0.3-1.7c2.1,0.4,4.3,0.8,6.6,1.2L500.8,835.7 M490.8,833.7c-2.4-0.5-4.6-1-6.6-1.5
				l0.4-1.6c2,0.5,4.2,1,6.6,1.5L490.8,833.7 M631.8,159.1c0,0-2.3-0.3-6.7-0.8l0.2-1.7c4.3,0.5,6.7,0.8,6.7,0.8L631.8,159.1
				 M621.8,157.9l-6.7-0.8l0.2-1.7l6.7,0.8L621.8,157.9 M611.9,156.8l-6.7-0.7l0.2-1.7l6.7,0.7L611.9,156.8 M601.9,155.7l-6.6-0.7
				l0.2-1.7l6.6,0.7L601.9,155.7 M591.9,154.6l-6.6-0.7l0.2-1.7l6.7,0.7L591.9,154.6 M581.9,153.6l-6.7-0.7l0.2-1.7l6.7,0.7
				L581.9,153.6 M572,152.6l-6.7-0.6l0.2-1.7l6.7,0.6L572,152.6 M631.4,139.2c0,0-2.3-0.3-6.7-0.8l0.2-1.7c4.3,0.5,6.7,0.8,6.7,0.8
				L631.4,139.2 M621.4,138l-6.7-0.8l0.2-1.7l6.7,0.8L621.4,138 M611.5,136.9l-6.7-0.7l0.2-1.7l6.7,0.7L611.5,136.9 M634.3,120.9
				c0,0-17.3,7.8-32.7,13.9l-0.1,1l-1.8-0.2c-4.9,1.9-9.4,3.6-13.1,4.8c-10,3.2-23,6.8-30.9,9l6.5,0.6l-0.2,1.7l-6.7-0.6l0.1-1.6
				c-1.3,0.4-2.5,0.7-3.4,1l0,0.4l-1-0.1c-1.5,0.4-2.4,0.7-2.4,0.7s3.4,35.6-13.3,44.2c-16.7,8.6-16.7,8.6-16.7,8.6s0,8.6,14.3,20.8
				c14.3,12.3,32.2,22.1,39.3,25.7c7.2,3.7,15.5,13.5,15.5,22.1c0,8.6-17.9,28.2-7.2,47.8c10.7,19.6,33.4,12.3,46.5,30.6
				c13.1,18.4,13.1,153.6,25,205c11.9,51.5-3.9,115.2-3.9,131.2c0,15.9-7.2,41.7-9.5,67.4c-2.4,25.7-10.7,65.1-10.7,71.2
				c0,4.6,0,11.9,0,15.3c1.6-0.1,3.1-0.2,4.7-0.3l0.1,1.7c-1.6,0.1-3.2,0.2-4.8,0.3c0,0.1,0,0.1,0,0.1l0.9,9.8c1,0,2-0.1,3-0.1
				l0.1,1.7c-1,0-1.9,0.1-2.9,0.1l2.6,29l-45,1.2c0,0-4.3-13.4-8.4-30.8c-1.3-0.1-2.7-0.1-4-0.2l0.1-1.7c1.2,0.1,2.4,0.1,3.5,0.1
				c-0.7-3-1.4-6.2-2-9.4c-0.2,0-0.5,0-0.7-0.1l0.1-1.7c0.1,0,0.2,0,0.3,0c-3.6-18.4-5.7-38.3-2-50.9c8.3-28.2,26.2-89.5,32.2-107.9
				c6-18.4,11.9-24.5,9.5-58.8c-2.4-34.3-9.5-30.6-8.3-73.5c1.2-42.9,0-100.8-3.6-110.7c-0.8-2.3-2.6-3.3-4.9-3.3
				c-7.5,0-20.6,9.9-26.1,15.5c-7.2,7.4-58.4,75.1-76.3,93.5c-17.9,18.4-40.5,30.6-44.1,30.6c-3.6,0-25,12.3-25,12.3
				s9.3,7.1,14.2,23.1c8.6,27.5,15.4,72.6,19.1,89.7c2.4,10.8,5.3,31.7,8,53.6c1.7,11.2,3.3,21.8,4.7,31.3c2,13.8,3.7,29.3,5.1,43
				c1.1,0.3,2.2,0.6,3.3,0.9l-0.5,1.6c-0.9-0.2-1.8-0.5-2.7-0.8c0.3,2.9,0.6,5.7,0.8,8.4c0.5,0.1,1,0.3,1.5,0.4l-0.4,1.6
				c-0.3-0.1-0.6-0.2-1-0.2c1.5,15.7,2.3,27,2.3,27s80.1,22,101.5,22c21.5,0,93.9-8.9,99.3-13.5c5.4-4.6,6.3-11,6.3-11l1.5-15.9
				c0,0,0.2-1.6,0.5-4.6c-1.1,0.3-2.8,0.8-4.9,1.4l-0.4-1.6c2.6-0.7,4.5-1.3,5.6-1.6c0.2-2.1,0.6-4.7,0.9-7.7
				c-1.1,0.2-2.8,0.5-4.9,0.9l-0.3-1.7c2.5-0.4,4.3-0.8,5.4-1c5.3-45.9,19.9-177.7,16-211c-4.8-40.5-22.7-178.1-25-194
				c-2.4-15.9-7.5-41.4-9.1-56.3c-6.3-58.3-21.6-104.3-24-115.3c-2.4-11-1.2-25.1-3-30.9c-1.8-5.8-3-34-5.4-40.1
				c-2.4-6.1-5.4-19.3-5.4-19.3L634.3,120.9"/>
		</g>
		<g>
			<path d="M169.4,853.1c-2.2-0.1-4.5-0.2-6.8-0.4l0.1-1.7c2.3,0.1,4.6,0.3,6.8,0.4L169.4,853.1 M159.2,852.5
				c-2.2-0.1-4.5-0.3-6.8-0.4l0.1-1.7c2.3,0.2,4.6,0.3,6.8,0.4L159.2,852.5 M149,851.9c-2.2-0.2-4.5-0.3-6.8-0.5l0.1-1.7
				c2.3,0.2,4.6,0.3,6.8,0.5L149,851.9 M138.9,851.1c-2.2-0.2-4.5-0.4-6.8-0.5l0.1-1.7c2.3,0.2,4.5,0.4,6.8,0.5L138.9,851.1
				 M128.7,850.3l-0.6-0.1c-2.1-0.2-4.2-0.4-6.2-0.5l0.1-1.7c2,0.2,4.1,0.4,6.2,0.5l0.6,0.1L128.7,850.3 M174.2,841.3
				c-2.2-0.1-4.5-0.1-6.8-0.2l0.1-1.7c2.3,0.1,4.5,0.1,6.8,0.2L174.2,841.3 M164,840.9c-2.2-0.1-4.5-0.2-6.8-0.3l0.1-1.7
				c2.3,0.1,4.5,0.2,6.8,0.3L164,840.9 M153.9,840.5c-2.2-0.1-4.5-0.2-6.8-0.4l0.1-1.7c2.3,0.1,4.5,0.3,6.8,0.4L153.9,840.5
				 M143.7,839.9l-6.8-0.5l0.1-1.7l6.8,0.5L143.7,839.9 M133.5,839.2l-6.8-0.5l0.1-1.7l6.8,0.5L133.5,839.2 M123.4,838.5
				c-2.3-0.2-4.6-0.3-6.8-0.5l0.1-1.7c2.2,0.2,4.5,0.3,6.8,0.5L123.4,838.5 M135.4,174.6c-1.4,0-2.4,0.4-2.7,1.7
				c0,0.3-0.1,0.6-0.1,0.8c0,4.6,10.7,7.4,14.3,9.2c3.6,1.8,38.5,10.1,38.5,10.1s5.4,2.8,5.4,11c0,8.3-4.5,18.4-11.6,30.3
				c-7.2,12-23.2,3.7-33.1,37.7c-9.8,34-15.2,60.7-18.8,85.5c-3.6,24.8-20.6,79.1-29.5,102c-8.9,23-25.9,124.7-24.1,141.3
				c1.8,16.5,4.5,58.8,5.4,71.7c0.9,12.9,4.5,100.9,4.5,107.3c0,6.4,16.1,35.9,20.6,44.1c1.6,3,3.1,5.6,4.5,8.2
				c1.6,0.1,3.2,0.3,4.9,0.4l-0.1,1.7c-1.3-0.1-2.6-0.2-3.8-0.3c1.6,3.1,2.9,6.2,3.9,9.8l5.4,0.5l-0.2,1.7l-4.9-0.4
				c0,0.2,0.1,0.4,0.1,0.6c1.8,8.3,2.7,34.5,2.7,34.5s14.3,1.8,25.9,1.8c11.6,0,30.4-0.9,30.4-0.9s2.3-14.7,3.3-31.5
				c-1.1,0-2.3-0.1-3.4-0.1l0.1-1.7c1.2,0.1,2.3,0.1,3.5,0.1c0.8-14.3,0.7-29.9-2.5-39c-7.2-20.2-4.5-98.1-15.2-115.6
				c-10.7-17.5-34-23-23.2-51.5c10.7-28.5,45.6-60.7,39.3-94.7c-6.3-34-14.3-94.4-10.7-96.3c3.6-1.8,47.4-18.4,52.8-23
				c5.4-4.6,68-11.9,49.2-61.6c-18.8-49.6-25-68.9-29.5-94.7c-4.5-25.7,15.2-79.1,15.2-79.1l7.2-0.9c0,0-61.7-5.5-74.2-7.4
				c-12.5-1.8-36.7-11-41.1-11.9C140.8,175.7,137.6,174.6,135.4,174.6"/>
		</g>
		<g>
			<path d="M119.5,164l-0.9-0.1l0.5-0.7l-0.2-0.8c0.6-0.2,1.9-0.4,3.8-0.9l0.4,1.7C121.2,163.6,120,163.9,119.5,164 M126.4,162.4
				l-0.3-1.7c1.8-0.4,4-0.9,6.6-1.4l0.3,1.7C130.4,161.5,128.2,162,126.4,162.4 M119.1,144.1l-0.9-0.1l0.5-0.7l-0.2-0.8
				c0.6-0.2,1.9-0.4,3.8-0.9l0.4,1.7C120.8,143.7,119.6,144,119.1,144.1 M126,142.5l-0.3-1.7c1.8-0.4,4-0.9,6.6-1.4l0.3,1.7
				C130,141.7,127.8,142.1,126,142.5 M117.8,122.1c-1.1,0-0.6,7.1-0.6,8.8c0,3.1-1.6,9.5-2,13.2c-0.4,3.7-0.2,12.3-0.2,12.3
				c0.1,3.1,0,11,0,11s0,3.7-0.3,6.8c-0.3,3.1-2.7,8.6-2.7,11c0,2.5-3.8,13.2-3.8,13.2l-2.9,8.4l-0.5,8.6c0,0-1.4,6.5-1.2,12.3
				c0.2,5.8-1.1,15.1-2.3,18.8c-1.2,3.7-4.2,22.7-4.5,27.5c-0.3,4.8-10.4,49.1-12.2,54.7c-0.7,2.2-7.3,44-14.7,93.3
				c4.6-15.5,17.2-66.7,17.7-69.4c0.6-3.1,10.1-28.8,10.1-35.5c0-6.7,11.9-46.6,14.3-55.8c2.4-9.2,20.5-62,20.5-62l4.5-0.5v-12.3
				c0,0-4.8-6.1-4.5-9.2l0,0l0,0c0-0.3,0-0.6,0.1-0.8l0,0l0,0l0,0l0,0c0.5-4.4,2-18.2,2-18.2s3.6-2.5,4.2-4.3
				c0.6-1.8,3.5-11.1,3.5-11.1s-2.5-0.9-5.8-2.4c-0.3,0.1-0.6,0.1-0.8,0.2l-0.1-0.6c-4.2-2-9.4-4.9-12.4-8.2
				C120.9,128.9,117.9,122.1,117.8,122.1L117.8,122.1"/>
		</g>
		<g opacity="0.5">
			<path d="M103.4,236.7l-0.4-0.4l-0.5-0.2c0,0,0.2-0.4,0.4-1l0.9,0.3C103.5,236.6,103.5,236.6,103.4,236.7z M104.5,233.8l-0.9-0.3
				c0.4-1.1,0.8-2.3,1.2-3.4l1,0.3C105.3,231.5,104.9,232.7,104.5,233.8z M106.2,228.6l-1-0.3c0.2-0.6,0.3-1.1,0.3-1.4
				c0.1-0.6,0.2-1.3,0.4-2.1l1,0.2c-0.2,0.8-0.3,1.5-0.4,2.1C106.6,227.4,106.4,227.9,106.2,228.6z M107.5,223.3l-1-0.3
				c0.4-1.3,0.8-2.4,1.3-3.5l0.9,0.4C108.2,220.9,107.8,222.1,107.5,223.3z M109.5,218.3l-0.9-0.5l0.1-0.2c0.3-0.5,0.7-1.6,1.3-3.1
				l0.9,0.3c-0.5,1.6-1,2.6-1.3,3.2L109.5,218.3z M111.5,213.2l-1-0.3c0.3-1.1,0.7-2.2,1.1-3.5l1,0.3
				C112.2,210.9,111.9,212.1,111.5,213.2z M113.1,207.9l-1-0.3c0.3-1.2,0.7-2.3,1-3.5l1,0.3C113.7,205.6,113.4,206.8,113.1,207.9z
				 M114.5,202.7l-1-0.3c0.3-1.2,0.6-2.4,0.9-3.5l1,0.3C115.2,200.3,114.9,201.4,114.5,202.7z M115.9,197.4l-1-0.2
				c0.3-1.2,0.6-2.2,0.7-2.8c0-0.2,0.1-0.4,0.1-0.7l1,0.2c-0.1,0.3-0.1,0.5-0.2,0.7C116.5,195.2,116.2,196.2,115.9,197.4z
				 M117.1,192l-1-0.1c0.1-1,0.3-2.3,0.4-3.6l1,0.1C117.4,189.7,117.2,191,117.1,192z M117.7,186.6l-1-0.1c0.1-1.2,0.2-2.4,0.3-3.6
				l1,0.1C117.9,184.2,117.8,185.4,117.7,186.6z M118.1,181.1l-1-0.1c0.1-1.3,0.2-2.5,0.2-3.6l1,0.1
				C118.3,178.6,118.2,179.8,118.1,181.1z M118.4,175.7l-1,0c0-0.8,0.1-1.5,0.1-1.9c0-0.4-0.1-1-0.2-1.6l1-0.2
				c0.2,0.7,0.2,1.3,0.2,1.8C118.5,174.2,118.5,174.8,118.4,175.7z M116.8,170.5c-0.3-1-0.7-2.1-1.1-3l-0.1-0.4l0.9-0.4l0.1,0.4
				c0.4,0.9,0.8,2,1.1,3L116.8,170.5z M114.9,165.3l-0.1-0.3c-0.1-0.2-0.1-0.4-0.1-0.7c0-0.7,0.1-1.6,0.4-2.9l1,0.2
				c-0.3,1.2-0.4,2.1-0.4,2.6c0,0.2,0,0.4,0,0.4l0.1,0.2L114.9,165.3z M116.6,160l-1-0.3c0.3-1.2,0.7-2.4,1.1-3.5l1,0.3
				C117.3,157.7,116.9,158.9,116.6,160z M118.2,154.8l-1-0.3l0.4-1.3c0.2-0.5,0.3-0.9,0.4-1.2c0.1-0.3,0.2-0.6,0.3-0.9l1,0.2
				c-0.1,0.4-0.2,0.7-0.3,1c-0.1,0.3-0.2,0.7-0.4,1.2L118.2,154.8z M119.7,149.5l-1-0.1c0.2-1.1,0.3-2.4,0.3-3.6l1,0
				C120,147,119.8,148.3,119.7,149.5z M119,144c-0.1-1-0.2-2.2-0.5-3.5l1-0.2c0.3,1.4,0.4,2.6,0.5,3.7L119,144z M118.1,138.7
				c-0.1-0.5-0.2-1-0.3-1.5c-0.1-0.6-0.3-1.3-0.4-2.1l1-0.2c0.1,0.8,0.3,1.5,0.4,2c0.1,0.5,0.2,1,0.3,1.5L118.1,138.7z M117.1,133.4
				c-0.3-1.9-0.5-3.6-0.5-3.6l1-0.1c0,0,0.2,1.7,0.5,3.6L117.1,133.4z"/>
		</g>
	</g>
</g>
</svg>
