<?xml version="1.0" encoding="utf-8"?>
<!-- Generator: Adobe Illustrator 27.1.1, SVG Export Plug-In . SVG Version: 6.00 Build 0)  -->
<svg version="1.1" xmlns="http://www.w3.org/2000/svg" xmlns:xlink="http://www.w3.org/1999/xlink" x="0px" y="0px"
	 viewBox="0 0 763.3 1032.7" enable-background="new 0 0 773.3 1032.7" xml:space="preserve">

<g id="OUTLINE">
	<path fill="none" stroke="#897F76" stroke-miterlimit="10" d="M231.2,299.1c11.5-47.4,48.9-100.6,48.9-107.8c0-1.4,1-3.6,2.5-6.1
		c-0.1,0-0.2,0-0.2,0c6.6-10.5,21.8-26.6,21.8-26.6s59.9,1.5,74.6,13.2c5.1,4.1,18.4,19.5,34,38.2c-0.3-0.1-0.5-0.3-0.8-0.4
		c28.9,34.6,66.6,78.7,70.9,83.8c6.1,7.3,56.1,93.5,58.9,125.1c2.9,31.6,4.3,70.4,0,87.7c-4.3,17.3,1.4,106.4-2.9,139.5
		c-4.3,33.1-0.8,141-19.7,180.5c0,0-87.2-23.9-154.1,14.9c-117.6,68.1-98.2,16.3-98.9,13.4c-28.4-129.9,8.2-251.9,8.2-272
		c0-20.1-25.9-89.1-33.1-115C234,441.4,219.7,346.5,231.2,299.1z"/>
</g>
  <g id="RIGHTMASK">
<g id="LOWER_BODY">
	<path fill="#FFFFFF" d="M541.7,418.4c-2.9-31.6-52.8-117.8-58.9-125.1c-4.4-5.2-42.6-49.9-71.5-84.6c-16.4-8.7-42.2-21.3-60.3-24.1
		c-18.8-3-49.4-1.5-68-0.2c-1.8,2.9-3,5.3-3,6.9c0,7.2-37.4,60.4-48.9,107.8c-11.5,47.4,2.9,142.3,10.1,168.2
		c7.2,25.9,33.1,94.9,33.1,115c0,20.1-36.6,142.1-8.2,272c0.6,2.9-18.7,54.7,98.9-13.4c66.9-38.7,154.1-14.9,154.1-14.9
		c18.9-39.5,15.4-147.4,19.7-180.5c4.3-33.1-1.4-122.2,2.9-139.5C546,488.8,544.6,450,541.7,418.4z"/>
</g>
<g id="FAUX_SIDE_PANELS">
	<g>
		<polygon points="413.7,566.1 359.8,506.1 312.6,558.6 312.6,402.7 413.7,402.7 		"/>
		<polygon points="413.7,586.7 413.7,620.1 359.8,560.1 312.6,612.6 312.6,579.3 359.8,526.8 		"/>
		<polygon points="413.7,640.7 413.7,674 359.8,614 312.6,666.5 312.6,633.2 359.8,580.7 		"/>
		<path d="M359.8,635.7l53.9,60V823c-16.6,3.3-33.6,9-49.4,18.1c-21.5,12.5-38.5,20.9-51.8,26.4V688.2L359.8,635.7z"/>
	</g>
</g>
<g id="UPPER_BACK_FAUX_PANEL">
	<path fill="#897F76" d="M231.3,298.7c11.5-47.3,48.7-100.3,48.7-107.5c0-1.6,1.2-4,2.9-6.8c18.5-1.3,49.1-2.8,67.7,0.2
		c2.2,0.3,4.5,0.8,6.8,1.4v165.8l-1.3-1.4V341v9.4c0,0-76.6,30.9-118.2,28.2c-3.3-0.2-6.5-0.5-9.7-0.9
		C226.2,348.8,226.3,319.3,231.3,298.7z"/>
</g>
<g id="MID-STRIPE">
	<path fill="#64615E" stroke="#897F76" stroke-width="0.3796" d="M358.3,379.4l181.8,187c0.1,7.4,0.2,15,0.3,22.5L358.3,401.6V379.4
		z"/>
</g>
<g id="UPPER_BODY">
	<path fill="#897F76" d="M540.5,541.9l-183.6-190V186.1c17.2,4.4,40.9,15,55.2,22.6c28.8,34.6,67,79.2,71.3,84.3
		c6.1,7.3,55.9,93.1,58.8,124.7c2.9,31.5,4.3,70.2,0,87.4C540.7,510.9,540.4,524.8,540.5,541.9z"/>
</g>
    </g>
  <g id="CUSTOM">
</g>
<g id="SHIRT_SLEEVE">
	<g>
		
			<image overflow="visible" opacity="0.2" width="209" height="299" xlink:href="/svg/SBDUS67/9A3DB7D2.png"  transform="matrix(1 0 0 1 252.7897 199.2697)">
		</image>
		<g>
			<path fill="#64615E" d="M443.5,309.4c-1.2-34.6-10.3-80.5-57.7-89.4c-47.4-8.9-75.9,5.6-75.9,5.6s-15.2,6.1-23,25.9
				c-7.8,19.7-16,51.3-16.4,65.8c-1,33.6,7.3,77.2,7,87.4s-3.1,59.7-3.1,59.7s9.3,12.4,79.8,14.7c71.3,2.3,79.2-13.6,79.2-13.6
				s-1.6-66,0.3-74.9C435.4,381.7,444.7,344,443.5,309.4z"/>
			<path fill="none" stroke="#897F76" stroke-width="0.3461" d="M443.5,309.4c-1.2-34.6-10.3-80.5-57.7-89.4
				c-47.4-8.9-75.9,5.6-75.9,5.6s-15.2,6.1-23,25.9c-7.8,19.7-16,51.3-16.4,65.8c-1,33.6,7.3,77.2,7,87.4s-3.1,59.7-3.1,59.7
				s9.3,12.4,79.8,14.7c71.3,2.3,79.2-13.6,79.2-13.6s-1.6-66,0.3-74.9C435.4,381.7,444.7,344,443.5,309.4z"/>
		</g>
	</g>
</g>
<g id="SHIRT_COLLAR">
	<path d="M351.4,185.3c18.3,2.9,44.6,15.7,61.3,24.6c-15.6-18.7-28.9-34.2-34-38.2c-14.6-11.7-74.6-13.2-74.6-13.2
		s-15.2,16.1-21.8,26.6C301.2,183.8,332.3,182.3,351.4,185.3z"/>
</g>
<g id="SHIRT_STITCH">
	<g>
		<g>
			<g opacity="0.5">
				<g>
					<path opacity="0.5" fill="none" stroke="#000000" stroke-width="0.3709" d="M364.9,838.3c-0.1-7.4-0.1-14.9-0.2-22.3"/>
					<path opacity="0.5" fill="none" stroke="#000000" stroke-width="0.3709" d="M358.8,837.5c-0.1-7.4-0.1-14.9-0.2-22.3"/>
					<path opacity="0.5" fill="none" stroke="#000000" stroke-width="0.3709" d="M362.8,838c-0.1-7.4-0.1-14.9-0.2-22.3"/>
					<path opacity="0.5" fill="none" stroke="#000000" stroke-width="0.3709" d="M360.8,837.8c-0.1-7.4-0.1-14.9-0.2-22.3"/>
					<path opacity="0.5" fill="none" stroke="#000000" stroke-width="0.3709" d="M365.2,815.7c-0.2,5.5-6.2-1.5-6.9,2.2
						c-1.2,6.4,5.9,2.2,6.7,4.5c2.3,6.3-6,2.5-6.4,3.3c-2.8,5.6,6,4.6,6.3,5.2c2.3,4.8-2,4.1-2.7,4c-1.2-0.1-4.5-2.3-3.9,2.6"/>
					<path opacity="0.5" fill="none" stroke="#000000" stroke-width="0.3709" d="M365.2,838.8c1.4-7.3-5.5-2.4-6.6-4.6
						c-2.9-6.3,5.9-3.4,6.2-3.8c3.4-5.5-5.9-5-6-5.3c-3.3-5.7,5.5-3.1,5.8-3.4c2.1-2.8-0.4-4.2-1.4-4.5c-1.5-0.4-3.5,0.4-4.9-1.1"/>
					<path opacity="0.5" fill="none" stroke="#000000" stroke-width="0.3709" d="M363.2,838.5c-1.5-1.1-3-2.2-4.5-3.3"/>
					<line opacity="0.5" fill="none" stroke="#000000" stroke-width="0.3709" x1="365.4" y1="835.8" x2="358.6" y2="830.9"/>
					<line opacity="0.5" fill="none" stroke="#000000" stroke-width="0.3709" x1="365.3" y1="831.5" x2="358.6" y2="826.6"/>
					<line opacity="0.5" fill="none" stroke="#000000" stroke-width="0.3709" x1="365.3" y1="826.6" x2="358.6" y2="821.7"/>
					<line opacity="0.5" fill="none" stroke="#000000" stroke-width="0.3709" x1="365.3" y1="822" x2="358.5" y2="817.1"/>
				</g>
				<g>
					<line opacity="0.5" fill="none" stroke="#000000" stroke-width="0.3709" x1="364.7" y1="815.7" x2="364.2" y2="754.1"/>
					<line opacity="0.5" fill="none" stroke="#000000" stroke-width="0.3709" x1="358.6" y1="814.9" x2="358.2" y2="753.4"/>
					<line opacity="0.5" fill="none" stroke="#000000" stroke-width="0.3709" x1="362.7" y1="815.4" x2="362.2" y2="753.9"/>
					<line opacity="0.5" fill="none" stroke="#000000" stroke-width="0.3709" x1="360.7" y1="815.2" x2="360.2" y2="753.6"/>
					<path opacity="0.5" fill="none" stroke="#000000" stroke-width="0.3709" d="M364.8,753.9c0,1.9-0.5,2-0.5,2l-6-0.8
						c0,0-0.4-0.9-0.4,1.4c0,2.4,0.5,2.9,0.5,2.9l6,0.8c0,0,0.4-0.1,0.4,2c0,2.1-0.5,2.3-0.5,2.3l-5.9-0.8c0,0-0.4,0.1-0.4,2.2
						c0,2.1,0.5,2.3,0.5,2.3l6,0.8c0,0,0.4,0.3,0.4,2.1c0,1.8-0.4,2.3-0.4,2.3l-6.1-0.8c0,0-0.4,0-0.4,2c0,2.2,0.4,2.6,0.4,2.6
						l6.1,0.8c0,0,0.5-0.1,0.5,2.3c0,2.4-0.5,2.3-0.5,2.3l-6-0.8c0,0-0.4-0.1-0.4,2c0,2.1,0.5,2.7,0.5,2.7l6,0.8
						c0,0,0.5,0.4,0.5,2.4c0,2.1-0.5,2.2-0.5,2.2l-5.9-0.7c0,0-0.6-0.4-0.6,1.7c0,2.1,0.6,2.5,0.6,2.5l5.8,0.7c0,0,0.4-0.5,0.5,1.8
						c0,2.4-0.5,2.6-0.5,2.6l-5.8-0.7c0,0-0.7-0.1-0.6,2.2c0,2.2,0.7,2.5,0.7,2.5l5.8,0.7c0,0,0.5-0.3,0.5,1.8
						c0,2.1-0.5,2.3-0.5,2.3l-5.8-0.7c0,0-0.6-0.1-0.6,2c0,2.1,0.6,2.3,0.6,2.3l5.9,0.7l0.4,0.5"/>
					<path opacity="0.5" fill="none" stroke="#000000" stroke-width="0.3709" d="M358.3,814.6c0-1.9,0.5-2,0.5-2l6,0.7
						c0,0,0.4,1,0.4-1.4c0-2.4-0.5-2.9-0.5-2.9l-6-0.7c0,0-0.4,0.1-0.4-2c0-2.1,0.5-2.3,0.5-2.3l5.9,0.7c0,0,0.4-0.1,0.4-2.2
						c0-2.1-0.5-2.3-0.5-2.3l-6-0.8c0,0-0.4-0.3-0.4-2.1c0-1.8,0.4-2.3,0.4-2.3l6.1,0.8c0,0,0.4,0,0.4-2c0-2.2-0.4-2.6-0.4-2.6
						l-6.1-0.8c0,0-0.5,0.1-0.5-2.3c0-2.4,0.5-2.3,0.5-2.3l6,0.8c0,0,0.4,0.1,0.4-2c0-2.1-0.5-2.7-0.5-2.7l-6-0.8
						c0,0-0.5-0.4-0.5-2.4c0-2.1,0.5-2.2,0.5-2.2l5.9,0.7c0,0,0.6,0.4,0.5-1.7c0-2.1-0.6-2.4-0.6-2.4l-5.8-0.7c0,0-0.4,0.5-0.4-1.8
						c0-2.4,0.5-2.6,0.5-2.6l5.8,0.7c0,0,0.7,0.1,0.6-2.2c0-2.2-0.7-2.5-0.7-2.5l-5.8-0.7c0,0-0.5,0.3-0.5-1.8
						c0-2.1,0.5-2.3,0.5-2.3l5.8,0.7c0,0,0.6,0.1,0.6-2c0-2.1-0.6-2.3-0.6-2.3l-5.9-0.7l-0.4-0.5"/>
					<line opacity="0.5" fill="none" stroke="#000000" stroke-width="0.3709" x1="365.2" y1="813.4" x2="358.5" y2="808.6"/>
					<line opacity="0.5" fill="none" stroke="#000000" stroke-width="0.3709" x1="365.2" y1="809.4" x2="358.4" y2="804.6"/>
					<line opacity="0.5" fill="none" stroke="#000000" stroke-width="0.3709" x1="365.1" y1="804.4" x2="358.4" y2="799.6"/>
					<line opacity="0.5" fill="none" stroke="#000000" stroke-width="0.3709" x1="365.1" y1="800.1" x2="358.4" y2="795.3"/>
					<line opacity="0.5" fill="none" stroke="#000000" stroke-width="0.3709" x1="365.1" y1="796.4" x2="358.3" y2="791.5"/>
					<line opacity="0.5" fill="none" stroke="#000000" stroke-width="0.3709" x1="365" y1="792" x2="358.3" y2="787.2"/>
					<line opacity="0.5" fill="none" stroke="#000000" stroke-width="0.3709" x1="365" y1="787.6" x2="358.3" y2="782.7"/>
					<line opacity="0.5" fill="none" stroke="#000000" stroke-width="0.3709" x1="365" y1="782.7" x2="358.2" y2="777.8"/>
					<line opacity="0.5" fill="none" stroke="#000000" stroke-width="0.3709" x1="364.9" y1="778.2" x2="358.2" y2="773.4"/>
					<line opacity="0.5" fill="none" stroke="#000000" stroke-width="0.3709" x1="364.9" y1="773.9" x2="358.2" y2="769.1"/>
					<line opacity="0.5" fill="none" stroke="#000000" stroke-width="0.3709" x1="364.9" y1="769.6" x2="358.1" y2="764.8"/>
					<line opacity="0.5" fill="none" stroke="#000000" stroke-width="0.3709" x1="364.8" y1="764.7" x2="358.1" y2="759.9"/>
					<line opacity="0.5" fill="none" stroke="#000000" stroke-width="0.3709" x1="364.8" y1="760.1" x2="358.1" y2="755.3"/>
				</g>
				<g>
					<line opacity="0.5" fill="none" stroke="#000000" stroke-width="0.3709" x1="364.2" y1="753.8" x2="363.8" y2="692.3"/>
					<line opacity="0.5" fill="none" stroke="#000000" stroke-width="0.3709" x1="358.2" y1="753" x2="357.8" y2="691.5"/>
					<line opacity="0.5" fill="none" stroke="#000000" stroke-width="0.3709" x1="362.2" y1="753.6" x2="361.8" y2="692"/>
					<line opacity="0.5" fill="none" stroke="#000000" stroke-width="0.3709" x1="360.2" y1="753.3" x2="359.8" y2="691.8"/>
					<path opacity="0.5" fill="none" stroke="#000000" stroke-width="0.3709" d="M364.3,692c0,1.9-0.5,2-0.5,2l-6-0.8
						c0,0-0.4-0.9-0.4,1.4c0,2.4,0.5,2.9,0.5,2.9l6,0.8c0,0,0.4-0.1,0.4,2c0,2.1-0.5,2.3-0.5,2.3l-5.9-0.8c0,0-0.4,0.1-0.4,2.2
						c0,2.1,0.5,2.3,0.5,2.3l6,0.8c0,0,0.4,0.4,0.4,2.1c0,1.8-0.4,2.3-0.4,2.3l-6.1-0.8c0,0-0.4,0-0.4,2c0,2.2,0.4,2.6,0.4,2.6
						l6.1,0.8c0,0,0.5-0.1,0.5,2.3c0,2.4-0.5,2.3-0.5,2.3l-6-0.8c0,0-0.4-0.1-0.4,2c0,2.1,0.5,2.7,0.5,2.7l6,0.8
						c0,0,0.5,0.4,0.5,2.4c0,2.1-0.5,2.2-0.5,2.2l-5.9-0.8c0,0-0.6-0.4-0.6,1.7c0,2.1,0.6,2.5,0.6,2.5l5.8,0.7c0,0,0.4-0.5,0.4,1.8
						c0,2.4-0.5,2.6-0.5,2.6l-5.8-0.7c0,0-0.7-0.1-0.6,2.1c0,2.2,0.7,2.5,0.7,2.5l5.8,0.7c0,0,0.5-0.3,0.5,1.8
						c0,2.1-0.5,2.3-0.5,2.3l-5.8-0.7c0,0-0.6-0.1-0.6,2c0,2.1,0.6,2.3,0.6,2.3l5.9,0.7l0.4,0.5"/>
					<path opacity="0.5" fill="none" stroke="#000000" stroke-width="0.3709" d="M357.8,752.8c0-1.9,0.5-2,0.5-2l6,0.8
						c0,0,0.4,0.9,0.4-1.4c0-2.4-0.5-2.9-0.5-2.9l-6-0.8c0,0-0.4,0.1-0.4-2c0-2.1,0.5-2.3,0.5-2.3l5.9,0.8c0,0,0.4-0.1,0.4-2.2
						c0-2.1-0.5-2.3-0.5-2.3l-6-0.8c0,0-0.4-0.3-0.4-2.1c0-1.8,0.4-2.3,0.4-2.3l6.1,0.8c0,0,0.4,0.1,0.4-2c0-2.2-0.4-2.6-0.4-2.6
						l-6.1-0.8c0,0-0.5,0.1-0.5-2.3c0-2.4,0.5-2.3,0.5-2.3l6,0.8c0,0,0.4,0.1,0.4-2c0-2.1-0.5-2.7-0.5-2.7l-6-0.8
						c0,0-0.5-0.4-0.5-2.4c0-2.1,0.5-2.2,0.5-2.2l5.9,0.7c0,0,0.6,0.4,0.5-1.7c0-2.1-0.6-2.5-0.6-2.5l-5.8-0.7c0,0-0.4,0.5-0.4-1.8
						c0-2.4,0.5-2.6,0.5-2.6l5.8,0.7c0,0,0.7,0.1,0.6-2.1c0-2.2-0.7-2.5-0.7-2.5l-5.8-0.7c0,0-0.5,0.3-0.5-1.8
						c0-2.1,0.5-2.3,0.5-2.3l5.8,0.7c0,0,0.6,0.1,0.6-2c0-2.1-0.6-2.3-0.6-2.3l-5.9-0.7l-0.4-0.5"/>
					<line opacity="0.5" fill="none" stroke="#000000" stroke-width="0.3709" x1="364.7" y1="751.6" x2="358" y2="746.7"/>
					<line opacity="0.5" fill="none" stroke="#000000" stroke-width="0.3709" x1="364.7" y1="747.6" x2="358" y2="742.7"/>
					<line opacity="0.5" fill="none" stroke="#000000" stroke-width="0.3709" x1="364.7" y1="742.6" x2="358" y2="737.7"/>
					<line opacity="0.5" fill="none" stroke="#000000" stroke-width="0.3709" x1="364.6" y1="738.3" x2="357.9" y2="733.4"/>
					<line opacity="0.5" fill="none" stroke="#000000" stroke-width="0.3709" x1="364.6" y1="734.5" x2="357.9" y2="729.6"/>
					<line opacity="0.5" fill="none" stroke="#000000" stroke-width="0.3709" x1="364.6" y1="730.2" x2="357.9" y2="725.3"/>
					<line opacity="0.5" fill="none" stroke="#000000" stroke-width="0.3709" x1="364.6" y1="725.7" x2="357.8" y2="720.9"/>
					<line opacity="0.5" fill="none" stroke="#000000" stroke-width="0.3709" x1="364.5" y1="720.8" x2="357.8" y2="716"/>
					<line opacity="0.5" fill="none" stroke="#000000" stroke-width="0.3709" x1="364.5" y1="716.4" x2="357.8" y2="711.5"/>
					<line opacity="0.5" fill="none" stroke="#000000" stroke-width="0.3709" x1="364.5" y1="712.1" x2="357.7" y2="707.2"/>
					<line opacity="0.5" fill="none" stroke="#000000" stroke-width="0.3709" x1="364.4" y1="707.8" x2="357.7" y2="702.9"/>
					<line opacity="0.5" fill="none" stroke="#000000" stroke-width="0.3709" x1="364.4" y1="702.9" x2="357.7" y2="698"/>
					<line opacity="0.5" fill="none" stroke="#000000" stroke-width="0.3709" x1="364.4" y1="698.3" x2="357.6" y2="693.4"/>
				</g>
				<g>
					<line opacity="0.5" fill="none" stroke="#000000" stroke-width="0.3709" x1="363.8" y1="692" x2="363.4" y2="630.4"/>
					<line opacity="0.5" fill="none" stroke="#000000" stroke-width="0.3709" x1="357.8" y1="691.2" x2="357.3" y2="629.7"/>
					<line opacity="0.5" fill="none" stroke="#000000" stroke-width="0.3709" x1="361.8" y1="691.7" x2="361.3" y2="630.2"/>
					<line opacity="0.5" fill="none" stroke="#000000" stroke-width="0.3709" x1="359.8" y1="691.4" x2="359.3" y2="629.9"/>
					<path opacity="0.5" fill="none" stroke="#000000" stroke-width="0.3709" d="M363.9,630.2c0,1.9-0.6,2-0.6,2l-6-0.8
						c0,0-0.4-0.9-0.4,1.4c0,2.4,0.5,2.9,0.5,2.9l6,0.8c0,0,0.4-0.1,0.4,2c0,2.1-0.5,2.3-0.5,2.3l-5.9-0.8c0,0-0.4,0.1-0.4,2.2
						c0,2.1,0.5,2.3,0.5,2.3l6,0.8c0,0,0.4,0.4,0.4,2.1c0,1.8-0.4,2.3-0.4,2.3l-6.1-0.8c0,0-0.4-0.1-0.4,2c0,2.2,0.4,2.6,0.4,2.6
						l6.1,0.8c0,0,0.5-0.1,0.5,2.3c0,2.4-0.5,2.3-0.5,2.3l-6-0.8c0,0-0.4-0.1-0.4,2c0,2.1,0.4,2.7,0.4,2.7l6,0.8
						c0,0,0.5,0.4,0.5,2.4c0,2.1-0.5,2.2-0.5,2.2l-5.9-0.8c0,0-0.6-0.4-0.5,1.7c0,2.1,0.6,2.5,0.6,2.5l5.8,0.7c0,0,0.4-0.5,0.4,1.8
						c0,2.4-0.5,2.6-0.5,2.6l-5.8-0.8c0,0-0.6-0.1-0.6,2.2c0,2.2,0.7,2.5,0.7,2.5l5.8,0.7c0,0,0.5-0.3,0.5,1.8
						c0,2.1-0.5,2.3-0.5,2.3l-5.8-0.8c0,0-0.6-0.1-0.6,2c0,2.1,0.6,2.3,0.6,2.3l5.9,0.8l0.4,0.5"/>
					<path opacity="0.5" fill="none" stroke="#000000" stroke-width="0.3709" d="M357.3,690.9c0-1.9,0.5-2,0.5-2l6,0.8
						c0,0,0.4,0.9,0.4-1.4c0-2.4-0.5-2.9-0.5-2.9l-6-0.8c0,0-0.4,0.1-0.4-2c0-2.1,0.5-2.3,0.5-2.3l5.9,0.8c0,0,0.4-0.1,0.4-2.2
						c0-2.1-0.5-2.3-0.5-2.3l-6-0.8c0,0-0.4-0.3-0.4-2.1c0-1.8,0.4-2.3,0.4-2.3l6.1,0.8c0,0,0.4,0.1,0.4-2c0-2.2-0.4-2.6-0.4-2.6
						l-6.1-0.8c0,0-0.5,0.1-0.5-2.3c0-2.4,0.5-2.3,0.5-2.3l6,0.8c0,0,0.4,0,0.4-2c0-2.1-0.5-2.7-0.5-2.7l-6-0.8c0,0-0.5-0.4-0.5-2.4
						c0-2.1,0.5-2.2,0.5-2.2l5.9,0.8c0,0,0.6,0.4,0.5-1.7c0-2.1-0.6-2.5-0.6-2.5l-5.8-0.8c0,0-0.4,0.5-0.4-1.8
						c0-2.4,0.5-2.6,0.5-2.6l5.8,0.7c0,0,0.7,0.1,0.6-2.1c0-2.2-0.7-2.5-0.7-2.5l-5.8-0.8c0,0-0.5,0.3-0.5-1.8
						c0-2.1,0.5-2.3,0.5-2.3l5.8,0.7c0,0,0.6,0.1,0.6-2c0-2.1-0.6-2.3-0.6-2.3l-5.9-0.8l-0.4-0.5"/>
					<line opacity="0.5" fill="none" stroke="#000000" stroke-width="0.3709" x1="364.3" y1="689.7" x2="357.6" y2="684.9"/>
					<line opacity="0.5" fill="none" stroke="#000000" stroke-width="0.3709" x1="364.3" y1="685.8" x2="357.5" y2="680.9"/>
					<line opacity="0.5" fill="none" stroke="#000000" stroke-width="0.3709" x1="364.2" y1="680.7" x2="357.5" y2="675.8"/>
					<line opacity="0.5" fill="none" stroke="#000000" stroke-width="0.3709" x1="364.2" y1="676.4" x2="357.5" y2="671.5"/>
					<line opacity="0.5" fill="none" stroke="#000000" stroke-width="0.3709" x1="364.2" y1="672.7" x2="357.5" y2="667.8"/>
					<line opacity="0.5" fill="none" stroke="#000000" stroke-width="0.3709" x1="364.2" y1="668.4" x2="357.4" y2="663.5"/>
					<line opacity="0.5" fill="none" stroke="#000000" stroke-width="0.3709" x1="364.1" y1="663.9" x2="357.4" y2="659"/>
					<line opacity="0.5" fill="none" stroke="#000000" stroke-width="0.3709" x1="364.1" y1="659" x2="357.4" y2="654.1"/>
					<line opacity="0.5" fill="none" stroke="#000000" stroke-width="0.3709" x1="364.1" y1="654.5" x2="357.3" y2="649.7"/>
					<line opacity="0.5" fill="none" stroke="#000000" stroke-width="0.3709" x1="364" y1="650.2" x2="357.3" y2="645.3"/>
					<line opacity="0.5" fill="none" stroke="#000000" stroke-width="0.3709" x1="364" y1="645.9" x2="357.3" y2="641"/>
					<line opacity="0.5" fill="none" stroke="#000000" stroke-width="0.3709" x1="364" y1="641" x2="357.2" y2="636.1"/>
					<line opacity="0.5" fill="none" stroke="#000000" stroke-width="0.3709" x1="363.9" y1="636.4" x2="357.2" y2="631.5"/>
				</g>
				<g>
					<line opacity="0.5" fill="none" stroke="#000000" stroke-width="0.3709" x1="363.4" y1="630.1" x2="362.9" y2="568.6"/>
					<line opacity="0.5" fill="none" stroke="#000000" stroke-width="0.3709" x1="357.3" y1="629.3" x2="356.9" y2="567.8"/>
					<line opacity="0.5" fill="none" stroke="#000000" stroke-width="0.3709" x1="361.3" y1="629.8" x2="360.9" y2="568.3"/>
					<line opacity="0.5" fill="none" stroke="#000000" stroke-width="0.3709" x1="359.3" y1="629.6" x2="358.9" y2="568"/>
					<path opacity="0.5" fill="none" stroke="#000000" stroke-width="0.3709" d="M363.5,568.3c0,1.9-0.5,2-0.5,2l-6-0.8
						c0,0-0.4-0.9-0.4,1.4c0,2.4,0.5,2.9,0.5,2.9l6,0.8c0,0,0.4-0.1,0.5,2c0,2.1-0.5,2.3-0.5,2.3l-5.9-0.8c0,0-0.4,0.1-0.4,2.2
						c0,2.1,0.5,2.3,0.5,2.3l6,0.8c0,0,0.4,0.4,0.4,2.1c0,1.8-0.4,2.3-0.4,2.3l-6.1-0.8c0,0-0.4,0-0.4,2c0,2.2,0.4,2.6,0.4,2.6
						l6.1,0.8c0,0,0.5-0.1,0.5,2.3c0,2.4-0.5,2.3-0.5,2.3l-6-0.8c0,0-0.4-0.1-0.4,2c0,2.1,0.5,2.7,0.5,2.7l6,0.8
						c0,0,0.5,0.4,0.5,2.4c0,2.1-0.5,2.2-0.5,2.2l-5.9-0.8c0,0-0.6-0.4-0.6,1.7c0,2.1,0.6,2.5,0.6,2.5l5.8,0.8c0,0,0.4-0.5,0.4,1.8
						c0,2.4-0.5,2.6-0.5,2.6l-5.8-0.8c0,0-0.7-0.1-0.6,2.2c0,2.2,0.7,2.5,0.7,2.5l5.8,0.8c0,0,0.5-0.3,0.5,1.8
						c0,2.1-0.5,2.3-0.5,2.3l-5.8-0.8c0,0-0.6-0.1-0.6,2c0,2.1,0.6,2.3,0.6,2.3l5.9,0.8l0.4,0.5"/>
					<path opacity="0.5" fill="none" stroke="#000000" stroke-width="0.3709" d="M356.9,629.1c0-1.9,0.5-2,0.5-2l6,0.8
						c0,0,0.4,0.9,0.4-1.4c0-2.4-0.5-2.9-0.5-2.9l-6-0.8c0,0-0.4,0.1-0.4-2c0-2.1,0.5-2.3,0.5-2.3l5.9,0.8c0,0,0.4-0.1,0.4-2.2
						c0-2.1-0.5-2.3-0.5-2.3l-6-0.8c0,0-0.4-0.3-0.4-2.1c0-1.8,0.4-2.3,0.4-2.3l6.1,0.8c0,0,0.4,0,0.4-2c0-2.2-0.4-2.6-0.4-2.6
						l-6.1-0.8c0,0-0.5,0.1-0.5-2.3c0-2.4,0.5-2.3,0.5-2.3l6,0.8c0,0,0.4,0.1,0.4-2c0-2.1-0.5-2.7-0.5-2.7l-6-0.8
						c0,0-0.5-0.4-0.5-2.4c0-2.1,0.5-2.2,0.5-2.2l5.9,0.8c0,0,0.6,0.4,0.5-1.7c0-2.1-0.6-2.4-0.6-2.4l-5.8-0.8c0,0-0.4,0.5-0.4-1.8
						c0-2.4,0.5-2.6,0.5-2.6l5.8,0.8c0,0,0.6,0.1,0.6-2.1c0-2.2-0.7-2.5-0.7-2.5l-5.8-0.7c0,0-0.5,0.3-0.5-1.8
						c0-2.1,0.5-2.3,0.5-2.3l5.8,0.8c0,0,0.6,0.1,0.6-2c0-2.1-0.6-2.3-0.6-2.3l-5.9-0.8l-0.4-0.5"/>
					<line opacity="0.5" fill="none" stroke="#000000" stroke-width="0.3709" x1="363.9" y1="627.9" x2="357.1" y2="623"/>
					<line opacity="0.5" fill="none" stroke="#000000" stroke-width="0.3709" x1="363.8" y1="623.9" x2="357.1" y2="619"/>
					<line opacity="0.5" fill="none" stroke="#000000" stroke-width="0.3709" x1="363.8" y1="618.9" x2="357.1" y2="614"/>
					<line opacity="0.5" fill="none" stroke="#000000" stroke-width="0.3709" x1="363.8" y1="614.6" x2="357.1" y2="609.7"/>
					<line opacity="0.5" fill="none" stroke="#000000" stroke-width="0.3709" x1="363.8" y1="610.8" x2="357" y2="605.9"/>
					<line opacity="0.5" fill="none" stroke="#000000" stroke-width="0.3709" x1="363.7" y1="606.5" x2="357" y2="601.6"/>
					<line opacity="0.5" fill="none" stroke="#000000" stroke-width="0.3709" x1="363.7" y1="602.1" x2="357" y2="597.1"/>
					<line opacity="0.5" fill="none" stroke="#000000" stroke-width="0.3709" x1="363.7" y1="597.2" x2="356.9" y2="592.3"/>
					<line opacity="0.5" fill="none" stroke="#000000" stroke-width="0.3709" x1="363.6" y1="592.7" x2="356.9" y2="587.8"/>
					<line opacity="0.5" fill="none" stroke="#000000" stroke-width="0.3709" x1="363.6" y1="588.4" x2="356.9" y2="583.5"/>
					<line opacity="0.5" fill="none" stroke="#000000" stroke-width="0.3709" x1="363.6" y1="584.1" x2="356.8" y2="579.2"/>
					<line opacity="0.5" fill="none" stroke="#000000" stroke-width="0.3709" x1="363.5" y1="579.2" x2="356.8" y2="574.3"/>
					<line opacity="0.5" fill="none" stroke="#000000" stroke-width="0.3709" x1="363.5" y1="574.6" x2="356.8" y2="569.7"/>
				</g>
				<g>
					<line opacity="0.5" fill="none" stroke="#000000" stroke-width="0.3709" x1="362.9" y1="568.3" x2="362.5" y2="506.7"/>
					<line opacity="0.5" fill="none" stroke="#000000" stroke-width="0.3709" x1="356.9" y1="567.5" x2="356.5" y2="505.9"/>
					<line opacity="0.5" fill="none" stroke="#000000" stroke-width="0.3709" x1="360.9" y1="568" x2="360.5" y2="506.5"/>
					<line opacity="0.5" fill="none" stroke="#000000" stroke-width="0.3709" x1="358.9" y1="567.7" x2="358.5" y2="506.2"/>
					<path opacity="0.5" fill="none" stroke="#000000" stroke-width="0.3709" d="M363.1,506.5c0,1.9-0.5,2-0.5,2l-6-0.8
						c0,0-0.4-0.9-0.4,1.4c0,2.4,0.5,2.9,0.5,2.9l6,0.8c0,0,0.4-0.1,0.4,2c0,2.1-0.5,2.3-0.5,2.3l-5.9-0.8c0,0-0.4,0.1-0.4,2.2
						c0,2.1,0.5,2.3,0.5,2.3l6,0.8c0,0,0.4,0.3,0.4,2.1c0,1.8-0.4,2.3-0.4,2.3l-6.1-0.8c0,0-0.4-0.1-0.4,2c0,2.2,0.4,2.6,0.4,2.6
						l6.1,0.8c0,0,0.5-0.1,0.5,2.3c0,2.4-0.5,2.3-0.5,2.3l-6-0.8c0,0-0.4,0-0.4,2c0,2.1,0.5,2.7,0.5,2.7l6,0.8c0,0,0.5,0.4,0.5,2.4
						c0,2.1-0.5,2.2-0.5,2.2l-5.9-0.8c0,0-0.6-0.4-0.6,1.7c0,2.1,0.6,2.5,0.6,2.5l5.8,0.8c0,0,0.4-0.5,0.4,1.8
						c0,2.4-0.5,2.6-0.5,2.6l-5.8-0.8c0,0-0.7-0.1-0.6,2.1c0,2.2,0.7,2.5,0.7,2.5l5.8,0.8c0,0,0.5-0.3,0.5,1.8
						c0,2.1-0.5,2.3-0.5,2.3l-5.8-0.8c0,0-0.6-0.1-0.6,2c0,2.1,0.6,2.3,0.6,2.3l5.9,0.8l0.4,0.5"/>
					<path opacity="0.5" fill="none" stroke="#000000" stroke-width="0.3709" d="M356.5,567.2c0-1.9,0.5-2,0.5-2l6,0.8
						c0,0,0.4,0.9,0.4-1.4c0-2.4-0.5-2.9-0.5-2.9l-6-0.8c0,0-0.4,0.1-0.4-2c0-2.1,0.5-2.3,0.5-2.3l5.9,0.8c0,0,0.4-0.1,0.4-2.2
						c0-2.1-0.5-2.3-0.5-2.3l-6-0.8c0,0-0.4-0.4-0.4-2.1c0-1.8,0.4-2.3,0.4-2.3l6.1,0.8c0,0,0.4,0.1,0.4-2c0-2.2-0.4-2.6-0.4-2.6
						l-6.1-0.8c0,0-0.5,0.1-0.5-2.3c0-2.4,0.6-2.3,0.6-2.3l6,0.8c0,0,0.4,0.1,0.4-2c0-2.1-0.5-2.7-0.5-2.7l-6-0.8
						c0,0-0.5-0.4-0.5-2.4c0-2.1,0.5-2.2,0.5-2.2l5.9,0.8c0,0,0.6,0.4,0.5-1.7c0-2.1-0.6-2.5-0.6-2.5l-5.8-0.8c0,0-0.4,0.5-0.4-1.8
						c0-2.4,0.5-2.6,0.5-2.6l5.8,0.8c0,0,0.7,0.1,0.6-2.1c0-2.2-0.7-2.5-0.7-2.5l-5.8-0.8c0,0-0.5,0.3-0.5-1.8
						c0-2.1,0.5-2.3,0.5-2.3l5.8,0.8c0,0,0.6,0.1,0.6-2c0-2.1-0.6-2.3-0.6-2.3l-5.9-0.8l-0.4-0.5"/>
					<line opacity="0.5" fill="none" stroke="#000000" stroke-width="0.3709" x1="363.5" y1="566" x2="356.7" y2="561.2"/>
					<line opacity="0.5" fill="none" stroke="#000000" stroke-width="0.3709" x1="363.4" y1="562.1" x2="356.7" y2="557.2"/>
					<line opacity="0.5" fill="none" stroke="#000000" stroke-width="0.3709" x1="363.4" y1="557" x2="356.7" y2="552.1"/>
					<line opacity="0.5" fill="none" stroke="#000000" stroke-width="0.3709" x1="363.4" y1="552.7" x2="356.6" y2="547.8"/>
					<line opacity="0.5" fill="none" stroke="#000000" stroke-width="0.3709" x1="363.3" y1="549" x2="356.6" y2="544.1"/>
					<line opacity="0.5" fill="none" stroke="#000000" stroke-width="0.3709" x1="363.3" y1="544.7" x2="356.6" y2="539.8"/>
					<line opacity="0.5" fill="none" stroke="#000000" stroke-width="0.3709" x1="363.3" y1="540.2" x2="356.5" y2="535.3"/>
					<line opacity="0.5" fill="none" stroke="#000000" stroke-width="0.3709" x1="363.2" y1="535.3" x2="356.5" y2="530.4"/>
					<line opacity="0.5" fill="none" stroke="#000000" stroke-width="0.3709" x1="363.2" y1="530.8" x2="356.5" y2="525.9"/>
					<line opacity="0.5" fill="none" stroke="#000000" stroke-width="0.3709" x1="363.2" y1="526.5" x2="356.5" y2="521.6"/>
					<line opacity="0.5" fill="none" stroke="#000000" stroke-width="0.3709" x1="363.2" y1="522.2" x2="356.4" y2="517.3"/>
					<line opacity="0.5" fill="none" stroke="#000000" stroke-width="0.3709" x1="363.1" y1="517.3" x2="356.4" y2="512.4"/>
					<line opacity="0.5" fill="none" stroke="#000000" stroke-width="0.3709" x1="363.1" y1="512.7" x2="356.4" y2="507.8"/>
				</g>
				<g>
					<path opacity="0.5" fill="none" stroke="#000000" stroke-width="0.3709" d="M362.5,506.4"/>
					<path opacity="0.5" fill="none" stroke="#000000" stroke-width="0.3709" d="M356.5,505.6"/>
					<path opacity="0.5" fill="none" stroke="#000000" stroke-width="0.3709" d="M360.5,506.1"/>
					<path opacity="0.5" fill="none" stroke="#000000" stroke-width="0.3709" d="M358.5,505.9"/>
					<path opacity="0.5" fill="none" stroke="#000000" stroke-width="0.3709" d="M362.8,480.6c0,2.1-0.5,2.2-0.5,2.2l-5.9-0.8
						c0,0-0.6-0.4-0.5,1.7c0,2.1,0.6,2.4,0.6,2.4l5.8,0.8c0,0,0.4-0.5,0.4,1.8c0,2.4-0.5,2.6-0.5,2.6l-5.8-0.8c0,0-0.6-0.1-0.6,2.1
						c0,2.2,0.7,2.5,0.7,2.5l5.8,0.8c0,0,0.5-0.3,0.5,1.8c0,2.1-0.5,2.3-0.5,2.3l-5.8-0.8c0,0-0.6-0.1-0.6,2c0,2.1,0.6,2.3,0.6,2.3
						l5.9,0.8l0.4,0.5"/>
					<path opacity="0.5" fill="none" stroke="#000000" stroke-width="0.3709" d="M356.1,505.3c0-1.9,0.5-2,0.5-2l6,0.8
						c0,0,0.4,0.9,0.4-1.4c0-2.4-0.5-2.9-0.5-2.9l-6-0.8c0,0-0.4,0.1-0.4-2c0-2.1,0.5-2.3,0.5-2.3l5.9,0.8c0,0,0.4-0.1,0.4-2.2
						c0-2.1-0.5-2.3-0.5-2.3l-6-0.8c0,0-0.4-0.3-0.4-2.1c0-1.8,0.4-2.3,0.4-2.3l6.1,0.8c0,0,0.4,0.1,0.4-2c0-2.2-0.4-2.6-0.4-2.6
						l-6.1-0.8"/>
					<line opacity="0.5" fill="none" stroke="#000000" stroke-width="0.3709" x1="363" y1="504.2" x2="356.3" y2="499.3"/>
					<line opacity="0.5" fill="none" stroke="#000000" stroke-width="0.3709" x1="363" y1="500.2" x2="356.3" y2="495.3"/>
					<line opacity="0.5" fill="none" stroke="#000000" stroke-width="0.3709" x1="363" y1="495.2" x2="356.2" y2="490.3"/>
					<line opacity="0.5" fill="none" stroke="#000000" stroke-width="0.3709" x1="362.9" y1="490.9" x2="356.2" y2="486"/>
					<line opacity="0.5" fill="none" stroke="#000000" stroke-width="0.3709" x1="362.9" y1="487.1" x2="356.2" y2="482.2"/>
					<path opacity="0.5" fill="none" stroke="#000000" stroke-width="0.3709" d="M362.9,482.8"/>
				</g>
			</g>
			<g>
				
					<path opacity="0.35" fill="none" stroke="#000000" stroke-width="1.1447" stroke-miterlimit="10" stroke-dasharray="0.9833,0.9837" d="
					M433.1,442c0,0-45.6,5.8-76.2,4.9s-80.8-9.3-80.8-9.3"/>
				
					<path opacity="0.35" fill="none" stroke="#000000" stroke-width="1.1447" stroke-miterlimit="10" stroke-dasharray="0.9833,0.9837" d="
					M432.5,446.6c0,0-45.6,5.8-76.2,4.9s-80.8-9.3-80.8-9.3"/>
			</g>
		</g>
	</g>
</g>
<g id="SHADING">
	<g opacity="2.000000e-02">
		<path d="M273.6,338.2c-0.2,2.4-0.2,3.8-0.2,3.8S273.5,340.6,273.6,338.2 M308.1,267.2c0,0-22.9,7.5-28,22.3
			c-4.1,12-5.9,38.7-6.5,48.7c0.5-7.3,2.3-23.6,8.2-34.6C289.6,289.1,308.1,267.2,308.1,267.2"/>
		<path d="M314.2,290.3c0,0-11,4.7-23.9,16.4c-12.9,11.7-14.2,23.4-14.2,23.4L314.2,290.3"/>
		<path d="M344.7,346.5c0,0-13.1,9.7-25.4,21.4c-12.2,11.6-40.2,57.1-40.2,57.1s30.3-31.5,36.6-41.7
			C321.9,373,344.7,346.5,344.7,346.5"/>
		<path d="M364,377.6c0,0-10.5,9.4-16.5,15.6c-6.1,6.2-26.9,19.5-26.9,19.5s20.6-4.5,28.6-10.9C357.2,395.3,364,377.6,364,377.6"/>
		<path d="M312.2,640.2l-21.8,75.7c0,0,17.8-25.2,20.6-40.1C313.9,660.9,312.2,640.2,312.2,640.2"/>
		<path d="M321.3,669.5c0,0,1.1,8-1.7,18.3c-2.9,10.3-17.2,24.7-17.2,24.7s18.9-13.2,21.8-17.2C327.1,691.2,321.3,669.5,321.3,669.5
			"/>
	</g>
	<g>
	</g>
</g>
</svg>
