<?xml version="1.0" encoding="utf-8"?>
<!-- Generator: Adobe Illustrator 27.1.1, SVG Export Plug-In . SVG Version: 6.00 Build 0)  -->
<svg version="1.1" xmlns="http://www.w3.org/2000/svg" xmlns:xlink="http://www.w3.org/1999/xlink" x="0px" y="0px"
	 viewBox="0 0 748.6 1021.7" enable-background="new 0 0 758.6 1021.7" xml:space="preserve">
<g id="OUTLINE">
	<path fill="none" stroke="#897F76" stroke-miterlimit="10" d="M646.8,489.1l-2.6-12.8c0,0-1.7-73.4-10.2-103.2
		c-8.5-29.9-37.5-52-42.7-53.8c-3.8-1.3-10-5.4-12.9-7.4c-1-0.7-1.6-1.1-1.6-1.1s-23-7.7-55.5-20.5c-20.5-8.1-38.5-20.2-50.2-29
		c-6.8-5.1-11.4-9-13-10.3c-4.3-3.4-4.3-6-8.5-8.5c-4.3-2.6-6-10.2-14.5-14.5c-5.4-2.7-29.9-3.7-46.9-4.1l0-0.2c0,0-3.4,0-8.5,0.1
		c-5.2-0.1-8.5-0.1-8.5-0.1l0,0.2c-17.1,0.4-41.5,1.3-46.9,4.1c-8.5,4.3-10.2,11.9-14.5,14.5c-4.3,2.6-4.3,5.1-8.5,8.5
		c-1.3,1-4.4,3.7-9.1,7.3c-11.2,8.7-31.1,22.9-54,31.9c-32.4,12.8-55.5,20.5-55.5,20.5s-0.8,0.5-1.9,1.4c-3,2.1-8.9,5.9-12.6,7.2
		C163,321,134,343.1,125.5,373c-8.5,29.9-10.2,103.2-10.2,103.2l-2.6,12.8l-2.6,7.7c0,0,29.9,7.7,55.5,9.4
		c25.6,1.7,41.8,1.7,41.8,1.7s1.7-1.7,0.9-6.8c-0.9-5.1-1.7-6.8-0.9-9.4c0.8-2.4,3.8-10,4.2-11c0-0.1,0-0.1,0-0.1s5.1,27.3,4.3,38.4
		s5.1,80.2,9.4,101.5c4.3,21.3,9.4,75.9,5.1,99c-1.4,7.8-3.6,20-5.9,33.8c6.4,3.4,27.6,13.8,50.1,16.9c27,3.8,40.7,8.1,100,5.9
		c59.2-2.1,98.5-3.1,120.1-5.7c21.6-2.6,29.5-6.2,32.1-7.6c0,0,5.1-2.9,6.2-5.2c0.6-1.3,1.4-2.5,2-3.5c-2.3-14.1-4.5-26.7-6-34.7
		c-4.3-23,0.9-77.6,5.1-99c4.3-21.3,10.2-90.4,9.4-101.5c-0.7-9.5,2.9-31.1,4-36.9c0.2-0.9,0.3-1.5,0.3-1.5s3.4,8.5,4.3,11.1
		s0,4.3-0.9,9.4c-0.9,5.1,0.9,6.8,0.9,6.8s16.2,0,41.8-1.7c25.6-1.7,55.5-9.4,55.5-9.4L646.8,489.1z"/>
</g>
  <g id="FRONTMASK">
<g id="LOWER_BODY">
	<g>
		<g>
			<path fill="#FFFFFF" d="M374.6,776.1c59.2-2.1,98.5-3.1,120.1-5.7c21.6-2.6,29.5-6.2,32.1-7.6c0,0,5.1-2.9,6.2-5.2
				c0.6-1.3,1.4-2.5,2-3.5c-2.3-14.1-4.5-26.7-6-34.7c-4.3-23,0.9-77.6,5.1-99c4.3-21.3,10.2-90.4,9.4-101.5
				c-0.7-9.5,2.9-31.1,4-36.9c0-3.9,0.1-10.1,1-14.4c1.4-6.8,11.8-64.5,14.1-75.4c2.3-10.9,12.3-47.7,14.1-57.7
				c1.3-7.1,1.7-17.3,1.8-22.7c-1-0.7-1.6-1.1-1.6-1.1s-23-7.7-55.5-20.5c-20.5-8.1-38.5-20.2-50.2-29c-5.8,6.3-29.9,28.1-87.3,28.6
				c-57,0.6-84.4-23.8-91.7-31.6c-11.2,8.7-31.1,22.9-54,31.9c-32.4,12.8-55.5,20.5-55.5,20.5s-0.8,0.5-1.9,1.4c0,0,0,0,0,0
				c0,0.7,0,1.4,0.1,2.1c0,0.1,0,0.1,0,0.2c0,0.4,0,0.7,0,1.1c0,0,0,0,0,0.1c0,0.4,0,0.8,0,1.2c0,0.1,0,0.2,0,0.2c0,0.3,0,0.7,0,1
				c0,0.1,0,0.2,0,0.3c0,0.4,0,0.9,0.1,1.3c0,0.1,0,0.1,0,0.2c0,0.4,0,0.8,0.1,1.1c0,0.1,0,0.3,0,0.4c0,0.4,0,0.7,0.1,1.1
				c0,0.1,0,0.2,0,0.3c0,0.4,0.1,0.9,0.1,1.3c0,0.1,0,0.2,0,0.4c0,0.3,0.1,0.7,0.1,1c0,0.1,0,0.3,0,0.4c0,0.5,0.1,0.9,0.1,1.3
				c0,0.1,0,0.1,0,0.1c0,0.4,0.1,0.8,0.1,1.2c0,0.1,0,0.3,0,0.4c0,0.4,0.1,0.7,0.1,1.1c0,0.1,0,0.2,0,0.3c0.1,0.4,0.1,0.9,0.2,1.3
				c0,0.1,0,0.2,0,0.3c0,0.3,0.1,0.7,0.1,1c0,0.1,0,0.2,0.1,0.4c0.1,0.4,0.1,0.8,0.2,1.2c1.8,10,11.8,46.8,14.1,57.7
				c2.3,10.9,12.7,68.6,14.1,75.4c0.1,0.5,0.2,1,0.3,1.5c0,0,0,0.1,0,0.1c0.1,0.5,0.1,1,0.2,1.5c0,0.1,0,0.1,0,0.2
				c0.1,0.5,0.1,1,0.2,1.5c0,0,0,0.1,0,0.1c0,0.6,0.1,1.1,0.1,1.7c0,0,0,0,0,0c0,0.6,0.1,1.1,0.1,1.6c0,0,0,0.1,0,0.1
				c0,0.5,0,1,0.1,1.5c0,0,0,0.1,0,0.1c0,0.5,0,1,0,1.5c0,0,0,0,0,0c0,0.5,0,1,0,1.5c0-0.1,0-0.1,0-0.1s5.1,27.3,4.3,38.4
				c-0.9,11.1,5.1,80.2,9.4,101.5c4.3,21.3,9.4,75.9,5.1,99c-1.4,7.8-3.6,20-5.9,33.8c6.4,3.4,27.6,13.8,50.1,16.9
				C301.7,774,315.4,778.2,374.6,776.1z"/>
		</g>
	</g>
</g>
<g id="FAUX_SIDE_PANELS">
	<g>
		<path d="M261.6,630c-0.5-3.4-1-6.4-1.5-9c-0.9-4.8-2-11.9-3-20.2l-39.3-40.8c0.8,9.1,1.7,18.5,2.7,27.3L261.6,630z"/>
		<path d="M227.7,716c-1.4,7.8-1.3,24-3.6,37.8c5,2.6,18.2,8.9,34.7,13.3c2.4-14.9,2.7-26.6,4.2-35c1.2-6.8,2.3-38.6,2.3-49
			l-37-38.4C229.8,665,230,703.7,227.7,716z"/>
		<path d="M262.4,643.7l-41-42.5c0.4,2.6,0.8,5,1.2,6.9c1.1,5.5,2.3,13.3,3.3,22.2l38.5,40C264,661.3,263.2,652.2,262.4,643.7z"/>
		<path d="M210.5,469.1c0.1,0.5,0.2,1,0.3,1.5c0,0,0,0.1,0,0.1c0.1,0.5,0.1,1,0.2,1.5c0,0.1,0,0.1,0,0.2c0.1,0.5,0.1,1,0.2,1.5
			c0,0,0,0.1,0,0.1c0,0.6,0.1,1.1,0.1,1.7c0,0,0,0,0,0c0,0.6,0.1,1.1,0.1,1.6c0,0,0,0.1,0,0.1c0,0.5,0,1,0.1,1.5c0,0,0,0.1,0,0.1
			c0,0.5,0,1,0,1.5c0,0,0,0,0,0c0,0.5,0,1,0,1.5c0-0.1,0-0.1,0-0.1s4.2,24.3,3.4,35.4c-0.2,3.1,1,20.2,1.7,30.3l38.5,39.9
			c-2.8-28.2-5-65.2-4.4-72.6c0.3-4.6-0.2-11.6-1.1-18.7l-41.8-41.9C209.1,461.7,210.1,467.3,210.5,469.1z"/>
		<path d="M498.3,624c0.5-3.4,1-6.4,1.5-9c0.9-4.8,2-11.9,3-20.2l39.3-40.8c-0.8,9.1-1.7,18.5-2.7,27.3L498.3,624z"/>
		<path d="M534,715.1c1.4,7.8-1.2,25.2,1.1,39c0,0-1,11.2-31.6,15.8c-2.4-14.9-3.6-35.2-5.1-43.6c-1.2-6.8-3.8-38.8-3.8-49.3
			l37-38.4C530,659,531.7,702.8,534,715.1z"/>
		<path d="M497.4,637.7l41-42.5c-0.4,2.6-0.8,5-1.2,6.9c-1.1,5.5-2.3,13.3-3.3,22.2l-38.5,40C495.9,655.4,496.6,646.3,497.4,637.7z"
			/>
		<path d="M549.3,463.1c-0.1,0.5-0.2,1-0.3,1.5c0,0,0,0.1,0,0.1c-0.1,0.5-0.1,1-0.2,1.5c0,0.1,0,0.1,0,0.2c-0.1,0.5-0.1,1-0.2,1.5
			c0,0,0,0.1,0,0.1c0,0.6-0.1,1.1-0.1,1.7c0,0,0,0,0,0c0,0.6-0.1,1.1-0.1,1.6c0,0,0,0.1,0,0.1c0,0.5,0,1-0.1,1.5c0,0,0,0.1,0,0.1
			c0,0.5,0,1,0,1.5c0,0,0,0,0,0c0,0.5,0,1,0,1.5c0-0.1,0-0.1,0-0.1s-4.2,24.3-3.4,35.4c0.2,3.1-1,20.2-1.7,30.3l-38.5,39.9
			c2.8-28.2,5-65.2,4.4-72.6c-0.3-4.6,0.2-11.6,1.1-18.7l41.8-41.9C550.7,455.7,549.7,461.3,549.3,463.1z"/>
	</g>
</g>
<g id="MID-STRIPE">
	<path fill="#64615E" d="M376.4,610l-171-170.2c1,5.4,1.9,10.5,2.7,14.9l168.2,168.9l175.6-174.9c1-5.4,2.1-11.4,3.2-17.6L376.4,610
		z"/>
</g>
<g id="UPPER_BODY">
	<g>
		<path fill="#897F76" d="M558.7,412.4c1.7-9.2,3.2-16.9,3.9-20.2c2.3-10.9,12.3-47.7,14.1-57.7c1.3-7.1,1.7-17.3,1.8-22.7
			c-1-0.7-1.6-1.1-1.6-1.1s-23-7.7-55.5-20.5c-20.5-8.1-38.5-20.2-50.2-29c-5.8,6.3-29.9,28.1-87.3,28.6
			c-57,0.6-84.4-23.8-91.7-31.6c-11.2,8.7-31.1,22.9-54,31.9c-32.4,12.8-55.5,20.5-55.5,20.5s-0.8,0.5-1.9,1.4c0,0,0,0,0,0
			c0,0.7,0,1.4,0.1,2.1c0,0.1,0,0.1,0,0.2c0,0.4,0,0.7,0,1.1c0,0,0,0,0,0.1c0,0.4,0,0.8,0,1.2c0,0.1,0,0.2,0,0.2c0,0.3,0,0.7,0,1
			c0,0.1,0,0.2,0,0.3c0,0.4,0,0.9,0.1,1.3c0,0.1,0,0.1,0,0.2c0,0.4,0,0.8,0.1,1.1c0,0.1,0,0.3,0,0.4c0,0.4,0,0.7,0.1,1.1
			c0,0.1,0,0.2,0,0.3c0,0.4,0.1,0.9,0.1,1.3c0,0.1,0,0.2,0,0.4c0,0.3,0.1,0.7,0.1,1c0,0.1,0,0.3,0,0.4c0,0.5,0.1,0.9,0.1,1.3
			c0,0.1,0,0.1,0,0.1c0,0.4,0.1,0.8,0.1,1.2c0,0.1,0,0.3,0,0.4c0,0.4,0.1,0.7,0.1,1.1c0,0.1,0,0.2,0,0.3c0.1,0.4,0.1,0.9,0.2,1.3
			c0,0.1,0,0.2,0,0.3c0,0.3,0.1,0.7,0.1,1c0,0.1,0,0.2,0.1,0.4c0.1,0.4,0.1,0.8,0.2,1.2c1.8,10,11.8,46.8,14.1,57.7
			c1,4.7,3.5,18.3,6.2,32.6l171.8,171.9L558.7,412.4z"/>
	</g>
</g>
    </g>
  <g id="CUSTOM">
</g>
<g id="SLEEVES">
	<g>
		<g>
			<path fill="#64615E" d="M211.6,479.1C211.6,479.1,211.6,479.1,211.6,479.1c0-0.5,0-1,0-1.6c0,0,0-0.1,0-0.1c0-0.5,0-1-0.1-1.5
				c0,0,0-0.1,0-0.1c0-0.5-0.1-1.1-0.1-1.6c0,0,0,0,0,0c0-0.6-0.1-1.1-0.1-1.7c0,0,0-0.1,0-0.1c0-0.5-0.1-1-0.2-1.5
				c0-0.1,0-0.1,0-0.2c-0.1-0.5-0.1-1-0.2-1.5c0,0,0-0.1,0-0.1c-0.1-0.5-0.2-1-0.3-1.5c-1.4-6.8-11.8-64.5-14.1-75.4
				c-2.3-10.9-12.3-47.7-14.1-57.7c-0.1-0.4-0.1-0.8-0.2-1.2c0-0.1,0-0.2-0.1-0.4c-0.1-0.3-0.1-0.6-0.1-1c0-0.1,0-0.2,0-0.3
				c-0.1-0.4-0.1-0.8-0.2-1.3c0-0.1,0-0.2,0-0.3c0-0.3-0.1-0.7-0.1-1.1c0-0.1,0-0.3,0-0.4c0-0.4-0.1-0.8-0.1-1.2c0-0.1,0-0.1,0-0.1
				c0-0.4-0.1-0.9-0.1-1.3c0-0.1,0-0.3,0-0.4c0-0.3-0.1-0.7-0.1-1c0-0.1,0-0.2,0-0.4c0-0.5-0.1-0.9-0.1-1.3c0-0.1,0-0.2,0-0.3
				c0-0.4,0-0.7-0.1-1.1c0-0.1,0-0.3,0-0.4c0-0.4,0-0.8-0.1-1.1c0-0.1,0-0.1,0-0.2c0-0.4,0-0.9-0.1-1.3c0-0.1,0-0.2,0-0.3
				c0-0.3,0-0.7,0-1c0-0.1,0-0.2,0-0.2c0-0.4,0-0.8,0-1.2c0,0,0,0,0-0.1c0-0.4,0-0.8,0-1.1c0-0.1,0-0.1,0-0.2c0-0.8,0-1.5-0.1-2.1
				c0,0,0,0,0,0c-3,2.1-8.9,5.9-12.6,7.2C163,321,134,343.1,125.5,373c-8.5,29.9-10.2,103.2-10.2,103.2l-2.6,12.8l-2.6,7.7
				c0,0,29.9,7.7,55.5,9.4c25.6,1.7,41.8,1.7,41.8,1.7s1.7-1.7,0.9-6.8c-0.9-5.1-1.7-6.8-0.9-9.4c0.8-2.4,3.8-10,4.2-11l0,0
				C211.6,480.1,211.6,479.6,211.6,479.1z"/>
			<path fill="#64615E" d="M646.8,489.1l-2.6-12.8c0,0-1.7-73.4-10.2-103.2c-8.5-29.9-37.5-52-42.7-53.8c-3.8-1.3-10-5.4-12.9-7.4
				c-0.1,5.4-0.5,15.6-1.8,22.7c-1.8,10-11.8,46.8-14.1,57.7c-2.3,10.9-12.7,68.6-14.1,75.4c-0.9,4.3-1,10.5-1,14.4
				c0.2-0.9,0.3-1.5,0.3-1.5s3.4,8.5,4.3,11.1c0.9,2.6,0,4.3-0.9,9.4c-0.9,5.1,0.9,6.8,0.9,6.8s16.2,0,41.8-1.7
				c25.6-1.7,55.5-9.4,55.5-9.4L646.8,489.1z"/>
		</g>
	</g>
</g>
<g id="COLLAR">
	<g>
		<path d="M383.9,289.9c57.5-0.6,81.6-22.4,87.3-28.6c-6.8-5.1-11.4-9-13-10.3c-4.3-3.4-4.3-6-8.5-8.5c-4.3-2.6-6-10.2-14.5-14.5
			c-5.4-2.7-29.9-3.7-46.9-4.1l0-0.2c0,0-3.4,0-8.5,0.1c-5.2-0.1-8.5-0.1-8.5-0.1l0,0.2c-17.1,0.4-41.5,1.3-46.9,4.1
			c-8.5,4.3-10.2,11.9-14.5,14.5c-4.3,2.6-4.3,5.1-8.5,8.5c-1.3,1-4.4,3.7-9.1,7.3C299.4,266.1,326.9,290.5,383.9,289.9z"/>
	</g>
</g>
<g id="SHADING">
	<path d="M211.6,479.1C211.6,479.1,211.6,479.1,211.6,479.1C211.6,479.1,211.6,479.1,211.6,479.1z"/>
	<polygon points="211.6,480.6 211.6,480.6 211.6,480.6 	"/>
	<path fill="#FFFFFF" d="M383.9,262.2c35.2,0.3,62.1-17.8,61.8-20.8c-0.3-3-6.1-8.6-9.8-11.3c-3.7-2.7-21.2-4.5-56.5-4.3
		c-35.6,0.2-47.7,1.6-52.6,2.7c-4.9,1.2-12.9,10.1-11.9,12.1S348.9,261.9,383.9,262.2z"/>
	<path opacity="0.5" fill="#C5C1BF" d="M383.9,262.2c35.2,0.3,62.1-17.8,61.8-20.8c-0.3-3-6.1-8.6-9.8-11.3
		c-3.7-2.7-21.2-4.5-56.5-4.3c-35.6,0.2-47.7,1.6-52.6,2.7c-4.9,1.2-12.9,10.1-11.9,12.1S348.9,261.9,383.9,262.2z"/>
	<g opacity="2.000000e-02">
		<path d="M441.9,233.1l-1.7,0.6c2.8,2.6,5.3,5.7,5.5,7.7c0.2,1.6-7.2,7.4-19.5,12.5c1,2.1,1.7,4,1.8,5.5c0.4,5.7,0,5.3,0,13.6
			c0,8.4,3.1,16.7,8.4,29.1c5.3,12.3,11,5.7,15,23.3c2.9,13-9.3,14.7-15.9,14.7c-2.3,0-3.9-0.2-3.9-0.2s14.6,2.1,33.1,2.1
			c4,0,8.1-0.1,12.3-0.3c23.8-1.3,18.5,0,35.2-1.8c8.4-0.9,12.5-2,17.8-2s11.7,1.1,24.4,4.6c25.5,7,6.2,22.9,4.4,40.9
			c-1.8,18-27.3,15.4-34.8,25.1c-7.5,9.7-2.6,85-1.8,93.3c0.9,8.4-17.2,22.9-17.2,22.9s-4.8,14.1-7.9,24.6s4.8,32.6,4.4,56.3
			c-0.4,23.8-22,55-29.5,72.2c-7.5,17.2-5,26.4,8.4,63.4c0.1,0.3,1,0.4,2.5,0.4c10.2,0,47.9-5.8,48.4-6.7
			c-2.3-14.1-0.8-7.7-2.3-15.7c-4.3-23,0.9-77.6,5.1-99c4.3-21.3,10.2-90.4,9.4-101.5c-0.7-9.5,2.9-31.1,4-36.9
			c0-3.9,0.1-10.1,1-14.4c1.4-6.8,11.8-64.5,14.1-75.4c2.3-10.9,12.3-47.7,14.1-57.7c1.3-7.1,1.7-17.3,1.8-22.7
			c-1-0.7-1.6-1.1-1.6-1.1s-23-7.7-55.5-20.5c-32.4-12.8-58.9-35.8-63.1-39.3c-4.3-3.4-4.3-6-8.5-8.5
			C446.9,240.8,445.2,236.8,441.9,233.1"/>
		<path d="M315,236.4c-1.8,2.5-3.3,4.8-5.2,6c-4.3,2.6-4.3,5.1-8.5,8.5c-4.3,3.4-30.7,26.5-63.1,39.3
			c-32.4,12.8-55.5,20.5-55.5,20.5s-0.8,0.5-1.9,1.4c0.1,5.5,0.5,15.5,1.8,22.4c1.8,10,11.8,46.8,14.1,57.7
			c2.3,10.9,12.7,68.6,14.1,75.4c0.8,3.9,1,9.2,1,13.1l0-0.1c0,0,5.1,27.3,4.3,38.4c-0.9,11.1,5.1,80.2,9.4,101.5
			c4.3,21.3,9.4,75.9,5.1,99c-1.4,7.8-0.1,4.6-2.4,18.4c4.3,2.2,15.3,1.1,28.7,5.3c1.9-2.1,4-2.9,6.4-2.9c3,0,6.3,1.2,10,2.4
			c3.7,1.2,7.7,2.4,12.1,2.4c0,0,0,0,0,0c17.3,0,37.3-0.4,37.3-0.4s0.5,2.3,0.8,2.3c0.2,0,0.3-1.3-0.1-6.1
			c-0.9-11-35.7-59.4-42.3-70.4c-5.3-8.9,0.2-9.7,2.6-9.7c0.6,0,0.9,0,0.9,0s-9.7-4.4-13.6-26c-4-21.6,6.6-48,16.3-70.9
			c9.7-22.9,37.9-46.7,37.9-46.7s-5.4,0.9-13.9,0.9c-11.6,0-28.8-1.6-45.5-9.2c-29.1-13.2-30.8-35.7-34.8-104.8
			c-4-69.1,2.6-82.7,18.5-83.6c0.4,0,0.8,0,1.2,0c17.2,0,70.8,17.7,78.9,21.2c0,0,5.3-11,3.5-17.6c-1.8-6.6,3.5-17.2,9.7-28.6
			c3.6-6.7,5.1-7.7,6.2-7.7c0.2,0,0.4,0,0.6,0.1c0.2,0,0.4,0.1,0.6,0.1c0.3,0,0.6-0.1,1-0.4c2.2-1.8,0.4-11.9-0.9-15
			c-1.3-3.1-0.4-4,2.2-11c0.5-1.3-0.6-3-2.7-5c-19.7-6-34.1-14.7-34.8-16c-0.3-0.6,0.3-2,1.4-3.6C315.8,236.8,315.4,236.6,315,236.4
			"/>
		<path d="M137.5,368.1c0,0,0.9,6.6,4.4,14.1c3.5,7.5,39.2,52.4,39.2,52.4s-32.1-35.2-33.9-37.4c-1.6-2-14.3-12.1-16.1-12.1
			l-0.2,0.2c0,1.8,11,13.6,19.8,22c8.8,8.4,26.8,26.4,35.2,39.2c8.4,12.8,23.8,34.8,23.8,34.8s-3.1-12.8-5.3-18
			c-2.2-5.3-11.4-19.4-13.6-22.9C188.6,436.8,137.5,368.1,137.5,368.1"/>
		<path d="M141,357.5c0,0,4.8,18,14.5,27.3c9.7,9.2,19.8,12.3,19.8,12.3s-16.3-13.6-19.4-18C152.9,374.7,141,357.5,141,357.5"/>
		<path d="M632.2,381.3c0,0-5.7,11.4-10.6,20.2c-4.8,8.8-25.5,25.5-36.5,31.7c-11,6.2-31.3,28.6-31.3,28.6s9.2-1.8,15-6.2
			c5.7-4.4,42.3-18.9,56.3-39.2C639.3,396.3,632.2,381.3,632.2,381.3"/>
		<path d="M625.2,448.2c0,0-15.8,13.6-28.2,17.2c-12.3,3.5-35.7,7.9-35.7,7.9s4.4,1.2,11.5,1.2c6.7,0,15.9-1,25.9-5.1
			C619.5,461,625.2,448.2,625.2,448.2"/>
		<path d="M609.6,389.6c-3.2,0-7.3,1.2-11.3,5.8c-8.4,9.7-11,13.2-18.5,17.6c-7.3,4.3-11.2,21.5-11.4,22.4c0.2-0.8,3-12.4,12.8-17.1
			c10.1-4.8,17.2-4.4,22-12.8c4.8-8.4,12.3-14.5,12.3-14.5S613.1,389.6,609.6,389.6"/>
	</g>
</g>
<g id="SHIRT_STITCHING">
	<g opacity="0.4">
		<path fill="#6C6361" d="M380.8,285.9l0,1l0.9,0v-1L380.8,285.9 M383.4,285.9l-0.9,0l0,1l0.9,0L383.4,285.9 M379.1,285.9l0,1l0.9,0
			l0-1L379.1,285.9 M385.1,285.9l-0.9,0l0,1l0.9,0L385.1,285.9 M377.4,285.9l0,1l0.9,0l0-1L377.4,285.9 M386.9,285.8l-0.9,0l0,1
			l0.9,0L386.9,285.8 M375.6,285.8l0,1l0.9,0l0-1L375.6,285.8 M388.6,285.8l-0.9,0l0,1l0.9,0L388.6,285.8 M373.9,285.8l0,1l0.9,0
			l0-1L373.9,285.8 M390.3,285.7l-0.9,0l0,1l0.9,0L390.3,285.7 M372.2,285.7l0,1l0.9,0l0-1L372.2,285.7 M392,285.7l-0.9,0l0,1l0.9,0
			L392,285.7 M393.8,285.6l-0.9,0l0,1l0.9,0L393.8,285.6 M370.5,285.6l-0.1,1l0.9,0l0.1-1L370.5,285.6 M395.5,285.5l-0.9,0l0.1,1
			l0.9,0L395.5,285.5 M368.8,285.5l-0.1,1l0.9,0.1l0.1-1L368.8,285.5 M397.2,285.4l-0.9,0.1l0.1,1l0.9-0.1L397.2,285.4 M367,285.4
			l-0.1,1l0.9,0.1l0.1-1L367,285.4 M398.9,285.3l-0.9,0.1l0.1,1l0.9-0.1L398.9,285.3 M365.3,285.2l-0.1,1l0.9,0.1l0.1-1L365.3,285.2
			 M400.7,285.1l-0.9,0.1l0.1,1l0.9-0.1L400.7,285.1 M363.6,285.1l-0.1,1l0.9,0.1l0.1-1L363.6,285.1 M402.4,285l-0.9,0.1l0.1,1
			l0.9-0.1L402.4,285 M361.9,284.9l-0.1,1l0.9,0.1l0.1-1L361.9,284.9 M404.1,284.8l-0.9,0.1l0.1,1l0.9-0.1L404.1,284.8 M360.2,284.7
			l-0.1,1l0.9,0.1l0.1-1L360.2,284.7 M405.8,284.7l-0.9,0.1l0.1,1l0.9-0.1L405.8,284.7 M358.4,284.5l-0.1,1l0.9,0.1l0.1-1
			L358.4,284.5 M407.5,284.5l-0.9,0.1l0.1,1l0.9-0.1L407.5,284.5 M356.7,284.3l-0.1,1l0.9,0.1l0.1-1L356.7,284.3 M409.2,284.3
			l-0.9,0.1l0.1,1l0.9-0.1L409.2,284.3 M355,284.1l-0.1,1l0.9,0.1l0.1-1L355,284.1 M410.9,284l-0.9,0.1l0.1,1l0.9-0.1L410.9,284
			 M353.3,283.8l-0.2,1l0.9,0.1l0.2-1L353.3,283.8 M412.7,283.8l-0.9,0.1l0.1,1l0.9-0.1L412.7,283.8 M414.4,283.5l-0.9,0.1l0.2,1
			l0.9-0.1L414.4,283.5 M351.6,283.5l-0.2,1l0.9,0.1l0.2-1L351.6,283.5 M416.1,283.3l-0.8,0.1l0.2,1l0.9-0.1L416.1,283.3
			 M349.9,283.2l-0.2,1l0.9,0.2l0.2-1L349.9,283.2 M417.8,283l-0.8,0.1l0.2,1l0.9-0.1L417.8,283 M348.2,282.9l-0.2,1l0.9,0.2l0.2-1
			L348.2,282.9 M419.5,282.7l-0.8,0.2l0.2,1l0.9-0.2L419.5,282.7 M346.5,282.6l-0.2,1l0.9,0.2l0.2-1L346.5,282.6 M421.1,282.3
			l-0.8,0.2l0.2,1l0.9-0.2L421.1,282.3 M344.9,282.2l-0.2,1l0.9,0.2l0.2-1L344.9,282.2 M422.8,282l-0.8,0.2l0.2,1l0.8-0.2L422.8,282
			 M343.2,281.9l-0.2,1l0.8,0.2l0.2-1L343.2,281.9 M424.5,281.6l-0.8,0.2l0.2,1l0.8-0.2L424.5,281.6 M341.5,281.5l-0.2,1l0.8,0.2
			l0.2-1L341.5,281.5 M426.2,281.2l-0.8,0.2l0.2,1l0.8-0.2L426.2,281.2 M339.8,281l-0.3,1l0.8,0.2l0.2-1L339.8,281 M427.9,280.8
			L427,281l0.2,1l0.8-0.2L427.9,280.8 M338.2,280.6l-0.3,1l0.8,0.2l0.3-1L338.2,280.6 M429.5,280.4l-0.8,0.2l0.3,1l0.8-0.2
			L429.5,280.4 M336.5,280.1l-0.3,1l0.8,0.2l0.3-1L336.5,280.1 M431.2,279.9l-0.8,0.2l0.3,1l0.8-0.2L431.2,279.9 M334.8,279.6
			l-0.3,1l0.8,0.2l0.3-1L334.8,279.6 M432.9,279.5l-0.8,0.2l0.3,1l0.8-0.2L432.9,279.5 M333.2,279.1l-0.3,1l0.8,0.3l0.3-1
			L333.2,279.1 M434.5,279l-0.8,0.3l0.3,1l0.8-0.3L434.5,279 M331.6,278.6l-0.3,1l0.8,0.3l0.3-1L331.6,278.6 M436.2,278.5l-0.8,0.3
			l0.3,1l0.8-0.3L436.2,278.5 M329.9,278l-0.3,0.9l0.8,0.3l0.3-1L329.9,278 M437.8,277.9l-0.8,0.3l0.3,1l0.8-0.3L437.8,277.9
			 M328.3,277.5l-0.3,0.9l0.8,0.3l0.3-0.9L328.3,277.5 M439.4,277.4l-0.8,0.3l0.3,1l0.8-0.3L439.4,277.4 M326.7,276.8l-0.4,0.9
			l0.8,0.3l0.4-0.9L326.7,276.8 M441,276.8l-0.8,0.3l0.3,0.9l0.8-0.3L441,276.8 M325.1,276.2l-0.4,0.9l0.8,0.3l0.4-0.9L325.1,276.2
			 M442.6,276.1l-0.8,0.3l0.4,0.9l0.8-0.3L442.6,276.1 M323.5,275.5l-0.4,0.9l0.8,0.3l0.4-0.9L323.5,275.5 M444.2,275.5l-0.8,0.3
			l0.4,0.9l0.8-0.3L444.2,275.5 M321.9,274.9l-0.4,0.9l0.8,0.3l0.4-0.9L321.9,274.9 M445.8,274.8l-0.8,0.3l0.4,0.9l0.8-0.3
			L445.8,274.8 M320.4,274.1l-0.4,0.9l0.8,0.4l0.4-0.9L320.4,274.1 M447.4,274.1l-0.8,0.4l0.4,0.9l0.8-0.4L447.4,274.1 M318.8,273.4
			l-0.4,0.9l0.8,0.4l0.4-0.9L318.8,273.4 M448.9,273.4l-0.8,0.4l0.4,0.9l0.8-0.4L448.9,273.4 M317.3,272.6l-0.5,0.9l0.8,0.4l0.5-0.9
			L317.3,272.6 M450.5,272.6l-0.8,0.4l0.4,0.9l0.8-0.4L450.5,272.6 M315.8,271.8l-0.5,0.9l0.8,0.4l0.5-0.9L315.8,271.8 M452,271.8
			l-0.8,0.4l0.5,0.9l0.8-0.4L452,271.8 M314.2,271l-0.5,0.9l0.8,0.4l0.5-0.9L314.2,271 M453.5,271l-0.8,0.4l0.5,0.9l0.8-0.4
			L453.5,271 M312.8,270.2l-0.5,0.9l0.8,0.4l0.5-0.9L312.8,270.2 M455,270.1l-0.7,0.4l0.5,0.9l0.8-0.4L455,270.1 M311.3,269.3
			l-0.5,0.9l0.7,0.5l0.5-0.9L311.3,269.3 M456.5,269.2l-0.7,0.5l0.5,0.9l0.7-0.5L456.5,269.2 M309.8,268.3l-0.5,0.8l0.7,0.5l0.5-0.9
			L309.8,268.3 M457.9,268.3l-0.7,0.5l0.5,0.8l0.7-0.5L457.9,268.3 M308.4,267.4l-0.6,0.8l0.7,0.5l0.6-0.8L308.4,267.4 M459.3,267.3
			l-0.7,0.5l0.6,0.8l0.7-0.5L459.3,267.3 M307,266.4l-0.6,0.8l0.7,0.5l0.6-0.8L307,266.4 M460.7,266.3l-0.7,0.5l0.6,0.8
			c0.2-0.2,0.5-0.3,0.7-0.5L460.7,266.3 M305.6,265.4l-0.6,0.8l0.7,0.5l0.6-0.8L305.6,265.4 M462.1,265.3l-0.7,0.5l0.6,0.8
			c0.2-0.2,0.5-0.4,0.7-0.5L462.1,265.3 M304.2,264.4l-0.6,0.8c0.2,0.2,0.5,0.4,0.7,0.5l0.6-0.8
			C304.7,264.7,304.5,264.5,304.2,264.4 M463.4,264.2c-0.2,0.2-0.4,0.4-0.7,0.6l0.6,0.8c0.2-0.2,0.5-0.4,0.7-0.6L463.4,264.2
			 M302.9,263.3l-0.6,0.8l0.7,0.6l0.6-0.8L302.9,263.3 M464.6,263c-0.2,0.2-0.4,0.4-0.6,0.6l0.7,0.7c0.2-0.2,0.4-0.4,0.6-0.6
			L464.6,263 M301.6,262.2l-0.7,0.8l0.7,0.6l0.7-0.8L301.6,262.2 M465.9,261.8c-0.2,0.2-0.4,0.4-0.6,0.6l0.7,0.7
			c0.2-0.2,0.4-0.4,0.6-0.6L465.9,261.8 M300.3,261l-0.7,0.7c0.2,0.2,0.4,0.4,0.6,0.6l0.7-0.7C300.7,261.4,300.5,261.2,300.3,261
			 M467,260.6c-0.2,0.2-0.4,0.4-0.6,0.6l0.7,0.7c0.2-0.2,0.4-0.5,0.6-0.7L467,260.6 M299.1,259.8l-0.7,0.7c0.2,0.2,0.4,0.4,0.6,0.6
			l0.7-0.7C299.5,260.2,299.3,260,299.1,259.8 M468.1,259.3c0,0-0.2,0.2-0.5,0.7l0.8,0.6c0.4-0.5,0.5-0.7,0.5-0.7L468.1,259.3
			 M297.9,258.6l-0.7,0.7c0.2,0.2,0.4,0.4,0.6,0.6l0.7-0.7C298.3,259,298.1,258.8,297.9,258.6 M296.8,257.3l-0.8,0.6
			c0.2,0.2,0.4,0.4,0.6,0.7l0.8-0.7C297.1,257.7,297,257.5,296.8,257.3 M295.7,256l-0.8,0.6c0.1,0.1,0.2,0.3,0.5,0.7l0.8-0.6
			C296,256.3,295.8,256.1,295.7,256"/>
		<path fill="#6C6361" d="M206.9,491.1l0,1l0.5,0v-1L206.9,491.1 M205.2,491.1l0,1l0.9,0l0-1L205.2,491.1 M203.4,491.1l0,1l0.9,0
			l0-1L203.4,491.1 M201.7,491l0,1l0.9,0l0-1L201.7,491 M200,491l0.1,1l0.8,0l0-1L200,491 M198.3,490.9l0,1l0.9,0l0-1L198.3,490.9
			 M196.5,490.8l0,1l0.9,0l0-1L196.5,490.8 M194.8,490.8l0,1l0.9,0l0-1L194.8,490.8 M193.1,490.7l0,1l0.9,0l0-1L193.1,490.7
			 M191.3,490.6l0,1l0.9,0l0.1-1L191.3,490.6 M189.6,490.5l-0.1,1l0.9,0l0.1-1L189.6,490.5 M187.9,490.4l-0.1,1l0.9,0l0.1-1
			L187.9,490.4 M186.2,490.3l-0.1,1l0.9,0.1l0.1-1L186.2,490.3 M184.4,490.2l0.1,1l0.7,0l0.1-1L184.4,490.2 M182.7,490.1l0.1,1
			l0.7,0l0.1-1L182.7,490.1 M181,490l-0.1,1l0.9,0.1l0.1-1L181,490 M179.3,489.9l-0.1,1l0.9,0.1l0-0.5l-0.1-0.5L179.3,489.9
			 M177.5,489.7l-0.1,1l0.9,0.1l0-0.5l-0.1-0.5L177.5,489.7 M175.8,489.6l-0.1,1l0.9,0.1l0-0.5l0-0.5L175.8,489.6 M174.1,489.5
			l-0.1,1l0.9,0.1l0.1-1L174.1,489.5 M172.4,489.3l-0.1,1l0.9,0.1l0.1-1L172.4,489.3 M170.7,489.2l-0.1,1l0.9,0.1l0.1-1L170.7,489.2
			 M168.9,489l0,1l0.8,0.1l0.1-1L168.9,489 M167.2,488.9l-0.1,1l0.9,0.1l0.1-1L167.2,488.9 M165.5,488.7l-0.1,1l0.9,0.1l0-0.5l0-0.5
			L165.5,488.7 M163.8,488.5l-0.1,1l0.9,0.1l0.1-1L163.8,488.5 M162,488.4l-0.1,1l0.9,0.1l0.1-1L162,488.4 M160.3,488.2l-0.1,1
			l0.9,0.1l0.1-1L160.3,488.2 M158.6,488l-0.1,1l0.9,0.1l0.1-0.5l0-0.5L158.6,488 M156.9,487.8l-0.1,1l0.9,0.1l0.1-1L156.9,487.8
			 M155.2,487.6l-0.1,1l0.9,0.1l0.1-1L155.2,487.6 M153.5,487.4l-0.1,1l0.9,0.1l0.1-1L153.5,487.4 M151.8,487.1l-0.1,1l0.9,0.1
			l0.1-1L151.8,487.1 M150,486.9l-0.1,1l0.9,0.1l0.1-1L150,486.9 M148.3,486.6l-0.1,1l0.9,0.1l0.1-1L148.3,486.6 M146.6,486.4
			l-0.2,1l0.9,0.1l0.2-1L146.6,486.4 M144.9,486.1l-0.2,1l0.9,0.1l0.2-1L144.9,486.1 M143.2,485.8l-0.2,1l0.9,0.1l0.2-1L143.2,485.8
			 M141.5,485.6l-0.2,1l0.9,0.1l0.2-1L141.5,485.6 M139.8,485.3l-0.2,1l0.9,0.1l0.2-1L139.8,485.3 M138.1,485l-0.2,1l0.9,0.2l0.2-1
			L138.1,485 M136.4,484.6l-0.2,1l0.9,0.2l0.2-1L136.4,484.6 M134.7,484.3l-0.2,1l0.9,0.2l0.2-1L134.7,484.3 M133,484l-0.2,1
			l0.8,0.2l0.2-1L133,484 M131.3,483.7l-0.2,1l0.9,0.2l0.2-1L131.3,483.7 M129.6,483.3l-0.2,1l0.8,0.2l0.2-1L129.6,483.3 M127.9,483
			l-0.2,1l0.8,0.2l0.2-1L127.9,483 M126.2,482.6l-0.2,1l0.8,0.2l0.1-0.5l0-0.5L126.2,482.6 M124.6,482.2l-0.2,1l0.8,0.2l0.2-1
			L124.6,482.2 M122.9,481.9l-0.2,1l0.8,0.2l0.2-1L122.9,481.9 M121.2,481.5l-0.2,1l0.8,0.2l0.2-1L121.2,481.5 M119.5,481.1l-0.2,1
			l0.8,0.2l0.2-1L119.5,481.1 M117.8,480.7l-0.2,1l0.8,0.2l0.2-1L117.8,480.7 M116.1,480.2l-0.3,1l0.8,0.2l0.2-1L116.1,480.2
			 M114.5,479.8l-0.3,1l0.8,0.2l0.3-1L114.5,479.8"/>
		<path fill="#6C6361" d="M206.9,495.1l0,1l0.4,0l0.1,0l0-1L206.9,495.1 M205.2,495.1l0,1l0.9,0l0-1L205.2,495.1 M203.4,495.1l0,1
			l0.9,0l0-1L203.4,495.1 M201.7,495l0,1l0.9,0l0-1L201.7,495 M200,495l0.1,1l0.8,0l0-1L200,495 M198.3,494.9l0,1l0.9,0l0-1
			L198.3,494.9 M196.5,494.9l0,1l0.9,0l0-1L196.5,494.9 M194.8,494.8l0,1l0.9,0l0-1L194.8,494.8 M193.1,494.7l0,1l0.9,0l0-1
			L193.1,494.7 M191.3,494.6l0,1l0.9,0l0.1-1L191.3,494.6 M189.6,494.6l-0.1,1l0.9,0l0.1-1L189.6,494.6 M187.9,494.5l-0.1,1l0.9,0
			l0.1-1L187.9,494.5 M186.2,494.4l-0.1,1l0.9,0.1l0.1-1L186.2,494.4 M184.4,494.3l-0.1,1l0.9,0.1l0.1-1L184.4,494.3 M182.7,494.1
			l0.1,1l0.7,0l0.1-1L182.7,494.1 M181,494l-0.1,1l0.9,0.1l0.1-1L181,494 M179.3,493.9l-0.1,1l0.9,0.1l0-0.5L180,494L179.3,493.9
			 M177.5,493.8l-0.1,1l0.9,0.1l0-0.5l-0.1-0.5L177.5,493.8 M175.8,493.6l-0.1,1l0.9,0.1l0-0.5l0-0.5L175.8,493.6 M174.1,493.5
			l-0.1,1l0.9,0.1l0.1-1L174.1,493.5 M172.4,493.4l-0.1,1l0.9,0.1l0.1-1L172.4,493.4 M170.7,493.2l-0.1,1l0.9,0.1l0.1-1L170.7,493.2
			 M168.9,493.1l0,1l0.8,0.1l0.1-1L168.9,493.1 M167.2,492.9l-0.1,1l0.9,0.1l0.1-1L167.2,492.9 M165.5,492.7l-0.1,1l0.9,0.1l0-0.5
			l0-0.5L165.5,492.7 M163.8,492.6l-0.1,1l0.9,0.1l0.1-1L163.8,492.6 M162,492.4l-0.1,1l0.9,0.1l0.1-1L162,492.4 M160.3,492.2
			l-0.1,1l0.9,0.1l0.1-1L160.3,492.2 M158.6,492l-0.1,1l0.9,0.1l0.1-0.5l0-0.5L158.6,492 M156.9,491.8l-0.1,1l0.9,0.1l0.1-1
			L156.9,491.8 M155.2,491.6l-0.1,1l0.9,0.1l0.1-1L155.2,491.6 M153.5,491.4l-0.1,1l0.9,0.1l0.1-1L153.5,491.4 M151.8,491.2l-0.1,1
			l0.9,0.1l0.1-1L151.8,491.2 M150,490.9l-0.1,1l0.9,0.1l0.1-1L150,490.9 M148.3,490.7l-0.1,1l0.9,0.1l0.1-1L148.3,490.7
			 M146.6,490.4l-0.2,1l0.9,0.1l0.2-1L146.6,490.4 M144.9,490.1l-0.2,1l0.9,0.1l0.2-1L144.9,490.1 M143.2,489.9l-0.2,1l0.9,0.1
			l0.2-1L143.2,489.9 M141.5,489.6l-0.2,1l0.9,0.1l0.2-1L141.5,489.6 M139.8,489.3l-0.2,1l0.9,0.1l0.2-1L139.8,489.3 M138.1,489
			l-0.2,1l0.9,0.2l0.2-1L138.1,489 M136.4,488.7l-0.2,1l0.9,0.2l0.2-1L136.4,488.7 M134.7,488.4l-0.2,1l0.9,0.2l0.2-1L134.7,488.4
			 M133,488l-0.2,1l0.8,0.2l0.2-1L133,488 M131.3,487.7l-0.2,1l0.9,0.2l0.2-1L131.3,487.7 M129.6,487.4l-0.2,1l0.8,0.2l0.2-1
			L129.6,487.4 M127.9,487l-0.2,1l0.8,0.2l0.2-1L127.9,487 M126.2,486.6l-0.2,1l0.8,0.2l0.1-0.5l0-0.5L126.2,486.6 M124.6,486.3
			l-0.2,1l0.8,0.2l0.2-1L124.6,486.3 M122.9,485.9l-0.2,1l0.8,0.2l0.2-1L122.9,485.9 M121.2,485.5l-0.2,1l0.8,0.2l0.2-1L121.2,485.5
			 M119.5,485.1l-0.2,1l0.8,0.2l0.2-1L119.5,485.1 M117.8,484.7l-0.2,1l0.8,0.2l0.2-1L117.8,484.7 M116.1,484.3l-0.3,1l0.8,0.2
			l0.2-1L116.1,484.3 M114.5,483.8l-0.3,1l0.8,0.2l0.3-1L114.5,483.8"/>
		<path fill="#6C6361" d="M553.1,491.1l-0.5,0v1l0.5,0L553.1,491.1 M554.9,491.1l-0.9,0l0,1l0.9,0L554.9,491.1 M556.6,491.1l-0.9,0
			l0,1l0.9,0L556.6,491.1 M558.3,491l-0.9,0l0,1l0.9,0L558.3,491 M559.9,491l-0.8,0l0,1l0.8,0l0.1-0.5L559.9,491 M561.8,490.9
			l-0.9,0l0,1l0.9,0L561.8,490.9 M563.5,490.8l-0.9,0l0,1l0.9,0L563.5,490.8 M565.2,490.8l-0.9,0l0,1l0.9,0L565.2,490.8 M567,490.7
			l-0.9,0l0,1l0.9,0L567,490.7 M568.7,490.6l-0.9,0l0.1,1l0.9,0L568.7,490.6 M570.4,490.5l-0.9,0l0.1,1l0.9,0L570.4,490.5
			 M572.1,490.4l-0.9,0l0.1,1l0.9,0L572.1,490.4 M573.9,490.3l-0.9,0.1l0.1,1l0.9-0.1L573.9,490.3 M575.5,490.2l-0.7,0l0.1,1l0.7,0
			l0.1-0.5L575.5,490.2 M577.2,490.1l-0.7,0l0.1,1l0.7,0l0.1-0.5L577.2,490.1 M579,490l-0.9,0.1l0.1,1l0.9-0.1L579,490 M580.8,489.9
			l-0.9,0.1l0.2,1l0.8-0.1L580.8,489.9 M582.5,489.7l-0.9,0.1l0.2,1l0.7-0.1L582.5,489.7 M584.2,489.6l-0.9,0.1l0.2,1l0.8-0.1
			L584.2,489.6 M585.9,489.5l-0.9,0.1l0.1,1l0.9-0.1L585.9,489.5 M587.7,489.3l-0.9,0.1l0.1,1l0.9-0.1L587.7,489.3 M589.4,489.2
			l-0.9,0.1l0.1,1l0.9-0.1L589.4,489.2 M591,489l-0.8,0.1l0.1,1l0.8-0.1l0-0.5L591,489 M592.8,488.9l-0.9,0.1l0.1,1l0.9-0.1
			L592.8,488.9 M594.5,488.7l-0.9,0.1l0.2,1l0.8-0.1L594.5,488.7 M596.3,488.5l-0.9,0.1l0.1,1l0.9-0.1L596.3,488.5 M598,488.4
			l-0.9,0.1l0.1,1l0.9-0.1L598,488.4 M599.7,488.2l-0.9,0.1l0.1,1l0.9-0.1L599.7,488.2 M601.4,488l-0.9,0.1l0.2,1l0.8-0.1L601.4,488
			 M603.1,487.8l-0.9,0.1l0.1,1l0.9-0.1L603.1,487.8 M604.9,487.6l-0.9,0.1l0.1,1l0.9-0.1L604.9,487.6 M606.6,487.4l-0.9,0.1l0.1,1
			l0.9-0.1L606.6,487.4 M608.3,487.1l-0.9,0.1l0.1,1l0.9-0.1L608.3,487.1 M610,486.9l-0.9,0.1l0.1,1l0.9-0.1L610,486.9 M611.7,486.6
			l-0.9,0.1l0.1,1l0.9-0.1L611.7,486.6 M613.4,486.4l-0.9,0.1l0.2,1l0.9-0.1L613.4,486.4 M615.1,486.1l-0.9,0.1l0.2,1l0.9-0.1
			L615.1,486.1 M616.8,485.8L616,486l0.2,1l0.9-0.1L616.8,485.8 M618.5,485.6l-0.9,0.1l0.2,1l0.9-0.1L618.5,485.6 M620.2,485.3
			l-0.9,0.1l0.2,1l0.9-0.1L620.2,485.3 M621.9,485l-0.9,0.2l0.2,1l0.9-0.2L621.9,485 M623.6,484.6l-0.8,0.2l0.2,1l0.9-0.2
			L623.6,484.6 M625.3,484.3l-0.8,0.2l0.2,1l0.9-0.2L625.3,484.3 M627,484l-0.8,0.2l0.2,1l0.8-0.2L627,484 M628.7,483.7l-0.8,0.2
			l0.2,1l0.8-0.2L628.7,483.7 M630.4,483.3l-0.8,0.2l0.2,1l0.8-0.2L630.4,483.3 M632.1,483l-0.8,0.2l0.2,1l0.8-0.2L632.1,483
			 M633.8,482.6l-0.8,0.2l0.3,1l0.7-0.2L633.8,482.6 M635.5,482.2l-0.8,0.2l0.2,1l0.8-0.2L635.5,482.2 M637.2,481.9l-0.8,0.2l0.2,1
			l0.8-0.2L637.2,481.9 M638.9,481.5l-0.8,0.2l0.2,1l0.8-0.2L638.9,481.5 M640.5,481.1l-0.8,0.2l0.2,1l0.8-0.2L640.5,481.1
			 M642.2,480.7l-0.8,0.2l0.2,1l0.8-0.2L642.2,480.7 M643.9,480.2l-0.8,0.2l0.2,1l0.8-0.2L643.9,480.2 M645.6,479.8l-0.8,0.2l0.3,1
			l0.8-0.2L645.6,479.8"/>
		<path fill="#6C6361" d="M553.1,495.1l-0.5,0l0,1l0.1,0l0.4,0L553.1,495.1 M554.9,495.1l-0.9,0l0,1l0.9,0L554.9,495.1 M556.6,495.1
			l-0.9,0l0,1l0.9,0L556.6,495.1 M558.3,495l-0.9,0l0,1l0.9,0L558.3,495 M559.9,495l-0.8,0l0,1l0.8,0l0.1-0.5L559.9,495
			 M561.8,494.9l-0.9,0l0,1l0.9,0L561.8,494.9 M563.5,494.9l-0.9,0l0,1l0.9,0L563.5,494.9 M565.2,494.8l-0.9,0l0,1l0.9,0
			L565.2,494.8 M567,494.7l-0.9,0l0,1l0.9,0L567,494.7 M568.7,494.6l-0.9,0l0.1,1l0.9,0L568.7,494.6 M570.4,494.6l-0.9,0l0.1,1
			l0.9,0L570.4,494.6 M572.1,494.5l-0.9,0l0.1,1l0.9,0L572.1,494.5 M573.9,494.4l-0.9,0.1l0.1,1l0.9-0.1L573.9,494.4 M575.6,494.3
			l-0.9,0.1l0.1,1l0.9-0.1L575.6,494.3 M577.2,494.1l-0.7,0l0.1,1l0.7,0l0.1-0.5L577.2,494.1 M579,494l-0.9,0.1l0.1,1l0.9-0.1
			L579,494 M580.8,493.9l-0.9,0.1l0.2,1l0.8-0.1L580.8,493.9 M582.5,493.8l-0.9,0.1l0.2,1l0.7-0.1L582.5,493.8 M584.2,493.6
			l-0.9,0.1l0.2,1l0.8-0.1L584.2,493.6 M585.9,493.5l-0.9,0.1l0.1,1l0.9-0.1L585.9,493.5 M587.7,493.4l-0.9,0.1l0.1,1l0.9-0.1
			L587.7,493.4 M589.4,493.2l-0.9,0.1l0.1,1l0.9-0.1L589.4,493.2 M591,493.1l-0.8,0.1l0.1,1l0.8-0.1l0-0.5L591,493.1 M592.8,492.9
			L592,493l0.1,1l0.9-0.1L592.8,492.9 M594.5,492.7l-0.9,0.1l0.2,1l0.8-0.1L594.5,492.7 M596.3,492.6l-0.9,0.1l0.1,1l0.9-0.1
			L596.3,492.6 M598,492.4l-0.9,0.1l0.1,1l0.9-0.1L598,492.4 M599.7,492.2l-0.9,0.1l0.1,1l0.9-0.1L599.7,492.2 M601.4,492l-0.9,0.1
			l0.2,1l0.8-0.1L601.4,492 M603.1,491.8l-0.9,0.1l0.1,1l0.9-0.1L603.1,491.8 M604.9,491.6l-0.9,0.1l0.1,1l0.9-0.1L604.9,491.6
			 M606.6,491.4l-0.9,0.1l0.1,1l0.9-0.1L606.6,491.4 M608.3,491.2l-0.9,0.1l0.1,1l0.9-0.1L608.3,491.2 M610,490.9l-0.9,0.1l0.1,1
			l0.9-0.1L610,490.9 M611.7,490.7l-0.9,0.1l0.1,1l0.9-0.1L611.7,490.7 M613.4,490.4l-0.9,0.1l0.2,1l0.9-0.1L613.4,490.4
			 M615.1,490.1l-0.9,0.1l0.2,1l0.9-0.1L615.1,490.1 M616.8,489.9L616,490l0.2,1l0.9-0.1L616.8,489.9 M618.5,489.6l-0.9,0.1l0.2,1
			l0.9-0.1L618.5,489.6 M620.2,489.3l-0.9,0.1l0.2,1l0.9-0.1L620.2,489.3 M621.9,489l-0.9,0.2l0.2,1l0.9-0.2L621.9,489 M623.6,488.7
			l-0.8,0.2l0.2,1l0.9-0.2L623.6,488.7 M625.3,488.4l-0.8,0.2l0.2,1l0.9-0.2L625.3,488.4 M627,488l-0.8,0.2l0.2,1l0.8-0.2L627,488
			 M628.7,487.7l-0.8,0.2l0.2,1l0.8-0.2L628.7,487.7 M630.4,487.4l-0.8,0.2l0.2,1l0.8-0.2L630.4,487.4 M632.1,487l-0.8,0.2l0.2,1
			l0.8-0.2L632.1,487 M633.8,486.6l-0.8,0.2l0.3,1l0.7-0.2L633.8,486.6 M635.5,486.3l-0.8,0.2l0.2,1l0.8-0.2L635.5,486.3
			 M637.2,485.9l-0.8,0.2l0.2,1l0.8-0.2L637.2,485.9 M638.9,485.5l-0.8,0.2l0.2,1l0.8-0.2L638.9,485.5 M640.5,485.1l-0.8,0.2l0.2,1
			l0.8-0.2L640.5,485.1 M642.2,484.7l-0.8,0.2l0.2,1l0.8-0.2L642.2,484.7 M643.9,484.3l-0.8,0.2l0.2,1l0.8-0.2L643.9,484.3
			 M645.6,483.8l-0.8,0.2l0.3,1l0.8-0.2L645.6,483.8"/>
		<path fill="#6C6361" d="M579,311.9l-1,0c0,0.1,0,12.7-1.8,22.6c-1,5.4-4.4,18.8-7.7,31.7c-2.8,10.8-5.4,21-6.4,26
			c-1.4,6.7-5.8,30.7-9.4,50c-2.2,12.2-4.2,22.7-4.7,25.4c-1.4,6.8-0.9,18.2-0.9,18.3l1,0c0-0.1-0.4-11.4,0.9-18
			c0.5-2.7,2.5-13.2,4.7-25.4c3.6-19.3,8-43.3,9.4-50c1-4.9,3.6-15.1,6.4-26c3.3-12.9,6.7-26.3,7.7-31.7
			C579,324.7,579,312,579,311.9"/>
		<path fill="#6C6361" d="M180.2,312.1c0,0.1,0,12.6,1.8,22.5c1,5.5,4.4,18.8,7.7,31.7c2.8,10.8,5.4,21,6.4,26
			c1.4,6.6,5.8,30.6,9.4,49.9c2.2,12.2,4.2,22.8,4.7,25.4c1.3,6.7,0.9,17.9,0.9,18l1,0c0-0.1,0.4-11.5-0.9-18.3
			c-0.5-2.7-2.5-13.2-4.7-25.4c-3.6-19.3-8-43.3-9.4-50c-1-5-3.6-15.2-6.4-26c-3.3-12.9-6.7-26.2-7.7-31.7
			c-1.8-9.8-1.8-22.2-1.8-22.4L180.2,312.1"/>
		<path fill="#6C6361" d="M380.5,289.4l0,1l0.9,0l0-1L380.5,289.4 M383.1,289.4l-0.9,0l0,1l0.9,0L383.1,289.4 M378.8,289.4l0,1
			l0.9,0l0-1L378.8,289.4 M384.8,289.4l-0.9,0l0,1l0.9,0L384.8,289.4 M386.6,289.4l-0.9,0l0,1l0.9,0L386.6,289.4 M377.1,289.4l0,1
			l0.9,0l0-1L377.1,289.4 M388.3,289.3l-0.9,0l0,1l0.9,0L388.3,289.3 M375.3,289.3l0,1l0.9,0l0-1L375.3,289.3 M390,289.3l-0.9,0l0,1
			l0.9,0L390,289.3 M373.6,289.3l0,1l0.9,0l0-1L373.6,289.3 M391.7,289.2l-0.9,0l0,1l0.9,0L391.7,289.2 M371.9,289.2l-0.1,1l0.9,0
			l0-1L371.9,289.2 M393.5,289.1l-0.9,0l0,1l0.9,0L393.5,289.1 M370.2,289.1l-0.1,1l0.9,0l0.1-1L370.2,289.1 M395.2,289l-0.9,0
			l0.1,1l0.9,0L395.2,289 M368.4,289l-0.1,1l0.9,0.1l0.1-1L368.4,289 M396.9,288.9L396,289l0.1,1l0.9-0.1L396.9,288.9 M366.7,288.9
			l-0.1,1l0.9,0.1l0.1-1L366.7,288.9 M398.6,288.8l-0.9,0.1l0.1,1l0.9-0.1L398.6,288.8 M365,288.7l-0.1,1l0.9,0.1l0.1-1L365,288.7
			 M400.3,288.7l-0.9,0.1l0.1,1l0.9-0.1L400.3,288.7 M363.3,288.6l-0.1,1l0.9,0.1l0.1-1L363.3,288.6 M402.1,288.5l-0.9,0.1l0.1,1
			l0.9-0.1L402.1,288.5 M361.6,288.4l-0.1,1l0.9,0.1l0.1-1L361.6,288.4 M403.8,288.3l-0.9,0.1l0.1,1l0.9-0.1L403.8,288.3
			 M359.9,288.2l-0.1,1l0.9,0.1l0.1-1L359.9,288.2 M405.5,288.2l-0.9,0.1l0.1,1l0.9-0.1L405.5,288.2 M358.1,288l-0.1,1l0.9,0.1
			l0.1-1L358.1,288 M407.2,288l-0.9,0.1l0.1,1l0.9-0.1L407.2,288 M408.9,287.7l-0.9,0.1l0.1,1l0.9-0.1L408.9,287.7 M356.4,287.7
			l-0.1,1l0.9,0.1l0.1-1L356.4,287.7 M410.6,287.5l-0.9,0.1l0.1,1l0.9-0.1L410.6,287.5 M354.7,287.5l-0.2,1l0.9,0.1l0.1-1
			L354.7,287.5 M412.3,287.3l-0.9,0.1l0.1,1l0.9-0.1L412.3,287.3 M353,287.2l-0.2,1l0.9,0.1l0.2-1L353,287.2 M414,287l-0.8,0.1
			l0.2,1l0.9-0.1L414,287 M351.3,286.9l-0.2,1l0.9,0.1l0.2-1L351.3,286.9 M415.7,286.7l-0.8,0.1l0.2,1l0.9-0.1L415.7,286.7
			 M349.6,286.6l-0.2,1l0.9,0.2l0.2-1L349.6,286.6 M417.4,286.4l-0.8,0.2l0.2,1l0.9-0.2L417.4,286.4 M347.9,286.3l-0.2,1l0.9,0.2
			l0.2-1L347.9,286.3 M419.1,286.1l-0.8,0.2l0.2,1l0.9-0.2L419.1,286.1 M346.2,286l-0.2,1l0.8,0.2l0.2-1L346.2,286 M420.8,285.8
			l-0.8,0.2l0.2,1l0.9-0.2L420.8,285.8 M344.6,285.6l-0.2,1l0.8,0.2l0.2-1L344.6,285.6 M422.5,285.4l-0.8,0.2l0.2,1l0.8-0.2
			L422.5,285.4 M342.9,285.2l-0.2,1l0.8,0.2l0.2-1L342.9,285.2 M424.2,285l-0.8,0.2l0.2,1l0.8-0.2L424.2,285 M341.2,284.8l-0.2,1
			l0.8,0.2l0.2-1L341.2,284.8 M425.9,284.6l-0.8,0.2l0.2,1l0.8-0.2L425.9,284.6 M339.5,284.4l-0.3,1l0.8,0.2l0.3-1L339.5,284.4
			 M427.5,284.2l-0.8,0.2l0.2,1l0.8-0.2L427.5,284.2 M337.9,283.9l-0.3,1l0.8,0.2l0.3-1L337.9,283.9 M429.2,283.8l-0.8,0.2l0.3,1
			l0.8-0.2L429.2,283.8 M336.2,283.4l-0.3,1l0.8,0.2l0.3-1L336.2,283.4 M430.9,283.3l-0.8,0.2l0.3,1l0.8-0.2L430.9,283.3
			 M334.6,282.9l-0.3,1l0.8,0.3l0.3-1L334.6,282.9 M432.5,282.9l-0.8,0.2l0.3,1l0.8-0.2L432.5,282.9 M332.9,282.4l-0.3,1l0.8,0.3
			l0.3-1L332.9,282.4 M434.2,282.4l-0.8,0.3l0.3,1l0.8-0.3L434.2,282.4 M331.3,281.9l-0.3,1l0.8,0.3l0.3-1L331.3,281.9 M435.8,281.8
			l-0.8,0.3l0.3,1l0.8-0.3L435.8,281.8 M329.7,281.3l-0.3,0.9l0.8,0.3l0.3-1L329.7,281.3 M437.5,281.3l-0.8,0.3l0.3,1l0.8-0.3
			L437.5,281.3 M328,280.7l-0.4,0.9l0.8,0.3l0.3-0.9L328,280.7 M439.1,280.7l-0.8,0.3l0.3,1l0.8-0.3L439.1,280.7 M440.7,280.1
			l-0.8,0.3l0.3,0.9l0.8-0.3L440.7,280.1 M326.4,280.1l-0.4,0.9l0.8,0.3l0.4-0.9L326.4,280.1 M442.3,279.5l-0.8,0.3l0.4,0.9l0.8-0.3
			L442.3,279.5 M324.8,279.5l-0.4,0.9l0.8,0.3l0.4-0.9L324.8,279.5 M443.9,278.9l-0.8,0.3l0.4,0.9l0.8-0.3L443.9,278.9 M323.2,278.8
			l-0.4,0.9l0.8,0.3l0.4-0.9L323.2,278.8 M445.5,278.2l-0.8,0.3l0.4,0.9l0.8-0.3L445.5,278.2 M321.7,278.2l-0.4,0.9l0.8,0.3l0.4-0.9
			L321.7,278.2 M447.1,277.5l-0.8,0.3l0.4,0.9l0.8-0.4L447.1,277.5 M320.1,277.4l-0.4,0.9l0.8,0.4l0.4-0.9L320.1,277.4 M448.6,276.8
			l-0.8,0.4l0.4,0.9l0.8-0.4L448.6,276.8 M318.5,276.7l-0.4,0.9l0.8,0.4l0.4-0.9L318.5,276.7 M450.2,276.1l-0.8,0.4l0.4,0.9l0.8-0.4
			L450.2,276.1 M317,275.9l-0.5,0.9l0.8,0.4l0.4-0.9L317,275.9 M451.7,275.3l-0.8,0.4l0.5,0.9l0.8-0.4L451.7,275.3 M315.5,275.2
			L315,276l0.8,0.4l0.5-0.9L315.5,275.2 M453.2,274.5l-0.8,0.4l0.5,0.9l0.8-0.4L453.2,274.5 M313.9,274.3l-0.5,0.9l0.8,0.4l0.5-0.9
			L313.9,274.3 M454.8,273.7l-0.8,0.4l0.5,0.9l0.8-0.4L454.8,273.7 M312.4,273.5l-0.5,0.9l0.8,0.4l0.5-0.9L312.4,273.5 M456.2,272.8
			l-0.7,0.4l0.5,0.9l0.7-0.4L456.2,272.8 M311,272.6l-0.5,0.9l0.7,0.4l0.5-0.9L311,272.6 M457.7,271.9l-0.7,0.5l0.5,0.9l0.7-0.5
			L457.7,271.9 M309.5,271.7l-0.5,0.9l0.7,0.5l0.5-0.9L309.5,271.7 M459.2,271l-0.7,0.5l0.5,0.9l0.7-0.5L459.2,271 M308,270.8
			l-0.6,0.8l0.7,0.5l0.5-0.8L308,270.8 M460.6,270l-0.7,0.5l0.6,0.8l0.7-0.5L460.6,270 M306.6,269.9l-0.6,0.8l0.7,0.5l0.6-0.8
			L306.6,269.9 M462,269l-0.7,0.5l0.6,0.8l0.7-0.5L462,269 M305.2,268.9l-0.6,0.8l0.7,0.5l0.6-0.8L305.2,268.9 M463.4,268l-0.7,0.5
			l0.6,0.8l0.7-0.5L463.4,268 M303.8,267.9l-0.6,0.8l0.7,0.5l0.6-0.8L303.8,267.9 M464.7,266.9c-0.2,0.2-0.4,0.4-0.7,0.5l0.6,0.8
			c0.2-0.2,0.5-0.4,0.7-0.5L464.7,266.9 M302.4,266.8l-0.6,0.8l0.7,0.5l0.6-0.8L302.4,266.8 M466,265.8c-0.2,0.2-0.4,0.4-0.7,0.6
			l0.6,0.8c0.2-0.2,0.5-0.4,0.7-0.6L466,265.8 M301.1,265.7l-0.6,0.8l0.7,0.6l0.6-0.8L301.1,265.7 M467.3,264.7
			c-0.2,0.2-0.4,0.4-0.6,0.6l0.7,0.7c0.2-0.2,0.4-0.4,0.6-0.6L467.3,264.7 M299.8,264.6l-0.7,0.8c0.2,0.2,0.4,0.4,0.7,0.6l0.6-0.8
			C300.2,265,300,264.8,299.8,264.6 M468.5,263.5c-0.2,0.2-0.4,0.4-0.6,0.6l0.7,0.7c0.2-0.2,0.4-0.4,0.6-0.6L468.5,263.5
			 M298.5,263.5l-0.7,0.7c0.2,0.2,0.4,0.4,0.6,0.6l0.7-0.8L298.5,263.5 M297.2,262.3l-0.7,0.7c0.2,0.2,0.4,0.4,0.6,0.6l0.7-0.7
			C297.7,262.7,297.4,262.5,297.2,262.3 M469.7,262.3c-0.2,0.2-0.4,0.4-0.6,0.6l0.7,0.7c0.2-0.2,0.4-0.4,0.6-0.6L469.7,262.3
			 M296,261.1l-0.7,0.7c0.2,0.2,0.4,0.4,0.6,0.6l0.7-0.7C296.4,261.5,296.2,261.3,296,261.1 M470.8,261c0,0-0.2,0.2-0.5,0.6l0.8,0.6
			c0.4-0.5,0.6-0.7,0.6-0.7L470.8,261 M294.9,259.9l-0.8,0.7c0.2,0.2,0.4,0.4,0.6,0.6l0.7-0.7C295.2,260.3,295,260.1,294.9,259.9
			 M293.8,258.6l-0.8,0.6c0.1,0.2,0.3,0.4,0.6,0.7l0.8-0.7C294.1,259,293.9,258.7,293.8,258.6"/>
		<path fill="#6C6361" d="M441.1,243.8c-0.5-0.6-1.1-1.6-2-2.7l0.9-0.7c0.8,1.1,1.5,2.1,2,2.7L441.1,243.8z M319.5,243l-0.9-0.6
			c0,0,0.8-1.2,2.1-2.7l0.9,0.7C320.3,241.8,319.5,242.9,319.5,243z M437.8,239.3c-0.7-0.9-1.4-1.8-2.1-2.6l0.9-0.7
			c0.7,0.9,1.4,1.8,2.1,2.6L437.8,239.3z M323,238.6l-0.8-0.7c0.8-0.9,1.6-1.7,2.4-2.5l0.8,0.8C324.5,236.9,323.8,237.7,323,238.6z
			 M434.3,235c-1-1-1.8-1.8-2.4-2.2l0.6-0.9c0.7,0.5,1.5,1.2,2.6,2.4L434.3,235z M326.9,234.8l-0.7-0.9c1-0.8,2-1.5,2.9-1.9l0.5,1
			C328.8,233.4,327.9,234,326.9,234.8z M430,232.3c-0.9-0.2-2-0.3-3.3-0.4l0.1-1.1c1.4,0.1,2.5,0.3,3.4,0.5L430,232.3z M331.6,232.2
			l-0.2-1.1c0.8-0.2,2-0.3,3.4-0.5l0.1,1.1C333.4,231.9,332.3,232.1,331.6,232.2z M424.5,231.6c-1-0.1-2.2-0.2-3.3-0.2l0.1-1.1
			c1.2,0.1,2.3,0.2,3.4,0.2L424.5,231.6z M337.1,231.6l-0.1-1.1c1-0.1,2.2-0.2,3.4-0.2l0.1,1.1C339.2,231.4,338.1,231.5,337.1,231.6
			z M418.9,231.3c-1.1-0.1-2.2-0.1-3.4-0.2l0-1.1c1.2,0.1,2.3,0.1,3.4,0.2L418.9,231.3z M342.7,231.2l-0.1-1.1
			c1.1-0.1,2.2-0.1,3.4-0.1l0,1.1C344.9,231.1,343.7,231.2,342.7,231.2z M413.3,231c-1.1,0-2.2-0.1-3.4-0.1l0-1.1
			c1.1,0,2.3,0.1,3.4,0.1L413.3,231z M348.3,231l0-1.1c1.1,0,2.2-0.1,3.4-0.1l0,1.1C350.5,230.9,349.3,231,348.3,231z M353.9,230.8
			l0-1.1c1.1,0,2.2-0.1,3.4-0.1l0,1.1C356.1,230.8,355,230.8,353.9,230.8z M407.7,230.8c-1.1,0-2.2-0.1-3.4-0.1l0-1.1
			c1.1,0,2.3,0.1,3.4,0.1L407.7,230.8z M359.5,230.7l0-1.1l3.4-0.1l0,1.1L359.5,230.7z M402.1,230.7l-3.4-0.1l0-1.1l3.4,0.1
			L402.1,230.7z M365.1,230.6l0-1.1l3.4,0l0,1.1L365.1,230.6z M396.5,230.6l-3.4,0l0-1.1l3.4,0L396.5,230.6z M370.7,230.6l0-1.1
			l3.4,0l0,1.1L370.7,230.6z M390.9,230.5l-3.4,0l0-1.1l3.4,0L390.9,230.5z M376.3,230.5l0-1.1l3.4,0l0,1.1L376.3,230.5z
			 M381.9,230.5l0-1.1l2,0l1.4,0l0,1.1l-1.4,0L381.9,230.5z"/>
		<path fill="#6C6361" d="M438.2,246.8c0,0-0.3-0.6-0.9-1.5l0.9-0.6c0.6,0.9,0.9,1.5,0.9,1.5L438.2,246.8z M322.3,244.5l-0.9-0.7
			c0,0,1-1.1,2.3-2.5l0.8,0.8C323.2,243.4,322.3,244.5,322.3,244.5z M436.1,243.5c-0.7-1-1.3-1.9-2-2.7l0.9-0.7
			c0.6,0.8,1.3,1.7,2,2.7L436.1,243.5z M326.1,240.4l-0.8-0.8c0.9-0.9,1.8-1.7,2.6-2.3l0.7,0.9C327.8,238.8,327,239.5,326.1,240.4z
			 M432.7,239.1c-0.9-1-1.7-1.7-2.4-2l0.5-1c0.8,0.4,1.7,1.2,2.7,2.3L432.7,239.1z M330.3,237.1l-0.5-1c0.2-0.1,0.3-0.1,0.5-0.2
			c0.2-0.1,0.8-0.2,3-0.4l0.1,1.1c-2.2,0.2-2.7,0.4-2.8,0.4C330.6,237,330.4,237,330.3,237.1z M428.3,236.4c-0.9-0.3-2-0.5-3.2-0.7
			l0.2-1.1c1.2,0.2,2.4,0.5,3.3,0.7L428.3,236.4z M335.7,236.3l-0.1-1.1c1-0.1,2.1-0.2,3.4-0.3l0.1,1.1
			C337.8,236.1,336.7,236.2,335.7,236.3z M341.2,235.9l-0.1-1.1c1.1-0.1,2.2-0.2,3.4-0.2l0.1,1.1
			C343.4,235.7,342.3,235.8,341.2,235.9z M346.8,235.5l-0.1-1.1l3.4-0.2l0.1,1.1L346.8,235.5z M422.8,235.3c-1-0.2-2.2-0.3-3.3-0.4
			l0.1-1.1c1.2,0.1,2.3,0.3,3.4,0.4L422.8,235.3z M352.4,235.1l-0.1-1.1l3.4-0.2l0.1,1.1L352.4,235.1z M358,234.8l-0.1-1.1
			c1.1-0.1,2.2-0.1,3.4-0.2l0.1,1.1C360.2,234.7,359.1,234.7,358,234.8z M417.3,234.7c-1.1-0.1-2.2-0.2-3.3-0.3l0.1-1.1
			c1.2,0.1,2.3,0.2,3.4,0.3L417.3,234.7z M363.6,234.5l-0.1-1.1l3.4-0.1l0,1.1L363.6,234.5z M369.2,234.3l0-1.1l3.4-0.1l0,1.1
			L369.2,234.3z M411.7,234.3c-1.1-0.1-2.2-0.1-3.3-0.2l0-1.1c1.1,0,2.3,0.1,3.4,0.2L411.7,234.3z M374.8,234.1l0-1.1l3.4-0.1l0,1.1
			L374.8,234.1z M406.2,234c-1.1,0-2.2-0.1-3.4-0.1l0-1.1c1.1,0,2.3,0.1,3.4,0.1L406.2,234z M380.4,234l0-1.1c1.1,0,2.2,0,3.4-0.1
			l0,1.1C382.6,233.9,381.5,233.9,380.4,234z M400.6,233.9c-1.1,0-2.2,0-3.4,0l0-1.1c1.1,0,2.3,0,3.4,0L400.6,233.9z M386,233.9
			l0-1.1c1.1,0,2.2,0,3.4,0l0,1.1C388.3,233.8,387.1,233.8,386,233.9z M391.6,233.8l0-1.1l1.9,0l1.5,0l0,1.1l-1.5,0L391.6,233.8z"/>
		<path fill="#6C6361" d="M531.3,752.8c0.1,0.7,0.2,1.3,0.4,2c0.4-0.1,0.8-0.1,1.1-0.2c0.1,0,0.3-0.1,0.4-0.1
			c-0.1-0.7-0.3-1.3-0.4-2C532.3,752.6,531.8,752.7,531.3,752.8 M525.7,753.8c0.1,0.7,0.2,1.3,0.3,2c0.9-0.2,1.9-0.3,2.8-0.5
			c-0.1-0.7-0.2-1.3-0.4-2C527.5,753.5,526.6,753.7,525.7,753.8 M520,754.8c0.1,0.7,0.2,1.3,0.3,2c0.9-0.2,1.9-0.3,2.8-0.5
			c-0.1-0.7-0.2-1.3-0.3-2C521.9,754.5,521,754.6,520,754.8 M514.4,755.7c0.1,0.7,0.2,1.3,0.3,2c0.9-0.2,1.9-0.3,2.8-0.5
			c-0.1-0.7-0.2-1.3-0.3-2C516.3,755.4,515.4,755.5,514.4,755.7 M508.8,756.6c0.2,0.7,0.4,1.3,0.6,2c0.8-0.1,1.6-0.3,2.5-0.4
			c-0.1-0.7-0.2-1.3-0.3-2C510.7,756.3,509.7,756.4,508.8,756.6 M503.2,757.4c0.1,0.7,0.2,1.3,0.3,2c0.9-0.1,1.9-0.3,2.8-0.4
			c-0.1-0.7-0.2-1.3-0.3-2C505.1,757.1,504.1,757.3,503.2,757.4 M497.6,758.2c0.1,0.7,0.2,1.3,0.3,2c0.9-0.1,1.9-0.3,2.8-0.4
			c-0.1-0.7-0.2-1.3-0.3-2C499.4,757.9,498.5,758.1,497.6,758.2 M491.9,759c0.1,0.7,0.2,1.3,0.3,2c0.9-0.1,1.9-0.3,2.8-0.4
			c-0.1-0.7-0.2-1.3-0.3-2C493.8,758.7,492.9,758.8,491.9,759 M486.3,759.7c0.1,0.7,0.2,1.3,0.2,2c0.9-0.1,1.9-0.2,2.8-0.4
			c-0.1-0.7-0.2-1.3-0.2-2C488.2,759.5,487.2,759.6,486.3,759.7 M480.6,760.4c0.1,0.7,0.2,1.3,0.2,2c0.9-0.1,1.9-0.2,2.8-0.3
			c-0.1-0.7-0.2-1.3-0.2-2C482.5,760.2,481.6,760.3,480.6,760.4 M475,761c0.1,0.7,0.1,1.3,0.2,2c0.9-0.1,1.9-0.2,2.8-0.3
			c-0.1-0.7-0.1-1.3-0.2-2C476.9,760.8,476,760.9,475,761 M469.4,761.6c0.1,0.7,0.1,1.3,0.2,2c0.9-0.1,1.9-0.2,2.8-0.3
			c-0.1-0.7-0.1-1.3-0.2-2C471.3,761.4,470.3,761.5,469.4,761.6 M463.7,762.2c0.1,0.7,0.1,1.3,0.2,2c0.9-0.1,1.9-0.2,2.8-0.3
			c-0.1-0.7-0.1-1.3-0.2-2C465.6,762,464.7,762.1,463.7,762.2 M458.1,762.8c0.1,0.7,0.1,1.4,0.2,2c0.9-0.1,1.9-0.2,2.8-0.3
			c-0.1-0.7-0.1-1.4-0.2-2C460,762.6,459,762.7,458.1,762.8 M452.4,763.3c0.2,0.7,0.4,1.3,0.6,2c0.8-0.1,1.6-0.1,2.4-0.2
			c-0.1-0.7-0.1-1.4-0.2-2C454.3,763.1,453.4,763.2,452.4,763.3 M446.8,763.8c0.1,0.7,0.1,1.4,0.2,2c0.9-0.1,1.9-0.2,2.8-0.2
			c-0.1-0.7-0.1-1.4-0.2-2C448.7,763.6,447.7,763.7,446.8,763.8 M441.1,764.2c0.1,0.7,0.1,1.4,0.2,2c0.9-0.1,1.9-0.1,2.8-0.2
			c0-0.3-0.1-0.7-0.1-1c-0.2-0.3-0.3-0.7-0.4-1C442.8,764.1,441.9,764.1,441.1,764.2 M435.5,764.6c0,0.7,0.1,1.4,0.1,2
			c0.9-0.1,1.9-0.1,2.8-0.2c0-0.3,0-0.7-0.1-1c-0.2-0.3-0.3-0.7-0.5-1C437.1,764.5,436.3,764.6,435.5,764.6 M429.8,765
			c0,0.7,0.1,1.4,0.1,2c0.9-0.1,1.9-0.1,2.8-0.2c0-0.3,0-0.7-0.1-1c-0.1-0.3-0.2-0.7-0.3-1C431.5,764.9,430.7,764.9,429.8,765
			 M424.2,765.3c0,0.7,0.1,1.4,0.1,2c0.9-0.1,1.9-0.1,2.8-0.2c0-0.7-0.1-1.4-0.1-2C426.1,765.2,425.1,765.3,424.2,765.3
			 M418.5,765.6c0,0.7,0.1,1.4,0.1,2c0.9,0,1.9-0.1,2.8-0.1c0-0.7-0.1-1.4-0.1-2C420.4,765.5,419.4,765.6,418.5,765.6 M412.8,765.9
			c0,0.7,0.1,1.4,0.1,2c0.9,0,1.9-0.1,2.8-0.1c0-0.7-0.1-1.4-0.1-2C414.7,765.8,413.8,765.8,412.8,765.9 M407.2,766.1
			c0.1,0.7,0.2,1.4,0.4,2c0.9,0,1.7-0.1,2.6-0.1c0-0.7-0.1-1.4-0.1-2C409.1,766,408.1,766.1,407.2,766.1 M401.5,766.3
			c0,0.7,0.1,1.4,0.1,2c0.9,0,1.9-0.1,2.8-0.1c0-0.7-0.1-1.4-0.1-2C403.4,766.3,402.5,766.3,401.5,766.3 M395.9,766.5
			c0,0.7,0,1.4,0.1,2c0.9,0,1.9-0.1,2.8-0.1c0-0.3,0-0.7,0-1c-0.1-0.3-0.2-0.7-0.3-1C397.6,766.4,396.7,766.5,395.9,766.5
			 M390.2,766.6c0,0.7,0,1.4,0.1,2c0.9,0,1.9,0,2.8-0.1c0-0.7,0-1.4-0.1-2C392.1,766.6,391.2,766.6,390.2,766.6 M384.5,766.7
			c0,0.7,0,1.4,0.1,2c0.9,0,1.9,0,2.8,0c0-0.7,0-1.4,0-2C386.4,766.7,385.5,766.7,384.5,766.7 M378.9,766.8c0,0.7,0,1.4,0,2
			c0.9,0,1.9,0,2.8,0c0-0.7,0-1.4,0-2C380.8,766.7,379.8,766.8,378.9,766.8 M373.2,766.8c0,0.7,0,1.4,0,2c0.9,0,1.9,0,2.8,0
			c0-0.3,0-0.7,0-1c-0.1-0.3-0.2-0.7-0.3-1C374.9,766.8,374.1,766.8,373.2,766.8 M367.6,766.7c0,0.7,0,1.4,0,2c0.9,0,1.9,0,2.8,0
			c0-0.7,0-1.4,0-2C369.5,766.8,368.5,766.7,367.6,766.7 M361.9,766.7c0,0.7,0,1.4,0,2c0.9,0,1.9,0,2.8,0c0-0.7,0-1.4,0-2
			C363.8,766.7,362.9,766.7,361.9,766.7 M356.3,766.5c0,0.7,0,1.4,0,2c0.9,0,1.9,0,2.8,0.1c0-0.7,0-1.4,0-2
			C358.1,766.6,357.2,766.6,356.3,766.5 M350.6,766.4c0,0.7,0,1.4-0.1,2c0.9,0,1.9,0.1,2.8,0.1c0-0.7,0-1.4,0-2
			C352.5,766.4,351.5,766.4,350.6,766.4 M344.9,766.2c0,0.7,0,1.4-0.1,2c0.9,0,1.9,0.1,2.8,0.1c0-0.7,0-1.4,0.1-2
			C346.8,766.2,345.9,766.2,344.9,766.2 M339.3,765.9c0,0.7-0.1,1.4-0.1,2c0.9,0,1.9,0.1,2.8,0.1c0-0.7,0-1.4,0.1-2
			C341.2,766,340.2,766,339.3,765.9 M333.6,765.6c0,0.7-0.1,1.4-0.1,2c0.9,0.1,1.9,0.1,2.8,0.2c0-0.7,0.1-1.4,0.1-2
			C335.5,765.7,334.6,765.7,333.6,765.6 M328,765.3c0,0.7-0.1,1.4-0.1,2c0.9,0.1,1.9,0.1,2.8,0.2c0-0.7,0.1-1.4,0.1-2
			C329.9,765.4,328.9,765.3,328,765.3 M322.3,764.9c0,0.7-0.1,1.4-0.1,2c0.9,0.1,1.9,0.1,2.8,0.2c0-0.7,0.1-1.4,0.1-2
			C324.2,765,323.3,765,322.3,764.9 M316.7,764.5c-0.1,0.7-0.1,1.4-0.2,2c0.9,0.1,1.9,0.1,2.8,0.2c0.1-0.7,0.1-1.4,0.2-2
			C318.6,764.6,317.6,764.6,316.7,764.5 M311,764c-0.1,0.7-0.1,1.4-0.2,2c0.9,0.1,1.9,0.2,2.8,0.2c0.1-0.7,0.1-1.4,0.2-2
			C312.9,764.2,312,764.1,311,764 M305.4,763.5c-0.1,0.7-0.1,1.4-0.2,2c0.9,0.1,1.9,0.2,2.8,0.3c0.1-0.7,0.1-1.4,0.2-2
			C307.3,763.7,306.3,763.6,305.4,763.5 M299.7,763c-0.1,0.7-0.1,1.4-0.2,2c0.9,0.1,1.9,0.2,2.8,0.3c0.1-0.7,0.1-1.3,0.2-2
			C301.6,763.2,300.7,763.1,299.7,763 M294.1,762.4c-0.1,0.7-0.2,1.3-0.2,2c0.9,0.1,1.9,0.2,2.8,0.3c0.1-0.7,0.1-1.3,0.2-2
			C296,762.6,295,762.5,294.1,762.4 M288.5,761.8c-0.1,0.7-0.2,1.3-0.2,2c0.9,0.1,1.9,0.2,2.8,0.3c0.1-0.7,0.2-1.3,0.2-2
			C290.3,762,289.4,761.9,288.5,761.8 M282.8,761.1c-0.1,0.7-0.2,1.3-0.3,2c0.9,0.1,1.9,0.2,2.8,0.3c0.1-0.7,0.2-1.3,0.3-2
			C284.7,761.3,283.8,761.2,282.8,761.1 M277.2,760.4c-0.1,0.7-0.2,1.3-0.3,2c0.9,0.1,1.9,0.2,2.8,0.4c0.1-0.7,0.2-1.3,0.3-2
			C279.1,760.6,278.1,760.5,277.2,760.4 M271.6,759.6c-0.1,0.7-0.2,1.3-0.3,2c0.9,0.1,1.9,0.3,2.8,0.4c0.1-0.7,0.2-1.3,0.3-2
			C273.4,759.9,272.5,759.8,271.6,759.6 M265.9,758.8c-0.1,0.7-0.2,1.3-0.3,2c0.9,0.1,1.9,0.3,2.8,0.4c0.1-0.3,0.1-0.7,0.2-1
			c-0.1-0.4-0.2-0.7-0.2-1.1C267.6,759.1,266.8,759,265.9,758.8 M260.3,758c-0.1,0.7-0.2,1.3-0.3,2c0.9,0.1,1.9,0.3,2.8,0.4
			c0.1-0.7,0.2-1.3,0.3-2C262.2,758.3,261.3,758.1,260.3,758 M254.7,757.1c-0.1,0.7-0.2,1.3-0.3,2c0.9,0.1,1.9,0.3,2.8,0.4
			c0.1-0.7,0.2-1.3,0.3-2C256.6,757.4,255.6,757.3,254.7,757.1 M249.1,756.2c-0.1,0.7-0.2,1.3-0.4,2c0.9,0.2,1.9,0.3,2.8,0.5
			c0.1-0.7,0.2-1.3,0.4-2C251,756.5,250,756.4,249.1,756.2 M243.5,755.2c-0.1,0.7-0.3,1.3-0.4,2c0.9,0.2,1.9,0.3,2.8,0.5
			c0.1-0.7,0.2-1.3,0.4-2C245.4,755.6,244.4,755.4,243.5,755.2 M237.9,754.2c-0.1,0.7-0.3,1.3-0.4,2c0.9,0.2,1.9,0.3,2.8,0.5
			c0.1-0.7,0.3-1.3,0.4-2C239.8,754.6,238.8,754.4,237.9,754.2 M232.3,753.2c-0.1,0.7-0.3,1.3-0.4,2c0.9,0.2,1.9,0.4,2.8,0.5
			c0.1-0.7,0.3-1.3,0.4-2C234.2,753.5,233.2,753.3,232.3,753.2 M226.7,752c-0.2,0.7-0.3,1.3-0.5,2c0.9,0.2,1.9,0.4,2.8,0.6
			c0.2-0.7,0.3-1.3,0.5-2C228.6,752.4,227.6,752.2,226.7,752"/>
		<path fill="#6C6361" d="M531.3,749.1c0.1,0.7,0.2,1.3,0.4,2c0.4-0.1,0.8-0.1,1.1-0.2c0.1,0,0.3-0.1,0.4-0.1
			c-0.1-0.7-0.3-1.3-0.4-2C532.3,748.9,531.8,749,531.3,749.1 M525.7,750.1c0.1,0.7,0.2,1.3,0.3,2c0.9-0.2,1.9-0.3,2.8-0.5
			c-0.1-0.7-0.2-1.3-0.4-2C527.5,749.8,526.6,750,525.7,750.1 M520,751.1c0.1,0.7,0.2,1.3,0.3,2c0.9-0.2,1.9-0.3,2.8-0.5
			c-0.1-0.7-0.2-1.3-0.3-2C521.9,750.8,521,750.9,520,751.1 M514.4,752c0.1,0.7,0.2,1.3,0.3,2c0.9-0.2,1.9-0.3,2.8-0.5
			c-0.1-0.7-0.2-1.3-0.3-2C516.3,751.7,515.4,751.8,514.4,752 M508.8,752.9c0.2,0.7,0.4,1.3,0.6,2c0.8-0.1,1.6-0.3,2.5-0.4
			c-0.1-0.7-0.2-1.3-0.3-2C510.7,752.6,509.7,752.7,508.8,752.9 M503.2,753.7c0.1,0.7,0.2,1.3,0.3,2c0.9-0.1,1.9-0.3,2.8-0.4
			c-0.1-0.7-0.2-1.3-0.3-2C505.1,753.4,504.1,753.6,503.2,753.7 M497.6,754.5c0.1,0.7,0.2,1.3,0.3,2c0.9-0.1,1.9-0.3,2.8-0.4
			c-0.1-0.7-0.2-1.3-0.3-2C499.4,754.2,498.5,754.4,497.6,754.5 M491.9,755.3c0.1,0.7,0.2,1.3,0.3,2c0.9-0.1,1.9-0.3,2.8-0.4
			c-0.1-0.7-0.2-1.3-0.3-2C493.8,755,492.9,755.1,491.9,755.3 M486.3,756c0.1,0.7,0.2,1.3,0.2,2c0.9-0.1,1.9-0.2,2.8-0.4
			c-0.1-0.7-0.2-1.3-0.2-2C488.2,755.8,487.2,755.9,486.3,756 M480.6,756.7c0.1,0.7,0.2,1.3,0.2,2c0.9-0.1,1.9-0.2,2.8-0.3
			c-0.1-0.7-0.2-1.3-0.2-2C482.5,756.5,481.6,756.6,480.6,756.7 M475,757.3c0.1,0.7,0.1,1.3,0.2,2c0.9-0.1,1.9-0.2,2.8-0.3
			c-0.1-0.7-0.1-1.3-0.2-2C476.9,757.1,476,757.2,475,757.3 M469.4,758c0.1,0.7,0.1,1.3,0.2,2c0.9-0.1,1.9-0.2,2.8-0.3
			c-0.1-0.7-0.1-1.3-0.2-2C471.3,757.8,470.3,757.9,469.4,758 M463.7,758.5c0.1,0.7,0.1,1.3,0.2,2c0.9-0.1,1.9-0.2,2.8-0.3
			c-0.1-0.7-0.1-1.3-0.2-2C465.6,758.3,464.7,758.4,463.7,758.5 M458.1,759.1c0.1,0.7,0.1,1.4,0.2,2c0.9-0.1,1.9-0.2,2.8-0.3
			c-0.1-0.7-0.1-1.4-0.2-2C460,758.9,459,759,458.1,759.1 M452.4,759.6c0.2,0.7,0.4,1.3,0.6,2c0.8-0.1,1.6-0.1,2.4-0.2
			c-0.1-0.7-0.1-1.4-0.2-2C454.3,759.4,453.4,759.5,452.4,759.6 M446.8,760.1c0.1,0.7,0.1,1.4,0.2,2c0.9-0.1,1.9-0.2,2.8-0.2
			c-0.1-0.7-0.1-1.4-0.2-2C448.7,759.9,447.7,760,446.8,760.1 M441.1,760.5c0.1,0.7,0.1,1.4,0.2,2c0.9-0.1,1.9-0.1,2.8-0.2
			c0-0.3-0.1-0.7-0.1-1c-0.2-0.3-0.3-0.7-0.4-1C442.8,760.4,441.9,760.4,441.1,760.5 M435.5,760.9c0,0.7,0.1,1.4,0.1,2
			c0.9-0.1,1.9-0.1,2.8-0.2c0-0.3,0-0.7-0.1-1c-0.2-0.3-0.3-0.7-0.5-1C437.1,760.8,436.3,760.9,435.5,760.9 M429.8,761.3
			c0,0.7,0.1,1.4,0.1,2c0.9-0.1,1.9-0.1,2.8-0.2c0-0.3,0-0.7-0.1-1c-0.1-0.3-0.2-0.7-0.3-1C431.5,761.2,430.7,761.2,429.8,761.3
			 M424.2,761.6c0,0.7,0.1,1.4,0.1,2c0.9-0.1,1.9-0.1,2.8-0.2c0-0.7-0.1-1.4-0.1-2C426.1,761.5,425.1,761.6,424.2,761.6
			 M418.5,761.9c0,0.7,0.1,1.4,0.1,2c0.9,0,1.9-0.1,2.8-0.1c0-0.7-0.1-1.4-0.1-2C420.4,761.8,419.4,761.9,418.5,761.9 M412.8,762.2
			c0,0.7,0.1,1.4,0.1,2c0.9,0,1.9-0.1,2.8-0.1c0-0.7-0.1-1.4-0.1-2C414.7,762.1,413.8,762.2,412.8,762.2 M407.2,762.4
			c0.1,0.7,0.2,1.4,0.4,2c0.9,0,1.7-0.1,2.6-0.1c0-0.7-0.1-1.4-0.1-2C409.1,762.4,408.1,762.4,407.2,762.4 M401.5,762.6
			c0,0.7,0.1,1.4,0.1,2c0.9,0,1.9-0.1,2.8-0.1c0-0.7-0.1-1.4-0.1-2C403.4,762.6,402.5,762.6,401.5,762.6 M395.9,762.8
			c0,0.7,0,1.4,0.1,2c0.9,0,1.9-0.1,2.8-0.1c0-0.3,0-0.7,0-1c-0.1-0.3-0.2-0.7-0.3-1C397.6,762.7,396.7,762.8,395.9,762.8
			 M390.2,762.9c0,0.7,0,1.4,0.1,2c0.9,0,1.9,0,2.8-0.1c0-0.7,0-1.4-0.1-2C392.1,762.9,391.2,762.9,390.2,762.9 M384.5,763
			c0,0.7,0,1.4,0.1,2c0.9,0,1.9,0,2.8,0c0-0.7,0-1.4,0-2C386.4,763,385.5,763,384.5,763 M378.9,763.1c0,0.7,0,1.4,0,2
			c0.9,0,1.9,0,2.8,0c0-0.7,0-1.4,0-2C380.8,763.1,379.8,763.1,378.9,763.1 M373.2,763.1c0,0.7,0,1.4,0,2c0.9,0,1.9,0,2.8,0
			c0-0.3,0-0.7,0-1c-0.1-0.3-0.2-0.7-0.3-1C374.9,763.1,374.1,763.1,373.2,763.1 M367.6,763c0,0.7,0,1.4,0,2c0.9,0,1.9,0,2.8,0
			c0-0.7,0-1.4,0-2C369.5,763.1,368.5,763,367.6,763 M361.9,763c0,0.7,0,1.4,0,2c0.9,0,1.9,0,2.8,0c0-0.7,0-1.4,0-2
			C363.8,763,362.9,763,361.9,763 M356.3,762.8c0,0.7,0,1.4,0,2c0.9,0,1.9,0,2.8,0.1c0-0.7,0-1.4,0-2
			C358.1,762.9,357.2,762.9,356.3,762.8 M350.6,762.7c0,0.7,0,1.4-0.1,2c0.9,0,1.9,0.1,2.8,0.1c0-0.7,0-1.4,0-2
			C352.5,762.7,351.5,762.7,350.6,762.7 M344.9,762.5c0,0.7,0,1.4-0.1,2c0.9,0,1.9,0.1,2.8,0.1c0-0.7,0-1.4,0.1-2
			C346.8,762.5,345.9,762.5,344.9,762.5 M339.3,762.2c0,0.7-0.1,1.4-0.1,2c0.9,0,1.9,0.1,2.8,0.1c0-0.7,0-1.4,0.1-2
			C341.2,762.3,340.2,762.3,339.3,762.2 M333.6,761.9c0,0.7-0.1,1.4-0.1,2c0.9,0.1,1.9,0.1,2.8,0.2c0-0.7,0.1-1.4,0.1-2
			C335.5,762,334.6,762,333.6,761.9 M328,761.6c0,0.7-0.1,1.4-0.1,2c0.9,0.1,1.9,0.1,2.8,0.2c0-0.7,0.1-1.4,0.1-2
			C329.9,761.7,328.9,761.6,328,761.6 M322.3,761.2c0,0.7-0.1,1.4-0.1,2c0.9,0.1,1.9,0.1,2.8,0.2c0-0.7,0.1-1.4,0.1-2
			C324.2,761.3,323.3,761.3,322.3,761.2 M316.7,760.8c-0.1,0.7-0.1,1.4-0.2,2c0.9,0.1,1.9,0.1,2.8,0.2c0.1-0.7,0.1-1.4,0.2-2
			C318.6,760.9,317.6,760.9,316.7,760.8 M311,760.3c-0.1,0.7-0.1,1.3-0.2,2c0.9,0.1,1.9,0.2,2.8,0.2c0.1-0.7,0.1-1.4,0.2-2
			C312.9,760.5,312,760.4,311,760.3 M305.4,759.8c-0.1,0.7-0.1,1.3-0.2,2c0.9,0.1,1.9,0.2,2.8,0.3c0.1-0.7,0.1-1.4,0.2-2
			C307.3,760,306.3,759.9,305.4,759.8 M299.7,759.3c-0.1,0.7-0.1,1.3-0.2,2c0.9,0.1,1.9,0.2,2.8,0.3c0.1-0.7,0.1-1.3,0.2-2
			C301.6,759.5,300.7,759.4,299.7,759.3 M294.1,758.7c-0.1,0.7-0.2,1.3-0.2,2c0.9,0.1,1.9,0.2,2.8,0.3c0.1-0.7,0.1-1.3,0.2-2
			C296,758.9,295,758.8,294.1,758.7 M288.5,758.1c-0.1,0.7-0.2,1.3-0.2,2c0.9,0.1,1.9,0.2,2.8,0.3c0.1-0.7,0.2-1.3,0.2-2
			C290.3,758.3,289.4,758.2,288.5,758.1 M282.8,757.4c-0.1,0.7-0.2,1.3-0.3,2c0.9,0.1,1.9,0.2,2.8,0.3c0.1-0.7,0.2-1.3,0.3-2
			C284.7,757.6,283.8,757.5,282.8,757.4 M277.2,756.7c-0.1,0.7-0.2,1.3-0.3,2c0.9,0.1,1.9,0.2,2.8,0.4c0.1-0.7,0.2-1.3,0.3-2
			C279.1,756.9,278.1,756.8,277.2,756.7 M271.6,755.9c-0.1,0.7-0.2,1.3-0.3,2c0.9,0.1,1.9,0.3,2.8,0.4c0.1-0.7,0.2-1.3,0.3-2
			C273.4,756.2,272.5,756.1,271.6,755.9 M265.9,755.1c-0.1,0.7-0.2,1.3-0.3,2c0.9,0.1,1.9,0.3,2.8,0.4c0.1-0.3,0.1-0.7,0.2-1
			c-0.1-0.4-0.2-0.7-0.2-1.1C267.6,755.4,266.8,755.3,265.9,755.1 M260.3,754.3c-0.1,0.7-0.2,1.3-0.3,2c0.9,0.1,1.9,0.3,2.8,0.4
			c0.1-0.7,0.2-1.3,0.3-2C262.2,754.6,261.3,754.4,260.3,754.3 M254.7,753.4c-0.1,0.7-0.2,1.3-0.3,2c0.9,0.1,1.9,0.3,2.8,0.4
			c0.1-0.7,0.2-1.3,0.3-2C256.6,753.7,255.6,753.6,254.7,753.4 M249.1,752.5c-0.1,0.7-0.2,1.3-0.4,2c0.9,0.2,1.9,0.3,2.8,0.5
			c0.1-0.7,0.2-1.3,0.4-2C251,752.8,250,752.7,249.1,752.5 M243.5,751.5c-0.1,0.7-0.3,1.3-0.4,2c0.9,0.2,1.9,0.3,2.8,0.5
			c0.1-0.7,0.2-1.3,0.4-2C245.4,751.9,244.4,751.7,243.5,751.5 M237.9,750.5c-0.1,0.7-0.3,1.3-0.4,2c0.9,0.2,1.9,0.3,2.8,0.5
			c0.1-0.7,0.3-1.3,0.4-2C239.8,750.9,238.8,750.7,237.9,750.5 M232.3,749.5c-0.1,0.7-0.3,1.3-0.4,2c0.9,0.2,1.9,0.4,2.8,0.5
			c0.1-0.7,0.3-1.3,0.4-2C234.2,749.8,233.2,749.6,232.3,749.5 M226.7,748.3c-0.2,0.7-0.3,1.3-0.5,2c0.9,0.2,1.9,0.4,2.8,0.6
			c0.2-0.7,0.3-1.3,0.5-2C228.6,748.7,227.6,748.5,226.7,748.3"/>
	</g>
</g>
<g id="CK_LOGO">
	<g id="DETAIL_00000107583151542272782290000018334860703546202758_">
		<path id="DETAIL_00000042700371657863303890000006821673455323693214_" d="M283.6,343.4l7.5,7.4l-7.5,0V343.4L283.6,343.4z
			 M265,353.5c-5.2,0-10.7-4.8-10.7-11.2c0-6.4,5.5-11.2,10.7-11.2h23.8c5.2,0,10.7,4.8,10.7,11.2c0,6.4-5.5,11.2-10.7,11.2H265
			L265,353.5z M288.7,355.7c6.4,0,12.9-5.9,12.9-13.5c0-7.6-6.5-13.5-12.9-13.5H265c-6.5,0-12.9,5.9-12.9,13.5
			c0,7.6,6.5,13.5,12.9,13.5L288.7,355.7L288.7,355.7z M257,342.2c0,4.5,3.6,8.2,8.1,8.5v-17C260.6,334,257,337.7,257,342.2
			 M274.1,341.1v-7.4l-7.6,0L274.1,341.1z M283.6,341.1l7.6-7.4h-7.6V341.1z M275.7,350.8l6.3,0v-17l-6.3,0V350.8L275.7,350.8z
			 M274.1,350.8v-7.4l-7.6,7.4L274.1,350.8z"/>
	</g>
	<g>
	</g>
</g>
</svg>
