<?xml version="1.0" encoding="utf-8"?>
<!-- Generator: Adobe Illustrator 27.1.1, SVG Export Plug-In . SVG Version: 6.00 Build 0)  -->
<svg version="1.1" xmlns="http://www.w3.org/2000/svg" xmlns:xlink="http://www.w3.org/1999/xlink" x="0px" y="0px"
	 viewBox="0 0 764.6 1040" enable-background="new 0 0 774.6 1040" xml:space="preserve">

<g id="OUTLINE">
	<path fill="none" stroke="#897F76" stroke-miterlimit="10" d="M541.4,300.2c-11.5-47.4-48.9-100.6-48.9-107.8c0-1.4-1-3.6-2.5-6.1
		c0.1,0,0.2,0,0.2,0c-6.6-10.5-21.8-26.6-21.8-26.6s-59.9,1.5-74.6,13.2c-5.1,4.1-18.4,19.5-34,38.2c0.3-0.1,0.5-0.3,0.8-0.4
		c-28.9,34.6-66.6,78.7-70.9,83.8c-6.1,7.3-56.1,93.5-58.9,125.1c-2.9,31.6-4.3,70.4,0,87.7c4.3,17.3-1.4,106.4,2.9,139.5
		c4.3,33.1,0.8,141,19.7,180.5c0,0,87.2-23.9,154.1,14.9c117.6,68.1,98.2,16.3,98.9,13.4c28.4-129.9-8.2-251.9-8.2-272
		c0-20.1,25.9-89.1,33.1-115C538.5,442.5,552.9,347.7,541.4,300.2z"/>
</g>
  <g id="LEFTMASK">
<g id="LOWER_BODY">
	<path fill="#FFFFFF" d="M230.9,419.5c2.9-31.6,52.8-117.8,58.9-125.1c4.4-5.2,42.6-49.9,71.5-84.6c16.4-8.7,42.2-21.3,60.3-24.1
		c18.8-3,49.4-1.5,68-0.2c1.8,2.9,3,5.3,3,6.9c0,7.2,37.4,60.4,48.9,107.8c11.5,47.4-2.9,142.3-10.1,168.2
		c-7.2,25.9-33.1,94.9-33.1,115c0,20.1,36.6,142.1,8.2,272c-0.6,2.9,18.7,54.7-98.9-13.4c-66.9-38.7-154.1-14.9-154.1-14.9
		c-18.9-39.5-15.4-147.4-19.7-180.5c-4.3-33.1,1.4-122.2-2.9-139.5C226.5,490,228,451.2,230.9,419.5z"/>
</g>
<g id="FAUX_SIDE_PANELS">
	<g>
		<polygon points="358.9,567.3 412.8,507.3 460,559.8 460,403.8 358.9,403.8 		"/>
		<polygon points="358.9,587.9 358.9,621.2 412.8,561.2 460,613.8 460,580.4 412.8,527.9 		"/>
		<polygon points="358.9,641.9 358.9,675.2 412.8,615.2 460,667.7 460,634.4 412.8,581.9 		"/>
		<path d="M412.8,636.8l-53.9,60v127.4c16.6,3.3,33.6,9,49.4,18.1c21.5,12.5,38.5,20.9,51.8,26.4V689.3L412.8,636.8z"/>
	</g>
</g>
<g id="UPPER_BACK_FAUX_PANEL">
	<path fill="#897F76" d="M541.2,299.9c-11.5-47.3-48.7-100.3-48.7-107.5c0-1.6-1.2-4-2.9-6.8c-18.5-1.3-49.1-2.8-67.7,0.2
		c-2.2,0.3-4.5,0.8-6.8,1.4V353l1.3-1.4v-9.4v9.4c0,0,76.6,30.9,118.2,28.2c3.3-0.2,6.5-0.5,9.7-0.9
		C546.3,350,546.2,320.4,541.2,299.9z"/>
</g>
<g id="MID-STRIPE">
	<path fill="#64615E" stroke="#897F76" stroke-width="0.3796" d="M414.3,380.6l-181.8,187c-0.1,7.4-0.2,15-0.3,22.5l182.1-187.3
		V380.6z"/>
</g>
<g id="UPPER_BODY">
	<path fill="#897F76" d="M232.1,543l183.6-190V187.2c-17.2,4.4-40.9,15-55.2,22.6c-28.8,34.6-67,79.2-71.3,84.3
		c-6.1,7.3-55.9,93.1-58.8,124.7c-2.9,31.5-4.3,70.2,0,87.4C231.9,512,232.2,525.9,232.1,543z"/>
</g>
    </g>
  <g id="CUSTOM">
</g>
<g id="SHIRT_SLEEVE">
	<g>
		
			<image overflow="visible" opacity="0.2" width="209" height="299" xlink:href="/svg/SBDUS67/8ED53F5.png"  transform="matrix(1 0 0 1 311.6297 200.4297)">
		</image>
		<g>
			<path fill="#64615E" d="M329.1,310.6c1.2-34.6,10.3-80.5,57.7-89.4c47.4-8.9,75.9,5.6,75.9,5.6s15.2,6.1,23,25.9
				c7.8,19.7,16,51.3,16.4,65.8c1,33.6-7.3,77.2-7,87.4s3.1,59.7,3.1,59.7s-9.3,12.4-79.8,14.7c-71.3,2.3-79.2-13.6-79.2-13.6
				s1.6-66-0.3-74.9C337.1,382.8,327.9,345.2,329.1,310.6z"/>
			<path fill="none" stroke="#897F76" stroke-width="0.3461" d="M329.1,310.6c1.2-34.6,10.3-80.5,57.7-89.4
				c47.4-8.9,75.9,5.6,75.9,5.6s15.2,6.1,23,25.9c7.8,19.7,16,51.3,16.4,65.8c1,33.6-7.3,77.2-7,87.4s3.1,59.7,3.1,59.7
				s-9.3,12.4-79.8,14.7c-71.3,2.3-79.2-13.6-79.2-13.6s1.6-66-0.3-74.9C337.1,382.8,327.9,345.2,329.1,310.6z"/>
		</g>
	</g>
</g>
<g id="SHIRT_COLLAR">
	<path d="M421.2,186.5c-18.3,2.9-44.6,15.7-61.3,24.6c15.6-18.7,28.9-34.2,34-38.2c14.6-11.7,74.6-13.2,74.6-13.2
		s15.2,16.1,21.8,26.6C471.4,184.9,440.2,183.4,421.2,186.5z"/>
</g>
<g id="SHIRT_STITCH">
	<g>
		<g>
			<g opacity="0.5">
				<g>
					<path opacity="0.5" fill="none" stroke="#000000" stroke-width="0.3709" d="M407.7,839.4c0.1-7.4,0.1-14.9,0.2-22.3"/>
					<path opacity="0.5" fill="none" stroke="#000000" stroke-width="0.3709" d="M413.8,838.7c0.1-7.4,0.1-14.9,0.2-22.3"/>
					<path opacity="0.5" fill="none" stroke="#000000" stroke-width="0.3709" d="M409.7,839.2c0.1-7.4,0.1-14.9,0.2-22.3"/>
					<path opacity="0.5" fill="none" stroke="#000000" stroke-width="0.3709" d="M411.7,839c0.1-7.4,0.1-14.9,0.2-22.3"/>
					<path opacity="0.5" fill="none" stroke="#000000" stroke-width="0.3709" d="M407.4,816.9c0.2,5.5,6.2-1.5,6.9,2.2
						c1.2,6.4-5.9,2.2-6.7,4.5c-2.3,6.3,6,2.5,6.4,3.3c2.8,5.6-6,4.6-6.3,5.2c-2.3,4.8,2,4.1,2.7,4c1.2-0.1,4.5-2.3,3.9,2.6"/>
					<path opacity="0.5" fill="none" stroke="#000000" stroke-width="0.3709" d="M407.3,839.9c-1.4-7.3,5.5-2.4,6.6-4.6
						c2.9-6.3-5.9-3.4-6.2-3.8c-3.4-5.5,5.9-5,6-5.3c3.3-5.7-5.5-3.1-5.8-3.4c-2.1-2.8,0.4-4.2,1.4-4.5c1.5-0.4,3.5,0.4,4.9-1.1"/>
					<path opacity="0.5" fill="none" stroke="#000000" stroke-width="0.3709" d="M409.4,839.7c1.5-1.1,3-2.2,4.5-3.3"/>
					<line opacity="0.5" fill="none" stroke="#000000" stroke-width="0.3709" x1="407.2" y1="836.9" x2="413.9" y2="832.1"/>
					<line opacity="0.5" fill="none" stroke="#000000" stroke-width="0.3709" x1="407.2" y1="832.6" x2="414" y2="827.8"/>
					<line opacity="0.5" fill="none" stroke="#000000" stroke-width="0.3709" x1="407.3" y1="827.7" x2="414" y2="822.9"/>
					<line opacity="0.5" fill="none" stroke="#000000" stroke-width="0.3709" x1="407.3" y1="823.1" x2="414" y2="818.3"/>
				</g>
				<g>
					<line opacity="0.5" fill="none" stroke="#000000" stroke-width="0.3709" x1="407.9" y1="816.8" x2="408.3" y2="755.3"/>
					<line opacity="0.5" fill="none" stroke="#000000" stroke-width="0.3709" x1="413.9" y1="816.1" x2="414.4" y2="754.5"/>
					<line opacity="0.5" fill="none" stroke="#000000" stroke-width="0.3709" x1="409.9" y1="816.6" x2="410.4" y2="755"/>
					<line opacity="0.5" fill="none" stroke="#000000" stroke-width="0.3709" x1="411.9" y1="816.3" x2="412.4" y2="754.8"/>
					<path opacity="0.5" fill="none" stroke="#000000" stroke-width="0.3709" d="M407.8,755c0,1.9,0.5,2,0.5,2l6-0.8
						c0,0,0.4-0.9,0.4,1.4c0,2.4-0.5,2.9-0.5,2.9l-6,0.8c0,0-0.4-0.1-0.4,2c0,2.1,0.5,2.3,0.5,2.3l5.9-0.8c0,0,0.4,0.1,0.4,2.2
						c0,2.1-0.5,2.3-0.5,2.3l-6,0.8c0,0-0.4,0.3-0.4,2.1c0,1.8,0.4,2.3,0.4,2.3l6.1-0.8c0,0,0.4,0,0.4,2c0,2.2-0.4,2.6-0.4,2.6
						l-6.1,0.8c0,0-0.5-0.1-0.5,2.3c0,2.4,0.5,2.3,0.5,2.3l6-0.8c0,0,0.4-0.1,0.4,2c0,2.1-0.5,2.7-0.5,2.7l-6,0.8
						c0,0-0.5,0.4-0.5,2.4c0,2.1,0.5,2.2,0.5,2.2l5.9-0.7c0,0,0.6-0.4,0.6,1.7c0,2.1-0.6,2.5-0.6,2.5l-5.8,0.7c0,0-0.4-0.5-0.5,1.8
						c0,2.4,0.5,2.6,0.5,2.6l5.8-0.7c0,0,0.7-0.1,0.6,2.2c0,2.2-0.7,2.5-0.7,2.5l-5.8,0.7c0,0-0.5-0.3-0.5,1.8
						c0,2.1,0.5,2.3,0.5,2.3l5.8-0.7c0,0,0.6-0.1,0.6,2c0,2.1-0.6,2.3-0.6,2.3l-5.9,0.7l-0.4,0.5"/>
					<path opacity="0.5" fill="none" stroke="#000000" stroke-width="0.3709" d="M414.3,815.8c0-1.9-0.5-2-0.5-2l-6,0.7
						c0,0-0.4,1-0.4-1.4c0-2.4,0.5-2.9,0.5-2.9l6-0.7c0,0,0.4,0.1,0.4-2c0-2.1-0.5-2.3-0.5-2.3l-5.9,0.7c0,0-0.4-0.1-0.4-2.2
						c0-2.1,0.5-2.3,0.5-2.3l6-0.8c0,0,0.4-0.3,0.4-2.1c0-1.8-0.4-2.3-0.4-2.3l-6.1,0.8c0,0-0.4,0-0.4-2c0-2.2,0.4-2.6,0.4-2.6
						l6.1-0.8c0,0,0.5,0.1,0.5-2.3c0-2.4-0.5-2.3-0.5-2.3l-6,0.8c0,0-0.4,0.1-0.4-2c0-2.1,0.5-2.7,0.5-2.7l6-0.8
						c0,0,0.5-0.4,0.5-2.4c0-2.1-0.5-2.2-0.5-2.2l-5.9,0.7c0,0-0.6,0.4-0.5-1.7c0-2.1,0.6-2.4,0.6-2.4l5.8-0.7c0,0,0.4,0.5,0.4-1.8
						c0-2.4-0.5-2.6-0.5-2.6l-5.8,0.7c0,0-0.7,0.1-0.6-2.2c0-2.2,0.7-2.5,0.7-2.5l5.8-0.7c0,0,0.5,0.3,0.5-1.8
						c0-2.1-0.5-2.3-0.5-2.3l-5.8,0.7c0,0-0.6,0.1-0.6-2c0-2.1,0.6-2.3,0.6-2.3l5.9-0.7l0.4-0.5"/>
					<line opacity="0.5" fill="none" stroke="#000000" stroke-width="0.3709" x1="407.4" y1="814.6" x2="414.1" y2="809.8"/>
					<line opacity="0.5" fill="none" stroke="#000000" stroke-width="0.3709" x1="407.4" y1="810.6" x2="414.1" y2="805.8"/>
					<line opacity="0.5" fill="none" stroke="#000000" stroke-width="0.3709" x1="407.4" y1="805.6" x2="414.2" y2="800.7"/>
					<line opacity="0.5" fill="none" stroke="#000000" stroke-width="0.3709" x1="407.5" y1="801.3" x2="414.2" y2="796.4"/>
					<line opacity="0.5" fill="none" stroke="#000000" stroke-width="0.3709" x1="407.5" y1="797.5" x2="414.2" y2="792.7"/>
					<line opacity="0.5" fill="none" stroke="#000000" stroke-width="0.3709" x1="407.5" y1="793.2" x2="414.3" y2="788.4"/>
					<line opacity="0.5" fill="none" stroke="#000000" stroke-width="0.3709" x1="407.6" y1="788.7" x2="414.3" y2="783.9"/>
					<line opacity="0.5" fill="none" stroke="#000000" stroke-width="0.3709" x1="407.6" y1="783.8" x2="414.3" y2="779"/>
					<line opacity="0.5" fill="none" stroke="#000000" stroke-width="0.3709" x1="407.6" y1="779.4" x2="414.4" y2="774.5"/>
					<line opacity="0.5" fill="none" stroke="#000000" stroke-width="0.3709" x1="407.7" y1="775.1" x2="414.4" y2="770.2"/>
					<line opacity="0.5" fill="none" stroke="#000000" stroke-width="0.3709" x1="407.7" y1="770.8" x2="414.4" y2="765.9"/>
					<line opacity="0.5" fill="none" stroke="#000000" stroke-width="0.3709" x1="407.7" y1="765.9" x2="414.5" y2="761"/>
					<line opacity="0.5" fill="none" stroke="#000000" stroke-width="0.3709" x1="407.8" y1="761.3" x2="414.5" y2="756.4"/>
				</g>
				<g>
					<line opacity="0.5" fill="none" stroke="#000000" stroke-width="0.3709" x1="408.3" y1="755" x2="408.8" y2="693.4"/>
					<line opacity="0.5" fill="none" stroke="#000000" stroke-width="0.3709" x1="414.4" y1="754.2" x2="414.8" y2="692.7"/>
					<line opacity="0.5" fill="none" stroke="#000000" stroke-width="0.3709" x1="410.4" y1="754.7" x2="410.8" y2="693.2"/>
					<line opacity="0.5" fill="none" stroke="#000000" stroke-width="0.3709" x1="412.4" y1="754.4" x2="412.8" y2="692.9"/>
					<path opacity="0.5" fill="none" stroke="#000000" stroke-width="0.3709" d="M408.3,693.2c0,1.9,0.5,2,0.5,2l6-0.8
						c0,0,0.4-0.9,0.4,1.4c0,2.4-0.5,2.9-0.5,2.9l-6,0.8c0,0-0.4-0.1-0.4,2c0,2.1,0.5,2.3,0.5,2.3l5.9-0.8c0,0,0.4,0.1,0.4,2.2
						c0,2.1-0.5,2.3-0.5,2.3l-6,0.8c0,0-0.4,0.4-0.4,2.1c0,1.8,0.4,2.3,0.4,2.3l6.1-0.8c0,0,0.4,0,0.4,2c0,2.2-0.4,2.6-0.4,2.6
						l-6.1,0.8c0,0-0.5-0.1-0.5,2.3c0,2.4,0.5,2.3,0.5,2.3l6-0.8c0,0,0.4-0.1,0.4,2c0,2.1-0.5,2.7-0.5,2.7l-6,0.8
						c0,0-0.5,0.4-0.5,2.4c0,2.1,0.5,2.2,0.5,2.2l5.9-0.8c0,0,0.6-0.4,0.6,1.7c0,2.1-0.6,2.5-0.6,2.5l-5.8,0.7c0,0-0.4-0.5-0.4,1.8
						c0,2.4,0.5,2.6,0.5,2.6l5.8-0.7c0,0,0.7-0.1,0.6,2.1c0,2.2-0.7,2.5-0.7,2.5l-5.8,0.7c0,0-0.5-0.3-0.5,1.8
						c0,2.1,0.5,2.3,0.5,2.3l5.8-0.7c0,0,0.6-0.1,0.6,2c0,2.1-0.6,2.3-0.6,2.3l-5.9,0.7l-0.4,0.5"/>
					<path opacity="0.5" fill="none" stroke="#000000" stroke-width="0.3709" d="M414.8,753.9c0-1.9-0.5-2-0.5-2l-6,0.8
						c0,0-0.4,0.9-0.4-1.4c0-2.4,0.5-2.9,0.5-2.9l6-0.8c0,0,0.4,0.1,0.4-2c0-2.1-0.5-2.3-0.5-2.3l-5.9,0.8c0,0-0.4-0.1-0.4-2.2
						c0-2.1,0.5-2.3,0.5-2.3l6-0.8c0,0,0.4-0.3,0.4-2.1c0-1.8-0.4-2.3-0.4-2.3l-6.1,0.8c0,0-0.4,0.1-0.4-2c0-2.2,0.4-2.6,0.4-2.6
						l6.1-0.8c0,0,0.5,0.1,0.5-2.3c0-2.4-0.5-2.3-0.5-2.3l-6,0.8c0,0-0.4,0.1-0.4-2c0-2.1,0.5-2.7,0.5-2.7l6-0.8
						c0,0,0.5-0.4,0.5-2.4c0-2.1-0.5-2.2-0.5-2.2l-5.9,0.7c0,0-0.6,0.4-0.5-1.7c0-2.1,0.6-2.5,0.6-2.5l5.8-0.7c0,0,0.4,0.5,0.4-1.8
						c0-2.4-0.5-2.6-0.5-2.6l-5.8,0.7c0,0-0.7,0.1-0.6-2.1c0-2.2,0.7-2.5,0.7-2.5l5.8-0.7c0,0,0.5,0.3,0.5-1.8
						c0-2.1-0.5-2.3-0.5-2.3l-5.8,0.7c0,0-0.6,0.1-0.6-2c0-2.1,0.6-2.3,0.6-2.3l5.9-0.7l0.4-0.5"/>
					<line opacity="0.5" fill="none" stroke="#000000" stroke-width="0.3709" x1="407.8" y1="752.7" x2="414.6" y2="747.9"/>
					<line opacity="0.5" fill="none" stroke="#000000" stroke-width="0.3709" x1="407.9" y1="748.8" x2="414.6" y2="743.9"/>
					<line opacity="0.5" fill="none" stroke="#000000" stroke-width="0.3709" x1="407.9" y1="743.7" x2="414.6" y2="738.9"/>
					<line opacity="0.5" fill="none" stroke="#000000" stroke-width="0.3709" x1="407.9" y1="739.4" x2="414.7" y2="734.6"/>
					<line opacity="0.5" fill="none" stroke="#000000" stroke-width="0.3709" x1="408" y1="735.7" x2="414.7" y2="730.8"/>
					<line opacity="0.5" fill="none" stroke="#000000" stroke-width="0.3709" x1="408" y1="731.4" x2="414.7" y2="726.5"/>
					<line opacity="0.5" fill="none" stroke="#000000" stroke-width="0.3709" x1="408" y1="726.9" x2="414.7" y2="722"/>
					<line opacity="0.5" fill="none" stroke="#000000" stroke-width="0.3709" x1="408.1" y1="722" x2="414.8" y2="717.1"/>
					<line opacity="0.5" fill="none" stroke="#000000" stroke-width="0.3709" x1="408.1" y1="717.5" x2="414.8" y2="712.7"/>
					<line opacity="0.5" fill="none" stroke="#000000" stroke-width="0.3709" x1="408.1" y1="713.2" x2="414.8" y2="708.4"/>
					<line opacity="0.5" fill="none" stroke="#000000" stroke-width="0.3709" x1="408.1" y1="708.9" x2="414.9" y2="704.1"/>
					<line opacity="0.5" fill="none" stroke="#000000" stroke-width="0.3709" x1="408.2" y1="704" x2="414.9" y2="699.2"/>
					<line opacity="0.5" fill="none" stroke="#000000" stroke-width="0.3709" x1="408.2" y1="699.4" x2="414.9" y2="694.6"/>
				</g>
				<g>
					<line opacity="0.5" fill="none" stroke="#000000" stroke-width="0.3709" x1="408.8" y1="693.1" x2="409.2" y2="631.6"/>
					<line opacity="0.5" fill="none" stroke="#000000" stroke-width="0.3709" x1="414.8" y1="692.3" x2="415.3" y2="630.8"/>
					<line opacity="0.5" fill="none" stroke="#000000" stroke-width="0.3709" x1="410.8" y1="692.9" x2="411.2" y2="631.3"/>
					<line opacity="0.5" fill="none" stroke="#000000" stroke-width="0.3709" x1="412.8" y1="692.6" x2="413.2" y2="631.1"/>
					<path opacity="0.5" fill="none" stroke="#000000" stroke-width="0.3709" d="M408.7,631.3c0,1.9,0.6,2,0.6,2l6-0.8
						c0,0,0.4-0.9,0.4,1.4c0,2.4-0.5,2.9-0.5,2.9l-6,0.8c0,0-0.4-0.1-0.4,2c0,2.1,0.5,2.3,0.5,2.3l5.9-0.8c0,0,0.4,0.1,0.4,2.2
						c0,2.1-0.5,2.3-0.5,2.3l-6,0.8c0,0-0.4,0.4-0.4,2.1c0,1.8,0.4,2.3,0.4,2.3l6.1-0.8c0,0,0.4-0.1,0.4,2c0,2.2-0.4,2.6-0.4,2.6
						l-6.1,0.8c0,0-0.5-0.1-0.5,2.3c0,2.4,0.5,2.3,0.5,2.3l6-0.8c0,0,0.4-0.1,0.4,2c0,2.1-0.4,2.7-0.4,2.7l-6,0.8
						c0,0-0.5,0.4-0.5,2.4c0,2.1,0.5,2.2,0.5,2.2l5.9-0.8c0,0,0.6-0.4,0.5,1.7c0,2.1-0.6,2.5-0.6,2.5l-5.8,0.7c0,0-0.4-0.5-0.4,1.8
						c0,2.4,0.5,2.6,0.5,2.6l5.8-0.8c0,0,0.6-0.1,0.6,2.2c0,2.2-0.7,2.5-0.7,2.5l-5.8,0.7c0,0-0.5-0.3-0.5,1.8
						c0,2.1,0.5,2.3,0.5,2.3l5.8-0.8c0,0,0.6-0.1,0.6,2c0,2.1-0.6,2.3-0.6,2.3l-5.9,0.8l-0.4,0.5"/>
					<path opacity="0.5" fill="none" stroke="#000000" stroke-width="0.3709" d="M415.2,692.1c0-1.9-0.5-2-0.5-2l-6,0.8
						c0,0-0.4,0.9-0.4-1.4c0-2.4,0.5-2.9,0.5-2.9l6-0.8c0,0,0.4,0.1,0.4-2c0-2.1-0.5-2.3-0.5-2.3l-5.9,0.8c0,0-0.4-0.1-0.4-2.2
						c0-2.1,0.5-2.3,0.5-2.3l6-0.8c0,0,0.4-0.3,0.4-2.1c0-1.8-0.4-2.3-0.4-2.3l-6.1,0.8c0,0-0.4,0.1-0.4-2c0-2.2,0.4-2.6,0.4-2.6
						l6.1-0.8c0,0,0.5,0.1,0.5-2.3c0-2.4-0.5-2.3-0.5-2.3l-6,0.8c0,0-0.4,0-0.4-2c0-2.1,0.5-2.7,0.5-2.7l6-0.8c0,0,0.5-0.4,0.5-2.4
						c0-2.1-0.5-2.2-0.5-2.2l-5.9,0.8c0,0-0.6,0.4-0.5-1.7c0-2.1,0.6-2.5,0.6-2.5l5.8-0.8c0,0,0.4,0.5,0.4-1.8
						c0-2.4-0.5-2.6-0.5-2.6l-5.8,0.7c0,0-0.7,0.1-0.6-2.1c0-2.2,0.7-2.5,0.7-2.5l5.8-0.8c0,0,0.5,0.3,0.5-1.8
						c0-2.1-0.5-2.3-0.5-2.3l-5.8,0.7c0,0-0.6,0.1-0.6-2c0-2.1,0.6-2.3,0.6-2.3l5.9-0.8l0.4-0.5"/>
					<line opacity="0.5" fill="none" stroke="#000000" stroke-width="0.3709" x1="408.3" y1="690.9" x2="415" y2="686"/>
					<line opacity="0.5" fill="none" stroke="#000000" stroke-width="0.3709" x1="408.3" y1="686.9" x2="415" y2="682"/>
					<line opacity="0.5" fill="none" stroke="#000000" stroke-width="0.3709" x1="408.3" y1="681.9" x2="415.1" y2="677"/>
					<line opacity="0.5" fill="none" stroke="#000000" stroke-width="0.3709" x1="408.4" y1="677.6" x2="415.1" y2="672.7"/>
					<line opacity="0.5" fill="none" stroke="#000000" stroke-width="0.3709" x1="408.4" y1="673.8" x2="415.1" y2="668.9"/>
					<line opacity="0.5" fill="none" stroke="#000000" stroke-width="0.3709" x1="408.4" y1="669.5" x2="415.2" y2="664.6"/>
					<line opacity="0.5" fill="none" stroke="#000000" stroke-width="0.3709" x1="408.5" y1="665" x2="415.2" y2="660.2"/>
					<line opacity="0.5" fill="none" stroke="#000000" stroke-width="0.3709" x1="408.5" y1="660.1" x2="415.2" y2="655.3"/>
					<line opacity="0.5" fill="none" stroke="#000000" stroke-width="0.3709" x1="408.5" y1="655.7" x2="415.3" y2="650.8"/>
					<line opacity="0.5" fill="none" stroke="#000000" stroke-width="0.3709" x1="408.6" y1="651.4" x2="415.3" y2="646.5"/>
					<line opacity="0.5" fill="none" stroke="#000000" stroke-width="0.3709" x1="408.6" y1="647.1" x2="415.3" y2="642.2"/>
					<line opacity="0.5" fill="none" stroke="#000000" stroke-width="0.3709" x1="408.6" y1="642.2" x2="415.3" y2="637.3"/>
					<line opacity="0.5" fill="none" stroke="#000000" stroke-width="0.3709" x1="408.6" y1="637.6" x2="415.4" y2="632.7"/>
				</g>
				<g>
					<line opacity="0.5" fill="none" stroke="#000000" stroke-width="0.3709" x1="409.2" y1="631.3" x2="409.6" y2="569.8"/>
					<line opacity="0.5" fill="none" stroke="#000000" stroke-width="0.3709" x1="415.3" y1="630.5" x2="415.7" y2="568.9"/>
					<line opacity="0.5" fill="none" stroke="#000000" stroke-width="0.3709" x1="411.2" y1="631" x2="411.7" y2="569.5"/>
					<line opacity="0.5" fill="none" stroke="#000000" stroke-width="0.3709" x1="413.3" y1="630.7" x2="413.7" y2="569.2"/>
					<path opacity="0.5" fill="none" stroke="#000000" stroke-width="0.3709" d="M409.1,569.5c0,1.9,0.5,2,0.5,2l6-0.8
						c0,0,0.4-0.9,0.4,1.4c0,2.4-0.5,2.9-0.5,2.9l-6,0.8c0,0-0.4-0.1-0.5,2c0,2.1,0.5,2.3,0.5,2.3l5.9-0.8c0,0,0.4,0.1,0.4,2.2
						c0,2.1-0.5,2.3-0.5,2.3l-6,0.8c0,0-0.4,0.4-0.4,2.1c0,1.8,0.4,2.3,0.4,2.3l6.1-0.8c0,0,0.4,0,0.4,2c0,2.2-0.4,2.6-0.4,2.6
						l-6.1,0.8c0,0-0.5-0.1-0.5,2.3c0,2.4,0.5,2.3,0.5,2.3l6-0.8c0,0,0.4-0.1,0.4,2c0,2.1-0.5,2.7-0.5,2.7l-6,0.8
						c0,0-0.5,0.4-0.5,2.4c0,2.1,0.5,2.2,0.5,2.2l5.9-0.8c0,0,0.6-0.4,0.6,1.7c0,2.1-0.6,2.5-0.6,2.5l-5.8,0.8c0,0-0.4-0.5-0.4,1.8
						c0,2.4,0.5,2.6,0.5,2.6l5.8-0.8c0,0,0.7-0.1,0.6,2.2c0,2.2-0.7,2.5-0.7,2.5l-5.8,0.8c0,0-0.5-0.3-0.5,1.8
						c0,2.1,0.5,2.3,0.5,2.3l5.8-0.8c0,0,0.6-0.1,0.6,2c0,2.1-0.6,2.3-0.6,2.3l-5.9,0.8l-0.4,0.5"/>
					<path opacity="0.5" fill="none" stroke="#000000" stroke-width="0.3709" d="M415.7,630.2c0-1.9-0.5-2-0.5-2l-6,0.8
						c0,0-0.4,0.9-0.4-1.4c0-2.4,0.5-2.9,0.5-2.9l6-0.8c0,0,0.4,0.1,0.4-2c0-2.1-0.5-2.3-0.5-2.3l-5.9,0.8c0,0-0.4-0.1-0.4-2.2
						c0-2.1,0.5-2.3,0.5-2.3l6-0.8c0,0,0.4-0.3,0.4-2.1c0-1.8-0.4-2.3-0.4-2.3l-6.1,0.8c0,0-0.4,0-0.4-2c0-2.2,0.4-2.6,0.4-2.6
						l6.1-0.8c0,0,0.5,0.1,0.5-2.3c0-2.4-0.5-2.3-0.5-2.3l-6,0.8c0,0-0.4,0.1-0.4-2c0-2.1,0.5-2.7,0.5-2.7l6-0.8
						c0,0,0.5-0.4,0.5-2.4c0-2.1-0.5-2.2-0.5-2.2l-5.9,0.8c0,0-0.6,0.4-0.5-1.7c0-2.1,0.6-2.4,0.6-2.4l5.8-0.8c0,0,0.4,0.5,0.4-1.8
						c0-2.4-0.5-2.6-0.5-2.6l-5.8,0.8c0,0-0.6,0.1-0.6-2.1c0-2.2,0.7-2.5,0.7-2.5l5.8-0.7c0,0,0.5,0.3,0.5-1.8
						c0-2.1-0.5-2.3-0.5-2.3l-5.8,0.8c0,0-0.6,0.1-0.6-2c0-2.1,0.6-2.3,0.6-2.3l5.9-0.8l0.4-0.5"/>
					<line opacity="0.5" fill="none" stroke="#000000" stroke-width="0.3709" x1="408.7" y1="629" x2="415.4" y2="624.2"/>
					<line opacity="0.5" fill="none" stroke="#000000" stroke-width="0.3709" x1="408.7" y1="625.1" x2="415.5" y2="620.2"/>
					<line opacity="0.5" fill="none" stroke="#000000" stroke-width="0.3709" x1="408.8" y1="620" x2="415.5" y2="615.2"/>
					<line opacity="0.5" fill="none" stroke="#000000" stroke-width="0.3709" x1="408.8" y1="615.7" x2="415.5" y2="610.8"/>
					<line opacity="0.5" fill="none" stroke="#000000" stroke-width="0.3709" x1="408.8" y1="612" x2="415.6" y2="607.1"/>
					<line opacity="0.5" fill="none" stroke="#000000" stroke-width="0.3709" x1="408.9" y1="607.7" x2="415.6" y2="602.8"/>
					<line opacity="0.5" fill="none" stroke="#000000" stroke-width="0.3709" x1="408.9" y1="603.2" x2="415.6" y2="598.3"/>
					<line opacity="0.5" fill="none" stroke="#000000" stroke-width="0.3709" x1="408.9" y1="598.3" x2="415.6" y2="593.4"/>
					<line opacity="0.5" fill="none" stroke="#000000" stroke-width="0.3709" x1="408.9" y1="593.8" x2="415.7" y2="589"/>
					<line opacity="0.5" fill="none" stroke="#000000" stroke-width="0.3709" x1="409" y1="589.5" x2="415.7" y2="584.7"/>
					<line opacity="0.5" fill="none" stroke="#000000" stroke-width="0.3709" x1="409" y1="585.2" x2="415.7" y2="580.3"/>
					<line opacity="0.5" fill="none" stroke="#000000" stroke-width="0.3709" x1="409" y1="580.3" x2="415.8" y2="575.4"/>
					<line opacity="0.5" fill="none" stroke="#000000" stroke-width="0.3709" x1="409.1" y1="575.7" x2="415.8" y2="570.8"/>
				</g>
				<g>
					<line opacity="0.5" fill="none" stroke="#000000" stroke-width="0.3709" x1="409.6" y1="569.4" x2="410.1" y2="507.9"/>
					<line opacity="0.5" fill="none" stroke="#000000" stroke-width="0.3709" x1="415.7" y1="568.6" x2="416.1" y2="507.1"/>
					<line opacity="0.5" fill="none" stroke="#000000" stroke-width="0.3709" x1="411.7" y1="569.1" x2="412.1" y2="507.6"/>
					<line opacity="0.5" fill="none" stroke="#000000" stroke-width="0.3709" x1="413.7" y1="568.9" x2="414.1" y2="507.4"/>
					<path opacity="0.5" fill="none" stroke="#000000" stroke-width="0.3709" d="M409.5,507.7c0,1.9,0.5,2,0.5,2l6-0.8
						c0,0,0.4-0.9,0.4,1.4c0,2.4-0.5,2.9-0.5,2.9l-6,0.8c0,0-0.4-0.1-0.4,2c0,2.1,0.5,2.3,0.5,2.3l5.9-0.8c0,0,0.4,0.1,0.4,2.2
						c0,2.1-0.5,2.3-0.5,2.3l-6,0.8c0,0-0.4,0.3-0.4,2.1c0,1.8,0.4,2.3,0.4,2.3l6.1-0.8c0,0,0.4-0.1,0.4,2c0,2.2-0.4,2.6-0.4,2.6
						l-6.1,0.8c0,0-0.5-0.1-0.5,2.3c0,2.4,0.5,2.3,0.5,2.3l6-0.8c0,0,0.4,0,0.4,2c0,2.1-0.5,2.7-0.5,2.7l-6,0.8c0,0-0.5,0.4-0.5,2.4
						c0,2.1,0.5,2.2,0.5,2.2l5.9-0.8c0,0,0.6-0.4,0.6,1.7c0,2.1-0.6,2.5-0.6,2.5l-5.8,0.8c0,0-0.4-0.5-0.4,1.8
						c0,2.4,0.5,2.6,0.5,2.6l5.8-0.8c0,0,0.7-0.1,0.6,2.1c0,2.2-0.7,2.5-0.7,2.5l-5.8,0.8c0,0-0.5-0.3-0.5,1.8
						c0,2.1,0.5,2.3,0.5,2.3l5.8-0.8c0,0,0.6-0.1,0.6,2c0,2.1-0.6,2.3-0.6,2.3l-5.9,0.8l-0.4,0.5"/>
					<path opacity="0.5" fill="none" stroke="#000000" stroke-width="0.3709" d="M416.1,568.4c0-1.9-0.5-2-0.5-2l-6,0.8
						c0,0-0.4,0.9-0.4-1.4c0-2.4,0.5-2.9,0.5-2.9l6-0.8c0,0,0.4,0.1,0.4-2c0-2.1-0.5-2.3-0.5-2.3l-5.9,0.8c0,0-0.4-0.1-0.4-2.2
						c0-2.1,0.5-2.3,0.5-2.3l6-0.8c0,0,0.4-0.4,0.4-2.1c0-1.8-0.4-2.3-0.4-2.3l-6.1,0.8c0,0-0.4,0.1-0.4-2c0-2.2,0.4-2.6,0.4-2.6
						l6.1-0.8c0,0,0.5,0.1,0.5-2.3c0-2.4-0.6-2.3-0.6-2.3l-6,0.8c0,0-0.4,0.1-0.4-2c0-2.1,0.5-2.7,0.5-2.7l6-0.8
						c0,0,0.5-0.4,0.5-2.4c0-2.1-0.5-2.2-0.5-2.2l-5.9,0.8c0,0-0.6,0.4-0.5-1.7c0-2.1,0.6-2.5,0.6-2.5l5.8-0.8c0,0,0.4,0.5,0.4-1.8
						c0-2.4-0.5-2.6-0.5-2.6l-5.8,0.8c0,0-0.7,0.1-0.6-2.1c0-2.2,0.7-2.5,0.7-2.5l5.8-0.8c0,0,0.5,0.3,0.5-1.8
						c0-2.1-0.5-2.3-0.5-2.3l-5.8,0.8c0,0-0.6,0.1-0.6-2c0-2.1,0.6-2.3,0.6-2.3l5.9-0.8l0.4-0.5"/>
					<line opacity="0.5" fill="none" stroke="#000000" stroke-width="0.3709" x1="409.1" y1="567.2" x2="415.9" y2="562.3"/>
					<line opacity="0.5" fill="none" stroke="#000000" stroke-width="0.3709" x1="409.2" y1="563.2" x2="415.9" y2="558.3"/>
					<line opacity="0.5" fill="none" stroke="#000000" stroke-width="0.3709" x1="409.2" y1="558.2" x2="415.9" y2="553.3"/>
					<line opacity="0.5" fill="none" stroke="#000000" stroke-width="0.3709" x1="409.2" y1="553.9" x2="415.9" y2="549"/>
					<line opacity="0.5" fill="none" stroke="#000000" stroke-width="0.3709" x1="409.2" y1="550.1" x2="416" y2="545.2"/>
					<line opacity="0.5" fill="none" stroke="#000000" stroke-width="0.3709" x1="409.3" y1="545.8" x2="416" y2="540.9"/>
					<line opacity="0.5" fill="none" stroke="#000000" stroke-width="0.3709" x1="409.3" y1="541.4" x2="416" y2="536.5"/>
					<line opacity="0.5" fill="none" stroke="#000000" stroke-width="0.3709" x1="409.3" y1="536.5" x2="416.1" y2="531.6"/>
					<line opacity="0.5" fill="none" stroke="#000000" stroke-width="0.3709" x1="409.4" y1="532" x2="416.1" y2="527.1"/>
					<line opacity="0.5" fill="none" stroke="#000000" stroke-width="0.3709" x1="409.4" y1="527.7" x2="416.1" y2="522.8"/>
					<line opacity="0.5" fill="none" stroke="#000000" stroke-width="0.3709" x1="409.4" y1="523.4" x2="416.2" y2="518.5"/>
					<line opacity="0.5" fill="none" stroke="#000000" stroke-width="0.3709" x1="409.5" y1="518.5" x2="416.2" y2="513.6"/>
					<line opacity="0.5" fill="none" stroke="#000000" stroke-width="0.3709" x1="409.5" y1="513.9" x2="416.2" y2="509"/>
				</g>
				<g>
					<path opacity="0.5" fill="none" stroke="#000000" stroke-width="0.3709" d="M410.1,507.6"/>
					<path opacity="0.5" fill="none" stroke="#000000" stroke-width="0.3709" d="M416.1,506.8"/>
					<path opacity="0.5" fill="none" stroke="#000000" stroke-width="0.3709" d="M412.1,507.3"/>
					<path opacity="0.5" fill="none" stroke="#000000" stroke-width="0.3709" d="M414.1,507"/>
					<path opacity="0.5" fill="none" stroke="#000000" stroke-width="0.3709" d="M409.7,481.7c0,2.1,0.5,2.2,0.5,2.2l5.9-0.8
						c0,0,0.6-0.4,0.5,1.7c0,2.1-0.6,2.4-0.6,2.4l-5.8,0.8c0,0-0.4-0.5-0.4,1.8c0,2.4,0.5,2.6,0.5,2.6l5.8-0.8c0,0,0.6-0.1,0.6,2.1
						c0,2.2-0.7,2.5-0.7,2.5l-5.8,0.8c0,0-0.5-0.3-0.5,1.8c0,2.1,0.5,2.3,0.5,2.3l5.8-0.8c0,0,0.6-0.1,0.6,2c0,2.1-0.6,2.3-0.6,2.3
						l-5.9,0.8l-0.4,0.5"/>
					<path opacity="0.5" fill="none" stroke="#000000" stroke-width="0.3709" d="M416.5,506.5c0-1.9-0.5-2-0.5-2l-6,0.8
						c0,0-0.4,0.9-0.4-1.4c0-2.4,0.5-2.9,0.5-2.9l6-0.8c0,0,0.4,0.1,0.4-2c0-2.1-0.5-2.3-0.5-2.3l-5.9,0.8c0,0-0.4-0.1-0.4-2.2
						c0-2.1,0.5-2.3,0.5-2.3l6-0.8c0,0,0.4-0.3,0.4-2.1c0-1.8-0.4-2.3-0.4-2.3l-6.1,0.8c0,0-0.4,0.1-0.4-2c0-2.2,0.4-2.6,0.4-2.6
						l6.1-0.8"/>
					<line opacity="0.5" fill="none" stroke="#000000" stroke-width="0.3709" x1="409.5" y1="505.4" x2="416.3" y2="500.4"/>
					<line opacity="0.5" fill="none" stroke="#000000" stroke-width="0.3709" x1="409.6" y1="501.4" x2="416.3" y2="496.5"/>
					<line opacity="0.5" fill="none" stroke="#000000" stroke-width="0.3709" x1="409.6" y1="496.3" x2="416.3" y2="491.4"/>
					<line opacity="0.5" fill="none" stroke="#000000" stroke-width="0.3709" x1="409.6" y1="492" x2="416.4" y2="487.1"/>
					<line opacity="0.5" fill="none" stroke="#000000" stroke-width="0.3709" x1="409.7" y1="488.3" x2="416.4" y2="483.4"/>
					<path opacity="0.5" fill="none" stroke="#000000" stroke-width="0.3709" d="M409.7,484"/>
				</g>
			</g>
			<g>
				
					<path opacity="0.35" fill="none" stroke="#000000" stroke-width="1.1447" stroke-miterlimit="10" stroke-dasharray="0.9833,0.9837" d="
					M339.4,443.2c0,0,45.6,5.8,76.2,4.9s80.8-9.3,80.8-9.3"/>
				
					<path opacity="0.35" fill="none" stroke="#000000" stroke-width="1.1447" stroke-miterlimit="10" stroke-dasharray="0.9833,0.9837" d="
					M340,447.7c0,0,45.6,5.8,76.2,4.9s80.8-9.3,80.8-9.3"/>
			</g>
		</g>
	</g>
</g>
<g id="SHADING">
	<g opacity="2.000000e-02">
		<path d="M499,339.4c0.1,2.4,0.2,3.8,0.2,3.8S499.2,341.7,499,339.4 M464.5,268.3c0,0,18.5,21.9,26.3,36.4
			c5.9,11,7.7,27.3,8.2,34.6c-0.6-9.9-2.5-36.7-6.5-48.7C487.4,275.8,464.5,268.3,464.5,268.3"/>
		<path d="M458.4,291.4c0,0,11,4.7,23.9,16.4c12.9,11.7,14.2,23.4,14.2,23.4L458.4,291.4"/>
		<path d="M427.9,347.7c0,0,13.1,9.7,25.4,21.4c12.2,11.6,40.2,57.1,40.2,57.1s-30.3-31.5-36.6-41.7
			C450.6,374.2,427.9,347.7,427.9,347.7"/>
		<path d="M408.6,378.7c0,0,10.5,9.4,16.5,15.6c6.1,6.2,26.9,19.5,26.9,19.5s-20.6-4.5-28.6-10.9
			C415.4,396.5,408.6,378.7,408.6,378.7"/>
		<path d="M460.4,641.4l21.8,75.7c0,0-17.8-25.2-20.6-40.1C458.7,662,460.4,641.4,460.4,641.4"/>
		<path d="M451.2,670.6c0,0-1.1,8,1.7,18.3c2.9,10.3,17.2,24.7,17.2,24.7s-18.9-13.2-21.8-17.2C445.5,692.4,451.2,670.6,451.2,670.6
			"/>
	</g>
	<g>
	</g>
</g>
</svg>
