<?xml version="1.0" encoding="utf-8"?>
<!-- Generator: Adobe Illustrator 27.1.1, SVG Export Plug-In . SVG Version: 6.00 Build 0)  -->
<svg version="1.1" xmlns="http://www.w3.org/2000/svg" xmlns:xlink="http://www.w3.org/1999/xlink" x="0px" y="0px"
	 viewBox="0 0 755.6 1028.2" enable-background="new 0 0 770.6 1028.2" xml:space="preserve">

<g id="OUTLINE">
	<path fill="none" stroke="#897F76" stroke-width="1.3804" stroke-miterlimit="10" d="M665.1,524.3c0,0-0.9-12-0.9-15.6
		c0-3.7,3.7-82.8-12.9-112.3c-16.6-29.5-50.6-58-54.3-58.9c-0.3-0.1-0.9-0.3-1.9-0.6c-10.2-3.6-55.6-21.4-69.9-30.7
		c-15.6-10.1-35.9-25.8-41.4-30.4c-4.8-4-9.5-12-13.7-15.4c-0.7-0.5-1.3-1-2-1.2c-4.6-1.8-11-5.5-11-5.5l-6.4-12
		c0,0-26.7-10.1-48.8-10.1c-5.1,0-29,0-34.1,0c-22.1,0-48.8,10.1-48.8,10.1l-6.4,12c0,0-6.4,3.7-11,5.5c-1,0.4-2.1,1.3-3.3,2.4
		c-3.8,3.8-8.1,10.6-12.4,14.2c-5.5,4.6-25.8,20.2-41.4,30.4s-68.1,30.4-71.8,31.3c-0.5,0.1-1.4,0.7-2.7,1.6
		c-9.2,6.4-37.1,31.5-51.6,57.3c-16.6,29.5-12.9,108.6-12.9,112.3c0,3.7-0.9,15.6-0.9,15.6l-2.8,5.5c0,0,31.3,8.3,58,8.3
		c26.7,0,41.4-4.6,41.4-4.6l-0.9-24.9c0,0,0.8,1.5,1.8,3.8c2,4.4,4.9,12,5.5,19.2c0.9,11,2.8,51.5,10.1,66.3s21.2,102.2,23,110.4
		c1.8,8.3-10.2,69.8-10.2,69.8c72.3,60.1,270,27,308.9,2.2c1.3-0.8-12.5-63.7-10.7-72c1.8-8.3,15.6-95.7,23-110.4
		s9.2-55.2,10.1-66.3c0.6-7.6,3.9-15.7,5.9-20c0.9-1.9,1.5-3,1.5-3l-0.9,24.9c0,0,14.7,4.6,41.4,4.6s58-8.3,58-8.3L665.1,524.3z"/>
</g>
<g id="BACKTMASK">
<g id="LOWER_BODY">
	<path fill="#FFFFFF" d="M595.1,336.9c-10.2-3.6-55.6-21.4-69.9-30.7c-15.6-10.1-35.9-25.8-41.4-30.4c-4.8-4-9.5-12-13.7-15.4
		c-19.5-2.5-58.7-7.1-82.2-7.4c-25.1-0.4-70.6,5.8-89.6,8.6c-3.8,3.8-8.1,10.6-12.4,14.2c-5.5,4.6-25.8,20.2-41.4,30.4
		c-15.6,10.1-68.1,30.4-71.8,31.3c-0.5,0.1-1.4,0.7-2.7,1.6c1.4,27.9,14.1,77,18.3,100.6c4.6,25.8,13.8,45.1,13.8,56.1
		c0,3.3,0,9.6,0,16.7c2,4.4,4.9,12,5.5,19.2c0.9,11,2.8,51.5,10.1,66.3s21.2,102.2,23,110.4c1.8,8.3-10.2,69.8-10.2,69.8
		c72.3,60.1,270,27,308.9,2.2c1.3-0.8-12.5-63.7-10.7-72c1.8-8.3,15.6-95.7,23-110.4s9.2-55.2,10.1-66.3c0.6-7.6,3.9-15.7,5.9-20
		c1.1-7,2.3-14.9,3.3-22.4c2.8-19.3,13.8-98.5,20.2-117.8C595.3,360,595.6,346.1,595.1,336.9z"/>
</g>
<g id="FAUX_SIDE_PANELS">
	<g>
		<path d="M258.9,610.6c-1.3-2.5-2.4-5.8-3.4-9.4L209.4,556c0.9,9.5,2.2,19.9,4,28.6l53,52C263.7,624.5,261,614.9,258.9,610.6z"/>
		<path d="M285.6,738.5c-0.9-3.9-4-22.6-7.9-44.8l-47.3-43.1c4.5,53.6,1.9,79.9,2.9,84.3c1.3,5.8,0.9,24.3-2.5,43.3
			c0,0,12.5,13.5,45.5,22.9C279.5,782.1,286.7,743.6,285.6,738.5z"/>
		<path d="M269.5,651.1l-50.2-48.9c2.3,6.9,5.1,18.9,7.8,32.4l48.2,46.8C273.5,671.3,271.5,660.9,269.5,651.1z"/>
		<path d="M247.2,533.8c-0.7-8.3-4.1-17.1-6.4-22.2c0-8.2,0-15.5,0-19.3c0-12.8-10.7-35.2-16-65c-0.9-4.9-2.1-10.8-3.4-17.3
			l-31.4-16c1,5.2-2.6,21.3-4.7,31c1.6,21.6,16.8,61.4,16.8,71c0,3.3,0,9.6,0,16.7c2,4.4,4.9,12,5.5,19.2c0.2,2.7,0.5,7.1,0.9,12.4
			l43.8,41.1C249.1,565.6,247.9,542.3,247.2,533.8z"/>
		<path d="M509.9,615.9c1.3-2.5,2.4-5.8,3.4-9.4l46.1-45.2c-0.9,9.5-2.2,19.9-4,28.6l-53,52C505.1,629.8,507.7,620.2,509.9,615.9z"
			/>
		<path d="M485,737c0.9-3.9,4-22.6,7.9-44.8l47.3-43.1c-5,26.5-9.4,53.5-10.4,58c-1.3,5.8,6.8,54.1,10.3,73
			c-8.5,6.7-43,17.2-47.2,17.4C489.4,778.4,483.8,742.1,485,737z"/>
		<path d="M498.7,654.8l50.2-48.9c-2.3,6.9-5.1,18.9-7.8,32.4l-48.2,46.8C494.7,675,496.7,664.5,498.7,654.8z"/>
		<path d="M516.6,591.5l43.8-41.1c0.4-5.3,0.7-9.7,0.9-12.4c0.6-7.2,3.5-14.8,5.5-19.2c0-7.1,2.6-17.2,2.6-20.5
			c0-9.5,12.5-45.5,14.1-67.1c-2-9.6-5.6-25.8-4.7-31l-31.4,16c-1.4,6.5-2.6,12.4-3.4,17.3c-5.3,29.8-16,52.2-16,65
			c0,3.9,0,11.1,0,19.3c-2.3,5.1-5.7,13.9-6.4,22.2C520.9,548.5,519.7,571.8,516.6,591.5z"/>
	</g>
</g>
<g id="UPPER_BACK_FAUX_PANEL">
	<path fill="#897F76" d="M595.1,336.9c-10.2-3.6-55.6-21.4-69.9-30.7c-15.6-10.1-35.9-25.8-41.4-30.4c-4.8-4-9.5-12-13.7-15.4
		c-19.5-2.5-58.7-7.1-82.2-7.4c-25.1-0.4-70.6,5.8-89.6,8.6c-3.8,3.8-8.1,10.6-12.4,14.2c-5.5,4.6-25.8,20.2-41.4,30.4
		c-15.6,10.1-68.1,30.4-71.8,31.3c-0.5,0.1-1.4,0.7-2.7,1.6c1.3,25.4,11.9,68.4,17,93.7c55.8,18.3,121.7,29,192.5,29
		c74.2,0,143.1-11.7,200.5-31.7c3.9-24.5,8.2-48.8,11.4-58.4C595.3,360,595.6,346.1,595.1,336.9z"/>
</g>
</g>
<g id="CUSTOM"></g>
<g id="BACK_STRIPE_SET2">
	<g>
		<g>
			<path d="M400.4,253.5c-0.2,0-0.5,0-0.7,0c-2.1-0.1-4.2-0.2-6.1-0.3c0,0,0,0,0,0v208.3c4.6-0.1,9.2-0.2,13.7-0.4l-0.4-207.2
				C404.7,253.8,402.5,253.6,400.4,253.5z"/>
		</g>
		<path d="M383.2,253C383.2,253,383.2,253,383.2,253c-3.7,0.1-7.8,0.2-12.1,0.5v208.1c2.8,0,5.6,0.1,8.4,0.1c1.6,0,3.3,0,4.9,0
			V253.1C384,253.1,383.6,253.1,383.2,253z"/>
	</g>
</g>
<g id="BACK_STRIPE_SET1">
	<g>
		<path fill="#FFFFFF" d="M355.4,254.7C355.4,254.7,355.4,254.7,355.4,254.7c-2.2,0.2-4.5,0.4-6.7,0.6V461c4.4,0.2,8.8,0.3,13.3,0.5
			V254.1C359.8,254.3,357.6,254.5,355.4,254.7z"/>
		<path fill="#FFFFFF" d="M429.3,255.8c-4.4-0.4-8.9-0.8-13.3-1.2c0,0,0,0,0,0v206.1c4.5-0.2,8.9-0.5,13.3-0.8L429.3,255.8
			C429.3,255.8,429.3,255.8,429.3,255.8z"/>
	</g>
</g>
<g id="SLEEVES">
	<g>
		<path fill="#64615E" d="M188.4,439.6C184.1,416,171.4,366.9,170,339c-9.2,6.4-37.1,31.5-51.6,57.3
			c-16.6,29.5-12.9,108.6-12.9,112.3c0,3.7-0.9,15.6-0.9,15.6l-2.8,5.5c0,0,31.3,8.3,58,8.3c26.7,0,41.4-4.6,41.4-4.6l-0.9-24.9
			c0,0,0.8,1.5,1.8,3.8c0-7.1,0-13.4,0-16.7C202.2,484.7,193,465.4,188.4,439.6z"/>
		<path fill="#64615E" d="M665.1,524.3c0,0-0.9-12-0.9-15.6c0-3.7,3.7-82.8-12.9-112.3c-16.6-29.5-50.6-58-54.3-58.9
			c-0.3-0.1-0.9-0.3-1.9-0.6c0.4,9.3,0.2,23.1-3.6,34.7C585,390.9,574,470,571.2,489.3c-1.1,7.4-2.3,15.4-3.3,22.4
			c0.9-1.9,1.5-3,1.5-3l-0.9,24.9c0,0,14.7,4.6,41.4,4.6s58-8.3,58-8.3L665.1,524.3z"/>
	</g>
</g>
<g id="COLLAR">
	<path d="M387.9,253c23.5,0.3,62.7,5,82.2,7.4c-0.7-0.5-1.3-1-2-1.2c-4.6-1.8-11-5.5-11-5.5l-6.4-12c0,0-26.7-10.1-48.8-10.1
		c-5.1,0-29,0-34.1,0c-22.1,0-48.8,10.1-48.8,10.1l-6.4,12c0,0-6.4,3.7-11,5.5c-1,0.4-2.1,1.3-3.3,2.4
		C317.3,258.8,362.8,252.6,387.9,253z"/>
</g>
<g id="STITCHING">
	<path d="M313.2,253.5l-0.9,0.2l0.2,1.1l0.9-0.1L313.2,253.5 M314.7,253.3l-0.9,0.1l0.2,1.1l0.9-0.1L314.7,253.3 M456.5,253.1
		l-0.2,1.1l0.8,0.1l0.2-1.1L456.5,253.1 M316.2,253.1l-0.9,0.1l0.2,1.1l0.9-0.1L316.2,253.1 M455.1,252.9l-0.2,1.1l0.9,0.1l0.2-1.1
		L455.1,252.9 M317.6,252.9l-0.9,0.1l0.2,1.1l0.9-0.1L317.6,252.9 M453.6,252.7l-0.1,0.5l0,0.5l0.8,0.1l0.2-1.1L453.6,252.7
		l-0.1,0.5L453.6,252.7 M319.1,252.7l-0.9,0.1l0.2,1.1l0.9-0.1L319.1,252.7 M452.1,252.5l-0.1,1.1l0.9,0.1l0.1-1.1L452.1,252.5
		 M320.6,252.4l-0.9,0.1l0.2,1.1l0.9-0.1L320.6,252.4 M450.7,252.3l-0.1,1.1l0.9,0.1l0.1-1.1L450.7,252.3 M322,252.2l-0.9,0.1
		l0.2,1.1l0.9-0.1L322,252.2 M449.2,252.1l-0.1,1.1l0.9,0.1l0.1-1.1L449.2,252.1 M323.5,252l-0.9,0.1l0.1,1.1l0.9-0.1L323.5,252
		 M447.7,251.9l-0.1,1.1l0.9,0.1l0.1-1.1L447.7,251.9 M325,251.8L324,252l0.1,1.1l0.9-0.1L325,251.8 M446.3,251.7l-0.1,1.1l0.9,0.1
		l0.1-1.1L446.3,251.7 M326.4,251.6l-0.9,0.1l0.1,1.1l0.9-0.1L326.4,251.6 M444.8,251.5l-0.1,1.1l0.9,0.1l0.1-1.1L444.8,251.5
		 M327.9,251.4l-0.9,0.1l0.1,1.1l0.9-0.1L327.9,251.4 M443.3,251.3l-0.1,1.1l0.9,0.1l0.1-1.1L443.3,251.3 M329.4,251.2l-0.9,0.1
		l0.1,1.1l0.9-0.1L329.4,251.2 M441.9,251.1l-0.1,1.1l0.9,0.1l0.1-1.1L441.9,251.1 M330.8,251.1l-0.9,0.1l0.1,1.1l0.9-0.1
		L330.8,251.1 M440.4,251l-0.1,1.1l0.9,0.1l0.1-1.1L440.4,251 M332.3,250.9l-0.9,0.1l0.1,1.1l0.9-0.1L332.3,250.9 M438.9,250.8
		l-0.1,1.1l0.9,0.1l0.1-1.1L438.9,250.8 M333.8,250.7l-0.9,0.1l0.1,1.1l0.9-0.1L333.8,250.7 M437.5,250.6l-0.1,1.1l0.9,0.1l0.1-1.1
		L437.5,250.6 M335.2,250.5l-0.9,0.1l0.1,1.1l0.9-0.1L335.2,250.5 M436,250.4l-0.1,1.1l0.9,0.1l0.1-1.1L436,250.4 M336.7,250.3
		l-0.9,0.1l0.1,1.1l0.9-0.1L336.7,250.3 M434.5,250.3l-0.1,1.1l0.9,0.1l0.1-1.1L434.5,250.3 M338.2,250.2l-0.9,0.1l0.1,1.1l0.9-0.1
		L338.2,250.2 M433.1,250.1l-0.1,1.1l0.9,0.1l0.1-1.1L433.1,250.1 M339.6,250l-0.9,0.1l0.1,1.1l0.9-0.1L339.6,250 M431.6,250
		l-0.1,1.1l0.9,0.1l0.1-1.1L431.6,250 M341.1,249.8l-0.9,0.1l0.1,1.1l0.9-0.1L341.1,249.8 M430.1,249.8l-0.1,1.1l0.9,0.1l0.1-1.1
		L430.1,249.8 M342.6,249.7l-0.9,0.1l0.1,1.1l0.9-0.1L342.6,249.7 M428.7,249.7l-0.1,1.1l0.9,0.1l0.1-1.1L428.7,249.7 M344,249.5
		l-0.9,0.1l0.1,1.1l0.9-0.1L344,249.5 M427.2,249.5l-0.1,1.1l0.9,0.1l0.1-1.1L427.2,249.5 M425.7,249.4l-0.1,1.1l0.9,0.1l0.1-1.1
		L425.7,249.4 M345.5,249.4l-0.9,0.1l0.1,1.1l0.9-0.1L345.5,249.4 M424.2,249.2l-0.1,1.1l0.9,0.1l0.1-1.1L424.2,249.2 M347,249.2
		l-0.9,0.1l0.1,1.1l0.9-0.1L347,249.2 M422.8,249.1l-0.1,1.1l0.9,0.1l0.1-1.1L422.8,249.1 M348.4,249.1l-0.9,0.1l0.1,1.1l0.9-0.1
		L348.4,249.1 M421.3,248.9l-0.1,1.1l0.9,0.1l0.1-1.1L421.3,248.9 M349.9,248.9L349,249l0.1,1.1l0.9-0.1L349.9,248.9 M419.8,248.8
		l-0.1,1.1l0.9,0.1l0.1-1.1L419.8,248.8 M351.4,248.8l-0.9,0.1l0.1,1.1l0.9-0.1L351.4,248.8 M418.4,248.7l-0.1,1.1l0.9,0.1l0.1-1.1
		L418.4,248.7 M352.9,248.6l-0.9,0.1l0.1,1.1l0.9-0.1L352.9,248.6 M416.9,248.6l-0.1,1.1l0.9,0.1l0.1-1.1L416.9,248.6 M354.3,248.5
		l-0.9,0.1l0.1,1.1l0.9-0.1L354.3,248.5 M415.4,248.4l-0.1,1.1l0.9,0.1l0.1-1.1L415.4,248.4 M355.8,248.4l-0.9,0.1l0.1,1.1l0.9-0.1
		L355.8,248.4 M413.9,248.3l-0.1,1.1l0.9,0.1l0.1-1.1L413.9,248.3 M357.3,248.3l-0.9,0.1l0.1,1.1l0.9-0.1L357.3,248.3 M412.5,248.2
		l-0.1,1.1l0.9,0.1l0.1-1.1L412.5,248.2 M358.8,248.1l-0.9,0.1l0.1,1.1l0.9-0.1L358.8,248.1 M411,248.1l-0.1,1.1l0.9,0.1l0.1-1.1
		L411,248.1 M360.2,248l-0.9,0.1l0.1,1.1l0.9-0.1L360.2,248 M409.5,248l-0.1,1.1l0.9,0.1l0.1-1.1L409.5,248 M361.7,247.9l-0.9,0.1
		l0.1,1.1l0.9-0.1L361.7,247.9 M408,247.9L408,249l0.9,0.1l0.1-1.1L408,247.9 M363,247.8l-0.8,0.1l0.1,1.1l0.9-0.1L363,247.8
		 M406.6,247.8l-0.1,1.1l0.9,0.1l0.1-1.1L406.6,247.8 M364.5,247.7l-0.8,0.1l0.1,1.1l0.9-0.1L364.5,247.7 M405.1,247.7l-0.1,1.1
		l0.9,0.1l0.1-1.1L405.1,247.7 M366.1,247.6l-0.9,0.1l0.1,1.1l0.9-0.1L366.1,247.6 M403.6,247.6l-0.1,1.1l0.9,0.1l0.1-1.1
		L403.6,247.6 M367.6,247.5l-0.9,0.1l0.1,1.1l0.9-0.1L367.6,247.5 M402.1,247.5l-0.1,1.1l0.9,0.1l0.1-1.1L402.1,247.5 M369.1,247.5
		l-0.9,0.1l0.1,1.1l0.9-0.1L369.1,247.5 M400.7,247.5l-0.1,1.1l0.9,0l0.1-1.1L400.7,247.5 M399.2,247.4l0,1.1l0.9,0l0-1.1
		L399.2,247.4 M370.6,247.4l-0.9,0l0.1,1.1l0.9,0L370.6,247.4 M397.7,247.3l0,1.1l0.9,0l0-1.1L397.7,247.3 M372,247.3l-0.9,0
		l0.1,1.1l0.9,0L372,247.3 M396.2,247.3l0,1.1l0.9,0l0-1.1L396.2,247.3 M373.5,247.3l-0.9,0l0,1.1l0.9,0L373.5,247.3 M394.7,247.2
		l0,1.1l0.9,0l0-1.1L394.7,247.2 M375,247.2l-0.9,0l0,1.1l0.9,0L375,247.2 M393.3,247.2l0,1.1l0.9,0l0-1.1L393.3,247.2 M376.5,247.1
		l-0.9,0l0,1.1l0.9,0L376.5,247.1 M391.8,247.1l0,1.1l0.9,0l0-1.1L391.8,247.1 M377.9,247.1l-0.9,0l0,1.1l0.9,0L377.9,247.1
		 M390.3,247.1l0,0.5l0,0.5l0.9,0l0-1.1L390.3,247.1l0,0.5L390.3,247.1 M379.4,247.1l-0.9,0l0,1.1l0.9,0L379.4,247.1 M388.8,247.1
		l0,1.1l0.9,0l0-1.1L388.8,247.1 M380.9,247l-0.9,0l0,1.1l0.9,0L380.9,247 M387.4,247l0,1.1l0.9,0l0-1.1L387.4,247 M382.4,247
		l-0.9,0l0,0.5l0,0.5l0.9,0L382.4,247 M385.9,247l0,1.1l0.9,0l0-1.1L385.9,247 M383.9,247l-0.9,0l0,1.1l0.9,0L383.9,247 M384.7,247
		l-0.3,0v1.1l0.3,0l0.6,0l0-1.1L384.7,247"/>
	<g opacity="0.4">
		<path fill="#6C6361" d="M154.5,523.9l0,1.1l0.9,0l0-1.1L154.5,523.9 M156.9,523.9l-0.9,0v1.1l0.9,0L156.9,523.9 M158.4,523.9
			l-0.9,0l0,1.1l0.9,0L158.4,523.9 M153,523.9l0,1.1l0.9,0l0-1.1L153,523.9 M159.9,523.9l-0.9,0l0,1.1l0.9,0L159.9,523.9
			 M151.6,523.9l0,1.1l0.9,0l0-1.1L151.6,523.9 M161.3,523.9l-0.9,0l0,1.1l0.9,0L161.3,523.9 M162.8,523.9l-0.9,0l0,1.1l0.9,0
			L162.8,523.9 M150.1,523.9l0,1.1l0.9,0l0-1.1L150.1,523.9 M164.3,523.9l-0.9,0l0,1.1l0.9,0L164.3,523.9 M148.6,523.8l0,1.1l0.9,0
			l0-1.1L148.6,523.8 M165.8,523.8l-0.9,0l0,1.1l0.9,0L165.8,523.8 M167.2,523.8l-0.9,0l0,1.1l0.9,0L167.2,523.8 M147.2,523.8l0,1.1
			l0.9,0l0-1.1L147.2,523.8 M168.7,523.8l-0.9,0l0,1.1l0.9,0L168.7,523.8 M145.7,523.7l0,1.1l0.9,0l0-1.1L145.7,523.7 M170.2,523.7
			l-0.9,0l0,1.1l0.9,0L170.2,523.7 M171.7,523.7l-0.9,0l0,1.1l0.9,0L171.7,523.7 M144.2,523.7l0,1.1l0.9,0l0-1.1L144.2,523.7
			 M173.1,523.6l-0.9,0l0,1.1l0.9,0L173.1,523.6 M142.7,523.6l-0.1,1.1l0.9,0l0.1-1.1L142.7,523.6 M174.6,523.6l-0.9,0l0,1.1l0.9,0
			L174.6,523.6 M141.3,523.5l-0.1,1.1l0.9,0.1l0.1-1.1L141.3,523.5 M176.1,523.5l-0.9,0l0,1.1l0.9,0L176.1,523.5 M177.6,523.4
			l-0.9,0l0,1.1l0.9,0L177.6,523.4 M139.8,523.4l-0.1,1.1l0.9,0.1l0.1-1.1L139.8,523.4 M179,523.4l-0.9,0l0,1.1l0.9,0L179,523.4
			 M138.3,523.3l-0.1,1.1l0.9,0.1l0.1-1.1L138.3,523.3 M180.5,523.3l-0.8,0l-0.1,0.5l0.1,0.5l0.8,0L180.5,523.3 M182,523.2l-0.8,0
			l-0.1,0.5l0.1,0.5l0.8,0L182,523.2 M136.9,523.2l-0.1,1.1l0.9,0.1l0.1-1.1L136.9,523.2 M183.4,523.2l-0.9,0.1l0.1,1.1l0.9-0.1
			L183.4,523.2 M135.4,523.1l-0.1,1.1l0.9,0.1l0.1-1.1L135.4,523.1 M184.9,523.1l-0.9,0.1l0.1,1.1l0.9-0.1L184.9,523.1 M133.9,523
			l-0.1,1.1l0.9,0.1l0.1-1.1L133.9,523 M186.4,523l-0.9,0.1l0.1,1.1l0.9-0.1L186.4,523 M187.9,522.9l-0.9,0.1l0.1,1.1l0.9-0.1
			L187.9,522.9 M132.5,522.9l-0.1,1.1l0.9,0.1l0.1-1.1L132.5,522.9 M189.3,522.8l-0.9,0.1l0.1,1.1l0.9-0.1L189.3,522.8 M131,522.7
			l-0.1,1.1l0.9,0.1l0.1-1.1L131,522.7 M190.8,522.7l-0.9,0.1l0.1,1.1l0.9-0.1L190.8,522.7 M129.5,522.6l-0.1,1.1l0.9,0.1l0.1-1.1
			L129.5,522.6 M192.3,522.6l-0.9,0.1l0.1,1.1l0.9-0.1L192.3,522.6 M193.7,522.5l-0.9,0.1l0.1,1.1l0.9-0.1L193.7,522.5 M128,522.5
			l-0.1,1.1l0.9,0.1l0.1-1.1L128,522.5 M195.2,522.4l-0.9,0.1l0.1,1.1l0.9-0.1L195.2,522.4 M126.6,522.3l-0.1,1.1l0.9,0.1l0.1-1.1
			L126.6,522.3 M196.7,522.2l-0.9,0.1l0.1,1.1l0.9-0.1L196.7,522.2 M125.1,522.1l-0.1,1.1l0.9,0.1l0.1-1.1L125.1,522.1 M198.2,522.1
			l-0.9,0.1l0.1,1.1l0.9-0.1L198.2,522.1 M199.6,522l-0.9,0.1l0.1,1.1l0.9-0.1L199.6,522 M123.7,522l-0.1,1.1l0.9,0.1l0.1-1.1
			L123.7,522 M201,521.9l-0.8,0.1l0.1,1.1l0.8-0.1L201,521.9 M122.2,521.8l-0.1,1.1l0.9,0.1l0.1-1.1L122.2,521.8 M120.7,521.6
			l-0.1,1.1l0.9,0.1l0.1-1.1L120.7,521.6 M119.3,521.5l-0.1,1.1l0.9,0.1l0.1-1.1L119.3,521.5 M117.8,521.3l-0.1,1.1l0.9,0.1l0.1-1.1
			L117.8,521.3 M116.3,521.1l-0.1,1.1l0.9,0.1l0.1-1.1L116.3,521.1 M114.9,520.9l-0.1,1.1l0.9,0.1l0.1-1.1L114.9,520.9 M113.4,520.7
			l-0.2,1.1l0.9,0.1l0.2-1.1L113.4,520.7 M112,520.4l-0.2,1.1l0.9,0.1l0.2-1.1L112,520.4 M110.5,520.2l-0.2,1.1l0.9,0.1l0.2-1.1
			L110.5,520.2 M109,520l-0.2,1.1l0.9,0.1l0.1-0.5l0-0.5L109,520 M107.6,519.8l-0.2,1.1l0.9,0.2l0.2-1.1L107.6,519.8 M106.1,519.5
			l-0.2,1.1l0.9,0.2l0.2-1.1L106.1,519.5 M104.7,519.3l-0.2,1.1l0.9,0.2l0.2-1.1L104.7,519.3"/>
		<path fill="#6C6361" d="M154.5,519.6l0,1.1l0.9,0l0-1.1L154.5,519.6 M156.9,519.6l-0.9,0v1.1l0.9,0L156.9,519.6 M158.4,519.6
			l-0.9,0l0,1.1l0.9,0L158.4,519.6 M153,519.6l0,1.1l0.9,0l0-1.1L153,519.6 M159.9,519.6l-0.9,0l0,1.1l0.9,0L159.9,519.6
			 M151.6,519.6l0,1.1l0.9,0l0-1.1L151.6,519.6 M161.3,519.6l-0.9,0l0,1.1l0.9,0L161.3,519.6 M162.8,519.5l-0.9,0l0,1.1l0.9,0
			L162.8,519.5 M150.1,519.5l0,1.1l0.9,0l0-1.1L150.1,519.5 M164.3,519.5l-0.9,0l0,1.1l0.9,0L164.3,519.5 M148.6,519.5l0,1.1l0.9,0
			l0-1.1L148.6,519.5 M165.8,519.5l-0.9,0l0,1.1l0.9,0L165.8,519.5 M167.2,519.4l-0.9,0l0,1.1l0.9,0L167.2,519.4 M147.2,519.4l0,1.1
			l0.9,0l0-1.1L147.2,519.4 M168.7,519.4l-0.9,0l0,1.1l0.9,0L168.7,519.4 M145.7,519.4l0,1.1l0.9,0l0-1.1L145.7,519.4 M170.2,519.4
			l-0.9,0l0,1.1l0.9,0L170.2,519.4 M171.7,519.3l-0.9,0l0,1.1l0.9,0L171.7,519.3 M144.2,519.3l0,1.1l0.9,0l0-1.1L144.2,519.3
			 M173.1,519.3l-0.9,0l0,1.1l0.9,0L173.1,519.3 M142.7,519.2l-0.1,1.1l0.9,0l0.1-1.1L142.7,519.2 M174.6,519.2l-0.9,0l0,1.1l0.9,0
			L174.6,519.2 M141.3,519.2l-0.1,1.1l0.9,0.1l0.1-1.1L141.3,519.2 M176.1,519.2l-0.9,0l0,1.1l0.9,0L176.1,519.2 M177.6,519.1
			l-0.9,0l0,1.1l0.9,0L177.6,519.1 M139.8,519.1l-0.1,1.1l0.9,0.1l0.1-1.1L139.8,519.1 M179,519l-0.9,0l0,1.1l0.9,0L179,519
			 M138.3,519l-0.1,1.1l0.9,0.1l0.1-1.1L138.3,519 M180.5,519l-0.8,0l-0.1,0.5l0.1,0.5l0.8,0L180.5,519 M182,518.9l-0.8,0l-0.1,0.5
			l0.1,0.5l0.8,0L182,518.9 M136.9,518.9l-0.1,1.1l0.9,0.1l0.1-1.1L136.9,518.9 M183.4,518.8l-0.9,0.1l0.1,1.1l0.9-0.1L183.4,518.8
			 M135.4,518.8l-0.1,1.1l0.9,0.1l0.1-1.1L135.4,518.8 M184.9,518.7l-0.9,0.1l0.1,1.1l0.9-0.1L184.9,518.7 M133.9,518.6l-0.1,1.1
			l0.9,0.1l0.1-1.1L133.9,518.6 M186.4,518.6l-0.9,0.1l0.1,1.1l0.9-0.1L186.4,518.6 M187.9,518.5l-0.9,0.1l0.1,1.1l0.9-0.1
			L187.9,518.5 M132.5,518.5l-0.1,1.1l0.9,0.1l0.1-1.1L132.5,518.5 M189.3,518.5l-0.9,0.1l0.1,1.1l0.9-0.1L189.3,518.5 M131,518.4
			l-0.1,1.1l0.9,0.1l0.1-1.1L131,518.4 M190.8,518.4l-0.9,0.1l0.1,1.1l0.9-0.1L190.8,518.4 M129.5,518.3l-0.1,1.1l0.9,0.1l0.1-1.1
			L129.5,518.3 M192.3,518.2l-0.9,0.1l0.1,1.1l0.9-0.1L192.3,518.2 M193.7,518.1l-0.9,0.1l0.1,1.1l0.9-0.1L193.7,518.1 M128,518.1
			l-0.1,1.1l0.9,0.1l0.1-1.1L128,518.1 M195.2,518l-0.9,0.1l0.1,1.1l0.9-0.1L195.2,518 M126.6,518l-0.1,1.1l0.9,0.1l0.1-1.1
			L126.6,518 M196.7,517.9l-0.9,0.1l0.1,1.1l0.9-0.1L196.7,517.9 M125.1,517.8l-0.1,1.1l0.9,0.1l0.1-1.1L125.1,517.8 M198.2,517.8
			l-0.9,0.1l0.1,1.1l0.9-0.1L198.2,517.8 M199.6,517.6l-0.9,0.1l0.1,1.1l0.9-0.1L199.6,517.6 M123.7,517.6l-0.1,1.1l0.9,0.1l0.1-1.1
			L123.7,517.6 M201,517.5l-0.8,0.1l0.1,1.1l0.8-0.1L201,517.5 M122.2,517.5l-0.1,1.1l0.9,0.1l0.1-1.1L122.2,517.5 M120.7,517.3
			l-0.1,1.1l0.9,0.1l0.1-1.1L120.7,517.3 M119.3,517.1l-0.1,1.1l0.9,0.1l0.1-1.1L119.3,517.1 M117.8,516.9l-0.1,1.1l0.9,0.1l0.1-1.1
			L117.8,516.9 M116.3,516.7l-0.1,1.1l0.9,0.1l0.1-1.1L116.3,516.7 M114.9,516.5l-0.1,1.1l0.9,0.1l0.1-1.1L114.9,516.5 M113.4,516.3
			l-0.2,1.1l0.9,0.1l0.2-1.1L113.4,516.3 M112,516.1l-0.2,1.1l0.9,0.1l0.2-1.1L112,516.1 M110.5,515.9l-0.2,1.1l0.9,0.1l0.2-1.1
			L110.5,515.9 M109,515.6l-0.2,1.1l0.9,0.1l0.1-0.5l0-0.5L109,515.6 M107.6,515.4l-0.2,1.1l0.9,0.2l0.2-1.1L107.6,515.4
			 M106.1,515.2l-0.2,1.1l0.9,0.2l0.2-1.1L106.1,515.2 M104.7,514.9l-0.2,1.1l0.9,0.2l0.2-1.1L104.7,514.9"/>
		<path fill="#6C6361" d="M612.8,523.9l0,1.1l0.9,0v-1.1L612.8,523.9 M615.2,523.9l-0.9,0l0,1.1l0.9,0L615.2,523.9 M611.3,523.9
			l0,1.1l0.9,0l0-1.1L611.3,523.9 M616.7,523.9l-0.9,0l0,1.1l0.9,0L616.7,523.9 M609.9,523.9l0,1.1l0.9,0l0-1.1L609.9,523.9
			 M618.2,523.9l-0.9,0l0,1.1l0.9,0L618.2,523.9 M608.4,523.9l0,1.1l0.9,0l0-1.1L608.4,523.9 M606.9,523.9l0,1.1l0.9,0l0-1.1
			L606.9,523.9 M619.6,523.9l-0.9,0l0,1.1l0.9,0L619.6,523.9 M605.4,523.9l0,1.1l0.9,0l0-1.1L605.4,523.9 M621.1,523.8l-0.9,0l0,1.1
			l0.9,0L621.1,523.8 M604,523.8l0,1.1l0.9,0l0-1.1L604,523.8 M602.5,523.8l0,1.1l0.9,0l0-1.1L602.5,523.8 M622.6,523.8l-0.9,0
			l0,1.1l0.9,0L622.6,523.8 M601,523.8l0,1.1l0.9,0l0-1.1L601,523.8 M624,523.7l-0.9,0l0,1.1l0.9,0L624,523.7 M599.5,523.7l0,1.1
			l0.9,0l0-1.1L599.5,523.7 M598.1,523.7l0,1.1l0.9,0l0-1.1L598.1,523.7 M625.5,523.7l-0.9,0l0,1.1l0.9,0L625.5,523.7 M596.6,523.6
			l0,1.1l0.9,0l0-1.1L596.6,523.6 M627,523.6l-0.9,0l0.1,1.1l0.9,0L627,523.6 M595.1,523.6l0,1.1l0.9,0l0-1.1L595.1,523.6
			 M628.4,523.5l-0.9,0.1l0.1,1.1l0.9-0.1L628.4,523.5 M593.6,523.5l0,1.1l0.9,0l0-1.1L593.6,523.5 M592.2,523.4l0,1.1l0.9,0l0-1.1
			L592.2,523.4 M629.9,523.4l-0.9,0.1l0.1,1.1l0.9-0.1L629.9,523.4 M590.7,523.4l-0.1,1.1l0.9,0l0-1.1L590.7,523.4 M631.4,523.3
			l-0.9,0.1l0.1,1.1l0.9-0.1L631.4,523.3 M589.2,523.3l0,1.1l0.9,0l0-1.1L589.2,523.3 M587.7,523.2l-0.1,1.1l0.9,0l0-1.1
			L587.7,523.2 M632.9,523.2l-0.9,0.1l0.1,1.1l0.9-0.1L632.9,523.2 M586.3,523.2l-0.1,1.1l0.9,0.1l0.1-1.1L586.3,523.2 M634.3,523.1
			l-0.9,0.1l0.1,1.1l0.9-0.1L634.3,523.1 M584.8,523.1l-0.1,1.1l0.9,0.1l0.1-1.1L584.8,523.1 M635.8,523l-0.9,0.1l0.1,1.1l0.9-0.1
			L635.8,523 M583.3,523l-0.1,1.1l0.9,0.1l0.1-1.1L583.3,523 M581.9,522.9l-0.1,1.1l0.9,0.1l0.1-1.1L581.9,522.9 M637.3,522.9
			l-0.9,0.1l0.1,1.1l0.9-0.1L637.3,522.9 M580.4,522.8l-0.1,1.1l0.9,0.1l0.1-1.1L580.4,522.8 M638.7,522.7l-0.9,0.1l0.1,1.1l0.9-0.1
			L638.7,522.7 M578.9,522.7l-0.1,1.1l0.9,0.1l0.1-1.1L578.9,522.7 M640.2,522.6l-0.9,0.1l0.1,1.1l0.9-0.1L640.2,522.6 M577.4,522.6
			l-0.1,1.1l0.9,0.1l0.1-1.1L577.4,522.6 M576,522.5l-0.1,1.1l0.9,0.1l0.1-1.1L576,522.5 M641.7,522.5l-0.9,0.1l0.1,1.1l0.9-0.1
			L641.7,522.5 M574.5,522.4l-0.1,1.1l0.9,0.1l0.1-1.1L574.5,522.4 M643.1,522.3l-0.9,0.1l0.1,1.1l0.9-0.1L643.1,522.3 M573,522.2
			l-0.1,1.1l0.9,0.1l0.1-1.1L573,522.2 M644.6,522.1l-0.9,0.1l0.1,1.1l0.9-0.1L644.6,522.1 M571.6,522.1l-0.1,1.1l0.9,0.1l0.1-1.1
			L571.6,522.1 M570.1,522l-0.1,1.1l0.9,0.1l0.1-1.1L570.1,522 M646.1,522l-0.9,0.1l0.1,1.1l0.9-0.1L646.1,522 M568.7,521.9l0,1.1
			l0.8,0.1l0.1-1.1L568.7,521.9 M647.5,521.8l-0.9,0.1l0.1,1.1l0.9-0.1L647.5,521.8 M649,521.6l-0.9,0.1l0.1,1.1l0.9-0.1L649,521.6
			 M650.5,521.5l-0.9,0.1l0.1,1.1l0.9-0.1L650.5,521.5 M651.9,521.3l-0.9,0.1l0.1,1.1l0.9-0.1L651.9,521.3 M653.4,521.1l-0.9,0.1
			l0.1,1.1l0.9-0.1L653.4,521.1 M654.8,520.9l-0.9,0.1l0.1,1.1l0.9-0.1L654.8,520.9 M656.3,520.7l-0.9,0.1l0.2,1.1l0.9-0.1
			L656.3,520.7 M657.8,520.4l-0.9,0.1l0.2,1.1l0.9-0.1L657.8,520.4 M659.2,520.2l-0.9,0.1l0.2,1.1l0.9-0.1L659.2,520.2 M660.7,520
			l-0.9,0.1l0.3,1.1l0.8-0.1L660.7,520 M662.1,519.8l-0.9,0.2l0.2,1.1l0.9-0.2L662.1,519.8 M663.6,519.5l-0.9,0.2l0.2,1.1l0.9-0.2
			L663.6,519.5 M665,519.3l-0.9,0.2l0.2,1.1l0.9-0.2L665,519.3"/>
		<path fill="#6C6361" d="M612.8,519.6l0,1.1l0.9,0v-1.1L612.8,519.6 M615.2,519.6l-0.9,0l0,1.1l0.9,0L615.2,519.6 M611.3,519.6
			l0,1.1l0.9,0l0-1.1L611.3,519.6 M616.7,519.6l-0.9,0l0,1.1l0.9,0L616.7,519.6 M609.9,519.6l0,1.1l0.9,0l0-1.1L609.9,519.6
			 M618.2,519.6l-0.9,0l0,1.1l0.9,0L618.2,519.6 M608.4,519.6l0,1.1l0.9,0l0-1.1L608.4,519.6 M606.9,519.5l0,1.1l0.9,0l0-1.1
			L606.9,519.5 M619.6,519.5l-0.9,0l0,1.1l0.9,0L619.6,519.5 M605.4,519.5l0,1.1l0.9,0l0-1.1L605.4,519.5 M621.1,519.5l-0.9,0l0,1.1
			l0.9,0L621.1,519.5 M604,519.5l0,1.1l0.9,0l0-1.1L604,519.5 M602.5,519.4l0,1.1l0.9,0l0-1.1L602.5,519.4 M622.6,519.4l-0.9,0
			l0,1.1l0.9,0L622.6,519.4 M601,519.4l0,1.1l0.9,0l0-1.1L601,519.4 M624,519.4l-0.9,0l0,1.1l0.9,0L624,519.4 M599.5,519.4l0,1.1
			l0.9,0l0-1.1L599.5,519.4 M598.1,519.3l0,1.1l0.9,0l0-1.1L598.1,519.3 M625.5,519.3l-0.9,0l0,1.1l0.9,0L625.5,519.3 M596.6,519.3
			l0,1.1l0.9,0l0-1.1L596.6,519.3 M627,519.2l-0.9,0l0.1,1.1l0.9,0L627,519.2 M595.1,519.2l0,1.1l0.9,0l0-1.1L595.1,519.2
			 M628.4,519.2l-0.9,0.1l0.1,1.1l0.9-0.1L628.4,519.2 M593.6,519.2l0,1.1l0.9,0l0-1.1L593.6,519.2 M592.2,519.1l0,1.1l0.9,0l0-1.1
			L592.2,519.1 M629.9,519.1l-0.9,0.1l0.1,1.1l0.9-0.1L629.9,519.1 M590.7,519l-0.1,1.1l0.9,0l0-1.1L590.7,519 M631.4,519l-0.9,0.1
			l0.1,1.1l0.9-0.1L631.4,519 M589.2,519l0,1.1l0.9,0l0-1.1L589.2,519 M587.7,518.9l-0.1,1.1l0.9,0l0-1.1L587.7,518.9 M632.9,518.9
			l-0.9,0.1l0.1,1.1l0.9-0.1L632.9,518.9 M586.3,518.8l-0.1,1.1l0.9,0.1l0.1-1.1L586.3,518.8 M634.3,518.8l-0.9,0.1l0.1,1.1l0.9-0.1
			L634.3,518.8 M584.8,518.7l-0.1,1.1l0.9,0.1l0.1-1.1L584.8,518.7 M635.8,518.6l-0.9,0.1l0.1,1.1l0.9-0.1L635.8,518.6 M583.3,518.6
			l-0.1,1.1l0.9,0.1l0.1-1.1L583.3,518.6 M581.9,518.5l-0.1,1.1l0.9,0.1l0.1-1.1L581.9,518.5 M637.3,518.5l-0.9,0.1l0.1,1.1l0.9-0.1
			L637.3,518.5 M580.4,518.5l-0.1,1.1l0.9,0.1l0.1-1.1L580.4,518.5 M638.7,518.4l-0.9,0.1l0.1,1.1l0.9-0.1L638.7,518.4 M578.9,518.4
			l-0.1,1.1l0.9,0.1l0.1-1.1L578.9,518.4 M640.2,518.3l-0.9,0.1l0.1,1.1l0.9-0.1L640.2,518.3 M577.4,518.2l-0.1,1.1l0.9,0.1l0.1-1.1
			L577.4,518.2 M576,518.1l-0.1,1.1l0.9,0.1l0.1-1.1L576,518.1 M641.7,518.1l-0.9,0.1l0.1,1.1l0.9-0.1L641.7,518.1 M574.5,518
			l-0.1,1.1l0.9,0.1l0.1-1.1L574.5,518 M643.1,518l-0.9,0.1l0.1,1.1l0.9-0.1L643.1,518 M573,517.9l-0.1,1.1l0.9,0.1l0.1-1.1
			L573,517.9 M644.6,517.8l-0.9,0.1l0.1,1.1l0.9-0.1L644.6,517.8 M571.6,517.8l-0.1,1.1l0.9,0.1l0.1-1.1L571.6,517.8 M570.1,517.6
			l-0.1,1.1l0.9,0.1l0.1-1.1L570.1,517.6 M646.1,517.6l-0.9,0.1l0.1,1.1l0.9-0.1L646.1,517.6 M568.7,517.5l0,1.1l0.8,0.1l0.1-1.1
			L568.7,517.5 M647.5,517.5l-0.9,0.1l0.1,1.1l0.9-0.1L647.5,517.5 M649,517.3l-0.9,0.1l0.1,1.1l0.9-0.1L649,517.3 M650.5,517.1
			l-0.9,0.1l0.1,1.1l0.9-0.1L650.5,517.1 M651.9,516.9L651,517l0.1,1.1l0.9-0.1L651.9,516.9 M653.4,516.7l-0.9,0.1l0.1,1.1l0.9-0.1
			L653.4,516.7 M654.8,516.5l-0.9,0.1l0.1,1.1l0.9-0.1L654.8,516.5 M656.3,516.3l-0.9,0.1l0.2,1.1l0.9-0.1L656.3,516.3 M657.8,516.1
			l-0.9,0.1l0.2,1.1l0.9-0.1L657.8,516.1 M659.2,515.9l-0.9,0.1l0.2,1.1l0.9-0.1L659.2,515.9 M660.7,515.6l-0.9,0.1l0.3,1.1l0.8-0.1
			L660.7,515.6 M662.1,515.4l-0.9,0.2l0.2,1.1l0.9-0.2L662.1,515.4 M663.6,515.2l-0.9,0.2l0.2,1.1l0.9-0.2L663.6,515.2 M665,514.9
			l-0.9,0.2l0.2,1.1l0.9-0.2L665,514.9"/>
		<path fill="#6C6361" d="M298.2,261.6l-0.9,0.2l0.2,1.1l0.9-0.2L298.2,261.6 M299.7,261.3l-0.9,0.2l0.2,1.1l0.9-0.1L299.7,261.3
			 M301.1,261.1l-0.9,0.1l0.2,1.1l0.9-0.1L301.1,261.1 M302.6,260.9l-0.9,0.1l0.2,1.1l0.9-0.1L302.6,260.9 M304,260.7l-0.9,0.1
			l0.2,1.1l0.9-0.1L304,260.7 M305.5,260.4l-0.9,0.1l0.2,1.1l0.9-0.1L305.5,260.4 M307,260.2l-0.9,0.1l0.2,1.1l0.9-0.1L307,260.2
			 M308.4,260l-0.9,0.1l0.2,1.1l0.9-0.1L308.4,260 M470.8,259.9l-0.1,0.5l-0.3-0.4l0.3,0.4l-0.1,0.6l0.5-0.1l-0.4-0.4L470.8,259.9
			L470.8,259.9 M309.9,259.8l-0.8,0.1l0,0.6l0.2,0.5l0.8-0.1L309.9,259.8 M469.3,259.7l-0.1,1.1l0.9,0.1l0.1-1.1L469.3,259.7
			 M311.4,259.6l-0.9,0.1l0.2,1.1l0.9-0.1L311.4,259.6 M467.8,259.5l-0.1,1.1l0.9,0.1l0.1-1.1L467.8,259.5 M466.4,259.4l-0.1,1.1
			l0.9,0.1l0.1-1.1L466.4,259.4 M312.8,259.3l-0.9,0.1l0.2,1.1l0.9-0.1L312.8,259.3 M464.9,259.2l-0.1,1.1l0.9,0.1l0.1-1.1
			L464.9,259.2 M314.3,259.1l-0.9,0.1l0.2,1.1l0.9-0.1L314.3,259.1 M463.4,259l-0.1,1.1l0.9,0.1l0.1-1.1L463.4,259 M315.7,258.9
			l-0.9,0.1l0.2,1.1l0.9-0.1L315.7,258.9 M462,258.8l-0.1,1.1l0.9,0.1l0.1-1.1L462,258.8 M317.2,258.7l-0.9,0.1l0.2,1.1l0.9-0.1
			L317.2,258.7 M460.5,258.6l-0.1,1.1l0.9,0.1l0.1-1.1L460.5,258.6 M318.7,258.5l-0.9,0.1l0.2,1.1l0.9-0.1L318.7,258.5 M459,258.4
			l-0.1,1.1l0.9,0.1l0.1-1.1L459,258.4 M320.1,258.3l-0.9,0.1l0.1,1.1l0.9-0.1L320.1,258.3 M457.6,258.2l-0.1,1.1l0.9,0.1l0.1-1.1
			L457.6,258.2 M321.6,258.1l-0.9,0.1l0.1,1.1l0.9-0.1L321.6,258.1 M456.1,258.1l-0.1,1.1l0.9,0.1l0.1-1.1L456.1,258.1 M323.1,257.9
			l-0.9,0.1l0.1,1.1l0.9-0.1L323.1,257.9 M454.6,257.9l-0.1,1.1l0.9,0.1l0.1-1.1L454.6,257.9 M453.2,257.7l-0.1,1.1l0.9,0.1l0.1-1.1
			L453.2,257.7 M324.5,257.7l-0.9,0.1l0.1,1.1l0.9-0.1L324.5,257.7 M451.7,257.5l-0.1,1.1l0.9,0.1l0.1-1.1L451.7,257.5 M326,257.5
			l-0.9,0.1l0.1,1.1l0.9-0.1L326,257.5 M450.2,257.4l-0.1,1.1l0.9,0.1l0.1-1.1L450.2,257.4 M327.5,257.3l-0.9,0.1l0.1,1.1l0.9-0.1
			L327.5,257.3 M448.8,257.2l-0.1,1.1l0.9,0.1l0.1-1.1L448.8,257.2 M328.9,257.1l-0.9,0.1l0.1,1.1l0.9-0.1L328.9,257.1 M447.3,257
			l-0.1,1.1l0.9,0.1l0.1-1.1L447.3,257 M330.4,256.9l-0.9,0.1l0.1,1.1l0.9-0.1L330.4,256.9 M445.8,256.9l-0.1,1.1l0.9,0.1l0.1-1.1
			L445.8,256.9 M331.9,256.7l-0.9,0.1l0.1,1.1l0.9-0.1L331.9,256.7 M444.4,256.7l-0.1,1.1l0.9,0.1l0.1-1.1L444.4,256.7 M333.3,256.6
			l-0.9,0.1l0.1,1.1l0.9-0.1L333.3,256.6 M442.9,256.5l-0.1,1.1l0.9,0.1l0.1-1.1L442.9,256.5 M441.4,256.4l-0.1,1.1l0.9,0.1l0.1-1.1
			L441.4,256.4 M334.8,256.4l-0.9,0.1l0.1,1.1l0.9-0.1L334.8,256.4 M440,256.2l-0.1,1.1l0.9,0.1l0.1-1.1L440,256.2 M336.2,256.2
			l-0.9,0.1l0.1,1.1l0.9-0.1L336.2,256.2 M438.5,256.1l-0.1,1.1l0.9,0.1l0.1-1.1L438.5,256.1 M337.7,256l-0.9,0.1l0.1,1.1l0.9-0.1
			L337.7,256 M437,255.9l-0.1,1.1l0.9,0.1l0.1-1.1L437,255.9 M339.2,255.9l-0.9,0.1l0.1,1.1l0.9-0.1L339.2,255.9 M435.5,255.8
			l-0.1,1.1l0.9,0.1l0.1-1.1L435.5,255.8 M340.7,255.7l-0.9,0.1l0.1,1.1l0.9-0.1L340.7,255.7 M434.1,255.6l-0.1,1.1l0.9,0.1l0.1-1.1
			L434.1,255.6 M342.1,255.5l-0.9,0.1l0.1,1.1l0.9-0.1L342.1,255.5 M432.6,255.5l0,1.1l0.8,0.1l0.1-1.1L432.6,255.5 M343.6,255.3
			l-0.9,0.1l0.1,1.1l0.9-0.1L343.6,255.3 M431.1,255.3l-0.1,1.1l0.9,0.1l0.1-1.1L431.1,255.3 M345.1,255.2l-0.9,0.1l0.1,1.1l0.9-0.1
			L345.1,255.2 M429.7,255.2l-0.1,1.1l0.9,0.1l0.1-1.1L429.7,255.2 M428.2,255l-0.1,1.1l0.9,0.1l0.1-1.1L428.2,255 M346.5,255
			l-0.9,0.1l0.1,1.1l0.9-0.1L346.5,255 M426.7,254.9l-0.1,1.1l0.9,0.1l0.1-1.1L426.7,254.9 M348,254.9l-0.9,0.1l0.1,1.1l0.9-0.1
			L348,254.9 M425.3,254.8l-0.1,1.1l0.9,0.1l0.1-1.1L425.3,254.8 M349.5,254.7l-0.9,0.1l0.1,1.1l0.9-0.1L349.5,254.7 M423.8,254.6
			l-0.1,1.1l0.9,0.1l0.1-1.1L423.8,254.6 M350.9,254.6l-0.9,0.1l0.1,1.1l0.9-0.1L350.9,254.6 M422.3,254.5l-0.1,1.1l0.9,0.1l0.1-1.1
			L422.3,254.5 M352.4,254.4l-0.9,0.1l0.1,1.1l0.9-0.1L352.4,254.4 M420.8,254.4l-0.1,1.1l0.9,0.1l0.1-1.1L420.8,254.4 M353.9,254.3
			l-0.9,0.1l0.1,1.1l0.9-0.1L353.9,254.3 M419.4,254.2l-0.1,1.1l0.9,0.1l0.1-1.1L419.4,254.2 M355.4,254.1l-0.9,0.1l0.1,1.1l0.9-0.1
			L355.4,254.1 M417.9,254.1l-0.1,1.1l0.9,0.1l0.1-1.1L417.9,254.1 M356.8,254l-0.9,0.1l0.1,1.1l0.9-0.1L356.8,254 M416.4,254
			l-0.1,1.1l0.9,0.1l0.1-1.1L416.4,254 M414.9,253.9l-0.1,1.1l0.9,0.1l0.1-1.1L414.9,253.9 M358.3,253.9l-0.9,0.1l0.1,1.1l0.9-0.1
			L358.3,253.9 M413.5,253.8l-0.1,1.1l0.9,0.1l0.1-1.1L413.5,253.8 M359.6,253.8l-0.8,0.1l0.1,1.1l0.9-0.1L359.6,253.8 M412,253.7
			l-0.1,1.1l0.9,0.1l0.1-1.1L412,253.7 M361.2,253.6l-0.9,0.1l0.1,1.1l0.9-0.1L361.2,253.6 M410.5,253.5l-0.1,1.1l0.9,0.1l0.1-1.1
			L410.5,253.5 M362.7,253.5l-0.9,0.1l0.1,1.1l0.9-0.1L362.7,253.5 M409.1,253.4l-0.1,1.1l0.9,0.1l0.1-1.1L409.1,253.4 M364.2,253.4
			l-0.9,0.1l0.1,1.1l0.9-0.1L364.2,253.4 M407.6,253.3l-0.1,1.1l0.9,0.1l0.1-1.1L407.6,253.3 M365.7,253.3l-0.9,0.1l0.1,1.1l0.9-0.1
			L365.7,253.3 M406.1,253.2l-0.1,1.1l0.9,0.1l0.1-1.1L406.1,253.2 M367.1,253.2l-0.9,0.1l0.1,1.1l0.9-0.1L367.1,253.2 M404.6,253.2
			l-0.1,1.1l0.9,0.1l0.1-1.1L404.6,253.2 M368.6,253.1l-0.9,0.1l0.1,1.1l0.9-0.1L368.6,253.1 M403.2,253.1l-0.1,1.1l0.9,0.1l0.1-1.1
			L403.2,253.1 M370.1,253l-0.9,0.1l0.1,1.1l0.9-0.1L370.1,253 M401.7,253l-0.1,1.1l0.9,0.1l0.1-1.1L401.7,253 M400.2,252.9
			l-0.1,1.1l0.9,0l0.1-1.1L400.2,252.9 M371.6,252.9l-0.9,0.1l0.1,1.1l0.9-0.1L371.6,252.9 M398.7,252.8l-0.1,1.1l0.9,0l0.1-1.1
			L398.7,252.8 M373,252.8l-0.9,0.1l0.1,1.1l0.9-0.1L373,252.8 M397.2,252.8l0,1.1l0.9,0l0-1.1L397.2,252.8 M374.5,252.7l-0.9,0
			l0.1,1.1l0.9,0L374.5,252.7 M395.8,252.7l0,1.1l0.9,0l0-1.1L395.8,252.7 M376,252.7l-0.8,0l-0.1,0.5l0.1,0.5l0.8,0L376,252.7
			 M394.3,252.6l0,1.1l0.9,0l0-1.1L394.3,252.6 M377.5,252.6l-0.9,0l0,1.1l0.9,0L377.5,252.6 M392.8,252.6l0,1.1l0.9,0l0-1.1
			L392.8,252.6 M379,252.6l-0.9,0l0,1.1l0.9,0L379,252.6 M391.3,252.5l0,1.1l0.9,0l0-1.1L391.3,252.5 M380.4,252.5l-0.9,0l0,1.1
			l0.9,0L380.4,252.5 M389.9,252.5l0,0.5l0,0.5l0.9,0l0-1.1L389.9,252.5l0,0.5L389.9,252.5 M381.9,252.5l-0.9,0l0,1.1l0.9,0
			L381.9,252.5 M388.4,252.5l0,1.1l0.9,0l0-1.1L388.4,252.5 M383.4,252.5l-0.9,0l0,1.1l0.9,0L383.4,252.5 M386.9,252.5l0,1.1l0.9,0
			l0-1.1L386.9,252.5 M384.9,252.5l-0.9,0l0,1.1l0.9,0L384.9,252.5 M385.4,252.5l0.1,1.1l0.8,0l0-1.1L385.4,252.5"/>
		<path fill="#6C6361" d="M201.4,511.3l0,0.9l1.1,0.1l0-0.9L201.4,511.3 M201.5,509.8l0,0.9l1.1,0l0-0.9L201.5,509.8 M201.5,508.3
			l0,0.9l1.1,0l0-0.9L201.5,508.3 M201.5,506.9l0,0.9l1.1,0l0-0.9L201.5,506.9 M201.6,505.4l0,0.9l1.1,0l0-0.9L201.6,505.4
			 M201.6,503.9l0,0.9l1.1,0l0-0.9L201.6,503.9 M201.6,502.4l0,0.9l1.1,0l0-0.9L201.6,502.4 M201.6,501l0,0.9l0.5,0l0.5,0l0-0.9
			L201.6,501 M201.6,499.5l0,0.9l1.1,0l0-0.9L201.6,499.5 M202.7,498h-1.1l0,0.9l1.1,0L202.7,498 M201.6,496.5l0,0.9h1.1l0-0.9
			L201.6,496.5 M202.7,495.1l-1.1,0c0,0.2,0,0.5,0,0.7v0.2h1.1v-0.2C202.7,495.5,202.7,495.3,202.7,495.1 M202.6,493.5l-1.1,0.1
			c0,0.3,0.1,0.6,0.1,0.9l1.1-0.1C202.7,494.2,202.6,493.9,202.6,493.5 M202.4,492.1l-1.1,0.1c0,0.3,0.1,0.6,0.1,0.9l1.1-0.1
			C202.5,492.7,202.5,492.4,202.4,492.1 M202.2,490.6l-1.1,0.2l0.1,0.9l1.1-0.2C202.3,491.2,202.3,490.9,202.2,490.6 M201.9,489.1
			l-1.1,0.2l0.2,0.9l1.1-0.2L201.9,489.1 M201.6,487.7l-1.1,0.2l0.2,0.9l1.1-0.2L201.6,487.7 M201.3,486.2l-1.1,0.3l0.2,0.9l1.1-0.2
			C201.4,486.8,201.3,486.5,201.3,486.2 M200.9,484.8l-1.1,0.3l0.2,0.9l1.1-0.3L200.9,484.8 M200.5,483.3l-1,0.3l0.2,0.9l1-0.3
			L200.5,483.3 M200.1,481.9l-1,0.3l0.3,0.9l1-0.3L200.1,481.9 M199.7,480.5l-1,0.3l0.3,0.9l1-0.3L199.7,480.5 M199.3,479.1l-1,0.3
			l0.3,0.9l1-0.3L199.3,479.1 M198.9,477.7l-1,0.3l0.3,0.9l1-0.3L198.9,477.7 M198.5,476.2l-1,0.3l0.3,0.9l1-0.3L198.5,476.2
			 M198,474.8l-1,0.3l0.3,0.9l1-0.3L198,474.8 M197.6,473.4l-1,0.3l0.3,0.9l1-0.3L197.6,473.4 M197.2,472l-1,0.3l0.3,0.9l1-0.3
			L197.2,472 M196.7,470.6l-1,0.3l0.3,0.9l1-0.3L196.7,470.6 M196.3,469.2l-1,0.3l0.3,0.9l1-0.3L196.3,469.2 M195.9,467.8l-1,0.3
			l0.3,0.9l1-0.3L195.9,467.8 M195.5,466.4l-1,0.3l0.3,0.9l1-0.3L195.5,466.4 M195.1,464.9l-1,0.3l0.3,0.9l1-0.3L195.1,464.9
			 M194.6,463.5l-1,0.3l0.3,0.9l1-0.3L194.6,463.5 M194.2,462.1l-1,0.3l0.3,0.9l1-0.3L194.2,462.1 M193.8,460.7l-1,0.3l0.3,0.9
			l1-0.3L193.8,460.7 M193.4,459.3l-1,0.3l0.2,0.9l1-0.3L193.4,459.3 M193.1,457.8l-1,0.3l0.2,0.9l1-0.3L193.1,457.8 M192.7,456.4
			l-1.1,0.3l0.2,0.9l1-0.3L192.7,456.4 M192.3,455l-1.1,0.3l0.2,0.9l1-0.3L192.3,455 M191.9,453.6l-1.1,0.3l0.2,0.9l1.1-0.3
			L191.9,453.6 M191.6,452.1l-1.1,0.3l0.2,0.9l1.1-0.3L191.6,452.1 M191.2,450.7l-1.1,0.3l0.2,0.9l1.1-0.3L191.2,450.7 M190.9,449.3
			l-1.1,0.2l0.2,0.9l1.1-0.2L190.9,449.3 M190.6,447.8l-1.1,0.2l0.2,0.9l1.1-0.2L190.6,447.8 M190.3,446.4l-1.1,0.2l0.2,0.9l1.1-0.2
			L190.3,446.4 M189.9,445l-1.1,0.2l0.2,0.9l1.1-0.2L189.9,445 M189.6,443.5l-1.1,0.2l0.2,0.9l1.1-0.2L189.6,443.5 M189.4,442.1
			l-1.1,0.2l0.2,0.9l1.1-0.2L189.4,442.1 M189.1,440.6l-1.1,0.2l0.2,0.9l1.1-0.2L189.1,440.6 M188.8,439.2l-1.1,0.2l0.2,0.9l1.1-0.2
			L188.8,439.2 M188.6,437.7l-1.1,0.2l0.2,0.9l1.1-0.2L188.6,437.7 M188.3,436.3l-1.1,0.2l0.2,0.9l1.1-0.2L188.3,436.3 M188,434.8
			l-1.1,0.2l0.2,0.9l1.1-0.2L188,434.8 M187.7,433.4l-1.1,0.2l0.2,0.9l1.1-0.2L187.7,433.4 M187.4,431.9l-1.1,0.2l0.2,0.9l1.1-0.2
			L187.4,431.9 M187.1,430.5l-1.1,0.2l0.2,0.9l1.1-0.2L187.1,430.5 M186.8,429l-1.1,0.2l0.2,0.9l1.1-0.2L186.8,429 M186.5,427.6
			l-1.1,0.2l0.2,0.9l1.1-0.2L186.5,427.6 M186.2,426.1l-1.1,0.2l0.2,0.9l1-0.3L186.2,426.1 M185.8,424.7l-0.5,0.1l-0.5,0.2l0.2,0.8
			l1.1-0.2L185.8,424.7 M185.5,423.3l-1.1,0.2l0.2,0.9l1.1-0.2L185.5,423.3 M185.2,421.8l-1.1,0.2l0.2,0.9l1-0.3L185.2,421.8
			 M184.8,420.4l-1.1,0.3l0.2,0.9l1-0.3L184.8,420.4 M184.5,418.9l-1.1,0.2l0.2,0.9l1.1-0.2L184.5,418.9 M184.2,417.5l-1.1,0.2
			l0.2,0.9l1.1-0.2L184.2,417.5 M183.9,416.1l-1.1,0.2l0.2,0.9l1.1-0.2L183.9,416.1 M183.5,414.6l-1.1,0.2l0.2,0.9l1.1-0.2
			L183.5,414.6 M183.2,413.2l-1.1,0.2l0.2,0.9l1.1-0.2L183.2,413.2 M182.9,411.8l-1.1,0.2l0.2,0.9l1.1-0.2L182.9,411.8 M182.5,410.3
			l-1.1,0.2l0.2,0.9l1.1-0.2L182.5,410.3 M182.2,408.9l-1.1,0.2l0.2,0.9l1.1-0.2L182.2,408.9 M181.8,407.4l-1.1,0.2l0.2,0.9l1.1-0.2
			L181.8,407.4 M181.5,406l-1.1,0.2l0.2,0.9l1.1-0.2L181.5,406 M181.2,404.6l-1.1,0.2l0.2,0.9l1.1-0.2L181.2,404.6 M180.8,403.1
			l-1.1,0.2l0.2,0.9l1.1-0.2L180.8,403.1 M180.5,401.7l-1.1,0.2l0.2,0.9l1.1-0.2L180.5,401.7 M180.2,400.3l-1.1,0.2l0.2,0.9l1.1-0.2
			L180.2,400.3 M179.9,398.8l-1.1,0.2l0.2,0.9l1-0.3L179.9,398.8 M179.5,397.4l-1.1,0.2l0.2,0.9l1.1-0.2L179.5,397.4 M179.2,395.9
			l-1.1,0.2l0.2,0.9l1.1-0.2L179.2,395.9 M178.9,394.5l-1.1,0.2l0.2,0.9l1.1-0.2L178.9,394.5 M178.6,393.1l-1.1,0.2l0.2,0.9l1.1-0.2
			L178.6,393.1 M178.2,391.6l-1.1,0.2l0.2,0.9l1.1-0.2L178.2,391.6 M177.9,390.2l-1.1,0.2l0.2,0.9l1.1-0.2L177.9,390.2 M177.6,388.7
			l-1.1,0.2l0.2,0.9l1.1-0.2L177.6,388.7 M177.3,387.3l-1.1,0.2l0.2,0.9l1.1-0.2L177.3,387.3 M177,385.8l-1.1,0.2l0.2,0.9l1.1-0.2
			L177,385.8 M176.7,384.4l-1.1,0.2l0.2,0.9l1.1-0.2L176.7,384.4 M176.4,383l-1.1,0.2l0.2,0.9l1.1-0.2L176.4,383 M176.1,381.5
			l-1.1,0.2l0.2,0.9l1.1-0.2L176.1,381.5 M175.8,380.1l-1.1,0.2l0.2,0.9l1.1-0.2L175.8,380.1 M175.5,378.6l-1.1,0.2l0.2,0.9l1.1-0.2
			L175.5,378.6 M175.2,377.2l-1.1,0.2l0.2,0.9l1.1-0.2L175.2,377.2 M174.9,375.7l-1.1,0.2l0.2,0.9l1.1-0.2L174.9,375.7 M174.6,374.3
			l-1.1,0.2l0.2,0.9l1.1-0.2L174.6,374.3 M174.4,372.8l-1.1,0.2l0.2,0.9l1.1-0.2L174.4,372.8 M174.1,371.4l-1.1,0.2l0.2,0.8l0.5,0
			l-0.5,0.1l0.5-0.1l0.5-0.2L174.1,371.4 M173.8,369.9l-1.1,0.3l0.2,0.8l1.1-0.2L173.8,369.9 M173.6,368.5l-1.1,0.2l0.2,0.9l1.1-0.2
			L173.6,368.5 M173.3,367l-1.1,0.2l0.2,0.9l1.1-0.2L173.3,367 M173.1,365.6l-1.1,0.2l0.2,0.9l1.1-0.2L173.1,365.6 M172.8,364.1
			l-1.1,0.2l0.1,0.9l1.1-0.2L172.8,364.1 M172.6,362.7l-1.1,0.2l0.1,0.8l0.5,0l-0.5,0.1l0.5-0.1l0.5-0.2L172.6,362.7 M172.4,361.2
			l-1.1,0.2l0.1,0.9l0.5,0l-0.5,0.1l0.5-0.1l0.5-0.2L172.4,361.2 M171.8,360.8l-0.2,0l-0.4,0.1L171.8,360.8 M172.2,359.8l-1.1,0.1
			l0.1,0.9l0.4,0l0.7-0.1L172.2,359.8 M172,358.3l-1.1,0.1l0.1,0.9l0.5,0l-0.5,0.1l0.5-0.1l0.5-0.1L172,358.3 M171.4,357.8l-0.2,0
			l-0.4,0.1L171.4,357.8 M171.8,356.8l-1.1,0.1l0.1,0.9l0.4,0l0.7-0.1L171.8,356.8 M171.6,355.4l-1.1,0.2l0.1,0.9l1.1-0.1
			L171.6,355.4 M171.5,353.9l-1.1,0.1l0.1,0.9l1.1-0.1L171.5,353.9 M170.9,353.4l-0.2,0l-0.4,0L170.9,353.4 M171.3,352.4l-1.1,0.1
			l0.1,0.9l0.4,0l0.7-0.1L171.3,352.4 M171.2,351l-1.1,0.1l0.1,0.9l1.1-0.1L171.2,351 M171.1,349.5l-1.1,0.1l0.1,0.9l1.1-0.1
			L171.1,349.5 M170.9,348.1l-1.1,0.1l0.1,0.9l0.5,0l-0.5,0l0.5,0l0.5-0.1L170.9,348.1 M170.2,347.5l-0.4,0l0.5,0L170.2,347.5
			 M170.9,346.6l-1.1,0.1l0.1,0.9l0.4,0l0.7-0.1L170.9,346.6 M170.8,345.1l-1.1,0.1l0,0.9l1.1,0L170.8,345.1 M170.8,343.6l-1.1,0.1
			l0,0.9l1.1,0L170.8,343.6 M170.7,342.2l-1.1,0l0,0.9l1.1,0L170.7,342.2 M169.7,340.7l0,0.9l1.1,0l0-0.9L169.7,340.7 M169.7,339.5
			l0,0.6l1.1,0l0-0.6L169.7,339.5"/>
		<path fill="#6C6361" d="M567,514.4l-0.1,0.9l1.1,0.2l0.1-0.9L567,514.4 M567.2,512.9l-0.1,0.9l1.1,0.2l0.1-0.9L567.2,512.9
			 M567.4,511.4l-0.1,0.9l1.1,0.2l0.1-0.9L567.4,511.4 M567.6,510l-0.1,0.9l1.1,0.2l0.1-0.9L567.6,510 M567.8,508.5l-0.1,0.9
			l1.1,0.2l0.1-0.9L567.8,508.5 M568.1,507.1l-0.1,0.9l1.1,0.2l0.1-0.9L568.1,507.1 M568.3,505.6l-0.1,0.9l1.1,0.2l0.1-0.9
			L568.3,505.6 M568.5,504.1l-0.1,0.9l1.1,0.2l0.1-0.9L568.5,504.1 M568.7,502.7l-0.1,0.9l1.1,0.2l0.1-0.9L568.7,502.7 M568.9,501.3
			l-0.1,0.9l1.1,0.2l0.1-0.9L568.9,501.3 M569.2,499.8l-0.1,0.9l1.1,0.2l0.1-0.9L569.2,499.8 M569.4,498.3l-0.1,0.9l1.1,0.2l0.1-0.9
			L569.4,498.3 M569.6,496.8l-0.1,0.9l1.1,0.2l0.1-0.9L569.6,496.8 M569.8,495.4l-0.1,0.9l1.1,0.2l0.1-0.9L569.8,495.4 M570,494
			l-0.1,0.9l1.1,0.2l0.1-0.9l-0.5-0.1L570,494 M570.2,492.5l-0.1,0.9l1.1,0.2l0.1-0.9L570.2,492.5 M570.4,491l-0.1,0.9l1.1,0.2
			l0.1-0.9L570.4,491 M570.7,489.5l-0.1,0.9l1.1,0.1l0.1-0.9L570.7,489.5 M570.9,488.1l-0.1,0.9l1.1,0.1l0.1-0.9L570.9,488.1
			 M571.1,486.6l-0.1,0.9l1.1,0.2l0.1-0.9L571.1,486.6 M571.3,485.2l-0.1,0.9l1.1,0.2l0.1-0.9L571.3,485.2 M571.5,483.7l-0.1,0.9
			l1.1,0.2l0.1-0.9L571.5,483.7 M571.7,482.2l-0.1,0.9l1.1,0.2l0.1-0.9L571.7,482.2 M571.9,480.8l-0.1,0.9l1.1,0.1l0.1-0.9
			L571.9,480.8 M572.1,479.3l-0.1,0.9l1.1,0.1l0.1-0.9L572.1,479.3 M572.3,477.8l-0.1,0.9l1.1,0.1l0.1-0.9L572.3,477.8 M572.5,476.4
			l-0.1,0.9l1.1,0.1l0.1-0.9L572.5,476.4 M572.7,474.9l-0.1,0.9l1.1,0.1l0.1-0.9L572.7,474.9 M573,473.5l-0.1,0.9l1.1,0.2l0.1-0.9
			L573,473.5 M573.2,472l-0.1,0.9l1.1,0.2l0.1-0.9L573.2,472 M573.4,470.5l-0.1,0.9l1.1,0.2l0.1-0.9L573.4,470.5 M573.6,469.1
			l-0.1,0.9l1.1,0.2l0.1-0.9L573.6,469.1 M573.8,467.6l-0.1,0.9l1.1,0.2l0.1-0.9L573.8,467.6 M574,466.1l-0.1,0.9l1.1,0.2l0.1-0.9
			L574,466.1 M574.2,464.7l-0.1,0.9l1.1,0.2l0.1-0.9L574.2,464.7 M574.4,463.2l-0.1,0.9l1.1,0.2l0.1-0.9L574.4,463.2 M574.7,461.8
			l-0.1,0.9l1.1,0.2l0.1-0.9L574.7,461.8 M574.9,460.3l-0.1,0.9l1.1,0.2l0.1-0.9L574.9,460.3 M575.1,458.9l-0.1,0.9l1.1,0.2l0.1-0.9
			L575.1,458.9 M575.3,457.4l-0.1,0.9l1.1,0.2l0.1-0.9L575.3,457.4 M575.5,456l-0.1,0.9l1.1,0.2l0.1-0.9L575.5,456 M575.7,454.5
			l-0.1,0.9l1.1,0.2l0.1-0.9L575.7,454.5 M576,453l-0.1,0.9l1.1,0.2l0.1-0.9L576,453 M576.2,451.5l-0.1,0.9l1.1,0.2l0.1-0.9
			L576.2,451.5 M576.4,450.1l-0.1,0.9l1.1,0.2l0.1-0.9L576.4,450.1 M576.6,448.6l-0.1,0.9l1.1,0.2l0.1-0.9L576.6,448.6 M576.8,447.2
			l-0.1,0.9l1.1,0.2l0.1-0.9L576.8,447.2 M577.1,445.7l-0.1,0.9l1.1,0.2l0.1-0.9L577.1,445.7 M577.3,444.2l-0.1,0.9l1.1,0.2l0.1-0.9
			L577.3,444.2 M577.5,442.8l-0.1,0.9l1.1,0.2l0.1-0.9L577.5,442.8 M577.7,441.3l-0.1,0.9l1.1,0.2l0.1-0.9L577.7,441.3 M578,439.9
			l-0.1,0.9l1.1,0.2l0.1-0.9L578,439.9 M578.2,438.4l-0.1,0.9l1.1,0.2l0.1-0.9L578.2,438.4 M578.4,436.9l-0.1,0.9l1.1,0.2l0.1-0.9
			L578.4,436.9 M578.6,435.5l-0.1,0.9l1.1,0.2l0.1-0.9L578.6,435.5 M578.9,434l-0.1,0.9l1.1,0.2l0.1-0.9L578.9,434 M579.1,432.6
			l-0.1,0.9l1.1,0.2l0.1-0.9L579.1,432.6 M579.3,431.1l-0.1,0.9l1.1,0.2l0.1-0.9L579.3,431.1 M579.6,429.6l-0.1,0.9l1.1,0.2l0.1-0.9
			L579.6,429.6 M579.8,428.2l-0.1,0.9l1.1,0.2l0.1-0.9L579.8,428.2 M580,426.7l-0.1,0.9l1.1,0.2l0.1-0.9L580,426.7 M580.3,425.3
			l-0.1,0.9l1.1,0.2l0.1-0.9L580.3,425.3 M580.5,423.8l-0.1,0.9l1.1,0.2l0.1-0.9L580.5,423.8 M580.7,422.3l-0.1,0.9l1.1,0.2l0.1-0.9
			L580.7,422.3 M581,420.9l-0.2,0.9l1.1,0.2l0.2-0.9L581,420.9 M581.2,419.4l-0.2,0.9l1.1,0.2l0.2-0.9L581.2,419.4 M581.4,418
			l-0.2,0.9l1.1,0.2l0.2-0.9L581.4,418 M581.7,416.5l-0.2,0.9l1.1,0.2l0.2-0.9L581.7,416.5 M581.9,415.1l-0.2,0.9l1.1,0.2l0.2-0.9
			L581.9,415.1 M582.2,413.6l-0.2,0.9l1.1,0.2l0.2-0.9L582.2,413.6 M582.4,412.2l-0.2,0.9l1.1,0.2l0.2-0.9L582.4,412.2 M582.7,410.7
			l-0.2,0.9l1.1,0.2l0.2-0.9L582.7,410.7 M582.9,409.3l-0.1,0.8l1.1,0.2l0.1-0.8l-0.5-0.2L582.9,409.3 M583.2,407.9l-0.1,0.8
			l1.1,0.2l0.1-0.8l-0.5-0.2L583.2,407.9 M583.4,406.3l-0.2,0.9l1.1,0.2l0.2-0.9L583.4,406.3 M583.7,404.9l-0.2,0.9l1.1,0.2l0.2-0.9
			L583.7,404.9 M584,403.4l-0.2,0.9l1.1,0.2l0.2-0.9L584,403.4 M584.2,402l-0.2,0.8l1.1,0.2l0.2-0.8l-0.5-0.2L584.2,402
			 M584.5,400.5l-0.2,0.9l1.1,0.2l0.2-0.9L584.5,400.5 M584.7,399.1l-0.2,0.9l1.1,0.2l0.2-0.9L584.7,399.1 M585,397.6l-0.2,0.9
			l1.1,0.2l0.2-0.9L585,397.6 M585.3,396.3l-0.2,0.8l1.1,0.2l0.2-0.8l-0.5-0.2L585.3,396.3 M585.6,394.7l-0.2,0.9l1.1,0.2l0.2-0.9
			L585.6,394.7 M585.8,393.3l-0.2,0.9l1.1,0.2l0.2-0.9L585.8,393.3 M586.1,391.8l-0.2,0.9l1.1,0.2l0.2-0.9L586.1,391.8 M586.4,390.4
			l-0.2,0.9l1.1,0.2l0.2-0.9L586.4,390.4 M586.7,388.9l-0.2,0.9l1.1,0.2l0.2-0.9L586.7,388.9 M587,387.5l-0.2,0.9l1.1,0.2l0.2-0.9
			L587,387.5 M587.3,386l-0.2,0.9l1.1,0.2l0.2-0.9L587.3,386 M587.6,384.6l-0.2,0.9l1.1,0.2l0.2-0.9L587.6,384.6 M587.9,383.1
			l-0.2,0.9l1.1,0.2l0.2-0.9L587.9,383.1 M588.2,381.7l-0.2,0.9l1.1,0.2l0.2-0.9L588.2,381.7 M588.6,380.2l-0.2,0.9l1.1,0.2l0.2-0.9
			L588.6,380.2 M588.9,378.8l-0.2,0.9l1.1,0.2l0.2-0.9L588.9,378.8 M589.3,377.3l-0.2,0.9l1.1,0.3l0.2-0.9L589.3,377.3 M589.6,375.9
			l-0.2,0.9l1.1,0.3l0.2-0.9L589.6,375.9 M590,374.5l-0.2,0.9l1,0.3l0.2-0.9L590,374.5 M590.4,373c-0.1,0.3-0.2,0.6-0.3,0.9l1,0.3
			c0.1-0.3,0.2-0.6,0.3-0.9L590.4,373 M590.9,371.6c-0.1,0.3-0.2,0.6-0.3,0.9l1,0.3c0.1-0.3,0.2-0.6,0.3-0.9L590.9,371.6
			 M591.3,370.2c-0.1,0.3-0.2,0.6-0.3,0.9l1,0.3c0.1-0.3,0.2-0.6,0.3-0.9L591.3,370.2 M591.8,368.8l-0.3,0.9l1,0.3l0.3-0.9
			L591.8,368.8 M592.2,367.4l-0.3,0.9l1,0.3l0.3-0.9L592.2,367.4 M592.6,366l-0.2,0.9l1.1,0.2l0.2-0.8L592.6,366 M592.9,364.6
			l-0.2,0.9l1.1,0.3l0.2-0.9L592.9,364.6 M593.2,363.1c-0.1,0.3-0.1,0.6-0.2,0.9l1.1,0.3c0.1-0.3,0.1-0.6,0.2-0.9L593.2,363.1
			 M593.5,361.7l-0.2,0.9l1.1,0.1l0.2-0.8L593.5,361.7 M593.8,360.3l-0.2,0.9l1.1,0.2l0.2-0.9L593.8,360.3 M594.1,358.8
			c0,0.3-0.1,0.6-0.2,0.9l1.1,0.2c0.1-0.3,0.1-0.6,0.2-0.9L594.1,358.8 M594.3,357.4l-0.1,0.9l1.1,0.1l0.1-0.9L594.3,357.4
			 M594.5,355.9l-0.1,0.9l1.1,0.1l0.1-0.9L594.5,355.9 M594.7,354.5l-0.1,0.9l1.1,0.1l0.1-0.9L594.7,354.5 M594.8,353
			c0,0.3-0.1,0.6-0.1,0.9l1.1,0.1c0-0.3,0.1-0.6,0.1-0.9L594.8,353 M595,351.5l-0.1,0.9l1.1,0.1l0.1-0.9L595,351.5 M595.1,350.1
			L595,351l1.1-0.1l0.1-0.8L595.1,350.1 M595.1,348.6l0,0.9l1.1,0.1l0-0.9L595.1,348.6 M595.2,347.2l0,0.9l1.1,0l0-0.9L595.2,347.2
			 M596.3,345.7h-1.1l0,0.9l1.1,0L596.3,345.7 M596.3,344.2l-1.1,0l0,0.9l1.1,0L596.3,344.2 M596.2,342.7l-1.1,0l0,0.9l1.1,0
			L596.2,342.7 M596.1,341.2l-1.1,0.1l0.1,0.9l1.1-0.1L596.1,341.2 M596,339.7l-1.1,0.1c0,0.3,0.1,0.6,0.1,0.9l1.1-0.1
			C596.1,340.4,596.1,340,596,339.7 M595.9,338.3l-1.1,0.1c0,0.3,0.1,0.6,0.1,0.9l1.1-0.1C595.9,338.9,595.9,338.5,595.9,338.3
			 M595.7,336.8l-1.1,0.2c0,0,0.1,0.3,0.1,0.9l1.1-0.1C595.7,337.1,595.7,336.8,595.7,336.8"/>
		<path fill="#6C6361" d="M391.7,796.3c0,0.6,0,1.2,0,1.8c1,0,2,0,3-0.1c0-0.6-0.1-1.2-0.1-1.8C393.7,796.3,392.7,796.3,391.7,796.3
			 M399.5,796.1c-1,0-2,0.1-3,0.1c0,0.6,0,1.2,0,1.8c1,0,2-0.1,3-0.1C399.5,797.3,399.5,796.7,399.5,796.1 M404.2,795.9
			c-1,0-2,0.1-3,0.1c0,0.6,0,1.2,0,1.8c1,0,2-0.1,3-0.1C404.2,797.1,404.2,796.5,404.2,795.9 M387,796.4c0,0.6,0,1.2,0,1.8
			c1,0,2,0,3,0c0-0.6,0-1.2,0-1.8C389,796.4,388,796.4,387,796.4 M408.9,795.6c-1,0.1-2,0.1-3,0.2c0,0.6,0,1.2,0.1,1.8
			c1-0.1,2-0.1,3-0.2C408.9,796.8,408.9,796.2,408.9,795.6 M382.3,796.4c0,0.6,0,1.2,0,1.8c1,0,2,0,3,0c0-0.6,0-1.2,0-1.8
			C384.3,796.4,383.3,796.4,382.3,796.4 M413.6,795.3c-1,0.1-2,0.1-3,0.2c0,0.6,0,1.2,0.1,1.8c1-0.1,2-0.1,3-0.2
			C413.7,796.5,413.7,795.9,413.6,795.3 M418.4,795c-1,0.1-2,0.2-3,0.2c0,0.6,0,1.2,0.1,1.8c1-0.1,2-0.1,3-0.2
			C418.4,796.2,418.4,795.6,418.4,795 M377.6,796.4c0,0.6,0,1.2-0.1,1.8c1,0,2,0,3,0c0-0.6,0-1.2,0-1.8
			C379.6,796.4,378.6,796.4,377.6,796.4 M423.1,794.6c-1,0.1-2,0.2-3,0.3c0,0.6,0.1,1.2,0.1,1.8c1-0.1,2-0.2,3-0.3
			C423.1,795.8,423.1,795.2,423.1,794.6 M372.9,796.3c0,0.6-0.1,1.2-0.1,1.8c1,0,2,0,3,0.1c0-0.6,0-1.2,0.1-1.8
			C374.9,796.4,373.9,796.4,372.9,796.3 M427.8,794.2c-1,0.1-2,0.2-3,0.3c0,0.6,0.1,1.2,0.1,1.8c1-0.1,2-0.2,3-0.3
			C427.9,795.4,427.8,794.8,427.8,794.2 M432.5,793.7c-1,0.1-2,0.2-3,0.3c0,0.6,0.1,1.2,0.1,1.8c1-0.1,2-0.2,3-0.3
			C432.6,794.9,432.5,794.3,432.5,793.7 M368.2,796.2c0,0.6-0.1,1.2-0.1,1.8c1,0,2,0.1,3,0.1c0-0.6,0.1-1.2,0.1-1.8
			C370.2,796.3,369.2,796.2,368.2,796.2 M437.2,793.2c-1,0.1-2,0.2-3,0.3c0,0.6,0.1,1.2,0.1,1.8c1-0.1,2-0.2,3-0.3
			C437.3,794.3,437.3,793.8,437.2,793.2 M363.4,796c0,0.6-0.1,1.2-0.1,1.8c1,0,2,0.1,3,0.1c0-0.6,0.1-1.2,0.1-1.8
			C365.4,796.1,364.4,796,363.4,796 M441.9,792.6c-1,0.1-2,0.2-3,0.4c0,0.6,0.1,1.2,0.1,1.8c1-0.1,2-0.2,3-0.4
			C442,793.8,442,793.2,441.9,792.6 M446.6,792c-1,0.1-2,0.3-3,0.4c0,0.6,0.1,1.2,0.1,1.8c1-0.1,2-0.3,3-0.4
			C446.7,793.2,446.7,792.6,446.6,792 M358.7,795.8c0,0.6-0.1,1.2-0.1,1.8c1,0.1,2,0.1,3,0.2c0-0.6,0.1-1.2,0.1-1.8
			C360.7,795.9,359.7,795.8,358.7,795.8 M451.3,791.3c-1,0.1-2,0.3-3,0.4c0,0.6,0.1,1.2,0.1,1.8c1-0.1,2-0.3,3-0.4
			C451.4,792.5,451.4,791.9,451.3,791.3 M354,795.5c-0.1,0.6-0.1,1.2-0.2,1.8c1,0.1,2,0.1,3,0.2c0-0.6,0.1-1.2,0.1-1.8
			C356,795.6,355,795.5,354,795.5 M456,790.6c-1,0.2-2,0.3-3,0.5c0.1,0.6,0.1,1.2,0.2,1.8c1-0.1,2-0.3,3-0.5
			C456.1,791.8,456.1,791.2,456,790.6 M349.3,795.1c-0.1,0.6-0.1,1.2-0.2,1.8c1,0.1,2,0.2,3,0.2c0.1-0.6,0.1-1.2,0.2-1.8
			C351.3,795.3,350.3,795.2,349.3,795.1 M460.7,789.9c-1,0.2-2,0.3-3,0.5c0.1,0.6,0.1,1.2,0.2,1.8c1-0.2,2-0.3,3-0.5
			C460.8,791,460.8,790.4,460.7,789.9 M465.4,789.1c-1,0.2-2,0.3-3,0.5c0.1,0.6,0.1,1.2,0.2,1.8c1-0.2,2-0.3,3-0.5
			C465.5,790.2,465.4,789.6,465.4,789.1 M344.6,794.7c-0.1,0.6-0.1,1.2-0.2,1.8c1,0.1,2,0.2,3,0.3c0.1-0.6,0.1-1.2,0.2-1.8
			C346.5,794.9,345.5,794.8,344.6,794.7 M470.1,788.2c-1,0.2-2,0.4-3,0.5c0.1,0.6,0.1,1.2,0.2,1.8c1-0.2,2-0.4,3-0.5
			C470.2,789.4,470.1,788.8,470.1,788.2 M339.8,794.3c-0.1,0.6-0.1,1.2-0.2,1.8c1,0.1,2,0.2,3,0.3c0.1-0.6,0.1-1.2,0.2-1.8
			C341.8,794.5,340.8,794.4,339.8,794.3 M474.7,787.3c-0.9,0.2-1.8,0.3-2.7,0.5c-0.1,0.3-0.1,0.6-0.2,0.9c0.1,0.3,0.3,0.5,0.4,0.8
			c0.9-0.2,1.8-0.3,2.7-0.5C474.9,788.5,474.8,787.9,474.7,787.3 M479.4,786.4c-0.9,0.2-1.8,0.4-2.7,0.5c-0.1,0.3-0.1,0.6-0.2,0.9
			c0.1,0.3,0.3,0.5,0.4,0.8c0.9-0.2,1.8-0.4,2.6-0.5C479.5,787.6,479.5,787,479.4,786.4 M335.1,793.8c-0.1,0.6-0.1,1.2-0.2,1.8
			c1,0.1,2,0.2,3,0.3c0.1-0.6,0.1-1.2,0.2-1.8C337.1,794,336.1,793.9,335.1,793.8 M484.1,785.4c-1,0.2-2,0.4-3,0.6
			c0.1,0.6,0.1,1.2,0.2,1.7c1-0.2,2-0.4,2.9-0.6C484.2,786.6,484.1,786,484.1,785.4 M330.4,793.3c-0.1,0.6-0.2,1.2-0.2,1.8
			c1,0.1,2,0.2,3,0.4c0.1-0.6,0.2-1.2,0.2-1.8C332.4,793.5,331.4,793.4,330.4,793.3 M488.7,784.4c-1,0.2-2,0.4-2.9,0.7
			c0.1,0.6,0.1,1.2,0.2,1.7c1-0.2,2-0.4,2.9-0.7C488.9,785.6,488.8,785,488.7,784.4 M325.7,792.7c-0.1,0.6-0.2,1.2-0.3,1.8
			c1,0.1,2,0.3,3,0.4c0.1-0.6,0.2-1.2,0.3-1.8C327.7,792.9,326.7,792.8,325.7,792.7 M493.4,783.3c-1,0.2-2,0.5-2.9,0.7
			c0.1,0.6,0.2,1.2,0.2,1.7c1-0.2,2-0.5,2.9-0.7C493.5,784.5,493.4,783.9,493.4,783.3 M498,782.2c-1,0.2-1.9,0.5-2.9,0.7
			c0.1,0.6,0.2,1.2,0.2,1.7c1-0.2,2-0.5,2.9-0.7C498.2,783.4,498.1,782.8,498,782.2 M321,792c-0.1,0.6-0.2,1.2-0.3,1.7
			c1,0.1,2,0.3,3,0.4c0.1-0.6,0.2-1.2,0.3-1.8C323,792.3,322,792.2,321,792 M502.6,781c-1,0.2-1.9,0.5-2.9,0.7
			c0.1,0.6,0.2,1.2,0.2,1.7c1-0.2,2-0.5,2.9-0.7C502.8,782.2,502.7,781.6,502.6,781 M316.3,791.3c-0.1,0.6-0.2,1.2-0.3,1.7
			c1,0.2,2,0.3,3,0.4c0.1-0.6,0.2-1.2,0.3-1.7C318.3,791.6,317.3,791.5,316.3,791.3 M507.3,779.8c-1,0.3-1.9,0.5-2.9,0.8
			c0.1,0.6,0.2,1.2,0.3,1.7c1-0.3,2-0.5,2.9-0.8C507.4,781,507.3,780.4,507.3,779.8 M311.6,790.6c-0.1,0.6-0.2,1.2-0.3,1.7
			c1,0.2,2,0.3,3,0.5c0.1-0.6,0.2-1.2,0.3-1.7C313.6,790.9,312.6,790.7,311.6,790.6 M511.9,778.6c-1,0.3-1.9,0.5-2.9,0.8
			c0.1,0.6,0.2,1.1,0.3,1.7c1-0.3,2-0.5,2.9-0.8C512.1,779.7,512,779.2,511.9,778.6 M516.5,777.3c-1,0.3-1.9,0.6-2.9,0.8
			c0.1,0.6,0.2,1.1,0.3,1.7c1-0.3,2-0.6,2.9-0.8C516.7,778.4,516.6,777.9,516.5,777.3 M307,789.8c-0.1,0.6-0.2,1.2-0.3,1.7
			c1,0.2,2,0.3,3,0.5c0.1-0.6,0.2-1.2,0.3-1.7C308.9,790.1,307.9,790,307,789.8 M521.1,776c-1,0.3-1.9,0.6-2.9,0.9
			c0.1,0.6,0.2,1.1,0.3,1.7c1-0.3,1.9-0.6,2.9-0.9C521.3,777.1,521.2,776.5,521.1,776 M302.3,788.9c-0.1,0.6-0.2,1.2-0.3,1.7
			c1,0.2,2,0.4,3,0.5c0.1-0.6,0.2-1.2,0.3-1.7C304.2,789.3,303.3,789.1,302.3,788.9 M525.7,774.6c-1,0.3-1.9,0.6-2.9,0.9
			c0.1,0.6,0.2,1.1,0.3,1.7c1-0.3,1.9-0.6,2.9-0.9C525.9,775.7,525.8,775.1,525.7,774.6 M297.6,788.1c-0.1,0.6-0.2,1.1-0.3,1.7
			c1,0.2,2,0.4,3,0.6c0.1-0.6,0.2-1.1,0.3-1.7C299.6,788.4,298.6,788.3,297.6,788.1 M530.3,773.1c-1,0.3-1.9,0.6-2.9,0.9
			c0.1,0.6,0.2,1.1,0.3,1.7c1-0.3,1.9-0.6,2.9-0.9C530.5,774.3,530.4,773.7,530.3,773.1 M534.8,771.7c-1,0.3-1.9,0.6-2.9,0.9
			c0.1,0.6,0.2,1.1,0.3,1.7c1-0.3,1.9-0.6,2.9-1C535.1,772.8,535,772.2,534.8,771.7 M292.9,787.1c-0.1,0.6-0.2,1.1-0.4,1.7
			c1,0.2,2,0.4,3,0.6c0.1-0.6,0.2-1.1,0.3-1.7C294.9,787.5,293.9,787.3,292.9,787.1 M539,770.2c-0.8,0.3-1.7,0.6-2.5,0.9
			c0.1,0.6,0.2,1.1,0.4,1.7c0.8-0.3,1.7-0.6,2.5-0.9C539.3,771.4,539.2,770.8,539,770.2 M288.3,786.1c-0.1,0.6-0.3,1.1-0.4,1.7
			c1,0.2,2,0.4,3,0.6c0.1-0.6,0.2-1.1,0.4-1.7C290.2,786.6,289.2,786.4,288.3,786.1 M283.6,785.1c-0.1,0.6-0.3,1.1-0.4,1.7
			c1,0.2,2,0.4,3,0.7c0.1-0.6,0.3-1.1,0.4-1.7C285.6,785.6,284.6,785.3,283.6,785.1 M278.9,784c-0.1,0.6-0.3,1.1-0.4,1.7
			c1,0.2,2,0.5,2.9,0.7c0.1-0.6,0.3-1.1,0.4-1.7C280.9,784.5,279.9,784.3,278.9,784 M274.3,782.9c-0.1,0.6-0.3,1.1-0.4,1.7
			c1,0.2,2,0.5,2.9,0.7c0.1-0.6,0.3-1.1,0.4-1.7C276.3,783.4,275.3,783.1,274.3,782.9 M269.7,781.7c-0.1,0.6-0.3,1.1-0.4,1.7
			c1,0.3,2,0.5,2.9,0.8c0.1-0.6,0.3-1.1,0.4-1.7C271.6,782.2,270.6,782,269.7,781.7 M265,780.5c-0.1,0.6-0.3,1.1-0.4,1.7
			c1,0.3,2,0.5,2.9,0.8c0.1-0.6,0.3-1.1,0.4-1.7C267,781,266,780.8,265,780.5 M260.4,779.2c-0.2,0.6-0.3,1.1-0.5,1.7
			c1,0.3,2,0.5,2.9,0.8c0.2-0.6,0.3-1.1,0.5-1.7C262.4,779.8,261.4,779.5,260.4,779.2 M255.8,777.9c-0.2,0.6-0.3,1.1-0.5,1.7
			c1,0.3,1.9,0.6,2.9,0.8c0.2-0.6,0.3-1.1,0.5-1.7C257.7,778.5,256.8,778.2,255.8,777.9 M251.2,776.5c-0.2,0.5-0.3,1.1-0.5,1.6
			c1,0.3,1.9,0.6,2.9,0.9c0.2-0.6,0.3-1.1,0.5-1.7C253.1,777.1,252.2,776.8,251.2,776.5 M246.6,775.1c-0.2,0.5-0.3,1.1-0.5,1.6
			c1,0.3,1.9,0.6,2.9,0.9c0.1-0.3,0.2-0.5,0.3-0.8c0-0.3,0-0.6,0-0.9C248.4,775.7,247.5,775.4,246.6,775.1 M242,773.7
			c-0.2,0.5-0.4,1.1-0.5,1.6c1,0.3,1.9,0.6,2.9,0.9c0.2-0.5,0.4-1.1,0.5-1.6C243.9,774.3,243,774,242,773.7 M237.4,772.1
			c-0.2,0.5-0.4,1.1-0.6,1.6c1,0.3,1.9,0.7,2.9,1c0.2-0.5,0.4-1.1,0.5-1.6C239.4,772.8,238.4,772.5,237.4,772.1 M232.9,770.6
			c-0.2,0.5-0.4,1.1-0.6,1.6c1,0.3,1.9,0.7,2.9,1c0.2-0.5,0.4-1.1,0.6-1.6C234.8,771.2,233.8,770.9,232.9,770.6"/>
		<path fill="#6C6361" d="M391.7,791.3c0,0.6,0,1.2,0,1.8c1,0,2,0,3-0.1c0-0.6-0.1-1.2-0.1-1.8C393.7,791.3,392.7,791.3,391.7,791.3
			 M399.5,791.1c-1,0-2,0.1-3,0.1c0,0.6,0,1.2,0,1.8c1,0,2-0.1,3-0.1C399.5,792.3,399.5,791.7,399.5,791.1 M404.2,790.9
			c-1,0-2,0.1-3,0.1c0,0.6,0,1.2,0,1.8c1,0,2-0.1,3-0.1C404.2,792.1,404.2,791.5,404.2,790.9 M387,791.4c0,0.6,0,1.2,0,1.8
			c1,0,2,0,3,0c0-0.6,0-1.2,0-1.8C389,791.4,388,791.4,387,791.4 M408.9,790.6c-1,0.1-2,0.1-3,0.2c0,0.6,0,1.2,0.1,1.8
			c1-0.1,2-0.1,3-0.2C408.9,791.8,408.9,791.2,408.9,790.6 M382.3,791.4c0,0.6,0,1.2,0,1.8c1,0,2,0,3,0c0-0.6,0-1.2,0-1.8
			C384.3,791.4,383.3,791.4,382.3,791.4 M413.6,790.3c-1,0.1-2,0.1-3,0.2c0,0.6,0,1.2,0.1,1.8c1-0.1,2-0.1,3-0.2
			C413.7,791.5,413.7,790.9,413.6,790.3 M418.4,790c-1,0.1-2,0.2-3,0.2c0,0.6,0,1.2,0.1,1.8c1-0.1,2-0.1,3-0.2
			C418.4,791.2,418.4,790.6,418.4,790 M377.6,791.4c0,0.6,0,1.2-0.1,1.8c1,0,2,0,3,0c0-0.6,0-1.2,0-1.8
			C379.6,791.4,378.6,791.4,377.6,791.4 M423.1,789.6c-1,0.1-2,0.2-3,0.3c0,0.6,0.1,1.2,0.1,1.8c1-0.1,2-0.2,3-0.3
			C423.1,790.8,423.1,790.2,423.1,789.6 M372.9,791.3c0,0.6-0.1,1.2-0.1,1.8c1,0,2,0,3,0.1c0-0.6,0-1.2,0.1-1.8
			C374.9,791.4,373.9,791.3,372.9,791.3 M427.8,789.2c-1,0.1-2,0.2-3,0.3c0,0.6,0.1,1.2,0.1,1.8c1-0.1,2-0.2,3-0.3
			C427.9,790.3,427.8,789.8,427.8,789.2 M432.5,788.7c-1,0.1-2,0.2-3,0.3c0,0.6,0.1,1.2,0.1,1.8c1-0.1,2-0.2,3-0.3
			C432.6,789.9,432.5,789.3,432.5,788.7 M368.2,791.2c0,0.6-0.1,1.2-0.1,1.8c1,0,2,0.1,3,0.1c0-0.6,0.1-1.2,0.1-1.8
			C370.2,791.3,369.2,791.2,368.2,791.2 M437.2,788.2c-1,0.1-2,0.2-3,0.3c0,0.6,0.1,1.2,0.1,1.8c1-0.1,2-0.2,3-0.3
			C437.3,789.3,437.3,788.7,437.2,788.2 M363.4,791c0,0.6-0.1,1.2-0.1,1.8c1,0,2,0.1,3,0.1c0-0.6,0.1-1.2,0.1-1.8
			C365.4,791.1,364.4,791,363.4,791 M441.9,787.6c-1,0.1-2,0.2-3,0.4c0,0.6,0.1,1.2,0.1,1.8c1-0.1,2-0.2,3-0.4
			C442,788.8,442,788.2,441.9,787.6 M446.6,787c-1,0.1-2,0.3-3,0.4c0,0.6,0.1,1.2,0.1,1.8c1-0.1,2-0.3,3-0.4
			C446.7,788.1,446.7,787.6,446.6,787 M358.7,790.8c0,0.6-0.1,1.2-0.1,1.8c1,0.1,2,0.1,3,0.2c0-0.6,0.1-1.2,0.1-1.8
			C360.7,790.9,359.7,790.8,358.7,790.8 M451.3,786.3c-1,0.1-2,0.3-3,0.4c0,0.6,0.1,1.2,0.1,1.8c1-0.1,2-0.3,3-0.4
			C451.4,787.5,451.4,786.9,451.3,786.3 M354,790.5c-0.1,0.6-0.1,1.2-0.2,1.8c1,0.1,2,0.1,3,0.2c0-0.6,0.1-1.2,0.1-1.8
			C356,790.6,355,790.5,354,790.5 M456,785.6c-1,0.2-2,0.3-3,0.5c0.1,0.6,0.1,1.2,0.2,1.8c1-0.1,2-0.3,3-0.5
			C456.1,786.8,456.1,786.2,456,785.6 M349.3,790.1c-0.1,0.6-0.1,1.2-0.2,1.8c1,0.1,2,0.2,3,0.2c0.1-0.6,0.1-1.2,0.2-1.8
			C351.3,790.3,350.3,790.2,349.3,790.1 M460.7,784.8c-1,0.2-2,0.3-3,0.5c0.1,0.6,0.1,1.2,0.2,1.8c1-0.2,2-0.3,3-0.5
			C460.8,786,460.8,785.4,460.7,784.8 M465.4,784c-1,0.2-2,0.3-3,0.5c0.1,0.6,0.1,1.2,0.2,1.8c1-0.2,2-0.3,3-0.5
			C465.5,785.2,465.4,784.6,465.4,784 M344.6,789.7c-0.1,0.6-0.1,1.2-0.2,1.8c1,0.1,2,0.2,3,0.3c0.1-0.6,0.1-1.2,0.2-1.8
			C346.5,789.9,345.5,789.8,344.6,789.7 M470.1,783.2c-1,0.2-2,0.4-3,0.5c0.1,0.6,0.1,1.2,0.2,1.8c1-0.2,2-0.4,3-0.5
			C470.2,784.4,470.1,783.8,470.1,783.2 M339.8,789.3c-0.1,0.6-0.1,1.2-0.2,1.8c1,0.1,2,0.2,3,0.3c0.1-0.6,0.1-1.2,0.2-1.8
			C341.8,789.5,340.8,789.4,339.8,789.3 M474.7,782.3c-0.9,0.2-1.8,0.3-2.7,0.5c-0.1,0.3-0.1,0.6-0.2,0.9c0.1,0.3,0.3,0.5,0.4,0.8
			c0.9-0.2,1.8-0.3,2.7-0.5C474.9,783.5,474.8,782.9,474.7,782.3 M479.4,781.4c-0.9,0.2-1.8,0.4-2.7,0.5c-0.1,0.3-0.1,0.6-0.2,0.9
			c0.1,0.3,0.3,0.5,0.4,0.8c0.9-0.2,1.8-0.4,2.6-0.5C479.5,782.6,479.5,782,479.4,781.4 M335.1,788.8c-0.1,0.6-0.1,1.2-0.2,1.8
			c1,0.1,2,0.2,3,0.3c0.1-0.6,0.1-1.2,0.2-1.8C337.1,789,336.1,788.9,335.1,788.8 M484.1,780.4c-1,0.2-2,0.4-3,0.6
			c0.1,0.6,0.1,1.2,0.2,1.7c1-0.2,2-0.4,2.9-0.6C484.2,781.6,484.1,781,484.1,780.4 M330.4,788.2c-0.1,0.6-0.2,1.2-0.2,1.8
			c1,0.1,2,0.2,3,0.4c0.1-0.6,0.2-1.2,0.2-1.8C332.4,788.5,331.4,788.4,330.4,788.2 M488.7,779.4c-1,0.2-2,0.4-2.9,0.7
			c0.1,0.6,0.1,1.2,0.2,1.7c1-0.2,2-0.4,2.9-0.7C488.9,780.5,488.8,780,488.7,779.4 M325.7,787.7c-0.1,0.6-0.2,1.2-0.3,1.8
			c1,0.1,2,0.3,3,0.4c0.1-0.6,0.2-1.2,0.3-1.8C327.7,787.9,326.7,787.8,325.7,787.7 M493.4,778.3c-1,0.2-2,0.5-2.9,0.7
			c0.1,0.6,0.2,1.2,0.2,1.7c1-0.2,2-0.5,2.9-0.7C493.5,779.5,493.4,778.9,493.4,778.3 M498,777.2c-1,0.2-1.9,0.5-2.9,0.7
			c0.1,0.6,0.2,1.2,0.2,1.7c1-0.2,2-0.5,2.9-0.7C498.2,778.4,498.1,777.8,498,777.2 M321,787c-0.1,0.6-0.2,1.2-0.3,1.7
			c1,0.1,2,0.3,3,0.4c0.1-0.6,0.2-1.2,0.3-1.8C323,787.3,322,787.1,321,787 M502.6,776c-1,0.2-1.9,0.5-2.9,0.7
			c0.1,0.6,0.2,1.2,0.2,1.7c1-0.2,2-0.5,2.9-0.7C502.8,777.2,502.7,776.6,502.6,776 M316.3,786.3c-0.1,0.6-0.2,1.2-0.3,1.7
			c1,0.2,2,0.3,3,0.4c0.1-0.6,0.2-1.2,0.3-1.7C318.3,786.6,317.3,786.5,316.3,786.3 M507.3,774.8c-1,0.3-1.9,0.5-2.9,0.8
			c0.1,0.6,0.2,1.2,0.3,1.7c1-0.3,2-0.5,2.9-0.8C507.4,776,507.3,775.4,507.3,774.8 M311.6,785.6c-0.1,0.6-0.2,1.2-0.3,1.7
			c1,0.2,2,0.3,3,0.5c0.1-0.6,0.2-1.2,0.3-1.7C313.6,785.9,312.6,785.7,311.6,785.6 M511.9,773.6c-1,0.3-1.9,0.5-2.9,0.8
			c0.1,0.6,0.2,1.1,0.3,1.7c1-0.3,2-0.5,2.9-0.8C512.1,774.7,512,774.2,511.9,773.6 M516.5,772.3c-1,0.3-1.9,0.6-2.9,0.8
			c0.1,0.6,0.2,1.1,0.3,1.7c1-0.3,2-0.6,2.9-0.8C516.7,773.4,516.6,772.9,516.5,772.3 M307,784.8c-0.1,0.6-0.2,1.2-0.3,1.7
			c1,0.2,2,0.3,3,0.5c0.1-0.6,0.2-1.2,0.3-1.7C308.9,785.1,307.9,785,307,784.8 M521.1,771c-1,0.3-1.9,0.6-2.9,0.9
			c0.1,0.6,0.2,1.1,0.3,1.7c1-0.3,1.9-0.6,2.9-0.9C521.3,772.1,521.2,771.5,521.1,771 M302.3,783.9c-0.1,0.6-0.2,1.2-0.3,1.7
			c1,0.2,2,0.4,3,0.5c0.1-0.6,0.2-1.2,0.3-1.7C304.2,784.3,303.3,784.1,302.3,783.9 M525.7,769.6c-1,0.3-1.9,0.6-2.9,0.9
			c0.1,0.6,0.2,1.1,0.3,1.7c1-0.3,1.9-0.6,2.9-0.9C525.9,770.7,525.8,770.1,525.7,769.6 M297.6,783.1c-0.1,0.6-0.2,1.1-0.3,1.7
			c1,0.2,2,0.4,3,0.6c0.1-0.6,0.2-1.1,0.3-1.7C299.6,783.4,298.6,783.2,297.6,783.1 M530.3,768.1c-1,0.3-1.9,0.6-2.9,0.9
			c0.1,0.6,0.2,1.1,0.3,1.7c1-0.3,1.9-0.6,2.9-0.9C530.5,769.3,530.4,768.7,530.3,768.1 M534.8,766.6c-1,0.3-1.9,0.6-2.9,0.9
			c0.1,0.6,0.2,1.1,0.3,1.7c1-0.3,1.9-0.6,2.9-1C535.1,767.8,535,767.2,534.8,766.6 M292.9,782.1c-0.1,0.6-0.2,1.1-0.4,1.7
			c1,0.2,2,0.4,3,0.6c0.1-0.6,0.2-1.1,0.3-1.7C294.9,782.5,293.9,782.3,292.9,782.1 M539,765.2c-0.8,0.3-1.7,0.6-2.5,0.9
			c0.1,0.6,0.2,1.1,0.4,1.7c0.8-0.3,1.7-0.6,2.5-0.9C539.3,766.3,539.2,765.8,539,765.2 M288.3,781.1c-0.1,0.6-0.3,1.1-0.4,1.7
			c1,0.2,2,0.4,3,0.6c0.1-0.6,0.2-1.1,0.4-1.7C290.2,781.6,289.2,781.3,288.3,781.1 M283.6,780.1c-0.1,0.6-0.3,1.1-0.4,1.7
			c1,0.2,2,0.4,3,0.7c0.1-0.6,0.3-1.1,0.4-1.7C285.6,780.5,284.6,780.3,283.6,780.1 M278.9,779c-0.1,0.6-0.3,1.1-0.4,1.7
			c1,0.2,2,0.5,2.9,0.7c0.1-0.6,0.3-1.1,0.4-1.7C280.9,779.5,279.9,779.3,278.9,779 M274.3,777.9c-0.1,0.6-0.3,1.1-0.4,1.7
			c1,0.2,2,0.5,2.9,0.7c0.1-0.6,0.3-1.1,0.4-1.7C276.3,778.4,275.3,778.1,274.3,777.9 M269.7,776.7c-0.1,0.6-0.3,1.1-0.4,1.7
			c1,0.3,2,0.5,2.9,0.8c0.1-0.6,0.3-1.1,0.4-1.7C271.6,777.2,270.6,777,269.7,776.7 M265,775.5c-0.1,0.6-0.3,1.1-0.4,1.7
			c1,0.3,2,0.5,2.9,0.8c0.1-0.6,0.3-1.1,0.4-1.7C267,776,266,775.8,265,775.5 M260.4,774.2c-0.2,0.6-0.3,1.1-0.5,1.7
			c1,0.3,2,0.5,2.9,0.8c0.2-0.6,0.3-1.1,0.5-1.7C262.4,774.8,261.4,774.5,260.4,774.2 M255.8,772.9c-0.2,0.6-0.3,1.1-0.5,1.7
			c1,0.3,1.9,0.6,2.9,0.8c0.2-0.6,0.3-1.1,0.5-1.7C257.7,773.5,256.8,773.2,255.8,772.9 M251.2,771.5c-0.2,0.5-0.3,1.1-0.5,1.6
			c1,0.3,1.9,0.6,2.9,0.9c0.2-0.6,0.3-1.1,0.5-1.7C253.1,772.1,252.2,771.8,251.2,771.5 M246.6,770.1c-0.2,0.5-0.3,1.1-0.5,1.6
			c1,0.3,1.9,0.6,2.9,0.9c0.1-0.3,0.2-0.5,0.3-0.8c0-0.3,0-0.6,0-0.9C248.4,770.7,247.5,770.4,246.6,770.1 M242,768.7
			c-0.2,0.5-0.4,1.1-0.5,1.6c1,0.3,1.9,0.6,2.9,0.9c0.2-0.5,0.4-1.1,0.5-1.6C243.9,769.3,243,769,242,768.7 M237.4,767.1
			c-0.2,0.5-0.4,1.1-0.6,1.6c1,0.3,1.9,0.7,2.9,1c0.2-0.5,0.4-1.1,0.5-1.6C239.4,767.8,238.4,767.5,237.4,767.1 M232.9,765.6
			c-0.2,0.5-0.4,1.1-0.6,1.6c1,0.3,1.9,0.7,2.9,1c0.2-0.5,0.4-1.1,0.6-1.6C234.8,766.2,233.8,765.9,232.9,765.6"/>
	</g>
</g>
<g id="SHADING">
	<g opacity="2.000000e-02">
		<path d="M143.7,472.6c-2.7-2.7-35.1-30.8-35.1-30.8s18.4,22.1,27.8,30.4c9.4,8.4,20.4,11.4,32.5,15.4c12,4,28.8,7,28.8,7
			S146.3,475.3,143.7,472.6z"/>
		<path d="M180.8,476.9c0.3,0.6,0.3,0.8-0.1,0.8c-2.6,0-21-13.2-21-13.2l3.3,7.4l20.4,9.7c0,0,0.4,0,0.9,0c1.3,0,3.7-0.2,4.1-1.4
			c0.7-1.7-9-9.7-12.7-14.4c-3.7-4.7-35.5-43.5-37.5-47.5c-2-4-19.7-15.7-19.7-15.7s14.4,16.4,20.4,24.1
			C145,434.5,178.1,472.3,180.8,476.9z"/>
		<path d="M160,476.9c0,0-22.7-23.8-26.4-28.1c-3.7-4.3-19.1-16.4-19.1-16.4l28.8,31.4L160,476.9z"/>
		<path d="M171.4,444.2c7.7,7.7,15.7,18.1,15.7,18.1s-6.7-17.4-10-25.1c-3.3-7.6-8.9-36.5-14.5-36.5l-0.2,0c-5.7,0.7-2,12.4,2,20.7
			c4,8.4,8.4,15.1,8.4,15.1s-9.7-3.3-15.4-12.4c-5.6-8.9-18.6-38.5-22.6-38.5l-0.2,0c-3.7,1,2.3,17.4,8.4,27.1
			C149,422.4,163.7,436.5,171.4,444.2z"/>
		<path d="M624.7,383.9c0,0-17.7,22.4-27.4,38.8c-9.7,16.4-25.4,45.8-25.4,45.8s20.1-28.8,21.7-30.8
			C595.3,435.8,624.7,383.9,624.7,383.9z"/>
		<path d="M581.8,486c-1.6,0-4.2,0.7-4.2,0.7s-0.7-8.7,2-16.4s20.4-27.8,30.8-41.1c10.4-13.4,30.4-24.1,30.4-24.1
			s-15.1,5.7-28.4,16.4c-13.4,10.7-25.4,28.4-25.4,28.4s-14.4,20.4-15.7,23.4c-1.3,3-5,29.8-5,29.8s4,2,5.8,2c0.5,0,0.9-0.2,0.9-0.6
			c0-2,2.7-2.7,7.4-4.3c4.7-1.7-1.3-9.4,2-12.4C583.7,486.4,583,486,581.8,486z"/>
		<path d="M591.3,460.6c-8.7,3.7-8.4,15.4-8.4,15.4s3.7-4.7,6.4-8c2.7-3.3,7-3.3,18.7-7.4c11.7-4,21.1-16.7,21.1-16.7s-5,4.3-12.4,8
			C609.3,455.5,600,456.9,591.3,460.6z"/>
	</g>
	<g>
	</g>
</g>
</svg>
