<?xml version="1.0" encoding="utf-8"?>
<!-- Generator: Adobe Illustrator 27.1.1, SVG Export Plug-In . SVG Version: 6.00 Build 0)  -->
<svg version="1.1" xmlns="http://www.w3.org/2000/svg" xmlns:xlink="http://www.w3.org/1999/xlink" x="0px" y="0px"
	 viewBox="0 0 630 1037.3" enable-background="new 0 0 777.6 1037.3" xml:space="preserve">

<g id="OUTLINE">
	<g>
		<path fill="#FFFFFF" stroke="#897F76" stroke-width="1.3391" stroke-miterlimit="10" d="M538.6,766.2c0.1,0,0.3,0,0.4-0.1
			c0.2,0,0.3-0.1,0.4-0.1C539.1,766.1,538.9,766.2,538.6,766.2z"/>
	</g>
	<path fill="#FFFFFF" stroke="#897F76" stroke-width="1.3232" stroke-miterlimit="10" d="M651,515.7l-2.6-12.8
		c0,0-1.7-73.2-10.2-103c-8.5-29.8-37.4-51.9-42.5-53.6c-3.8-1.3-10-5.4-12.9-7.4c-1-0.7-1.6-1.1-1.6-1.1s-23-7.7-55.3-20.4
		c-20.4-8.1-38.4-20.2-50-28.9c-6.8-5.1-11.4-9-12.9-10.3c-4.3-3.4-4.3-6-8.5-8.5c-4.3-2.6-6-10.2-14.5-14.5
		c-5.4-2.7-29.8-3.7-46.8-4.1l0-0.2c0,0-3.3,0-8.5,0.1c-5.2-0.1-8.5-0.1-8.5-0.1l0,0.2c-17,0.4-41.4,1.3-46.8,4.1
		c-8.5,4.3-10.2,11.9-14.5,14.5c-4.3,2.6-4.3,5.1-8.5,8.5c-1.2,1-4.4,3.7-9.1,7.3c-11.2,8.7-31.1,22.8-53.9,31.8
		c-32.3,12.8-55.3,20.4-55.3,20.4s-0.8,0.5-1.9,1.4c-3,2.1-8.9,5.9-12.5,7.2c-5.1,1.7-34,23.8-42.5,53.6
		c-8.5,29.8-10.2,103-10.2,103l-2.6,12.8l-2.6,7.7c0,0,16.9,9.2,55.1,11.1c25.6,1.3,42.1,1.9,42.1,1.9s1.5-3.6,0.6-8.8
		c-0.9-5.1-1.7-6.8-0.9-9.4c0.8-2.4,3.8-10,4.2-11c0-0.1,0-0.1,0-0.1s5.1,27.2,4.3,38.3c-0.9,11.1,5.1,80,9.4,101.3
		c4.3,21.3,9.4,75.7,5.1,98.7l-2.3,15.2c0,0,20.2,7.9,42.6,11.1c26.9,3.8,45.5,7,104.6,4.9c59.1-2.1,95.4-4,116.9-6.6
		c21.5-2.6,39.7-6.7,37.7-14.5c-6.2-24.9-0.8-87.4,3.5-108.7c4.3-21.3,10.2-90.2,9.4-101.3c-0.7-9.5,2.9-31,4-36.8
		c0.2-0.9,0.3-1.5,0.3-1.5s3.4,8.5,4.3,11.1c0.9,2.6,0,4.3-0.9,9.4c-0.9,5.1,1.5,8.6,1.5,8.6s15.8,0,41.4-1.7
		c25.5-1.7,55.2-9.3,55.2-9.3L651,515.7z"/>
</g>
  <g id="MASKF">
<g id="SHIRT_BODY">
	<g>
		<path fill="#FFFFFF" d="M381,775.7c58.7-2.1,94.8-4,116.1-6.6c21.4-2.6,39.4-6.6,37.5-14.4c-6.2-24.7-0.8-86.9,3.4-108
			c4.2-21.1,10.1-89.6,9.3-100.6c-0.7-9.5,2.9-30.8,4-36.6c0-3.9,0.1-10,1-14.3c1.4-6.8,11.7-63.9,14-74.7
			c2.3-10.8,12.2-47.3,14-57.2c1.3-7,1.6-17.1,1.8-22.5c-1-0.7-1.6-1.1-1.6-1.1s-22.8-7.6-55-20.3c-20.3-8-38.2-20.1-49.7-28.7
			c-5.7,6.2-29.6,27.8-86.6,28.4c-56.5,0.6-83.7-23.6-90.9-31.3c-11.1,8.7-30.9,22.7-53.6,31.6c-32.1,12.7-55,20.3-55,20.3
			s-0.7,0.5-1.9,1.3c0,0,0,0,0,0c0,0.6,0,1.4,0.1,2.1c0,0.1,0,0.1,0,0.2c0,0.4,0,0.7,0,1.1c0,0,0,0,0,0.1c0,0.4,0,0.8,0,1.2
			c0,0.1,0,0.2,0,0.2c0,0.3,0,0.7,0,1c0,0.1,0,0.2,0,0.3c0,0.4,0,0.8,0.1,1.3c0,0.1,0,0.1,0,0.2c0,0.4,0,0.8,0.1,1.1
			c0,0.1,0,0.3,0,0.4c0,0.4,0,0.7,0.1,1.1c0,0.1,0,0.2,0,0.3c0,0.4,0.1,0.9,0.1,1.3c0,0.1,0,0.2,0,0.4c0,0.3,0.1,0.7,0.1,1
			c0,0.1,0,0.3,0,0.4c0,0.4,0.1,0.9,0.1,1.3c0,0,0,0.1,0,0.1c0,0.4,0.1,0.8,0.1,1.2c0,0.1,0,0.3,0,0.4c0,0.4,0.1,0.7,0.1,1
			c0,0.1,0,0.2,0,0.3c0.1,0.4,0.1,0.9,0.2,1.3c0,0.1,0,0.2,0,0.3c0,0.3,0.1,0.7,0.1,1c0,0.1,0,0.2,0.1,0.3c0.1,0.4,0.1,0.8,0.2,1.2
			c1.8,9.9,11.7,46.4,14,57.2c2.3,10.8,12.6,68,14,74.7c0.1,0.5,0.2,0.9,0.3,1.5c0,0,0,0.1,0,0.1c0.1,0.5,0.1,0.9,0.2,1.4
			c0,0.1,0,0.1,0,0.2c0.1,0.5,0.1,1,0.2,1.5c0,0,0,0.1,0,0.1c0,0.5,0.1,1.1,0.1,1.6c0,0,0,0,0,0c0,0.5,0.1,1.1,0.1,1.6
			c0,0,0,0.1,0,0.1c0,0.5,0,1,0.1,1.5c0,0,0,0.1,0,0.1c0,0.5,0,1,0,1.5c0,0,0,0,0,0c0,0.5,0,1,0,1.5c0-0.1,0-0.1,0-0.1
			s5.1,27.1,4.2,38.1c-0.8,11,5.1,79.5,9.3,100.6c4.2,21.1,9.3,75.3,5.1,98.1l-2.3,15.1c0,0,20.1,7.9,42.4,11
			C303.9,774.6,322.4,777.8,381,775.7z"/>
	</g>
</g>
<g id="SHIRT_SLEEVES">
	<g>
		<path fill="#897F76" d="M215.8,507.3C215.8,507.3,215.8,507.3,215.8,507.3c0-0.5,0-1,0-1.6c0,0,0-0.1,0-0.1c0-0.5,0-1-0.1-1.5
			c0,0,0-0.1,0-0.1c0-0.5-0.1-1.1-0.1-1.6c0,0,0,0,0,0c0-0.6-0.1-1.1-0.1-1.7c0,0,0-0.1,0-0.1c0-0.5-0.1-1-0.2-1.5
			c0-0.1,0-0.1,0-0.2c-0.1-0.5-0.1-1-0.2-1.5c0,0,0-0.1,0-0.1c-0.1-0.5-0.2-1-0.3-1.5c-1.4-6.8-11.8-64.4-14.1-75.3
			s-12.2-47.6-14.1-57.6c-0.1-0.4-0.1-0.8-0.2-1.2c0-0.1,0-0.2-0.1-0.3c-0.1-0.3-0.1-0.6-0.1-1c0-0.1,0-0.2,0-0.3
			c-0.1-0.4-0.1-0.8-0.2-1.3c0-0.1,0-0.2,0-0.3c0-0.3-0.1-0.7-0.1-1.1c0-0.1,0-0.3,0-0.4c0-0.4-0.1-0.8-0.1-1.2c0,0,0-0.1,0-0.1
			c0-0.4-0.1-0.9-0.1-1.3c0-0.1,0-0.3,0-0.4c0-0.3-0.1-0.7-0.1-1c0-0.1,0-0.2,0-0.4c0-0.5-0.1-0.9-0.1-1.3c0-0.1,0-0.2,0-0.3
			c0-0.4,0-0.7-0.1-1.1c0-0.1,0-0.3,0-0.4c0-0.4,0-0.8-0.1-1.1c0-0.1,0-0.1,0-0.2c0-0.4,0-0.9-0.1-1.3c0-0.1,0-0.2,0-0.3
			c0-0.3,0-0.7,0-1c0-0.1,0-0.2,0-0.2c0-0.4,0-0.8,0-1.2c0,0,0,0,0-0.1c0-0.4,0-0.7,0-1.1c0-0.1,0-0.1,0-0.2c0-0.8,0-1.5-0.1-2.1
			c0,0,0,0,0,0c-3,2.1-8.9,5.9-12.6,7.2c-5.1,1.7-34.1,23.9-42.6,53.7c-8.5,29.8-10.2,103.1-10.2,103.1l-2.6,12.8l-2.6,7.7
			c0,0,29.8,7.7,55.4,9.4c25.6,1.7,41.8,1.7,41.8,1.7s1.7-1.7,0.9-6.8c-0.9-5.1-1.7-6.8-0.9-9.4c0.8-2.4,3.8-10,4.2-11l0,0
			C215.8,508.3,215.8,507.8,215.8,507.3z"/>
		<path fill="#897F76" d="M650.4,517.2l-2.6-12.8c0,0-1.7-73.3-10.2-103.1c-8.5-29.8-37.5-52-42.6-53.7c-3.8-1.3-10-5.4-12.9-7.4
			c-0.1,5.4-0.5,15.6-1.8,22.6c-1.8,10-11.8,46.7-14.1,57.6c-2.3,10.9-12.7,68.5-14.1,75.3c-0.9,4.3-1,10.5-1,14.4
			c0.2-0.9,0.3-1.5,0.3-1.5s3.4,8.5,4.3,11.1c0.9,2.6,0,4.3-0.9,9.4c-0.9,5.1,0.9,6.8,0.9,6.8s16.2,0,41.8-1.7
			c25.6-1.7,55.4-9.4,55.4-9.4L650.4,517.2z"/>
	</g>
</g>
<g id="SHIRT_COLLAR">
	<path fill="#64615E" d="M387.8,318.3c57.4-0.6,81.5-22.3,87.2-28.6c-6.8-5.1-11.4-9-13-10.3c-4.3-3.4-4.3-6-8.5-8.5
		c-4.3-2.6-6-10.2-14.5-14.5c-5.4-2.7-29.8-3.7-46.9-4.1l0-0.2c0,0-3.3,0-8.5,0.1c-5.2-0.1-8.5-0.1-8.5-0.1l0,0.2
		c-17,0.4-41.4,1.3-46.9,4.1c-8.5,4.3-10.2,11.9-14.5,14.5c-4.3,2.6-4.3,5.1-8.5,8.5c-1.3,1-4.4,3.7-9.1,7.3
		C303.5,294.6,330.9,318.9,387.8,318.3z"/>
</g>
<g id="SHIRT_CHEVRON_STRIPES">
	<g>
		<path fill="#897F76" d="M559.5,331.7c-2.1-0.8-4.2-1.6-6.6-2.4L390,462.3l-107.4-88.9h-9.4L390,470L559.5,331.7z"/>
		<path fill="#897F76" d="M253.4,349.1l-28.6-23.7c-2.2,0.8-4.4,1.7-6.5,2.4l30.8,25.5C250.2,351.6,251.7,350.2,253.4,349.1z"/>
		<path fill="#897F76" d="M390,507.4L185.3,340.3c-0.1,0.1-0.2,0.1-0.3,0.2c0,0,0,0,0,0c0,0.7,0,1.4,0.1,2.1c0,0.1,0,0.1,0,0.2
			c0,0.4,0,0.7,0,1.1c0,0,0,0,0,0.1c0,0.4,0,0.8,0,1.2c0,0.1,0,0.2,0,0.2c0,0.3,0,0.7,0,1c0,0.1,0,0.2,0,0.3c0,0.4,0,0.9,0.1,1.3
			c0,0,0,0,0,0L390,517.6L580.6,362c0.5-2.8,0.8-5.9,1-9L390,507.4z"/>
		<polygon fill="#897F76" points="235.6,466.5 235.6,473 390,596.9 530.1,484.6 530.1,478.2 390,592.4 		"/>
		<path fill="#897F76" d="M572.8,336.4L390,483.8l-185-151c-2.5,0.9-4.7,1.7-6.7,2.4L390,493.8l189.8-154.9
			C578.7,338.5,576.3,337.7,572.8,336.4z"/>
		<path fill="#897F76" d="M247.9,355.9L215,329.1c-2.3,0.9-4.6,1.7-6.7,2.4l39.3,32.5c-0.4-1.2-0.6-2.5-0.6-3.8
			C247.1,358.7,247.4,357.3,247.9,355.9z"/>
		<path fill="#897F76" d="M569.6,335.3c-2.1-0.7-4.4-1.6-6.9-2.5L390,472l-120.8-98.6h-9.6c-0.3,0-0.5,0-0.8,0L390,481.9
			L569.6,335.3z"/>
		<polygon fill="#897F76" points="235.6,478.4 235.6,484.8 390,608.7 530.1,496.4 530.1,490.1 390,604.3 		"/>
		<path fill="#897F76" d="M390,495.6L194.9,336.3c-3.1,1.1-5.4,1.9-6.8,2.3l201.9,167l191.8-156.6c0.2-3.2,0.3-6.1,0.3-8.4
			L390,495.6z"/>
		<path fill="#897F76" d="M390,519.1L185.5,352.3c0,0.1,0,0.2,0,0.3c0,0.1,0,0.2,0,0.4c0,0.3,0.1,0.7,0.1,1c0,0.1,0,0.3,0,0.4
			c0,0.5,0.1,0.9,0.1,1.3c0,0,0,0.1,0,0.1c0,0.4,0.1,0.8,0.1,1.2c0,0.1,0,0.3,0,0.4c0,0.4,0.1,0.7,0.1,1.1c0,0.1,0,0.2,0,0.3
			c0.1,0.4,0.1,0.9,0.2,1.3c0,0.1,0,0.2,0,0.3c0,0.2,0.1,0.5,0.1,0.7L390,529.5l187.2-152.9c1-4,1.8-7.5,2.4-10.3L390,519.1z"/>
		<polygon fill="#897F76" points="235.6,430.7 235.6,437.7 390,561.5 530.1,449.2 530.1,442.2 390,554.5 		"/>
		<path fill="#897F76" d="M233.4,425.5L390,553.2l140-114.2v-8.6L390,542.7L190.8,380.2c0.3,1.3,0.6,2.6,1,3.9
			C208.7,399.7,225.8,416.5,233.4,425.5z"/>
		<polygon fill="#897F76" points="235.6,442.7 235.6,449.5 390,573.3 530.1,461 530.1,454.4 390,568.6 		"/>
		<path fill="#897F76" d="M390,530.9L187.2,365.5c0.6,2.6,1.4,6.1,2.4,10.1L390,541.3l142.6-116.3c4.9-5.9,25-23.8,42.2-39.1
			c0.4-1.7,0.9-3.4,1.3-5.1L390,530.9z"/>
		<polygon fill="#897F76" points="235.6,454.6 235.6,461.2 390,585.1 530.1,472.8 530.1,466.3 390,580.5 		"/>
		<path fill="#897F76" d="M504.9,309.1L390,402.8L271.4,304c-1.7,1-3.5,2.1-5.3,3.1l124,101.8l120.2-97
			C508.4,311,506.6,310,504.9,309.1z"/>
		<path fill="#897F76" d="M235.6,514v4.7h0c0.6,1,1.1,1.9,1.7,2.8L390,644.1l126.6-101.5c1.6-3,3.5-6.6,5.8-10.5L390,639.9
			L235.6,514z"/>
		<polygon fill="#897F76" points="235.6,490.2 235.6,496.6 390,620.5 530.1,508.2 530.1,502 390,616.1 		"/>
		<path fill="#897F76" d="M496.3,304.1L390,390.9l-110.4-92.2c-1.6,1.1-3.3,2.2-5.1,3.3L390,397.1l111.5-89.9
			C499.7,306.2,498,305.2,496.3,304.1z"/>
		<path fill="#897F76" d="M529.2,320.2c-1.3-0.5-2.7-1-4-1.6c-0.7-0.3-1.3-0.5-2-0.8L390,426.6L253.7,313.6
			c-1.9,0.9-3.8,1.8-5.8,2.7l38.6,31.5c2.8,1,5.2,3,6.9,5.6l96.7,79L529.2,320.2z"/>
		<path fill="#897F76" d="M286.5,347.8l6.9,5.6C291.7,350.8,289.2,348.8,286.5,347.8z"/>
		<path fill="#897F76" d="M513.8,313.7L390,414.7L262.8,308.9c-1.9,1-3.8,2-5.8,3l133,108.7l129.5-104.4
			C517.6,315.4,515.7,314.6,513.8,313.7z"/>
		<path fill="#897F76" d="M244.3,317.8c-0.7,0.3-1.4,0.6-2.1,0.8c-1.4,0.5-2.7,1.1-4,1.6l33,26.9h8.6L244.3,317.8z"/>
		<path fill="#897F76" d="M539.1,324.1c-2-0.8-4-1.5-6.1-2.3L390,438.5L295.3,360c0,0.1,0,0.2,0,0.3c0,2-0.5,3.9-1.3,5.6l96,78.4
			L539.1,324.1z"/>
		<path fill="#897F76" d="M265.4,347.2l-30.8-25.5c-2.1,0.8-4.2,1.6-6.2,2.4l28.7,23.4c0.8-0.2,1.7-0.3,2.6-0.3H265.4z"/>
		<path fill="#897F76" d="M549.1,327.8c-2-0.7-4-1.5-6.1-2.3L390,450.4l-98.2-81.3c-1.2,1.4-2.7,2.5-4.4,3.2L390,456L549.1,327.8z"
			/>
		<path fill="#897F76" d="M530.1,513.9L390,628L235.6,502.1v6.3L390,632.3l138.7-111.2c0.5-0.8,0.9-1.6,1.4-2.4h0V513.9z"/>
		<g>
			<path fill="#897F76" d="M254.8,553.6v26L390,651L242.8,531.2C250.4,544.7,254.8,553.6,254.8,553.6z"/>
			<path fill="#897F76" d="M510.9,587.3v-33.6c0,0,0.3-0.6,0.8-1.6L390,651L510.9,587.3z"/>
		</g>
	</g>
</g>
<g id="SHIRT_ACCENT_STRIPES">
	<g>
		<path d="M231.4,523.5c10,16.9,16.6,29.9,18,32.8v209.2h5.7V554.9l-0.3-0.6c-0.8-1.6-7.8-15.7-18.9-34.6v-90.7l-0.7-0.8
			c-13.1-16.6-30-31.9-43.2-42.7c0.8,3.2,1.7,6.5,2.5,9.7c11.9,10.5,26.1,24.3,35.6,35.8v79.1c-5.1-8.3-11.1-17.5-17.7-27
			c1.1,6.2,2,10.9,2.3,12.5c0.1,0.5,0.2,1,0.3,1.5c0,0,0,0.1,0,0.1c0,0.1,0,0.1,0,0.2c4.7,7.1,9,14,12.8,20.2L231.4,523.5z"/>
		<path d="M529.8,425.2l-0.7,0.8v90.7c-11.1,18.8-18.1,33-18.9,34.6l-0.3,0.6v213.6h5.7V553.2c1.4-2.9,8-15.8,18-32.8l3.4-5.7
			c4.9-8,10.4-16.8,16.5-25.6c0.7-3.7,1.6-8.5,2.6-13.8c-7.9,10.8-15.1,21.8-21.3,31.9v-79.1c6-7.3,24.9-23.1,38.1-34.4
			c0.8-3.3,1.7-6.6,2.5-9.7C561.8,395.6,537.4,415.9,529.8,425.2z"/>
	</g>
</g>
<g id="SHIRT_STITCHING">
	<path fill="#FFFFFF" d="M389.5,287.6c35.1,0.3,61.9-17.7,61.6-20.7c-0.3-3-6.1-8.6-9.8-11.3c-3.7-2.7-21.2-4.5-56.3-4.3
		c-35.5,0.2-47.6,1.6-52.4,2.7c-4.9,1.2-12.8,10-11.8,12C321.7,268.1,354.6,287.3,389.5,287.6z"/>
	<path fill="#BBB6B4" d="M389.5,287.6c35.1,0.3,61.9-17.7,61.6-20.7c-0.3-3-6.1-8.6-9.8-11.3c-3.7-2.7-21.2-4.5-56.3-4.3
		c-35.5,0.2-47.6,1.6-52.4,2.7c-4.9,1.2-12.8,10-11.8,12C321.7,268.1,354.6,287.3,389.5,287.6z"/>
	<g>
		<g>
			<path d="M385.6,315.1l0,1l0.9,0v-1L385.6,315.1 M388.2,315.1l-0.9,0l0,1l0.9,0L388.2,315.1 M383.9,315.1l0,1l0.9,0l0-1
				L383.9,315.1 M389.9,315.1l-0.9,0l0,1l0.9,0L389.9,315.1 M382.2,315l0,1l0.9,0l0-1L382.2,315 M391.7,315l-0.9,0l0,1l0.9,0
				L391.7,315 M380.5,315l0,1l0.9,0l0-1L380.5,315 M393.4,315l-0.9,0l0,1l0.9,0L393.4,315 M378.7,314.9l0,1l0.9,0l0-1L378.7,314.9
				 M395.1,314.9l-0.9,0l0,1l0.9,0L395.1,314.9 M377,314.9l0,1l0.9,0l0-1L377,314.9 M396.8,314.9l-0.9,0l0,1l0.9,0L396.8,314.9
				 M398.6,314.8l-0.9,0l0,1l0.9,0L398.6,314.8 M375.3,314.8l-0.1,1l0.9,0l0.1-1L375.3,314.8 M400.3,314.7l-0.9,0l0.1,1l0.9,0
				L400.3,314.7 M373.6,314.7l-0.1,1l0.9,0.1l0.1-1L373.6,314.7 M402,314.6l-0.9,0.1l0.1,1l0.9-0.1L402,314.6 M371.9,314.6l-0.1,1
				l0.9,0.1l0.1-1L371.9,314.6 M403.7,314.5l-0.9,0.1l0.1,1l0.9-0.1L403.7,314.5 M370.2,314.4l-0.1,1l0.9,0.1l0.1-1L370.2,314.4
				 M405.4,314.3l-0.9,0.1l0.1,1l0.9-0.1L405.4,314.3 M368.4,314.3l-0.1,1l0.9,0.1l0.1-1L368.4,314.3 M407.2,314.2l-0.9,0.1l0.1,1
				l0.9-0.1L407.2,314.2 M366.7,314.1l-0.1,1l0.9,0.1l0.1-1L366.7,314.1 M408.9,314l-0.9,0.1l0.1,1l0.9-0.1L408.9,314 M365,313.9
				l-0.1,1l0.9,0.1l0.1-1L365,313.9 M410.6,313.8l-0.9,0.1l0.1,1l0.9-0.1L410.6,313.8 M363.3,313.7l-0.1,1l0.9,0.1l0.1-1
				L363.3,313.7 M412.3,313.7l-0.9,0.1l0.1,1l0.9-0.1L412.3,313.7 M361.6,313.5l-0.1,1l0.9,0.1l0.1-1L361.6,313.5 M414,313.4
				l-0.9,0.1l0.1,1l0.9-0.1L414,313.4 M359.9,313.3l-0.1,1l0.9,0.1l0.1-1L359.9,313.3 M415.7,313.2l-0.9,0.1l0.1,1l0.9-0.1
				L415.7,313.2 M358.2,313l-0.2,1l0.9,0.1l0.2-1L358.2,313 M417.4,313l-0.9,0.1l0.1,1l0.9-0.1L417.4,313 M419.1,312.7l-0.9,0.1
				l0.2,1l0.9-0.1L419.1,312.7 M356.5,312.7l-0.2,1l0.9,0.1l0.2-1L356.5,312.7 M420.8,312.4l-0.8,0.1l0.2,1l0.9-0.1L420.8,312.4
				 M354.8,312.4l-0.2,1l0.9,0.2l0.2-1L354.8,312.4 M422.5,312.2l-0.8,0.1l0.2,1l0.9-0.1L422.5,312.2 M353.1,312.1l-0.2,1l0.9,0.2
				l0.2-1L353.1,312.1 M424.2,311.8l-0.8,0.2l0.2,1l0.9-0.2L424.2,311.8 M351.4,311.8l-0.2,1l0.8,0.2l0.2-1L351.4,311.8
				 M425.9,311.5l-0.8,0.2l0.2,1l0.9-0.2L425.9,311.5 M349.7,311.4l-0.2,1l0.8,0.2l0.2-1L349.7,311.4 M427.6,311.2l-0.8,0.2l0.2,1
				l0.8-0.2L427.6,311.2 M348,311l-0.2,1l0.8,0.2l0.2-1L348,311 M429.3,310.8l-0.8,0.2l0.2,1l0.8-0.2L429.3,310.8 M346.4,310.6
				l-0.2,1l0.8,0.2l0.2-1L346.4,310.6 M430.9,310.4l-0.8,0.2l0.2,1l0.8-0.2L430.9,310.4 M344.7,310.2l-0.3,1l0.8,0.2l0.2-1
				L344.7,310.2 M432.6,310l-0.8,0.2l0.2,1l0.8-0.2L432.6,310 M343,309.8l-0.3,1l0.8,0.2l0.3-1L343,309.8 M434.3,309.6l-0.8,0.2
				l0.3,1l0.8-0.2L434.3,309.6 M341.4,309.3l-0.3,1l0.8,0.2l0.3-1L341.4,309.3 M435.9,309.1l-0.8,0.2l0.3,1l0.8-0.2L435.9,309.1
				 M339.7,308.8l-0.3,1l0.8,0.2l0.3-1L339.7,308.8 M437.6,308.7l-0.8,0.2l0.3,1l0.8-0.2L437.6,308.7 M338.1,308.3l-0.3,1l0.8,0.3
				l0.3-1L338.1,308.3 M439.2,308.2l-0.8,0.3l0.3,1l0.8-0.3L439.2,308.2 M336.5,307.8l-0.3,1l0.8,0.3l0.3-1L336.5,307.8
				 M440.9,307.7l-0.8,0.3l0.3,1l0.8-0.3L440.9,307.7 M334.8,307.2l-0.3,0.9l0.8,0.3l0.3-1L334.8,307.2 M442.5,307.1l-0.8,0.3l0.3,1
				l0.8-0.3L442.5,307.1 M333.2,306.6l-0.3,0.9l0.8,0.3l0.3-0.9L333.2,306.6 M444.1,306.5l-0.8,0.3l0.3,0.9l0.8-0.3L444.1,306.5
				 M331.6,306l-0.4,0.9l0.8,0.3l0.4-0.9L331.6,306 M445.8,306l-0.8,0.3l0.3,0.9l0.8-0.3L445.8,306 M330,305.4l-0.4,0.9l0.8,0.3
				l0.4-0.9L330,305.4 M447.4,305.3l-0.8,0.3l0.4,0.9l0.8-0.3L447.4,305.3 M328.4,304.7l-0.4,0.9l0.8,0.3l0.4-0.9L328.4,304.7
				 M449,304.7l-0.8,0.3l0.4,0.9l0.8-0.3L449,304.7 M326.8,304.1l-0.4,0.9l0.8,0.3l0.4-0.9L326.8,304.1 M450.5,304l-0.8,0.3l0.4,0.9
				l0.8-0.3L450.5,304 M325.3,303.3l-0.4,0.9l0.8,0.4l0.4-0.9L325.3,303.3 M452.1,303.3l-0.8,0.4l0.4,0.9l0.8-0.4L452.1,303.3
				 M323.7,302.6l-0.4,0.9l0.8,0.4l0.4-0.9L323.7,302.6 M453.7,302.6l-0.8,0.4l0.4,0.9l0.8-0.4L453.7,302.6 M322.2,301.8l-0.5,0.9
				l0.8,0.4l0.5-0.9L322.2,301.8 M455.2,301.8l-0.8,0.4l0.4,0.9l0.8-0.4L455.2,301.8 M320.7,301l-0.5,0.9l0.8,0.4l0.5-0.9L320.7,301
				 M456.7,301l-0.8,0.4l0.5,0.9l0.8-0.4L456.7,301 M319.2,300.2l-0.5,0.9l0.8,0.4l0.5-0.9L319.2,300.2 M458.2,300.2l-0.7,0.4
				l0.5,0.9l0.8-0.4L458.2,300.2 M317.7,299.4l-0.5,0.9l0.7,0.4l0.5-0.9L317.7,299.4 M459.7,299.3l-0.7,0.4l0.5,0.9l0.7-0.4
				L459.7,299.3 M316.2,298.5l-0.5,0.9l0.7,0.5l0.5-0.9L316.2,298.5 M461.2,298.4l-0.7,0.5l0.5,0.9l0.7-0.5L461.2,298.4
				 M314.8,297.6l-0.5,0.8l0.7,0.5l0.5-0.9L314.8,297.6 M462.6,297.5l-0.7,0.5l0.5,0.8l0.7-0.5L462.6,297.5 M313.3,296.6l-0.6,0.8
				l0.7,0.5l0.6-0.8L313.3,296.6 M464,296.5l-0.7,0.5l0.6,0.8l0.7-0.5L464,296.5 M311.9,295.6l-0.6,0.8l0.7,0.5l0.6-0.8L311.9,295.6
				 M465.4,295.5l-0.7,0.5l0.6,0.8c0.2-0.2,0.5-0.3,0.7-0.5L465.4,295.5 M310.5,294.6l-0.6,0.8l0.7,0.5l0.6-0.8L310.5,294.6
				 M466.7,294.5l-0.7,0.5l0.6,0.8c0.2-0.2,0.5-0.4,0.7-0.5L466.7,294.5 M309.2,293.6l-0.6,0.8c0.2,0.2,0.5,0.4,0.7,0.5l0.6-0.8
				C309.6,293.9,309.4,293.7,309.2,293.6 M468.1,293.4c-0.2,0.2-0.4,0.4-0.7,0.6l0.6,0.8c0.2-0.2,0.5-0.4,0.7-0.6L468.1,293.4
				 M307.8,292.5l-0.6,0.8l0.7,0.6l0.6-0.8L307.8,292.5 M469.3,292.2c-0.2,0.2-0.4,0.4-0.6,0.6l0.7,0.7c0.2-0.2,0.4-0.4,0.6-0.6
				L469.3,292.2 M306.5,291.4l-0.7,0.8l0.7,0.6l0.7-0.8L306.5,291.4 M470.5,291.1c-0.2,0.2-0.4,0.4-0.6,0.6l0.7,0.7
				c0.2-0.2,0.4-0.4,0.6-0.6L470.5,291.1 M305.3,290.2l-0.7,0.7c0.2,0.2,0.4,0.4,0.6,0.6l0.7-0.7
				C305.7,290.6,305.5,290.4,305.3,290.2 M471.7,289.8c-0.2,0.2-0.4,0.4-0.6,0.6l0.7,0.7c0.2-0.2,0.4-0.5,0.6-0.7L471.7,289.8
				 M304.1,289l-0.7,0.7c0.2,0.2,0.4,0.4,0.6,0.6l0.7-0.7C304.4,289.4,304.2,289.2,304.1,289 M472.7,288.5c0,0-0.2,0.2-0.5,0.7
				l0.8,0.6c0.4-0.5,0.5-0.7,0.5-0.7L472.7,288.5 M302.9,287.8l-0.7,0.7c0.2,0.2,0.4,0.4,0.6,0.6l0.7-0.7
				C303.2,288.2,303.1,288,302.9,287.8 M301.7,286.5l-0.8,0.6c0.2,0.2,0.4,0.4,0.6,0.7l0.8-0.7C302.1,286.9,301.9,286.7,301.7,286.5
				 M300.7,285.2l-0.8,0.6c0.1,0.1,0.2,0.3,0.5,0.7l0.8-0.6C300.9,285.5,300.8,285.3,300.7,285.2"/>
			<path d="M212,520l0,1l0.5,0v-1L212,520 M210.3,519.9l0,1l0.9,0l0-1L210.3,519.9 M208.5,519.9l0,1l0.9,0l0-1L208.5,519.9
				 M206.8,519.9l0,1l0.9,0l0-1L206.8,519.9 M205.1,519.8l0.1,1l0.8,0l0-1L205.1,519.8 M203.4,519.8l0,1l0.9,0l0-1L203.4,519.8
				 M201.6,519.7l0,1l0.9,0l0-1L201.6,519.7 M199.9,519.6l0,1l0.9,0l0-1L199.9,519.6 M198.2,519.5l0,1l0.9,0l0-1L198.2,519.5
				 M196.5,519.5l0,1l0.9,0l0.1-1L196.5,519.5 M194.7,519.4l-0.1,1l0.9,0l0.1-1L194.7,519.4 M193,519.3l-0.1,1l0.9,0l0.1-1
				L193,519.3 M191.3,519.2l-0.1,1l0.9,0.1l0.1-1L191.3,519.2 M189.6,519.1l0.1,1l0.7,0l0.1-1L189.6,519.1 M187.9,519l0.1,1l0.7,0
				l0.1-1L187.9,519 M186.1,518.8l-0.1,1l0.9,0.1l0.1-1L186.1,518.8 M184.4,518.7l-0.1,1l0.9,0.1l0-0.5l-0.1-0.5L184.4,518.7
				 M182.7,518.6l-0.1,1l0.9,0.1l0-0.5l-0.1-0.5L182.7,518.6 M181,518.5l-0.1,1l0.9,0.1l0-0.5l0-0.5L181,518.5 M179.3,518.3l-0.1,1
				l0.9,0.1l0.1-1L179.3,518.3 M177.5,518.2l-0.1,1l0.9,0.1l0.1-1L177.5,518.2 M175.8,518l-0.1,1l0.9,0.1l0.1-1L175.8,518
				 M174.1,517.9l0,1l0.8,0.1l0.1-1L174.1,517.9 M172.4,517.7l-0.1,1l0.9,0.1l0.1-1L172.4,517.7 M170.7,517.6l-0.1,1l0.9,0.1l0-0.5
				l0-0.5L170.7,517.6 M168.9,517.4l-0.1,1l0.9,0.1l0.1-1L168.9,517.4 M167.2,517.2l-0.1,1l0.9,0.1l0.1-1L167.2,517.2 M165.5,517
				l-0.1,1l0.9,0.1l0.1-1L165.5,517 M163.8,516.8l-0.1,1l0.9,0.1l0.1-0.5l0-0.5L163.8,516.8 M162.1,516.6l-0.1,1l0.9,0.1l0.1-1
				L162.1,516.6 M160.4,516.4l-0.1,1l0.9,0.1l0.1-1L160.4,516.4 M158.7,516.2l-0.1,1l0.9,0.1l0.1-1L158.7,516.2 M156.9,516l-0.1,1
				l0.9,0.1l0.1-1L156.9,516 M155.2,515.7l-0.1,1l0.9,0.1l0.1-1L155.2,515.7 M153.5,515.5l-0.1,1l0.9,0.1l0.1-1L153.5,515.5
				 M151.8,515.2l-0.2,1l0.9,0.1l0.2-1L151.8,515.2 M150.1,515l-0.2,1l0.9,0.1l0.2-1L150.1,515 M148.4,514.7l-0.2,1l0.9,0.1l0.2-1
				L148.4,514.7 M146.7,514.4l-0.2,1l0.9,0.1l0.2-1L146.7,514.4 M145,514.1l-0.2,1l0.9,0.1l0.2-1L145,514.1 M143.3,513.8l-0.2,1
				l0.9,0.2l0.2-1L143.3,513.8 M141.6,513.5l-0.2,1l0.9,0.2l0.2-1L141.6,513.5 M139.9,513.2l-0.2,1l0.9,0.2l0.2-1L139.9,513.2
				 M138.2,512.9l-0.2,1l0.8,0.2l0.2-1L138.2,512.9 M136.5,512.5l-0.2,1l0.8,0.2l0.2-1L136.5,512.5 M134.8,512.2l-0.2,1l0.8,0.2
				l0.2-1L134.8,512.2 M133.2,511.8l-0.2,1l0.8,0.2l0.2-1L133.2,511.8 M131.5,511.5l-0.2,1l0.8,0.2l0.1-0.5l0-0.5L131.5,511.5
				 M129.8,511.1l-0.2,1l0.8,0.2l0.2-1L129.8,511.1 M128.1,510.7l-0.2,1l0.8,0.2l0.2-1L128.1,510.7 M126.4,510.3l-0.2,1l0.8,0.2
				l0.2-1L126.4,510.3 M124.7,509.9l-0.2,1l0.8,0.2l0.2-1L124.7,509.9 M123.1,509.5l-0.2,1l0.8,0.2l0.2-1L123.1,509.5 M121.4,509.1
				l-0.3,1l0.8,0.2l0.2-1L121.4,509.1 M119.7,508.7l-0.3,1l0.8,0.2l0.3-1L119.7,508.7"/>
			<path d="M212,524l0,1l0.4,0l0.1,0l0-1L212,524 M210.3,524l0,1l0.9,0l0-1L210.3,524 M208.5,523.9l0,1l0.9,0l0-1L208.5,523.9
				 M206.8,523.9l0,1l0.9,0l0-1L206.8,523.9 M205.1,523.8l0.1,1l0.8,0l0-1L205.1,523.8 M203.4,523.8l0,1l0.9,0l0-1L203.4,523.8
				 M201.6,523.7l0,1l0.9,0l0-1L201.6,523.7 M199.9,523.6l0,1l0.9,0l0-1L199.9,523.6 M198.2,523.6l0,1l0.9,0l0-1L198.2,523.6
				 M196.5,523.5l0,1l0.9,0l0.1-1L196.5,523.5 M194.7,523.4l-0.1,1l0.9,0l0.1-1L194.7,523.4 M193,523.3l-0.1,1l0.9,0l0.1-1
				L193,523.3 M191.3,523.2l-0.1,1l0.9,0.1l0.1-1L191.3,523.2 M189.6,523.1l-0.1,1l0.9,0.1l0.1-1L189.6,523.1 M187.9,523l0.1,1
				l0.7,0l0.1-1L187.9,523 M186.1,522.9l-0.1,1l0.9,0.1l0.1-1L186.1,522.9 M184.4,522.7l-0.1,1l0.9,0.1l0-0.5l-0.1-0.5L184.4,522.7
				 M182.7,522.6l-0.1,1l0.9,0.1l0-0.5l-0.1-0.5L182.7,522.6 M181,522.5l-0.1,1l0.9,0.1l0-0.5l0-0.5L181,522.5 M179.3,522.3l-0.1,1
				l0.9,0.1l0.1-1L179.3,522.3 M177.5,522.2l-0.1,1l0.9,0.1l0.1-1L177.5,522.2 M175.8,522.1l-0.1,1l0.9,0.1l0.1-1L175.8,522.1
				 M174.1,521.9l0,1l0.8,0.1l0.1-1L174.1,521.9 M172.4,521.7l-0.1,1l0.9,0.1l0.1-1L172.4,521.7 M170.7,521.6l-0.1,1l0.9,0.1l0-0.5
				l0-0.5L170.7,521.6 M168.9,521.4l-0.1,1l0.9,0.1l0.1-1L168.9,521.4 M167.2,521.2l-0.1,1l0.9,0.1l0.1-1L167.2,521.2 M165.5,521.1
				l-0.1,1l0.9,0.1l0.1-1L165.5,521.1 M163.8,520.9l-0.1,1l0.9,0.1l0.1-0.5l0-0.5L163.8,520.9 M162.1,520.7l-0.1,1l0.9,0.1l0.1-1
				L162.1,520.7 M160.4,520.5l-0.1,1l0.9,0.1l0.1-1L160.4,520.5 M158.7,520.2l-0.1,1l0.9,0.1l0.1-1L158.7,520.2 M156.9,520l-0.1,1
				l0.9,0.1l0.1-1L156.9,520 M155.2,519.8l-0.1,1l0.9,0.1l0.1-1L155.2,519.8 M153.5,519.5l-0.1,1l0.9,0.1l0.1-1L153.5,519.5
				 M151.8,519.3l-0.2,1l0.9,0.1l0.2-1L151.8,519.3 M150.1,519l-0.2,1l0.9,0.1l0.2-1L150.1,519 M148.4,518.7l-0.2,1l0.9,0.1l0.2-1
				L148.4,518.7 M146.7,518.4l-0.2,1l0.9,0.1l0.2-1L146.7,518.4 M145,518.1l-0.2,1l0.9,0.1l0.2-1L145,518.1 M143.3,517.8l-0.2,1
				l0.9,0.2l0.2-1L143.3,517.8 M141.6,517.5l-0.2,1l0.9,0.2l0.2-1L141.6,517.5 M139.9,517.2l-0.2,1l0.9,0.2l0.2-1L139.9,517.2
				 M138.2,516.9l-0.2,1l0.8,0.2l0.2-1L138.2,516.9 M136.5,516.6l-0.2,1l0.8,0.2l0.2-1L136.5,516.6 M134.8,516.2l-0.2,1l0.8,0.2
				l0.2-1L134.8,516.2 M133.2,515.9l-0.2,1l0.8,0.2l0.2-1L133.2,515.9 M131.5,515.5l-0.2,1l0.8,0.2l0.1-0.5l0-0.5L131.5,515.5
				 M129.8,515.1l-0.2,1l0.8,0.2l0.2-1L129.8,515.1 M128.1,514.7l-0.2,1l0.8,0.2l0.2-1L128.1,514.7 M126.4,514.4l-0.2,1l0.8,0.2
				l0.2-1L126.4,514.4 M124.7,514l-0.2,1l0.8,0.2l0.2-1L124.7,514 M123.1,513.6l-0.2,1l0.8,0.2l0.2-1L123.1,513.6 M121.4,513.1
				l-0.3,1l0.8,0.2l0.2-1L121.4,513.1 M119.7,512.7l-0.3,1l0.8,0.2l0.3-1L119.7,512.7"/>
			<path d="M557.7,520l-0.5,0v1l0.5,0L557.7,520 M559.4,519.9l-0.9,0l0,1l0.9,0L559.4,519.9 M561.1,519.9l-0.9,0l0,1l0.9,0
				L561.1,519.9 M562.9,519.9l-0.9,0l0,1l0.9,0L562.9,519.9 M564.5,519.8l-0.8,0l0,1l0.8,0l0.1-0.5L564.5,519.8 M566.3,519.8l-0.9,0
				l0,1l0.9,0L566.3,519.8 M568,519.7l-0.9,0l0,1l0.9,0L568,519.7 M569.8,519.6l-0.9,0l0,1l0.9,0L569.8,519.6 M571.5,519.5l-0.9,0
				l0,1l0.9,0L571.5,519.5 M573.2,519.5l-0.9,0l0.1,1l0.9,0L573.2,519.5 M574.9,519.4l-0.9,0l0.1,1l0.9,0L574.9,519.4 M576.7,519.3
				l-0.9,0l0.1,1l0.9,0L576.7,519.3 M578.4,519.2l-0.9,0.1l0.1,1l0.9-0.1L578.4,519.2 M580,519.1l-0.7,0l0.1,1l0.7,0l0.1-0.5
				L580,519.1 M581.7,519l-0.7,0l0.1,1l0.7,0l0.1-0.5L581.7,519 M583.5,518.8l-0.9,0.1l0.1,1l0.9-0.1L583.5,518.8 M585.3,518.7
				l-0.9,0.1l0.2,1l0.8-0.1L585.3,518.7 M587,518.6l-0.9,0.1l0.2,1l0.7-0.1L587,518.6 M588.7,518.5l-0.9,0.1l0.1,1l0.8-0.1
				L588.7,518.5 M590.4,518.3l-0.9,0.1l0.1,1l0.9-0.1L590.4,518.3 M592.1,518.2l-0.9,0.1l0.1,1l0.9-0.1L592.1,518.2 M593.9,518
				l-0.9,0.1l0.1,1l0.9-0.1L593.9,518 M595.5,517.9l-0.8,0.1l0.1,1l0.8-0.1l0-0.5L595.5,517.9 M597.3,517.7l-0.9,0.1l0.1,1l0.9-0.1
				L597.3,517.7 M599,517.6l-0.9,0.1l0.2,1l0.8-0.1L599,517.6 M600.7,517.4l-0.9,0.1l0.1,1l0.9-0.1L600.7,517.4 M602.5,517.2
				l-0.9,0.1l0.1,1l0.9-0.1L602.5,517.2 M604.2,517l-0.9,0.1l0.1,1l0.9-0.1L604.2,517 M605.9,516.8l-0.9,0.1l0.2,1l0.8-0.1
				L605.9,516.8 M607.6,516.6l-0.9,0.1l0.1,1l0.9-0.1L607.6,516.6 M609.3,516.4l-0.9,0.1l0.1,1l0.9-0.1L609.3,516.4 M611,516.2
				l-0.9,0.1l0.1,1l0.9-0.1L611,516.2 M612.7,516l-0.9,0.1l0.1,1l0.9-0.1L612.7,516 M614.4,515.7l-0.9,0.1l0.1,1l0.9-0.1
				L614.4,515.7 M616.1,515.5l-0.8,0.1l0.1,1l0.9-0.1L616.1,515.5 M617.8,515.2l-0.9,0.1l0.2,1l0.9-0.1L617.8,515.2 M619.6,515
				l-0.9,0.1l0.2,1l0.9-0.1L619.6,515 M621.3,514.7l-0.9,0.1l0.2,1l0.9-0.1L621.3,514.7 M623,514.4l-0.9,0.1l0.2,1l0.9-0.1
				L623,514.4 M624.7,514.1l-0.8,0.1l0.2,1l0.9-0.1L624.7,514.1 M626.4,513.8l-0.9,0.2l0.2,1l0.9-0.2L626.4,513.8 M628.1,513.5
				l-0.8,0.2l0.2,1l0.9-0.2L628.1,513.5 M629.8,513.2l-0.8,0.2l0.2,1l0.9-0.2L629.8,513.2 M631.4,512.9l-0.8,0.2l0.2,1l0.8-0.2
				L631.4,512.9 M633.1,512.5l-0.8,0.2l0.2,1l0.8-0.2L633.1,512.5 M634.8,512.2l-0.8,0.2l0.2,1l0.8-0.2L634.8,512.2 M636.5,511.8
				l-0.8,0.2l0.2,1l0.8-0.2L636.5,511.8 M638.2,511.5l-0.8,0.2l0.3,1l0.7-0.2L638.2,511.5 M639.9,511.1l-0.8,0.2l0.2,1l0.8-0.2
				L639.9,511.1 M641.6,510.7l-0.8,0.2l0.2,1l0.8-0.2L641.6,510.7 M643.3,510.3l-0.8,0.2l0.2,1l0.8-0.2L643.3,510.3 M644.9,509.9
				l-0.8,0.2l0.2,1l0.8-0.2L644.9,509.9 M646.6,509.5l-0.8,0.2l0.2,1l0.8-0.2L646.6,509.5 M648.3,509.1l-0.8,0.2l0.2,1l0.8-0.2
				L648.3,509.1 M650,508.7l-0.8,0.2l0.3,1l0.8-0.2L650,508.7"/>
			<path d="M557.7,524l-0.5,0l0,1l0.1,0l0.4,0L557.7,524 M559.4,524l-0.9,0l0,1l0.9,0L559.4,524 M561.1,523.9l-0.9,0l0,1l0.9,0
				L561.1,523.9 M562.9,523.9l-0.9,0l0,1l0.9,0L562.9,523.9 M564.5,523.8l-0.8,0l0,1l0.8,0l0.1-0.5L564.5,523.8 M566.3,523.8l-0.9,0
				l0,1l0.9,0L566.3,523.8 M568,523.7l-0.9,0l0,1l0.9,0L568,523.7 M569.8,523.6l-0.9,0l0,1l0.9,0L569.8,523.6 M571.5,523.6l-0.9,0
				l0,1l0.9,0L571.5,523.6 M573.2,523.5l-0.9,0l0.1,1l0.9,0L573.2,523.5 M574.9,523.4l-0.9,0l0.1,1l0.9,0L574.9,523.4 M576.7,523.3
				l-0.9,0l0.1,1l0.9,0L576.7,523.3 M578.4,523.2l-0.9,0.1l0.1,1l0.9-0.1L578.4,523.2 M580.1,523.1l-0.9,0.1l0.1,1l0.9-0.1
				L580.1,523.1 M581.7,523l-0.7,0l0.1,1l0.7,0l0.1-0.5L581.7,523 M583.5,522.9l-0.9,0.1l0.1,1l0.9-0.1L583.5,522.9 M585.3,522.7
				l-0.9,0.1l0.2,1l0.8-0.1L585.3,522.7 M587,522.6l-0.9,0.1l0.2,1l0.7-0.1L587,522.6 M588.7,522.5l-0.9,0.1l0.1,1l0.8-0.1
				L588.7,522.5 M590.4,522.3l-0.9,0.1l0.1,1l0.9-0.1L590.4,522.3 M592.1,522.2l-0.9,0.1l0.1,1l0.9-0.1L592.1,522.2 M593.9,522.1
				l-0.9,0.1l0.1,1l0.9-0.1L593.9,522.1 M595.5,521.9l-0.8,0.1l0.1,1l0.8-0.1l0-0.5L595.5,521.9 M597.3,521.7l-0.9,0.1l0.1,1
				l0.9-0.1L597.3,521.7 M599,521.6l-0.9,0.1l0.2,1l0.8-0.1L599,521.6 M600.7,521.4l-0.9,0.1l0.1,1l0.9-0.1L600.7,521.4
				 M602.5,521.2l-0.9,0.1l0.1,1l0.9-0.1L602.5,521.2 M604.2,521.1l-0.9,0.1l0.1,1l0.9-0.1L604.2,521.1 M605.9,520.9L605,521l0.2,1
				l0.8-0.1L605.9,520.9 M607.6,520.7l-0.9,0.1l0.1,1l0.9-0.1L607.6,520.7 M609.3,520.5l-0.9,0.1l0.1,1l0.9-0.1L609.3,520.5
				 M611,520.2l-0.9,0.1l0.1,1l0.9-0.1L611,520.2 M612.7,520l-0.9,0.1l0.1,1l0.9-0.1L612.7,520 M614.4,519.8l-0.9,0.1l0.1,1l0.9-0.1
				L614.4,519.8 M616.1,519.5l-0.8,0.1l0.1,1l0.9-0.1L616.1,519.5 M617.9,519.3l-0.9,0.1l0.2,1l0.9-0.1L617.9,519.3 M619.6,519
				l-0.9,0.1l0.2,1l0.9-0.1L619.6,519 M621.3,518.7l-0.9,0.1l0.2,1l0.9-0.1L621.3,518.7 M623,518.4l-0.9,0.1l0.2,1l0.9-0.1
				L623,518.4 M624.7,518.1l-0.8,0.1l0.2,1l0.9-0.1L624.7,518.1 M626.4,517.8l-0.9,0.2l0.2,1l0.9-0.2L626.4,517.8 M628.1,517.5
				l-0.8,0.2l0.2,1l0.9-0.2L628.1,517.5 M629.8,517.2l-0.8,0.2l0.2,1l0.9-0.2L629.8,517.2 M631.4,516.9l-0.8,0.2l0.2,1l0.8-0.2
				L631.4,516.9 M633.1,516.6l-0.8,0.2l0.2,1l0.8-0.2L633.1,516.6 M634.8,516.2l-0.8,0.2l0.2,1l0.8-0.2L634.8,516.2 M636.5,515.9
				l-0.8,0.2l0.2,1l0.8-0.2L636.5,515.9 M638.2,515.5l-0.8,0.2l0.3,1l0.7-0.2L638.2,515.5 M639.9,515.1l-0.8,0.2l0.2,1l0.8-0.2
				L639.9,515.1 M641.6,514.7l-0.8,0.2l0.2,1l0.8-0.2L641.6,514.7 M643.3,514.4l-0.8,0.2l0.2,1l0.8-0.2L643.3,514.4 M644.9,514
				l-0.8,0.2l0.2,1l0.8-0.2L644.9,514 M646.6,513.6l-0.8,0.2l0.2,1l0.8-0.2L646.6,513.6 M648.3,513.1l-0.8,0.2l0.2,1l0.8-0.2
				L648.3,513.1 M650,512.7l-0.8,0.2l0.3,1l0.8-0.2L650,512.7"/>
			<path d="M583.4,341l-1,0c0,0.1,0,12.7-1.8,22.5c-1,5.4-4.4,18.7-7.7,31.6c-2.8,10.8-5.4,21-6.4,26c-1.4,6.6-5.8,30.6-9.4,49.9
				c-2.2,12.2-4.2,22.7-4.7,25.3c-1.4,6.8-0.9,18.1-0.9,18.3l1,0c0-0.1-0.4-11.4,0.9-18c0.5-2.7,2.5-13.2,4.7-25.3
				c3.5-19.3,8-43.3,9.3-49.9c1-4.9,3.6-15.1,6.4-25.9c3.3-12.9,6.7-26.2,7.7-31.7C583.5,353.8,583.4,341.1,583.4,341"/>
			<path d="M185.3,341.2c0,0.1,0,12.6,1.8,22.5c1,5.5,4.4,18.8,7.7,31.7c2.8,10.8,5.3,21,6.4,25.9c1.4,6.6,5.8,30.6,9.3,49.8
				c2.2,12.2,4.2,22.7,4.7,25.4c1.3,6.7,0.9,17.9,0.9,18l1,0c0-0.1,0.4-11.5-0.9-18.3c-0.5-2.7-2.5-13.2-4.7-25.4
				c-3.5-19.3-8-43.2-9.3-49.9c-1-5-3.6-15.2-6.4-26c-3.3-12.9-6.7-26.2-7.7-31.6c-1.8-9.8-1.8-22.2-1.8-22.3L185.3,341.2"/>
			<path d="M385.3,318.6l0,1l0.9,0l0-1L385.3,318.6 M387.9,318.6l-0.9,0l0,1l0.9,0L387.9,318.6 M383.6,318.6l0,1l0.9,0l0-1
				L383.6,318.6 M389.6,318.6l-0.9,0l0,1l0.9,0L389.6,318.6 M391.4,318.6l-0.9,0l0,1l0.9,0L391.4,318.6 M381.9,318.6l0,1l0.9,0l0-1
				L381.9,318.6 M393.1,318.5l-0.9,0l0,1l0.9,0L393.1,318.5 M380.2,318.5l0,1l0.9,0l0-1L380.2,318.5 M394.8,318.5l-0.9,0l0,1l0.9,0
				L394.8,318.5 M378.4,318.4l0,1l0.9,0l0-1L378.4,318.4 M396.5,318.4l-0.9,0l0,1l0.9,0L396.5,318.4 M376.7,318.4l-0.1,1l0.9,0l0-1
				L376.7,318.4 M398.2,318.3l-0.9,0l0,1l0.9,0L398.2,318.3 M375,318.3l-0.1,1l0.9,0l0.1-1L375,318.3 M400,318.2l-0.9,0l0.1,1l0.9,0
				L400,318.2 M373.3,318.2l-0.1,1l0.9,0.1l0.1-1L373.3,318.2 M401.7,318.1l-0.9,0.1l0.1,1l0.9-0.1L401.7,318.1 M371.6,318l-0.1,1
				l0.9,0.1l0.1-1L371.6,318 M403.4,318l-0.9,0.1l0.1,1l0.9-0.1L403.4,318 M369.8,317.9l-0.1,1l0.9,0.1l0.1-1L369.8,317.9
				 M405.1,317.8l-0.9,0.1l0.1,1l0.9-0.1L405.1,317.8 M368.1,317.7l-0.1,1l0.9,0.1l0.1-1L368.1,317.7 M406.8,317.7l-0.9,0.1l0.1,1
				l0.9-0.1L406.8,317.7 M366.4,317.6l-0.1,1l0.9,0.1l0.1-1L366.4,317.6 M408.6,317.5l-0.9,0.1l0.1,1l0.9-0.1L408.6,317.5
				 M364.7,317.4l-0.1,1l0.9,0.1l0.1-1L364.7,317.4 M410.3,317.3l-0.9,0.1l0.1,1l0.9-0.1L410.3,317.3 M363,317.1l-0.1,1l0.9,0.1
				l0.1-1L363,317.1 M412,317.1l-0.9,0.1l0.1,1l0.9-0.1L412,317.1 M413.7,316.9l-0.9,0.1l0.1,1l0.9-0.1L413.7,316.9 M361.3,316.9
				l-0.1,1l0.9,0.1l0.1-1L361.3,316.9 M415.4,316.7l-0.9,0.1l0.1,1l0.9-0.1L415.4,316.7 M359.6,316.7l-0.2,1l0.9,0.1l0.1-1
				L359.6,316.7 M417.1,316.4l-0.9,0.1l0.1,1l0.9-0.1L417.1,316.4 M357.9,316.4l-0.2,1l0.9,0.1l0.2-1L357.9,316.4 M418.8,316.2
				l-0.8,0.1l0.2,1l0.9-0.1L418.8,316.2 M356.2,316.1l-0.2,1l0.9,0.1l0.2-1L356.2,316.1 M420.5,315.9l-0.8,0.1l0.2,1l0.9-0.1
				L420.5,315.9 M354.5,315.8l-0.2,1l0.9,0.2l0.2-1L354.5,315.8 M422.2,315.6l-0.8,0.2l0.2,1l0.9-0.2L422.2,315.6 M352.8,315.5
				l-0.2,1l0.9,0.2l0.2-1L352.8,315.5 M423.9,315.3l-0.8,0.2l0.2,1l0.9-0.2L423.9,315.3 M351.1,315.1l-0.2,1l0.8,0.2l0.2-1
				L351.1,315.1 M425.6,314.9l-0.8,0.2l0.2,1l0.9-0.2L425.6,314.9 M349.4,314.8l-0.2,1l0.8,0.2l0.2-1L349.4,314.8 M427.3,314.6
				l-0.8,0.2l0.2,1l0.8-0.2L427.3,314.6 M347.8,314.4l-0.2,1l0.8,0.2l0.2-1L347.8,314.4 M428.9,314.2l-0.8,0.2l0.2,1l0.8-0.2
				L428.9,314.2 M346.1,314l-0.2,1l0.8,0.2l0.2-1L346.1,314 M430.6,313.8l-0.8,0.2l0.2,1l0.8-0.2L430.6,313.8 M344.4,313.5l-0.3,1
				l0.8,0.2l0.3-1L344.4,313.5 M432.3,313.4l-0.8,0.2l0.2,1l0.8-0.2L432.3,313.4 M342.8,313.1l-0.3,1l0.8,0.2l0.3-1L342.8,313.1
				 M434,313l-0.8,0.2l0.3,1l0.8-0.2L434,313 M341.1,312.6l-0.3,1l0.8,0.2l0.3-1L341.1,312.6 M435.6,312.5l-0.8,0.2l0.3,1l0.8-0.2
				L435.6,312.5 M339.5,312.1l-0.3,1l0.8,0.3l0.3-1L339.5,312.1 M437.3,312l-0.8,0.2l0.3,1l0.8-0.2L437.3,312 M337.8,311.6l-0.3,1
				l0.8,0.3l0.3-1L337.8,311.6 M438.9,311.6l-0.8,0.3l0.3,1l0.8-0.3L438.9,311.6 M336.2,311.1l-0.3,1l0.8,0.3l0.3-1L336.2,311.1
				 M440.6,311l-0.8,0.3l0.3,1l0.8-0.3L440.6,311 M334.6,310.5l-0.3,0.9l0.8,0.3l0.3-1L334.6,310.5 M442.2,310.5l-0.8,0.3l0.3,1
				l0.8-0.3L442.2,310.5 M332.9,309.9l-0.3,0.9l0.8,0.3l0.3-0.9L332.9,309.9 M443.8,309.9l-0.8,0.3l0.3,0.9l0.8-0.3L443.8,309.9
				 M445.4,309.3l-0.8,0.3l0.3,0.9l0.8-0.3L445.4,309.3 M331.3,309.3l-0.4,0.9l0.8,0.3l0.4-0.9L331.3,309.3 M447,308.7l-0.8,0.3
				l0.4,0.9l0.8-0.3L447,308.7 M329.7,308.7l-0.4,0.9l0.8,0.3l0.4-0.9L329.7,308.7 M448.6,308.1l-0.8,0.3l0.4,0.9l0.8-0.3
				L448.6,308.1 M328.1,308l-0.4,0.9l0.8,0.3l0.4-0.9L328.1,308 M450.2,307.4l-0.8,0.3l0.4,0.9l0.8-0.3L450.2,307.4 M326.6,307.3
				l-0.4,0.9l0.8,0.3l0.4-0.9L326.6,307.3 M451.8,306.7l-0.8,0.3l0.4,0.9l0.8-0.4L451.8,306.7 M325,306.6l-0.4,0.9l0.8,0.4l0.4-0.9
				L325,306.6 M453.3,306l-0.8,0.4l0.4,0.9l0.8-0.4L453.3,306 M323.5,305.9l-0.4,0.9l0.8,0.4l0.4-0.9L323.5,305.9 M454.9,305.3
				l-0.8,0.4l0.4,0.9l0.8-0.4L454.9,305.3 M321.9,305.1l-0.5,0.9l0.8,0.4l0.4-0.9L321.9,305.1 M456.4,304.5l-0.8,0.4l0.5,0.9
				l0.8-0.4L456.4,304.5 M320.4,304.4l-0.5,0.9l0.8,0.4l0.5-0.9L320.4,304.4 M457.9,303.7l-0.8,0.4l0.5,0.9l0.8-0.4L457.9,303.7
				 M318.9,303.5l-0.5,0.9l0.8,0.4l0.5-0.9L318.9,303.5 M459.5,302.9l-0.8,0.4l0.5,0.9l0.8-0.4L459.5,302.9 M317.4,302.7l-0.5,0.9
				l0.8,0.4l0.5-0.9L317.4,302.7 M460.9,302l-0.7,0.4l0.5,0.9l0.7-0.4L460.9,302 M315.9,301.8l-0.5,0.9l0.7,0.4l0.5-0.9L315.9,301.8
				 M462.4,301.1l-0.7,0.5l0.5,0.9l0.7-0.5L462.4,301.1 M314.4,300.9l-0.5,0.9l0.7,0.5l0.5-0.9L314.4,300.9 M463.9,300.2l-0.7,0.5
				l0.5,0.8l0.7-0.5L463.9,300.2 M313,300l-0.6,0.8l0.7,0.5l0.5-0.8L313,300 M465.3,299.2l-0.7,0.5l0.6,0.8l0.7-0.5L465.3,299.2
				 M311.5,299.1l-0.6,0.8l0.7,0.5l0.6-0.8L311.5,299.1 M466.7,298.2l-0.7,0.5l0.6,0.8l0.7-0.5L466.7,298.2 M310.1,298.1l-0.6,0.8
				l0.7,0.5l0.6-0.8L310.1,298.1 M468,297.2l-0.7,0.5l0.6,0.8l0.7-0.5L468,297.2 M308.7,297.1l-0.6,0.8l0.7,0.5l0.6-0.8L308.7,297.1
				 M469.4,296.2c-0.2,0.2-0.4,0.4-0.7,0.5l0.6,0.8c0.2-0.2,0.5-0.4,0.7-0.5L469.4,296.2 M307.4,296l-0.6,0.8l0.7,0.5l0.6-0.8
				L307.4,296 M470.7,295.1c-0.2,0.2-0.4,0.4-0.7,0.6l0.6,0.8c0.2-0.2,0.5-0.4,0.7-0.6L470.7,295.1 M306,295l-0.6,0.8l0.7,0.6
				l0.6-0.8L306,295 M472,293.9c-0.2,0.2-0.4,0.4-0.6,0.6l0.7,0.7c0.2-0.2,0.4-0.4,0.6-0.6L472,293.9 M304.7,293.9l-0.7,0.8
				c0.2,0.2,0.4,0.4,0.7,0.6l0.6-0.8C305.2,294.2,304.9,294,304.7,293.9 M473.2,292.7c-0.2,0.2-0.4,0.4-0.6,0.6l0.7,0.7
				c0.2-0.2,0.4-0.4,0.6-0.6L473.2,292.7 M303.4,292.7l-0.7,0.7c0.2,0.2,0.4,0.4,0.6,0.6l0.7-0.8L303.4,292.7 M302.2,291.5l-0.7,0.7
				c0.2,0.2,0.4,0.4,0.6,0.6l0.7-0.7C302.6,291.9,302.4,291.7,302.2,291.5 M474.4,291.5c-0.2,0.2-0.4,0.4-0.6,0.6l0.7,0.7
				c0.2-0.2,0.4-0.4,0.6-0.6L474.4,291.5 M301,290.3l-0.7,0.7c0.2,0.2,0.4,0.4,0.6,0.6l0.7-0.7C301.4,290.7,301.2,290.5,301,290.3
				 M475.5,290.2c0,0-0.2,0.2-0.5,0.6l0.8,0.6c0.4-0.5,0.6-0.7,0.6-0.7L475.5,290.2 M299.8,289.1l-0.8,0.7c0.2,0.2,0.4,0.4,0.6,0.6
				l0.7-0.7C300.2,289.5,300,289.3,299.8,289.1 M298.7,287.8l-0.8,0.6c0.1,0.2,0.3,0.4,0.6,0.7l0.8-0.7
				C299,288.2,298.9,288,298.7,287.8"/>
			<g>
				<path d="M445.8,273.1c-0.5-0.6-1.1-1.6-2-2.7l0.9-0.7c0.8,1.1,1.5,2.1,2,2.7L445.8,273.1z M324.4,272.2l-0.9-0.6
					c0,0,0.8-1.2,2.1-2.7l0.9,0.7C325.2,271.1,324.5,272.2,324.4,272.2z M442.5,268.6c-0.7-0.9-1.4-1.8-2.1-2.6l0.9-0.7
					c0.7,0.9,1.4,1.8,2.1,2.6L442.5,268.6z M327.9,267.9l-0.8-0.7c0.8-0.9,1.6-1.7,2.4-2.5l0.8,0.8
					C329.4,266.2,328.7,267,327.9,267.9z M439,264.3c-1-1-1.8-1.8-2.4-2.2l0.6-0.9c0.7,0.5,1.5,1.2,2.6,2.4L439,264.3z M331.8,264
					l-0.7-0.9c1-0.8,2-1.5,2.9-1.9l0.5,1C333.7,262.6,332.8,263.3,331.8,264z M434.7,261.6c-0.8-0.2-2-0.3-3.3-0.4l0.1-1.1
					c1.4,0.1,2.5,0.3,3.4,0.5L434.7,261.6z M336.5,261.5l-0.2-1.1c0.8-0.2,2-0.3,3.4-0.5l0.1,1.1
					C338.3,261.2,337.2,261.3,336.5,261.5z M429.2,260.9c-1-0.1-2.2-0.2-3.3-0.2l0.1-1.1c1.2,0.1,2.3,0.2,3.4,0.2L429.2,260.9z
					 M342,260.8l-0.1-1.1c1-0.1,2.2-0.2,3.4-0.2l0.1,1.1C344.1,260.7,343,260.8,342,260.8z M423.6,260.5c-1.1-0.1-2.2-0.1-3.4-0.2
					l0-1.1c1.2,0.1,2.3,0.1,3.4,0.2L423.6,260.5z M347.5,260.5l-0.1-1.1c1.1-0.1,2.2-0.1,3.4-0.1l0,1.1
					C349.7,260.4,348.6,260.4,347.5,260.5z M418,260.3c-1.1,0-2.2-0.1-3.4-0.1l0-1.1c1.1,0,2.3,0.1,3.4,0.1L418,260.3z M353.1,260.3
					l0-1.1c1.1,0,2.2-0.1,3.4-0.1l0,1.1C355.3,260.2,354.2,260.2,353.1,260.3z M358.7,260.1l0-1.1c1.1,0,2.2-0.1,3.4-0.1l0,1.1
					C360.9,260.1,359.8,260.1,358.7,260.1z M412.5,260.1c-1.1,0-2.2-0.1-3.4-0.1l0-1.1c1.1,0,2.2,0.1,3.4,0.1L412.5,260.1z
					 M364.3,260l0-1.1l3.4-0.1l0,1.1L364.3,260z M406.9,260l-3.4-0.1l0-1.1l3.4,0.1L406.9,260z M369.9,259.9l0-1.1l3.4,0l0,1.1
					L369.9,259.9z M401.3,259.9l-3.4,0l0-1.1l3.4,0L401.3,259.9z M375.5,259.8l0-1.1l3.4,0l0,1.1L375.5,259.8z M395.7,259.8l-3.4,0
					l0-1.1l3.4,0L395.7,259.8z M381.1,259.8l0-1.1l3.4,0l0,1.1L381.1,259.8z M386.7,259.8l0-1.1l2,0l1.4,0l0,1.1l-1.4,0L386.7,259.8
					z"/>
			</g>
			<g>
				<path d="M443,276c0,0-0.3-0.6-0.9-1.5l0.9-0.6c0.6,0.9,0.9,1.5,0.9,1.5L443,276z M327.2,273.8l-0.9-0.7c0,0,1-1.1,2.3-2.5
					l0.8,0.8C328.2,272.6,327.2,273.7,327.2,273.8z M440.8,272.7c-0.7-1-1.3-1.9-2-2.7l0.9-0.7c0.6,0.8,1.3,1.7,2,2.7L440.8,272.7z
					 M331,269.7l-0.8-0.8c0.9-0.9,1.8-1.7,2.6-2.3l0.7,0.9C332.7,268.1,331.9,268.8,331,269.7z M437.4,268.4c-0.9-1-1.7-1.7-2.4-2
					l0.5-1c0.8,0.4,1.7,1.2,2.7,2.3L437.4,268.4z M335.2,266.3l-0.5-1c0.2-0.1,0.3-0.1,0.5-0.2c0.2-0.1,0.8-0.2,3-0.4l0.1,1.1
					c-2.2,0.2-2.7,0.4-2.8,0.4C335.5,266.2,335.3,266.3,335.2,266.3z M433,265.7c-0.9-0.3-2-0.5-3.2-0.7l0.2-1.1
					c1.2,0.2,2.3,0.5,3.3,0.7L433,265.7z M340.6,265.6l-0.1-1.1c1-0.1,2.1-0.2,3.4-0.3l0.1,1.1C342.7,265.4,341.5,265.5,340.6,265.6
					z M346.1,265.1L346,264c1.1-0.1,2.2-0.2,3.4-0.2l0.1,1.1C348.3,265,347.2,265,346.1,265.1z M351.7,264.7l-0.1-1.1l3.4-0.2
					l0.1,1.1L351.7,264.7z M427.6,264.6c-1-0.2-2.1-0.3-3.3-0.4l0.1-1.1c1.2,0.1,2.3,0.3,3.4,0.4L427.6,264.6z M357.3,264.4
					l-0.1-1.1l3.4-0.2l0.1,1.1L357.3,264.4z M362.9,264.1l-0.1-1.1c1.1-0.1,2.2-0.1,3.4-0.2l0.1,1.1C365.1,264,364,264,362.9,264.1z
					 M422.1,263.9c-1.1-0.1-2.2-0.2-3.3-0.3l0.1-1.1c1.2,0.1,2.3,0.2,3.4,0.3L422.1,263.9z M368.5,263.8l-0.1-1.1l3.4-0.1l0,1.1
					L368.5,263.8z M374,263.6l0-1.1l3.4-0.1l0,1.1L374,263.6z M416.5,263.5c-1.1-0.1-2.2-0.1-3.3-0.2l0-1.1c1.1,0,2.3,0.1,3.4,0.2
					L416.5,263.5z M379.6,263.4l0-1.1l3.4-0.1l0,1.1L379.6,263.4z M410.9,263.3c-1.1,0-2.2-0.1-3.3-0.1l0-1.1c1.1,0,2.3,0.1,3.4,0.1
					L410.9,263.3z M385.2,263.2l0-1.1c1.1,0,2.2,0,3.4-0.1l0,1.1C387.5,263.2,386.3,263.2,385.2,263.2z M405.3,263.1
					c-1.1,0-2.2,0-3.4,0l0-1.1c1.1,0,2.3,0,3.4,0L405.3,263.1z M390.8,263.1l0-1.1c1.1,0,2.2,0,3.4,0l0,1.1
					C393.1,263.1,391.9,263.1,390.8,263.1z M396.4,263.1l0-1.1l1.9,0l1.5,0l0,1.1l-1.5,0L396.4,263.1z"/>
			</g>
		</g>
		<g>
			<path d="M376.2,760.8l-1,0v-1l1,0L376.2,760.8z M377.3,760.8v-1l1,0l0,1L377.3,760.8z M374.2,760.8l-1,0l0-1l1,0L374.2,760.8z
				 M379.3,760.8l0-1l1,0v1L379.3,760.8z M372.1,760.8l-1,0l0-0.5l0-0.5l1,0L372.1,760.8z M381.4,760.8l0-1l1,0l0,1L381.4,760.8z
				 M370.1,760.7l-1,0l0-1l1,0L370.1,760.7z M383.4,760.7l0-1l1,0l0,1L383.4,760.7z M368,760.7l-1,0l0-1l1,0L368,760.7z
				 M385.5,760.7l0-0.5l0-0.5l1,0l0,1L385.5,760.7z M365.9,760.7l-1,0l0-1l1,0L365.9,760.7z M387.5,760.7l0-1l1,0l0,1L387.5,760.7z
				 M363.9,760.7l-1,0l0-1l1,0L363.9,760.7z M389.6,760.7l0-1l1,0l0,1L389.6,760.7z M361.8,760.7l-1,0l0-0.5l0-0.5l1,0L361.8,760.7z
				 M391.7,760.7l0-0.5l0-0.5l1,0l0,1L391.7,760.7z M359.8,760.7l-1,0l0-1l1,0L359.8,760.7z M393.7,760.6l0-1l1,0l0,1L393.7,760.6z
				 M357.7,760.6l-1,0l0-1l1,0L357.7,760.6z M395.8,760.6l0-1l1,0l0,1L395.8,760.6z M355.7,760.6l-1,0l0-0.5l0-0.5l1,0L355.7,760.6z
				 M397.8,760.6l0-0.5l0-0.5l1,0l0,1L397.8,760.6z M353.6,760.6l-1,0l0-1l1,0L353.6,760.6z M399.9,760.5l0-1l1,0l0,1L399.9,760.5z
				 M351.5,760.5l-1,0l0-1l1,0L351.5,760.5z M401.9,760.5l0-1l1,0l0,1L401.9,760.5z M349.5,760.5l-1,0l0-1l1,0L349.5,760.5z
				 M404,760.4l0-0.5l0-0.5l1,0l0,1L404,760.4z M347.4,760.4l-1,0l0-1l1,0L347.4,760.4z M406.1,760.4l0-1l1,0l0,1L406.1,760.4z
				 M345.4,760.4l-1,0l0-1l1,0L345.4,760.4z M408.1,760.3l0-1l1,0l0,1L408.1,760.3z M343.3,760.3l-1,0l0-0.5l0-0.5l1,0L343.3,760.3z
				 M410.2,760.3l0-1l1,0l0,1L410.2,760.3z M341.3,760.2l-1,0l0-1l1,0L341.3,760.2z M371.1,760.2l0-0.5L371.1,760.2z M412.3,760.2
				l-0.1-0.5l0-0.5l1,0l0,1L412.3,760.2z M339.2,760.2l-1,0l0-1l1,0L339.2,760.2z M360.8,760.2l0-0.5L360.8,760.2z M414.3,760.1l0-1
				l1,0l0,1L414.3,760.1z M337.2,760.1l-1,0l0-0.5l0.1-0.5l1,0L337.2,760.1z M354.6,760.1l0-0.5L354.6,760.1z M416.3,760l0-1l1,0
				l0,1L416.3,760z M335.1,760l-1,0l0-0.5l0.1-0.5l1,0L335.1,760z M418.4,760l0-1l1,0l0,1L418.4,760z M333,760l-1,0l0-1l1,0L333,760
				z M348.5,759.9l0-0.5L348.5,759.9z M331,759.9l-1,0l0-1l1,0L331,759.9z M420.4,759.9l0-1l1,0l0,1L420.4,759.9z M328.9,759.8l-1,0
				l0-1l1,0L328.9,759.8z M422.5,759.8l-0.1-0.5l0-0.5l1,0l0,1L422.5,759.8z M342.3,759.8l0-0.5L342.3,759.8z M326.9,759.7l-1,0
				l0-0.5l0.1-0.5l1,0L326.9,759.7z M424.6,759.7l-0.1-0.5l0-0.5l1,0l0,1L424.6,759.7z M324.8,759.6l-1-0.1l0.1-1l1,0.1L324.8,759.6
				z M426.6,759.6l-0.1-1l1-0.1l0.1,1L426.6,759.6z M336.1,759.6l0-0.5L336.1,759.6z M322.8,759.5l-1-0.1l0.1-1l1,0.1L322.8,759.5z
				 M334.1,759.5l0-0.5L334.1,759.5z M428.7,759.5l-0.1-1l1-0.1l0.1,1L428.7,759.5z M320.7,759.4l-1-0.1l0.1-1l1,0.1L320.7,759.4z
				 M430.7,759.4l-0.1-1l1-0.1l0.1,1L430.7,759.4z M318.7,759.3l-1-0.1l0.1-1l1,0.1L318.7,759.3z M432.8,759.2l-0.1-1l1-0.1l0.1,1
				L432.8,759.2z M316.6,759.1l-1-0.1l0.1-1l1,0.1L316.6,759.1z M325.9,759.1l0-0.5L325.9,759.1z M434.8,759.1l-0.1-1l1-0.1l0.1,1
				L434.8,759.1z M314.6,759l-1-0.1l0-0.5l0.1-0.5l1,0.1L314.6,759z M436.9,759l-0.1-1l1-0.1l0.1,1L436.9,759z M312.5,758.9l-1-0.1
				l0-0.5l0.1-0.5l1,0.1L312.5,758.9z M439,758.8l-0.1-0.5l0-0.5l1-0.1l0.1,1L439,758.8z M310.4,758.7l-1-0.1l0.1-1l1,0.1
				L310.4,758.7z M441,758.7l-0.1-1l1-0.1l0.1,1L441,758.7z M308.4,758.6l-1-0.1l0.1-1l1,0.1L308.4,758.6z M443,758.6l-0.1-1l1-0.1
				l0.1,1L443,758.6z M306.3,758.5l-1-0.1l0.1-1l1,0.1L306.3,758.5z M313.6,758.4l0-0.5L313.6,758.4z M445.2,758.4l-0.1-0.5l0-0.5
				l0.9-0.1l0.1,1L445.2,758.4z M304.3,758.3l-1-0.1l0.1-1l1,0.1L304.3,758.3z M311.5,758.3l0-0.5L311.5,758.3z M447.2,758.3
				l-0.1-0.5l0-0.5l0.9-0.1l0.1,1L447.2,758.3z M302.2,758.1l-1-0.1l0.1-1l1,0.1L302.2,758.1z M449.3,758.1l-0.1-0.5l0-0.5l0.9-0.1
				l0.1,1L449.3,758.1z M300.2,758l-1-0.1l0.1-1l1,0.1L300.2,758z M451.3,757.9l-0.1-0.5l0-0.5l0.9-0.1l0.1,1L451.3,757.9z
				 M298.1,757.8l-1-0.1l0.1-1l1,0.1L298.1,757.8z M453.3,757.7l-0.1-1l1-0.1l0.1,1L453.3,757.7z M296.1,757.6l-1-0.1l0.1-1l1,0.1
				L296.1,757.6z M455.3,757.6l-0.1-1l1-0.1l0.1,1L455.3,757.6z M294,757.4l-1-0.1l0.1-1l1,0.1L294,757.4z M457.4,757.4l-0.1-1
				l1-0.1l0.1,1L457.4,757.4z M292,757.3l-1-0.1l0.1-1l1,0.1L292,757.3z M459.4,757.2l-0.1-1l1-0.1l0.1,1L459.4,757.2z M289.9,757.1
				l-1-0.1l0.1-1l1,0.1L289.9,757.1z M461.5,757l-0.1-1l1-0.1l0.1,1L461.5,757z M287.9,756.8l-1-0.1l0.1-1l1,0.1L287.9,756.8z
				 M463.5,756.8l-0.1-1l1-0.1l0.1,1L463.5,756.8z M285.9,756.6l-1-0.1l0.1-1l1,0.1L285.9,756.6z M465.6,756.5l-0.1-1l1-0.1l0.1,1
				L465.6,756.5z M283.8,756.4l-1-0.1l0.1-1l1,0.1L283.8,756.4z M467.6,756.3l-0.1-1l1-0.1l0.1,1L467.6,756.3z M281.8,756.2l-1-0.1
				l0.1-1l1,0.1L281.8,756.2z M469.7,756.1l-0.1-1l1-0.1l0.1,1L469.7,756.1z M279.7,755.9l-1-0.1l0.1-1l1,0.1L279.7,755.9z
				 M471.7,755.8l-0.1-1l1-0.1l0.1,1L471.7,755.8z M277.7,755.7l-1-0.1l0.1-1l1,0.1L277.7,755.7z M473.8,755.6l-0.1-1l1-0.1l0.1,1
				L473.8,755.6z M275.6,755.4l-1-0.1l0.1-1l1,0.1L275.6,755.4z M475.8,755.3l-0.1-1l1-0.1l0.1,1L475.8,755.3z M273.6,755.2l-1-0.1
				l0.1-1l1,0.1L273.6,755.2z M477.8,755.1l-0.1-1l1-0.1l0.1,1L477.8,755.1z M271.6,754.9l-1-0.1l0.1-1l1,0.1L271.6,754.9z
				 M479.9,754.8l-0.1-1l1-0.1l0.1,1L479.9,754.8z M269.5,754.6l-1-0.1l0.1-1l1,0.1L269.5,754.6z M481.9,754.5l-0.1-1l1-0.1l0.1,1
				L481.9,754.5z M267.5,754.3l-1-0.2l0.2-1l1,0.2L267.5,754.3z M484,754.2l-0.1-1l1-0.1l0.1,1L484,754.2z M265.4,754l-1-0.2l0.2-1
				l1,0.2L265.4,754z M486,753.9l-0.2-1l1-0.2l0.2,1L486,753.9z M263.4,753.7l-1-0.2l0.2-1l1,0.2L263.4,753.7z M488,753.6l-0.2-1
				l1-0.2l0.2,1L488,753.6z M261.4,753.3l-1-0.2l0.2-1l1,0.2L261.4,753.3z M490.1,753.3l-0.2-1l1-0.2l0.2,1L490.1,753.3z M259.3,753
				l-1-0.2l0.2-1l1,0.2L259.3,753z M492.1,753l-0.2-1l1-0.2l0.2,1L492.1,753z M257.3,752.6l-1-0.2l0.2-1l1,0.2L257.3,752.6z
				 M494.1,752.6l-0.2-1l1-0.2l0.2,1L494.1,752.6z M496.1,752.3l-0.2-1l1-0.2l0.2,1L496.1,752.3z M255.3,752.3l-1-0.2l0.2-1l1,0.2
				L255.3,752.3z M498.2,751.9l-0.2-1l1-0.2l0.2,1L498.2,751.9z M253.3,751.9l-1-0.2l0.2-1l1,0.2L253.3,751.9z M500.2,751.5l-0.2-1
				l1-0.2l0.2,1L500.2,751.5z M251.3,751.5l-1-0.2l0.2-1l1,0.2L251.3,751.5z M502.2,751.1l-0.2-1l1-0.2l0.2,1L502.2,751.1z
				 M249.2,751l-1-0.2l0.2-1l1,0.2L249.2,751z M504.2,750.7l-0.2-1l1-0.2l0.2,1L504.2,750.7z M247.2,750.6l-1-0.2l0.2-1l1,0.2
				L247.2,750.6z M506.3,750.3l-0.2-1l1-0.2l0.2,1L506.3,750.3z M245.2,750.1l-1-0.2l0.2-1l1,0.2L245.2,750.1z M508.3,749.9l-0.2-1
				l1-0.2l0.2,1L508.3,749.9z M243.2,749.7l-1-0.3l0.3-1l1,0.3L243.2,749.7z M510.3,749.4l-0.2-1l1-0.2l0.2,1L510.3,749.4z
				 M241.2,749.1l-1-0.3l0.3-1l1,0.3L241.2,749.1z M512.3,749l-0.2-1l1-0.2l0.2,1L512.3,749z M239.2,748.6l-1-0.3l0.3-1l1,0.3
				L239.2,748.6z M514.3,748.5l-0.2-1l1-0.2l0.3,1L514.3,748.5z M237.2,748c-0.4-0.1-0.7-0.2-1-0.3l0.3-1c0.3,0.1,0.6,0.2,1,0.3
				L237.2,748z M516.3,748l-0.3-1l1-0.3l0.3,1L516.3,748z M518.3,747.5l-0.3-1l1-0.3l0.3,1L518.3,747.5z M235.3,747.4
				c-0.7-0.2-1-0.4-1-0.4l0.4-1c0,0,0.3,0.1,0.9,0.3L235.3,747.4z M520.3,746.9l-0.3-1l1-0.3l0.3,1L520.3,746.9z M522.3,746.4
				l-0.3-1l1-0.3l0.3,1L522.3,746.4z M524.2,745.8l-0.3-1l1-0.3l0.3,1L524.2,745.8z M526.2,745.2l-0.3-1c0.3-0.1,0.7-0.2,1-0.3
				l0.3,1C526.9,744.9,526.5,745.1,526.2,745.2z M528.2,744.5l-0.3-1c0.3-0.1,0.7-0.2,1-0.3l0.3,1
				C528.8,744.3,528.5,744.4,528.2,744.5z M530.1,743.8l-0.4-1c0.4-0.1,0.7-0.3,1-0.4l0.4,1C530.8,743.6,530.5,743.7,530.1,743.8z
				 M532,743.1l-0.4-0.9c0.5-0.2,0.8-0.3,0.8-0.3l0.4,0.9C532.8,742.7,532.6,742.8,532,743.1z"/>
		</g>
		<g>
			<path d="M377.3,766.9v-1l1,0l0,1L377.3,766.9z M376.2,766.9l-1,0v-1l1,0L376.2,766.9z M374.2,766.9l-1,0l0-1l1,0L374.2,766.9z
				 M379.3,766.9l0-1l1,0v1L379.3,766.9z M372.1,766.9l-1,0l0-0.5l0-0.5l1,0L372.1,766.9z M381.4,766.9l0-1l1,0l0,1L381.4,766.9z
				 M370.1,766.9l-1,0l0-1l1,0L370.1,766.9z M383.4,766.9l0-1l1,0l0,1L383.4,766.9z M368,766.9l-1,0l0-1l1,0L368,766.9z
				 M385.5,766.9l0-0.5l0-0.5l1,0l0,1L385.5,766.9z M365.9,766.9l-1,0l0-1l1,0L365.9,766.9z M387.5,766.9l0-1l1,0l0,1L387.5,766.9z
				 M363.9,766.9l-1,0l0-1l1,0L363.9,766.9z M389.6,766.9l0-1l1,0l0,1L389.6,766.9z M361.8,766.9l-1,0l0-0.5l0-0.5l1,0L361.8,766.9z
				 M391.7,766.8l0-0.5l0-0.5l1,0l0,1L391.7,766.8z M359.8,766.8l-1,0l0-1l1,0L359.8,766.8z M393.7,766.8l0-1l1,0l0,1L393.7,766.8z
				 M357.7,766.8l-1,0l0-1l1,0L357.7,766.8z M395.8,766.8l0-1l1,0l0,1L395.8,766.8z M355.7,766.8l-1,0l0-0.5l0-0.5l1,0L355.7,766.8z
				 M397.8,766.7l0-0.5l0-0.5l1,0l0,1L397.8,766.7z M353.6,766.7l-1,0l0-1l1,0L353.6,766.7z M399.9,766.7l0-1l1,0l0,1L399.9,766.7z
				 M351.5,766.7l-1,0l0-1l1,0L351.5,766.7z M401.9,766.7l0-1l1,0l0,1L401.9,766.7z M349.5,766.6l-1,0l0-1l1,0L349.5,766.6z
				 M404,766.6l0-0.5l0-0.5l1,0l0,1L404,766.6z M347.4,766.6l-1,0l0-1l1,0L347.4,766.6z M406.1,766.5l0-1l1,0l0,1L406.1,766.5z
				 M345.4,766.5l-1,0l0-1l1,0L345.4,766.5z M408.1,766.5l0-1l1,0l0,1L408.1,766.5z M343.3,766.5l-1,0l0-0.5l0-0.5l1,0L343.3,766.5z
				 M410.2,766.4l0-1l1,0l0,1L410.2,766.4z M341.3,766.4l-1,0l0-1l1,0L341.3,766.4z M371.1,766.4l0-0.5L371.1,766.4z M412.3,766.4
				l-0.1-0.5l0-0.5l1,0l0,1L412.3,766.4z M339.2,766.3l-1,0l0-1l1,0L339.2,766.3z M360.8,766.3l0-0.5L360.8,766.3z M414.3,766.3l0-1
				l1,0l0,1L414.3,766.3z M337.2,766.3l-1,0l0-0.5l0.1-0.5l1,0L337.2,766.3z M354.6,766.2l0-0.5L354.6,766.2z M416.3,766.2l0-1l1,0
				l0,1L416.3,766.2z M335.1,766.2l-1,0l0-0.5l0.1-0.5l1,0L335.1,766.2z M418.4,766.1l0-1l1,0l0,1L418.4,766.1z M333,766.1l-1,0l0-1
				l1,0L333,766.1z M348.5,766.1l0-0.5L348.5,766.1z M331,766l-1,0l0-1l1,0L331,766z M420.4,766l0-1l1,0l0,1L420.4,766z
				 M328.9,765.9l-1,0l0-1l1,0L328.9,765.9z M422.5,765.9l-0.1-0.5l0-0.5l1,0l0,1L422.5,765.9z M342.3,765.9l0-0.5L342.3,765.9z
				 M326.9,765.9l-1,0l0-0.5l0.1-0.5l1,0L326.9,765.9z M424.6,765.8l-0.1-0.5l0-0.5l1,0l0,1L424.6,765.8z M324.8,765.8l-1-0.1l0.1-1
				l1,0.1L324.8,765.8z M426.6,765.7l-0.1-1l1-0.1l0.1,1L426.6,765.7z M336.1,765.7l0-0.5L336.1,765.7z M322.8,765.7l-1-0.1l0.1-1
				l1,0.1L322.8,765.7z M334.1,765.6l0-0.5L334.1,765.6z M428.7,765.6l-0.1-1l1-0.1l0.1,1L428.7,765.6z M320.7,765.5l-1-0.1l0.1-1
				l1,0.1L320.7,765.5z M430.7,765.5l-0.1-1l1-0.1l0.1,1L430.7,765.5z M318.7,765.4l-1-0.1l0.1-1l1,0.1L318.7,765.4z M432.8,765.4
				l-0.1-1l1-0.1l0.1,1L432.8,765.4z M316.6,765.3l-1-0.1l0.1-1l1,0.1L316.6,765.3z M325.9,765.3l0-0.5L325.9,765.3z M434.8,765.3
				l-0.1-1l1-0.1l0.1,1L434.8,765.3z M314.6,765.2l-1-0.1l0-0.5l0.1-0.5l1,0.1L314.6,765.2z M436.9,765.2l-0.1-1l1-0.1l0.1,1
				L436.9,765.2z M312.5,765.1l-1-0.1l0-0.5l0.1-0.5l1,0.1L312.5,765.1z M439,765l-0.1-0.5l0-0.5l1-0.1l0.1,1L439,765z M310.4,764.9
				l-1-0.1l0.1-1l1,0.1L310.4,764.9z M441,764.9l-0.1-1l1-0.1l0.1,1L441,764.9z M308.4,764.8l-1-0.1l0.1-1l1,0.1L308.4,764.8z
				 M443,764.7l-0.1-1l1-0.1l0.1,1L443,764.7z M306.3,764.6l-1-0.1l0.1-1l1,0.1L306.3,764.6z M313.6,764.6l0-0.5L313.6,764.6z
				 M445.2,764.6l-0.1-0.5l0-0.5l0.9-0.1l0.1,1L445.2,764.6z M304.3,764.5l-1-0.1l0.1-1l1,0.1L304.3,764.5z M311.5,764.5l0-0.5
				L311.5,764.5z M447.2,764.4l-0.1-0.5l0-0.5l0.9-0.1l0.1,1L447.2,764.4z M302.2,764.3l-1-0.1l0.1-1l1,0.1L302.2,764.3z
				 M449.3,764.3l-0.1-0.5l0-0.5l0.9-0.1l0.1,1L449.3,764.3z M300.2,764.2l-1-0.1l0.1-1l1,0.1L300.2,764.2z M451.3,764.1l-0.1-0.5
				l0-0.5l0.9-0.1l0.1,1L451.3,764.1z M298.1,764l-1-0.1l0.1-1l1,0.1L298.1,764z M453.3,763.9l-0.1-1l1-0.1l0.1,1L453.3,763.9z
				 M296.1,763.8l-1-0.1l0.1-1l1,0.1L296.1,763.8z M455.3,763.7l-0.1-1l1-0.1l0.1,1L455.3,763.7z M294,763.6l-1-0.1l0.1-1l1,0.1
				L294,763.6z M457.4,763.5l-0.1-1l1-0.1l0.1,1L457.4,763.5z M292,763.4l-1-0.1l0.1-1l1,0.1L292,763.4z M459.4,763.4l-0.1-1l1-0.1
				l0.1,1L459.4,763.4z M289.9,763.2l-1-0.1l0.1-1l1,0.1L289.9,763.2z M461.5,763.1l-0.1-1l1-0.1l0.1,1L461.5,763.1z M287.9,763
				l-1-0.1l0.1-1l1,0.1L287.9,763z M463.5,762.9l-0.1-1l1-0.1l0.1,1L463.5,762.9z M285.9,762.8l-1-0.1l0.1-1l1,0.1L285.9,762.8z
				 M465.6,762.7l-0.1-1l1-0.1l0.1,1L465.6,762.7z M283.8,762.6l-1-0.1l0.1-1l1,0.1L283.8,762.6z M467.6,762.5l-0.1-1l1-0.1l0.1,1
				L467.6,762.5z M281.8,762.3l-1-0.1l0.1-1l1,0.1L281.8,762.3z M469.7,762.3l-0.1-1l1-0.1l0.1,1L469.7,762.3z M279.7,762.1l-1-0.1
				l0.1-1l1,0.1L279.7,762.1z M471.7,762l-0.1-1l1-0.1l0.1,1L471.7,762z M277.7,761.9l-1-0.1l0.1-1l1,0.1L277.7,761.9z M473.8,761.8
				l-0.1-1l1-0.1l0.1,1L473.8,761.8z M275.6,761.6l-1-0.1l0.1-1l1,0.1L275.6,761.6z M475.8,761.5l-0.1-1l1-0.1l0.1,1L475.8,761.5z
				 M273.6,761.3l-1-0.1l0.1-1l1,0.1L273.6,761.3z M477.8,761.3l-0.1-1l1-0.1l0.1,1L477.8,761.3z M271.6,761.1l-1-0.1l0.1-1l1,0.1
				L271.6,761.1z M479.9,761l-0.1-1l1-0.1l0.1,1L479.9,761z M269.5,760.8l-1-0.1l0.1-1l1,0.1L269.5,760.8z M481.9,760.7l-0.1-1
				l1-0.1l0.1,1L481.9,760.7z M267.5,760.5l-1-0.2l0.2-1l1,0.2L267.5,760.5z M484,760.4l-0.1-1l1-0.1l0.1,1L484,760.4z M265.4,760.2
				l-1-0.2l0.2-1l1,0.2L265.4,760.2z M486,760.1l-0.2-1l1-0.2l0.2,1L486,760.1z M263.4,759.8l-1-0.2l0.2-1l1,0.2L263.4,759.8z
				 M488,759.8l-0.2-1l1-0.2l0.2,1L488,759.8z M261.4,759.5l-1-0.2l0.2-1l1,0.2L261.4,759.5z M490.1,759.5l-0.2-1l1-0.2l0.2,1
				L490.1,759.5z M259.3,759.2l-1-0.2l0.2-1l1,0.2L259.3,759.2z M492.1,759.1l-0.2-1l1-0.2l0.2,1L492.1,759.1z M257.3,758.8l-1-0.2
				l0.2-1l1,0.2L257.3,758.8z M494.1,758.8l-0.2-1l1-0.2l0.2,1L494.1,758.8z M496.1,758.4l-0.2-1l1-0.2l0.2,1L496.1,758.4z
				 M255.3,758.4l-1-0.2l0.2-1l1,0.2L255.3,758.4z M498.2,758.1l-0.2-1l1-0.2l0.2,1L498.2,758.1z M253.3,758l-1-0.2l0.2-1l1,0.2
				L253.3,758z M500.2,757.7l-0.2-1l1-0.2l0.2,1L500.2,757.7z M251.3,757.6l-1-0.2l0.2-1l1,0.2L251.3,757.6z M502.2,757.3l-0.2-1
				l1-0.2l0.2,1L502.2,757.3z M249.2,757.2l-1-0.2l0.2-1l1,0.2L249.2,757.2z M504.2,756.9l-0.2-1l1-0.2l0.2,1L504.2,756.9z
				 M247.2,756.8l-1-0.2l0.2-1l1,0.2L247.2,756.8z M506.3,756.5l-0.2-1l1-0.2l0.2,1L506.3,756.5z M245.2,756.3l-1-0.2l0.2-1l1,0.2
				L245.2,756.3z M508.3,756.1l-0.2-1l1-0.2l0.2,1L508.3,756.1z M243.2,755.8l-1-0.3l0.3-1l1,0.3L243.2,755.8z M510.3,755.6l-0.2-1
				l1-0.2l0.2,1L510.3,755.6z M241.2,755.3l-1-0.3l0.3-1l1,0.3L241.2,755.3z M512.3,755.1l-0.2-1l1-0.2l0.2,1L512.3,755.1z
				 M239.2,754.8l-1-0.3l0.3-1l1,0.3L239.2,754.8z M514.3,754.7l-0.2-1l1-0.2l0.3,1L514.3,754.7z M237.2,754.2
				c-0.4-0.1-0.7-0.2-1-0.3l0.3-1c0.3,0.1,0.6,0.2,1,0.3L237.2,754.2z M516.3,754.2l-0.3-1l1-0.3l0.3,1L516.3,754.2z M518.3,753.6
				l-0.3-1l1-0.3l0.3,1L518.3,753.6z M235.3,753.5c-0.7-0.2-1-0.4-1-0.4l0.4-1c0,0,0.3,0.1,0.9,0.3L235.3,753.5z M520.3,753.1
				l-0.3-1l1-0.3l0.3,1L520.3,753.1z M522.3,752.5l-0.3-1l1-0.3l0.3,1L522.3,752.5z M524.2,752l-0.3-1l1-0.3l0.3,1L524.2,752z
				 M526.2,751.3l-0.3-1c0.3-0.1,0.7-0.2,1-0.3l0.3,1C526.9,751.1,526.5,751.2,526.2,751.3z M528.2,750.7l-0.3-1
				c0.3-0.1,0.7-0.2,1-0.3l0.3,1C528.8,750.4,528.5,750.6,528.2,750.7z M530.1,750l-0.4-1c0.4-0.1,0.7-0.3,1-0.4l0.4,1
				C530.8,749.7,530.5,749.9,530.1,750z M532,749.2l-0.4-0.9c0.5-0.2,0.7-0.3,0.8-0.3l0.2,0.5l0.5-0.1
				C533.2,748.7,533,748.8,532,749.2z"/>
		</g>
	</g>
</g>
     </g>
    <g id="CUSTOM"></g>
<g id="SHADING">
	<path d="M185.3,349.8c0,0.4,0,0.7,0.1,1.1C185.4,350.5,185.3,350.2,185.3,349.8z"/>
	<path d="M185.2,348.3c0,0.4,0,0.8,0.1,1.1C185.3,349,185.2,348.6,185.2,348.3z"/>
	<path d="M215.8,507.3C215.8,507.3,215.8,507.3,215.8,507.3C215.8,507.3,215.8,507.3,215.8,507.3z"/>
	<path d="M185.2,346.8c0,0.4,0,0.9,0.1,1.3C185.2,347.6,185.2,347.2,185.2,346.8z"/>
	<path d="M185,342.8c0,0.4,0,0.7,0,1.1C185,343.5,185,343.2,185,342.8z"/>
	<path d="M185.1,345.4c0,0.3,0,0.7,0,1C185.1,346.1,185.1,345.8,185.1,345.4z"/>
	<path d="M184.9,340.5c0,0.7,0,1.4,0.1,2.1C185,341.8,185,341.1,184.9,340.5z"/>
	<polygon points="215.8,508.8 215.8,508.8 215.8,508.8 	"/>
	<path d="M185,344c0,0.4,0,0.8,0,1.2C185.1,344.8,185.1,344.4,185,344z"/>
	<path d="M185.4,351.2c0,0.4,0.1,0.9,0.1,1.3C185.5,352.1,185.4,351.6,185.4,351.2z"/>
	<path d="M185.9,357.4c0,0.4,0.1,0.7,0.1,1.1C186,358.1,186,357.8,185.9,357.4z"/>
	<path d="M186.3,360.4c0,0.3,0.1,0.7,0.1,1C186.4,361,186.4,360.7,186.3,360.4z"/>
	<path d="M186.1,358.8c0.1,0.4,0.1,0.9,0.2,1.3C186.2,359.6,186.1,359.2,186.1,358.8z"/>
	<path d="M215.5,500.5c0,0,0,0.1,0,0.1C215.5,500.6,215.5,500.5,215.5,500.5z"/>
	<path d="M215.3,498.8c0,0.1,0,0.1,0,0.2C215.3,498.9,215.3,498.9,215.3,498.8z"/>
	<path d="M186.5,361.7c0.1,0.4,0.1,0.8,0.2,1.2C186.6,362.5,186.6,362.1,186.5,361.7z"/>
	<path d="M185.8,355.8c0,0.4,0.1,0.8,0.1,1.2C185.9,356.6,185.8,356.2,185.8,355.8z"/>
	<path d="M185.5,352.9c0,0.3,0.1,0.7,0.1,1C185.6,353.6,185.5,353.2,185.5,352.9z"/>
	<path d="M215.1,497.2c0,0,0,0.1,0,0.1C215.1,497.3,215.1,497.3,215.1,497.2z"/>
	<path d="M215.7,503.9c0,0,0,0.1,0,0.1C215.7,504,215.7,504,215.7,503.9z"/>
	<path d="M185.6,354.3c0,0.5,0.1,0.9,0.1,1.3C185.7,355.2,185.7,354.8,185.6,354.3z"/>
	<path d="M215.6,502.3C215.6,502.3,215.6,502.3,215.6,502.3C215.6,502.3,215.6,502.3,215.6,502.3z"/>
	<path d="M215.7,505.6c0,0,0,0.1,0,0.1C215.8,505.7,215.7,505.6,215.7,505.6z"/>
	<path d="M215.6,502.3c0-0.6-0.1-1.1-0.1-1.7C215.5,501.2,215.6,501.7,215.6,502.3z"/>
	<path d="M215.8,508.8c0-0.5,0-1,0-1.5C215.8,507.8,215.8,508.3,215.8,508.8z"/>
	<path d="M215.1,497.2c-0.1-0.5-0.2-1-0.3-1.5C214.9,496.2,215,496.7,215.1,497.2z"/>
	<path d="M215.8,507.3c0-0.5,0-1,0-1.5C215.8,506.3,215.8,506.8,215.8,507.3z"/>
	<path d="M215.7,503.9c0-0.5-0.1-1.1-0.1-1.6C215.6,502.8,215.7,503.4,215.7,503.9z"/>
	<path d="M215.7,505.6c0-0.5,0-1-0.1-1.5C215.7,504.6,215.7,505.1,215.7,505.6z"/>
	<path d="M215.3,498.8c-0.1-0.5-0.1-1-0.2-1.5C215.2,497.8,215.2,498.3,215.3,498.8z"/>
	<path d="M215.5,500.5c0-0.5-0.1-1-0.2-1.5C215.4,499.5,215.4,500,215.5,500.5z"/>
	<path d="M185.9,357.4c0-0.1,0-0.3,0-0.4C185.9,357.2,185.9,357.3,185.9,357.4z"/>
	<path d="M185,344C185,344,185,343.9,185,344C185,343.9,185,344,185,344z"/>
	<path d="M185.1,345.4c0-0.1,0-0.2,0-0.2C185.1,345.3,185.1,345.4,185.1,345.4z"/>
	<path d="M185.2,348.3c0-0.1,0-0.1,0-0.2C185.2,348.1,185.2,348.2,185.2,348.3z"/>
	<path d="M185.2,346.8c0-0.1,0-0.2,0-0.3C185.1,346.6,185.2,346.7,185.2,346.8z"/>
	<polygon points="184.9,340.5 184.9,340.5 184.9,340.5 	"/>
	<path d="M185,342.8c0-0.1,0-0.1,0-0.2C185,342.7,185,342.7,185,342.8z"/>
	<path d="M186.5,361.7c0-0.1,0-0.2-0.1-0.3C186.5,361.5,186.5,361.6,186.5,361.7z"/>
	<path d="M185.8,355.8c0,0,0-0.1,0-0.1C185.8,355.7,185.8,355.8,185.8,355.8z"/>
	<path d="M186.1,358.8c0-0.1,0-0.2,0-0.3C186.1,358.6,186.1,358.7,186.1,358.8z"/>
	<path d="M186.3,360.4c0-0.1,0-0.2,0-0.3C186.3,360.2,186.3,360.3,186.3,360.4z"/>
	<path d="M185.5,352.9c0-0.1,0-0.2,0-0.4C185.5,352.6,185.5,352.8,185.5,352.9z"/>
	<path d="M185.6,354.3c0-0.1,0-0.3,0-0.4C185.6,354.1,185.6,354.2,185.6,354.3z"/>
	<path d="M185.4,351.2c0-0.1,0-0.2,0-0.3C185.4,351,185.4,351.1,185.4,351.2z"/>
	<path d="M185.3,349.8c0-0.1,0-0.3,0-0.4C185.3,349.5,185.3,349.7,185.3,349.8z"/>
	<g>
		<path fill="#FFFFFF" d="M388.4,254.3c-1.6,0-3.3,0-5.1,0c-35.6,0.2-47.7,1.6-52.5,2.7c-4.9,1.2-12.9,10-11.9,12.1
			c1,2,33.9,21.2,68.9,21.6c0.3,0,0.6,0,1,0c34.7,0,61-17.8,60.7-20.8c-0.3-3-6.1-8.6-9.8-11.3C436.3,256.1,420.2,254.3,388.4,254.3
			"/>
		<path fill="#FFFFFF" d="M388.4,254.3c-1.6,0-3.3,0-5.1,0c-35.6,0.2-47.7,1.6-52.5,2.7c-4.9,1.2-12.9,10-11.9,12.1
			c1,2,33.9,21.2,68.9,21.6c0.3,0,0.6,0,1,0c34.7,0,61-17.8,60.7-20.8c-0.3-3-6.1-8.6-9.8-11.3C436.3,256.1,420.2,254.3,388.4,254.3
			"/>
	</g>
	<g opacity="0.15">
		<path d="M388.4,254.3c-1.6,0-3.3,0-5.1,0c-35.6,0.2-47.7,1.6-52.5,2.7c-4.9,1.2-12.9,10-11.9,12.1c1,2,33.9,21.2,68.9,21.6
			c0.3,0,0.6,0,1,0c34.7,0,61-17.8,60.7-20.8c-0.3-3-6.1-8.6-9.8-11.3C436.3,256.1,420.2,254.3,388.4,254.3"/>
	</g>
	<g opacity="2.000000e-02">
		<path d="M217.7,503.8C217.7,503.8,217.7,503.8,217.7,503.8C217.7,503.8,217.7,503.8,217.7,503.8z"/>
		<polygon points="217.7,505.3 217.7,505.3 217.7,505.3 		"/>
		<path d="M447.3,258.6l-1.7,0.6c2.8,2.6,5.3,5.7,5.5,7.7c0.2,1.6-7.2,7.4-19.4,12.4c1,2,1.7,4,1.8,5.5c0.4,5.7,0,5.3,0,13.6
			c0,8.3,3.1,16.7,8.3,29s11,5.7,14.9,23.3c2.9,13-9.3,14.7-15.9,14.7c-2.3,0-3.9-0.2-3.9-0.2s14.6,2.1,33,2.1
			c3.9,0,8.1-0.1,12.2-0.3c23.7-1.3,18.4,0,35.1-1.8c8.3-0.9,12.5-2,17.8-2s11.6,1.1,24.4,4.6c25.4,7,6.1,22.8,4.4,40.8
			c-1.8,18-27.2,15.4-34.7,25c-7.5,9.7-2.6,84.7-1.8,93c0.9,8.3-17.1,22.8-17.1,22.8s-4.8,14-7.9,24.6s4.8,32.5,4.4,56.2
			c-0.4,23.7-21.9,54.8-29.4,72c-7.5,17.1-5,26.3,8.4,63.2c0.1,0.3,1,0.4,2.5,0.4c10.2,0,47.7-5.8,48.2-6.7
			c-2.3-14.1-0.8-7.7-2.3-15.7c-4.3-23,0.9-77.4,5.1-98.7c4.3-21.3,10.2-90.2,9.4-101.2c-0.7-9.5,2.9-31,4-36.8
			c0-3.9,0.1-10.1,1-14.4c1.4-6.8,11.8-64.3,14-75.1c2.3-10.9,12.2-47.5,14-57.5c1.3-7,1.7-17.2,1.8-22.6c-1-0.7-1.6-1.1-1.6-1.1
			s-23-7.7-55.3-20.4c-32.3-12.8-58.7-35.7-62.9-39.1c-4.3-3.4-4.3-6-8.5-8.5C452.3,266.2,450.6,262.3,447.3,258.6"/>
		<path d="M320.8,261.9c-1.8,2.5-3.2,4.8-5.2,6c-4.3,2.6-4.3,5.1-8.5,8.5c-4.3,3.4-30.6,26.4-62.9,39.1
			c-32.3,12.8-55.3,20.4-55.3,20.4s-0.8,0.5-1.9,1.4c0.1,5.4,0.5,15.4,1.8,22.4c1.8,10,11.8,46.6,14,57.5
			c2.3,10.9,12.7,68.4,14,75.1c0.8,3.8,1,9.1,1,13l0-0.1c0,0,5.1,27.2,4.3,38.3c-0.9,11.1,5.1,80,9.4,101.2
			c4.3,21.3,9.4,75.7,5.1,98.7c-1.4,7.8-0.1,4.6-2.4,18.3c4.3,2.2,15.3,1.1,28.6,5.3c1.9-2.1,4-2.9,6.4-2.9c3,0,6.3,1.2,10,2.4
			c3.7,1.2,7.7,2.4,12,2.4c0,0,0,0,0,0c17.2,0,37.2-0.4,37.2-0.4s0.5,2.3,0.8,2.3c0.2,0,0.3-1.3-0.1-6.1
			c-0.9-11-35.5-59.2-42.1-70.2c-5.3-8.8,0.2-9.7,2.6-9.7c0.6,0,0.9,0,0.9,0s-9.7-4.4-13.6-25.9s6.6-47.8,16.2-70.6
			c9.7-22.8,37.7-46.5,37.7-46.5s-5.4,0.9-13.9,0.9c-11.5,0-28.7-1.6-45.4-9.2c-29-13.2-30.7-35.5-34.7-104.4
			c-3.9-68.9,2.6-82.5,18.4-83.4c0.4,0,0.8,0,1.2,0c17.2,0,70.6,17.7,78.7,21.1c0,0,5.3-11,3.5-17.6c-1.8-6.6,3.5-17.1,9.7-28.5
			c3.6-6.7,5.1-7.6,6.2-7.6c0.2,0,0.4,0,0.6,0.1c0.2,0,0.4,0.1,0.6,0.1c0.3,0,0.6-0.1,1-0.4c2.2-1.8,0.4-11.8-0.9-14.9
			c-1.3-3.1-0.4-3.9,2.2-11c0.5-1.3-0.6-3-2.6-4.9c-19.6-5.9-34-14.6-34.7-16c-0.3-0.6,0.3-2,1.4-3.6
			C321.7,262.3,321.2,262.1,320.8,261.9"/>
		<path d="M143.9,393.2c0,0,0.9,6.6,4.4,14c3.5,7.5,39.1,52.2,39.1,52.2s-32-35.1-33.8-37.3c-1.6-2-14.2-12-16-12l-0.2,0.2
			c0,1.8,11,13.6,19.7,21.9c8.8,8.3,26.8,26.3,35.1,39.1c8.3,12.7,23.7,34.7,23.7,34.7s-3.1-12.7-5.3-18
			c-2.2-5.3-11.4-19.3-13.6-22.8C194.8,461.6,143.9,393.2,143.9,393.2"/>
		<path d="M147.4,382.6c0,0,4.8,18,14.5,27.2c9.7,9.2,19.7,12.3,19.7,12.3s-16.2-13.6-19.3-18C159.3,399.7,147.4,382.6,147.4,382.6"
			/>
		<path d="M637.1,406.3c0,0-5.7,11.4-10.5,20.2c-4.8,8.8-25.4,25.4-36.4,31.6c-11,6.1-31.2,28.5-31.2,28.5s9.2-1.8,14.9-6.1
			c5.7-4.4,42.1-18.9,56.2-39.1C644.1,421.2,637.1,406.3,637.1,406.3"/>
		<path d="M630.1,473c0,0-15.8,13.6-28.1,17.1c-12.3,3.5-35.5,7.9-35.5,7.9s4.4,1.2,11.4,1.2c6.7,0,15.8-1,25.9-5.1
			C624.4,485.7,630.1,473,630.1,473"/>
		<path d="M614.6,414.5c-3.2,0-7.3,1.2-11.3,5.8c-8.3,9.7-11,13.2-18.4,17.6c-7.3,4.3-11.2,21.4-11.4,22.3c0.2-0.8,3-12.4,12.7-17.1
			c10.1-4.8,17.1-4.4,21.9-12.7c4.8-8.3,12.3-14.5,12.3-14.5S618,414.5,614.6,414.5"/>
	</g>
</g>
<g id="CK_LOGO">
	<path id="DETAIL_00000026163846798873267590000002824605832789399173_" d="M277.8,361.4l7.3,7.2l-7.3,0V361.4L277.8,361.4z
		 M259.6,371.2c-5,0-10.4-4.7-10.4-10.9c0-6.2,5.4-10.9,10.4-10.9h23.1c5,0,10.4,4.7,10.4,10.9c0,6.2-5.4,10.9-10.4,10.9H259.6
		L259.6,371.2z M282.7,373.4c6.2,0,12.6-5.7,12.5-13.1c0-7.4-6.3-13.1-12.6-13.1h-23.1c-6.3,0-12.6,5.7-12.6,13.1
		c0,7.4,6.3,13.1,12.5,13.1L282.7,373.4L282.7,373.4z M252,360.3c0,4.4,3.5,8,7.9,8.3V352C255.4,352.3,252,355.9,252,360.3
		 M268.6,359.2V352l-7.3,0L268.6,359.2z M277.8,359.2l7.3-7.2h-7.3V359.2z M270.1,368.5l6.1,0V352l-6.1,0V368.5L270.1,368.5z
		 M268.6,368.5v-7.2l-7.4,7.2L268.6,368.5z"/>
	<g>
	</g>
</g>
</svg>
