<?xml version="1.0" encoding="utf-8"?>
<!-- Generator: Adobe Illustrator 27.1.1, SVG Export Plug-In . SVG Version: 6.00 Build 0)  -->
<svg version="1.1" xmlns="http://www.w3.org/2000/svg" xmlns:xlink="http://www.w3.org/1999/xlink" x="0px" y="0px"
	 viewBox="0 0 630 1021.7" enable-background="new 0 0 771.1 1021.7" xml:space="preserve">

<g id="OUTLINE">
	<path fill="#FFFFFF" stroke="#897F76" stroke-miterlimit="10" d="M654.7,511.1l-2.5-12.7c0,0-1.7-73-10.2-102.8
		c-8.5-29.7-37.4-51.8-42.5-53.5c-3.8-1.3-9.9-5.3-12.8-7.4c0,0.3,0,0.7,0,1.1c0-0.4,0-0.7,0-1.1c-1-0.7-1.6-1.1-1.6-1.1
		s-22.9-7.6-55.2-20.4c-18.7-7.4-35.4-18.2-47-26.6c-0.7-0.2-1.5-0.3-2.2-0.5c0.7,0.2,1.5,0.3,2.2,0.5c-1-0.7-2-1.5-3-2.2
		c-6.8-5.1-11.3-9-12.9-10.2c-4.2-3.4-4.2-5.9-8.5-8.5c-4.2-2.5-5.9-10.2-14.4-14.4c-5.4-2.7-29.7-3.7-46.7-4l0-0.2
		c0,0-3.3,0-8.5,0.1c-5.2-0.1-8.5-0.1-8.5-0.1l0,0.2c-17,0.4-41.3,1.3-46.7,4c-8.5,4.2-10.2,11.9-14.4,14.4
		c-4.2,2.5-4.2,5.1-8.5,8.5c-1.2,1-4.4,3.7-9.1,7.3c-2.9,2.3-6.4,4.9-10.4,7.7c-11.3,8-26.6,17.4-43.4,24.1
		c-32.3,12.7-55.2,20.4-55.2,20.4s-0.8,0.5-1.9,1.4c-3,2.1-8.9,5.9-12.5,7.1c-5.1,1.7-34,23.8-42.5,53.5
		c-8.5,29.7-10.2,102.8-10.2,102.8l-2.5,12.7l-2.5,7.6c0,0,29.7,7.6,55.2,9.3c25.5,1.7,41.6,1.7,41.6,1.7s1.7-1.7,0.8-6.8
		c-0.8-5.1-1.7-6.8-0.8-9.3c0.8-2.4,3.8-10,4.2-10.9c0,0,0,0,0,0c0-0.1,0-0.1,0-0.1s5.1,27.2,4.2,38.2c-0.1,1.9-0.1,5.3,0.1,10
		c0,0-0.1,0-0.1,0c0.8,18.8,4.2,56.4,7.3,79c35.1,7.3,73.4,12.2,113.7,14.3c-40.1-2-79-6.8-113.6-13.8c0.7,4.7,1.3,8.7,1.9,11.7
		c4.2,21.2,9.3,75.6,5.1,98.5c-2.6,13.8-7.3,41.4-11.2,67c4.5,0.6,12,1.7,21.1,3.3c15,2.5,60.5,6.6,90.7,8.4
		c30.2,1.8,61-0.6,101.4,0.7c34.8,1.1,89-7.2,103.7-9.5c-4.2-27.9-5.7-54.4-8.6-69.8c-4.2-22.9,0.8-77.3,5.1-98.5
		c0.6-3.1,1.3-7.1,1.9-11.9c-37.6,7.7-79.8,12.7-123.4,14.4c43.9-1.7,85.5-6.8,123.5-14.7c3.1-22.2,6.4-59,7.2-78.1c0,0,0.1,0,0.1,0
		c0.2-5,0.3-8.8,0.1-10.8c-0.7-9.5,2.9-30.9,4-36.7c0,0,0,0,0,0c0.2-0.9,0.3-1.5,0.3-1.5s3.4,8.5,4.2,11c0.8,2.5,0,4.2-0.8,9.3
		c-0.8,5.1,0.8,6.8,0.8,6.8s16.1,0,41.6-1.7c25.5-1.7,55.2-9.3,55.2-9.3L654.7,511.1z"/>
</g>
<g id="SHIRT_SLEEVES">
	<g>
		<path fill="#897F76" d="M221.5,501.2C221.5,501.2,221.5,501.2,221.5,501.2c0-0.5,0-1,0-1.6c0,0,0-0.1,0-0.1c0-0.5,0-1-0.1-1.5
			c0,0,0-0.1,0-0.1c0-0.5-0.1-1.1-0.1-1.6c0,0,0,0,0,0c0-0.6-0.1-1.1-0.1-1.7c0,0,0-0.1,0-0.1c0-0.5-0.1-1-0.2-1.5
			c0-0.1,0-0.1,0-0.2c-0.1-0.5-0.1-1-0.2-1.4c0,0,0-0.1,0-0.1c-0.1-0.5-0.2-1-0.3-1.5c-1.4-6.8-11.8-64.2-14-75
			c-2.3-10.8-12.2-47.5-14-57.4c-0.1-0.4-0.1-0.8-0.2-1.2c0-0.1,0-0.2-0.1-0.3c0-0.3-0.1-0.6-0.1-1c0-0.1,0-0.2,0-0.3
			c-0.1-0.4-0.1-0.8-0.2-1.3c0-0.1,0-0.2,0-0.3c0-0.3-0.1-0.7-0.1-1c0-0.1,0-0.3,0-0.4c0-0.4-0.1-0.8-0.1-1.2c0,0,0-0.1,0-0.1
			c0-0.4-0.1-0.9-0.1-1.3c0-0.1,0-0.3,0-0.4c0-0.3-0.1-0.7-0.1-1c0-0.1,0-0.2,0-0.4c0-0.4-0.1-0.9-0.1-1.3c0-0.1,0-0.2,0-0.3
			c0-0.4,0-0.7-0.1-1.1c0-0.1,0-0.3,0-0.4c0-0.4,0-0.8-0.1-1.1c0-0.1,0-0.1,0-0.2c0-0.4,0-0.9-0.1-1.3c0-0.1,0-0.2,0-0.3
			c0-0.3,0-0.7,0-1c0-0.1,0-0.2,0-0.2c0-0.4,0-0.8,0-1.2c0,0,0,0,0-0.1c0-0.4,0-0.7,0-1.1c0-0.1,0-0.1,0-0.2c0-0.8,0-1.5-0.1-2.1
			c0,0,0,0,0,0c-3,2.1-8.9,5.9-12.5,7.1c-5.1,1.7-34,23.8-42.5,53.5c-8.5,29.7-10.2,102.8-10.2,102.8l-2.5,12.7l-2.5,7.6
			c0,0,29.7,7.6,55.2,9.3c25.5,1.7,41.6,1.7,41.6,1.7s1.7-1.7,0.8-6.8c-0.8-5.1-1.7-6.8-0.8-9.3c0.8-2.4,3.8-10,4.2-10.9l0,0
			C221.5,502.2,221.5,501.7,221.5,501.2z"/>
		<path fill="#897F76" d="M654.7,511.1l-2.5-12.7c0,0-1.7-73-10.2-102.8c-8.5-29.7-37.4-51.8-42.5-53.5c-3.8-1.3-9.9-5.3-12.8-7.4
			c-0.1,5.4-0.5,15.5-1.8,22.6c-1.8,9.9-11.8,46.6-14,57.4s-12.7,68.2-14,75c-0.9,4.3-1,10.5-1,14.4c0.2-0.9,0.3-1.5,0.3-1.5
			s3.4,8.5,4.2,11c0.8,2.5,0,4.2-0.8,9.3c-0.8,5.1,0.8,6.8,0.8,6.8s16.1,0,41.6-1.7c25.5-1.7,55.2-9.3,55.2-9.3L654.7,511.1z"/>
	</g>
</g>
<g id="SHIRT_COLLAR">
	<path fill="#64615E" d="M482.8,286.6c-1-0.7-2-1.5-3-2.2c-6.8-5.1-11.3-9-12.9-10.2c-4.2-3.4-4.2-5.9-8.5-8.5
		c-4.2-2.5-5.9-10.2-14.4-14.4c-5.4-2.7-29.7-3.7-46.7-4l0-0.2c0,0-3.3,0-8.5,0.1c-5.2-0.1-8.5-0.1-8.5-0.1l0,0.2
		c-17,0.4-41.3,1.3-46.7,4c-8.5,4.2-10.2,11.9-14.4,14.4c-4.2,2.5-4.2,5.1-8.5,8.5c-1.2,1-4.4,3.7-9.1,7.3
		c-2.9,2.3-6.4,4.9-10.4,7.7c22.2-6,56.7-13,97.6-13C426.6,276.1,459.8,281.5,482.8,286.6z"/>
</g>
  <g id="MASKB">
    <g id="SHIRT_LOWER_BACK">
	<g>
		<path fill="#FFFFFF" d="M340.8,819c30.2,1.8,61-0.6,101.4,0.7c34.8,1.1,89-7.2,103.7-9.5c-4.2-27.9-5.7-54.4-8.6-69.8
			c-4.2-22.9,0.8-77.3,5.1-98.5c0.6-3.1,1.3-7.1,1.9-11.9c-43.8,9-93.9,14.3-145.3,15c-3.5,0-6.9,0.1-10.4,0.1
			c-10.5,0-20.8-0.2-31.1-0.6c-43.9-1.6-86.7-6.6-124.4-14.3c0.7,4.7,1.3,8.7,1.9,11.7c4.2,21.2,9.3,75.6,5.1,98.5
			c-2.6,13.8-7.3,41.4-11.2,67c4.5,0.6,12,1.7,21.1,3.3C265,813.2,310.6,817.2,340.8,819z"/>
	</g>
</g>
<g id="SHIRT_BACK_FAUX_PANEL">
	<path fill="#64615E" d="M585,333.6c0,0-22.9-7.6-55.2-20.4c-18.7-7.4-35.4-18.2-47-26.6c-23.1-5.1-56.3-10.5-94-10.5
		c-40.8,0-75.3,7-97.6,13c-11.3,8-26.6,17.4-43.4,24.1c-32.3,12.7-55.2,20.4-55.2,20.4s-0.8,0.5-1.9,1.4c0,0,0,0,0,0
		c0,0.6,0,1.4,0.1,2.1c0,0.1,0,0.1,0,0.2c0,0.4,0,0.7,0,1.1c0,0,0,0,0,0.1c0,0.4,0,0.8,0,1.2c0,0.1,0,0.2,0,0.2c0,0.3,0,0.7,0,1
		c0,0.1,0,0.2,0,0.3c0,0.4,0,0.9,0.1,1.3c0,0.1,0,0.1,0,0.2c0,0.4,0,0.8,0.1,1.1c0,0.1,0,0.3,0,0.4c0,0.4,0,0.7,0.1,1.1
		c0,0.1,0,0.2,0,0.3c0,0.4,0.1,0.9,0.1,1.3c0,0.1,0,0.2,0,0.4c0,0.3,0.1,0.7,0.1,1c0,0.1,0,0.3,0,0.4c0,0.4,0.1,0.9,0.1,1.3
		c0,0,0,0.1,0,0.1c0,0.4,0.1,0.8,0.1,1.2c0,0.1,0,0.3,0,0.4c0,0.4,0.1,0.7,0.1,1c0,0.1,0,0.2,0,0.3c0.1,0.4,0.1,0.9,0.2,1.3
		c0,0.1,0,0.2,0,0.3c0,0.3,0.1,0.7,0.1,1c0,0.1,0,0.2,0.1,0.3c0.1,0.4,0.1,0.8,0.2,1.2c1.8,9.9,11.8,46.6,14,57.4
		c2.3,10.8,12.7,68.2,14,75c0.1,0.5,0.2,1,0.3,1.5c0,0,0,0.1,0,0.1c0.1,0.5,0.1,1,0.2,1.4c0,0.1,0,0.1,0,0.2c0.1,0.5,0.1,1,0.2,1.5
		c0,0,0,0.1,0,0.1c0,0.5,0.1,1.1,0.1,1.7c0,0,0,0,0,0c0,0.5,0.1,1.1,0.1,1.6c0,0,0,0.1,0,0.1c0,0.5,0,1,0.1,1.5c0,0,0,0.1,0,0.1
		c0,0.5,0,1,0,1.5c0,0,0,0,0,0c0,0.5,0,1,0,1.5c0-0.1,0-0.1,0-0.1s5.1,27.2,4.2,38.2c-0.2,2.1-0.1,6.2,0.2,11.6
		c48.8,12.6,103.5,19.7,161.3,19.7c59.1,0,114.9-7.4,164.5-20.5c0.2-5,0.3-8.8,0.1-10.8c-0.7-9.5,2.9-30.9,4-36.7
		c0-3.9,0.1-10.1,1-14.4c1.4-6.8,11.8-64.2,14-75c2.3-10.8,12.2-47.5,14-57.4c1.3-7,1.7-17.2,1.8-22.6
		C585.6,334,585,333.6,585,333.6z"/>
</g>
<g id="SHIRT_BACK_STRIPE">
	<path d="M544.4,629.7c3.1-22.6,6.5-60.3,7.3-79c-49,13.7-104.4,21.4-163.1,21.4c-58.6,0-113.9-7.7-162.8-21.4
		c0.8,18.8,4.2,56.4,7.3,79c47.1,9.8,99.8,15.3,155.5,15.3C444.4,645,497.2,639.5,544.4,629.7z"/>
</g>
<g id="SHIRT_FAUX_PANEL_STRIPES">
	<g>
		<g>
			<g>
				<g>
					<g>
						<path fill="#897F76" d="M575.8,394.5c0.4-1.6,0.8-3.3,1.3-5c-81.2,9.1-207.3,13.9-251.5,13.9c-33.5,0-80.9-2.6-123.5-7.4
							c0.4,1.7,0.9,3.4,1.3,5c42.3,4.6,89.1,7.2,122.3,7.2C369.6,408.2,494.3,403.5,575.8,394.5z"/>
					</g>
					<g>
						<path fill="#897F76" d="M579.3,380.6c0.5-2.1,1-4.1,1.5-6c-80.4,9.2-210.2,14.1-254.7,14.1c-34.7,0-84.4-2.8-128.1-7.9
							c0.5,2,1,4,1.5,6c43.4,4.9,92.3,7.6,126.6,7.6C370.4,394.4,498.6,389.6,579.3,380.6z"/>
					</g>
					<g>
						<path fill="#897F76" d="M582.8,366.6c0.7-2.7,1.2-5.1,1.6-7c-79.5,9.4-212.8,14.3-257.6,14.3c-35.8,0-87.9-3-132.6-8.4
							c0.5,2.1,1.1,4.5,1.7,7c44.4,5.2,95.5,8.1,130.8,8.1C371.4,380.5,502.9,375.8,582.8,366.6z"/>
					</g>
					<g>
						<path fill="#897F76" d="M585.5,352.7c0.3-2.6,0.5-5.3,0.7-7.9c-78.9,9.4-213.9,14.3-258.7,14.3c-36.7,0-90.5-3.1-135.9-8.8
							c0,0.4,0.1,0.8,0.1,1.2c0,0.1,0,0.3,0,0.4c0,0.4,0.1,0.7,0.1,1c0,0.1,0,0.2,0,0.3c0.1,0.4,0.1,0.9,0.2,1.3c0,0.1,0,0.2,0,0.3
							c0,0.3,0.1,0.7,0.1,1c0,0.1,0,0.2,0.1,0.3c0.1,0.4,0.1,0.8,0.2,1.2c0,0.3,0.1,0.6,0.2,0.9c45.3,5.5,98.4,8.6,134.9,8.6
							C372.2,366.7,506.4,361.9,585.5,352.7z"/>
					</g>
					<g>
						<path fill="#897F76" d="M586.5,339c0.1-1.6,0.1-3.1,0.1-4.3c-1-0.7-1.6-1.1-1.6-1.1s-2.6-0.9-7.2-2.5
							c-79.4,8.7-206.7,13.2-249.7,13.2c-37.1,0-91.7-3.2-137.4-9c0,0.6,0,1.2,0,1.8c0,0.1,0,0.1,0,0.2c0,0.4,0,0.7,0,1.1
							c0,0,0,0,0,0.1c0,0.4,0,0.8,0,1.2c0,0.1,0,0.2,0,0.2c0,0.3,0,0.7,0,1c0,0.1,0,0.2,0,0.3c0,0.4,0,0.9,0.1,1.3
							c0,0.1,0,0.1,0,0.2c0,0.4,0,0.8,0.1,1.1c0,0.1,0,0.2,0,0.2c45.7,5.7,100.1,8.8,137.1,8.8C372.7,352.9,507.9,348.1,586.5,339z"
							/>
					</g>
				</g>
			</g>
			<path fill="#897F76" d="M390.1,338.6c71.7-0.7,132.6-6.5,175.5-12.1c-4.3-1.6-9.3-3.4-14.9-5.5c-28.2,4-88.1,11.2-160.6,11.9
				c-70.7,0.7-140.5-4.8-176.2-8.2c-7.3,2.7-13.2,4.8-17.1,6.1l1.3,1.6C198,332.4,247.2,340,390.1,338.6z"/>
			<path fill="#897F76" d="M390.1,326.6c59-0.6,110.7-4.6,151.1-9.2c-4.1-1.6-8.4-3.3-13-5c-0.3-0.1-0.6-0.2-0.9-0.4
				c-32.2,3.8-80.9,8.3-137.3,8.8c-56.2,0.5-111.9-2.8-150.3-5.9c-7.3,2.9-14.1,5.4-20.1,7.6C246.1,324.7,299.1,327.5,390.1,326.6z"
				/>
		</g>
		<path fill="#897F76" d="M389.9,320.3c53.8-0.5,105-4.6,137.4-8.4c-17.9-7.4-33.9-17.7-45-25.9c-22.9-5.1-56-10.5-93.5-10.5
			c-40.6,0-74.9,7-97,13c-11.3,8-26.4,17.4-43.2,24.1c-1.7,0.7-3.4,1.3-5,2C281.5,317.6,335.4,320.8,389.9,320.3z"/>
	</g>
</g>
      </g>
<g id="CUSTOM">
</g>
<g id="SHIRT_STITCHING">
	<g opacity="0.4">
		<g opacity="0.35">
			<path fill="#6C6361" d="M479.2,284.9l-0.3-0.1c0,0-0.1-0.1-0.3-0.2l0.5-0.6c0.1,0.1,0.2,0.2,0.3,0.2l-0.2,0.3V284.9z
				 M478.1,284.2c-0.2-0.1-0.3-0.2-0.5-0.4l0.4-0.6c0.2,0.1,0.4,0.3,0.6,0.4L478.1,284.2z M299.9,284l-0.5-0.6c0,0,0.2-0.1,0.6-0.4
				l0.4,0.6C300.1,283.8,299.9,284,299.9,284z M477.1,283.4l-0.6-0.3l0.4-0.7l0.6,0.4L477.1,283.4z M301,283.3l-0.4-0.7
				c0.2-0.1,0.4-0.2,0.6-0.3l0.4,0.7C301.3,283,301.2,283.1,301,283.3z M475.9,282.8c-0.2-0.1-0.4-0.2-0.6-0.3l0.4-0.7
				c0.2,0.1,0.4,0.2,0.6,0.3L475.9,282.8z M302.1,282.6l-0.4-0.7l0.6-0.3l0.4,0.7L302.1,282.6z M474.8,282.1l-0.6-0.3l0.4-0.7
				l0.6,0.3L474.8,282.1z M303.3,282l-0.4-0.7l0.6-0.3l0.4,0.7L303.3,282z M473.7,281.5l-0.6-0.3l0.4-0.7l0.6,0.3L473.7,281.5z
				 M304.4,281.4l-0.3-0.7l0.6-0.3l0.3,0.7L304.4,281.4z M472.5,280.9l-0.6-0.3l0.3-0.7l0.6,0.3L472.5,280.9z M305.6,280.8l-0.3-0.7
				l0.6-0.3l0.3,0.7L305.6,280.8z M471.3,280.3l-0.6-0.3l0.3-0.7l0.6,0.3L471.3,280.3z M306.8,280.2l-0.3-0.7l0.6-0.3l0.3,0.7
				L306.8,280.2z M470.1,279.7l-0.6-0.3l0.3-0.7l0.6,0.3L470.1,279.7z M308,279.7l-0.3-0.7l0.6-0.3l0.3,0.7L308,279.7z M468.9,279.2
				l-0.6-0.3l0.3-0.7l0.6,0.3L468.9,279.2z M309.2,279.2l-0.3-0.7l0.6-0.3l0.3,0.7L309.2,279.2z M310.4,278.7l-0.3-0.7l0.6-0.2
				l0.3,0.7L310.4,278.7z M467.7,278.7l-0.6-0.3l0.3-0.7l0.6,0.3L467.7,278.7z M311.6,278.2l-0.3-0.7l0.6-0.2l0.3,0.7L311.6,278.2z
				 M466.5,278.2l-0.6-0.2l0.3-0.7l0.6,0.2L466.5,278.2z M312.9,277.7l-0.3-0.7l0.6-0.2l0.3,0.7L312.9,277.7z M465.3,277.7l-0.6-0.2
				l0.3-0.7l0.6,0.2L465.3,277.7z M314.1,277.3l-0.3-0.7l0.6-0.2l0.3,0.7L314.1,277.3z M464.1,277.2l-0.6-0.2l0.3-0.7l0.6,0.2
				L464.1,277.2z M315.4,276.8l-0.3-0.7l0.6-0.2l0.2,0.7L315.4,276.8z M462.8,276.7l-0.6-0.2l0.3-0.7l0.6,0.2L462.8,276.7z
				 M316.6,276.4l-0.2-0.7l0.6-0.2l0.2,0.7L316.6,276.4z M461.6,276.3l-0.6-0.2l0.2-0.7l0.6,0.2L461.6,276.3z M317.9,276l-0.2-0.7
				l0.6-0.2l0.2,0.7L317.9,276z M460.4,275.9l-0.6-0.2l0.2-0.7l0.6,0.2L460.4,275.9z M319.1,275.6l-0.2-0.7l0.6-0.2l0.2,0.7
				L319.1,275.6z M459.1,275.5l-0.6-0.2l0.2-0.7l0.6,0.2L459.1,275.5z M320.4,275.2l-0.2-0.7l0.6-0.2l0.2,0.7L320.4,275.2z
				 M457.9,275.1l-0.6-0.2l0.2-0.7l0.5,0.2L457.9,275.1z M321.6,274.9l-0.2-0.7l0.6-0.2l0.2,0.7L321.6,274.9z M456.6,274.7l-0.6-0.2
				l0.2-0.7l0.6,0.2L456.6,274.7z M322.9,274.5l-0.2-0.7l0.6-0.2l0.2,0.7L322.9,274.5z M455.3,274.3l-0.6-0.2l0.2-0.7l0.6,0.2
				L455.3,274.3z M324.2,274.1l-0.2-0.7l0.6-0.2l0.2,0.7L324.2,274.1z M454.1,273.9l-0.6-0.2l0.2-0.7l0.6,0.2L454.1,273.9z
				 M325.4,273.8l-0.2-0.7l0.6-0.2l0.2,0.7L325.4,273.8z M452.8,273.6l-0.6-0.2l0.2-0.7l0.6,0.2L452.8,273.6z M326.7,273.5l-0.2-0.7
				l0.6-0.2l0.2,0.7L326.7,273.5z M451.5,273.2l-0.6-0.2l0.2-0.7l0.6,0.2L451.5,273.2z M328,273.2l-0.2-0.7l0.6-0.2l0.2,0.7
				L328,273.2z M450.2,272.9l-0.6-0.2l0.2-0.7l0.6,0.2L450.2,272.9z M329.3,272.9l-0.2-0.7l0.6-0.2l0.2,0.7L329.3,272.9z M449,272.6
				l-0.6-0.2l0.2-0.7l0.6,0.2L449,272.6z M330.6,272.6l-0.2-0.7l0.6-0.1l0.2,0.7L330.6,272.6z M447.7,272.3l-0.6-0.1l0.2-0.7
				l0.6,0.2L447.7,272.3z M331.8,272.3l-0.2-0.8l0.6-0.1l0.2,0.8L331.8,272.3z M446.4,272l-0.6-0.1l0.2-0.7l0.6,0.1L446.4,272z
				 M333.1,272l-0.2-0.8l0.6-0.1l0.2,0.8L333.1,272z M334.4,271.7l-0.2-0.8l0.6-0.1l0.2,0.8L334.4,271.7z M445.1,271.7l-0.6-0.1
				l0.2-0.8l0.6,0.1L445.1,271.7z M335.7,271.5l-0.1-0.8l0.6-0.1l0.1,0.8L335.7,271.5z M443.8,271.4l-0.6-0.1l0.2-0.8l0.6,0.1
				L443.8,271.4z M337,271.2l-0.1-0.8l0.7-0.1l0.1,0.8L337,271.2z M442.5,271.2l-0.6-0.1l0.2-0.8l0.6,0.1L442.5,271.2z M338.3,271
				l-0.1-0.8l0.7-0.1l0.1,0.8L338.3,271z M441.3,270.9l-0.6-0.1l0.1-0.8l0.6,0.1L441.3,270.9z M339.6,270.7l-0.1-0.8l0.7-0.1
				l0.1,0.8L339.6,270.7z M440,270.7l-0.6-0.1l0.1-0.8l0.7,0.1L440,270.7z M340.9,270.5l-0.1-0.8l0.7-0.1l0.1,0.8L340.9,270.5z
				 M438.7,270.4l-0.6-0.1l0.1-0.8l0.7,0.1L438.7,270.4z M342.2,270.3l-0.1-0.8l0.7-0.1l0.1,0.8L342.2,270.3z M437.4,270.2l-0.6-0.1
				l0.1-0.8l0.7,0.1L437.4,270.2z M343.5,270.1l-0.1-0.8l0.7-0.1l0.1,0.8L343.5,270.1z M436.1,270l-0.6-0.1l0.1-0.8l0.7,0.1
				L436.1,270z M344.8,269.9l-0.1-0.8l0.7-0.1l0.1,0.8L344.8,269.9z M434.8,269.8l-0.7-0.1l0.1-0.8l0.7,0.1L434.8,269.8z
				 M346.1,269.7l-0.1-0.8l0.7-0.1l0.1,0.8L346.1,269.7z M433.5,269.6l-0.7-0.1l0.1-0.8l0.7,0.1L433.5,269.6z M347.4,269.5l-0.1-0.8
				l0.7-0.1l0.1,0.8L347.4,269.5z M432.2,269.4l-0.7-0.1l0.1-0.8l0.7,0.1L432.2,269.4z M348.7,269.3l-0.1-0.8l0.7-0.1l0.1,0.8
				L348.7,269.3z M430.9,269.2l-0.7-0.1l0.1-0.8l0.7,0.1L430.9,269.2z M350,269.1l-0.1-0.8l0.7-0.1l0.1,0.8L350,269.1z M429.6,269
				l-0.7-0.1l0.1-0.8l0.7,0.1L429.6,269z M351.3,269l-0.1-0.8l0.7-0.1l0.1,0.8L351.3,269z M428.2,268.8l-0.7-0.1l0.1-0.8l0.7,0.1
				L428.2,268.8z M352.6,268.8l-0.1-0.8l0.7-0.1l0.1,0.8L352.6,268.8z M426.9,268.7l-0.7-0.1l0.1-0.8l0.7,0.1L426.9,268.7z
				 M353.9,268.6l-0.1-0.8l0.7-0.1l0.1,0.8L353.9,268.6z M355.2,268.5l-0.1-0.8l0.7-0.1l0.1,0.8L355.2,268.5z M425.6,268.5l-0.7-0.1
				l0.1-0.8l0.7,0.1L425.6,268.5z M356.6,268.4l-0.1-0.8l0.7-0.1l0.1,0.8L356.6,268.4z M424.3,268.3l-0.7-0.1l0.1-0.8l0.7,0.1
				L424.3,268.3z M357.9,268.2l-0.1-0.8l0.7-0.1l0.1,0.8L357.9,268.2z M423,268.2l-0.7-0.1l0.1-0.8l0.7,0.1L423,268.2z M359.2,268.1
				l-0.1-0.8l0.7-0.1l0.1,0.8L359.2,268.1z M421.7,268.1L421,268l0.1-0.8l0.7,0.1L421.7,268.1z M360.5,268l-0.1-0.8l0.7-0.1l0.1,0.8
				L360.5,268z M420.4,267.9l-0.7-0.1l0.1-0.8l0.7,0.1L420.4,267.9z M361.8,267.9l-0.1-0.8l0.7-0.1l0.1,0.8L361.8,267.9z
				 M419.1,267.8l-0.7-0.1l0.1-0.8l0.7,0.1L419.1,267.8z M363.1,267.7L363,267l0.7-0.1l0.1,0.8L363.1,267.7z M417.8,267.7l-0.7-0.1
				l0.1-0.8l0.7,0.1L417.8,267.7z M364.4,267.6l-0.1-0.8l0.7-0.1l0.1,0.8L364.4,267.6z M416.5,267.6l-0.7-0.1l0.1-0.8l0.7,0.1
				L416.5,267.6z M365.7,267.5l-0.1-0.8l0.7,0l0.1,0.8L365.7,267.5z M415.1,267.5l-0.7,0l0.1-0.8l0.7,0L415.1,267.5z M367.1,267.4
				l-0.1-0.8l0.7,0l0.1,0.8L367.1,267.4z M413.8,267.4l-0.7,0l0.1-0.8l0.7,0L413.8,267.4z M368.4,267.4l0-0.8l0.7,0l0,0.8
				L368.4,267.4z M412.5,267.3l-0.7,0l0-0.8l0.7,0L412.5,267.3z M369.7,267.3l0-0.8l0.7,0l0,0.8L369.7,267.3z M411.2,267.2l-0.7,0
				l0-0.8l0.7,0L411.2,267.2z M371,267.2l0-0.8l0.7,0l0,0.8L371,267.2z M409.9,267.1l-0.7,0l0-0.8l0.7,0L409.9,267.1z M372.3,267.1
				l0-0.8l0.7,0l0,0.8L372.3,267.1z M408.6,267.1l-0.7,0l0-0.8l0.7,0L408.6,267.1z M373.6,267.1l0-0.8l0.7,0l0,0.8L373.6,267.1z
				 M407.2,267l-0.7,0l0-0.8l0.7,0L407.2,267z M375,267l0-0.8l0.7,0l0,0.8L375,267z M376.3,266.9l0-0.8l0.7,0l0,0.8L376.3,266.9z
				 M405.9,266.9l-0.7,0l0-0.8l0.7,0L405.9,266.9z M377.6,266.9l0-0.8l0.7,0l0,0.8L377.6,266.9z M404.6,266.9l-0.7,0l0-0.8l0.7,0
				L404.6,266.9z M378.9,266.8l0-0.8l0.7,0l0,0.8L378.9,266.8z M403.3,266.8l-0.7,0l0-0.8l0.6,0L403.3,266.8z M380.2,266.8l0-0.8
				l0.7,0l0,0.8L380.2,266.8z M402,266.8l-0.7,0l0-0.8l0.7,0L402,266.8z M381.5,266.8l0-0.8l0.7,0l0,0.8L381.5,266.8z M400.7,266.7
				l-0.7,0l0-0.8l0.7,0L400.7,266.7z M382.9,266.7l0-0.8l0.7,0l0,0.8L382.9,266.7z M399.3,266.7l-0.7,0l0-0.8l0.7,0L399.3,266.7z
				 M384.2,266.7l0-0.8l0.7,0l0,0.8L384.2,266.7z M398,266.7l-0.7,0l0-0.8l0.7,0L398,266.7z M385.5,266.7l0-0.8l0.7,0l0,0.8
				L385.5,266.7z M396.7,266.7l-0.7,0l0-0.8l0.7,0L396.7,266.7z M386.8,266.7l0-0.8l0.7,0l0,0.8L386.8,266.7z M395.4,266.6l-0.7,0
				l0-0.8l0.7,0L395.4,266.6z M388.1,266.6l0-0.8l0.7,0l0,0.8L388.1,266.6z M394.1,266.6l-0.7,0l0-0.8l0.7,0L394.1,266.6z
				 M389.5,266.6l0-0.8l0.7,0v0.8L389.5,266.6z M392.7,266.6l-0.7,0l0-0.8l0.7,0L392.7,266.6z M390.8,266.6l0-0.8l0.7,0v0.8
				L390.8,266.6z"/>
		</g>
		<g opacity="0.35">
			<path fill="#6C6361" d="M217.3,514.1l-0.5,0l0-1l0.5,0V514.1z M216,514.1l-0.9,0l0-1l0.9,0L216,514.1z M214.2,514.1l-0.9,0l0-1
				l0.9,0L214.2,514.1z M212.5,514.1l-0.9,0l0-1l0.9,0L212.5,514.1z M210.8,514l-0.9,0l0-1l0.9,0L210.8,514z M209.1,514l-0.9,0l0-1
				l0.9,0L209.1,514z M207.3,513.9l-0.9,0l0-1l0.9,0L207.3,513.9z M205.6,513.8l-0.9,0l0-1l0.9,0L205.6,513.8z M203.9,513.8l-0.9,0
				l0-1l0.9,0L203.9,513.8z M202.2,513.7l-0.9,0l0.1-1l0.9,0L202.2,513.7z M200.4,513.6l-0.8,0l0-1l0.9,0L200.4,513.6z M198.7,513.5
				l-0.9,0l0.1-1l0.9,0L198.7,513.5z M197,513.4l-0.9-0.1l0.1-1l0.9,0.1L197,513.4z M195.3,513.3l-0.8,0l0-1l0.9,0.1L195.3,513.3z
				 M193.6,513.2l-0.9-0.1l0.1-1l0.9,0.1L193.6,513.2z M191.8,513.1L191,513l0.1-1l0.9,0.1L191.8,513.1z M190.1,513l-0.9-0.1l0.1-1
				l0.9,0.1L190.1,513z M188.4,512.8l-0.9-0.1l0.1-1l0.9,0.1L188.4,512.8z M186.7,512.7l-0.9-0.1l0.1-1l0.9,0.1L186.7,512.7z
				 M185,512.6l-0.9-0.1l0.1-1l0.9,0.1L185,512.6z M183.2,512.4l-0.9-0.1l0.1-1l0.9,0.1L183.2,512.4z M181.5,512.3l-0.9-0.1l0.1-1
				l0.9,0.1L181.5,512.3z M179.8,512.1l-0.9-0.1l0.1-1l0.9,0.1L179.8,512.1z M178.1,512l-0.9-0.1l0.1-1l0.9,0.1L178.1,512z
				 M176.4,511.8l-0.9-0.1l0.1-1l0.8,0.1l0,0.5L176.4,511.8z M174.7,511.6l-0.9-0.1l0.1-1l0.9,0.1L174.7,511.6z M172.9,511.5
				l-0.9-0.1l0.1-1l0.9,0.1L172.9,511.5z M171.2,511.3l-0.9-0.1l0.1-1l0.9,0.1L171.2,511.3z M169.5,511.1l-0.9-0.1l0.1-1l0.9,0.1
				L169.5,511.1z M167.8,510.9l-0.9-0.1l0.1-1l0.9,0.1L167.8,510.9z M166.1,510.7l-0.9-0.1l0.1-1l0.9,0.1L166.1,510.7z M164.4,510.5
				l-0.9-0.1l0.1-1l0.9,0.1L164.4,510.5z M162.7,510.3l-0.9-0.1l0.1-1l0.9,0.1L162.7,510.3z M161,510l-0.9-0.1l0.1-1l0.9,0.1
				L161,510z M159.3,509.8l-0.9-0.1l0.1-1l0.9,0.1L159.3,509.8z M157.6,509.5l-0.9-0.1l0.2-1l0.8,0.1L157.6,509.5z M155.8,509.3
				l-0.9-0.1l0.2-1l0.8,0.1L155.8,509.3z M154.1,509l-0.9-0.1l0.2-1l0.8,0.1L154.1,509z M152.4,508.7l-0.8-0.1l0.2-1l0.8,0.1
				L152.4,508.7z M150.7,508.4l-0.8-0.1l0.2-1l0.8,0.1L150.7,508.4z M149,508.1l-0.8-0.2l0.2-1l0.8,0.2L149,508.1z M147.3,507.8
				l-0.8-0.2l0.2-1l0.8,0.2L147.3,507.8z M145.6,507.5l-0.8-0.2l0.2-1l0.8,0.2L145.6,507.5z M143.9,507.2l-0.8-0.2l0.2-1l0.8,0.2
				L143.9,507.2z M142.3,506.9l-0.8-0.2l0.2-1l0.8,0.2L142.3,506.9z M140.6,506.5l-0.8-0.2l0.2-1l0.8,0.2L140.6,506.5z M138.9,506.2
				L138,506l0.2-1l0.7,0.2l0,0.5L138.9,506.2z M137.2,505.8l-0.8-0.2l0.2-1l0.8,0.2L137.2,505.8z M135.5,505.5l-0.8-0.2l0.2-1
				l0.8,0.2L135.5,505.5z M133.8,505.1l-0.8-0.2l0.2-1l0.8,0.2L133.8,505.1z M132.1,504.7l-0.8-0.2l0.2-1l0.8,0.2L132.1,504.7z
				 M130.5,504.3l-0.8-0.2l0.2-1l0.8,0.2L130.5,504.3z M128.8,503.9l-0.8-0.2l0.2-1l0.8,0.2L128.8,503.9z M127.1,503.5l-0.8-0.2
				l0.2-1l0.8,0.2L127.1,503.5z M125.4,503.1l-0.8-0.2l0.3-1l0.8,0.2L125.4,503.1z"/>
		</g>
		<g opacity="0.35">
			<path fill="#6C6361" d="M217.3,518.1l-0.5,0l0-1l0.5,0V518.1z M216,518.1l-0.9,0l0-1l0.9,0L216,518.1z M214.2,518.1l-0.9,0l0-1
				l0.9,0L214.2,518.1z M212.5,518.1l-0.9,0l0-1l0.9,0L212.5,518.1z M210.8,518l-0.9,0l0-1l0.9,0L210.8,518z M209.1,518l-0.9,0l0-1
				l0.9,0L209.1,518z M207.3,517.9l-0.9,0l0-1l0.9,0L207.3,517.9z M205.6,517.8l-0.9,0l0-1l0.9,0L205.6,517.8z M203.9,517.8l-0.9,0
				l0-1l0.9,0L203.9,517.8z M202.2,517.7l-0.9,0l0.1-1l0.9,0L202.2,517.7z M200.4,517.6l-0.8,0l0-1l0.9,0L200.4,517.6z M198.7,517.5
				l-0.9,0l0.1-1l0.9,0L198.7,517.5z M197,517.4l-0.9-0.1l0.1-1l0.9,0.1L197,517.4z M195.3,517.3l-0.8,0l0-1l0.9,0.1L195.3,517.3z
				 M193.6,517.2l-0.9-0.1l0.1-1l0.9,0.1L193.6,517.2z M191.8,517.1L191,517l0.1-1l0.9,0.1L191.8,517.1z M190.1,517l-0.9-0.1l0.1-1
				l0.9,0.1L190.1,517z M188.4,516.8l-0.9-0.1l0.1-1l0.9,0.1L188.4,516.8z M186.7,516.7l-0.9-0.1l0.1-1l0.9,0.1L186.7,516.7z
				 M185,516.6l-0.9-0.1l0.1-1l0.9,0.1L185,516.6z M183.2,516.4l-0.9-0.1l0.1-1l0.9,0.1L183.2,516.4z M181.5,516.3l-0.9-0.1l0.1-1
				l0.9,0.1L181.5,516.3z M179.8,516.1l-0.9-0.1l0.1-1l0.9,0.1L179.8,516.1z M178.1,516l-0.9-0.1l0.1-1l0.9,0.1L178.1,516z
				 M176.4,515.8l-0.9-0.1l0.1-1l0.8,0.1l0,0.5L176.4,515.8z M174.7,515.7l-0.9-0.1l0.1-1l0.9,0.1L174.7,515.7z M172.9,515.5
				l-0.9-0.1l0.1-1l0.9,0.1L172.9,515.5z M171.2,515.3l-0.9-0.1l0.1-1l0.9,0.1L171.2,515.3z M169.5,515.1l-0.9-0.1l0.1-1l0.9,0.1
				L169.5,515.1z M167.8,514.9l-0.9-0.1l0.1-1l0.9,0.1L167.8,514.9z M166.1,514.7l-0.9-0.1l0.1-1l0.9,0.1L166.1,514.7z M164.4,514.5
				l-0.9-0.1l0.1-1l0.9,0.1L164.4,514.5z M162.7,514.3l-0.9-0.1l0.1-1l0.9,0.1L162.7,514.3z M161,514l-0.9-0.1l0.1-1l0.9,0.1
				L161,514z M159.3,513.8l-0.9-0.1l0.1-1l0.9,0.1L159.3,513.8z M157.6,513.5l-0.9-0.1l0.2-1l0.8,0.1L157.6,513.5z M155.8,513.3
				l-0.9-0.1l0.2-1l0.8,0.1L155.8,513.3z M154.1,513l-0.9-0.1l0.2-1l0.8,0.1L154.1,513z M152.4,512.7l-0.8-0.1l0.2-1l0.8,0.1
				L152.4,512.7z M150.7,512.5l-0.8-0.1l0.2-1l0.8,0.1L150.7,512.5z M149,512.2l-0.8-0.2l0.2-1l0.8,0.2L149,512.2z M147.3,511.8
				l-0.8-0.2l0.2-1l0.8,0.2L147.3,511.8z M145.6,511.5l-0.8-0.2l0.2-1l0.8,0.2L145.6,511.5z M143.9,511.2l-0.8-0.2l0.2-1l0.8,0.2
				L143.9,511.2z M142.3,510.9l-0.8-0.2l0.2-1l0.8,0.2L142.3,510.9z M140.6,510.5l-0.8-0.2l0.2-1l0.8,0.2L140.6,510.5z M138.9,510.2
				L138,510l0.2-1l0.7,0.2l0,0.5L138.9,510.2z M137.2,509.8l-0.8-0.2l0.2-1l0.8,0.2L137.2,509.8z M135.5,509.5l-0.8-0.2l0.2-1
				l0.8,0.2L135.5,509.5z M133.8,509.1l-0.8-0.2l0.2-1l0.8,0.2L133.8,509.1z M132.1,508.7l-0.8-0.2l0.2-1l0.8,0.2L132.1,508.7z
				 M130.5,508.3l-0.8-0.2l0.2-1l0.8,0.2L130.5,508.3z M128.8,507.9l-0.8-0.2l0.2-1l0.8,0.2L128.8,507.9z M127.1,507.5l-0.8-0.2
				l0.2-1l0.8,0.2L127.1,507.5z M125.4,507.1l-0.8-0.2l0.3-1l0.8,0.2L125.4,507.1z"/>
		</g>
		<g opacity="0.35">
			<path fill="#6C6361" d="M561,514.1v-1l0.5,0l0,1L561,514.1z M562.3,514.1l0-1l0.9,0l0,1L562.3,514.1z M564,514.1l0-1l0.9,0l0,1
				L564,514.1z M565.8,514.1l0-1l0.9,0l0,1L565.8,514.1z M567.5,514l0-1l0.9,0l0,1L567.5,514z M569.2,514l0-1l0.9,0l0,1L569.2,514z
				 M570.9,513.9l0-1l0.9,0l0,1L570.9,513.9z M572.7,513.8l0-1l0.9,0l0,1L572.7,513.8z M574.4,513.8l0-1l0.9,0l0,1L574.4,513.8z
				 M576.1,513.7l0-1l0.9,0l0.1,1L576.1,513.7z M577.8,513.6l-0.1-1l0.9,0l0.1,1L577.8,513.6z M579.6,513.5l-0.1-1l0.9,0l0.1,1
				L579.6,513.5z M581.3,513.4l-0.1-1l0.9-0.1l0.1,1L581.3,513.4z M583,513.3l-0.1-1l0.8,0l0.1,0.5l-0.1,0.5L583,513.3z
				 M584.7,513.2l-0.1-1l0.9-0.1l0.1,1L584.7,513.2z M586.4,513.1l-0.1-1l0.9-0.1l0.1,1L586.4,513.1z M588.3,512.9l-0.2-1l0.9-0.1
				l0.1,1L588.3,512.9z M589.9,512.8l-0.1-1l0.9-0.1l0.1,1L589.9,512.8z M591.6,512.7l-0.1-1l0.9-0.1l0.1,1L591.6,512.7z
				 M593.3,512.6l-0.1-1l0.9-0.1l0.1,1L593.3,512.6z M595,512.4l-0.1-1l0.9-0.1l0.1,1L595,512.4z M596.8,512.3l-0.1-1l0.9-0.1l0.1,1
				L596.8,512.3z M598.5,512.1l-0.1-1l0.9-0.1l0.1,1L598.5,512.1z M600.2,512l-0.1-1l0.9-0.1l0.1,1L600.2,512z M601.9,511.8l-0.1-1
				l0.9-0.1l0.1,1L601.9,511.8z M603.6,511.6l-0.1-1l0.9-0.1l0.1,1L603.6,511.6z M605.3,511.5l-0.1-1l0.9-0.1l0.1,1L605.3,511.5z
				 M607,511.3l-0.1-1l0.9-0.1l0.1,1L607,511.3z M608.8,511.1l-0.1-1l0.9-0.1l0.1,1L608.8,511.1z M610.5,510.9l-0.1-1l0.9-0.1l0.1,1
				L610.5,510.9z M612.2,510.7l-0.1-1l0.9-0.1l0.1,1L612.2,510.7z M613.9,510.5l-0.1-1l0.9-0.1l0.1,1L613.9,510.5z M615.6,510.3
				l-0.1-1l0.9-0.1l0.1,1L615.6,510.3z M617.3,510l-0.1-1l0.9-0.1l0.1,1L617.3,510z M619,509.8l-0.1-1l0.8-0.1l0.1,1L619,509.8z
				 M620.7,509.5l-0.1-1l0.8-0.1l0.2,1L620.7,509.5z M622.4,509.3l-0.2-1l0.8-0.1l0.2,1L622.4,509.3z M624.1,509l-0.2-1l0.8-0.1
				l0.2,1L624.1,509z M625.8,508.7l-0.2-1l0.8-0.1l0.2,1L625.8,508.7z M627.5,508.4l-0.2-1l0.8-0.1l0.2,1L627.5,508.4z M629.2,508.1
				l-0.2-1l0.8-0.2l0.2,1L629.2,508.1z M630.9,507.8l-0.2-1l0.8-0.2l0.2,1L630.9,507.8z M632.6,507.5l-0.2-1l0.8-0.2l0.2,1
				L632.6,507.5z M634.3,507.2l-0.2-1l0.8-0.2l0.2,1L634.3,507.2z M636,506.9l-0.2-1l0.8-0.2l0.2,1L636,506.9z M637.8,506.5l-0.3-1
				l0.8-0.2l0.2,1L637.8,506.5z M639.4,506.2l-0.2-1l0.8-0.2l0.2,1L639.4,506.2z M641.1,505.8l-0.2-1l0.8-0.2l0.2,1L641.1,505.8z
				 M642.8,505.5l-0.2-1l0.8-0.2l0.2,1L642.8,505.5z M644.5,505.1l-0.2-1l0.8-0.2l0.2,1L644.5,505.1z M646.2,504.7l-0.2-1l0.8-0.2
				l0.2,1L646.2,504.7z M647.8,504.3l-0.2-1l0.8-0.2l0.2,1L647.8,504.3z M649.5,503.9l-0.2-1l0.8-0.2l0.2,1L649.5,503.9z
				 M651.2,503.5l-0.2-1l0.8-0.2l0.3,1L651.2,503.5z M652.9,503.1l-0.3-1l0.8-0.2l0.3,1L652.9,503.1z"/>
		</g>
		<g opacity="0.35">
			<path fill="#6C6361" d="M561,518.1v-1l0.5,0l0,1L561,518.1z M562.3,518.1l0-1l0.9,0l0,1L562.3,518.1z M564,518.1l0-1l0.9,0l0,1
				L564,518.1z M565.8,518.1l0-1l0.9,0l0,1L565.8,518.1z M567.5,518l0-1l0.9,0l0,1L567.5,518z M569.2,518l0-1l0.9,0l0,1L569.2,518z
				 M570.9,517.9l0-1l0.9,0l0,1L570.9,517.9z M572.7,517.8l0-1l0.9,0l0,1L572.7,517.8z M574.4,517.8l0-1l0.9,0l0,1L574.4,517.8z
				 M576.1,517.7l0-1l0.9,0l0.1,1L576.1,517.7z M577.8,517.6l-0.1-1l0.9,0l0.1,1L577.8,517.6z M579.6,517.5l-0.1-1l0.9,0l0.1,1
				L579.6,517.5z M581.3,517.4l-0.1-1l0.9-0.1l0.1,1L581.3,517.4z M583,517.3l-0.1-1l0.8,0l0.1,0.5l-0.1,0.5L583,517.3z
				 M584.7,517.2l-0.1-1l0.9-0.1l0.1,1L584.7,517.2z M586.4,517.1l-0.1-1l0.9-0.1l0.1,1L586.4,517.1z M588.3,517l-0.2-1l0.9-0.1
				l0.1,1L588.3,517z M589.9,516.8l-0.1-1l0.9-0.1l0.1,1L589.9,516.8z M591.6,516.7l-0.1-1l0.9-0.1l0.1,1L591.6,516.7z M593.3,516.6
				l-0.1-1l0.9-0.1l0.1,1L593.3,516.6z M595,516.4l-0.1-1l0.9-0.1l0.1,1L595,516.4z M596.8,516.3l-0.1-1l0.9-0.1l0.1,1L596.8,516.3z
				 M598.5,516.1l-0.1-1l0.9-0.1l0.1,1L598.5,516.1z M600.2,516l-0.1-1l0.9-0.1l0.1,1L600.2,516z M601.9,515.8l-0.1-1l0.9-0.1l0.1,1
				L601.9,515.8z M603.6,515.7l-0.1-1l0.9-0.1l0.1,1L603.6,515.7z M605.3,515.5l-0.1-1l0.9-0.1l0.1,1L605.3,515.5z M607,515.3
				l-0.1-1l0.9-0.1l0.1,1L607,515.3z M608.8,515.1l-0.1-1l0.9-0.1l0.1,1L608.8,515.1z M610.5,514.9l-0.1-1l0.9-0.1l0.1,1
				L610.5,514.9z M612.2,514.7l-0.1-1l0.9-0.1l0.1,1L612.2,514.7z M613.9,514.5l-0.1-1l0.9-0.1l0.1,1L613.9,514.5z M615.6,514.3
				l-0.1-1l0.9-0.1l0.1,1L615.6,514.3z M617.3,514l-0.1-1l0.9-0.1l0.1,1L617.3,514z M619,513.8l-0.1-1l0.8-0.1l0.1,1L619,513.8z
				 M620.7,513.5l-0.1-1l0.8-0.1l0.2,1L620.7,513.5z M622.4,513.3l-0.2-1l0.8-0.1l0.2,1L622.4,513.3z M624.1,513l-0.2-1l0.8-0.1
				l0.2,1L624.1,513z M625.8,512.7l-0.2-1l0.8-0.1l0.2,1L625.8,512.7z M627.5,512.4l-0.2-1l0.8-0.1l0.2,1L627.5,512.4z M629.2,512.2
				l-0.2-1l0.8-0.2l0.2,1L629.2,512.2z M630.9,511.8l-0.2-1l0.8-0.2l0.2,1L630.9,511.8z M632.6,511.5l-0.2-1l0.8-0.2l0.2,1
				L632.6,511.5z M634.3,511.2l-0.2-1l0.8-0.2l0.2,1L634.3,511.2z M636,510.9l-0.2-1l0.8-0.2l0.2,1L636,510.9z M637.8,510.5l-0.3-1
				l0.8-0.2l0.2,1L637.8,510.5z M639.4,510.2l-0.2-1l0.8-0.2l0.2,1L639.4,510.2z M641.1,509.8l-0.2-1l0.8-0.2l0.2,1L641.1,509.8z
				 M642.8,509.5l-0.2-1l0.8-0.2l0.2,1L642.8,509.5z M644.5,509.1l-0.2-1l0.8-0.2l0.2,1L644.5,509.1z M646.2,508.7l-0.2-1l0.8-0.2
				l0.2,1L646.2,508.7z M647.8,508.3l-0.2-1l0.8-0.2l0.2,1L647.8,508.3z M649.5,507.9l-0.2-1l0.8-0.2l0.2,1L649.5,507.9z
				 M651.2,507.5l-0.2-1l0.8-0.2l0.3,1L651.2,507.5z M652.9,507.1l-0.3-1l0.8-0.2l0.3,1L652.9,507.1z"/>
		</g>
		<g opacity="0.35">
			<path fill="#6C6361" d="M302.7,281.2l-0.5-0.6c0,0,0.2-0.1,0.6-0.4l0.4,0.6C302.9,281.1,302.7,281.2,302.7,281.2z M303.8,280.5
				l-0.4-0.6c0.2-0.1,0.4-0.2,0.6-0.4l0.4,0.7C304.1,280.3,303.9,280.4,303.8,280.5z M304.9,279.8l-0.4-0.7c0.2-0.1,0.4-0.2,0.6-0.3
				l0.4,0.7C305.3,279.6,305.1,279.7,304.9,279.8z M473.4,279.8c-0.1-0.1-0.2-0.2-0.5-0.4l0.5-0.6c0.3,0.2,0.5,0.4,0.5,0.4
				L473.4,279.8z M306,279.2l-0.4-0.7l0.6-0.3l0.4,0.7L306,279.2z M472.3,279c-0.2-0.1-0.3-0.2-0.5-0.4l0.4-0.6
				c0.2,0.1,0.4,0.3,0.6,0.4L472.3,279z M307.2,278.5l-0.4-0.7l0.6-0.3l0.3,0.7L307.2,278.5z M471.3,278.3c-0.2-0.1-0.4-0.2-0.6-0.3
				l0.4-0.7c0.2,0.1,0.4,0.2,0.6,0.3L471.3,278.3z M308.4,278l-0.3-0.7l0.6-0.3l0.3,0.7L308.4,278z M470.1,277.6
				c-0.2-0.1-0.4-0.2-0.6-0.3l0.4-0.7c0.2,0.1,0.4,0.2,0.6,0.3L470.1,277.6z M309.5,277.4l-0.3-0.7l0.6-0.3l0.3,0.7L309.5,277.4z
				 M469,277c-0.2-0.1-0.4-0.2-0.6-0.3l0.4-0.7c0.2,0.1,0.4,0.2,0.6,0.3L469,277z M310.7,276.9l-0.3-0.7l0.6-0.3l0.3,0.7
				L310.7,276.9z M467.8,276.4c-0.2-0.1-0.4-0.2-0.6-0.3l0.3-0.7c0.2,0.1,0.4,0.2,0.6,0.3L467.8,276.4z M311.9,276.3l-0.3-0.7
				l0.6-0.3l0.3,0.7L311.9,276.3z M313.2,275.8l-0.3-0.7l0.6-0.2l0.3,0.7L313.2,275.8z M466.7,275.8l-0.6-0.3l0.3-0.7l0.6,0.3
				L466.7,275.8z M314.4,275.4l-0.3-0.7l0.6-0.2l0.3,0.7L314.4,275.4z M465.5,275.3c-0.2-0.1-0.4-0.2-0.6-0.3l0.3-0.7
				c0.2,0.1,0.4,0.2,0.6,0.3L465.5,275.3z M315.6,274.9l-0.3-0.7l0.6-0.2l0.3,0.7L315.6,274.9z M464.3,274.8l-0.6-0.2l0.3-0.7
				l0.6,0.3L464.3,274.8z M316.8,274.5l-0.3-0.7l0.6-0.2l0.2,0.7L316.8,274.5z M463,274.3l-0.6-0.2l0.3-0.7l0.6,0.2L463,274.3z
				 M318.1,274l-0.2-0.7l0.6-0.2l0.2,0.7L318.1,274z M461.8,273.8l-0.6-0.2l0.3-0.7l0.6,0.2L461.8,273.8z M319.3,273.6l-0.2-0.7
				l0.6-0.2l0.2,0.7L319.3,273.6z M460.6,273.4l-0.6-0.2l0.3-0.7l0.6,0.2L460.6,273.4z M320.6,273.2l-0.2-0.7l0.6-0.2l0.3,0.7
				L320.6,273.2z M459.3,272.9l-0.6-0.2l0.2-0.7l0.6,0.2L459.3,272.9z M321.8,272.8l-0.2-0.7l0.6-0.2l0.2,0.7L321.8,272.8z
				 M458.1,272.5l-0.6-0.2l0.2-0.7l0.6,0.2L458.1,272.5z M323.1,272.4l-0.2-0.7l0.5-0.2l0.3,0.7L323.1,272.4z M456.8,272.1l-0.6-0.2
				l0.2-0.7l0.6,0.2L456.8,272.1z M324.4,272.1l-0.2-0.7l0.6-0.2l0.2,0.7L324.4,272.1z M455.6,271.7l-0.6-0.2l0.2-0.7l0.6,0.2
				L455.6,271.7z M325.6,271.7l-0.2-0.7l0.6-0.2l0.2,0.7L325.6,271.7z M326.9,271.4l-0.2-0.7l0.6-0.2l0.2,0.7L326.9,271.4z
				 M454.3,271.4l-0.6-0.2l0.2-0.7l0.6,0.2L454.3,271.4z M328.2,271.1l-0.2-0.7l0.6-0.2l0.2,0.7L328.2,271.1z M453.1,271l-0.6-0.2
				l0.2-0.7l0.6,0.2L453.1,271z M329.5,270.8l-0.2-0.7l0.6-0.2l0.2,0.7L329.5,270.8z M451.8,270.7l-0.6-0.2l0.2-0.7l0.6,0.2
				L451.8,270.7z M330.8,270.5l-0.2-0.7l0.6-0.1l0.2,0.7L330.8,270.5z M450.5,270.4l-0.6-0.2l0.2-0.7l0.6,0.2L450.5,270.4z
				 M332,270.2l-0.2-0.7l0.6-0.1l0.2,0.8L332,270.2z M449.2,270.1l-0.6-0.2l0.2-0.7l0.6,0.2L449.2,270.1z M333.3,269.9l-0.2-0.8
				l0.6-0.1l0.2,0.8L333.3,269.9z M447.9,269.8l-0.6-0.1l0.2-0.7l0.6,0.1L447.9,269.8z M334.6,269.6l-0.2-0.8l0.6-0.1l0.2,0.8
				L334.6,269.6z M446.7,269.5l-0.6-0.1l0.2-0.8l0.6,0.1L446.7,269.5z M335.9,269.3l-0.2-0.8l0.6-0.1l0.1,0.8L335.9,269.3z
				 M445.4,269.2l-0.6-0.1l0.2-0.8l0.6,0.1L445.4,269.2z M337.2,269.1l-0.1-0.8l0.6-0.1l0.1,0.8L337.2,269.1z M444.1,268.9l-0.6-0.1
				l0.1-0.8l0.7,0.1L444.1,268.9z M338.5,268.8l-0.1-0.8l0.6-0.1l0.1,0.8L338.5,268.8z M442.8,268.7l-0.6-0.1l0.1-0.8l0.6,0.1
				L442.8,268.7z M339.8,268.6l-0.1-0.8l0.6-0.1l0.1,0.8L339.8,268.6z M441.5,268.4l-0.6-0.1l0.1-0.8l0.7,0.1L441.5,268.4z
				 M341.1,268.4l-0.1-0.8l0.7-0.1l0.1,0.8L341.1,268.4z M440.2,268.2l-0.6-0.1l0.1-0.8l0.7,0.1L440.2,268.2z M342.4,268.2l-0.1-0.8
				l0.7-0.1l0.1,0.8L342.4,268.2z M438.9,268l-0.6-0.1l0.1-0.8l0.7,0.1L438.9,268z M343.7,268l-0.1-0.8l0.7-0.1l0.1,0.8L343.7,268z
				 M437.6,267.8l-0.7-0.1l0.1-0.8l0.7,0.1L437.6,267.8z M345,267.7l-0.1-0.8l0.7-0.1l0.1,0.8L345,267.7z M436.3,267.6l-0.7-0.1
				l0.1-0.8l0.7,0.1L436.3,267.6z M346.3,267.6l-0.1-0.8l0.7-0.1l0.1,0.8L346.3,267.6z M347.6,267.4l-0.1-0.8l0.7-0.1l0.1,0.8
				L347.6,267.4z M435,267.4l-0.7-0.1l0.1-0.8l0.7,0.1L435,267.4z M348.9,267.2l-0.1-0.8l0.7-0.1l0.1,0.8L348.9,267.2z M433.7,267.2
				l-0.7-0.1l0.1-0.8l0.7,0.1L433.7,267.2z M350.2,267l-0.1-0.8l0.7-0.1l0.1,0.8L350.2,267z M432.4,267l-0.7-0.1l0.1-0.8l0.7,0.1
				L432.4,267z M351.5,266.8l-0.1-0.8l0.7-0.1l0.1,0.8L351.5,266.8z M431.1,266.8l-0.7-0.1l0.1-0.8l0.7,0.1L431.1,266.8z
				 M352.8,266.7l-0.1-0.8l0.7-0.1l0.1,0.8L352.8,266.7z M429.8,266.6l-0.7-0.1l0.1-0.8l0.7,0.1L429.8,266.6z M354.1,266.5l-0.1-0.8
				l0.7-0.1l0.1,0.8L354.1,266.5z M428.5,266.5l-0.7-0.1l0.1-0.8l0.7,0.1L428.5,266.5z M355.4,266.4l-0.1-0.8l0.7-0.1l0.1,0.8
				L355.4,266.4z M427.2,266.3l-0.7-0.1l0.1-0.8l0.7,0.1L427.2,266.3z M356.7,266.2l-0.1-0.8l0.7-0.1l0.1,0.8L356.7,266.2z
				 M425.8,266.2l-0.7-0.1l0.1-0.8l0.7,0.1L425.8,266.2z M358.1,266.1l-0.1-0.8l0.7-0.1l0.1,0.8L358.1,266.1z M424.5,266.1l-0.7-0.1
				l0.1-0.8l0.7,0.1L424.5,266.1z M359.4,266l-0.1-0.8l0.7-0.1l0.1,0.8L359.4,266z M423.2,265.9l-0.7-0.1l0.1-0.8l0.7,0.1
				L423.2,265.9z M360.7,265.9l-0.1-0.8l0.7-0.1l0.1,0.8L360.7,265.9z M421.9,265.8l-0.7-0.1l0.1-0.8l0.7,0.1L421.9,265.8z
				 M362,265.8l-0.1-0.8l0.7-0.1l0.1,0.8L362,265.8z M420.6,265.7l-0.7-0.1l0.1-0.8l0.7,0.1L420.6,265.7z M363.3,265.6l-0.1-0.8
				l0.7-0.1l0.1,0.8L363.3,265.6z M419.3,265.6l-0.7-0.1l0.1-0.8l0.7,0.1L419.3,265.6z M364.6,265.5l-0.1-0.8l0.7,0l0.1,0.8
				L364.6,265.5z M418,265.5l-0.7,0l0.1-0.8l0.7,0L418,265.5z M365.9,265.4l-0.1-0.8l0.7,0l0.1,0.8L365.9,265.4z M416.7,265.4
				l-0.7,0l0.1-0.8l0.7,0L416.7,265.4z M367.3,265.4l-0.1-0.8l0.7,0l0,0.8L367.3,265.4z M415.3,265.3l-0.7,0l0-0.8l0.7,0
				L415.3,265.3z M368.6,265.3l0-0.8l0.7,0l0,0.8L368.6,265.3z M414,265.2l-0.7,0l0-0.8l0.7,0L414,265.2z M369.9,265.2l0-0.8l0.7,0
				l0,0.8L369.9,265.2z M412.7,265.1l-0.7,0l0-0.8l0.7,0L412.7,265.1z M371.2,265.1l0-0.8l0.7,0l0,0.8L371.2,265.1z M411.4,265.1
				l-0.7,0l0-0.8l0.7,0L411.4,265.1z M372.5,265l0-0.8l0.7,0l0,0.8L372.5,265z M410.1,265l-0.7,0l0-0.8l0.7,0L410.1,265z M373.8,265
				l0-0.8l0.7,0l0,0.8L373.8,265z M408.8,264.9l-0.7,0l0-0.8l0.7,0L408.8,264.9z M375.2,264.9l0-0.8l0.7,0l0,0.8L375.2,264.9z
				 M407.4,264.9l-0.7,0l0-0.8l0.6,0L407.4,264.9z M376.5,264.9l0-0.8l0.7,0l0,0.8L376.5,264.9z M406.1,264.8l-0.7,0l0-0.8l0.6,0
				L406.1,264.8z M377.8,264.8l0-0.8l0.7,0l0,0.8L377.8,264.8z M404.8,264.8l-0.7,0l0-0.8l0.7,0L404.8,264.8z M379.1,264.8l0-0.8
				l0.7,0l0,0.8L379.1,264.8z M403.5,264.7l-0.7,0l0-0.8l0.7,0L403.5,264.7z M380.4,264.7l0-0.8l0.7,0l0,0.8L380.4,264.7z
				 M402.2,264.7l-0.7,0l0-0.8l0.7,0L402.2,264.7z M381.7,264.7l0-0.8l0.7,0l0,0.8L381.7,264.7z M400.9,264.7l-0.7,0l0-0.8l0.7,0
				L400.9,264.7z M383.1,264.7l0-0.8l0.7,0l0,0.8L383.1,264.7z M399.5,264.6l-0.7,0l0-0.8l0.7,0L399.5,264.6z M384.4,264.6l0-0.8
				l0.7,0l0,0.8L384.4,264.6z M398.2,264.6l-0.7,0l0-0.8l0.7,0L398.2,264.6z M385.7,264.6l0-0.8l0.7,0l0,0.8L385.7,264.6z
				 M396.9,264.6l-0.7,0l0-0.8l0.7,0L396.9,264.6z M387,264.6l0-0.8l0.7,0l0,0.8L387,264.6z M395.6,264.6l-0.7,0l0-0.8l0.7,0
				L395.6,264.6z M388.3,264.6l0-0.8l0.7,0l0,0.8L388.3,264.6z M394.3,264.6l-0.7,0l0-0.8l0.7,0L394.3,264.6z M389.6,264.6l0-0.8
				l0.7,0l0,0.8L389.6,264.6z M392.9,264.6l-0.7,0v-0.8l0.7,0L392.9,264.6z M391,264.6l0-0.8l0.7,0l0,0.8L391,264.6z"/>
		</g>
	</g>
</g>
<g id="SHADING">
	<g opacity="2.000000e-02">
		<path d="M191.1,344.2c0,0.4,0,0.7,0.1,1.1C191.2,345,191.1,344.6,191.1,344.2z"/>
		<path d="M191,342.7c0,0.4,0,0.8,0.1,1.1C191.1,343.5,191.1,343.1,191,342.7z"/>
		<path d="M221.5,501.2L221.5,501.2L221.5,501.2z"/>
		<path d="M191,341.2c0,0.4,0,0.9,0.1,1.3C191,342.1,191,341.7,191,341.2z"/>
		<path d="M190.8,337.3c0,0.4,0,0.7,0,1.1C190.8,338,190.8,337.6,190.8,337.3z"/>
		<path d="M190.9,339.9c0,0.3,0,0.7,0,1C190.9,340.6,190.9,340.2,190.9,339.9z"/>
		<path d="M190.7,334.9c0,0.7,0,1.4,0.1,2.1C190.8,336.3,190.8,335.6,190.7,334.9z"/>
		<path d="M190.8,338.4c0,0.4,0,0.8,0,1.2C190.9,339.2,190.9,338.8,190.8,338.4z"/>
		<path d="M191.2,345.6c0,0.4,0.1,0.9,0.1,1.3C191.3,346.5,191.2,346,191.2,345.6z"/>
		<path d="M191.7,351.8c0,0.4,0.1,0.7,0.1,1C191.8,352.5,191.8,352.2,191.7,351.8z"/>
		<path d="M192.1,354.8c0,0.3,0.1,0.7,0.1,1C192.2,355.4,192.2,355.1,192.1,354.8z"/>
		<path d="M191.9,353.2c0.1,0.4,0.1,0.9,0.2,1.3C192,354,191.9,353.6,191.9,353.2z"/>
		<path d="M221.2,494.4l0,0.1L221.2,494.4z"/>
		<path d="M221,492.7l0,0.2L221,492.7z"/>
		<path d="M192.3,356.1c0.1,0.4,0.1,0.8,0.2,1.2C192.4,356.9,192.4,356.5,192.3,356.1z"/>
		<path d="M191.6,350.2c0,0.4,0.1,0.8,0.1,1.2C191.7,351,191.6,350.6,191.6,350.2z"/>
		<path d="M191.3,347.3c0,0.3,0.1,0.7,0.1,1C191.4,348,191.4,347.7,191.3,347.3z"/>
		<path d="M220.8,491.2l0,0.1L220.8,491.2z"/>
		<path d="M221.4,497.8l0,0.1L221.4,497.8z"/>
		<path d="M191.4,348.7c0,0.4,0.1,0.9,0.1,1.3C191.5,349.6,191.5,349.2,191.4,348.7z"/>
		<path d="M221.3,496.2L221.3,496.2L221.3,496.2z"/>
		<path d="M221.4,499.5l0,0.1L221.4,499.5z"/>
		<path d="M221.3,496.2c0-0.6-0.1-1.1-0.1-1.7C221.2,495.1,221.3,495.6,221.3,496.2z"/>
		<path d="M221.5,502.7c0-0.5,0-1,0-1.5C221.5,501.7,221.5,502.2,221.5,502.7z"/>
		<path d="M220.8,491.2c-0.1-0.5-0.2-1-0.3-1.5C220.6,490.2,220.7,490.7,220.8,491.2z"/>
		<path d="M221.5,501.2c0-0.5,0-1,0-1.5C221.5,500.2,221.5,500.7,221.5,501.2z"/>
		<path d="M221.4,497.8c0-0.5-0.1-1.1-0.1-1.6C221.3,496.8,221.4,497.3,221.4,497.8z"/>
		<path d="M221.4,499.5c0-0.5,0-1-0.1-1.5C221.4,498.5,221.4,499,221.4,499.5z"/>
		<path d="M221,492.7c-0.1-0.5-0.1-1-0.2-1.4C220.9,491.8,220.9,492.2,221,492.7z"/>
		<path d="M221.2,494.4c0-0.5-0.1-1-0.2-1.5C221.1,493.4,221.1,493.9,221.2,494.4z"/>
		<path d="M191.7,351.8c0-0.1,0-0.3,0-0.4C191.7,351.6,191.7,351.7,191.7,351.8z"/>
		<path d="M190.8,338.4L190.8,338.4L190.8,338.4z"/>
		<path d="M190.9,339.9l0-0.2L190.9,339.9z"/>
		<path d="M191,342.7l0-0.2L191,342.7z"/>
		<path d="M191,341.2l0-0.3L191,341.2z"/>
		<path d="M190.7,334.9L190.7,334.9L190.7,334.9z"/>
		<path d="M190.8,337.3l0-0.2L190.8,337.3z"/>
		<path d="M192.3,356.1l-0.1-0.3L192.3,356.1z"/>
		<path d="M191.6,350.2l0-0.1L191.6,350.2z"/>
		<path d="M191.9,353.2l0-0.3L191.9,353.2z"/>
		<path d="M192.1,354.8l0-0.3L192.1,354.8z"/>
		<path d="M191.3,347.3l0-0.4L191.3,347.3z"/>
		<path d="M191.4,348.7c0-0.1,0-0.3,0-0.4C191.4,348.5,191.4,348.6,191.4,348.7z"/>
		<path d="M191.2,345.6l0-0.3L191.2,345.6z"/>
		<path d="M191.1,344.2c0-0.1,0-0.3,0-0.4C191.1,344,191.1,344.1,191.1,344.2z"/>
		<path d="M317.3,274.3c-2.3,2.6-3.5,5.5-5.5,6.7c-3,1.8-3,3.7-6,6.1c-3,2.4-21.8,18.9-44.8,28.1c-23,9.2-39.4,14.8-39.4,14.8
			s-0.4,0.3-1.1,0.8c0.1,3.8,0.4,11.1,1.3,16.1c1.3,7.1,8.6,33.2,10.2,41c1.7,7.7,9.3,48.7,10.3,53.6c0.6,3.1,0.7,7.5,0.7,10.3
			c0.8,4.1,3.5,19.4,3,26.2c-0.6,7.9,3.9,57,7,72.2c3.1,15.2,8.3,59.9,5.3,76.3c-3,16.4-8.9,54.2-13.1,73.1
			c-4.1,18.5-1.7,32.8-1.7,32.8s-2.4,2.4-2.4,4.9c0,2.4,1.3,7.9,1.3,7.9l0,4.2c0,0,0.3,2.2,3.7,4.7l3.6-1.3
			c11.2-9.8,9.4-2.2,13.7-18.9c4.3-16.6,5.5-34.8,5.5-34.8s1.2-17.5,4.6-29.1c3.4-11.6,0.3-8.5,6.8-16.6c1.1-1.4,1.8-1.8,2.4-1.8
			c0.7,0,1.1,0.9,1.4,1.7c0.3,0.9,0.5,1.7,0.8,1.7c0.7,0,1.9-2.8,5.3-13.3c8.6-26.7,12.6-38.6,7.3-50.8
			c-5.4-12.2-20.8-34.3-21.2-51.3c-0.4-16.9,5.2-32.6,2.9-40.1c-2.2-7.5-5.7-17.5-5.7-17.5s-12.9-10.3-12.3-16.2
			c0.6-6,3.8-59.5-1.6-66.4c-5.4-6.9-23.5-4.9-24.8-17.7c-1.3-12.8-15.2-24,3-29.1c9.2-2.6,13.7-3.4,17.5-3.4
			c3.7,0,6.7,0.8,12.6,1.3c11.9,1.2,8.1,0.3,25.1,1.1c2.7,0.1,5.3,0.2,7.9,0.2c13.5,0,24.4-1.6,24.4-1.6s-1.2,0.2-2.9,0.2
			c-4.7,0-13.3-1.2-11.2-10.4c2.8-12.5,6.9-7.9,10.6-16.7c3.7-8.8,5.9-14.7,5.8-20.7c0-6-0.3-5.6,0-9.7c0.1-1.1,0.6-2.4,1.3-3.9
			c-8.7-3.6-14-7.7-13.9-8.8c0.1-1.4,2-3.6,3.9-5.5L317.3,274.3"/>
		<path d="M631.6,392c0,0-50.8,68.3-53,71.8c-2.2,3.5-11.4,17.5-13.6,22.8c-2.2,5.3-5.3,18-5.3,18s15.3-21.9,23.7-34.6
			c8.3-12.7,26.3-30.7,35-39c8.8-8.3,19.7-20.2,19.7-21.9c0-0.1-0.1-0.2-0.2-0.2c-1.8,0-14.4,10-16,12c-1.8,2.2-33.7,37.2-33.7,37.2
			s35.5-44.7,39-52.1C630.7,398.5,631.6,392,631.6,392"/>
		<path d="M628.1,381.4c0,0-11.8,17.1-14.9,21.5c-3.1,4.4-19.3,18-19.3,18s10.1-3.1,19.7-12.3C623.3,399.4,628.1,381.4,628.1,381.4"
			/>
		<path d="M139.2,405.1c0,0-7,14.9,7,35c14,20.2,50.4,34.6,56.1,39c5.7,4.4,14.9,6.1,14.9,6.1S197,462.9,186,456.8
			c-11-6.1-31.5-22.8-36.4-31.5C144.9,416.5,139.2,405.1,139.2,405.1"/>
		<path d="M146.2,471.7c0,0,5.7,12.7,26.3,21c10,4.1,19.1,5.1,25.8,5.1c7,0,11.4-1.2,11.4-1.2s-23.2-4.4-35.5-7.9
			C161.9,485.3,146.2,471.7,146.2,471.7"/>
		<path d="M161.7,413.3c-3.5,0-5.8,1.4-5.8,1.4s7.4,6.1,12.3,14.5c4.8,8.3,11.8,7.9,21.9,12.7c9.7,4.7,12.5,16.3,12.7,17
			c-0.2-0.9-4.1-18-11.4-22.3c-7.4-4.4-10.1-7.9-18.4-17.5C168.9,414.5,164.8,413.3,161.7,413.3"/>
		<path d="M474.2,305.7c0,0-22.7,5.8-44.7,37.6c-22,31.7-41.5,60.8-49.3,67.4c-5.4,4.6-15.8,11.1-22.5,11.1c-3,0-5.2-1.3-6-4.5
			c-2.6-10.6-33.4-63.4-33.4-63.4s20.6,41.9,9.9,89.1c-10.2,45.1-38.2,81.1-38.2,81.1s0.1,0,0.2,0c2.8,0,41.3-0.3,53.8-14.3
			c13-14.5,33.7-63.4,38.9-68.7c0.1-0.1,0.2-0.2,0.3-0.2c5.4,0,17.2,114.3,46.3,132.4c29.8,18.5,23.3,108.4,42.8,125.6
			c19.4,17.2,60.8,47,60.8,47s2.7-62.7,5.3-89.1c2.6-26.4,5.4-49.9,4.8-52.9c-1.1-5.8-82.1-64.4-102.4-138.9
			c-17.5-64.3-1.4-104.4,6.4-117.6C452,339.1,450.8,336.2,474.2,305.7"/>
	</g>
	<g>
	</g>
</g>
</svg>
