<?xml version="1.0" encoding="utf-8"?>
<!-- Generator: Adobe Illustrator 27.1.1, SVG Export Plug-In . SVG Version: 6.00 Build 0)  -->
<svg version="1.1" xmlns="http://www.w3.org/2000/svg" xmlns:xlink="http://www.w3.org/1999/xlink" x="0px" y="0px"
	 viewBox="0 0 630 1023.3" enable-background="new 0 0 771.5 1023.3" xml:space="preserve">

<g id="OUTLINE">
	<path fill="#FFFFFF" stroke="#897F76" stroke-width="1.3599" stroke-miterlimit="10" d="M482.4,521.2c0.2-4.7,1.7-12.1,4.1-20.7
		c0-0.1,0-0.1,0.1-0.2c0.2-0.8,0.5-1.7,0.7-2.6c0.1-0.2,0.1-0.4,0.2-0.5c0.2-0.8,0.5-1.6,0.7-2.4c0.1-0.3,0.1-0.5,0.2-0.8
		c0.2-0.8,0.4-1.5,0.7-2.3c0.1-0.5,0.3-1,0.4-1.5c0.1-0.4,0.2-0.8,0.3-1.1c0.2-0.6,0.3-1.1,0.5-1.7c0,0,0-0.1,0-0.1
		c0-0.1,0.1-0.3,0.1-0.4c5.2-17,11.7-36,16.3-50.2c0-0.1,0-0.1,0.1-0.2c0.3-0.9,0.6-1.8,0.8-2.6c0-0.1,0-0.2,0.1-0.2
		c0.3-0.9,0.5-1.7,0.8-2.5c0-0.1,0.1-0.3,0.1-0.4c0.2-0.7,0.5-1.5,0.7-2.2c0-0.1,0-0.1,0.1-0.2c0.2-0.7,0.4-1.4,0.6-2.1
		c0-0.2,0.1-0.3,0.1-0.5c0.2-0.7,0.4-1.3,0.6-2c6.1-22.1,18.4-103.2,8.6-143.8c-9.8-40.6-41.8-86-41.8-92.2c0-1.2-0.8-3-2.1-5.2
		c0.1,0,0.1,0,0.2,0c-5.7-9-18.7-22.8-18.7-22.8s-51.2,1.2-63.7,11.2c-4.3,3.5-15.7,16.7-29,32.7c0.2-0.1,0.5-0.2,0.7-0.4
		c-24.7,29.6-56.9,67.3-60.6,71.7c-4.1,4.9-31.1,51-43.8,83.8l0,0c0,0,0,0,0,0c-0.5,1.3-1,2.7-1.5,3.9c0,0,0,0,0,0
		c-0.5,1.3-0.9,2.5-1.3,3.8c0,0,0,0,0,0h0c-1.4,4.2-2.5,8.1-3.1,11.5c0,0,0,0,0,0l0,0c-0.3,1.4-0.5,2.7-0.6,4
		c-0.2,1.9-0.3,3.9-0.5,5.9c0,0,0,0,0,0l0,0c-0.1,1.3-0.2,2.6-0.3,4l0,0c0,0,0,0,0,0c-0.1,1.8-0.3,3.7-0.4,5.5c0,0,0,0,0,0l0,0
		c-0.1,1.3-0.2,2.7-0.3,4l0,0c0,0,0,0,0,0c-0.1,1.8-0.2,3.6-0.3,5.4c0,0,0,0,0,0l0,0c-0.7,13.4-0.8,26.5-0.1,36.9c0,0,0,0,0,0l0,0
		c0.2,3,0.5,5.8,0.9,8.3c0,0,0,0,0,0l0,0c0.2,1.2,0.4,2.3,0.6,3.4c0,0,0,0,0,0.1c0.1,0.5,0.2,1,0.3,1.5c0.1,0.4,0.2,0.8,0.3,1.3
		c0,0,0,0.1,0,0.1c0.1,0.5,0.2,1,0.2,1.6c0.1,0.6,0.1,1.2,0.2,1.8c0,0.5,0.1,0.9,0.1,1.4c0,0.1,0,0.1,0,0.2c0,0.5,0.1,1,0.1,1.5
		c0,0,0,0,0,0.1c0.1,1.1,0.1,2.3,0.2,3.6c0,0.6,0,1.2,0.1,1.9l0,0c0,1.1,0.1,2.2,0.1,3.4c0,0,0,0,0,0c0,1.2,0,2.4,0.1,3.6l0,0
		c0,0.6,0,1.2,0,1.8l0,0c0,1.1,0,2.3,0,3.5c0,0,0,0,0,0.1c0,1.2,0,2.4,0,3.6c0,0.6,0,1.2,0,1.8l0,0c0,1.7,0,3.5,0,5.3
		c0,1.5,0,3.1,0,4.6l0,0c0,1.4,0,2.9,0,4.4c0,1.6,0,3.2-0.1,4.8l0,0c0,1.4,0,2.9-0.1,4.4l0,0c0,1.6,0,3.2-0.1,4.8l0,0
		c0,0.1,0,0.1,0,0.2c0,1.3,0,2.6,0,4c0,0,0,0.1,0,0.1l0,0c-0.1,11-0.2,22.1,0,31.9l0,0c0,0,0,0,0,0c0.1,2.9,0.1,5.7,0.2,8.4l0,0
		c0,0,0,0,0,0c0.1,2.9,0.3,5.7,0.4,8.3c0,0.1,0,0.2,0,0.3c0,0.5,0.1,1,0.1,1.5c0,0.2,0,0.3,0,0.5c0,0.4,0.1,0.8,0.1,1.2
		c0,0.2,0,0.4,0.1,0.5c0,0.4,0.1,0.8,0.1,1.1c0,0.2,0,0.3,0.1,0.5c0.1,0.5,0.1,1,0.2,1.5c3.7,28.3,0.7,120.6,16.9,154.3
		c0,0,74.6-20.4,131.7,12.7c100.5,58.2,94.4,133.2,96.9,133.1c2.5,0-19.4-337-19.4-354.2C482.4,521.7,482.4,521.4,482.4,521.2
		L482.4,521.2z"/>
</g>
  <g id="MASKL">
<g id="SHIRT_BODY">
	<path fill="#FFFFFF" d="M253.8,381.9c2.5-27,45.1-100.7,50.4-106.9c3.7-4.4,36.4-42.6,61.2-72.3c14-7.4,36.1-18.2,51.5-20.6
		c16-2.6,42.2-1.3,58.1-0.2c1.5,2.5,2.5,4.5,2.5,5.9c0,6.1,32,51.6,41.8,92.2c9.8,40.6-2.5,121.7-8.6,143.8
		c-6.1,22.1-28.3,81.1-28.3,98.3c0,17.2,21.9,354.2,19.4,354.2s3.6-74.9-96.9-133.1c-57.2-33.1-131.7-12.7-131.7-12.7
		c-16.1-33.7-13.2-126-16.9-154.3c-3.7-28.3,1.2-104.5-2.5-119.2C250.1,442.1,251.3,408.9,253.8,381.9z"/>
</g>
<g id="SHIRT_BACK_FAUX_PANEL">
	<path fill="#64615E" d="M489,491.6c7-23.9,17.7-53.6,21.7-68c6.1-22.1,18.4-103.2,8.6-143.8c-9.8-40.6-41.8-86-41.8-92.2
		c0-1.3-1-3.4-2.5-5.9c-15.9-1.1-42.1-2.4-58.1,0.2c-2,0.3-4.2,0.8-6.5,1.4v308.2H489z"/>
</g>
<g id="SHIRT_FAUX_PANEL_STRIPES">
       
	<g>
		<g>
			<g>
				<g>
					<g>
						<path fill="#897F76" d="M522.3,301.1c-0.1-1.6-0.3-3.2-0.4-4.8c-46.1,2.2-87.5,3.4-109.1,3.4c-2.2,0-4.4,0-6.6,0v4.8
							c2.3,0,4.5,0,6.6,0C434.6,304.5,476.1,303.4,522.3,301.1z"/>
					</g>
					<g>
						<path fill="#897F76" d="M520.8,287.5c-0.3-2-0.7-3.9-1.1-5.7c-45,2.1-85.2,3.2-106.2,3.2c-2.4,0-4.8,0-7.3,0v5.8
							c2.5,0,4.9,0,7.3,0C434.7,290.7,475.3,289.6,520.8,287.5z"/>
					</g>
					<g>
						<path fill="#897F76" d="M517.7,273.9c-0.6-2.2-1.3-4.4-2.1-6.6c-43.1,1.9-81.3,2.9-101.4,2.9c-2.6,0-5.2,0-8,0v6.7
							c2.7,0,5.4,0,8,0C434.6,276.9,473.7,275.9,517.7,273.9z"/>
					</g>
					<g>
						<path fill="#897F76" d="M513.1,260.4c-1-2.5-2-5.1-3-7.6c-40.6,1.8-76.2,2.6-95.3,2.6c-2.8,0-5.7,0-8.7-0.1v7.7
							c3,0,5.9,0.1,8.7,0.1C434.4,263.1,471.2,262.2,513.1,260.4z"/>
					</g>
					<g>
						<path fill="#897F76" d="M507.5,246.8c-1.3-2.9-2.6-5.7-3.9-8.5c-37.6,1.5-70.2,2.3-88.1,2.3c-3,0-6.1,0-9.3-0.1v8.6
							c3.2,0,6.3,0.1,9.3,0.1C434,249.3,468.2,248.5,507.5,246.8z"/>
					</g>
				</g>
			</g>
			<path fill="#897F76" d="M498.9,228.9c-7.1,0.2-14.3,0.3-21.6,0.4c-24.3,0.2-48.4-0.3-71.1-1.1v6.8c20.6,0.3,44.2,0.3,71.2,0.1
				c8.3-0.1,16.4-0.2,24.4-0.4C500.8,232.6,499.8,230.7,498.9,228.9z"/>
			<path fill="#897F76" d="M492.6,217c-5,0.1-10.1,0.2-15.3,0.2c-24.3,0.2-48.4-0.3-71.1-1.1v6.8c20.6,0.3,44.2,0.3,71.2,0.1
				c6.2-0.1,12.3-0.2,18.3-0.3C494.6,220.7,493.6,218.8,492.6,217z"/>
		</g>
		<path fill="#897F76" d="M477.5,187.7c0-1.2-0.8-3-2.1-5.2c0.1,0,0.1,0,0.2,0c-2-3.2-4.9-7-7.9-10.6c-23.2,0.5-44.1,3.3-61.5,6.6
			v36.9c22.7,0.9,46.8,1.4,71,1.2c5.1,0,10.1-0.1,15.1-0.2C484.1,201.5,477.5,190.5,477.5,187.7z"/>
	</g>
</g>
<g id="SHIRT_BACK_STRIPE">
	<path d="M410.4,472.2c0,14.5,0,28.9,0,43.4c23.8,3,47.9,4.8,72,5.5c0.3-8.4,5.1-25.3,10.7-43.1
		C465.4,477.6,437.7,475.6,410.4,472.2z"/>
</g>
<g id="SHIRT_CHEVRON_STRIPES">
	<g>
		<path fill="#897F76" d="M357.9,336.7L251.5,420c0,2-0.1,4-0.1,6l106.4-83.4V336.7z"/>
		<path fill="#897F76" d="M357.9,371.8l-104.7,82c0.2,1.1,0.4,2.2,0.7,3.1c0.2,0.8,0.4,1.8,0.5,2.9l103.5-81.3V371.8z"/>
		<path fill="#897F76" d="M357.9,435.1L255,516.1c0,1.4,0,2.8,0,4.3l103-80.8V435.1z"/>
		<path fill="#897F76" d="M357.9,353.9L251.6,437c0.1,2.3,0.2,4.5,0.3,6.6l105.9-83.1V353.9z"/>
		<path fill="#897F76" d="M357.9,344.9l-106.4,83.2c0,2.3,0,4.5,0.1,6.7l106.3-83.3V344.9z"/>
		<path fill="#897F76" d="M357.9,444.1l-103,81.1c0,1.4,0,2.8,0,4.2l103-80.9V444.1z"/>
		<path fill="#897F76" d="M357.9,362.8l-105.8,82.8c0.2,2.3,0.4,4.4,0.7,6.3l105-82.4V362.8z"/>
		<path fill="#897F76" d="M357.9,380.7l-103.3,80.9c0.2,1.9,0.3,4.2,0.4,6.7l102.9-80.8V380.7z"/>
		<path fill="#897F76" d="M357.9,407.5l-102.6,80.5c0,1.7,0,3.5,0,5.3l102.6-80.5V407.5z"/>
		<path fill="#897F76" d="M357.9,398.5L255.2,479c0,2.3,0,4.7,0,7.2l102.6-80.7V398.5z"/>
		<path fill="#897F76" d="M357.9,417l-102.7,80.9c0,1.5,0,2.9,0,4.4l102.7-80.6V417z"/>
		<path fill="#897F76" d="M357.9,389.6L255,470.2c0.1,2.2,0.1,4.5,0.2,7l102.7-80.7V389.6z"/>
		<path fill="#897F76" d="M357.9,426l-102.8,81c0,1.4,0,2.9-0.1,4.4l102.8-80.7V426z"/>
		<path fill="#897F76" d="M357.9,291.4L256,371.2c-0.7,2.4-1.3,4.7-1.7,6.7l103.5-81V291.4z"/>
		<path fill="#897F76" d="M357.9,471.2l-103,81.1c0,1.3,0.1,2.6,0.1,3.9l102.9-80.7V471.2z"/>
		<path fill="#897F76" d="M357.9,453.1l-103.1,81.2c0,1.4,0,2.7,0,4.1l103.1-80.9V453.1z"/>
		<path fill="#897F76" d="M357.9,282.3l-97.5,76.5c-1,2.7-2,5.3-2.8,7.7l100.3-78.5V282.3z"/>
		<path fill="#897F76" d="M357.9,309.5L253,391.7c-0.1,1.8-0.3,3.7-0.4,5.5l105.3-82.4V309.5z"/>
		<path fill="#897F76" d="M357.9,300.5L253.8,382c-0.2,1.9-0.3,3.8-0.5,5.7l104.6-81.8V300.5z"/>
		<path fill="#897F76" d="M357.9,318.6l-105.5,82.7c-0.1,1.8-0.2,3.6-0.3,5.4l105.8-82.8V318.6z"/>
		<path fill="#897F76" d="M357.9,327.6l-106,83.1c-0.1,1.8-0.1,3.5-0.2,5.2l106.2-83.1V327.6z"/>
		<path fill="#897F76" d="M357.9,462.2l-103.1,81.2c0,1.3,0,2.7,0,4l103-80.9V462.2z"/>
		<g>
			<path fill="#897F76" d="M357.9,479.8l-102.7,80.9c0.2,5.9,0.6,11.2,1.1,15.4c0,0.1,0,0.2,0,0.4l101.6-74.8V479.8z"/>
			<path fill="#897F76" d="M357.9,479.8l-102.7,80.9c0.2,5.9,0.6,11.2,1.1,15.4c0,0.1,0,0.2,0,0.4l101.6-74.8V479.8z"/>
		</g>
	</g>
</g>
<g id="SHIRT_ACCENT_STRIPES">
	<g>
		<rect x="354.5" y="254.1" width="7.2" height="472"/>
	</g>
</g>
    </g>
  <g id="CUSTOM">
</g>
  <g id="SHIRT_COLLAR">
	<path fill="#64615E" d="M416.5,182.7c-15.7,2.5-38.2,13.4-52.4,21c13.3-16,24.7-29.2,29-32.7c12.5-10,63.7-11.2,63.7-11.2
		s13,13.8,18.7,22.8C459.4,181.3,432.8,180.1,416.5,182.7z"/>
</g>

<g id="SHIRT_SLEEVES">
	<g>
		
			<image overflow="visible" opacity="0.2" width="181" height="256" xlink:href="/svg/SBDUS69/E3CE8B52.png"  transform="matrix(1 0 0 1 321.1622 194.6558)">
		</image>
		<g>
			<path fill="#897F76" d="M337.6,289.3c1-29.6,8.8-68.8,49.3-76.4c40.5-7.6,64.9,4.8,64.9,4.8s13,5.2,19.7,22.1
				c6.7,16.9,13.7,43.9,14,56.2c0.9,28.7-6.2,66-6,74.7c0.2,8.7,2.6,51.1,2.6,51.1s-8,10.6-68.2,12.5c-60.9,1.9-67.7-11.6-67.7-11.6
				s1.3-56.4-0.2-64C344.4,351.1,336.5,318.9,337.6,289.3z"/>
			<path fill="none" stroke="#897F76" stroke-width="1.3599" d="M337.6,289.3c1-29.6,8.8-68.8,49.3-76.4c40.5-7.6,64.9,4.8,64.9,4.8
				s13,5.2,19.7,22.1c6.7,16.9,13.7,43.9,14,56.2c0.9,28.7-6.2,66-6,74.7c0.2,8.7,2.6,51.1,2.6,51.1s-8,10.6-68.2,12.5
				c-60.9,1.9-67.7-11.6-67.7-11.6s1.3-56.4-0.2-64C344.4,351.1,336.5,318.9,337.6,289.3z"/>
		</g>
	</g>
</g>
<g id="SHIRT_STITCH">
	<g opacity="0.4">
		<path fill="#6C6361" d="M407.6,736.9c0.6-1,0.8-1.8,0.6-2.5c-0.1-0.4-0.3-0.7-0.7-0.9l0-0.8c0.3-0.3,0.6-0.6,0.7-1
			c0.1-0.7-0.1-1.4-0.6-2.3c0,0,0,0,0,0l0-0.4c0.6-0.8,0.8-1.5,0.7-2.1c-0.1-0.4-0.3-0.6-0.6-0.8l0-0.5c0.1-0.2,0.3-0.3,0.4-0.5
			c0.2-0.6,0.2-1.3,0-2.2c-0.1-0.3-0.2-0.5-0.4-0.7l0-0.3c0.1-0.1,0.2-0.1,0.4-0.2l-0.1-0.4c-0.1,0.1-0.2,0.1-0.2,0.1l0-0.7l-0.3,0
			l0,0.9c-0.2,0.1-0.4,0.2-0.5,0.2c-0.4-0.1-0.9,0-1.4,0.1l0-1l-0.3,0l0,1.1c0,0-0.1,0-0.1,0c-0.2,0-0.4,0-0.5,0c-0.4,0-0.9,0-1.3,0
			l0-1l-0.3,0l0,1c-0.1,0-0.3,0-0.4,0c0,0-0.6,0.1-1.3,0.5c-0.1,0-0.2-0.1-0.3-0.2l0-1.2l-0.3,0l0,0.9c-0.2-0.3-0.3-0.6-0.3-1.1
			l-0.3,0c0,0.7,0.2,1.2,0.5,1.5c0,0,0.1,0.1,0.1,0.1l0,0.3c-0.4,0.3-0.7,0.7-0.8,1.2c-0.1,0.6,0.1,1.1,0.6,1.7l-0.4,0.2l0.1,0.4
			l0.1-0.1c0,0-0.1,0.1-0.1,0.1c-0.4,1-0.6,1.7-0.4,2.3c0.1,0.4,0.4,0.6,0.7,0.8l0,0l-0.5,0.3l0.1,0.4l0,0c-0.3,0.3-0.4,0.6-0.5,0.9
			c-0.1,0.7,0.1,1.5,0.8,2.3c-0.1,0-0.1,0.1-0.2,0.1c-0.1,0.1-0.1,0.2-0.2,0.3l-0.2,0.1l0,0.2c-0.4,0.8-0.6,1.5-0.4,2.1
			c0.1,0.4,0.4,0.7,0.9,1l0,0.1c-0.1,0.1-0.2,0.2-0.2,0.3l-0.3,0.1l0,0.2c-0.3,0.6-0.3,1.5,0,2.7l0.3-0.2c-0.2-1-0.3-1.7,0-2.2
			c0-0.1,0.1-0.1,0.1-0.2l0.1,0l0,2.1l0.3,0l0-2.3l0.6-0.3c0.4,0.1,0.9,0.1,1.4,0l0,2.4l0,0l-0.3,0.2l0.1,0.4l2.5-1.3l0,0.5l0.3,0
			l0-0.7l2-1.1l0,1.6l0.3,0l0-1.7l0.1,0l0,0c0.2,0.4,0.2,0.9,0.1,1.7l0.3,0.1c0.2-1,0.1-1.7-0.2-2.2c-0.1-0.1-0.1-0.2-0.2-0.3
			L407.6,736.9C407.6,737,407.6,736.9,407.6,736.9z M408,734.6c0.1,0.5-0.1,1.2-0.4,1.7l0-2.1l0.1,0l0-0.1
			C407.8,734.2,407.9,734.4,408,734.6z M401.3,723c0.5,0.1,1,0.1,1.6,0l0,1.6l-2,1.1l0-2.4C401.1,723.2,401.2,723.1,401.3,723z
			 M405.1,722.4C405.1,722.4,405.1,722.4,405.1,722.4l0.1,0.9l-2,1.1l0-1.5c0.4-0.1,0.8-0.2,1.1-0.3
			C404.6,722.5,404.8,722.5,405.1,722.4z M407.3,733.9l-2,1.1l0-1.4c0.1,0,0.3-0.1,0.4-0.1C406.4,733.5,406.9,733.7,407.3,733.9
			L407.3,733.9z M405.1,725.6c-0.6,0-1.3,0-2,0.1l0-0.8l2-1.1L405.1,725.6z M402.9,725.7c-0.3,0-0.5,0.1-0.8,0.1
			c-0.3,0-0.5,0.1-0.7,0.1l1.5-0.8L402.9,725.7z M403.6,726.3c0.5,0,1.1,0,1.6,0l0,0.9l-2,1.1l0-2
			C403.3,726.3,403.4,726.3,403.6,726.3z M405.1,727.8l0,1.2c-0.7,0.1-1.3,0.2-2,0.3l0-0.4L405.1,727.8z M405,729.5
			c-0.3,0-0.6,0.1-0.9,0.1C404.4,729.5,404.7,729.5,405,729.5z M402.9,729.3c-0.4,0.1-0.7,0.2-1,0.3l1-0.6L402.9,729.3z
			 M403.1,730.1c0.6,0,1.3-0.1,2-0.2l0,1.5l-2,1.1L403.1,730.1z M405.1,731.9l0,1.1c-0.6,0-1.3,0-2,0.1l0-0.1L405.1,731.9z
			 M405.1,733.7l0,1.4l-2,1.1l0-2.3C403.8,733.9,404.4,733.8,405.1,733.7z M405.3,733l0-1.2l2-1.1l0,1.7c-0.4,0.3-0.9,0.5-1.5,0.6
			C405.7,733,405.5,733,405.3,733z M407.3,730.2l-2,1.1l0-1.4c0,0,0.1,0,0.1,0c0.7-0.1,1.5-0.2,1.9-0.2L407.3,730.2z M407.3,728.8
			c-0.1,0-0.5,0.1-0.9,0.1c-0.4,0-0.7,0.1-1.1,0.1l0-1.3l2-1.1L407.3,728.8C407.3,728.7,407.3,728.8,407.3,728.8z M405.4,727.1
			l0-0.8c0.4,0,0.8-0.1,1.2-0.2c0.1,0,0.3,0,0.4,0.1L405.4,727.1z M405.4,725.6l0-1.9l2-1.1l0,2.7c-0.2,0.2-0.5,0.3-0.8,0.4
			C406.2,725.6,405.8,725.6,405.4,725.6z M407.1,722.3l-1.7,0.9l0-0.8c0.5,0,1-0.1,1.4-0.2C407,722.2,407.1,722.2,407.1,722.3z
			 M402.9,726.3l0,2.2l-1.7,1c-0.1,0-0.2,0-0.2-0.1l0-2.9C401.4,726.3,402.1,726.3,402.9,726.3z M401.8,730.1c0.3,0,0.7,0.1,1.1,0.1
			l0,2.6l-1,0.6c-0.4,0-0.8,0.1-1,0.1l0-2.9C401.2,730.3,401.5,730.2,401.8,730.1z M401.2,734.1c0.3,0,0.5,0,0.8-0.1
			c0.3,0,0.5,0,0.8-0.1l0,2.4l-1,0.5c-0.3,0-0.5,0.1-0.7,0.2c-0.1,0-0.2-0.1-0.3-0.1l0-2.8L401.2,734.1z M404.5,736.9
			c-0.5,0-0.9-0.1-1.4-0.1l0-0.2l2-1.1l0,1.2C404.8,736.9,404.7,736.9,404.5,736.9C404.5,736.9,404.5,736.9,404.5,736.9z
			 M405.3,736.7l0-1.3l2-1.1l0,2.4c0,0-0.1,0.1-0.1,0.1C406.6,736.6,406,736.6,405.3,736.7z M407.3,733.4c-0.2-0.1-0.3-0.1-0.5-0.2
			c0.2-0.1,0.4-0.2,0.6-0.3L407.3,733.4z M408,731.5c-0.1,0.3-0.2,0.5-0.4,0.7l0-1.6l0,0l0-0.2l0-0.3
			C407.9,730.6,408.1,731.1,408,731.5z M408,727c0.1,0.3-0.1,0.7-0.4,1.3l0-1.8C407.8,726.7,408,726.8,408,727z M407.4,725.9
			C407.3,725.9,407.3,725.9,407.4,725.9C407.3,725.9,407.3,725.8,407.4,725.9L407.4,725.9z M407.8,724.8c0,0.1-0.1,0.1-0.1,0.2
			l0-2.2c0,0.1,0.1,0.1,0.1,0.2C408,723.8,408,724.3,407.8,724.8z M403.3,722.5C403.3,722.5,403.2,722.5,403.3,722.5L403.3,722.5
			C403.2,722.5,403.2,722.5,403.3,722.5z M402.6,722.5c0.1,0,0.2,0,0.4,0l0,0c-0.3,0.1-0.5,0.1-0.8,0.1
			C402.3,722.6,402.5,722.6,402.6,722.5z M400.2,724.3c0-0.3,0.2-0.6,0.5-0.8l0,2C400.4,725.1,400.2,724.7,400.2,724.3z
			 M400.2,728.7c-0.1-0.4,0-1,0.4-1.8c0-0.1,0.1-0.1,0.1-0.2l0,2.5C400.4,729.1,400.3,728.9,400.2,728.7z M400,731.5
			c0.1-0.3,0.3-0.6,0.6-0.9l0,2.5C400.2,732.6,399.9,732,400,731.5z M399.9,736.2c-0.1-0.4,0.1-1,0.5-1.7l0.2-0.1l0,2.5
			C400.2,736.7,400,736.4,399.9,736.2z M403,739.9l0-2.2c0.1,0,0.2,0,0.4,0l0.1,0c0.3,0,0.6-0.1,0.9-0.2c0,0,0,0,0,0
			c0.2,0,0.4,0,0.5,0l0,1.3L403,739.9z M405.3,738.6l0-1.2c0.7,0.1,1.4,0,1.8-0.2c0,0,0.1,0,0.1,0.1l0,0.2L405.3,738.6z"/>
		<path fill="#6C6361" d="M408.3,669.1l0.2-0.2l-0.1-0.4l-0.2,0.2l0-0.8l-0.3,0l0,1l-2,0.2l0-1l-0.3,0l0,1l-2,0.2l0-1l-0.3,0l0,1
			l-2,0.2l0-1l-0.3,0l0,1.1c-0.1-0.2-0.3-0.5-0.3-1.4l-0.3,0c0,0.9,0.2,1.4,0.4,1.7c-0.2,0.3-0.4,0.8-0.4,1.7c0,0.7,0.1,1.2,0.3,1.5
			l-0.3,0.1l0.1,0.4l0.1-0.1c-0.2,0.3-0.3,0.8-0.3,1.6c0,0.9,0.1,1.5,0.3,1.8c0,0,0,0,0,0l-0.3,0.1l0.1,0.3
			c-0.1,0.3-0.2,0.8-0.2,1.4c0,0.8,0.1,1.4,0.3,1.7c0.1,0.1,0.1,0.2,0.2,0.2c-0.1,0.1-0.2,0.2-0.3,0.4l-0.2,0.1l0.1,0.3
			c-0.1,0.3-0.1,0.7-0.1,1.2c0,1,0.2,1.6,0.3,1.9c0,0.1-0.1,0.1-0.1,0.2l-0.2,0.1l0.1,0.3c-0.1,0.3-0.2,0.7-0.2,1.3
			c0,0.8,0.1,1.3,0.3,1.5c0.1,0.1,0.2,0.2,0.3,0.2l0,0.1l-0.5,0.3l0.1,0.4c-0.1,0.4-0.2,0.9-0.2,1.6c0,0.8,0.1,1.3,0.2,1.7l-0.2,0.1
			l0.1,0.4c-0.1,0.4-0.1,0.8-0.1,1.4c0,0.9,0.1,1.5,0.3,1.8c0.1,0.2,0.2,0.2,0.2,0.2l0,0.1l-0.5,0.3l0.1,0.4l0.1-0.1
			c-0.1,0.3-0.3,0.9-0.3,1.7c0,0.7,0.1,1.2,0.2,1.5c0,0,0,0.1,0,0.2l-0.1,0.1l0,0.2c-0.1,0.4-0.1,0.8-0.2,1.6c0,0.9,0.1,1.5,0.3,1.8
			c0,0,0,0,0,0l-0.2,0.1l0.1,0.4c-0.1,0.3-0.1,0.7-0.1,1.2c0,0.7,0.1,1.2,0.1,1.5l-0.1,0.1l0.1,0.4l0.2-0.1c0,0,0,0.1,0,0.1
			c-0.2,0.3-0.4,0.8-0.4,1.9c0,0.6,0,1,0.1,1.3l-0.1,0l0.1,0.4l0.1-0.1c0.1,0.2,0.2,0.3,0.3,0.3l0,0c-0.1,0-0.1,0.1-0.2,0.1
			c-0.2,0.3-0.3,0.8-0.3,1.6c0,0.9,0.1,1.4,0.2,1.7l-0.2,0.1l0.1,0.4l0.1,0c-0.1,0.4-0.2,1-0.2,1.9c0,0.5,0,0.8,0.1,1l0,0l0.1,0.4
			l0.1,0c0,0,0,0,0,0.1l-0.2,0.2l0.1,0.4l0.4-0.3l0,1.4l0.3,0l0-1.5l2-0.2l0,1.4l0.3,0l0-1.5l2-0.2l0,1.5l0.3,0l0-1.5l1.8-0.2
			c0,0,0.1,0,0.1-0.1l0,1.5l0.3,0l0-1.3c0.1,0.2,0.2,0.6,0.1,1.1l0.3,0c0-0.9-0.2-1.4-0.4-1.7c0.2-0.3,0.4-0.8,0.4-1.7
			c0-0.7-0.1-1.3-0.3-1.6c0,0,0,0,0-0.1l0-0.1l0-0.1c0,0,0.1,0,0.1-0.1c0.2-0.3,0.3-0.9,0.3-1.7c0-0.9-0.1-1.5-0.3-1.8
			c0.2-0.3,0.4-0.9,0.4-1.9c0-0.8-0.1-1.4-0.3-1.7c0,0-0.1-0.1-0.1-0.1l0,0l0.1,0l0-0.2c0.2-0.2,0.4-0.7,0.4-1.9
			c0-1-0.2-1.6-0.3-1.9c0.2-0.3,0.4-0.9,0.4-1.9c0-0.8-0.1-1.3-0.3-1.5c0,0-0.1-0.1-0.1-0.1l0-0.4c0,0,0.1,0,0.1-0.1
			c0.2-0.3,0.4-1,0.4-2c0-0.8-0.1-1.4-0.3-1.8c0.1-0.4,0.3-1,0.3-1.9c0-0.9-0.1-1.5-0.3-1.8c0-0.1-0.1-0.1-0.1-0.1l0-0.5
			c0.2-0.3,0.4-0.9,0.4-2c0-0.7-0.1-1.2-0.2-1.5c0.1-0.3,0.2-0.9,0.3-1.9c0-0.9-0.1-1.4-0.3-1.8c0,0-0.1-0.1-0.1-0.1
			c0.2-0.2,0.3-0.8,0.3-1.7c0-1.1-0.1-1.7-0.3-2.1c0.2-0.3,0.4-0.8,0.4-1.9c0-1.2-0.2-1.7-0.4-1.9l0-0.2c0,0,0,0,0.1-0.1
			c0.2-0.3,0.3-0.8,0.3-1.6c0-1-0.2-1.6-0.3-1.9c0.2-0.4,0.3-1,0.4-2.3C408.6,669.8,408.5,669.3,408.3,669.1z M407.6,699.3l-2,0.2
			l0-1.3l2-1.1L407.6,699.3z M407.8,684.9l-2,1.1l0-1.2l2-0.2L407.8,684.9z M407.7,688.7l-2,1.1l0-1.1l2-0.2L407.7,688.7z
			 M405.4,701.5l-2,1.1l0-1.8l2-0.2L405.4,701.5z M405.7,700.6l1.8-0.2l-1.8,1L405.7,700.6z M407.4,707.7c0,0,0.1,0,0.1,0l0,3
			c0,0,0,0,0,0l0,0l-1.9,0.2l0-2.3L407.4,707.7L407.4,707.7z M403.3,717.7l2-1.1l0,1.8l-2,0.2L403.3,717.7z M403,718.6l-1.6,0.2
			l1.6-0.9L403,718.6z M405.3,707.9l0,0.5l-2,1.1l0-1.4L405.3,707.9z M405.3,708.9l0,2.1l-2,0.2l0-1.2L405.3,708.9z M401.1,712.3
			l2-0.2l0,1.8l-2,1.1L401.1,712.3z M402,715l1.1-0.6l0,0.5L402,715z M405.2,715.4l0,0.7l-2,1.1l0-1.6L405.2,715.4z M405.5,715.4
			l1.2-0.1l-1.2,0.7L405.5,715.4z M405.5,716.4l2-1.1l0,2.8c0,0,0,0-0.1,0l-1.9,0.2L405.5,716.4z M403.3,714.9l0-0.6l2-1.1l0,1.5
			L403.3,714.9z M403.3,713.8l0-1.7l2-0.2l0,0.8L403.3,713.8z M405.6,711.9l1.4-0.1l-1.4,0.8L405.6,711.9z M405.6,708.3l0-0.3
			l0.7-0.1L405.6,708.3z M403.4,707.4l0-1.1l2-1.1l0,2L403.4,707.4z M403.4,705.8l0-1.5l2-0.2l0,0.6L403.4,705.8z M402.3,703.7
			l0.8-0.5l0,0.4L402.3,703.7z M405.6,704.1l1-0.1l-1,0.6L405.6,704.1z M403.4,703.6l0-0.5l2-1.1l0,1.4L403.4,703.6z M403.4,700.3
			l0-0.2l2-0.2l0,0.2L403.4,700.3z M401.2,697.1l2-0.2l0,2.2l-1.3,0.7l-0.6,0.1L401.2,697.1z M403.2,696.3l0,0.2l-1.4,0.1l0.4-0.2
			L403.2,696.3z M403.2,699.6l0,0.1l-0.3,0L403.2,699.6z M401.9,700.3l1.3-0.1l0,0.2l-1.6,0.2L401.9,700.3z M403.4,699.7l0-0.2
			l2-1.1l0,1.1L403.4,699.7z M403.4,699l0-2.1l2-0.2l0,1.2L403.4,699z M405.7,696.7l2-0.2l0,0.2l-2,1.1L405.7,696.7z M407.7,696
			l-2,0.2l0-0.2l1.9-0.2c0,0,0,0,0,0c0,0,0,0,0,0L407.7,696C407.7,696,407.7,696,407.7,696z M405.4,696.2l-2,0.2l0-0.2l2-0.2
			L405.4,696.2z M403.5,695.8l0-0.1l2-1.1l0,1L403.5,695.8z M403.5,695.2l0-2.3l2-0.2l0,1.4L403.5,695.2z M403.5,692.4l0-0.2l2-0.2
			l0,0.2L403.5,692.4z M403.3,688.3l0,0.2l-1.4,0.1l0.4-0.2L403.3,688.3z M403.3,687.8L403.3,687.8L403.3,687.8L403.3,687.8z
			 M401.9,691.9l-0.6,0.1l0-2.8l2-0.2l0,2.2L401.9,691.9z M403.2,691.6l0,0.1l-0.3,0L403.2,691.6z M401.9,692.3l1.3-0.1l0,0.2
			l-1.6,0.2L401.9,692.3z M403.5,691.7l0-0.3l2-1.1l0,1.1L403.5,691.7z M403.5,691l0-2.1l2-0.2l0,1.2L403.5,691z M407.7,688l-2,0.2
			l0-0.2l1.9-0.2c0,0,0,0,0,0L407.7,688z M405.5,688.3l-2,0.2l0-0.2l2-0.2L405.5,688.3z M403.5,687.8l0-0.1l2-1.1l0,1L403.5,687.8z
			 M403.6,687.2l0-2.2l2-0.2l0,1.3L403.6,687.2z M403,684.3l0.3-0.2l0,0.1L403,684.3z M403.6,684.3l0-0.3l2-1.1l0,1.1L403.6,684.3z
			 M403.6,683.5l0-2.3l2-0.2l0,1.4L403.6,683.5z M401.5,670.3l2-0.2l0,1.8l-2,1.1L401.5,670.3z M402,673.2l1.4-0.8l0,0.6L402,673.2z
			 M403.4,673.8l0,2.1l-1.5,0.8l-0.5,0l0-2.7L403.4,673.8z M403,676.5l0.4-0.2l0,0.2L403,676.5z M403.4,677.4l0,2.6l-1.1,0.6
			l-0.9,0.1l0-3.1L403.4,677.4z M403.6,680.5l0-0.1l2-1.1l0,1L403.6,680.5z M403.6,679.9l0-2.5l2-0.2l0,1.6L403.6,679.9z
			 M405.9,677.2l2-0.2l0,0.5l-2,1.1L405.9,677.2z M403.7,676.5l0-0.3l2-1.1l0,1.2L403.7,676.5z M403.7,675.7l0-2l2-0.2l0,1.1
			L403.7,675.7z M403.7,673l0-0.8l2-1.1l0,1.7L403.7,673z M403.7,671.8l0-1.7l2-0.2l0,0.8L403.7,671.8z M406,669.8l1.5-0.1l-1.5,0.8
			L406,669.8z M401.8,681.4l1.5-0.2l0,2.5l-1.4,0.7l-0.6,0.1l0-2.9L401.8,681.4z M401.3,685.3l0.1-0.1l1.8-0.2l0,2.3l-1.1,0.6
			l-0.9,0.1L401.3,685.3z M401,689.2l0,2.8c0,0-0.1,0.1-0.1,0.2c-0.1-0.2-0.2-0.7-0.2-1.4C400.7,689.6,400.9,689.3,401,689.2z
			 M401.3,693l2-0.2l0,2.5l-1,0.6l-0.9,0.1L401.3,693z M400.9,699.9L400.9,699.9L400.9,699.9c-0.1,0-0.1,0.1-0.2,0.1
			c-0.1-0.2-0.1-0.6-0.1-1.1c0-0.9,0.2-1.3,0.3-1.6L400.9,699.9z M401.2,701l2-0.2l0,2l-1.9,1l-0.1,0L401.2,701z M401.2,704.5l2-0.2
			l0,1.6l-2,1.1L401.2,704.5z M403.1,706.5l0,1l-2,0.2l0-0.1L403.1,706.5z M401.1,708.3l2-0.2l0,1.5l-2,1.1L401.1,708.3z
			 M403.1,710.1l0,1.1l-2,0.2l0-0.2L403.1,710.1z M401,715.8l2-0.2l0,1.7l-2,1.1L401,715.8z M407.5,714.5l-2,0.2l0-1.6l2-1.1
			L407.5,714.5z M407.6,707l-2,0.2l0-2.1l2-1.1L407.6,707z M407.6,703.2l-2,0.2l0-1.5l2-1.1L407.6,703.2z M407.6,699.9l-1.9,0.2
			l0-0.2l2-0.2L407.6,699.9C407.6,699.9,407.6,699.9,407.6,699.9z M407.6,695.4l-1.9,0.2l0-1.1l2-1.1L407.6,695.4
			C407.6,695.4,407.6,695.4,407.6,695.4z M407.7,692.8l-2,1.1l0-1.3l2-0.2L407.7,692.8z M405.7,692.1l0-0.2l2-0.2l0,0.2L405.7,692.1
			z M407.7,691.3C407.7,691.3,407.7,691.3,407.7,691.3l-2,0.2l0-1.3l2-1.1L407.7,691.3z M407.7,687.4l-2,0.2l0-1.2l2-1.1
			L407.7,687.4C407.7,687.4,407.7,687.4,407.7,687.4z M407.8,683.9l-2,0.2l0-1.3l2-1.1L407.8,683.9z M405.8,682.3l0-1.3l1.9-0.2
			c0,0,0,0,0,0l0,0.4L405.8,682.3z M407.8,680.1L407.8,680.1l-1.9,0.2l0-1.2l2-1.1L407.8,680.1C407.8,680.1,407.8,680.1,407.8,680.1
			z M407.9,676.1L407.9,676.1l-2,0.2l0-1.3l2-1.1L407.9,676.1z M405.9,674.4l0-0.9l2-0.2l0,0L405.9,674.4z M407.9,672.6l-2,0.2
			l0-1.8l2-1.1L407.9,672.6z M401.2,670.3l0,2.7c0,0,0,0,0,0c-0.2-0.2-0.2-0.7-0.2-1.3C400.9,671,401.1,670.6,401.2,670.3z
			 M401.1,674.1C401.1,674,401.1,674,401.1,674.1l0,2.8c0,0,0,0,0,0c-0.1-0.2-0.2-0.7-0.2-1.5C400.9,674.5,401,674.2,401.1,674.1z
			 M400.8,679.1c0-0.7,0.1-1.2,0.3-1.5l0.1,0l0,2.9c0,0,0,0-0.1-0.1C400.9,680.2,400.8,679.7,400.8,679.1z M401,681.8l0.1-0.1l0,2.8
			c-0.1-0.3-0.3-0.7-0.2-1.5C400.8,682.4,400.9,682.1,401,681.8z M400.9,688c-0.1-0.1-0.2-0.4-0.2-1.2c0-0.6,0.1-1,0.2-1.3l0.1-0.1
			L400.9,688C401,688,401,688,400.9,688z M400.7,694.5c0-0.7,0.1-1.2,0.2-1.6c0,0,0,0,0.1,0l0,3
			C400.9,695.9,400.7,695.6,400.7,694.5z M400.7,700.9l0.1-0.1c0,0,0.1,0,0.1,0.1l0,2.9l0,0c-0.1,0-0.3-0.3-0.3-1.5
			C400.6,701.7,400.7,701.2,400.7,700.9z M400.6,705.9c0-1.1,0.2-1.3,0.2-1.4c0,0,0,0,0,0l0,2.7l-0.1,0
			C400.7,707,400.6,706.5,400.6,705.9z M400.6,709.8c0-0.9,0.2-1.3,0.3-1.5l0,2.6l-0.2,0.1C400.6,710.7,400.6,710.4,400.6,709.8z
			 M400.7,712.4C400.8,712.4,400.8,712.4,400.7,712.4l0,2.7c0,0,0,0,0,0c-0.1-0.2-0.3-0.6-0.2-1.5
			C400.5,712.8,400.7,712.5,400.7,712.4z M400.5,717.8c0-1.1,0.2-1.7,0.3-2l0,2.7l-0.2,0.1C400.5,718.5,400.5,718.3,400.5,717.8z
			 M407.9,716.7c0,0.4-0.1,0.8-0.1,1l0-1.9C407.8,716,407.9,716.3,407.9,716.7z M407.8,714.1l0-2.2c0.1,0.3,0.1,0.6,0.1,1.1
			C407.9,713.6,407.8,713.9,407.8,714.1z M408,709.3c0,0.6-0.1,1-0.2,1.2l0-2.4C407.9,708.5,408,708.9,408,709.3z M407.8,706.5
			l0-2.1c0.1,0.3,0.1,0.6,0.1,1.1C408,705.9,407.9,706.2,407.8,706.5z M408.1,701.6c0,0.6-0.1,1-0.2,1.2l0-2.2l0,0
			C408,700.8,408.1,701.1,408.1,701.6z M407.9,699l0-2l0.1,0l0-0.2l0-0.5c0.1,0.2,0.2,0.7,0.1,1.3C408.1,698.3,408,698.7,407.9,699z
			 M408.1,693.9c0,0.5-0.1,0.9-0.1,1.2l0-2l0.1,0l-0.1-0.3l0-0.2C408,692.9,408.1,693.3,408.1,693.9z M408,690.7l0-1.7l0.1,0l0-0.2
			l0-0.3c0,0,0,0,0,0c0.1,0.2,0.1,0.6,0.1,1.1C408.1,690,408.1,690.4,408,690.7z M408,687.6C408,687.6,408,687.6,408,687.6l0-2.4
			l0,0l0-0.2l0-0.2c0.1,0.2,0.2,0.6,0.1,1.3C408.2,686.8,408.1,687.3,408,687.6z M408.1,683.5l0-1.9l0,0c0,0.3,0,0.6,0,1
			C408.1,683,408.1,683.3,408.1,683.5z M408.2,678.6c0,0.5-0.1,0.8-0.1,1.1l0-1.8l0.1,0l0-0.2l0-0.2
			C408.2,677.7,408.2,678,408.2,678.6z M408.1,675.8l0-2.1l0,0c0.1,0.3,0.1,0.6,0.1,1.1C408.3,675.3,408.2,675.6,408.1,675.8z
			 M408.2,672l0-2.3l0.1,0l0-0.2l0,0c0,0,0.1,0.2,0.1,1.1C408.3,671.2,408.2,671.7,408.2,672z"/>
		<path fill="#6C6361" d="M408.8,616.4l0.2-0.2l-0.1-0.4l-0.2,0.2l0-0.8l-0.3,0l0,1l-2,0.2l0-1l-0.3,0l0,1l-2,0.2l0-1l-0.3,0l0,1
			l-2,0.2l0-1l-0.3,0l0,1.1c-0.1-0.2-0.3-0.5-0.3-1.3l-0.3,0c0,0.9,0.2,1.4,0.4,1.7c-0.2,0.3-0.3,0.8-0.4,1.7c0,0.7,0.1,1.2,0.3,1.6
			l-0.3,0.1l0.1,0.4l0.1-0.1c-0.2,0.3-0.3,0.8-0.3,1.6c0,0.9,0.1,1.5,0.3,1.8l-0.3,0.1l0.1,0.3c-0.1,0.3-0.2,0.8-0.2,1.4
			c0,0.8,0.1,1.4,0.3,1.7c0.1,0.1,0.1,0.2,0.2,0.2c-0.1,0-0.2,0.2-0.3,0.4l-0.2,0.1l0.1,0.3c-0.1,0.3-0.1,0.7-0.1,1.2
			c0,1,0.2,1.6,0.3,1.9c0,0.1-0.1,0.1-0.1,0.2l-0.2,0.1l0.1,0.3c-0.1,0.3-0.2,0.7-0.2,1.3c0,0.8,0.1,1.3,0.3,1.5
			c0.1,0.1,0.2,0.2,0.3,0.2l0,0.1l-0.5,0.3l0.1,0.4c-0.1,0.4-0.2,0.9-0.2,1.6c0,0.8,0.1,1.3,0.2,1.7L401,640l0.1,0.4
			c-0.1,0.4-0.1,0.8-0.1,1.5c0,0.9,0.1,1.5,0.3,1.8c0.1,0.2,0.2,0.2,0.2,0.2l0,0.1l-0.5,0.3l0.1,0.4l0.1-0.1
			c-0.1,0.3-0.3,0.9-0.3,1.8c0,0.7,0.1,1.2,0.2,1.5c0,0,0,0.1,0,0.2l-0.1,0.1l0,0.2c-0.1,0.4-0.1,0.9-0.2,1.6c0,0.9,0.1,1.5,0.3,1.8
			c0,0,0,0,0,0l-0.2,0.1l0.1,0.4c-0.1,0.3-0.1,0.7-0.1,1.2c0,0.7,0.1,1.2,0.1,1.5l-0.1,0.1l0.1,0.4l0.2-0.1c0,0,0,0.1,0,0.1
			c-0.2,0.3-0.4,0.8-0.4,1.9c0,0.6,0,1,0.1,1.3l-0.1,0l0.1,0.4l0.1-0.1c0.1,0.2,0.2,0.3,0.3,0.3l0,0c-0.1,0-0.1,0.1-0.2,0.2
			c-0.2,0.3-0.3,0.8-0.3,1.6c0,0.9,0.1,1.4,0.2,1.7l-0.2,0.1l0.1,0.4l0.1,0c-0.1,0.4-0.2,1-0.2,1.9c0,0.5,0,0.8,0.1,1l0,0l0.1,0.4
			l0.1,0c0,0,0,0,0,0.1l-0.2,0.2l0.1,0.4l0.4-0.3l0,1.4l0.3,0l0-1.5l2-0.2l0,1.5l0.3,0l0-1.5l2-0.2l0,1.4l0.3,0l0-1.5l1.8-0.2
			c0,0,0.1,0,0.1-0.1l0,1.5l0.3,0l0-1.3c0.1,0.2,0.2,0.6,0.1,1.1l0.3,0c0-0.9-0.2-1.4-0.4-1.7c0.2-0.3,0.4-0.8,0.4-1.7
			c0-0.7-0.1-1.3-0.3-1.6c0,0,0,0,0-0.1l0-0.1l0-0.1c0,0,0.1,0,0.1-0.1c0.2-0.3,0.3-0.9,0.3-1.7c0-0.9-0.1-1.5-0.3-1.8
			c0.2-0.3,0.4-0.9,0.4-1.9c0-0.8-0.1-1.4-0.3-1.7c0,0-0.1-0.1-0.1-0.1l0,0l0.1,0l0-0.2c0.2-0.2,0.4-0.7,0.4-1.9
			c0-1-0.2-1.6-0.3-1.9c0.2-0.3,0.4-0.9,0.4-1.9c0-0.8-0.1-1.3-0.3-1.5c0,0-0.1,0-0.1-0.1l0-0.4c0,0,0.1,0,0.1-0.1
			c0.2-0.3,0.4-1,0.4-1.9c0-0.8-0.1-1.4-0.3-1.8c0.1-0.4,0.3-1,0.3-1.9c0-0.9-0.1-1.5-0.3-1.8c0-0.1-0.1-0.1-0.1-0.1l0-0.6
			c0.2-0.3,0.4-0.9,0.4-2c0-0.7-0.1-1.2-0.2-1.5c0.1-0.3,0.2-0.9,0.3-1.9c0-0.9-0.1-1.5-0.3-1.8c0,0-0.1-0.1-0.1-0.1
			c0.2-0.2,0.3-0.8,0.3-1.7c0-1.1-0.1-1.7-0.3-2.1c0.2-0.3,0.4-0.8,0.4-1.9c0-1.2-0.2-1.7-0.4-1.9l0-0.2c0,0,0,0,0.1,0
			c0.2-0.3,0.3-0.8,0.3-1.6c0-1-0.2-1.6-0.3-1.9c0.2-0.4,0.3-1,0.4-2.3C409.1,617.1,409,616.6,408.8,616.4z M408.1,646.6l-2,0.2
			l0-1.3l2-1.1L408.1,646.6z M408.3,632.2l-2,1.1l0-1.2l2-0.2L408.3,632.2z M408.2,636l-2,1.1l0-1.1l2-0.2L408.2,636z M405.9,648.9
			l-2,1.1l0-1.8l2-0.2L405.9,648.9z M406.2,647.9l1.8-0.2l-1.8,1L406.2,647.9z M407.9,655.1c0,0,0.1,0,0.1,0l0,3c0,0,0,0,0,0l0,0
			l-1.9,0.2l0-2.2L407.9,655.1L407.9,655.1z M403.8,665l2-1.1l0,1.8l-2,0.2L403.8,665z M403.5,665.9l-1.6,0.2l1.7-0.9L403.5,665.9z
			 M405.8,655.3l0,0.5l-2,1.1l0-1.4L405.8,655.3z M405.8,656.2l0,2.1l-2,0.2l0-1.2L405.8,656.2z M401.6,659.7l2-0.2l0,1.8l-2,1.1
			L401.6,659.7z M402.4,662.3l1.1-0.6l0,0.5L402.4,662.3z M405.7,662.7l0,0.7l-2,1.1l0-1.6L405.7,662.7z M406,662.7l1.2-0.1
			l-1.2,0.7L406,662.7z M406,663.7l2-1.1l0,2.8c0,0,0,0-0.1,0l-1.9,0.2L406,663.7z M403.8,662.2l0-0.6l2-1.1l0,1.5L403.8,662.2z
			 M403.8,661.1l0-1.7l2-0.2l0,0.8L403.8,661.1z M406.1,659.2l1.4-0.1l-1.4,0.8L406.1,659.2z M406.1,655.6l0-0.3l0.7-0.1
			L406.1,655.6z M403.9,654.7l0-1.1l2-1.1l0,2L403.9,654.7z M403.9,653.2l0-1.5l2-0.2l0,0.6L403.9,653.2z M402.8,651.1l0.8-0.4
			l0,0.4L402.8,651.1z M406.1,651.4l1-0.1l-1,0.6L406.1,651.4z M403.9,650.9l0-0.5l2-1.1l0,1.4L403.9,650.9z M403.9,647.7l0-0.2
			l2-0.2l0,0.2L403.9,647.7z M401.7,644.4l2-0.2l0,2.2l-1.3,0.7l-0.6,0.1L401.7,644.4z M403.7,643.6l0,0.2l-1.4,0.1l0.4-0.2
			L403.7,643.6z M403.7,646.9l0,0.1l-0.2,0L403.7,646.9z M402.4,647.6l1.2-0.1l0,0.2l-1.6,0.2L402.4,647.6z M403.9,647l0-0.2l2-1.1
			l0,1.1L403.9,647z M403.9,646.3l0-2.1l2-0.2l0,1.2L403.9,646.3z M406.2,644l2-0.2l0,0.2l-2,1.1L406.2,644z M408.2,643.3l-2,0.2
			l0-0.2l1.9-0.2c0,0,0,0,0,0L408.2,643.3C408.2,643.3,408.2,643.3,408.2,643.3z M405.9,643.5l-2,0.2l0-0.2l2-0.2L405.9,643.5z
			 M404,643.1l0-0.1l2-1.1l0,1L404,643.1z M404,642.5l0-2.3l2-0.2l0,1.4L404,642.5z M404,639.7l0-0.2l2-0.2l0,0.2L404,639.7z
			 M403.8,635.6l0,0.2l-1.4,0.1l0.4-0.2L403.8,635.6z M402.4,639.2l-0.6,0.1l0-2.8l2-0.2l0,2.2L402.4,639.2z M403.7,639l0,0.1
			l-0.3,0L403.7,639z M402.5,639.7l1.3-0.1l0,0.2l-1.6,0.2L402.5,639.7z M404,639.1l0-0.2l2-1.1l0,1.1L404,639.1z M404,638.3l0-2.1
			l2-0.2l0,1.2L404,638.3z M408.2,635.4l-2,0.2l0-0.2l1.9-0.2c0,0,0,0,0,0L408.2,635.4z M406,635.6l-2,0.2l0-0.2l2-0.2L406,635.6z
			 M404,635.1l0-0.1l2-1.1l0,1L404,635.1z M404.1,634.5l0-2.2l2-0.2l0,1.3L404.1,634.5z M403.5,631.7l0.3-0.2l0,0.1L403.5,631.7z
			 M404.1,631.6l0-0.3l2-1.1l0,1.1L404.1,631.6z M404.1,630.9l0-2.3l2-0.2l0,1.4L404.1,630.9z M402,617.6l2-0.2l0,1.8l-2,1.1
			L402,617.6z M402.6,620.5l1.3-0.7l0,0.6L402.6,620.5z M403.9,621.1l0,2.1l-1.5,0.8l-0.5,0l0-2.8L403.9,621.1z M403.5,623.9
			l0.4-0.2l0,0.2L403.5,623.9z M403.9,624.7l0,2.6l-1.1,0.6l-0.9,0.1l0-3.1L403.9,624.7z M404.1,627.8l0-0.1l2-1.1l0,1L404.1,627.8z
			 M404.1,627.2l0-2.5l2-0.2l0,1.6L404.1,627.2z M406.4,624.5l2-0.2l0,0.5l-2,1.1L406.4,624.5z M404.1,623.8l0-0.3l2-1.1l0,1.2
			L404.1,623.8z M404.2,623l0-2l2-0.2l0,1.1L404.2,623z M406.4,620.8l2-0.2l0,0l-2,1.1L406.4,620.8z M404.2,620.3l0-0.7l2-1.1l0,1.6
			L404.2,620.3z M404.2,619.1l0-1.7l2-0.2l0,0.8L404.2,619.1z M406.5,617.2l1.5-0.1l-1.5,0.8L406.5,617.2z M402.3,628.7l1.6-0.2
			l0,2.5l-1.3,0.7l-0.6,0.1l0-2.9L402.3,628.7z M401.8,632.6l0.1-0.1l1.8-0.2l0,2.3l-1.1,0.6l-0.9,0.1L401.8,632.6z M401.4,636.6
			C401.5,636.6,401.5,636.5,401.4,636.6l0,2.7c0,0-0.1,0.1-0.1,0.2c-0.1-0.2-0.2-0.7-0.2-1.4C401.2,637.1,401.4,636.7,401.4,636.6z
			 M401.8,640.4l2-0.2l0,2.5l-1.1,0.6l-0.9,0.1L401.8,640.4z M401.4,647.3L401.4,647.3L401.4,647.3c-0.1,0-0.1,0.1-0.2,0.1
			c-0.1-0.2-0.1-0.6-0.1-1.1c0-0.9,0.2-1.3,0.3-1.6L401.4,647.3z M401.7,648.3l2-0.2l0,2l-1.9,1l-0.1,0L401.7,648.3z M401.7,651.9
			l2-0.2l0,1.6l-2,1.1L401.7,651.9z M403.6,653.8l0,1l-2,0.2l0-0.1L403.6,653.8z M401.6,655.7l2-0.2l0,1.5l-2,1.1L401.6,655.7z
			 M403.6,657.5l0,1.1l-2,0.2l0-0.2L403.6,657.5z M401.6,663.1l2-0.2l0,1.7l-2,1.1L401.6,663.1z M408,661.8l-2,0.2l0-1.6l2-1.1
			L408,661.8z M408.1,654.3l-2,0.2l0-2.1l2-1.1L408.1,654.3z M408.1,650.5l-2,0.2l0-1.5l2-1.1L408.1,650.5z M408.1,647.3l-1.9,0.2
			l0-0.2l2-0.2L408.1,647.3C408.1,647.3,408.1,647.2,408.1,647.3z M408.1,642.7l-1.9,0.2l0-1.2l2-1.1L408.1,642.7
			C408.1,642.7,408.1,642.7,408.1,642.7z M408.2,640.2l-2,1.1l0-1.3l2-0.2L408.2,640.2z M406.2,639.5l0-0.2l2-0.2l0,0.2L406.2,639.5
			z M408.2,638.6C408.2,638.6,408.2,638.6,408.2,638.6l-2,0.2l0-1.3l2-1.1L408.2,638.6z M408.2,634.7l-2,0.2l0-1.2l2-1.1
			L408.2,634.7C408.2,634.7,408.2,634.7,408.2,634.7z M408.3,631.2l-2,0.2l0-1.3l2-1.1L408.3,631.2z M406.3,629.6l0-1.3l1.9-0.2
			c0,0,0,0,0,0l0,0.4L406.3,629.6z M408.3,627.4L408.3,627.4l-1.9,0.2l0-1.1l2-1.1L408.3,627.4C408.3,627.4,408.3,627.4,408.3,627.4
			z M408.3,623.4L408.3,623.4l-2,0.2l0-1.3l2-1.1L408.3,623.4z M408.4,619.9l-2,0.2l0-1.8l2-1.1L408.4,619.9z M401.7,617.7l0,2.7
			c0,0,0,0,0,0c-0.1-0.2-0.2-0.7-0.2-1.3C401.4,618.3,401.6,617.9,401.7,617.7z M401.7,621.3l0,2.9c0,0,0,0,0,0
			c-0.1-0.2-0.2-0.7-0.2-1.5C401.4,621.8,401.5,621.5,401.7,621.3z M401.3,626.4c0-0.8,0.1-1.2,0.3-1.5l0.1,0l0,2.9c0,0,0,0-0.1-0.1
			C401.4,627.5,401.3,627.1,401.3,626.4z M401.5,629.1l0.1-0.1l0,2.8c-0.1-0.3-0.3-0.7-0.2-1.5C401.3,629.8,401.4,629.4,401.5,629.1
			z M401.4,635.3c-0.1-0.1-0.2-0.4-0.2-1.1c0-0.6,0.1-1.1,0.2-1.3l0.1-0.1l0,2.6C401.5,635.3,401.5,635.3,401.4,635.3z M401.2,641.9
			c0-0.7,0.1-1.2,0.2-1.6c0,0,0,0,0.1,0l0,3C401.4,643.3,401.2,642.9,401.2,641.9z M401.1,649.7c0-0.7,0.1-1.1,0.1-1.4l0.1-0.1
			c0,0,0.1,0,0.1,0.1l0,2.9l0,0C401.3,651.2,401.1,650.9,401.1,649.7z M401.2,653.2c0-1.1,0.2-1.3,0.2-1.4c0,0,0,0,0,0l0,2.7l-0.1,0
			C401.2,654.3,401.1,653.9,401.2,653.2z M401.1,657.2c0-0.9,0.1-1.3,0.3-1.5l0,2.6l-0.2,0.1C401.1,658.1,401.1,657.7,401.1,657.2z
			 M401.2,659.7C401.3,659.7,401.3,659.7,401.2,659.7l0,2.7c0,0,0,0,0,0c-0.1-0.2-0.3-0.6-0.2-1.5
			C401,660.1,401.2,659.8,401.2,659.7z M401,665.1c0-1.1,0.2-1.7,0.3-2l0,2.7L401,666C401,665.8,401,665.6,401,665.1z M408.4,664
			c0,0.4-0.1,0.8-0.1,1l0-1.9C408.3,663.3,408.4,663.6,408.4,664z M408.3,661.4l0-2.2c0.1,0.3,0.1,0.6,0.1,1.1
			C408.4,660.9,408.3,661.2,408.3,661.4z M408.5,656.7c0,0.6-0.1,1-0.2,1.3l0-2.4C408.4,655.8,408.5,656.2,408.5,656.7z
			 M408.3,653.8l0-2.1c0.1,0.3,0.1,0.6,0.1,1C408.5,653.2,408.4,653.5,408.3,653.8z M408.5,648.9c0,0.6-0.1,0.9-0.2,1.2l0-2.2l0,0
			C408.5,648.1,408.6,648.4,408.5,648.9z M408.4,646.3l0-2l0.1,0l0-0.2l0-0.5c0.1,0.2,0.2,0.7,0.1,1.3
			C408.6,645.6,408.5,646.1,408.4,646.3z M408.6,641.2c0,0.5-0.1,0.9-0.1,1.2l0-2l0.1,0l0-0.2l0-0.2
			C408.5,640.3,408.6,640.6,408.6,641.2z M408.5,637.9l0-1.6l0,0l0-0.2l0-0.4c0,0,0,0,0,0c0.1,0.2,0.1,0.6,0.1,1.1
			C408.6,637.3,408.6,637.6,408.5,637.9z M408.5,634.9l0-2.4l0.1,0l0-0.2l0-0.2c0.1,0.2,0.2,0.6,0.1,1.3
			C408.7,634.2,408.6,634.6,408.5,634.9z M408.6,630.8l0-1.9l0,0c0,0.3,0.1,0.6,0,1C408.6,630.3,408.6,630.6,408.6,630.8z
			 M408.7,625.9c0,0.5-0.1,0.8-0.1,1.1l0-1.8l0,0l0-0.2l0-0.2C408.7,625,408.7,625.4,408.7,625.9z M408.8,622.1c0,0.5-0.1,0.8-0.1,1
			l0-2.1C408.7,621.3,408.8,621.6,408.8,622.1z M408.7,619.4l0-2.3l0,0l0-0.2l0,0c0,0,0.1,0.2,0.1,1.1
			C408.8,618.6,408.7,619,408.7,619.4z"/>
		<path fill="#6C6361" d="M409.3,563.8l0.2-0.2l-0.1-0.4l-0.2,0.2l0-0.8l-0.3,0l0,1l-2,0.2l0-1l-0.3,0l0,1l-2,0.2l0-1l-0.3,0l0,1
			l-2,0.2l0-1l-0.3,0l0,1.1c-0.1-0.2-0.3-0.5-0.3-1.3l-0.3,0c0,0.9,0.2,1.4,0.4,1.7c-0.2,0.3-0.3,0.8-0.4,1.7c0,0.7,0.1,1.2,0.3,1.5
			l-0.3,0.1l0.1,0.4l0.1-0.1c-0.2,0.3-0.3,0.9-0.3,1.6c0,0.9,0.1,1.5,0.3,1.8l-0.3,0.2l0.1,0.4c-0.1,0.3-0.2,0.8-0.2,1.4
			c0,0.8,0.1,1.3,0.3,1.7c0.1,0.1,0.1,0.2,0.2,0.2c-0.1,0-0.2,0.2-0.3,0.4l-0.2,0.1l0.1,0.3c-0.1,0.3-0.1,0.7-0.1,1.2
			c0,1,0.2,1.6,0.3,1.9c0,0.1-0.1,0.1-0.1,0.2l-0.2,0.1l0.1,0.3c-0.1,0.3-0.2,0.7-0.2,1.3c0,0.8,0.1,1.3,0.3,1.5
			c0.1,0.1,0.2,0.2,0.3,0.2l0,0.1l-0.5,0.3l0.1,0.4c-0.1,0.4-0.2,0.9-0.2,1.6c0,0.8,0.1,1.3,0.2,1.7l-0.2,0.1l0.1,0.4
			c-0.1,0.4-0.1,0.8-0.1,1.4c0,0.9,0.1,1.5,0.3,1.8c0.1,0.2,0.2,0.2,0.2,0.2l0,0.1l-0.5,0.3l0.1,0.4l0.1-0.1
			c-0.1,0.3-0.3,0.9-0.3,1.7c0,0.7,0.1,1.2,0.2,1.5c0,0,0,0.1,0,0.2l-0.1,0.1l0,0.2c-0.1,0.4-0.1,0.9-0.2,1.6c0,0.9,0.1,1.5,0.3,1.8
			c0,0,0,0,0,0l-0.2,0.1l0.1,0.4c-0.1,0.3-0.1,0.7-0.1,1.2c0,0.7,0.1,1.2,0.1,1.5l-0.1,0.1l0.1,0.4l0.2-0.1c0,0,0,0.1,0,0.1
			c-0.2,0.3-0.4,0.8-0.4,1.9c0,0.6,0,1,0.1,1.3l-0.1,0l0.1,0.4l0.1-0.1c0.1,0.2,0.2,0.3,0.3,0.3l0,0c-0.1,0-0.1,0.1-0.2,0.2
			c-0.2,0.3-0.3,0.8-0.3,1.6c0,0.9,0.1,1.4,0.2,1.7l-0.2,0.1l0.1,0.4l0.1,0c-0.1,0.4-0.2,1-0.2,1.9c0,0.5,0,0.8,0.1,1l0,0l0.1,0.4
			l0.1,0c0,0,0,0,0,0.1l-0.2,0.2l0.1,0.4l0.4-0.3l0,1.4l0.3,0l0-1.5l2-0.2l0,1.5l0.3,0l0-1.5l2-0.2l0,1.5l0.3,0l0-1.5l1.8-0.2
			c0,0,0.1,0,0.1-0.1l0,1.5l0.3,0l0-1.3c0.1,0.2,0.2,0.6,0.2,1.1l0.3,0c0-0.9-0.2-1.4-0.4-1.7c0.2-0.3,0.3-0.8,0.4-1.7
			c0-0.7-0.1-1.3-0.3-1.6c0,0,0,0,0-0.1l0-0.1l0-0.1c0,0,0.1,0,0.1-0.1c0.2-0.3,0.3-0.9,0.3-1.7c0-0.9-0.1-1.5-0.3-1.8
			c0.2-0.3,0.4-0.9,0.4-1.9c0-0.8-0.1-1.4-0.3-1.7c0,0-0.1-0.1-0.1-0.1l0,0l0,0l0-0.2c0.2-0.2,0.4-0.7,0.4-1.9c0-1-0.2-1.6-0.3-1.9
			c0.2-0.3,0.4-0.9,0.4-1.9c0-0.8-0.1-1.3-0.3-1.5c0,0-0.1,0-0.1-0.1l0-0.4c0,0,0.1,0,0.1-0.1c0.2-0.3,0.4-1,0.4-2
			c0-0.8-0.1-1.4-0.3-1.8c0.1-0.4,0.3-1,0.3-1.9c0-0.9-0.1-1.5-0.3-1.8c0-0.1-0.1-0.1-0.1-0.1l0-0.5c0.2-0.3,0.4-0.9,0.4-2
			c0-0.7-0.1-1.2-0.2-1.5c0.1-0.3,0.2-0.9,0.3-1.9c0-0.9-0.1-1.5-0.3-1.8c0,0-0.1-0.1-0.1-0.1c0.2-0.2,0.3-0.8,0.3-1.7
			c0-1.1-0.1-1.7-0.3-2.1c0.2-0.3,0.4-0.8,0.4-1.9c0-1.2-0.2-1.7-0.4-1.9l0-0.2c0,0,0,0,0.1-0.1c0.2-0.3,0.3-0.8,0.3-1.6
			c0-1-0.2-1.6-0.3-1.9c0.2-0.4,0.3-1,0.4-2.3C409.6,564.4,409.5,564,409.3,563.8z M408.6,593.9l-2,0.2l0-1.3l2-1.1L408.6,593.9z
			 M408.8,579.5l-2,1.1l0-1.2l2-0.2L408.8,579.5z M408.7,583.3l-2,1.1l0-1l2-0.2L408.7,583.3z M406.4,596.2l-2,1.1l0-1.8l2-0.2
			L406.4,596.2z M406.7,595.2l1.8-0.2l-1.8,1L406.7,595.2z M408.4,602.4C408.4,602.4,408.4,602.4,408.4,602.4c0,0,0.1,0,0.1,0l0,3
			c0,0,0,0,0,0l0,0l-1.9,0.2l0-2.3L408.4,602.4L408.4,602.4z M404.3,612.3l2-1.1l0,1.8l-2,0.2L404.3,612.3z M404,613.2l-1.7,0.2
			l1.7-0.9L404,613.2z M406.3,602.6l0,0.5l-2,1.1l0-1.4L406.3,602.6z M406.3,603.6l0,2.1l-2,0.2l0-1.2L406.3,603.6z M402.1,607
			l2-0.2l0,1.8l-2,1.1L402.1,607z M403,609.7l1-0.6l0,0.5L403,609.7z M406.2,610.1l0,0.7l-2,1.1l0-1.6L406.2,610.1z M406.5,610
			l1.2-0.1l-1.2,0.7L406.5,610z M406.5,611.1l2-1.1l0,2.8c0,0,0,0-0.1,0l-1.9,0.2L406.5,611.1z M404.3,609.5l0-0.6l2-1.1l0,1.5
			L404.3,609.5z M404.3,608.4l0-1.7l2-0.2l0,0.8L404.3,608.4z M406.5,606.6l1.4-0.1l-1.4,0.8L406.5,606.6z M406.6,602.9l0-0.3
			l0.7-0.1L406.6,602.9z M404.4,602.1l0-1.1l2-1.1l0,2L404.4,602.1z M404.4,600.5l0-1.5l2-0.2l0,0.6L404.4,600.5z M403.3,598.4
			l0.8-0.5l0,0.4L403.3,598.4z M406.6,598.8l1-0.1l-1,0.6L406.6,598.8z M404.4,598.3l0-0.5l2-1.1l0,1.4L404.4,598.3z M404.4,595
			l0-0.2l2-0.2l0,0.2L404.4,595z M402.2,591.8l2-0.2l0,2.2l-1.3,0.7l-0.6,0.1L402.2,591.8z M404.2,590.9l0,0.2l-1.4,0.1l0.4-0.2
			L404.2,590.9z M404.1,594.3l0,0.1l-0.2,0L404.1,594.3z M402.9,595l1.3-0.1l0,0.2l-1.6,0.2L402.9,595z M404.4,594.4l0-0.2l2-1.1
			l0,1.1L404.4,594.4z M404.4,593.6l0-2.1l2-0.2l0,1.2L404.4,593.6z M406.7,591.3l2-0.2l0,0.2l-2,1.1L406.7,591.3z M408.6,590.7
			l-2,0.2l0-0.2l1.9-0.2c0,0,0,0,0,0c0,0,0,0,0,0L408.6,590.7C408.6,590.7,408.6,590.7,408.6,590.7z M406.4,590.9l-2,0.2l0-0.2
			l2-0.2L406.4,590.9z M404.5,590.4l0-0.1l2-1.1l0,1L404.5,590.4z M404.5,589.8l0-2.3l2-0.2l0,1.4L404.5,589.8z M404.5,587l0-0.2
			l2-0.2l0,0.2L404.5,587z M404.2,583l0,0.2l-1.4,0.1l0.4-0.2L404.2,583z M402.9,586.6l-0.6,0.1l0-2.8l2-0.2l0,2.2L402.9,586.6z
			 M404.2,586.3l0,0.1l-0.3,0L404.2,586.3z M402.9,587l1.3-0.1l0,0.2l-1.6,0.2L402.9,587z M404.5,586.4l0-0.3l2-1.1l0,1.2
			L404.5,586.4z M404.5,585.6l0-2.1l2-0.2l0,1.2L404.5,585.6z M408.7,582.7l-2,0.2l0-0.2l1.9-0.2c0,0,0,0,0,0L408.7,582.7z
			 M406.5,582.9l-2,0.2l0-0.2l2-0.2L406.5,582.9z M404.5,582.5l0-0.1l2-1.1l0,1L404.5,582.5z M404.5,581.9l0-2.2l2-0.2l0,1.3
			L404.5,581.9z M404,579l0.3-0.2l0,0.1L404,579z M404.6,578.9l0-0.3l2-1.1l0,1.1L404.6,578.9z M404.6,578.2l0-2.3l2-0.2l0,1.4
			L404.6,578.2z M402.5,564.9l2-0.2l0,1.8l-2,1.1L402.5,564.9z M403,567.8l1.4-0.8l0,0.6L403,567.8z M404.4,568.4l0,2.1l-1.5,0.8
			l-0.5,0l0-2.8L404.4,568.4z M403.9,571.2l0.4-0.2l0,0.2L403.9,571.2z M404.3,572.1l0,2.6l-1.1,0.6l-0.9,0.1l0-3.1L404.3,572.1z
			 M404.6,575.1l0-0.1l2-1.1l0,1L404.6,575.1z M404.6,574.5l0-2.5l2-0.2l0,1.6L404.6,574.5z M406.9,571.8l2-0.2l0,0.5l-2,1.1
			L406.9,571.8z M404.6,571.1l0-0.3l2-1.1l0,1.2L404.6,571.1z M404.6,570.3l0-2l2-0.2l0,1.1L404.6,570.3z M406.9,568.2l2-0.2l0,0
			l-2,1.1L406.9,568.2z M404.7,567.7l0-0.8l2-1.1l0,1.7L404.7,567.7z M404.7,566.4l0-1.7l2-0.2l0,0.8L404.7,566.4z M406.9,564.5
			l1.5-0.1l-1.5,0.8L406.9,564.5z M402.8,576l1.6-0.2l0,2.5l-1.3,0.7l-0.6,0.1l0-2.9L402.8,576z M402.3,579.9l0.1-0.1l1.8-0.2l0,2.3
			l-1.1,0.6l-0.9,0.1L402.3,579.9z M402,583.9l0,2.8l0,0c0,0-0.1,0.1-0.1,0.2c-0.1-0.2-0.2-0.7-0.2-1.4
			C401.7,584.3,401.9,584,402,583.9z M402.2,587.7l2-0.2l0,2.5l-1.1,0.6l-0.9,0.1L402.2,587.7z M401.9,594.6L401.9,594.6
			L401.9,594.6c-0.1,0-0.1,0.1-0.2,0.1c-0.1-0.2-0.1-0.6-0.1-1.1c0-0.9,0.2-1.4,0.3-1.6L401.9,594.6z M402.2,595.7l2-0.2l0,2
			l-1.9,1.1l-0.1,0L402.2,595.7z M402.1,599.2l2-0.2l0,1.6l-2,1.1L402.1,599.2z M404.1,601.1l0,1l-2,0.2l0-0.1L404.1,601.1z
			 M402.1,603l2-0.2l0,1.5l-2,1.1L402.1,603z M404,604.8l0,1.1l-2,0.2l0-0.2L404,604.8z M402,610.5l2-0.2l0,1.7l-2,1.1L402,610.5z
			 M408.5,609.1l-2,0.2l0-1.6l2-1.1L408.5,609.1z M408.5,601.7l-2,0.2l0-2.1l2-1.1L408.5,601.7z M408.6,597.9l-2,0.2l0-1.5l2-1.1
			L408.6,597.9z M408.6,594.6l-1.9,0.2l0-0.2l2-0.2L408.6,594.6C408.6,594.6,408.6,594.6,408.6,594.6z M408.6,590l-1.9,0.2l0-1.2
			l2-1.1L408.6,590C408.6,590,408.6,590,408.6,590z M408.7,587.5l-2,1.1l0-1.3l2-0.2L408.7,587.5z M406.7,586.8l0-0.2l2-0.2l0,0.2
			L406.7,586.8z M408.7,585.9C408.7,586,408.7,586,408.7,585.9l-2,0.2l0-1.3l2-1.1L408.7,585.9z M408.7,582.1l-2,0.2l0-1.2l2-1.1
			L408.7,582.1C408.7,582.1,408.7,582.1,408.7,582.1z M408.8,578.5l-2,0.2l0-1.3l2-1.1L408.8,578.5z M406.8,576.9l0-1.3l1.9-0.2
			c0,0,0,0,0,0l0,0.4L406.8,576.9z M408.8,574.7L408.8,574.7l-1.9,0.2l0-1.1l2-1.1L408.8,574.7C408.8,574.7,408.8,574.7,408.8,574.7
			z M408.8,570.7L408.8,570.7l-2,0.2l0-1.3l2-1.1L408.8,570.7z M408.9,567.3l-2,0.2l0-1.8l2-1.1L408.9,567.3z M402.2,565l0,2.7
			c0,0,0,0,0,0c-0.2-0.2-0.2-0.7-0.2-1.3C401.9,565.7,402,565.2,402.2,565z M402.1,568.7C402.1,568.7,402.1,568.7,402.1,568.7l0,2.8
			c0,0,0,0,0,0c-0.1-0.2-0.2-0.7-0.2-1.5C401.9,569.2,402,568.9,402.1,568.7z M401.8,573.8c0-0.8,0.1-1.2,0.3-1.5l0.1,0l0,3
			c0,0,0,0-0.1-0.1C401.9,574.9,401.8,574.4,401.8,573.8z M402,576.5l0.1-0.1l0,2.8c-0.1-0.2-0.3-0.7-0.3-1.5
			C401.8,577.1,401.9,576.7,402,576.5z M401.9,582.6c-0.1-0.1-0.2-0.4-0.2-1.2c0-0.6,0.1-1.1,0.2-1.3l0.1-0.1l0,2.6
			C402,582.7,401.9,582.7,401.9,582.6z M401.7,589.2c0-0.7,0.1-1.2,0.2-1.6c0,0,0,0,0.1,0l0,3C401.8,590.6,401.7,590.3,401.7,589.2z
			 M401.6,597c0-0.7,0.1-1.1,0.1-1.4l0.1-0.1c0,0,0.1,0.1,0.1,0.1l0,2.9l0,0C401.8,598.5,401.6,598.2,401.6,597z M401.6,600.6
			c0-1.1,0.2-1.3,0.2-1.4c0,0,0,0,0,0l0,2.7l-0.1,0C401.7,601.6,401.6,601.2,401.6,600.6z M401.6,604.5c0-0.9,0.1-1.3,0.3-1.5l0,2.6
			l-0.2,0.1C401.6,605.4,401.5,605,401.6,604.5z M401.7,607.1C401.8,607,401.8,607,401.7,607.1l0,2.7c0,0,0,0,0,0
			c-0.1-0.2-0.3-0.6-0.2-1.5C401.5,607.5,401.7,607.2,401.7,607.1z M401.5,612.5c0-1.1,0.2-1.7,0.3-2l0,2.7l-0.2,0.1
			C401.5,613.2,401.5,612.9,401.5,612.5z M408.9,611.3c0,0.4-0.1,0.8-0.1,1l0-1.9C408.8,610.6,408.9,610.9,408.9,611.3z
			 M408.8,608.8l0-2.2c0.1,0.3,0.1,0.6,0.1,1.1C408.9,608.2,408.8,608.6,408.8,608.8z M409,604c0,0.6-0.1,1-0.2,1.2l0-2.3
			C408.9,603.2,409,603.5,409,604z M408.8,601.1l0-2.1c0.1,0.3,0.1,0.6,0.1,1.1C409,600.5,408.9,600.9,408.8,601.1z M409,596.3
			c0,0.6-0.1,0.9-0.2,1.2l0-2.2l0,0C409,595.4,409,595.7,409,596.3z M408.9,593.6l0-2l0.1,0l-0.1-0.2l0-0.5c0.1,0.2,0.2,0.7,0.2,1.3
			C409.1,593,409,593.4,408.9,593.6z M409.1,588.5c0,0.5-0.1,0.9-0.1,1.2l0-2l0,0l0-0.2l0-0.2C409,587.6,409.1,588,409.1,588.5z
			 M409,585.2l0-1.6l0,0l0-0.2l0-0.3c0,0,0,0,0,0c0.1,0.2,0.1,0.6,0.1,1.1C409.1,584.6,409,585,409,585.2z M409,582.3l0-2.4l0.1,0
			l-0.1-0.2l0-0.2c0.1,0.2,0.2,0.6,0.1,1.3C409.2,581.5,409.1,582,409,582.3z M409,578.1l0-1.9l0,0c0,0.3,0.1,0.6,0,1
			C409.1,577.6,409.1,577.9,409,578.1z M409.2,573.2c0,0.5-0.1,0.8-0.1,1.1l0-1.8l0,0l0-0.2l0-0.2
			C409.2,572.3,409.2,572.7,409.2,573.2z M409.2,569.5c0,0.4-0.1,0.7-0.1,0.9l0-2.1l0,0C409.2,568.6,409.2,568.9,409.2,569.5z
			 M409.1,566.7l0-2.3l0,0l0-0.2l0,0c0,0,0.1,0.2,0.1,1.1C409.3,565.9,409.2,566.4,409.1,566.7z"/>
		<path fill="#6C6361" d="M409.8,511.1l0.2-0.2l-0.1-0.4l-0.2,0.2l0-0.8l-0.3,0l0,1l-2,0.2l0-1l-0.3,0l0,1l-2,0.2l0-1l-0.3,0l0,1
			l-2,0.2l0-1l-0.3,0l0,1.1c-0.1-0.2-0.3-0.5-0.3-1.3l-0.3,0c0,0.9,0.2,1.4,0.4,1.7c-0.2,0.3-0.3,0.8-0.4,1.7c0,0.7,0.1,1.2,0.3,1.5
			l-0.3,0.1l0.1,0.4l0.1-0.1c-0.2,0.3-0.3,0.8-0.3,1.6c0,0.9,0.1,1.5,0.3,1.8c0,0,0,0,0,0l-0.3,0.1l0.1,0.3
			c-0.1,0.3-0.2,0.8-0.2,1.4c0,0.8,0.1,1.4,0.3,1.7c0.1,0.1,0.1,0.2,0.2,0.2c-0.1,0.1-0.2,0.2-0.3,0.4l-0.2,0.1l0.1,0.3
			c-0.1,0.3-0.1,0.7-0.1,1.2c0,1,0.2,1.6,0.3,1.9c0,0.1-0.1,0.1-0.1,0.2l-0.2,0.1l0.1,0.3c-0.1,0.3-0.2,0.7-0.2,1.3
			c0,0.8,0.1,1.3,0.3,1.5c0.1,0.1,0.2,0.2,0.3,0.2l0,0.1l-0.5,0.3l0.1,0.4c-0.1,0.4-0.2,0.9-0.2,1.6c0,0.8,0.1,1.3,0.3,1.7l-0.2,0.1
			l0.1,0.4c-0.1,0.4-0.1,0.8-0.1,1.5c0,0.9,0.1,1.5,0.3,1.8c0.1,0.2,0.2,0.2,0.2,0.2l0,0.1l-0.5,0.3l0.1,0.4l0.1-0.1
			c-0.1,0.3-0.3,0.9-0.3,1.7c0,0.7,0.1,1.2,0.2,1.5c0,0,0,0.1,0,0.1l-0.1,0.1l0,0.2c-0.1,0.4-0.1,0.9-0.1,1.6c0,0.9,0.1,1.5,0.3,1.8
			c0,0,0,0,0,0l-0.2,0.1l0.1,0.4c-0.1,0.3-0.1,0.7-0.1,1.2c0,0.7,0.1,1.2,0.1,1.5l-0.1,0.1l0.1,0.4l0.2-0.1c0,0,0,0.1,0.1,0.1
			c-0.2,0.3-0.4,0.8-0.4,1.9c0,0.6,0,1,0.1,1.3l-0.1,0l0.1,0.4l0.1-0.1c0.1,0.2,0.2,0.3,0.3,0.3l0,0c-0.1,0-0.1,0.1-0.2,0.2
			c-0.2,0.3-0.3,0.8-0.3,1.6c0,0.9,0.1,1.4,0.2,1.7l-0.2,0.1l0.1,0.4l0.1,0c-0.1,0.4-0.2,1-0.2,2c0,0.5,0,0.8,0.1,1l0,0l0.1,0.4
			l0.1,0c0,0,0,0,0,0.1l-0.2,0.2l0.1,0.4l0.4-0.3l0,1.4l0.3,0l0-1.5l2-0.2l0,1.4l0.3,0l0-1.5l2-0.2l0,1.4l0.3,0l0-1.5l1.8-0.2
			c0,0,0.1,0,0.1-0.1l0,1.5l0.3,0l0-1.3c0.1,0.2,0.2,0.6,0.2,1.1l0.3,0c0-0.9-0.2-1.4-0.4-1.7c0.2-0.3,0.3-0.8,0.4-1.7
			c0-0.7-0.1-1.3-0.3-1.6c0,0,0,0,0-0.1l0-0.1l0-0.1c0,0,0.1,0,0.1-0.1c0.2-0.3,0.3-0.9,0.3-1.7c0-0.9-0.1-1.5-0.3-1.8
			c0.2-0.3,0.4-0.9,0.4-1.9c0-0.8-0.1-1.4-0.3-1.7c0,0-0.1-0.1-0.1-0.1l0,0l0,0l0-0.2c0.2-0.2,0.4-0.7,0.4-1.9c0-1-0.2-1.6-0.3-1.9
			c0.2-0.3,0.4-0.9,0.4-1.9c0-0.8-0.1-1.3-0.3-1.5c0,0-0.1,0-0.1-0.1l0-0.4c0,0,0.1,0,0.1-0.1c0.2-0.3,0.4-1,0.4-2
			c0-0.8-0.1-1.4-0.3-1.8c0.1-0.4,0.3-1,0.3-1.9c0-0.9-0.1-1.5-0.3-1.8c0-0.1-0.1-0.1-0.1-0.1l0-0.6c0.2-0.3,0.4-0.9,0.4-2
			c0-0.7-0.1-1.2-0.2-1.5c0.1-0.3,0.2-0.9,0.3-1.9c0-0.9-0.1-1.5-0.3-1.8c0,0-0.1-0.1-0.1-0.1c0.2-0.2,0.3-0.8,0.3-1.7
			c0-1.1-0.1-1.7-0.3-2.1c0.2-0.3,0.4-0.8,0.4-1.9c0-1.2-0.2-1.7-0.4-1.9l0-0.2c0,0,0,0,0.1,0c0.2-0.3,0.3-0.8,0.3-1.6
			c0-1-0.2-1.6-0.3-1.9c0.2-0.4,0.3-1,0.4-2.3C410,511.7,410,511.3,409.8,511.1z M409.1,541.3l-2,0.2l0-1.3l2-1.1L409.1,541.3z
			 M409.2,526.8l-2,1.1l0-1.2l2-0.2L409.2,526.8z M409.2,530.6l-2,1.1l0-1.1l2-0.2L409.2,530.6z M406.8,543.5l-2,1.1l0-1.8l2-0.2
			L406.8,543.5z M407.1,542.6l1.8-0.2l-1.8,1L407.1,542.6z M408.9,549.7c0,0,0.1,0,0.1,0l0,3.1c0,0,0,0,0,0l0,0L407,553l0-2.3
			L408.9,549.7L408.9,549.7z M404.7,559.7l2-1.1l0,1.8l-2,0.2L404.7,559.7z M404.5,560.6l-1.6,0.2l1.6-0.9L404.5,560.6z
			 M406.8,549.9l0,0.5l-2,1.1l0-1.4L406.8,549.9z M406.8,550.9l0,2.1l-2,0.2l0-1.2L406.8,550.9z M402.6,554.3l2-0.2l0,1.8l-2,1.1
			L402.6,554.3z M403.4,557l1.1-0.6l0,0.5L403.4,557z M406.7,557.4l0,0.7l-2,1.1l0-1.6L406.7,557.4z M407,557.4l1.2-0.1l-1.2,0.7
			L407,557.4z M407,558.4l2-1.1l0,2.8c0,0,0,0-0.1,0l-1.9,0.2L407,558.4z M404.8,556.9l0-0.6l2-1.1l0,1.5L404.8,556.9z M404.8,555.8
			l0-1.7l2-0.2l0,0.8L404.8,555.8z M407,553.9l1.4-0.1l-1.4,0.8L407,553.9z M407.1,550.2l0-0.3l0.7-0.1L407.1,550.2z M404.8,549.4
			l0-1.1l2-1.1l0,2L404.8,549.4z M404.8,547.8l0-1.5l2-0.2l0,0.6L404.8,547.8z M403.8,545.7l0.8-0.5l0,0.4L403.8,545.7z
			 M407.1,546.1l1-0.1l-1,0.6L407.1,546.1z M404.9,545.6l0-0.5l2-1.1l0,1.4L404.9,545.6z M404.9,542.3l0-0.2l2-0.2l0,0.2
			L404.9,542.3z M402.7,539.1l2-0.2l0,2.2l-1.3,0.7l-0.6,0.1L402.7,539.1z M404.7,538.3l0,0.2l-1.4,0.1l0.4-0.2L404.7,538.3z
			 M404.6,541.6l0,0.1l-0.3,0L404.6,541.6z M403.3,542.3l1.3-0.1l0,0.2l-1.7,0.2L403.3,542.3z M404.9,541.7l0-0.3l2-1.1l0,1.2
			L404.9,541.7z M404.9,540.9l0-2.1l2-0.2l0,1.2L404.9,540.9z M407.2,538.6l2-0.2l0,0.2l-2,1.1L407.2,538.6z M409.1,538l-2,0.2
			l0-0.2l1.9-0.2c0,0,0,0,0,0L409.1,538C409.1,538,409.1,538,409.1,538z M406.9,538.2l-2,0.2l0-0.2l2-0.2L406.9,538.2z M404.9,537.8
			l0-0.1l2-1.1l0,1L404.9,537.8z M404.9,537.2l0-2.3l2-0.2l0,1.4L404.9,537.2z M405,534.4l0-0.2l2-0.2l0,0.2L405,534.4z
			 M404.7,530.3l0,0.2l-1.4,0.1l0.4-0.2L404.7,530.3z M403.4,533.9l-0.6,0.1l0-2.8l2-0.2l0,2.2L403.4,533.9z M404.7,533.6l0,0.1
			l-0.2,0L404.7,533.6z M403.4,534.3l1.3-0.1l0,0.2l-1.6,0.2L403.4,534.3z M405,533.7l0-0.2l2-1.1l0,1.1L405,533.7z M405,533l0-2.1
			l2-0.2l0,1.2L405,533z M409.2,530l-2,0.2l0-0.2l1.9-0.2c0,0,0,0,0,0L409.2,530z M407,530.2l-2,0.2l0-0.2l2-0.2L407,530.2z
			 M405,529.8l0-0.1l2-1.1l0,1L405,529.8z M405,529.2l0-2.2l2-0.2l0,1.3L405,529.2z M404.5,526.3l0.3-0.2l0,0.1L404.5,526.3z
			 M405,526.3l0-0.3l2-1.1l0,1.2L405,526.3z M405,525.5l0-2.3l2-0.2l0,1.4L405,525.5z M402.9,512.3l2-0.2l0,1.8l-2,1.1L402.9,512.3z
			 M404.9,514.4l0,0.6l-1.4,0.1L404.9,514.4z M404.9,515.7l0,2.1l-1.5,0.8l-0.5,0l0-2.8L404.9,515.7z M404.4,518.5l0.4-0.2l0,0.2
			L404.4,518.5z M404.8,519.4l0,2.6l-1.1,0.6l-0.9,0.1l0-3.1L404.8,519.4z M405.1,522.5l0-0.1l2-1.1l0,1L405.1,522.5z M405.1,521.9
			l0-2.5l2-0.2l0,1.6L405.1,521.9z M407.3,519.2l2-0.2l0,0.5l-2,1.1L407.3,519.2z M405.1,518.5l0-0.3l2-1.1l0,1.2L405.1,518.5z
			 M405.1,517.7l0-2l2-0.2l0,1.1L405.1,517.7z M407.4,515.5l2-0.2l0,0l-2,1.1L407.4,515.5z M405.1,515l0-0.8l2-1.1l0,1.7L405.1,515z
			 M405.2,513.8l0-1.7l2-0.2l0,0.8L405.2,513.8z M407.4,511.8l1.5-0.1l-1.5,0.8L407.4,511.8z M403.2,523.4l1.5-0.2l0,2.5l-1.4,0.8
			l-0.6,0.1l0-2.9L403.2,523.4z M402.8,527.3l0.1-0.1l1.8-0.2l0,2.3l-1.1,0.6l-0.9,0.1L402.8,527.3z M402.4,531.3
			C402.4,531.2,402.5,531.2,402.4,531.3l0,2.7l0,0c0,0-0.1,0.1-0.1,0.2c-0.1-0.2-0.2-0.7-0.2-1.4
			C402.2,531.8,402.3,531.4,402.4,531.3z M402.7,535l2-0.2l0,2.5l-1.1,0.6l-0.9,0.1L402.7,535z M402.4,541.9L402.4,541.9
			L402.4,541.9c-0.1,0-0.1,0.1-0.2,0.1c-0.1-0.2-0.1-0.6-0.1-1.1c0-0.9,0.1-1.4,0.3-1.6L402.4,541.9z M402.7,543l2-0.2l0,2l-1.9,1.1
			l-0.1,0L402.7,543z M402.6,546.6l2-0.2l0,1.6l-2,1.1L402.6,546.6z M404.6,548.5l0,1l-2,0.2l0-0.1L404.6,548.5z M402.6,550.3l2-0.2
			l0,1.5l-2,1.1L402.6,550.3z M404.5,552.1l0,1.1l-2,0.2l0-0.2L404.5,552.1z M402.5,557.8l2-0.2l0,1.7l-2,1.1L402.5,557.8z
			 M409,556.4l-2,0.2l0-1.6l2-1.1L409,556.4z M409,549l-2,0.2l0-2.1l2-1.1L409,549z M409.1,545.2l-2,0.2l0-1.5l2-1.1L409.1,545.2z
			 M409,541.9l-1.9,0.2l0-0.2l2-0.2L409,541.9C409.1,541.9,409,541.9,409,541.9z M409.1,537.3l-1.9,0.2l0-1.1l2-1.1L409.1,537.3
			C409.1,537.3,409.1,537.3,409.1,537.3z M409.2,534.8l-2,1.1l0-1.3l2-0.2L409.2,534.8z M407.2,534.1l0-0.2l2-0.2l0,0.2L407.2,534.1
			z M409.2,533.3C409.2,533.3,409.1,533.3,409.2,533.3l-2,0.2l0-1.3l2-1.1L409.2,533.3z M409.2,529.4l-1.9,0.2l0-1.2l2-1.1
			L409.2,529.4C409.2,529.4,409.2,529.4,409.2,529.4z M409.2,525.8l-2,0.2l0-1.3l2-1.1L409.2,525.8z M407.3,524.3l0-1.3l1.9-0.2
			c0,0,0,0,0,0l0,0.4L407.3,524.3z M409.3,522.1L409.3,522.1l-1.9,0.2l0-1.1l2-1.1L409.3,522.1C409.3,522.1,409.3,522.1,409.3,522.1
			z M409.3,518.1L409.3,518.1l-2,0.2l0-1.3l2-1.1L409.3,518.1z M409.3,514.6l-2,0.2l0-1.8l2-1.1L409.3,514.6z M402.6,512.3l0,2.7
			c0,0,0,0,0,0c-0.2-0.2-0.2-0.7-0.2-1.3C402.4,513,402.5,512.6,402.6,512.3z M402.6,516l0,2.9c0,0,0,0,0,0
			c-0.1-0.2-0.2-0.7-0.2-1.5C402.3,516.5,402.5,516.1,402.6,516z M402.3,521.1c0-0.8,0.1-1.2,0.3-1.5l0.1,0l0,3c0,0,0,0-0.1-0.1
			C402.3,522.2,402.3,521.7,402.3,521.1z M402.4,523.8l0.1-0.1l0,2.8c-0.1-0.3-0.3-0.7-0.2-1.5C402.3,524.4,402.3,524.1,402.4,523.8
			z M402.4,530c-0.1-0.1-0.2-0.4-0.2-1.2c0-0.6,0.1-1,0.2-1.3l0.1-0.1l0,2.6C402.5,530,402.4,530,402.4,530z M402.2,536.5
			c0-0.7,0.1-1.2,0.2-1.6c0,0,0,0,0.1,0l0,3C402.3,537.9,402.2,537.6,402.2,536.5z M402.2,542.9L402.2,542.9c0.1,0,0.2,0,0.2,0
			l0,2.9l0,0c-0.1,0-0.3-0.3-0.3-1.5C402.1,543.7,402.1,543.2,402.2,542.9z M402.1,547.9c0-1.1,0.2-1.3,0.2-1.4c0,0,0,0,0,0l0,2.7
			l-0.1,0.1C402.2,549,402.1,548.5,402.1,547.9z M402,551.8c0-0.9,0.2-1.3,0.3-1.5l0,2.6l-0.2,0.1C402.1,552.7,402,552.4,402,551.8z
			 M402.2,554.4C402.2,554.4,402.3,554.4,402.2,554.4l0,2.7c0,0,0,0,0,0c-0.1-0.2-0.3-0.6-0.2-1.5
			C402,554.8,402.1,554.5,402.2,554.4z M402,559.8c0-1.1,0.2-1.7,0.3-2l0,2.7l-0.2,0.1C402,560.5,402,560.3,402,559.8z M409.3,558.6
			c0,0.4-0.1,0.8-0.1,1l0-1.9C409.3,558,409.3,558.3,409.3,558.6z M409.2,556.1l0-2.2c0.1,0.3,0.1,0.6,0.1,1.1
			C409.4,555.5,409.3,555.9,409.2,556.1z M409.4,551.3c0,0.6-0.1,1-0.2,1.2l0-2.3C409.4,550.5,409.5,550.8,409.4,551.3z
			 M409.3,548.4l0-2.1c0.1,0.3,0.1,0.6,0.1,1.1C409.4,547.9,409.4,548.2,409.3,548.4z M409.5,543.6c0,0.5-0.1,0.9-0.2,1.2l0-2.2l0,0
			C409.5,542.8,409.5,543.1,409.5,543.6z M409.4,540.9l0-2l0.1,0l0-0.2l0-0.5c0.1,0.2,0.2,0.7,0.1,1.3
			C409.5,540.3,409.5,540.7,409.4,540.9z M409.5,535.9c0,0.5-0.1,0.9-0.1,1.2l0-2l0.1,0l0-0.2l0-0.2
			C409.5,534.9,409.5,535.3,409.5,535.9z M409.5,532.6l0-1.6l0,0l0-0.2l0-0.4c0,0,0,0,0,0c0.1,0.2,0.1,0.6,0.1,1.1
			C409.6,532,409.5,532.3,409.5,532.6z M409.5,529.6l0-2.4l0,0l0-0.2l0-0.2c0.1,0.2,0.2,0.6,0.1,1.3
			C409.6,528.8,409.6,529.3,409.5,529.6z M409.5,525.4l0-1.9l0,0c0,0.3,0.1,0.6,0,1C409.6,525,409.6,525.2,409.5,525.4z
			 M409.7,520.6c0,0.5-0.1,0.8-0.1,1.1l0-1.8l0,0l0-0.2l0-0.2C409.6,519.7,409.7,520,409.7,520.6z M409.6,517.8l0-2.1
			c0.1,0.3,0.1,0.6,0.1,1.1C409.7,517.3,409.6,517.6,409.6,517.8z M409.6,514l0-2.3l0,0l0-0.2l0,0c0,0,0.1,0.2,0.1,1.1
			C409.7,513.2,409.7,513.7,409.6,514z"/>
		<path fill="#6C6361" d="M410.3,458.4l0.2-0.2l-0.1-0.4l-0.2,0.2l0-0.8l-0.3,0l0,1l-2,0.2l0-1l-0.3,0l0,1l-2,0.2l0-1l-0.3,0l0,1
			l-2,0.2l0-1l-0.3,0l0,1.1c-0.1-0.2-0.3-0.5-0.3-1.3l-0.3,0c0,0.9,0.2,1.4,0.4,1.7c-0.2,0.3-0.3,0.8-0.4,1.7c0,0.7,0.1,1.2,0.3,1.5
			l-0.3,0.1l0.1,0.4l0.1-0.1c-0.2,0.3-0.3,0.9-0.3,1.6c0,0.9,0.1,1.5,0.3,1.8c0,0,0,0,0,0l-0.3,0.2l0.1,0.3
			c-0.1,0.3-0.2,0.8-0.2,1.4c0,0.8,0.1,1.4,0.3,1.7c0.1,0.1,0.1,0.2,0.2,0.2c-0.1,0-0.2,0.2-0.3,0.4l-0.2,0.1l0.1,0.3
			c-0.1,0.3-0.1,0.7-0.1,1.2c0,1,0.2,1.6,0.3,1.9c0,0.1-0.1,0.1-0.1,0.2l-0.2,0.1l0.1,0.3c-0.1,0.3-0.2,0.7-0.2,1.3
			c0,0.8,0.1,1.3,0.3,1.5c0.1,0.1,0.2,0.2,0.3,0.2l0,0.1l-0.5,0.3l0.1,0.4c-0.1,0.4-0.2,0.9-0.2,1.6c0,0.8,0.1,1.3,0.3,1.7l-0.2,0.1
			l0.1,0.4c-0.1,0.4-0.1,0.8-0.2,1.5c0,0.9,0.1,1.5,0.3,1.8c0.1,0.2,0.2,0.2,0.2,0.2l0,0.1l-0.5,0.3l0.1,0.4l0.1-0.1
			c-0.1,0.3-0.3,0.9-0.3,1.7c0,0.7,0.1,1.2,0.2,1.5c0,0,0,0.1,0,0.2l-0.1,0.1l0,0.2c-0.1,0.4-0.1,0.9-0.2,1.6c0,0.9,0.1,1.5,0.3,1.8
			c0,0,0,0,0,0l-0.2,0.1l0.1,0.4c-0.1,0.3-0.1,0.7-0.1,1.2c0,0.7,0.1,1.2,0.1,1.5l-0.1,0.1l0.1,0.4l0.2-0.1c0,0,0,0.1,0,0.1
			c-0.2,0.3-0.4,0.8-0.4,1.9c0,0.6,0,1,0.1,1.3l-0.1,0l0.1,0.4l0.1-0.1c0.1,0.2,0.2,0.3,0.3,0.3v0c-0.1,0-0.1,0.1-0.2,0.2
			c-0.2,0.3-0.3,0.8-0.3,1.6c0,0.9,0.1,1.4,0.3,1.7l-0.2,0.1l0.1,0.4l0.1,0c-0.1,0.4-0.2,1-0.2,1.9c0,0.5,0,0.8,0.1,1l0,0l0.1,0.4
			l0.1,0c0,0,0,0,0,0.1l-0.2,0.2l0.1,0.4l0.4-0.3l0,1.4l0.3,0l0-1.5l2-0.2l0,1.4l0.3,0l0-1.5l2-0.2l0,1.5l0.3,0l0-1.5l1.8-0.2
			c0,0,0.1,0,0.1-0.1l0,1.5l0.3,0l0-1.3c0.1,0.2,0.2,0.6,0.2,1.1l0.3,0c0-0.9-0.2-1.4-0.4-1.7c0.2-0.3,0.3-0.8,0.4-1.7
			c0-0.7-0.1-1.3-0.3-1.6c0,0,0,0,0-0.1l0-0.1l0-0.1c0,0,0.1,0,0.1-0.1c0.2-0.3,0.3-0.9,0.3-1.7c0-0.9-0.1-1.5-0.3-1.8
			c0.2-0.3,0.4-0.9,0.4-1.9c0-0.8-0.1-1.4-0.3-1.7c0,0-0.1-0.1-0.1-0.1l0,0l0.1,0l0-0.2c0.2-0.2,0.4-0.7,0.4-1.9
			c0-1-0.2-1.6-0.3-1.9c0.2-0.3,0.4-0.9,0.4-1.9c0-0.8-0.1-1.3-0.3-1.5c0,0-0.1,0-0.1-0.1l0-0.4c0,0,0.1-0.1,0.1-0.1
			c0.2-0.3,0.4-1,0.4-2c0-0.8-0.1-1.4-0.3-1.8c0.1-0.4,0.3-1,0.3-1.9c0-0.9-0.1-1.4-0.3-1.7c0-0.1-0.1-0.1-0.1-0.1l0-0.5
			c0.2-0.3,0.4-0.9,0.4-2c0-0.7-0.1-1.2-0.2-1.5c0.1-0.3,0.2-0.9,0.3-1.9c0-0.9-0.1-1.5-0.3-1.8c0,0-0.1-0.1-0.1-0.1
			c0.2-0.2,0.3-0.8,0.3-1.7c0-1.1-0.1-1.7-0.3-2.1c0.2-0.3,0.4-0.8,0.4-1.9c0-1.2-0.2-1.7-0.4-1.9l0-0.2c0,0,0,0,0.1-0.1
			c0.2-0.3,0.3-0.8,0.3-1.6c0-1-0.2-1.6-0.3-1.9c0.2-0.4,0.3-1,0.4-2.3C410.5,459.1,410.4,458.6,410.3,458.4z M409.6,488.6l-2,0.2
			l0-1.3l2-1.1L409.6,488.6z M402.6,488.3c0-0.9,0.2-1.4,0.3-1.6l0,2.6l0,0l0,0c0,0,0,0-0.1,0.1
			C402.6,489.1,402.6,488.8,402.6,488.3z M409.7,474.2l-2,1.1l0-1.2l2-0.2L409.7,474.2z M409.7,478l-2,1.1l0-1.1l2-0.2L409.7,478z
			 M409.6,485.9l-2,1.1l0-1.1l2-0.2L409.6,485.9z M407.3,490.9l-2,1.1l0-1.8l2-0.2L407.3,490.9z M407.6,489.9l1.8-0.2l-1.8,1
			L407.6,489.9z M409.4,497c0,0,0.1,0,0.1,0l0,3c0,0,0,0,0,0l0,0l-1.9,0.2l0-2.3L409.4,497L409.4,497z M405.2,507l2-1.1l0,1.8
			l-2,0.2L405.2,507z M404.9,507.9l-1.6,0.2l1.7-0.9L404.9,507.9z M407.2,497.3l0,0.5l-2,1.1l0-1.4L407.2,497.3z M407.2,498.2l0,2.1
			l-2,0.2l0-1.2L407.2,498.2z M403,501.7l2-0.2l0,1.8l-2,1.1L403,501.7z M403.9,504.3l1.1-0.6l0,0.5L403.9,504.3z M407.2,504.7
			l0,0.7l-2,1.1l0-1.6L407.2,504.7z M407.5,504.7l1.2-0.1l-1.2,0.7L407.5,504.7z M407.5,505.7l2-1.1l0,2.8c0,0,0,0,0,0l-1.9,0.2
			L407.5,505.7z M405.2,504.2l0-0.6l2-1.1l0,1.5L405.2,504.2z M405.2,503.1l0-1.7l2-0.2l0,0.8L405.2,503.1z M407.5,501.2l1.4-0.1
			l-1.4,0.8L407.5,501.2z M407.5,497.6l0-0.3l0.7-0.1L407.5,497.6z M405.3,496.7l0-1.1l2-1.1l0,2L405.3,496.7z M405.3,495.2l0-1.5
			l2-0.2l0,0.6L405.3,495.2z M404.2,493.1l0.8-0.5l0,0.4L404.2,493.1z M407.6,493.4l1-0.1l-1,0.6L407.6,493.4z M405.3,492.9l0-0.5
			l2-1.1l0,1.4L405.3,492.9z M405.4,489.7l0-0.2l2-0.2l0,0.2L405.4,489.7z M403.2,486.4l2-0.2l0,2.2l-1.3,0.7l-0.6,0.1L403.2,486.4z
			 M405.1,485.6l0,0.2l-1.4,0.1l0.4-0.2L405.1,485.6z M405.1,488.9l0,0.1l-0.2,0L405.1,488.9z M403.8,489.6l1.3-0.1l0,0.2l-1.6,0.2
			L403.8,489.6z M405.4,489l0-0.2l2-1.1l0,1.1L405.4,489z M405.4,488.3l0-2.1l2-0.2l0,1.2L405.4,488.3z M409.6,485.3l-2,0.2l0-0.2
			l1.9-0.2c0,0,0,0,0,0L409.6,485.3C409.6,485.3,409.6,485.3,409.6,485.3z M407.4,485.5l-2,0.2l0-0.2l2-0.2L407.4,485.5z
			 M405.4,485.1l0-0.1l2-1.1l0,1L405.4,485.1z M405.4,484.5l0-2.3l2-0.2l0,1.4L405.4,484.5z M405.4,481.7l0-0.2l2-0.2l0,0.2
			L405.4,481.7z M405.2,477.6l0,0.2l-1.4,0.1l0.4-0.2L405.2,477.6z M403.8,481.2l-0.6,0.1l0-2.8l2-0.2l0,2.2L403.8,481.2z
			 M405.2,481l0,0.1l-0.3,0L405.2,481z M403.9,481.7l1.3-0.1l0,0.2l-1.6,0.2L403.9,481.7z M405.4,481.1l0-0.3l2-1.1l0,1.1
			L405.4,481.1z M405.4,480.3l0-2.1l2-0.2l0,1.2L405.4,480.3z M409.7,477.3l-2,0.2l0-0.2l1.9-0.2c0,0,0,0,0,0L409.7,477.3z
			 M407.4,477.6l-2,0.2l0-0.2l2-0.2L407.4,477.6z M405.5,477.1l0-0.1l2-1.1l0,1L405.5,477.1z M405.5,476.5l0-2.2l2-0.2l0,1.3
			L405.5,476.5z M404.9,473.7l0.3-0.2l0,0.1L404.9,473.7z M405.5,473.6l0-0.3l2-1.1l0,1.1L405.5,473.6z M405.5,472.9l0-2.3l2-0.2
			l0,1.4L405.5,472.9z M403.4,459.6l2-0.2l0,1.8l-2,1.1L403.4,459.6z M404,462.5l1.4-0.8l0,0.6L404,462.5z M405.3,463.1l0,2.1
			l-1.5,0.8l-0.5,0l0-2.8L405.3,463.1z M404.9,465.9l0.4-0.2l0,0.2L404.9,465.9z M405.3,466.7l0,2.6l-1.1,0.6l-0.9,0.1l0-3.1
			L405.3,466.7z M405.5,469.8l0-0.1l2-1.1l0,1L405.5,469.8z M405.5,469.2l0-2.5l2-0.2l0,1.6L405.5,469.2z M407.8,466.5l2-0.2l0,0.5
			l-2,1.1L407.8,466.5z M405.6,465.8l0-0.3l2-1.1l0,1.2L405.6,465.8z M405.6,465l0-2l2-0.2l0,1.1L405.6,465z M407.8,462.8l2-0.2l0,0
			l-2,1.1L407.8,462.8z M405.6,462.3l0-0.8l2-1.1l0,1.7L405.6,462.3z M405.6,461.1l0-1.7l2-0.2l0,0.8L405.6,461.1z M407.9,459.1
			l1.5-0.2l-1.5,0.8L407.9,459.1z M403.7,470.7l1.5-0.2l0,2.5l-1.4,0.8l-0.6,0.1l0-2.9L403.7,470.7z M403.3,474.6l0.1-0.1l1.8-0.2
			l0,2.3l-1.1,0.6l-0.9,0.1L403.3,474.6z M402.9,478.5l0,2.8l0,0c0,0-0.1,0.1-0.1,0.2c-0.1-0.2-0.2-0.7-0.2-1.4
			C402.6,479,402.8,478.6,402.9,478.5z M403.2,482.4l2-0.2l0,2.5l-1.1,0.6l-0.9,0.1L403.2,482.4z M403.1,490.3l2-0.2l0,2l-1.9,1.1
			l-0.1,0L403.1,490.3z M403.1,493.9l2-0.2l0,1.6l-2,1.1L403.1,493.9z M405,495.8l0,1l-2,0.2l0-0.1L405,495.8z M403.1,497.7l2-0.2
			l0,1.5l-2,1.1L403.1,497.7z M405,499.5l0,1.1l-2,0.2l0-0.2L405,499.5z M403,505.1l2-0.2l0,1.7l-2,1.1L403,505.1z M409.4,503.8
			l-2,0.2l0-1.6l2-1.1L409.4,503.8z M409.5,496.3l-2,0.2l0-2.1l2-1.1L409.5,496.3z M409.5,492.5l-2,0.2l0-1.5l2-1.1L409.5,492.5z
			 M409.5,489.2l-1.9,0.2l0-0.2l2-0.2L409.5,489.2C409.5,489.2,409.5,489.2,409.5,489.2z M409.5,484.7l-1.9,0.2l0-1.2l2-1.1
			L409.5,484.7C409.6,484.7,409.5,484.7,409.5,484.7z M409.6,482.1l-2,1.1l0-1.3l2-0.2L409.6,482.1z M407.7,481.5l0-0.2l2-0.2l0,0.2
			L407.7,481.5z M409.6,480.6C409.6,480.6,409.6,480.6,409.6,480.6l-2,0.2l0-1.3l2-1.1L409.6,480.6z M409.7,476.7l-2,0.2l0-1.2
			l2-1.1L409.7,476.7C409.7,476.7,409.7,476.7,409.7,476.7z M409.7,473.2l-2,0.2l0-1.3l2-1.1L409.7,473.2z M407.8,471.6l0-1.3
			l1.9-0.2c0,0,0,0,0,0l0,0.4L407.8,471.6z M409.7,469.4L409.7,469.4l-1.9,0.2l0-1.1l2-1.1L409.7,469.4
			C409.7,469.4,409.7,469.4,409.7,469.4z M409.8,465.4L409.8,465.4l-2,0.2l0-1.3l2-1.1L409.8,465.4z M409.8,461.9l-2,0.2l0-1.8
			l2-1.1L409.8,461.9z M403.1,459.7l0,2.7c0,0,0,0,0,0c-0.1-0.2-0.2-0.7-0.2-1.3C402.8,460.3,403,459.9,403.1,459.7z M403,463.4
			C403,463.4,403.1,463.4,403,463.4l0,2.8c0,0,0,0,0,0c-0.1-0.2-0.2-0.7-0.2-1.5C402.8,463.9,402.9,463.5,403,463.4z M402.7,468.4
			c0-0.8,0.1-1.2,0.3-1.5l0.1,0l0,2.9c0,0,0,0-0.1-0.1C402.8,469.5,402.7,469.1,402.7,468.4z M402.9,471.2l0.1-0.1l0,2.8
			c-0.1-0.2-0.3-0.7-0.2-1.5C402.7,471.8,402.8,471.4,402.9,471.2z M402.9,477.3c-0.1-0.1-0.2-0.4-0.2-1.2c0-0.6,0.1-1.1,0.2-1.3
			l0.1-0.1l0,2.6C402.9,477.4,402.9,477.3,402.9,477.3z M402.6,483.9c0-0.7,0.1-1.2,0.2-1.6c0,0,0,0,0.1,0l0,3
			C402.8,485.3,402.6,485,402.6,483.9z M402.7,490.3l0.1-0.1c0,0,0.1,0.1,0.1,0.1l0,2.9l0,0c-0.1,0-0.3-0.3-0.3-1.5
			C402.5,491,402.6,490.6,402.7,490.3z M402.6,495.2c0-1.1,0.2-1.3,0.2-1.4c0,0,0,0,0,0l0,2.7l-0.1,0
			C402.6,496.3,402.6,495.9,402.6,495.2z M402.5,499.2c0-0.9,0.1-1.3,0.3-1.5l0,2.6l-0.2,0.1C402.5,500.1,402.5,499.7,402.5,499.2z
			 M402.7,501.7C402.7,501.7,402.7,501.7,402.7,501.7l0,2.7c0,0,0,0,0,0c-0.1-0.2-0.2-0.7-0.2-1.5
			C402.5,502.1,402.6,501.8,402.7,501.7z M402.4,507.1c0-1.1,0.2-1.7,0.3-2l0,2.7l-0.2,0.1C402.4,507.9,402.4,507.6,402.4,507.1z
			 M409.8,506c0,0.5-0.1,0.8-0.1,1l0-1.9C409.8,505.3,409.8,505.6,409.8,506z M409.7,503.4l0-2.2c0.1,0.3,0.1,0.6,0.1,1.1
			C409.8,502.9,409.8,503.2,409.7,503.4z M409.9,498.6c0,0.6-0.1,1-0.2,1.3l0-2.4C409.9,497.8,409.9,498.2,409.9,498.6z
			 M409.8,495.8l0-2.1c0.1,0.3,0.1,0.6,0.1,1.1C409.9,495.2,409.8,495.5,409.8,495.8z M410,490.9c0,0.6-0.1,1-0.2,1.2l0-2.2l0,0
			C409.9,490.1,410,490.4,410,490.9z M409.8,488.3l0-2l0.1,0l-0.1-0.2l0-0.5c0.1,0.2,0.2,0.7,0.2,1.3
			C410,487.6,409.9,488,409.8,488.3z M410,483.2c0,0.5-0.1,0.9-0.1,1.2l0-2l0.1,0l0-0.2l0-0.2C410,482.2,410,482.6,410,483.2z
			 M409.9,479.9l0-1.6l0,0l0-0.2l0-0.4c0,0,0,0,0,0c0.1,0.2,0.1,0.6,0.1,1.1C410,479.3,410,479.6,409.9,479.9z M409.9,476.9
			C409.9,476.9,409.9,476.9,409.9,476.9l0-2.4l0.1,0l-0.1-0.2l0-0.2c0.1,0.2,0.2,0.6,0.1,1.3C410.1,476.1,410,476.6,409.9,476.9z
			 M410,472.8l0-2l0,0c0,0.3,0.1,0.6,0,1C410.1,472.3,410,472.6,410,472.8z M410.1,467.9c0,0.5-0.1,0.8-0.1,1.1l0-1.8l0,0l0-0.2
			l0-0.2C410.1,467,410.1,467.3,410.1,467.9z M410.1,465.1l0-2.1c0.1,0.3,0.1,0.6,0.1,1.1C410.2,464.6,410.1,464.9,410.1,465.1z
			 M410.1,461.3l0-2.3l0,0l0-0.2l0,0c0,0,0.1,0.2,0.1,1.1C410.2,460.6,410.2,461,410.1,461.3z"/>
		<path fill="#6C6361" d="M410.7,438.3c0-0.8-0.1-1.3-0.3-1.5c-0.2-0.2-0.4-0.2-0.5-0.2l-6.5,0.7c0,0-0.1,0-0.1-0.1c0,0,0,0,0,0
			l6.7-0.7l0-0.5l-6.8,0.7l0,0c0,0,0,0-0.1,0.1c-0.1-0.2-0.1-0.6-0.1-1.1l-0.3,0c0,0.7,0.1,1.2,0.2,1.5c-0.1,0.4-0.2,0.9-0.3,1.9
			c0,0.9,0.1,1.5,0.3,1.8c0,0,0,0,0,0l-0.2,0.1l0.1,0.4c-0.1,0.3-0.1,0.7-0.1,1.2c0,0.7,0.1,1.2,0.1,1.5l-0.1,0.1l0.1,0.4l0.2-0.1
			c0,0,0,0.1,0.1,0.1c-0.2,0.3-0.4,0.8-0.4,1.9c0,0.6,0,1,0.1,1.3l-0.1,0l0.1,0.4l0.1-0.1c0.1,0.2,0.2,0.3,0.3,0.3
			c-0.1,0-0.2,0.1-0.2,0.2c-0.2,0.3-0.3,0.8-0.3,1.6c0,0.9,0.1,1.4,0.2,1.7l-0.2,0.1l0.1,0.4l0.1,0c-0.1,0.4-0.2,1-0.2,1.9
			c0,0.5,0,0.8,0.1,1l0,0l0.1,0.4l0.1,0c0,0,0,0,0,0.1l-0.2,0.2l0.1,0.4l0.5-0.4l6.5-0.7c0,0,0.1,0,0.2-0.2c0.1,0.1,0.3,0.5,0.3,1.4
			l0.3,0c0-0.9-0.2-1.4-0.4-1.7c0.2-0.3,0.3-0.8,0.4-1.7c0-0.7-0.1-1.3-0.3-1.6c0,0,0,0,0,0l0-0.2c0,0,0.1,0,0.1-0.1
			c0.2-0.3,0.3-0.9,0.3-1.7c0-0.9-0.1-1.5-0.3-1.8c0.2-0.3,0.4-0.9,0.4-1.9c0-0.8-0.1-1.4-0.3-1.7c0-0.1-0.1-0.1-0.1-0.1l0.1,0
			l0-0.2c0.2-0.2,0.4-0.7,0.4-1.9c0-1-0.2-1.6-0.3-1.9C410.5,439.8,410.7,439.3,410.7,438.3z M410.4,438.3c0,0.9-0.2,1.4-0.3,1.6
			l0,0l-5.4,0.6l5.6-3.1C410.4,437.4,410.4,437.7,410.4,438.3z M403.3,440.5c-0.1,0-0.3-0.3-0.3-1.5c0-0.8,0.1-1.3,0.2-1.6
			c0.1,0.2,0.3,0.2,0.3,0.2l6.4-0.7l-6.2,3.5L403.3,440.5z M403,442.6c0-1.1,0.2-1.3,0.2-1.4c0,0,0.1,0,0.1,0l0,0l5.7-0.6l-5.9,3.3
			C403.1,443.6,403,443.2,403,442.6z M403,446.5c0-0.9,0.2-1.4,0.3-1.6c0.1,0.1,0.1,0.1,0.1,0.1l0,0l5.3-0.5l-5.7,3.2
			C403,447.4,403,447,403,446.5z M403.1,449.1c0.1-0.1,0.2-0.1,0.2-0.1l0,0l6-0.6l-6.1,3.4l0,0l-0.1,0c0,0,0,0,0,0
			c-0.1-0.2-0.3-0.6-0.2-1.5C402.9,449.5,403.1,449.2,403.1,449.1z M402.9,454.5c0-1.2,0.2-1.7,0.3-2c0,0,0.1,0,0.1,0l0,0l5.8-0.6
			l-6.2,3.4C402.9,455.2,402.9,454.9,402.9,454.5z M410.3,453.3c0,0.9-0.2,1.3-0.3,1.5c-0.1,0-0.1,0-0.1,0l-6.1,0.6l6.2-3.5
			c0,0,0.1,0,0.1,0.1C410.2,452.3,410.3,452.7,410.3,453.3z M410.1,451c-0.1,0.1-0.1,0.1-0.1,0.1l-5.6,0.6l5.8-3.2
			c0.1,0.3,0.1,0.6,0.1,1.2C410.3,450.5,410.2,450.9,410.1,451z M409.8,444.4c0,0,0.2,0,0.3,0.2c0.2,0.3,0.2,0.7,0.2,1.4
			c0,0.8-0.2,1.3-0.3,1.6c-0.1-0.1-0.1-0.1-0.2-0.1l0,0l-6.6,0.7c0,0,0,0-0.1-0.1L409.8,444.4L409.8,444.4z M410,443.6l-6.6,0.7
			c0,0,0,0-0.1,0.1c0,0,0,0,0,0l6.8-3.8c0.1,0.3,0.2,0.7,0.2,1.5C410.4,443.2,410.1,443.6,410,443.6z"/>
		<polygon fill="#6C6361" points="392.5,406.2 391.7,406.1 391.6,407.1 392.5,407.1 		"/>
		<polygon fill="#6C6361" points="395.9,406.3 395,406.3 395,407.2 395.9,407.3 		"/>
		
			<rect x="389.9" y="406.1" transform="matrix(4.891452e-02 -0.9988 0.9988 4.891452e-02 -34.7494 776.5886)" fill="#6C6361" width="1" height="0.8"/>
		
			<rect x="393.3" y="406.3" transform="matrix(4.025171e-02 -0.9992 0.9992 4.025171e-02 -28.4419 783.7715)" fill="#6C6361" width="1" height="0.8"/>
		<polygon fill="#6C6361" points="397.6,406.3 396.7,406.3 396.7,407.3 397.5,407.3 		"/>
		
			<rect x="383.2" y="405.7" transform="matrix(6.326446e-02 -0.998 0.998 6.326446e-02 -45.9361 763.3895)" fill="#6C6361" width="1" height="0.8"/>
		<polygon fill="#6C6361" points="380.8,406 380.7,405.5 379.9,405.4 379.9,406.4 380.7,406.5 		"/>
		<polygon fill="#6C6361" points="389.1,406.5 389.1,406 388.3,405.9 388.3,406.9 389.1,407 		"/>
		<polygon fill="#6C6361" points="382.5,405.6 381.6,405.5 381.6,406.5 382.4,406.6 		"/>
		<polygon fill="#6C6361" points="379.1,405.4 378.3,405.3 378.2,406.3 379,406.3 		"/>
		
			<rect x="386.6" y="405.9" transform="matrix(5.625996e-02 -0.9984 0.9984 5.625996e-02 -40.4553 769.9297)" fill="#6C6361" width="1" height="0.8"/>
		
			<rect x="384.9" y="405.8" transform="matrix(5.932480e-02 -0.9982 0.9982 5.932480e-02 -43.0505 766.8501)" fill="#6C6361" width="1" height="0.8"/>
		
			<rect x="376.5" y="405.3" transform="matrix(7.506496e-02 -0.9972 0.9972 7.506496e-02 -55.875 751.1564)" fill="#6C6361" width="1" height="0.8"/>
		
			<rect x="398.3" y="406.4" transform="matrix(2.530835e-02 -0.9997 0.9997 2.530835e-02 -18.0091 795.2455)" fill="#6C6361" width="1" height="0.8"/>
		
			<rect x="468.7" y="400.2" transform="matrix(0.9889 -0.1487 0.1487 0.9889 -54.3794 74.2262)" fill="#6C6361" width="0.8" height="1"/>
		<rect x="470.4" y="400" transform="matrix(0.9887 -0.15 0.15 0.9887 -54.7556 75.1679)" fill="#6C6361" width="0.8" height="1"/>
		<polygon fill="#6C6361" points="466.1,400.7 465.3,400.8 465.4,401.8 466.3,401.6 		"/>
		<rect x="462" y="401.2" transform="matrix(0.99 -0.1413 0.1413 0.99 -52.1225 69.38)" fill="#6C6361" width="0.8" height="1"/>
		
			<rect x="472" y="399.7" transform="matrix(0.9883 -0.1524 0.1524 0.9883 -55.4576 76.6497)" fill="#6C6361" width="0.8" height="1"/>
		
			<rect x="467" y="400.5" transform="matrix(0.9892 -0.1467 0.1467 0.9892 -53.7703 72.9228)" fill="#6C6361" width="0.8" height="1"/>
		
			<rect x="473.7" y="399.5" transform="matrix(0.9881 -0.1537 0.1537 0.9881 -55.8241 77.598)" fill="#6C6361" width="0.8" height="1"/>
		
			<rect x="480.3" y="398.4" transform="matrix(0.9869 -0.1614 0.1614 0.9869 -58.099 82.7947)" fill="#6C6361" width="0.2" height="1"/>
		
			<rect x="478.7" y="398.7" transform="matrix(0.987 -0.1608 0.1608 0.987 -57.9553 82.2428)" fill="#6C6361" width="0.8" height="1"/>
		
			<rect x="477" y="398.9" transform="matrix(0.9874 -0.1585 0.1585 0.9874 -57.2774 80.7289)" fill="#6C6361" width="0.8" height="1"/>
		
			<rect x="475.3" y="399.2" transform="matrix(0.9877 -0.1564 0.1564 0.9877 -56.6722 79.355)" fill="#6C6361" width="0.8" height="1"/>
		
			<rect x="463.7" y="401" transform="matrix(0.9896 -0.1436 0.1436 0.9896 -52.8482 70.8235)" fill="#6C6361" width="0.8" height="1"/>
		<polygon fill="#6C6361" points="402.6,406.4 401.8,406.4 401.7,407.4 402.6,407.4 		"/>
		
			<rect x="400" y="406.5" transform="matrix(1.977461e-02 -0.9998 0.9998 1.977461e-02 -14.2417 799.2664)" fill="#6C6361" width="1" height="0.8"/>
		<polygon fill="#6C6361" points="404.3,406.9 404.3,406.5 403.4,406.5 403.4,407.4 404.3,407.4 		"/>
		
			<rect x="351.4" y="402.9" transform="matrix(0.1128 -0.9936 0.9936 0.1128 -88.574 707.4435)" fill="#6C6361" width="1" height="0.8"/>
		<polygon fill="#6C6361" points="347.3,402.3 346.5,402.2 346.3,403.2 347.2,403.3 		"/>
		
			<rect x="349.7" y="402.7" transform="matrix(0.116 -0.9933 0.9933 0.116 -90.8417 704.1907)" fill="#6C6361" width="1" height="0.8"/>
		
			<rect x="348" y="402.5" transform="matrix(0.1189 -0.9929 0.9929 0.1189 -93.0067 701.0546)" fill="#6C6361" width="1" height="0.8"/>
		<rect x="405.1" y="406.5" fill="#6C6361" width="0.8" height="1"/>
		<polygon fill="#6C6361" points="414.4,407.3 414.4,406.8 414.3,406.3 413.5,406.3 413.5,407.3 		"/>
		
			<rect x="406.8" y="406.5" transform="matrix(1 -8.140842e-03 8.140842e-03 1 -3.2994 3.3286)" fill="#6C6361" width="0.8" height="1"/>
		<polygon fill="#6C6361" points="412.7,407.3 412.7,406.3 411.8,406.4 411.9,407.4 		"/>
		<polygon fill="#6C6361" points="461.1,401.4 460.3,401.5 460.4,402.5 461.3,402.4 		"/>
		<polygon fill="#6C6361" points="409.3,407.4 409.3,406.4 408.5,406.4 408.5,407.4 		"/>
		<polygon fill="#6C6361" points="411,407.4 411,406.4 410.2,406.4 410.2,407.4 		"/>
		
			<rect x="371.5" y="404.9" transform="matrix(8.356743e-02 -0.9965 0.9965 8.356743e-02 -63.0182 742.0726)" fill="#6C6361" width="1" height="0.8"/>
		
			<rect x="369.8" y="404.7" transform="matrix(8.598284e-02 -0.9963 0.9963 8.598284e-02 -65.2229 739.2162)" fill="#6C6361" width="1" height="0.8"/>
		
			<rect x="368.1" y="404.6" transform="matrix(8.840057e-02 -0.9961 0.9961 8.840057e-02 -67.4134 736.3552)" fill="#6C6361" width="1" height="0.8"/>
		
			<rect x="366.4" y="404.4" transform="matrix(9.074920e-02 -0.9959 0.9959 9.074920e-02 -69.5677 733.5203)" fill="#6C6361" width="1" height="0.8"/>
		
			<rect x="364.8" y="404.3" transform="matrix(9.316950e-02 -0.9957 0.9957 9.316950e-02 -71.7301 730.6498)" fill="#6C6361" width="1" height="0.8"/>
		
			<rect x="373.1" y="405" transform="matrix(8.121814e-02 -0.9967 0.9967 8.121814e-02 -60.8206 744.894)" fill="#6C6361" width="1" height="0.8"/>
		<polygon fill="#6C6361" points="375.8,405.1 374.9,405 374.8,406 375.7,406.1 		"/>
		
			<rect x="359.7" y="403.8" transform="matrix(0.1003 -0.995 0.995 0.1003 -78.0825 722.079)" fill="#6C6361" width="1" height="0.8"/>
		
			<rect x="356.4" y="403.4" transform="matrix(0.1051 -0.9945 0.9945 0.1051 -82.255 716.3348)" fill="#6C6361" width="1" height="0.8"/>
		
			<rect x="358.1" y="403.6" transform="matrix(0.1026 -0.9947 0.9947 0.1026 -80.163 719.2261)" fill="#6C6361" width="1" height="0.8"/>
		<polygon fill="#6C6361" points="355.6,403.7 355.5,403.2 354.8,403.2 354.7,404.1 355.6,404.2 		"/>
		
			<rect x="361.4" y="404" transform="matrix(9.786264e-02 -0.9952 0.9952 9.786264e-02 -75.9639 724.9612)" fill="#6C6361" width="1" height="0.8"/>
		
			<rect x="363.1" y="404.1" transform="matrix(9.544186e-02 -0.9954 0.9954 9.544186e-02 -73.83 727.84)" fill="#6C6361" width="1" height="0.8"/>
		
			<rect x="353" y="403.1" transform="matrix(0.1104 -0.9939 0.9939 0.1104 -86.5556 710.3082)" fill="#6C6361" width="1" height="0.8"/>
		
			<rect x="447" y="403.2" transform="matrix(0.9924 -0.1231 0.1231 0.9924 -46.2802 58.1327)" fill="#6C6361" width="0.8" height="1"/>
		
			<rect x="438.7" y="404.2" transform="matrix(0.9938 -0.1112 0.1112 0.9938 -42.2825 51.3418)" fill="#6C6361" width="0.8" height="1"/>
		
			<rect x="452" y="402.6" transform="matrix(0.9915 -0.1303 0.1303 0.9915 -48.6446 62.3653)" fill="#6C6361" width="0.8" height="1"/>
		
			<rect x="430.3" y="405.1" transform="matrix(0.9954 -9.589361e-02 9.589361e-02 0.9954 -36.9065 43.1726)" fill="#6C6361" width="0.8" height="1"/>
		
			<rect x="420.2" y="405.9" transform="matrix(0.9976 -6.877496e-02 6.877496e-02 0.9976 -26.9546 29.8935)" fill="#6C6361" width="0.8" height="1"/>
		<polygon fill="#6C6361" points="446.1,403.4 445.3,403.5 445.4,404.4 446.3,404.3 		"/>
		
			<rect x="453.7" y="402.4" transform="matrix(0.9912 -0.1326 0.1326 0.9912 -49.3989 63.7616)" fill="#6C6361" width="0.8" height="1"/>
		
			<rect x="448.7" y="403" transform="matrix(0.9921 -0.1256 0.1256 0.9921 -47.1188 59.5987)" fill="#6C6361" width="0.8" height="1"/>
		
			<rect x="440.3" y="404" transform="matrix(0.9934 -0.1147 0.1147 0.9934 -43.4821 53.2173)" fill="#6C6361" width="0.8" height="1"/>
		
			<rect x="425.3" y="405.5" transform="matrix(0.9965 -8.369894e-02 8.369894e-02 0.9965 -32.4898 37.0552)" fill="#6C6361" width="0.8" height="1"/>
		
			<rect x="428.6" y="405.2" transform="matrix(0.9958 -9.167580e-02 9.167580e-02 0.9958 -35.3885 41.0421)" fill="#6C6361" width="0.8" height="1"/>
		
			<rect x="433.6" y="404.7" transform="matrix(0.9947 -0.1026 0.1026 0.9947 -39.2972 46.6877)" fill="#6C6361" width="0.8" height="1"/>
		
			<rect x="450.4" y="402.8" transform="matrix(0.9918 -0.1279 0.1279 0.9918 -47.8845 60.9775)" fill="#6C6361" width="0.8" height="1"/>
		<polygon fill="#6C6361" points="422.7,405.8 421.9,405.8 422.1,406.8 422.8,406.7 		"/>
		
			<rect x="435.3" y="404.6" transform="matrix(0.9944 -0.1058 0.1058 0.9944 -40.3929 48.3519)" fill="#6C6361" width="0.8" height="1"/>
		
			<rect x="443.7" y="403.6" transform="matrix(0.9929 -0.1186 0.1186 0.9929 -44.7876 55.515)" fill="#6C6361" width="0.8" height="1"/>
		<polygon fill="#6C6361" points="459.5,401.6 458.6,401.7 458.8,402.7 459.6,402.6 		"/>
		
			<rect x="423.6" y="405.7" transform="matrix(0.9969 -7.808365e-02 7.808365e-02 0.9969 -30.4197 34.3492)" fill="#6C6361" width="0.8" height="1"/>
		
			<rect x="457" y="401.9" transform="matrix(0.9906 -0.1367 0.1367 0.9906 -50.7002 66.2925)" fill="#6C6361" width="0.8" height="1"/>
		
			<rect x="415.2" y="406.2" transform="matrix(0.9988 -4.985867e-02 4.985867e-02 0.9988 -19.7611 21.2285)" fill="#6C6361" width="0.8" height="1"/>
		<polygon fill="#6C6361" points="427.7,405.4 426.9,405.4 427,406.4 427.8,406.3 		"/>
		
			<rect x="418.6" y="406" transform="matrix(0.998 -6.326446e-02 6.326446e-02 0.998 -24.8789 27.3213)" fill="#6C6361" width="0.8" height="1"/>
		<polygon fill="#6C6361" points="456.1,402.1 455.3,402.2 455.4,403.2 456.3,403 		"/>
		
			<rect x="437" y="404.4" transform="matrix(0.9941 -0.1085 0.1085 0.9941 -41.3586 49.8654)" fill="#6C6361" width="0.8" height="1"/>
		
			<rect x="442" y="403.8" transform="matrix(0.9931 -0.117 0.117 0.9931 -44.2744 54.5536)" fill="#6C6361" width="0.8" height="1"/>
		
			<rect x="416.9" y="406.1" transform="matrix(0.9984 -5.617108e-02 5.617108e-02 0.9984 -22.1814 24.0826)" fill="#6C6361" width="0.8" height="1"/>
		
			<rect x="432" y="404.9" transform="matrix(0.9951 -9.903306e-02 9.903306e-02 0.9951 -38.0229 44.8141)" fill="#6C6361" width="0.8" height="1"/>
		<polygon fill="#6C6361" points="427.4,409.3 427.5,410.3 428.3,410.2 428.3,409.2 		"/>
		
			<rect x="356.9" y="407.3" transform="matrix(0.1049 -0.9945 0.9945 0.1049 -85.6103 720.3898)" fill="#6C6361" width="1" height="0.8"/>
		<polygon fill="#6C6361" points="460.8,405.4 460.9,406.4 461.8,406.2 461.6,405.3 		"/>
		
			<rect x="432.5" y="408.8" transform="matrix(0.9952 -9.775601e-02 9.775601e-02 0.9952 -37.937 44.279)" fill="#6C6361" width="0.8" height="1"/>
		
			<rect x="366.9" y="408.3" transform="matrix(9.089205e-02 -0.9959 0.9959 9.089205e-02 -73.0202 737.4951)" fill="#6C6361" width="1" height="0.8"/>
		
			<rect x="365.3" y="408.2" transform="matrix(9.316950e-02 -0.9957 0.9957 9.316950e-02 -75.1358 734.6782)" fill="#6C6361" width="1" height="0.8"/>
		
			<rect x="430.8" y="409" transform="matrix(0.9955 -9.506544e-02 9.506544e-02 0.9955 -36.9717 42.8496)" fill="#6C6361" width="0.8" height="1"/>
		
			<rect x="368.6" y="408.5" transform="matrix(8.853979e-02 -0.9961 0.9961 8.853979e-02 -70.866 740.342)" fill="#6C6361" width="1" height="0.8"/>
		
			<rect x="429.1" y="409.1" transform="matrix(0.996 -8.955694e-02 8.955694e-02 0.996 -34.9574 40.1159)" fill="#6C6361" width="0.8" height="1"/>
		
			<rect x="360.2" y="407.7" transform="matrix(0.1003 -0.995 0.995 0.1003 -81.4898 726.08)" fill="#6C6361" width="1" height="0.8"/>
		
			<rect x="363.6" y="408" transform="matrix(9.559198e-02 -0.9954 0.9954 9.559198e-02 -77.2855 731.7935)" fill="#6C6361" width="1" height="0.8"/>
		
			<rect x="361.9" y="407.8" transform="matrix(9.801661e-02 -0.9952 0.9952 9.801661e-02 -79.4205 728.9034)" fill="#6C6361" width="1" height="0.8"/>
		
			<rect x="424.1" y="409.6" transform="matrix(0.9969 -7.866701e-02 7.866701e-02 0.9969 -30.9411 34.6673)" fill="#6C6361" width="0.8" height="1"/>
		
			<rect x="407.3" y="410.3" transform="matrix(1 -6.309023e-03 6.309023e-03 1 -2.5838 2.5806)" fill="#6C6361" width="0.8" height="1"/>
		
			<rect x="417.4" y="410" transform="matrix(0.9985 -5.426774e-02 5.426774e-02 0.9985 -21.6614 23.2788)" fill="#6C6361" width="0.8" height="1"/>
		<polygon fill="#6C6361" points="403.9,411.3 404.8,411.3 404.8,410.8 404.8,410.3 404,410.3 		"/>
		<polygon fill="#6C6361" points="409,411.3 409.8,411.3 409.8,410.3 409,410.3 		"/>
		<polygon fill="#6C6361" points="405.6,411.3 406.5,411.3 406.5,410.3 405.6,410.3 		"/>
		
			<rect x="419.1" y="409.9" transform="matrix(0.998 -6.246283e-02 6.246283e-02 0.998 -24.8158 27.0043)" fill="#6C6361" width="0.8" height="1"/>
		<polygon fill="#6C6361" points="414.8,410.2 414,410.2 414.1,411.2 414.9,411.1 414.9,410.7 		"/>
		
			<rect x="415.7" y="410.1" transform="matrix(0.9988 -4.885464e-02 4.885464e-02 0.9988 -19.5625 20.8205)" fill="#6C6361" width="0.8" height="1"/>
		<polygon fill="#6C6361" points="412.4,411.2 413.2,411.2 413.2,410.2 412.3,410.3 		"/>
		<polygon fill="#6C6361" points="410.7,411.3 411.5,411.3 411.5,410.3 410.7,410.3 		"/>
		
			<rect x="425.8" y="409.4" transform="matrix(0.9965 -8.416893e-02 8.416893e-02 0.9965 -32.9889 37.3279)" fill="#6C6361" width="0.8" height="1"/>
		
			<rect x="350.2" y="406.6" transform="matrix(0.1158 -0.9933 0.9933 0.1158 -94.1953 708.2112)" fill="#6C6361" width="1" height="0.8"/>
		
			<rect x="348.5" y="406.4" transform="matrix(0.1187 -0.9929 0.9929 0.1187 -96.3585 705.0646)" fill="#6C6361" width="1" height="0.8"/>
		
			<rect x="351.9" y="406.8" transform="matrix(0.1128 -0.9936 0.9936 0.1128 -91.9824 711.3953)" fill="#6C6361" width="1" height="0.8"/>
		<polygon fill="#6C6361" points="355.3,407 355.2,408 356.1,408.1 356.1,407.6 356.1,407.1 		"/>
		
			<rect x="353.5" y="407" transform="matrix(0.1104 -0.9939 0.9939 0.1104 -89.9638 714.2692)" fill="#6C6361" width="1" height="0.8"/>
		<polygon fill="#6C6361" points="422.4,409.7 422.6,410.7 423.3,410.6 423.2,409.7 		"/>
		
			<rect x="420.8" y="409.8" transform="matrix(0.9977 -6.787035e-02 6.787035e-02 0.9977 -26.8755 29.5313)" fill="#6C6361" width="0.8" height="1"/>
		
			<rect x="400.5" y="410.4" transform="matrix(1.971226e-02 -0.9998 0.9998 1.971226e-02 -17.6017 803.6081)" fill="#6C6361" width="1" height="0.8"/>
		<polygon fill="#6C6361" points="402.3,411.3 403.1,411.3 403.1,410.3 402.3,410.3 		"/>
		<polygon fill="#6C6361" points="346.9,407 347.7,407.1 347.8,406.2 347,406.1 		"/>
		
			<rect x="358.6" y="407.5" transform="matrix(0.1026 -0.9947 0.9947 0.1026 -83.5706 723.2178)" fill="#6C6361" width="1" height="0.8"/>
		
			<rect x="450.9" y="406.7" transform="matrix(0.9918 -0.1275 0.1275 0.9918 -48.2444 60.883)" fill="#6C6361" width="0.8" height="1"/>
		
			<rect x="477.5" y="402.8" transform="matrix(0.9875 -0.1574 0.1574 0.9875 -57.5082 80.2306)" fill="#6C6361" width="0.8" height="1"/>
		
			<rect x="474.2" y="403.3" transform="matrix(0.988 -0.1547 0.1547 0.988 -56.7618 78.2881)" fill="#6C6361" width="0.8" height="1"/>
		
			<rect x="475.9" y="403.1" transform="matrix(0.988 -0.1547 0.1547 0.988 -56.7013 78.5425)" fill="#6C6361" width="0.8" height="1"/>
		
			<rect x="452.5" y="406.5" transform="matrix(0.9915 -0.1302 0.1302 0.9915 -49.1317 62.4437)" fill="#6C6361" width="0.8" height="1"/>
		
			<rect x="479.2" y="402.5" transform="matrix(0.9871 -0.1602 0.1602 0.9871 -58.3768 82.0457)" fill="#6C6361" width="0.8" height="1"/>
		<path fill="#6C6361" d="M481.1,402.8l-0.1-0.5l-0.2,0l0.1,0.4h-0.3l0.3,0l0.1,0.5c0.2,0,0.6-0.1,0.6-0.5H481.1z"/>
		<polygon fill="#6C6361" points="397.2,411.2 398,411.2 398.1,410.2 397.2,410.2 		"/>
		
			<rect x="447.5" y="407.1" transform="matrix(0.9925 -0.1222 0.1222 0.9925 -46.4488 57.7926)" fill="#6C6361" width="0.8" height="1"/>
		
			<rect x="398.8" y="410.3" transform="matrix(2.530835e-02 -0.9997 0.9997 2.530835e-02 -21.3952 799.5389)" fill="#6C6361" width="1" height="0.8"/>
		
			<rect x="449.2" y="406.9" transform="matrix(0.9922 -0.1249 0.1249 0.9922 -47.3499 59.3326)" fill="#6C6361" width="0.8" height="1"/>
		
			<rect x="462.5" y="405.1" transform="matrix(0.99 -0.1412 0.1412 0.99 -52.6393 69.4494)" fill="#6C6361" width="0.8" height="1"/>
		
			<rect x="464.2" y="404.8" transform="matrix(0.9896 -0.1439 0.1439 0.9896 -53.4887 71.0736)" fill="#6C6361" width="0.8" height="1"/>
		
			<rect x="457.5" y="405.8" transform="matrix(0.9907 -0.1357 0.1357 0.9907 -50.9016 65.913)" fill="#6C6361" width="0.8" height="1"/>
		<polygon fill="#6C6361" points="459.1,405.6 459.3,406.6 460.1,406.5 460,405.5 		"/>
		<polygon fill="#6C6361" points="465.8,404.7 465.9,405.6 466.8,405.5 466.6,404.5 		"/>
		<polygon fill="#6C6361" points="395.5,411.1 396.4,411.1 396.4,410.2 395.6,410.1 		"/>
		
			<rect x="469.2" y="404.1" transform="matrix(0.9892 -0.1465 0.1465 0.9892 -54.2226 73.1901)" fill="#6C6361" width="0.8" height="1"/>
		
			<rect x="470.9" y="403.9" transform="matrix(0.9888 -0.1492 0.1492 0.9888 -55.054 74.8427)" fill="#6C6361" width="0.8" height="1"/>
		
			<rect x="467.5" y="404.4" transform="matrix(0.9892 -0.1465 0.1465 0.9892 -54.2771 72.9491)" fill="#6C6361" width="0.8" height="1"/>
		
			<rect x="454.2" y="406.2" transform="matrix(0.9911 -0.1331 0.1331 0.9911 -50.0738 64.1056)" fill="#6C6361" width="0.8" height="1"/>
		
			<rect x="472.5" y="403.6" transform="matrix(0.9884 -0.1521 0.1521 0.9884 -55.9451 76.614)" fill="#6C6361" width="0.8" height="1"/>
		<polygon fill="#6C6361" points="455.8,406.1 455.9,407 456.8,406.9 456.6,406 		"/>
		
			<rect x="434.2" y="408.6" transform="matrix(0.9947 -0.1031 0.1031 0.9947 -39.8756 46.9993)" fill="#6C6361" width="0.8" height="1"/>
		
			<rect x="377" y="409.2" transform="matrix(7.488793e-02 -0.9972 0.9972 7.488793e-02 -59.2164 755.3344)" fill="#6C6361" width="1" height="0.8"/>
		
			<rect x="437.5" y="408.3" transform="matrix(0.9941 -0.1086 0.1086 0.9941 -41.8171 49.9968)" fill="#6C6361" width="0.8" height="1"/>
		<polygon fill="#6C6361" points="382.1,410.4 382.9,410.5 383,409.5 382.1,409.4 		"/>
		
			<rect x="439.2" y="408.1" transform="matrix(0.9938 -0.1113 0.1113 0.9938 -42.7526 51.4782)" fill="#6C6361" width="0.8" height="1"/>
		<polygon fill="#6C6361" points="380.5,409.3 380.4,410.3 381.2,410.3 381.3,409.9 381.2,409.4 		"/>
		<polygon fill="#6C6361" points="378.7,410.2 379.5,410.2 379.6,409.2 378.8,409.2 		"/>
		<polygon fill="#6C6361" points="445.8,407.4 445.9,408.3 446.8,408.2 446.6,407.3 		"/>
		
			<rect x="370.3" y="408.6" transform="matrix(8.611821e-02 -0.9963 0.9963 8.611821e-02 -68.6736 743.2138)" fill="#6C6361" width="1" height="0.8"/>
		
			<rect x="373.6" y="408.9" transform="matrix(8.141008e-02 -0.9967 0.9967 8.141008e-02 -64.29 748.8846)" fill="#6C6361" width="1" height="0.8"/>
		<polygon fill="#6C6361" points="375.3,409.9 376.2,410 376.3,409 375.4,408.9 		"/>
		
			<rect x="435.8" y="408.5" transform="matrix(0.9947 -0.1031 0.1031 0.9947 -39.8486 47.171)" fill="#6C6361" width="0.8" height="1"/>
		
			<rect x="372" y="408.8" transform="matrix(8.369894e-02 -0.9965 0.9965 8.369894e-02 -66.4668 746.0807)" fill="#6C6361" width="1" height="0.8"/>
		
			<rect x="390.4" y="410" transform="matrix(4.876083e-02 -0.9988 0.9988 4.876083e-02 -38.0885 780.8571)" fill="#6C6361" width="1" height="0.8"/>
		
			<rect x="444.2" y="407.5" transform="matrix(0.9929 -0.1194 0.1194 0.9929 -45.5196 55.9852)" fill="#6C6361" width="0.8" height="1"/>
		<polygon fill="#6C6361" points="388.8,409.8 388.8,410.8 389.6,410.9 389.6,410.4 389.6,409.9 		"/>
		
			<rect x="383.7" y="409.6" transform="matrix(6.306536e-02 -0.998 0.998 6.306536e-02 -49.2644 767.6218)" fill="#6C6361" width="1" height="0.8"/>
		
			<rect x="393.8" y="410.2" transform="matrix(4.025171e-02 -0.9992 0.9992 4.025171e-02 -31.8345 788.0072)" fill="#6C6361" width="1" height="0.8"/>
		<polygon fill="#6C6361" points="392.2,411 393,411 393,410 392.2,410 		"/>
		
			<rect x="440.9" y="407.9" transform="matrix(0.9935 -0.114 0.114 0.9935 -43.6817 52.9701)" fill="#6C6361" width="0.8" height="1"/>
		
			<rect x="442.5" y="407.7" transform="matrix(0.9932 -0.1167 0.1167 0.9932 -44.604 54.4724)" fill="#6C6361" width="0.8" height="1"/>
		
			<rect x="385.4" y="409.7" transform="matrix(5.932480e-02 -0.9982 0.9982 5.932480e-02 -46.4478 771.0126)" fill="#6C6361" width="1" height="0.8"/>
		
			<rect x="387.1" y="409.8" transform="matrix(5.608248e-02 -0.9984 0.9984 5.608248e-02 -43.7902 774.1789)" fill="#6C6361" width="1" height="0.8"/>
	</g>
</g>
<g id="SHADING">
	<g opacity="2.000000e-02">
		<g>
			<path d="M482.8,313.9c0.1,2,0.2,3.2,0.2,3.2S482.9,315.9,482.8,313.9 M453.3,253.2c0,0,15.8,18.7,22.5,31.1
				c5,9.4,6.6,23.3,7,29.6c-0.5-8.5-2.1-31.4-5.6-41.6C472.9,259.6,453.3,253.2,453.3,253.2"/>
			<path d="M448.1,272.9l32.6,34.1c0,0-1.1-10-12.2-20C457.5,276.9,448.1,272.9,448.1,272.9"/>
			<path d="M422.1,321c0,0,19.4,22.6,24.8,31.4c5.4,8.8,31.2,35.7,31.2,35.7s-23.9-38.9-34.3-48.8C433.3,329.3,422.1,321,422.1,321"
				/>
			<path d="M405.5,347.6c0,0,5.8,15.2,12.7,20.7c6.9,5.5,24.5,9.3,24.5,9.3s-17.8-11.4-23-16.7C414.5,355.6,405.5,347.6,405.5,347.6
				"/>
			<path d="M449.8,572.1c0,0-1.5,17.6,1,30.4c2.5,12.7,17.6,34.3,17.6,34.3L449.8,572.1"/>
			<path d="M442,597.1c0,0-4.9,18.6-2.5,22.1c2.5,3.4,18.6,14.7,18.6,14.7s-12.3-12.3-14.7-21.1C441,603.9,442,597.1,442,597.1"/>
		</g>
	</g>
	<g>
	</g>
</g>
</svg>
