<?xml version="1.0" encoding="utf-8"?>
<!-- Generator: Adobe Illustrator 27.1.1, SVG Export Plug-In . SVG Version: 6.00 Build 0)  -->
<svg version="1.1" xmlns="http://www.w3.org/2000/svg" xmlns:xlink="http://www.w3.org/1999/xlink" x="0px" y="0px"
	 viewBox="0 0 630 1026" enable-background="new 0 0 771.4 1026" xml:space="preserve">

<g id="OUTLINE">
	<path fill="#FFFFFF" stroke="#897F76" stroke-width="1.3599" stroke-miterlimit="10" d="M294.1,518.8c-0.2-4.7-1.7-12.1-4.1-20.7
		c0-0.1,0-0.1-0.1-0.2c-0.2-0.8-0.5-1.7-0.7-2.6c-0.1-0.2-0.1-0.4-0.2-0.5c-0.2-0.8-0.5-1.6-0.7-2.4c-0.1-0.3-0.1-0.5-0.2-0.8
		c-0.2-0.8-0.4-1.5-0.7-2.3c-0.1-0.5-0.3-1-0.4-1.5c-0.1-0.4-0.2-0.8-0.3-1.1c-0.2-0.6-0.3-1.1-0.5-1.7c0,0,0-0.1,0-0.1
		c0-0.1-0.1-0.3-0.1-0.4c-5.2-17-11.7-36-16.3-50.2c0-0.1,0-0.1-0.1-0.2c-0.3-0.9-0.6-1.8-0.8-2.6c0-0.1,0-0.2-0.1-0.2
		c-0.3-0.9-0.5-1.7-0.8-2.5c0-0.1-0.1-0.3-0.1-0.4c-0.2-0.7-0.5-1.5-0.7-2.2c0-0.1,0-0.1-0.1-0.2c-0.2-0.7-0.4-1.4-0.6-2.1
		c0-0.2-0.1-0.3-0.1-0.5c-0.2-0.7-0.4-1.3-0.6-2c-6.1-22.1-18.4-103.2-8.6-143.8c9.8-40.6,41.8-86,41.8-92.2c0-1.2,0.8-3,2.1-5.2
		c-0.1,0-0.1,0-0.2,0c5.7-9,18.7-22.8,18.7-22.8s51.2,1.2,63.7,11.2c4.3,3.5,15.7,16.7,29,32.7c-0.2-0.1-0.5-0.2-0.7-0.4
		c24.7,29.6,56.9,67.3,60.6,71.7c4.1,4.9,31.1,51,43.8,83.8l0,0c0,0,0,0,0,0c0.5,1.3,1,2.7,1.5,3.9c0,0,0,0,0,0
		c0.5,1.3,0.9,2.5,1.3,3.8c0,0,0,0,0,0h0c1.4,4.2,2.5,8.1,3.1,11.5c0,0,0,0,0,0l0,0c0.3,1.4,0.5,2.7,0.6,4c0.2,1.9,0.3,3.9,0.5,5.9
		c0,0,0,0,0,0l0,0c0.1,1.3,0.2,2.6,0.3,4l0,0c0,0,0,0,0,0c0.1,1.8,0.3,3.7,0.4,5.5c0,0,0,0,0,0l0,0c0.1,1.3,0.2,2.7,0.3,4l0,0
		c0,0,0,0,0,0c0.1,1.8,0.2,3.6,0.3,5.4c0,0,0,0,0,0l0,0c0.7,13.4,0.8,26.5,0.1,36.9c0,0,0,0,0,0l0,0c-0.2,3-0.5,5.8-0.9,8.3
		c0,0,0,0,0,0l0,0c-0.2,1.2-0.4,2.3-0.6,3.4c0,0,0,0,0,0.1c-0.1,0.5-0.2,1-0.3,1.5c-0.1,0.4-0.2,0.8-0.3,1.3c0,0,0,0.1,0,0.1
		c-0.1,0.5-0.2,1-0.2,1.6c-0.1,0.6-0.1,1.2-0.2,1.8c0,0.5-0.1,0.9-0.1,1.4c0,0.1,0,0.1,0,0.2c0,0.5-0.1,1-0.1,1.5c0,0,0,0,0,0.1
		c-0.1,1.1-0.1,2.3-0.2,3.6c0,0.6,0,1.2-0.1,1.9l0,0c0,1.1-0.1,2.2-0.1,3.4c0,0,0,0,0,0c0,1.2,0,2.4-0.1,3.6l0,0c0,0.6,0,1.2,0,1.8
		l0,0c0,1.1,0,2.3,0,3.5c0,0,0,0,0,0.1c0,1.2,0,2.4,0,3.6c0,0.6,0,1.2,0,1.8l0,0c0,1.7,0,3.5,0,5.3c0,1.5,0,3.1,0,4.6l0,0
		c0,1.4,0,2.9,0,4.4c0,1.6,0,3.2,0.1,4.8l0,0c0,1.4,0,2.9,0.1,4.4l0,0c0,1.6,0,3.2,0.1,4.8l0,0c0,0.1,0,0.1,0,0.2c0,1.3,0,2.6,0,4
		c0,0,0,0.1,0,0.1l0,0c0.1,11,0.2,22.1,0,31.9l0,0c0,0,0,0,0,0c-0.1,2.9-0.1,5.7-0.2,8.4l0,0c0,0,0,0,0,0c-0.1,2.9-0.3,5.7-0.4,8.3
		c0,0.1,0,0.2,0,0.3c0,0.5-0.1,1-0.1,1.5c0,0.2,0,0.3,0,0.5c0,0.4-0.1,0.8-0.1,1.2c0,0.2,0,0.4-0.1,0.5c0,0.4-0.1,0.8-0.1,1.1
		c0,0.2,0,0.3-0.1,0.5c-0.1,0.5-0.1,1-0.2,1.5c-3.7,28.3-0.7,120.6-16.9,154.3c0,0-74.6-20.4-131.7,12.7
		c-100.5,58.2-94.4,133.2-96.9,133.1c-2.5,0,19.4-337,19.4-354.2C294.2,519.3,294.1,519,294.1,518.8L294.1,518.8z"/>
</g>
  <g id="MASKR">
<g id="SHIRT_BODY">
	<path fill="#FFFFFF" d="M522.8,379.5c-2.5-27-45.1-100.7-50.4-106.9c-3.7-4.4-36.4-42.6-61.2-72.3c-14-7.4-36.1-18.2-51.5-20.6
		c-16-2.6-42.2-1.3-58.1-0.2c-1.5,2.5-2.5,4.5-2.5,5.9c0,6.1-32,51.6-41.8,92.2c-9.8,40.6,2.5,121.7,8.6,143.8
		c6.1,22.1,28.3,81.1,28.3,98.3c0,17.2-21.9,354.2-19.4,354.2c2.5,0-3.6-74.9,96.9-133.1c57.2-33.1,131.7-12.7,131.7-12.7
		c16.1-33.7,13.2-126,16.9-154.3c3.7-28.3-1.2-104.5,2.5-119.2C526.5,439.7,525.2,406.5,522.8,379.5z"/>
</g>
<g id="SHIRT_BACK_FAUX_PANEL">
	<path fill="#64615E" d="M287.6,489.2c-7-23.9-17.7-53.6-21.7-68c-6.1-22.1-18.4-103.2-8.6-143.8c9.8-40.6,41.8-86,41.8-92.2
		c0-1.3,1-3.4,2.5-5.9c15.9-1.1,42.1-2.4,58.1,0.2c2,0.3,4.2,0.8,6.5,1.4v308.2H287.6z"/>
</g>
<g id="SHIRT_FAUX_PANEL_STRIPES">
	<g>
		<g>
			<g>
				<g>
					<g>
						<path fill="#897F76" d="M254.2,298.7c0.1-1.6,0.3-3.2,0.4-4.8c46.1,2.2,87.5,3.4,109.1,3.4c2.2,0,4.4,0,6.6,0v4.8
							c-2.3,0-4.5,0-6.6,0C342,302.1,300.5,301,254.2,298.7z"/>
					</g>
					<g>
						<path fill="#897F76" d="M255.8,285.1c0.3-2,0.7-3.9,1.1-5.7c45,2.1,85.2,3.2,106.2,3.2c2.4,0,4.8,0,7.3,0v5.8
							c-2.5,0-4.9,0-7.3,0C341.8,288.3,301.2,287.2,255.8,285.1z"/>
					</g>
					<g>
						<path fill="#897F76" d="M258.9,271.5c0.6-2.2,1.3-4.4,2.1-6.6c43.1,1.9,81.3,2.9,101.4,2.9c2.6,0,5.2,0,8,0v6.7
							c-2.7,0-5.4,0-8,0C341.9,274.5,302.8,273.5,258.9,271.5z"/>
					</g>
					<g>
						<path fill="#897F76" d="M263.4,258c1-2.5,2-5.1,3-7.6c40.6,1.8,76.2,2.6,95.3,2.6c2.8,0,5.7,0,8.7-0.1v7.7
							c-3,0-5.9,0.1-8.7,0.1C342.2,260.7,305.3,259.8,263.4,258z"/>
					</g>
					<g>
						<path fill="#897F76" d="M269,244.4c1.3-2.9,2.6-5.7,3.9-8.5c37.6,1.5,70.2,2.3,88.1,2.3c3,0,6.1,0,9.3-0.1v8.6
							c-3.2,0-6.3,0.1-9.3,0.1C342.6,246.9,308.3,246.1,269,244.4z"/>
					</g>
				</g>
			</g>
			<path fill="#897F76" d="M277.7,226.5c7.1,0.2,14.3,0.3,21.6,0.4c24.3,0.2,48.4-0.3,71.1-1.1v6.8c-20.6,0.3-44.2,0.3-71.2,0.1
				c-8.3-0.1-16.4-0.2-24.4-0.4C275.8,230.2,276.7,228.3,277.7,226.5z"/>
			<path fill="#897F76" d="M284,214.6c5,0.1,10.1,0.2,15.3,0.2c24.3,0.2,48.4-0.3,71.1-1.1v6.8c-20.6,0.3-44.2,0.3-71.2,0.1
				c-6.2-0.1-12.3-0.2-18.3-0.3C282,218.3,283,216.4,284,214.6z"/>
		</g>
		<path fill="#897F76" d="M299.1,185.3c0-1.2,0.8-3,2.1-5.2c-0.1,0-0.1,0-0.2,0c2-3.2,4.9-7,7.9-10.6c23.2,0.5,44.1,3.3,61.5,6.6
			v36.9c-22.7,0.9-46.8,1.4-71,1.2c-5.1,0-10.1-0.1-15.1-0.2C292.5,199.1,299.1,188.1,299.1,185.3z"/>
	</g>
</g>
<g id="SHIRT_BACK_STRIPE">
	<path d="M366.2,469.8c0,14.5,0,28.9,0,43.4c-23.8,3-47.9,4.8-72,5.5c-0.3-8.4-5.1-25.3-10.7-43.1
		C311.2,475.2,338.9,473.2,366.2,469.8z"/>
</g>
<g id="SHIRT_CHEVRON_STRIPES">
	<g>
		<path fill="#897F76" d="M418.7,334.3L525,417.6c0,2,0.1,4,0.1,6l-106.4-83.4V334.3z"/>
		<path fill="#897F76" d="M418.7,369.4l104.7,82c-0.2,1.1-0.4,2.2-0.7,3.1c-0.2,0.8-0.4,1.8-0.5,2.9l-103.5-81.3V369.4z"/>
		<path fill="#897F76" d="M418.7,432.7l102.9,81.1c0,1.4,0,2.8,0,4.3l-103-80.8V432.7z"/>
		<path fill="#897F76" d="M418.7,351.5l106.2,83.1c-0.1,2.3-0.2,4.5-0.3,6.6l-105.9-83.1V351.5z"/>
		<path fill="#897F76" d="M418.7,342.5l106.4,83.2c0,2.3,0,4.5-0.1,6.7l-106.3-83.3V342.5z"/>
		<path fill="#897F76" d="M418.7,441.7l103,81.1c0,1.4,0,2.8,0,4.2l-103-80.9V441.7z"/>
		<path fill="#897F76" d="M418.7,360.4l105.8,82.8c-0.2,2.3-0.4,4.4-0.7,6.3l-105-82.4V360.4z"/>
		<path fill="#897F76" d="M418.7,378.3L522,459.2c-0.2,1.9-0.3,4.2-0.4,6.7l-102.9-80.8V378.3z"/>
		<path fill="#897F76" d="M418.7,405.1l102.6,80.5c0,1.7,0,3.5,0,5.3l-102.6-80.5V405.1z"/>
		<path fill="#897F76" d="M418.7,396.1l102.6,80.5c0,2.3,0,4.7,0,7.2L418.7,403V396.1z"/>
		<path fill="#897F76" d="M418.7,414.6l102.7,80.9c0,1.5,0,2.9,0,4.4l-102.7-80.6V414.6z"/>
		<path fill="#897F76" d="M418.7,387.2l102.8,80.6c-0.1,2.2-0.1,4.5-0.2,7l-102.7-80.7V387.2z"/>
		<path fill="#897F76" d="M418.7,423.6l102.8,81c0,1.4,0,2.9,0.1,4.4l-102.8-80.7V423.6z"/>
		<path fill="#897F76" d="M418.7,289l101.8,79.8c0.7,2.4,1.3,4.7,1.7,6.7l-103.5-81V289z"/>
		<path fill="#897F76" d="M418.7,468.8l103,81.1c0,1.3-0.1,2.6-0.1,3.9l-102.9-80.7V468.8z"/>
		<path fill="#897F76" d="M418.7,450.7l103.1,81.2c0,1.4,0,2.7,0,4.1l-103.1-80.9V450.7z"/>
		<path fill="#897F76" d="M418.7,279.9l97.5,76.5c1,2.7,2,5.3,2.8,7.7l-100.3-78.5V279.9z"/>
		<path fill="#897F76" d="M418.7,307.1l104.9,82.2c0.1,1.8,0.3,3.7,0.4,5.5l-105.3-82.4V307.1z"/>
		<path fill="#897F76" d="M418.7,298.1l104.1,81.6c0.2,1.9,0.3,3.8,0.5,5.7l-104.6-81.8V298.1z"/>
		<path fill="#897F76" d="M418.7,316.2l105.5,82.7c0.1,1.8,0.2,3.6,0.3,5.4l-105.8-82.8V316.2z"/>
		<path fill="#897F76" d="M418.7,325.2l106,83.1c0.1,1.8,0.1,3.5,0.2,5.2l-106.2-83.1V325.2z"/>
		<path fill="#897F76" d="M418.7,459.8L521.8,541c0,1.3,0,2.7,0,4l-103-80.9V459.8z"/>
		<g>
			<path fill="#897F76" d="M418.7,477.4l102.7,80.9c-0.2,5.9-0.6,11.2-1.1,15.4c0,0.1,0,0.2,0,0.4l-101.6-74.8V477.4z"/>
			<path fill="#897F76" d="M418.7,477.4l102.7,80.9c-0.2,5.9-0.6,11.2-1.1,15.4c0,0.1,0,0.2,0,0.4l-101.6-74.8V477.4z"/>
		</g>
	</g>
</g>
<g id="SHIRT_ACCENT_STRIPES">
	<g>
		<rect x="414.9" y="251.7" width="7.2" height="472"/>
	</g>
</g>
    </g>
  <g id="CUSTOM">
</g>
  <g id="SHIRT_COLLAR">
	<path fill="#64615E" d="M360.1,180.3c15.7,2.5,38.2,13.4,52.4,21c-13.3-16-24.7-29.2-29-32.7c-12.5-10-63.7-11.2-63.7-11.2
		s-13,13.8-18.7,22.8C317.1,178.9,343.8,177.7,360.1,180.3z"/>
</g>

<g id="SHIRT_SLEEVES">
	<g>
		
			<image overflow="visible" opacity="0.2" width="180" height="256" xlink:href="/svg/SBDUS69/1B836BF5.png"  transform="matrix(1 0 0 1 275.3222 192.2422)">
		</image>
		<g>
			<path fill="#897F76" d="M439,286.9c-1-29.6-8.8-68.8-49.3-76.4c-40.5-7.6-64.9,4.8-64.9,4.8s-13,5.2-19.7,22.1
				c-6.7,16.9-13.7,43.9-14,56.2c-0.9,28.7,6.2,66,6,74.7c-0.2,8.7-2.6,51.1-2.6,51.1s8,10.6,68.2,12.5
				c60.9,1.9,67.7-11.6,67.7-11.6s-1.3-56.4,0.2-64C432.1,348.7,440,316.5,439,286.9z"/>
			<path fill="none" stroke="#897F76" stroke-width="1.3599" d="M439,286.9c-1-29.6-8.8-68.8-49.3-76.4c-40.5-7.6-64.9,4.8-64.9,4.8
				s-13,5.2-19.7,22.1c-6.7,16.9-13.7,43.9-14,56.2c-0.9,28.7,6.2,66,6,74.7c-0.2,8.7-2.6,51.1-2.6,51.1s8,10.6,68.2,12.5
				c60.9,1.9,67.7-11.6,67.7-11.6s-1.3-56.4,0.2-64C432.1,348.7,440,316.5,439,286.9z"/>
		</g>
	</g>
</g>
<g id="SHIRT_STITCH">
	<g opacity="0.4">
		<path fill="#6C6361" d="M369,734.6l0,0.1c-0.1,0.1-0.2,0.2-0.2,0.3c-0.3,0.5-0.3,1.2-0.2,2.2l0.3-0.1c-0.1-0.7-0.1-1.3,0.1-1.7
			l0,0l0.1,0l0,1.7l0.3,0l0-1.6l2,1.1l0,0.7l0.3,0l0-0.5l2.5,1.3l0.1-0.4l-0.3-0.2l0,0l0-2.4c0.5,0,1,0,1.4,0l0.6,0.3l0,2.3l0.3,0
			l0-2.1l0.1,0c0,0.1,0.1,0.1,0.1,0.2c0.2,0.5,0.2,1.2,0,2.2l0.3,0.2c0.3-1.1,0.3-2,0-2.7l0-0.2l-0.3-0.1c-0.1-0.1-0.1-0.2-0.2-0.3
			l0-0.1c0.5-0.2,0.8-0.5,0.9-1c0.2-0.6,0-1.2-0.4-2.1l0-0.2l-0.2-0.1c-0.1-0.1-0.1-0.2-0.2-0.3c0,0-0.1-0.1-0.2-0.1
			c0.7-0.9,1-1.6,0.8-2.3c-0.1-0.4-0.2-0.7-0.5-0.9l0,0l0.1-0.4l-0.5-0.3l0,0c0.3-0.2,0.6-0.4,0.7-0.8c0.2-0.6,0.1-1.4-0.4-2.3
			c0,0-0.1-0.1-0.1-0.1l0.1,0.1l0.1-0.4l-0.4-0.2c0.5-0.6,0.7-1.2,0.6-1.7c-0.1-0.5-0.4-0.9-0.8-1.2l0-0.3c0,0,0.1-0.1,0.1-0.1
			c0.3-0.3,0.4-0.9,0.5-1.5l-0.3,0c0,0.5-0.1,0.8-0.3,1.1l0-0.9l-0.3,0l0,1.2c-0.1,0.1-0.2,0.1-0.3,0.2c-0.6-0.3-1.2-0.5-1.3-0.5
			c-0.1,0-0.3,0-0.4,0l0-1l-0.3,0l0,1c-0.4,0-0.9,0-1.3,0c-0.2,0-0.4,0-0.5,0c0,0-0.1,0-0.1,0l0-1.1l-0.3,0l0,1
			c-0.5-0.1-1-0.2-1.4-0.1c-0.2-0.1-0.4-0.1-0.5-0.2l0-0.9l-0.3,0l0,0.7c-0.1-0.1-0.2-0.1-0.2-0.1l-0.1,0.4c0.1,0.1,0.2,0.1,0.4,0.2
			l0,0.3c-0.2,0.2-0.3,0.4-0.4,0.7c-0.2,0.9-0.2,1.6,0,2.2c0.1,0.2,0.2,0.4,0.4,0.5l0,0.5c-0.3,0.2-0.5,0.4-0.6,0.8
			c-0.1,0.6,0.1,1.3,0.7,2.1l0,0.4c0,0,0,0,0,0c-0.5,0.8-0.7,1.6-0.6,2.3c0.1,0.4,0.3,0.8,0.7,1l0,0.8c-0.3,0.2-0.6,0.5-0.7,0.9
			C368.1,732.7,368.3,733.5,369,734.6C369,734.5,369,734.6,369,734.6z M369,731.6l0,0.1l0.1,0l0,2.1c-0.3-0.6-0.6-1.2-0.4-1.7
			C368.6,732,368.8,731.8,369,731.6z M375.6,720.8l0,2.4l-2-1.1l0-1.6c0.6,0.1,1.2,0.2,1.6,0C375.4,720.7,375.5,720.8,375.6,720.8z
			 M372.2,720.2c0.4,0.1,0.8,0.2,1.1,0.3l0,1.5l-2-1.1l0-0.9c0,0,0.1,0,0.1,0C371.7,720.1,372,720.1,372.2,720.2z M369.3,731.5
			c0.4-0.2,0.9-0.3,1.5-0.4c0.1,0,0.3,0.1,0.4,0.1l0,1.4L369.3,731.5L369.3,731.5z M371.4,721.4l2,1.1l0,0.8c-0.7-0.1-1.3-0.1-2-0.1
			L371.4,721.4z M373.6,722.7l1.5,0.8c-0.2,0-0.5,0-0.7-0.1c-0.3,0-0.5-0.1-0.8-0.1L373.6,722.7z M373.4,723.9l0,2l-2-1.1l0-0.9
			c0.5,0,1,0,1.6,0C373.1,723.9,373.2,723.9,373.4,723.9z M373.4,726.4l0,0.4c-0.6-0.1-1.3-0.2-2-0.3l0-1.2L373.4,726.4z
			 M372.4,727.2c-0.3,0-0.6-0.1-0.9-0.1C371.9,727.1,372.1,727.1,372.4,727.2z M373.7,726.6l1,0.6c-0.3-0.1-0.7-0.2-1-0.3
			L373.7,726.6z M373.4,730.1l-2-1.1l0-1.5c0.6,0.1,1.3,0.2,2,0.2L373.4,730.1z M373.4,730.6L373.4,730.6c-0.7,0-1.3,0-2,0l0-1.1
			L373.4,730.6z M373.4,731.5l0,2.3l-2-1.1l0-1.4C372.1,731.4,372.8,731.5,373.4,731.5z M370.7,730.6c-0.6-0.2-1.1-0.4-1.5-0.6
			l0-1.7l2,1.1l0,1.2C371,730.6,370.9,730.6,370.7,730.6z M369.2,727.3c0.3-0.1,1.1,0.1,1.9,0.2c0,0,0.1,0,0.1,0l0,1.4l-2-1.1
			L369.2,727.3z M369.2,726.3l0-2.2l2,1.1l0,1.3c-0.3,0-0.7-0.1-1.1-0.1C369.7,726.4,369.3,726.4,369.2,726.3
			C369.2,726.4,369.2,726.3,369.2,726.3z M369.6,723.8c0.1,0,0.2-0.1,0.4-0.1c0.4,0.1,0.8,0.2,1.2,0.2l0,0.8L369.6,723.8z
			 M369.9,723.3c-0.3-0.1-0.6-0.2-0.8-0.4l0-2.7l2,1.1l0,1.9C370.7,723.2,370.3,723.2,369.9,723.3z M369.7,719.8
			c0.5,0.1,0.9,0.2,1.4,0.2l0,0.8l-1.7-0.9C369.5,719.8,369.6,719.8,369.7,719.8z M375.6,724.1l0,2.9c-0.1,0-0.1,0-0.2,0.1l-1.7-1
			l0-2.2C374.4,723.9,375.2,723.9,375.6,724.1z M375.6,728l0,2.9c-0.2,0-0.6,0-1-0.1l-1-0.6l0-2.6c0.4,0,0.7,0,1.1-0.1
			C375.1,727.8,375.4,727.9,375.6,728z M375.7,731.9l0,2.8c-0.1,0-0.2,0.1-0.3,0.1c-0.2-0.1-0.4-0.2-0.7-0.2l-1-0.5l0-2.4
			c0.3,0,0.5,0,0.8,0.1c0.3,0,0.6,0,0.8,0.1L375.7,731.9z M372.1,734.5c-0.2,0-0.4-0.1-0.6-0.1l0-1.2l2,1.1l0,0.2
			C373,734.5,372.5,734.5,372.1,734.5C372.1,734.5,372.1,734.5,372.1,734.5z M369.4,734.4c0,0-0.1,0-0.1-0.1l0-2.4l2,1.1l0,1.3
			C370.6,734.2,369.9,734.2,369.4,734.4z M369.2,730.5c0.2,0.1,0.3,0.2,0.6,0.3c-0.2,0.1-0.4,0.1-0.5,0.2L369.2,730.5z M368.9,727.6
			l0,0.3l0,0.2l0,0l0,1.6c-0.2-0.2-0.3-0.4-0.4-0.7C368.5,728.7,368.6,728.2,368.9,727.6z M368.9,724.1l0,1.8
			c-0.3-0.5-0.5-1-0.4-1.3C368.6,724.4,368.7,724.3,368.9,724.1z M369.2,723.4C369.2,723.4,369.2,723.5,369.2,723.4
			C369.2,723.5,369.2,723.5,369.2,723.4L369.2,723.4z M368.8,720.6c0-0.1,0.1-0.2,0.1-0.2l0,2.2c0-0.1-0.1-0.1-0.1-0.2
			C368.6,721.9,368.6,721.4,368.8,720.6z M373.3,720.1L373.3,720.1C373.3,720.1,373.3,720.1,373.3,720.1
			C373.3,720.1,373.3,720.1,373.3,720.1z M374.4,720.2c-0.2,0-0.5-0.1-0.8-0.1l0,0c0.1,0,0.2,0,0.4,0
			C374.1,720.2,374.2,720.2,374.4,720.2z M375.9,723.1l0-2c0.2,0.2,0.4,0.5,0.5,0.8C376.4,722.3,376.2,722.7,375.9,723.1z
			 M375.9,726.8l0-2.5c0,0,0.1,0.1,0.1,0.2c0.4,0.8,0.5,1.4,0.4,1.8C376.3,726.5,376.1,726.7,375.9,726.8z M376,730.7l0-2.5
			c0.3,0.2,0.6,0.5,0.6,0.9C376.6,729.6,376.3,730.2,376,730.7z M376,734.5l0-2.5l0.2,0.1c0.4,0.7,0.6,1.3,0.5,1.7
			C376.6,734,376.4,734.3,376,734.5z M371.5,736.4l0-1.3c0.2,0,0.4,0,0.5,0c0,0,0,0,0,0c0.4,0.1,0.7,0.2,0.9,0.2l0.1,0
			c0.1,0,0.2,0,0.4,0l0,2.2L371.5,736.4z M369.3,735.1l0-0.2c0,0,0.1,0,0.1-0.1c0.4,0.2,1.1,0.2,1.8,0.2l0,1.2L369.3,735.1z"/>
		<path fill="#6C6361" d="M368,668.2c0,1.3,0.2,2,0.4,2.3c-0.2,0.3-0.3,0.8-0.3,1.9c0,0.8,0.1,1.3,0.3,1.6c0,0,0,0,0.1,0.1l0,0.2
			c-0.2,0.2-0.4,0.7-0.4,1.9c0,1,0.2,1.6,0.4,1.9c-0.2,0.3-0.3,0.9-0.3,2.1c0,0.9,0.1,1.5,0.3,1.7c0,0-0.1,0-0.1,0.1
			c-0.2,0.3-0.3,0.9-0.3,1.8c0,1,0.1,1.6,0.3,1.9c-0.1,0.3-0.2,0.8-0.2,1.5c0,1.2,0.2,1.7,0.4,2l0,0.5c0,0-0.1,0-0.1,0.1
			c-0.2,0.3-0.3,0.9-0.3,1.8c0,0.9,0.1,1.5,0.3,1.9c-0.2,0.4-0.3,1-0.3,1.8c0,1,0.1,1.6,0.4,2c0,0.1,0.1,0.1,0.1,0.1l0,0.4
			c0,0-0.1,0-0.1,0.1c-0.2,0.3-0.3,0.8-0.3,1.5c0,1,0.2,1.6,0.4,1.9c-0.2,0.3-0.3,0.9-0.3,1.9c0,1.1,0.2,1.6,0.4,1.9l0,0.2l0.1,0
			l0,0c0,0-0.1,0.1-0.1,0.1c-0.2,0.4-0.3,0.9-0.3,1.7c0,1,0.2,1.5,0.4,1.9c-0.2,0.3-0.3,0.9-0.3,1.8c0,0.8,0.1,1.4,0.3,1.7
			c0,0,0.1,0.1,0.1,0.1l0,0.1l0,0.1c0,0,0,0,0,0.1c-0.2,0.3-0.3,0.9-0.3,1.6c0,0.9,0.2,1.4,0.4,1.7c-0.2,0.3-0.4,0.7-0.4,1.7l0.3,0
			c0-0.5,0.1-0.9,0.1-1.1l0,1.3l0.3,0l0-1.5c0.1,0,0.1,0.1,0.1,0.1l1.8,0.2l0,1.5l0.3,0l0-1.5l2,0.2l0,1.5l0.3,0l0-1.4l2,0.2l0,1.5
			l0.3,0l0-1.4l0.4,0.3l0.1-0.4l-0.2-0.2c0,0,0,0,0-0.1l0.1,0l0.1-0.4l0,0c0-0.3,0.1-0.6,0.1-1c0-0.9-0.1-1.5-0.2-1.9l0.1,0l0.1-0.4
			l-0.2-0.1c0.1-0.3,0.3-0.8,0.2-1.7c0-0.8-0.1-1.3-0.3-1.6c-0.1-0.1-0.2-0.1-0.2-0.1l0,0c0.1,0,0.2-0.1,0.3-0.3l0.1,0.1l0.1-0.4
			l-0.1,0c0.1-0.3,0.1-0.7,0.1-1.3c0-1-0.2-1.6-0.4-1.9c0,0,0-0.1,0-0.1l0.2,0.1l0.1-0.4l-0.1-0.1c0.1-0.4,0.1-0.8,0.1-1.5
			c0-0.5,0-0.9-0.1-1.2l0.1-0.4l-0.2-0.1c0,0,0,0,0,0c0.2-0.3,0.3-0.9,0.3-1.8c0-0.7-0.1-1.2-0.2-1.6l0-0.2l-0.1-0.1
			c0-0.1,0-0.1,0-0.2c0.1-0.3,0.2-0.8,0.2-1.5c0-0.9-0.1-1.4-0.3-1.7l0.1,0.1l0.1-0.4l-0.5-0.3l0-0.1c0.1,0,0.1,0,0.2-0.2
			c0.2-0.3,0.3-0.9,0.3-1.8c0-0.6-0.1-1.1-0.1-1.4l0.1-0.4l-0.2-0.1c0.2-0.4,0.3-0.9,0.2-1.7c0-0.7-0.1-1.2-0.2-1.6l0.1-0.4
			l-0.5-0.3l0-0.1c0.1,0,0.2-0.1,0.3-0.2c0.2-0.3,0.3-0.8,0.3-1.5c0-0.6-0.1-1-0.2-1.3l0.1-0.3l-0.2-0.1c0-0.1-0.1-0.1-0.1-0.2
			c0.2-0.3,0.3-0.9,0.3-1.9c0-0.5-0.1-0.9-0.1-1.2l0.1-0.3l-0.2-0.1c-0.1-0.2-0.2-0.4-0.3-0.4c0.1-0.1,0.1-0.1,0.2-0.2
			c0.2-0.4,0.3-0.9,0.3-1.7c0-0.6-0.1-1-0.2-1.4l0.1-0.3l-0.3-0.1c0,0,0,0,0,0c0.2-0.3,0.3-0.9,0.3-1.8c0-0.8-0.1-1.3-0.3-1.6
			l0.1,0.1l0.1-0.4l-0.3-0.1c0.2-0.3,0.3-0.8,0.3-1.5c0-0.9-0.2-1.4-0.4-1.7c0.2-0.3,0.4-0.7,0.4-1.7l-0.3,0c0,0.8-0.2,1.2-0.3,1.4
			l0-1.1l-0.3,0l0,1l-2-0.2l0-1l-0.3,0l0,1l-2-0.2l0-1l-0.3,0l0,1l-2-0.2l0-1l-0.3,0l0,0.8l-0.2-0.2l-0.1,0.4l0.2,0.2
			C368,666.9,368,667.4,368,668.2z M368.9,694.7l2,1.1l0,1.3l-2-0.2L368.9,694.7z M368.8,682.2l2,0.2l0,1.2l-2-1.1L368.8,682.2z
			 M368.8,686.1l2,0.2l0,1.1l-2-1.1L368.8,686.1z M371.2,698.2l2,0.2l0,1.8l-2-1.1L371.2,698.2z M370.9,699l-1.8-1l1.8,0.2
			L370.9,699z M369.1,705.3l1.8,1l0,2.3l-1.9-0.2l0,0c0,0,0,0,0,0l0-3C369.1,705.3,369.1,705.3,369.1,705.3L369.1,705.3z
			 M373.3,716.1l-2-0.2l0-1.8l2,1.1L373.3,716.1z M373.6,715.4l1.6,0.9l-1.6-0.2L373.6,715.4z M373.2,705.7l0,1.4l-2-1.1l0-0.5
			L373.2,705.7z M373.2,707.6l0,1.2l-2-0.2l0-2.1L373.2,707.6z M375.5,712.6l-2-1.1l0-1.8l2,0.2L375.5,712.6z M373.5,712.5l0-0.5
			l1.1,0.6L373.5,712.5z M373.3,713.2l0,1.6l-2-1.1l0-0.7L373.3,713.2z M371,713.5l-1.2-0.7l1.2,0.1L371,713.5z M371.1,715.9
			l-1.9-0.2c0,0,0,0-0.1,0l0-2.8l2,1.1L371.1,715.9z M371.3,712.3l0-1.5l2,1.1l0,0.6L371.3,712.3z M371.3,710.3l0-0.8l2,0.2l0,1.7
			L371.3,710.3z M371,710.1l-1.4-0.8l1.4,0.1L371,710.1z M370.2,705.4l0.7,0.1l0,0.3L370.2,705.4z M371.2,704.8l0-2l2,1.1l0,1.1
			L371.2,704.8z M371.2,702.3l0-0.6l2,0.2l0,1.5L371.2,702.3z M373.4,701.2l0-0.4l0.8,0.5L373.4,701.2z M370.9,702.2l-1-0.6l1,0.1
			L370.9,702.2z M371.2,701l0-1.4l2,1.1l0,0.5L371.2,701z M371.2,697.7l0-0.2l2,0.2l0,0.2L371.2,697.7z M375.3,697.5l-0.6-0.1
			l-1.3-0.7l0-2.2l2,0.2L375.3,697.5z M374.3,694l0.4,0.2l-1.4-0.1l0-0.2L374.3,694z M373.6,697.3l-0.3,0l0-0.1L373.6,697.3z
			 M375,698.1l-1.6-0.2l0-0.2l1.3,0.1L375,698.1z M371.2,697.1l0-1.1l2,1.1l0,0.2L371.2,697.1z M371.1,695.5l0-1.2l2,0.2l0,2.1
			L371.1,695.5z M370.9,695.3l-2-1.1l0-0.2l2,0.2L370.9,695.3z M368.9,693.6l0-0.2c0,0,0,0,0,0c0,0,0,0,0,0l1.9,0.2l0,0.2
			L368.9,693.6C368.9,693.6,368.9,693.6,368.9,693.6z M371.1,693.6l2,0.2l0,0.2l-2-0.2L371.1,693.6z M371.1,693.2l0-1l2,1.1l0,0.1
			L371.1,693.2z M371.1,691.7l0-1.4l2,0.2l0,2.3L371.1,691.7z M371.1,689.8l0-0.2l2,0.2l0,0.2L371.1,689.8z M374.3,686l0.4,0.2
			l-1.4-0.1l0-0.2L374.3,686z M373.3,685.4L373.3,685.4L373.3,685.4L373.3,685.4z M373.3,688.7l0-2.2l2,0.2l0,2.8l-0.6-0.1
			L373.3,688.7z M373.6,689.4l-0.3,0l0-0.1L373.6,689.4z M375,690.1l-1.6-0.2l0-0.2l1.3,0.1L375,690.1z M371.1,689.1l0-1.1l2,1.1
			l0,0.3L371.1,689.1z M371.1,687.5l0-1.2l2,0.2l0,2.1L371.1,687.5z M368.8,685.5C368.8,685.5,368.8,685.5,368.8,685.5l2,0.2l0,0.2
			l-2-0.2L368.8,685.5z M371,685.7l2,0.2l0,0.2l-2-0.2L371,685.7z M371,685.2l0-1l2,1.1l0,0.1L371,685.2z M371,683.7l0-1.3l2,0.2
			l0,2.2L371,683.7z M373.2,681.9l0-0.1l0.3,0.2L373.2,681.9z M371,681.7l0-1.1l2,1.1l0,0.3L371,681.7z M371,680l0-1.4l2,0.2l0,2.3
			L371,680z M375.1,670.6l-2-1.1l0-1.8l2,0.2L375.1,670.6z M373.1,670.6l0-0.6l1.4,0.8L373.1,670.6z M375.1,671.5l0,2.7l-0.5,0
			l-1.5-0.8l0-2.1L375.1,671.5z M373.2,674.1l0-0.2l0.4,0.2L373.2,674.1z M375.1,675.2l0,3.1l-0.9-0.1l-1.1-0.6l0-2.6L375.1,675.2z
			 M371,677.9l0-1l2,1.1l0,0.1L371,677.9z M371,676.4l0-1.6l2,0.2l0,2.5L371,676.4z M370.7,676.2l-2-1.1l0-0.5l2,0.2L370.7,676.2z
			 M370.9,673.9l0-1.2l2,1.1l0,0.3L370.9,673.9z M370.9,672.2l0-1.1l2,0.2l0,2L370.9,672.2z M370.9,670.4l0-1.7l2,1.1l0,0.8
			L370.9,670.4z M370.9,668.3l0-0.8l2,0.2l0,1.7L370.9,668.3z M370.6,668.1l-1.5-0.8l1.5,0.1L370.6,668.1z M375.2,679.2l0,2.9
			l-0.6-0.1l-1.4-0.7l0-2.5l1.5,0.2L375.2,679.2z M375.2,685.6l-0.9-0.1l-1.1-0.6l0-2.3l1.8,0.2l0.1,0.1L375.2,685.6z M375.8,688.5
			c0,0.7-0.1,1.1-0.2,1.4c-0.1-0.1-0.1-0.2-0.1-0.2l0-2.8C375.6,686.9,375.8,687.2,375.8,688.5z M375.3,693.6l-0.9-0.1l-1-0.6l0-2.5
			l2,0.2L375.3,693.6z M375.6,695c0.1,0.2,0.3,0.7,0.3,1.6c0,0.5,0,0.8-0.1,1.1c0,0-0.1-0.1-0.1-0.1l0,0l0,0L375.6,695z
			 M375.4,701.4L375.4,701.4l-2-1.1l0-2l2,0.2L375.4,701.4z M375.4,704.7l-2-1.1l0-1.6l2,0.2L375.4,704.7z M375.4,705.2L375.4,705.2
			l-2-0.1l0-1L375.4,705.2z M375.5,708.3l-2-1.1l0-1.5l2,0.2L375.5,708.3z M375.5,708.8l0,0.2l-2-0.2l0-1.1L375.5,708.8z M375.5,716
			l-2-1.1l0-1.7l2,0.2L375.5,716z M369,709.5l2,1.1l0,1.6l-2-0.2L369,709.5z M369,701.6l2,1.1l0,2.1l-2-0.2L369,701.6z M368.9,698.4
			l2,1.1l0,1.5l-2-0.2L368.9,698.4z M368.9,697.5l0-0.2l2,0.2l0,0.2L368.9,697.5C369,697.5,368.9,697.5,368.9,697.5z M368.9,693l0-2
			l2,1.1l0,1.1L368.9,693C368.9,693,368.9,693,368.9,693z M368.9,690l2,0.2l0,1.3l-2-1.1L368.9,690z M368.8,689.6l0-0.2l2,0.2l0,0.2
			L368.8,689.6z M368.8,686.7l2,1.1l0,1.3l-1.9-0.2c0,0,0,0,0,0L368.8,686.7z M368.8,685l0-2.1l2,1.1l0,1.2L368.8,685
			C368.8,685,368.8,685,368.8,685z M368.7,679.3l2,1.1l0,1.3l-2-0.2L368.7,679.3z M368.7,678.8l0-0.4c0,0,0,0,0,0l1.9,0.2l0,1.3
			L368.7,678.8z M368.7,677.7l0-2.1l2,1.1l0,1.2L368.7,677.7L368.7,677.7C368.7,677.7,368.7,677.7,368.7,677.7z M368.7,671.4l2,1.1
			l0,1.3l-2-0.2l0,0L368.7,671.4z M368.7,671L368.7,671l2,0.2l0,0.9L368.7,671z M368.6,667.5l2,1.1l0,1.8l-2-0.2L368.6,667.5z
			 M375.6,669.4c0,0.6-0.1,1-0.2,1.3c0,0,0,0,0,0l0-2.7C375.5,668.2,375.6,668.6,375.6,669.4z M375.7,673c0,0.8-0.1,1.2-0.2,1.5
			c0,0,0,0,0,0l0-2.9c0,0,0,0,0.1,0.1C375.5,671.8,375.6,672.1,375.7,673z M375.5,678.1C375.5,678.1,375.5,678.1,375.5,678.1
			l-0.1-2.9l0.1,0c0.1,0.3,0.3,0.7,0.3,1.5C375.7,677.3,375.7,677.8,375.5,678.1z M375.7,680.6c0,0.8-0.1,1.3-0.2,1.5l0-2.8l0.1,0.1
			C375.7,679.7,375.7,680,375.7,680.6z M375.5,685.6l0-2.6l0.1,0.1c0.1,0.3,0.2,0.7,0.2,1.3C375.8,685.2,375.7,685.4,375.5,685.6
			C375.6,685.6,375.5,685.6,375.5,685.6z M375.6,693.6l0-3c0,0,0,0,0.1,0c0.1,0.3,0.2,0.8,0.2,1.6
			C375.8,693.2,375.7,693.5,375.6,693.6z M376,700c0,1.2-0.2,1.5-0.3,1.5l0,0l0-2.9c0,0,0.1,0,0.1-0.1l0.1,0.1
			C375.9,698.8,376,699.3,376,700z M375.8,704.9L375.8,704.9l-0.1-2.7c0,0,0,0,0,0c0,0,0.2,0.3,0.2,1.4
			C375.9,704.1,375.9,704.6,375.8,704.9z M375.9,708.6l-0.2-0.1l0-2.6c0.1,0.2,0.3,0.6,0.3,1.5C376,708,375.9,708.3,375.9,708.6z
			 M376,711.2c0,0.9-0.1,1.3-0.2,1.5c0,0,0,0,0,0l0-2.8c0,0,0,0,0.1,0C375.9,710.1,376,710.4,376,711.2z M376,716.3l-0.2-0.1l0-2.7
			c0.1,0.3,0.3,0.9,0.3,2C376.1,715.9,376,716.1,376,716.3z M368.8,713.4l0,1.9c-0.1-0.2-0.1-0.6-0.1-1
			C368.7,713.9,368.7,713.6,368.8,713.4z M368.7,710.6c0-0.5,0-0.9,0.1-1.1l0,2.2C368.7,711.5,368.7,711.2,368.7,710.6z
			 M368.7,705.8l0,2.4c-0.1-0.3-0.2-0.7-0.2-1.2C368.6,706.5,368.6,706.1,368.7,705.8z M368.6,703c0-0.5,0-0.8,0.1-1.1l0,2.1
			C368.6,703.8,368.6,703.5,368.6,703z M368.6,698.2L368.6,698.2l0.1,2.2c-0.1-0.3-0.2-0.7-0.2-1.2
			C368.5,698.7,368.5,698.4,368.6,698.2z M368.5,695.2c0-0.7,0.1-1.1,0.1-1.3l0,0.5l0,0.2l0.1,0l0,2
			C368.5,696.3,368.5,695.9,368.5,695.2z M368.6,690.3l0,0.2l-0.1,0.3l0.1,0l0,2c-0.1-0.3-0.1-0.7-0.1-1.2
			C368.5,690.9,368.5,690.5,368.6,690.3z M368.4,687.1c0-0.5,0-0.9,0.1-1.1c0,0,0,0,0,0l0,0.3l0,0.2l0.1,0l0,1.7
			C368.5,688,368.4,687.6,368.4,687.1z M368.3,683.7c0-0.7,0.1-1.1,0.1-1.3l0,0.2l0,0.2l0,0l0,2.4c0,0,0,0,0,0
			C368.4,684.9,368.4,684.4,368.3,683.7z M368.4,680.1c0-0.4,0-0.7,0-1l0,0l0,1.9C368.4,680.9,368.4,680.6,368.4,680.1z M368.4,675
			l0,0.2l0,0.2l0.1,0l0,1.8c-0.1-0.3-0.1-0.6-0.1-1.1C368.3,675.6,368.4,675.3,368.4,675z M368.3,672.4c0-0.5,0-0.9,0.1-1.1l0,0
			l0,2.1C368.3,673.2,368.3,672.9,368.3,672.4z M368.2,668.2c0-1,0.1-1.1,0.1-1.1l0,0l0,0.2l0.1,0l0,2.3
			C368.3,669.3,368.3,668.8,368.2,668.2z"/>
		<path fill="#6C6361" d="M367.5,615.6c0,1.3,0.2,2,0.4,2.3c-0.2,0.3-0.3,0.8-0.3,1.9c0,0.8,0.1,1.3,0.3,1.6c0,0,0,0,0.1,0l0,0.2
			c-0.2,0.2-0.4,0.7-0.4,1.9c0,1,0.2,1.6,0.4,1.9c-0.2,0.3-0.3,0.9-0.3,2.1c0,0.9,0.1,1.4,0.3,1.7c0,0-0.1,0-0.1,0.1
			c-0.2,0.3-0.3,0.9-0.3,1.8c0,1,0.1,1.6,0.3,1.9c-0.1,0.3-0.2,0.8-0.2,1.5c0,1.1,0.2,1.7,0.4,2l0,0.6c0,0-0.1,0-0.1,0.1
			c-0.2,0.3-0.3,0.9-0.3,1.8c0,0.9,0.1,1.5,0.3,1.9c-0.2,0.4-0.3,1-0.3,1.8c0,1,0.1,1.6,0.4,1.9c0,0.1,0.1,0.1,0.1,0.1l0,0.4
			c0,0-0.1,0-0.1,0.1c-0.2,0.3-0.3,0.8-0.3,1.5c0,1,0.2,1.6,0.4,1.9c-0.2,0.3-0.3,0.9-0.3,1.9c0,1.1,0.2,1.6,0.4,1.9l0,0.2l0.1,0
			l0,0c0,0-0.1,0.1-0.1,0.1c-0.2,0.4-0.3,0.9-0.3,1.7c0,1,0.2,1.5,0.4,1.9c-0.2,0.3-0.3,0.9-0.3,1.8c0,0.8,0.1,1.4,0.3,1.7
			c0,0,0.1,0.1,0.1,0.1l0,0.1l0,0.1c0,0,0,0,0,0.1c-0.2,0.3-0.3,0.9-0.3,1.6c0,0.9,0.2,1.4,0.4,1.7c-0.2,0.3-0.4,0.7-0.4,1.7l0.3,0
			c0-0.5,0.1-0.9,0.1-1.1l0,1.3l0.3,0l0-1.5c0.1,0,0.1,0.1,0.1,0.1l1.8,0.2l0,1.5l0.3,0l0-1.4l2,0.2l0,1.5l0.3,0l0-1.5l2,0.2l0,1.5
			l0.3,0l0-1.4l0.4,0.3l0.1-0.4l-0.2-0.2c0,0,0,0,0-0.1l0.1,0l0.1-0.4l0,0c0-0.3,0.1-0.6,0.1-1c0-0.9-0.1-1.5-0.2-1.9l0.1,0l0.1-0.4
			l-0.2-0.1c0.1-0.3,0.3-0.8,0.2-1.7c0-0.8-0.1-1.3-0.3-1.6c-0.1-0.1-0.2-0.1-0.2-0.2l0,0c0.1,0,0.2-0.1,0.3-0.3l0.1,0.1l0.1-0.4
			l-0.1,0c0.1-0.3,0.1-0.7,0.1-1.3c0-1-0.2-1.6-0.4-1.9c0,0,0-0.1,0-0.1l0.2,0.1l0.1-0.4l-0.1-0.1c0.1-0.4,0.1-0.8,0.1-1.5
			c0-0.5,0-0.9-0.1-1.2l0.1-0.4l-0.2-0.1c0,0,0,0,0,0c0.2-0.3,0.3-0.9,0.3-1.8c0-0.7-0.1-1.2-0.2-1.6l0-0.2l-0.1-0.1
			c0-0.1,0-0.1,0-0.2c0.1-0.3,0.2-0.8,0.2-1.5c0-0.9-0.1-1.4-0.3-1.8l0.1,0.1l0.1-0.4l-0.5-0.3l0-0.1c0.1,0,0.1,0,0.2-0.2
			c0.2-0.3,0.3-0.9,0.3-1.8c0-0.6-0.1-1.1-0.1-1.5l0.1-0.4l-0.2-0.1c0.2-0.4,0.3-0.9,0.2-1.7c0-0.7-0.1-1.2-0.2-1.6l0.1-0.4
			l-0.5-0.3l0-0.1c0.1,0,0.2-0.1,0.3-0.2c0.2-0.3,0.3-0.8,0.3-1.5c0-0.6-0.1-1-0.2-1.3l0.1-0.3l-0.2-0.1c0-0.1-0.1-0.1-0.1-0.2
			c0.2-0.3,0.3-0.9,0.3-1.9c0-0.5-0.1-0.9-0.1-1.2l0.1-0.3l-0.2-0.1c-0.1-0.2-0.2-0.4-0.3-0.4c0.1-0.1,0.1-0.1,0.2-0.2
			c0.2-0.4,0.3-0.9,0.3-1.7c0-0.6-0.1-1.1-0.2-1.4l0.1-0.3l-0.3-0.1c0.2-0.3,0.3-0.8,0.3-1.8c0-0.7-0.1-1.3-0.3-1.6l0.1,0.1l0.1-0.4
			l-0.3-0.1c0.2-0.3,0.3-0.8,0.3-1.6c0-0.9-0.2-1.4-0.4-1.7c0.2-0.2,0.4-0.7,0.4-1.7l-0.3,0c0,0.8-0.2,1.2-0.3,1.3l0-1.1l-0.3,0l0,1
			l-2-0.2l0-1l-0.3,0l0,1l-2-0.2l0-1l-0.3,0l0,1l-2-0.2l0-1l-0.3,0l0,0.8l-0.2-0.2l-0.1,0.4l0.2,0.2
			C367.5,614.2,367.5,614.7,367.5,615.6z M368.4,642l2,1.1l0,1.3l-2-0.2L368.4,642z M368.3,629.5l2,0.2l0,1.2l-2-1.1L368.3,629.5z
			 M368.3,633.4l2,0.2l0,1.1l-2-1.1L368.3,633.4z M370.7,645.5l2,0.2l0,1.8l-2-1.1L370.7,645.5z M370.4,646.3l-1.8-1l1.8,0.2
			L370.4,646.3z M368.6,652.7l1.8,1l0,2.2l-1.9-0.2l0,0c0,0,0,0,0,0l0-3C368.6,652.7,368.6,652.7,368.6,652.7L368.6,652.7z
			 M372.8,663.5l-2-0.2l0-1.8l2,1.1L372.8,663.5z M373.1,662.7l1.7,0.9l-1.6-0.2L373.1,662.7z M372.7,653.1l0,1.4l-2-1.1l0-0.5
			L372.7,653.1z M372.7,654.9l0,1.2l-2-0.2l0-2.1L372.7,654.9z M375,659.9l-2-1.1l0-1.8l2,0.2L375,659.9z M373,659.8l0-0.5l1.1,0.6
			L373,659.8z M372.8,660.5l0,1.6l-2-1.1l0-0.7L372.8,660.5z M370.5,660.9l-1.2-0.7l1.2,0.1L370.5,660.9z M370.5,663.3l-1.9-0.2
			c0,0,0,0-0.1,0l0-2.8l2,1.1L370.5,663.3z M370.8,659.6l0-1.5l2,1.1l0,0.6L370.8,659.6z M370.8,657.6l0-0.8l2,0.2l0,1.7
			L370.8,657.6z M370.5,657.5l-1.4-0.8l1.4,0.1L370.5,657.5z M369.7,652.8l0.7,0.1l0,0.3L369.7,652.8z M370.7,652.2l0-2l2,1.1l0,1.1
			L370.7,652.2z M370.7,649.7l0-0.6l2,0.2l0,1.5L370.7,649.7z M372.9,648.6l0-0.4l0.8,0.4L372.9,648.6z M370.4,649.5l-1-0.6l1,0.1
			L370.4,649.5z M370.7,648.4l0-1.4l2,1.1l0,0.5L370.7,648.4z M370.7,645.1l0-0.2l2,0.2l0,0.2L370.7,645.1z M374.8,644.8l-0.6-0.1
			l-1.3-0.7l0-2.2l2,0.2L374.8,644.8z M373.9,641.3l0.4,0.2l-1.4-0.1l0-0.2L373.9,641.3z M373.1,644.7l-0.2,0l0-0.1L373.1,644.7z
			 M374.5,645.5l-1.6-0.2l0-0.2l1.2,0.1L374.5,645.5z M370.7,644.4l0-1.1l2,1.1l0,0.2L370.7,644.4z M370.6,642.8l0-1.2l2,0.2l0,2.1
			L370.6,642.8z M370.4,642.6l-2-1.1l0-0.2l2,0.2L370.4,642.6z M368.4,640.9l0-0.2c0,0,0,0,0,0l1.9,0.2l0,0.2L368.4,640.9
			C368.4,640.9,368.4,640.9,368.4,640.9z M370.6,641l2,0.2l0,0.2l-2-0.2L370.6,641z M370.6,640.5l0-1l2,1.1l0,0.1L370.6,640.5z
			 M370.6,639l0-1.4l2,0.2l0,2.3L370.6,639z M370.6,637.1l0-0.2l2,0.2l0,0.2L370.6,637.1z M373.8,633.3l0.4,0.2l-1.4-0.1l0-0.2
			L373.8,633.3z M372.8,636.1l0-2.2l2,0.2l0,2.8l-0.6-0.1L372.8,636.1z M373.1,636.7l-0.3,0l0-0.1L373.1,636.7z M374.5,637.5
			l-1.6-0.2l0-0.2l1.3,0.1L374.5,637.5z M370.6,636.5l0-1.1l2,1.1l0,0.2L370.6,636.5z M370.6,634.8l0-1.2l2,0.2l0,2.1L370.6,634.8z
			 M368.3,632.8C368.3,632.8,368.3,632.8,368.3,632.8l2,0.2l0,0.2l-2-0.2L368.3,632.8z M370.5,633l2,0.2l0,0.2l-2-0.2L370.5,633z
			 M370.5,632.5l0-1l2,1.1l0,0.1L370.5,632.5z M370.5,631l0-1.3l2,0.2l0,2.2L370.5,631z M372.7,629.2l0-0.1l0.3,0.1L372.7,629.2z
			 M370.5,629l0-1.1l2,1.1l0,0.3L370.5,629z M370.5,627.4l0-1.4l2,0.2l0,2.3L370.5,627.4z M374.6,617.9l-2-1.1l0-1.8l2,0.2
			L374.6,617.9z M372.6,618l0-0.6l1.3,0.7L372.6,618z M374.6,618.9l0,2.8l-0.5,0l-1.5-0.8l0-2.1L374.6,618.9z M372.7,621.4l0-0.2
			l0.4,0.2L372.7,621.4z M374.6,622.5l0,3.1l-0.9-0.1l-1.1-0.6l0-2.6L374.6,622.5z M370.5,625.2l0-1l2,1.1l0,0.1L370.5,625.2z
			 M370.5,623.7l0-1.6l2,0.2l0,2.5L370.5,623.7z M370.2,623.5l-2-1.1l0-0.5l2,0.2L370.2,623.5z M370.4,621.2l0-1.2l2,1.1l0,0.3
			L370.4,621.2z M370.4,619.5l0-1.1l2,0.2l0,2L370.4,619.5z M370.1,619.4l-2-1.1l0,0l2,0.2L370.1,619.4z M370.4,617.7l0-1.6l2,1.1
			l0,0.7L370.4,617.7z M370.4,615.6l0-0.8l2,0.2l0,1.7L370.4,615.6z M370.1,615.4l-1.5-0.8l1.5,0.1L370.1,615.4z M374.7,626.5l0,2.9
			l-0.6-0.1l-1.3-0.7l0-2.5l1.6,0.2L374.7,626.5z M374.7,633l-0.9-0.1l-1.1-0.6l0-2.3l1.8,0.2l0.1,0.1L374.7,633z M375.4,635.8
			c0,0.7-0.1,1.1-0.2,1.4c-0.1-0.1-0.1-0.2-0.1-0.2l0-2.8c0,0,0,0,0.1,0.1C375.2,634.3,375.3,634.7,375.4,635.8z M374.8,640.9
			l-0.9-0.1l-1.1-0.6l0-2.5l2,0.2L374.8,640.9z M375.1,642.3c0.1,0.3,0.3,0.7,0.3,1.6c0,0.5,0,0.8-0.1,1.1c0,0-0.1-0.1-0.1-0.1l0,0
			l0,0L375.1,642.3z M374.9,648.8L374.9,648.8l-2-1.1l0-2l2,0.2L374.9,648.8z M374.9,652l-2-1.1l0-1.6l2,0.2L374.9,652z
			 M374.9,652.5L374.9,652.5l-2-0.1l0-1L374.9,652.5z M374.9,655.7l-2-1.1l0-1.5l2,0.2L374.9,655.7z M375,656.2l0,0.2l-2-0.2l0-1.1
			L375,656.2z M375,663.3l-2-1.1l0-1.7l2,0.2L375,663.3z M368.5,656.9l2,1.1l0,1.6l-2-0.2L368.5,656.9z M368.5,648.9l2,1.1l0,2.1
			l-2-0.2L368.5,648.9z M368.4,645.7l2,1.1l0,1.5l-2-0.2L368.4,645.7z M368.4,644.8l0-0.2l2,0.2l0,0.2L368.4,644.8
			C368.5,644.8,368.4,644.9,368.4,644.8z M368.4,640.3l0-2.1l2,1.1l0,1.2L368.4,640.3C368.4,640.3,368.4,640.3,368.4,640.3z
			 M368.4,637.3l2,0.2l0,1.3l-2-1.1L368.4,637.3z M368.3,636.9l0-0.2l2,0.2l0,0.2L368.3,636.9z M368.3,634.1l2,1.1l0,1.3l-1.9-0.2
			c0,0,0,0,0,0L368.3,634.1z M368.3,632.3l0-2.1l2,1.1l0,1.2L368.3,632.3C368.3,632.3,368.3,632.3,368.3,632.3z M368.3,626.6l2,1.1
			l0,1.3l-2-0.2L368.3,626.6z M368.2,626.1l0-0.4c0,0,0,0,0,0l1.9,0.2l0,1.3L368.2,626.1z M368.2,625l0-2.1l2,1.1l0,1.1L368.2,625
			L368.2,625C368.2,625,368.2,625,368.2,625z M368.2,618.8l2,1.1l0,1.3l-1.9-0.2l0,0L368.2,618.8z M368.1,614.8l2,1.1l0,1.8l-2-0.2
			L368.1,614.8z M375.1,616.7c0,0.6-0.1,1-0.2,1.3c0,0,0,0,0,0l0-2.7C375,615.5,375.1,615.9,375.1,616.7z M375.2,620.4
			c0,0.8-0.1,1.2-0.2,1.5c0,0,0,0,0,0l0-2.9C375,619.1,375.2,619.4,375.2,620.4z M375,625.4C375,625.4,375,625.4,375,625.4l-0.1-2.9
			l0.1,0c0.1,0.3,0.3,0.7,0.3,1.5C375.2,624.7,375.2,625.1,375,625.4z M375.2,627.9c0,0.8-0.1,1.3-0.2,1.5l0-2.8l0.1,0.1
			C375.2,627,375.2,627.4,375.2,627.9z M375,633l0-2.6l0.1,0.1c0.1,0.3,0.2,0.7,0.2,1.3c0,0.7-0.1,1-0.2,1.1
			C375.1,632.9,375.1,632.9,375,633z M375.1,640.9l0-3c0,0,0,0,0.1,0c0.1,0.3,0.2,0.8,0.2,1.6C375.3,640.5,375.2,640.9,375.1,640.9z
			 M375.2,648.8L375.2,648.8l0-2.9c0,0,0.1,0,0.1-0.1l0.1,0.1c0.1,0.3,0.1,0.7,0.1,1.4C375.5,648.5,375.3,648.8,375.2,648.8z
			 M375.3,652.2L375.3,652.2l-0.1-2.7c0,0,0,0,0,0c0,0,0.2,0.3,0.2,1.4C375.4,651.5,375.3,651.9,375.3,652.2z M375.4,655.9l-0.2-0.1
			l0-2.6c0.1,0.2,0.3,0.6,0.3,1.5C375.5,655.3,375.4,655.7,375.4,655.9z M375.5,658.6c0,0.9-0.1,1.3-0.2,1.5c0,0,0,0,0,0l0-2.8
			c0,0,0,0,0.1,0C375.4,657.4,375.5,657.7,375.5,658.6z M375.5,663.6l-0.2-0.1l0-2.7c0.1,0.3,0.3,0.9,0.3,2
			C375.6,663.2,375.5,663.4,375.5,663.6z M368.3,660.7l0,1.9c-0.1-0.2-0.1-0.6-0.1-1C368.2,661.2,368.2,660.9,368.3,660.7z
			 M368.2,657.9c0-0.5,0-0.9,0.1-1.1l0,2.2C368.2,658.8,368.2,658.5,368.2,657.9z M368.2,653.2l0,2.4c-0.1-0.3-0.2-0.7-0.2-1.3
			C368.1,653.8,368.1,653.4,368.2,653.2z M368.1,650.3c0-0.5,0-0.8,0.1-1l0,2.1C368.1,651.1,368.1,650.8,368.1,650.3z M368.1,645.5
			L368.1,645.5l0.1,2.2c-0.1-0.3-0.2-0.7-0.2-1.2C368,646,368,645.7,368.1,645.5z M368,642.5c0-0.7,0.1-1.1,0.1-1.3l0,0.5l0,0.2
			l0.1,0l0,2C368,643.7,368,643.2,368,642.5z M368.1,637.7l0,0.2l0,0.2l0.1,0l0,2c-0.1-0.3-0.1-0.7-0.1-1.2
			C368,638.2,368,637.9,368.1,637.7z M367.9,634.4c0-0.5,0-0.9,0.1-1.1c0,0,0,0,0,0l0,0.4l0,0.2l0,0l0,1.6
			C368,635.2,367.9,634.9,367.9,634.4z M367.9,631c0-0.7,0.1-1.1,0.1-1.3l0,0.2l0,0.2l0.1,0l0,2.4
			C367.9,632.2,367.9,631.8,367.9,631z M367.9,627.4c0-0.4,0-0.7,0-1l0,0l0,1.9C368,628.2,367.9,627.9,367.9,627.4z M367.9,622.4
			l0,0.2l0,0.2l0,0l0,1.8c-0.1-0.3-0.1-0.6-0.1-1.1C367.8,623,367.9,622.6,367.9,622.4z M367.9,618.6l0,2.1c-0.1-0.2-0.1-0.5-0.1-1
			C367.8,619.2,367.8,618.9,367.9,618.6z M367.8,615.5c0-0.9,0.1-1.1,0.1-1.1l0,0l0,0.2l0,0l0,2.3
			C367.8,616.6,367.8,616.2,367.8,615.5z"/>
		<path fill="#6C6361" d="M367,562.9c0,1.3,0.2,1.9,0.4,2.3c-0.2,0.3-0.3,0.8-0.3,1.9c0,0.8,0.1,1.3,0.3,1.6c0,0,0,0,0.1,0.1l0,0.2
			c-0.2,0.2-0.4,0.7-0.4,1.9c0,1,0.2,1.6,0.4,1.9c-0.2,0.3-0.3,0.9-0.3,2.1c0,0.9,0.1,1.4,0.3,1.7c0,0-0.1,0-0.1,0.1
			c-0.2,0.3-0.3,0.9-0.3,1.8c0,1,0.1,1.6,0.3,1.9c-0.1,0.3-0.2,0.8-0.2,1.5c0,1.2,0.2,1.7,0.4,2l0,0.5c0,0-0.1,0-0.1,0.1
			c-0.2,0.3-0.3,0.9-0.3,1.8c0,0.9,0.1,1.5,0.3,1.9c-0.2,0.4-0.3,1-0.3,1.8c0,1,0.1,1.6,0.4,2c0,0.1,0.1,0.1,0.1,0.1l0,0.4
			c0,0-0.1,0-0.1,0.1c-0.2,0.3-0.3,0.8-0.3,1.5c0,1,0.2,1.6,0.4,1.9c-0.2,0.3-0.3,0.9-0.3,1.9c0,1.1,0.2,1.6,0.4,1.9l0,0.2l0,0l0,0
			c0,0-0.1,0.1-0.1,0.1c-0.2,0.4-0.3,0.9-0.3,1.7c0,1,0.2,1.5,0.4,1.9c-0.2,0.3-0.3,0.8-0.3,1.8c0,0.8,0.1,1.4,0.3,1.7
			c0,0,0.1,0,0.1,0.1l0,0.1l0,0.1c0,0,0,0,0,0.1c-0.2,0.3-0.3,0.9-0.3,1.6c0,0.9,0.2,1.4,0.4,1.7c-0.2,0.3-0.4,0.7-0.4,1.7l0.3,0
			c0-0.5,0.1-0.9,0.2-1.1l0,1.3l0.3,0l0-1.5c0.1,0,0.1,0.1,0.1,0.1l1.8,0.2l0,1.5l0.3,0l0-1.5l2,0.2l0,1.5l0.3,0l0-1.5l2,0.2l0,1.5
			l0.3,0l0-1.4l0.4,0.3l0.1-0.4l-0.2-0.2c0,0,0,0,0-0.1l0.1,0l0.1-0.4l0,0c0-0.3,0.1-0.6,0.1-1c0-0.9-0.1-1.5-0.2-1.9l0.1,0l0.1-0.4
			l-0.2-0.1c0.1-0.3,0.3-0.8,0.2-1.7c0-0.8-0.1-1.3-0.3-1.6c-0.1-0.1-0.2-0.1-0.2-0.2l0,0c0.1,0,0.2-0.1,0.3-0.3l0.1,0.1l0.1-0.4
			l-0.1,0c0.1-0.3,0.1-0.7,0.1-1.3c0-1-0.2-1.6-0.4-1.9c0,0,0-0.1,0-0.1l0.2,0.1l0.1-0.4l-0.1-0.1c0.1-0.4,0.1-0.8,0.1-1.5
			c0-0.5,0-0.9-0.1-1.2l0.1-0.4l-0.2-0.1c0,0,0,0,0,0c0.2-0.3,0.3-0.9,0.3-1.8c0-0.7-0.1-1.2-0.2-1.6l0-0.2l-0.1-0.1
			c0-0.1,0-0.1,0-0.2c0.1-0.3,0.2-0.8,0.2-1.5c0-0.9-0.1-1.4-0.3-1.7l0.1,0.1l0.1-0.4l-0.5-0.3l0-0.1c0,0,0.1,0,0.2-0.2
			c0.2-0.3,0.3-0.9,0.3-1.8c0-0.6-0.1-1.1-0.1-1.4l0.1-0.4l-0.2-0.1c0.2-0.4,0.3-0.9,0.2-1.7c0-0.7-0.1-1.2-0.2-1.6l0.1-0.4
			l-0.5-0.3l0-0.1c0.1,0,0.2-0.1,0.3-0.2c0.2-0.3,0.3-0.8,0.3-1.5c0-0.6-0.1-1-0.2-1.3l0.1-0.3l-0.2-0.1c0-0.1-0.1-0.1-0.1-0.2
			c0.2-0.3,0.3-0.9,0.3-1.9c0-0.5-0.1-0.9-0.1-1.2l0.1-0.3l-0.2-0.1c-0.1-0.2-0.2-0.4-0.3-0.4c0.1-0.1,0.1-0.1,0.2-0.2
			c0.2-0.4,0.3-0.9,0.3-1.7c0-0.6-0.1-1-0.2-1.4l0.1-0.4l-0.3-0.2c0.2-0.3,0.3-0.8,0.3-1.8c0-0.8-0.1-1.3-0.3-1.6l0.1,0.1l0.1-0.4
			l-0.3-0.1c0.2-0.3,0.3-0.9,0.3-1.5c0-0.9-0.2-1.4-0.4-1.7c0.2-0.3,0.4-0.7,0.4-1.7l-0.3,0c0,0.8-0.2,1.2-0.3,1.3l0-1.1l-0.3,0l0,1
			l-2-0.2l0-1l-0.3,0l0,1l-2-0.2l0-1l-0.3,0l0,1l-2-0.2l0-1l-0.3,0l0,0.8l-0.2-0.2l-0.1,0.4l0.2,0.2C367.1,561.6,367,562,367,562.9z
			 M367.9,589.4l2,1.1l0,1.3l-2-0.2L367.9,589.4z M367.8,576.8l2,0.2l0,1.2l-2-1.1L367.8,576.8z M367.8,580.8l2,0.2l0,1l-2-1.1
			L367.8,580.8z M370.2,592.9l2,0.2l0,1.8l-2-1.1L370.2,592.9z M369.9,593.6l-1.8-1l1.8,0.2L369.9,593.6z M368.2,600l1.8,1l0,2.3
			l-1.9-0.2l0,0c0,0,0,0,0,0l0-3C368.1,600,368.1,600,368.2,600C368.1,600,368.1,600,368.2,600L368.2,600z M372.3,610.8l-2-0.2
			l0-1.8l2,1.1L372.3,610.8z M372.6,610.1l1.7,0.9l-1.7-0.2L372.6,610.1z M372.2,600.4l0,1.4l-2-1.1l0-0.5L372.2,600.4z
			 M372.2,602.2l0,1.2l-2-0.2l0-2.1L372.2,602.2z M374.5,607.3l-2-1.1l0-1.8l2,0.2L374.5,607.3z M372.5,607.2l0-0.5l1,0.6
			L372.5,607.2z M372.3,607.9l0,1.6l-2-1.1l0-0.7L372.3,607.9z M370,608.2l-1.2-0.7l1.2,0.1L370,608.2z M370.1,610.6l-1.9-0.2
			c0,0,0,0-0.1,0l0-2.8l2,1.1L370.1,610.6z M370.3,606.9l0-1.5l2,1.1l0,0.6L370.3,606.9z M370.3,604.9l0-0.8l2,0.2l0,1.7
			L370.3,604.9z M370,604.8l-1.4-0.8l1.4,0.1L370,604.8z M369.2,600.1l0.7,0.1l0,0.3L369.2,600.1z M370.2,599.5l0-2l2,1.1l0,1.1
			L370.2,599.5z M370.2,597l0-0.6l2,0.2l0,1.5L370.2,597z M372.4,595.9l0-0.4l0.8,0.5L372.4,595.9z M369.9,596.8l-1-0.6l1,0.1
			L369.9,596.8z M370.2,595.7l0-1.4l2,1.1l0,0.5L370.2,595.7z M370.2,592.4l0-0.2l2,0.2l0,0.2L370.2,592.4z M374.4,592.2l-0.6-0.1
			l-1.3-0.7l0-2.2l2,0.2L374.4,592.2z M373.4,588.6l0.4,0.2l-1.4-0.1l0-0.2L373.4,588.6z M372.7,592l-0.2,0l0-0.1L372.7,592z
			 M374.1,592.8l-1.6-0.2l0-0.2l1.3,0.1L374.1,592.8z M370.2,591.8l0-1.1l2,1.1l0,0.2L370.2,591.8z M370.2,590.1l0-1.2l2,0.2l0,2.1
			L370.2,590.1z M369.9,590l-2-1.1l0-0.2l2,0.2L369.9,590z M367.9,588.3l0-0.2c0,0,0,0,0,0c0,0,0,0,0,0l1.9,0.2l0,0.2L367.9,588.3
			C367.9,588.3,367.9,588.3,367.9,588.3z M370.1,588.3l2,0.2l0,0.2l-2-0.2L370.1,588.3z M370.1,587.8l0-1l2,1.1l0,0.1L370.1,587.8z
			 M370.1,586.3l0-1.4l2,0.2l0,2.3L370.1,586.3z M370.1,584.4l0-0.2l2,0.2l0,0.2L370.1,584.4z M373.3,580.7l0.4,0.2l-1.4-0.1l0-0.2
			L373.3,580.7z M372.3,583.4l0-2.2l2,0.2l0,2.8l-0.6-0.1L372.3,583.4z M372.6,584l-0.3,0l0-0.1L372.6,584z M374,584.8l-1.6-0.2
			l0-0.2l1.3,0.1L374,584.8z M370.1,583.8l0-1.2l2,1.1l0,0.3L370.1,583.8z M370.1,582.1l0-1.2l2,0.2l0,2.1L370.1,582.1z
			 M367.8,580.1C367.8,580.1,367.8,580.1,367.8,580.1l2,0.2l0,0.2l-2-0.2L367.8,580.1z M370.1,580.3l2,0.2l0,0.2l-2-0.2L370.1,580.3
			z M370.1,579.9l0-1l2,1.1l0,0.1L370.1,579.9z M370,578.4l0-1.3l2,0.2l0,2.2L370,578.4z M372.3,576.6l0-0.1l0.3,0.2L372.3,576.6z
			 M370,576.3l0-1.1l2,1.1l0,0.3L370,576.3z M370,574.7l0-1.4l2,0.2l0,2.3L370,574.7z M374.1,565.3l-2-1.1l0-1.8l2,0.2L374.1,565.3z
			 M372.2,565.3l0-0.6l1.4,0.8L372.2,565.3z M374.1,566.2l0,2.8l-0.5,0l-1.5-0.8l0-2.1L374.1,566.2z M372.2,568.8l0-0.2l0.4,0.2
			L372.2,568.8z M374.2,569.9l0,3.1l-0.9-0.1l-1.1-0.6l0-2.6L374.2,569.9z M370,572.5l0-1l2,1.1l0,0.1L370,572.5z M370,571l0-1.6
			l2,0.2l0,2.5L370,571z M369.7,570.9l-2-1.1l0-0.5l2,0.2L369.7,570.9z M370,568.6l0-1.2l2,1.1l0,0.3L370,568.6z M369.9,566.8l0-1.1
			l2,0.2l0,2L369.9,566.8z M369.7,566.7l-2-1.1l0,0l2,0.2L369.7,566.7z M369.9,565.1l0-1.7l2,1.1l0,0.8L369.9,565.1z M369.9,562.9
			l0-0.8l2,0.2l0,1.7L369.9,562.9z M369.6,562.8l-1.5-0.8l1.5,0.1L369.6,562.8z M374.2,573.9l0,2.9l-0.6-0.1l-1.3-0.7l0-2.5l1.6,0.2
			L374.2,573.9z M374.3,580.3l-0.9-0.1l-1.1-0.6l0-2.3l1.8,0.2l0.1,0.1L374.3,580.3z M374.9,583.1c0,0.7-0.1,1.1-0.2,1.4
			c-0.1-0.1-0.1-0.2-0.1-0.2l0,0l0-2.8C374.7,581.6,374.9,581.9,374.9,583.1z M374.3,588.3l-0.9-0.1l-1.1-0.6l0-2.5l2,0.2
			L374.3,588.3z M374.6,589.6c0.1,0.2,0.3,0.7,0.3,1.6c0,0.5,0,0.8-0.1,1.1c0,0-0.1-0.1-0.1-0.1l0,0l0,0L374.6,589.6z M374.4,596.1
			L374.4,596.1l-2-1.1l0-2l2,0.2L374.4,596.1z M374.4,599.3l-2-1.1l0-1.6l2,0.2L374.4,599.3z M374.4,599.8L374.4,599.8l-2-0.1l0-1
			L374.4,599.8z M374.5,603l-2-1.1l0-1.5l2,0.2L374.5,603z M374.5,603.5l0,0.2l-2-0.2l0-1.1L374.5,603.5z M374.5,610.7l-2-1.1l0-1.7
			l2,0.2L374.5,610.7z M368,604.2l2,1.1l0,1.6l-2-0.2L368,604.2z M368,596.2l2,1.1l0,2.1l-2-0.2L368,596.2z M367.9,593l2,1.1l0,1.5
			l-2-0.2L367.9,593z M367.9,592.2l0-0.2l2,0.2l0,0.2L367.9,592.2C368,592.2,367.9,592.2,367.9,592.2z M367.9,587.6l0-2.1l2,1.1
			l0,1.2L367.9,587.6C367.9,587.6,367.9,587.6,367.9,587.6z M367.9,584.7l2,0.2l0,1.3l-2-1.1L367.9,584.7z M367.9,584.2l0-0.2l2,0.2
			l0,0.2L367.9,584.2z M367.8,581.4l2,1.1l0,1.3l-1.9-0.2c0,0,0,0,0,0L367.8,581.4z M367.8,579.7l0-2.1l2,1.1l0,1.2L367.8,579.7
			C367.8,579.7,367.8,579.7,367.8,579.7z M367.8,573.9l2,1.1l0,1.3l-2-0.2L367.8,573.9z M367.8,573.4l0-0.4c0,0,0,0,0,0l1.9,0.2
			l0,1.3L367.8,573.4z M367.8,572.3l0-2.1l2,1.1l0,1.1L367.8,572.3L367.8,572.3C367.8,572.3,367.8,572.3,367.8,572.3z M367.7,566.1
			l2,1.1l0,1.3l-1.9-0.2l0,0L367.7,566.1z M367.7,562.2l2,1.1l0,1.8l-2-0.2L367.7,562.2z M374.6,564c0,0.6-0.1,1-0.2,1.3
			c0,0,0,0,0,0l0-2.7C374.5,562.8,374.6,563.3,374.6,564z M374.7,567.7c0,0.8-0.1,1.2-0.2,1.5c0,0,0,0,0,0l0-2.9c0,0,0,0,0.1,0.1
			C374.5,566.5,374.7,566.8,374.7,567.7z M374.5,572.7C374.5,572.8,374.5,572.8,374.5,572.7l-0.1-2.9l0.1,0c0.1,0.3,0.3,0.7,0.3,1.5
			C374.8,572,374.7,572.5,374.5,572.7z M374.8,575.3c0,0.8-0.1,1.3-0.3,1.5l0-2.8l0.1,0.1C374.7,574.3,374.7,574.7,374.8,575.3z
			 M374.5,580.3l0-2.6l0.1,0.1c0.1,0.3,0.2,0.7,0.2,1.3c0,0.7-0.1,1-0.2,1.2C374.6,580.3,374.6,580.3,374.5,580.3z M374.6,588.3l0-3
			c0,0,0,0,0.1,0c0.1,0.3,0.2,0.8,0.2,1.6C374.9,587.9,374.7,588.2,374.6,588.3z M374.7,596.1L374.7,596.1l0-2.9c0,0,0.1,0,0.1-0.1
			l0.1,0.1c0.1,0.3,0.1,0.7,0.1,1.4C375,595.8,374.8,596.1,374.7,596.1z M374.8,599.5L374.8,599.5l-0.1-2.7c0,0,0,0,0,0
			c0,0,0.2,0.3,0.2,1.4C374.9,598.8,374.9,599.2,374.8,599.5z M374.9,603.2l-0.2-0.1l0-2.6c0.1,0.2,0.3,0.6,0.3,1.5
			C375,602.6,375,603,374.9,603.2z M375,605.9c0,0.9-0.1,1.3-0.2,1.5c0,0,0,0,0,0l0-2.8c0,0,0,0,0.1,0
			C374.9,604.8,375,605.1,375,605.9z M375,611l-0.2-0.1l0-2.7c0.1,0.3,0.3,0.9,0.3,2C375.1,610.5,375,610.8,375,611z M367.8,608
			l0,1.9c-0.1-0.2-0.1-0.6-0.1-1C367.7,608.5,367.7,608.2,367.8,608z M367.7,605.2c0-0.5,0-0.8,0.1-1.1l0,2.2
			C367.7,606.2,367.7,605.8,367.7,605.2z M367.7,600.5l0,2.3c-0.1-0.3-0.2-0.7-0.2-1.2C367.6,601.1,367.6,600.8,367.7,600.5z
			 M367.6,597.7c0-0.5,0-0.8,0.1-1.1l0,2.1C367.6,598.5,367.6,598.1,367.6,597.7z M367.6,592.9L367.6,592.9l0.1,2.2
			c-0.1-0.3-0.2-0.7-0.2-1.2C367.5,593.3,367.6,593,367.6,592.9z M367.5,589.8c0-0.7,0.1-1.1,0.2-1.3l0,0.5l-0.1,0.2l0.1,0l0,2
			C367.6,591,367.5,590.6,367.5,589.8z M367.6,585l0,0.2l0,0.2l0,0l0,2c-0.1-0.3-0.1-0.7-0.1-1.2C367.5,585.6,367.5,585.2,367.6,585
			z M367.4,581.7c0-0.5,0-0.9,0.1-1.1c0,0,0,0,0,0l0,0.3l0,0.2l0,0l0,1.6C367.5,582.6,367.5,582.2,367.4,581.7z M367.4,578.3
			c0-0.7,0.1-1.1,0.1-1.3l0,0.2l-0.1,0.2l0.1,0l0,2.4C367.5,579.6,367.4,579.1,367.4,578.3z M367.4,574.8c0-0.4,0-0.7,0-1l0,0l0,1.9
			C367.5,575.5,367.4,575.2,367.4,574.8z M367.4,569.7l0,0.2l0,0.2l0,0l0,1.8c-0.1-0.3-0.1-0.6-0.1-1.1
			C367.3,570.3,367.4,569.9,367.4,569.7z M367.4,565.9L367.4,565.9l0,2.1c-0.1-0.2-0.1-0.5-0.1-0.9
			C367.3,566.5,367.3,566.2,367.4,565.9z M367.3,562.9c0-1,0.1-1.1,0.1-1.1l0,0l0,0.2l0,0l0,2.3C367.3,564,367.3,563.5,367.3,562.9z
			"/>
		<path fill="#6C6361" d="M366.5,510.2c0,1.3,0.2,2,0.4,2.3c-0.2,0.3-0.3,0.8-0.3,1.9c0,0.8,0.1,1.3,0.3,1.6c0,0,0,0,0.1,0l0,0.2
			c-0.2,0.2-0.4,0.7-0.4,1.9c0,1,0.2,1.6,0.4,1.9c-0.2,0.3-0.3,0.9-0.3,2.1c0,0.9,0.1,1.4,0.3,1.7c0,0-0.1,0-0.1,0.1
			c-0.2,0.3-0.3,0.9-0.3,1.8c0,1,0.1,1.6,0.3,1.9c-0.1,0.3-0.2,0.8-0.2,1.5c0,1.1,0.2,1.7,0.4,2l0,0.6c0,0-0.1,0-0.1,0.1
			c-0.2,0.3-0.3,0.9-0.3,1.8c0,0.9,0.1,1.5,0.3,1.9c-0.2,0.4-0.3,1-0.3,1.8c0,1,0.1,1.6,0.4,2c0,0.1,0.1,0.1,0.1,0.1l0,0.4
			c0,0-0.1,0-0.1,0.1c-0.2,0.3-0.3,0.8-0.3,1.5c0,1,0.2,1.6,0.4,1.9c-0.2,0.3-0.3,0.9-0.3,1.9c0,1.1,0.2,1.6,0.4,1.9l0,0.2l0,0l0,0
			c0,0-0.1,0.1-0.1,0.1c-0.2,0.4-0.3,0.9-0.3,1.7c0,1,0.2,1.5,0.4,1.9c-0.2,0.3-0.3,0.8-0.3,1.8c0,0.8,0.1,1.4,0.3,1.7
			c0,0,0.1,0,0.1,0.1l0,0.1l0,0.1c0,0,0,0,0,0.1c-0.2,0.3-0.3,0.9-0.3,1.6c0,0.9,0.2,1.4,0.4,1.7c-0.2,0.3-0.4,0.7-0.4,1.7l0.3,0
			c0-0.5,0.1-0.9,0.2-1.1l0,1.3l0.3,0l0-1.5c0.1,0,0.1,0.1,0.1,0.1l1.8,0.2l0,1.5l0.3,0l0-1.4l2,0.2l0,1.5l0.3,0l0-1.4l2,0.2l0,1.5
			l0.3,0l0-1.4l0.4,0.3l0.1-0.4l-0.2-0.2c0,0,0,0,0-0.1l0.1,0l0.1-0.4l0,0c0-0.3,0.1-0.6,0.1-1c0-0.9-0.1-1.6-0.2-2l0.1,0l0.1-0.4
			l-0.2-0.1c0.1-0.3,0.3-0.8,0.2-1.7c0-0.8-0.1-1.3-0.3-1.6c-0.1-0.1-0.2-0.1-0.2-0.2l0,0c0.1,0,0.2-0.1,0.3-0.3l0.1,0.1l0.1-0.4
			l-0.1,0c0.1-0.3,0.1-0.7,0.1-1.3c0-1-0.2-1.6-0.4-1.9c0,0,0-0.1,0.1-0.1l0.2,0.1l0.1-0.4l-0.1-0.1c0.1-0.4,0.1-0.8,0.1-1.5
			c0-0.5,0-0.9-0.1-1.2l0.1-0.4l-0.2-0.1c0,0,0,0,0,0c0.2-0.3,0.3-0.9,0.3-1.8c0-0.7-0.1-1.2-0.1-1.6l0-0.2l-0.1-0.1
			c0,0,0-0.1,0-0.1c0.1-0.3,0.2-0.8,0.2-1.5c0-0.8-0.1-1.4-0.3-1.7l0.1,0.1l0.1-0.4l-0.5-0.3l0-0.1c0,0,0.1,0,0.2-0.2
			c0.2-0.3,0.3-0.9,0.3-1.8c0-0.6-0.1-1.1-0.1-1.5l0.1-0.4l-0.2-0.1c0.2-0.4,0.3-0.9,0.3-1.7c0-0.7-0.1-1.2-0.2-1.6l0.1-0.4
			l-0.5-0.3l0-0.1c0.1,0,0.2-0.1,0.3-0.2c0.2-0.3,0.3-0.8,0.3-1.5c0-0.6-0.1-1-0.2-1.3l0.1-0.3l-0.2-0.1c0-0.1-0.1-0.1-0.1-0.2
			c0.2-0.3,0.3-0.9,0.3-1.9c0-0.5-0.1-0.9-0.1-1.2l0.1-0.3l-0.2-0.1c-0.1-0.2-0.2-0.4-0.3-0.4c0.1,0,0.1-0.1,0.2-0.2
			c0.2-0.4,0.3-0.9,0.3-1.7c0-0.6-0.1-1.1-0.2-1.4l0.1-0.3l-0.3-0.1c0,0,0,0,0,0c0.2-0.3,0.3-0.8,0.3-1.8c0-0.8-0.1-1.3-0.3-1.6
			l0.1,0.1l0.1-0.4l-0.3-0.1c0.2-0.3,0.3-0.8,0.3-1.5c0-0.9-0.2-1.4-0.4-1.7c0.2-0.3,0.4-0.7,0.4-1.7l-0.3,0c0,0.8-0.2,1.2-0.3,1.3
			l0-1.1l-0.3,0l0,1l-2-0.2l0-1l-0.3,0l0,1l-2-0.2l0-1l-0.3,0l0,1l-2-0.2l0-1l-0.3,0l0,0.8l-0.2-0.2l-0.1,0.4l0.2,0.2
			C366.6,508.9,366.5,509.3,366.5,510.2z M367.4,536.7l2,1.1l0,1.3l-2-0.2L367.4,536.7z M367.3,524.2l2,0.2l0,1.2l-2-1.1
			L367.3,524.2z M367.4,528.1l2,0.2l0,1.1l-2-1.1L367.4,528.1z M369.7,540.2l2,0.2l0,1.8l-2-1.1L369.7,540.2z M369.4,541l-1.8-1
			l1.8,0.2L369.4,541z M367.7,547.3l1.8,1l0,2.3l-1.9-0.2l0,0c0,0,0,0,0,0l0-3.1C367.6,547.3,367.7,547.3,367.7,547.3L367.7,547.3z
			 M371.8,558.1l-2-0.2l0-1.8l2,1.1L371.8,558.1z M372.1,557.4l1.6,0.9l-1.6-0.2L372.1,557.4z M371.7,547.7l0,1.4l-2-1.1l0-0.5
			L371.7,547.7z M371.7,549.6l0,1.2l-2-0.2l0-2.1L371.7,549.6z M374,554.6l-2-1.1l0-1.8l2,0.2L374,554.6z M372.1,554.5l0-0.5
			l1.1,0.6L372.1,554.5z M371.8,555.2l0,1.6l-2-1.1l0-0.7L371.8,555.2z M369.6,555.5l-1.2-0.7l1.2,0.1L369.6,555.5z M369.6,557.9
			l-1.9-0.2c0,0,0,0-0.1,0l0-2.8l2,1.1L369.6,557.9z M369.8,554.3l0-1.5l2,1.1l0,0.6L369.8,554.3z M369.8,552.3l0-0.8l2,0.2l0,1.7
			L369.8,552.3z M369.5,552.1l-1.4-0.8l1.4,0.1L369.5,552.1z M368.7,547.4l0.7,0.1l0,0.3L368.7,547.4z M369.8,546.8l0-2l2,1.1l0,1.1
			L369.8,546.8z M369.7,544.3l0-0.6l2,0.2l0,1.5L369.7,544.3z M372,543.2l0-0.4l0.8,0.5L372,543.2z M369.5,544.2l-1-0.6l1,0.1
			L369.5,544.2z M369.7,543l0-1.4l2,1.1l0,0.5L369.7,543z M369.7,539.7l0-0.2l2,0.2l0,0.2L369.7,539.7z M373.9,539.5l-0.6-0.1
			l-1.3-0.7l0-2.2l2,0.2L373.9,539.5z M372.9,536l0.4,0.2l-1.4-0.1l0-0.2L372.9,536z M372.2,539.3l-0.3,0l0-0.1L372.2,539.3z
			 M373.6,540.1l-1.7-0.2l0-0.2l1.3,0.1L373.6,540.1z M369.7,539.1l0-1.2l2,1.1l0,0.3L369.7,539.1z M369.7,537.4l0-1.2l2,0.2l0,2.1
			L369.7,537.4z M369.4,537.3l-2-1.1l0-0.2l2,0.2L369.4,537.3z M367.4,535.6l0-0.2c0,0,0,0,0,0l1.9,0.2l0,0.2L367.4,535.6
			C367.4,535.6,367.4,535.6,367.4,535.6z M369.7,535.6l2,0.2l0,0.2l-2-0.2L369.7,535.6z M369.7,535.2l0-1l2,1.1l0,0.1L369.7,535.2z
			 M369.6,533.7l0-1.4l2,0.2l0,2.3L369.6,533.7z M369.6,531.8l0-0.2l2,0.2l0,0.2L369.6,531.8z M372.8,528l0.4,0.2l-1.4-0.1l0-0.2
			L372.8,528z M371.8,530.7l0-2.2l2,0.2l0,2.8l-0.6-0.1L371.8,530.7z M372.1,531.4l-0.2,0l0-0.1L372.1,531.4z M373.5,532.1l-1.6-0.2
			l0-0.2l1.3,0.1L373.5,532.1z M369.6,531.1l0-1.1l2,1.1l0,0.2L369.6,531.1z M369.6,529.5l0-1.2l2,0.2l0,2.1L369.6,529.5z
			 M367.3,527.4C367.3,527.4,367.4,527.4,367.3,527.4l2,0.2l0,0.2l-2-0.2L367.3,527.4z M369.6,527.7l2,0.2l0,0.2l-2-0.2L369.6,527.7
			z M369.6,527.2l0-1l2,1.1l0,0.1L369.6,527.2z M369.6,525.7l0-1.3l2,0.2l0,2.2L369.6,525.7z M371.8,523.9l0-0.1l0.3,0.2
			L371.8,523.9z M369.5,523.7l0-1.2l2,1.1l0,0.3L369.5,523.7z M369.5,522l0-1.4l2,0.2l0,2.3L369.5,522z M373.6,512.6l-2-1.1l0-1.8
			l2,0.2L373.6,512.6z M373.1,512.8l-1.4-0.1l0-0.6L373.1,512.8z M373.7,513.5l0,2.8l-0.5,0l-1.5-0.8l0-2.1L373.7,513.5z
			 M371.7,516.1l0-0.2l0.4,0.2L371.7,516.1z M373.7,517.2l0,3.1l-0.9-0.1l-1.1-0.6l0-2.6L373.7,517.2z M369.5,519.9l0-1l2,1.1l0,0.1
			L369.5,519.9z M369.5,518.4l0-1.6l2,0.2l0,2.5L369.5,518.4z M369.2,518.2l-2-1.1l0-0.5l2,0.2L369.2,518.2z M369.5,515.9l0-1.2
			l2,1.1l0,0.3L369.5,515.9z M369.5,514.2l0-1.1l2,0.2l0,2L369.5,514.2z M369.2,514l-2-1.1l0,0l2,0.2L369.2,514z M369.4,512.4l0-1.7
			l2,1.1l0,0.8L369.4,512.4z M369.4,510.3l0-0.8l2,0.2l0,1.7L369.4,510.3z M369.1,510.1l-1.5-0.8l1.5,0.1L369.1,510.1z M373.7,521.2
			l0,2.9l-0.6-0.1l-1.4-0.8l0-2.5l1.5,0.2L373.7,521.2z M373.8,527.6l-0.9-0.1l-1.1-0.6l0-2.3l1.8,0.2l0.1,0.1L373.8,527.6z
			 M374.4,530.5c0,0.7-0.1,1.1-0.2,1.4c-0.1-0.1-0.1-0.2-0.1-0.2l0,0l0-2.8c0,0,0,0,0.1,0.1C374.2,529,374.4,529.4,374.4,530.5z
			 M373.8,535.6l-0.9-0.1l-1.1-0.6l0-2.5l2,0.2L373.8,535.6z M374.1,536.9c0.1,0.2,0.3,0.7,0.3,1.6c0,0.5,0,0.8-0.1,1.1
			c0,0-0.1-0.1-0.1-0.1l0,0l0,0L374.1,536.9z M373.9,543.4L373.9,543.4l-2-1.1l0-2l2,0.2L373.9,543.4z M373.9,546.7l-2-1.1l0-1.6
			l2,0.2L373.9,546.7z M373.9,547.2L373.9,547.2l-2-0.1l0-1L373.9,547.2z M374,550.3l-2-1.1l0-1.5l2,0.2L374,550.3z M374,550.8
			l0,0.2l-2-0.2l0-1.1L374,550.8z M374,558l-2-1.1l0-1.7l2,0.2L374,558z M367.6,551.5l2,1.1l0,1.6l-2-0.2L367.6,551.5z M367.5,543.6
			l2,1.1l0,2.1l-2-0.2L367.5,543.6z M367.5,540.4l2,1.1l0,1.5l-2-0.2L367.5,540.4z M367.5,539.5l0-0.2l2,0.2l0,0.2L367.5,539.5
			C367.5,539.5,367.5,539.5,367.5,539.5z M367.4,535l0-2.1l2,1.1l0,1.1L367.4,535C367.5,534.9,367.4,534.9,367.4,535z M367.4,532
			l2,0.2l0,1.3l-2-1.1L367.4,532z M367.4,531.5l0-0.2l2,0.2l0,0.2L367.4,531.5z M367.4,528.7l2,1.1l0,1.3l-1.9-0.2c0,0,0,0,0,0
			L367.4,528.7z M367.3,527l0-2.1l2,1.1l0,1.2L367.3,527C367.3,527,367.3,527,367.3,527z M367.3,521.3l2,1.1l0,1.3l-2-0.2
			L367.3,521.3z M367.3,520.8l0-0.4c0,0,0,0,0,0l1.9,0.2l0,1.3L367.3,520.8z M367.3,519.7l0-2.1l2,1.1l0,1.1L367.3,519.7
			L367.3,519.7C367.3,519.7,367.3,519.7,367.3,519.7z M367.2,513.4l2,1.1l0,1.3l-1.9-0.2l0,0L367.2,513.4z M367.2,509.5l2,1.1l0,1.8
			l-2-0.2L367.2,509.5z M374.2,511.4c0,0.6-0.1,1-0.2,1.3c0,0,0,0,0,0l0-2.7C374,510.2,374.2,510.6,374.2,511.4z M374.2,515
			c0,0.8-0.1,1.2-0.2,1.5c0,0,0,0,0,0l0-2.9C374.1,513.7,374.2,514.1,374.2,515z M374,520.1C374,520.1,374,520.1,374,520.1l-0.1-2.9
			l0.1,0c0.1,0.3,0.3,0.7,0.3,1.5C374.3,519.3,374.2,519.8,374,520.1z M374.3,522.6c0,0.8-0.1,1.3-0.2,1.5l0-2.8l0.1,0.1
			C374.2,521.7,374.3,522,374.3,522.6z M374.1,527.6l0-2.6l0.1,0.1c0.1,0.3,0.2,0.7,0.2,1.3c0,0.7-0.1,1-0.2,1.2
			C374.1,527.6,374.1,527.6,374.1,527.6z M374.1,535.6l0-3c0,0,0,0,0.1,0c0.1,0.3,0.2,0.8,0.2,1.6
			C374.4,535.2,374.2,535.5,374.1,535.6z M374.5,542c0,1.2-0.2,1.5-0.3,1.5l0,0l0-2.9c0,0,0.1,0,0.1-0.1l0.1,0.1
			C374.4,540.8,374.5,541.3,374.5,542z M374.3,546.9L374.3,546.9l-0.1-2.7c0,0,0,0,0,0c0,0,0.2,0.3,0.2,1.4
			C374.4,546.1,374.4,546.6,374.3,546.9z M374.4,550.6l-0.2-0.1l0-2.6c0.1,0.2,0.3,0.6,0.3,1.5C374.5,550,374.5,550.3,374.4,550.6z
			 M374.5,553.2c0,0.9-0.1,1.3-0.2,1.5c0,0,0,0,0,0l0-2.8c0,0,0,0,0.1,0C374.4,552.1,374.5,552.4,374.5,553.2z M374.5,558.3
			l-0.2-0.1l0-2.7c0.1,0.3,0.3,0.9,0.3,2C374.6,557.9,374.6,558.1,374.5,558.3z M367.3,555.3l0,1.9c-0.1-0.2-0.1-0.6-0.1-1
			C367.2,555.9,367.3,555.6,367.3,555.3z M367.2,552.6c0-0.5,0-0.8,0.1-1.1l0,2.2C367.2,553.5,367.2,553.1,367.2,552.6z
			 M367.2,547.8l0,2.3c-0.1-0.3-0.2-0.7-0.2-1.2C367.1,548.4,367.2,548.1,367.2,547.8z M367.1,545c0-0.5,0-0.8,0.1-1.1l0,2.1
			C367.2,545.8,367.1,545.5,367.1,545z M367.1,540.2L367.1,540.2l0.1,2.2c-0.1-0.3-0.2-0.7-0.2-1.2
			C367,540.7,367.1,540.4,367.1,540.2z M367,537.1c0-0.7,0.1-1.1,0.1-1.3l0,0.5l0,0.2l0.1,0l0,2C367.1,538.3,367,537.9,367,537.1z
			 M367.1,532.3l0,0.2l0,0.2l0.1,0l0,2c-0.1-0.3-0.1-0.7-0.1-1.2C367,532.9,367.1,532.5,367.1,532.3z M367,529.1
			c0-0.5,0-0.9,0.1-1.1c0,0,0,0,0,0l0,0.4l0,0.2l0,0l0,1.6C367,529.9,367,529.6,367,529.1z M366.9,525.6c0-0.7,0.1-1.1,0.1-1.3
			l0,0.2l0,0.2l0,0l0,2.4C367,526.9,366.9,526.4,366.9,525.6z M367,522.1c0-0.4,0-0.7,0-1l0,0l0,1.9C367,522.8,367,522.6,367,522.1z
			 M367,517l0,0.2l0,0.2l0,0l0,1.8c-0.1-0.3-0.1-0.6-0.1-1.1C366.9,517.6,366.9,517.3,367,517z M366.8,514.4c0-0.5,0-0.8,0.1-1.1
			l0,2.1C366.9,515.2,366.8,514.9,366.8,514.4z M366.8,510.2c0-0.9,0.1-1.1,0.1-1.1l0,0l0,0.2l0,0l0,2.3
			C366.9,511.3,366.8,510.8,366.8,510.2z"/>
		<path fill="#6C6361" d="M366.1,457.5c0,1.3,0.2,2,0.4,2.3c-0.2,0.3-0.3,0.8-0.3,1.9c0,0.8,0.1,1.3,0.3,1.6c0,0,0,0,0.1,0.1l0,0.2
			c-0.2,0.2-0.4,0.7-0.4,1.9c0,1,0.2,1.6,0.4,1.9c-0.2,0.3-0.3,0.9-0.3,2.1c0,0.9,0.1,1.5,0.3,1.7c0,0-0.1,0-0.1,0.1
			c-0.2,0.3-0.3,0.9-0.3,1.8c0,1,0.1,1.6,0.3,1.9c-0.1,0.3-0.2,0.8-0.2,1.5c0,1.2,0.2,1.7,0.4,2l0,0.5c0,0-0.1,0-0.1,0.1
			c-0.2,0.3-0.3,0.9-0.3,1.7c0,0.9,0.1,1.5,0.3,1.9c-0.2,0.4-0.3,1-0.3,1.8c0,1,0.1,1.6,0.4,2c0,0.1,0.1,0.1,0.1,0.1l0,0.4
			c0,0-0.1,0-0.1,0.1c-0.2,0.3-0.3,0.8-0.3,1.5c0,1,0.2,1.6,0.4,1.9c-0.2,0.3-0.3,0.9-0.3,1.9c0,1.1,0.2,1.6,0.4,1.9l0,0.2l0.1,0
			l0,0c0,0-0.1,0.1-0.1,0.1c-0.2,0.4-0.3,0.9-0.3,1.7c0,1,0.2,1.5,0.4,1.9c-0.2,0.3-0.3,0.8-0.3,1.8c0,0.8,0.1,1.4,0.3,1.7
			c0,0,0.1,0,0.1,0.1l0,0.1l0,0.1c0,0,0,0,0,0.1c-0.2,0.3-0.3,0.9-0.3,1.6c0,0.9,0.2,1.4,0.4,1.7c-0.2,0.3-0.4,0.7-0.4,1.7l0.3,0
			c0-0.5,0.1-0.9,0.2-1.1l0,1.3l0.3,0l0-1.5c0.1,0,0.1,0.1,0.1,0.1l1.8,0.2l0,1.5l0.3,0l0-1.5l2,0.2l0,1.5l0.3,0l0-1.4l2,0.2l0,1.5
			l0.3,0l0-1.4l0.4,0.3l0.1-0.4l-0.2-0.2c0,0,0,0,0-0.1l0.1,0l0.1-0.4l0,0c0-0.3,0.1-0.6,0.1-1c0-0.9-0.1-1.5-0.2-1.9l0.1,0l0.1-0.4
			l-0.2-0.1c0.1-0.3,0.3-0.8,0.3-1.7c0-0.8-0.1-1.3-0.3-1.6c-0.1-0.1-0.2-0.1-0.2-0.2v0c0.1,0,0.2-0.1,0.3-0.3l0.1,0.1l0.1-0.4
			l-0.1,0c0.1-0.3,0.1-0.7,0.1-1.3c0-1-0.2-1.6-0.4-1.9c0,0,0-0.1,0-0.1l0.2,0.1l0.1-0.4l-0.1-0.1c0.1-0.4,0.1-0.8,0.1-1.5
			c0-0.5,0-0.9-0.1-1.2l0.1-0.4l-0.2-0.1c0,0,0,0,0,0c0.2-0.3,0.3-0.9,0.3-1.8c0-0.7-0.1-1.2-0.2-1.6l0-0.2l-0.1-0.1
			c0-0.1,0-0.1,0-0.2c0.1-0.3,0.2-0.8,0.2-1.5c0-0.9-0.1-1.4-0.3-1.7l0.1,0.1l0.1-0.4l-0.5-0.3l0-0.1c0,0,0.1,0,0.2-0.2
			c0.2-0.3,0.3-0.9,0.3-1.8c0-0.6-0.1-1.1-0.2-1.5l0.1-0.4l-0.2-0.1c0.2-0.4,0.3-0.9,0.3-1.7c0-0.7-0.1-1.2-0.2-1.6l0.1-0.4
			l-0.5-0.3l0-0.1c0.1,0,0.2-0.1,0.3-0.2c0.2-0.3,0.3-0.8,0.3-1.5c0-0.6-0.1-1-0.2-1.3l0.1-0.3l-0.2-0.1c0-0.1-0.1-0.1-0.1-0.2
			c0.2-0.3,0.3-0.9,0.3-1.9c0-0.5-0.1-0.9-0.1-1.2l0.1-0.3l-0.2-0.1c-0.1-0.2-0.2-0.4-0.3-0.4c0.1,0,0.1-0.1,0.2-0.2
			c0.2-0.4,0.3-0.9,0.3-1.7c0-0.6-0.1-1-0.2-1.4l0.1-0.3l-0.3-0.2c0,0,0,0,0,0c0.2-0.3,0.3-0.8,0.3-1.8c0-0.8-0.1-1.3-0.3-1.6
			l0.1,0.1l0.1-0.4l-0.3-0.1c0.2-0.3,0.3-0.8,0.3-1.5c0-0.9-0.2-1.4-0.4-1.7c0.2-0.3,0.4-0.7,0.4-1.7l-0.3,0c0,0.8-0.2,1.2-0.3,1.3
			l0-1.1l-0.3,0l0,1l-2-0.2l0-1l-0.3,0l0,1l-2-0.2l0-1l-0.3,0l0,1l-2-0.2l0-1l-0.3,0l0,0.8l-0.2-0.2l-0.1,0.4l0.2,0.2
			C366.1,456.2,366,456.7,366.1,457.5z M367,484l2,1.1l0,1.3l-2-0.2L367,484z M373.9,487C373.8,486.9,373.8,486.9,373.9,487
			l-0.1-0.1l0,0l0-2.6c0.1,0.2,0.3,0.7,0.3,1.6C374,486.4,373.9,486.7,373.9,487z M366.9,471.5l2,0.2l0,1.2l-2-1.1L366.9,471.5z
			 M366.9,475.4l2,0.2l0,1.1l-2-1.1L366.9,475.4z M367,483.4l2,0.2l0,1.1l-2-1.1L367,483.4z M369.2,487.5l2,0.2l0,1.8l-2-1.1
			L369.2,487.5z M369,488.3l-1.8-1l1.8,0.2L369,488.3z M367.2,494.6l1.8,1l0,2.3l-1.9-0.2l0,0c0,0,0,0,0,0l0-3
			C367.1,494.6,367.2,494.6,367.2,494.6L367.2,494.6z M371.3,505.5l-2-0.2l0-1.8l2,1.1L371.3,505.5z M371.6,504.7l1.7,0.9l-1.6-0.2
			L371.6,504.7z M371.3,495.1l0,1.4l-2-1.1l0-0.5L371.3,495.1z M371.3,496.9l0,1.2l-2-0.2l0-2.1L371.3,496.9z M373.5,501.9l-2-1.1
			l0-1.8l2,0.2L373.5,501.9z M371.6,501.8l0-0.5l1.1,0.6L371.6,501.8z M371.3,502.5l0,1.6l-2-1.1l0-0.7L371.3,502.5z M369.1,502.8
			l-1.2-0.7l1.2,0.1L369.1,502.8z M369.1,505.2l-1.9-0.2c0,0,0,0,0,0l0-2.8l2,1.1L369.1,505.2z M369.4,501.6l0-1.5l2,1.1l0,0.6
			L369.4,501.6z M369.3,499.6l0-0.8l2,0.2l0,1.7L369.3,499.6z M369.1,499.4l-1.4-0.8l1.4,0.1L369.1,499.4z M368.3,494.8l0.7,0.1
			l0,0.3L368.3,494.8z M369.3,494.1l0-2l2,1.1l0,1.1L369.3,494.1z M369.3,491.7l0-0.6l2,0.2l0,1.5L369.3,491.7z M371.5,490.6l0-0.4
			l0.8,0.5L371.5,490.6z M369,491.5l-1-0.6l1,0.1L369,491.5z M369.3,490.3l0-1.4l2,1.1l0,0.5L369.3,490.3z M369.2,487.1l0-0.2l2,0.2
			l0,0.2L369.2,487.1z M373.4,486.8l-0.6-0.1l-1.3-0.7l0-2.2l2,0.2L373.4,486.8z M372.4,483.3l0.4,0.2l-1.4-0.1l0-0.2L372.4,483.3z
			 M371.7,486.7l-0.2,0l0-0.1L371.7,486.7z M373.1,487.5l-1.6-0.2l0-0.2l1.3,0.1L373.1,487.5z M369.2,486.4l0-1.1l2,1.1l0,0.2
			L369.2,486.4z M369.2,484.8l0-1.2l2,0.2l0,2.1L369.2,484.8z M367,482.9l0-0.2c0,0,0,0,0,0l1.9,0.2l0,0.2L367,482.9
			C367,482.9,367,482.9,367,482.9z M369.2,483l2,0.2l0,0.2l-2-0.2L369.2,483z M369.2,482.5l0-1l2,1.1l0,0.1L369.2,482.5z M369.2,481
			l0-1.4l2,0.2l0,2.3L369.2,481z M369.2,479.1l0-0.2l2,0.2l0,0.2L369.2,479.1z M372.4,475.3l0.4,0.2l-1.4-0.1l0-0.2L372.4,475.3z
			 M371.4,478.1l0-2.2l2,0.2l0,2.8l-0.6-0.1L371.4,478.1z M371.7,478.7l-0.3,0l0-0.1L371.7,478.7z M373,479.5l-1.6-0.2l0-0.2
			l1.3,0.1L373,479.5z M369.2,478.5l0-1.1l2,1.1l0,0.3L369.2,478.5z M369.1,476.8l0-1.2l2,0.2l0,2.1L369.1,476.8z M366.9,474.8
			C366.9,474.8,366.9,474.8,366.9,474.8l2,0.2l0,0.2l-2-0.2L366.9,474.8z M369.1,475l2,0.2l0,0.2l-2-0.2L369.1,475z M369.1,474.5
			l0-1l2,1.1l0,0.1L369.1,474.5z M369.1,473l0-1.3l2,0.2l0,2.2L369.1,473z M371.3,471.2l0-0.1l0.3,0.2L371.3,471.2z M369.1,471
			l0-1.1l2,1.1l0,0.3L369.1,471z M369.1,469.4l0-1.4l2,0.2l0,2.3L369.1,469.4z M373.2,459.9l-2-1.1l0-1.8l2,0.2L373.2,459.9z
			 M371.2,460l0-0.6l1.4,0.8L371.2,460z M373.2,460.9l0,2.8l-0.5,0l-1.5-0.8l0-2.1L373.2,460.9z M371.3,463.4l0-0.2l0.4,0.2
			L371.3,463.4z M373.2,464.5l0,3.1l-0.9-0.1l-1.1-0.6l0-2.6L373.2,464.5z M369.1,467.2l0-1l2,1.1l0,0.1L369.1,467.2z M369,465.7
			l0-1.6l2,0.2l0,2.5L369,465.7z M368.8,465.5l-2-1.1l0-0.5l2,0.2L368.8,465.5z M369,463.2l0-1.2l2,1.1l0,0.3L369,463.2z M369,461.5
			l0-1.1l2,0.2l0,2L369,461.5z M368.7,461.4l-2-1.1l0,0l2,0.2L368.7,461.4z M369,459.7l0-1.7l2,1.1l0,0.8L369,459.7z M369,457.6
			l0-0.8l2,0.2l0,1.7L369,457.6z M368.7,457.4l-1.5-0.8l1.5,0.2L368.7,457.4z M373.3,468.5l0,2.9l-0.6-0.1l-1.4-0.8l0-2.5l1.5,0.2
			L373.3,468.5z M373.3,475l-0.9-0.1l-1.1-0.6l0-2.3l1.8,0.2l0.1,0.1L373.3,475z M373.9,477.8c0,0.7-0.1,1.1-0.2,1.4
			c-0.1-0.1-0.1-0.2-0.1-0.2l0,0l0-2.8C373.7,476.2,373.9,476.6,373.9,477.8z M373.4,482.9l-0.9-0.1l-1.1-0.6l0-2.5l2,0.2
			L373.4,482.9z M373.4,490.8L373.4,490.8l-2-1.1l0-2l2,0.2L373.4,490.8z M373.5,494l-2-1.1l0-1.6l2,0.2L373.5,494z M373.5,494.5
			L373.5,494.5l-2-0.1l0-1L373.5,494.5z M373.5,497.7l-2-1.1l0-1.5l2,0.2L373.5,497.7z M373.5,498.2l0,0.2l-2-0.2l0-1.1L373.5,498.2
			z M373.6,505.3l-2-1.1l0-1.7l2,0.2L373.6,505.3z M367.1,498.8l2,1.1l0,1.6l-2-0.2L367.1,498.8z M367,490.9l2,1.1l0,2.1l-2-0.2
			L367,490.9z M367,487.7l2,1.1l0,1.5l-2-0.2L367,487.7z M367,486.8l0-0.2l2,0.2l0,0.2L367,486.8C367,486.8,367,486.8,367,486.8z
			 M366.9,482.3l0-2.1l2,1.1l0,1.2L366.9,482.3C367,482.3,367,482.3,366.9,482.3z M366.9,479.3l2,0.2l0,1.3l-2-1.1L366.9,479.3z
			 M366.9,478.9l0-0.2l2,0.2l0,0.2L366.9,478.9z M366.9,476.1l2,1.1l0,1.3l-1.9-0.2c0,0,0,0,0,0L366.9,476.1z M366.9,474.3l0-2.1
			l2,1.1l0,1.2L366.9,474.3C366.9,474.3,366.9,474.3,366.9,474.3z M366.8,468.6l2,1.1l0,1.3l-2-0.2L366.8,468.6z M366.8,468.1l0-0.4
			c0,0,0,0,0,0l1.9,0.2l0,1.3L366.8,468.1z M366.8,467l0-2.1l2,1.1l0,1.1L366.8,467L366.8,467C366.8,467,366.8,467,366.8,467z
			 M366.8,460.7l2,1.1l0,1.3l-2-0.2l0,0L366.8,460.7z M366.7,456.8l2,1.1l0,1.8l-2-0.2L366.7,456.8z M373.7,458.7
			c0,0.6-0.1,1-0.2,1.3c0,0,0,0,0,0l0-2.7C373.6,457.5,373.7,457.9,373.7,458.7z M373.7,462.4c0,0.8-0.1,1.2-0.2,1.5c0,0,0,0,0,0
			l0-2.9c0,0,0,0,0.1,0.1C373.6,461.1,373.7,461.5,373.7,462.4z M373.6,467.4C373.6,467.4,373.5,467.4,373.6,467.4l-0.1-2.9l0.1,0
			c0.1,0.3,0.3,0.7,0.3,1.5C373.8,466.7,373.7,467.1,373.6,467.4z M373.8,470c0,0.8-0.1,1.3-0.2,1.5l0-2.8l0.1,0.1
			C373.7,469,373.8,469.4,373.8,470z M373.6,475l0-2.6l0.1,0.1c0.1,0.3,0.2,0.7,0.2,1.3c0,0.7-0.1,1-0.2,1.2
			C373.7,474.9,373.6,475,373.6,475z M373.7,482.9l0-3c0,0,0,0,0.1,0c0.1,0.3,0.2,0.8,0.2,1.6C373.9,482.6,373.8,482.9,373.7,482.9z
			 M374,489.3c0,1.2-0.2,1.5-0.3,1.5l0,0l0-2.9c0,0,0.1,0,0.1-0.1l0.1,0.1C374,488.2,374,488.6,374,489.3z M373.8,494.2L373.8,494.2
			l-0.1-2.7c0,0,0,0,0,0c0,0,0.2,0.3,0.2,1.4C374,493.5,373.9,493.9,373.8,494.2z M373.9,497.9l-0.2-0.1l0-2.6
			c0.1,0.2,0.3,0.6,0.3,1.5C374,497.3,374,497.7,373.9,497.9z M374.1,500.6c0,0.9-0.1,1.3-0.2,1.5c0,0,0,0,0,0l0-2.8c0,0,0,0,0.1,0
			C373.9,499.4,374.1,499.7,374.1,500.6z M374.1,505.6l-0.2-0.1l0-2.7c0.1,0.3,0.3,0.9,0.3,2C374.1,505.2,374.1,505.5,374.1,505.6z
			 M366.8,502.7l0,1.9c-0.1-0.2-0.1-0.6-0.1-1C366.7,503.2,366.8,502.9,366.8,502.7z M366.7,499.9c0-0.5,0-0.8,0.1-1.1l0,2.2
			C366.8,500.8,366.7,500.5,366.7,499.9z M366.8,495.1l0,2.4c-0.1-0.3-0.2-0.7-0.2-1.3C366.6,495.8,366.7,495.4,366.8,495.1z
			 M366.6,492.3c0-0.5,0-0.8,0.1-1.1l0,2.1C366.7,493.1,366.6,492.8,366.6,492.3z M366.7,487.5L366.7,487.5l0.1,2.2
			c-0.1-0.3-0.2-0.7-0.2-1.2C366.6,488,366.6,487.7,366.7,487.5z M366.5,484.5c0-0.7,0.1-1.1,0.2-1.3l0,0.5l-0.1,0.2l0.1,0l0,2
			C366.6,485.6,366.5,485.2,366.5,484.5z M366.6,479.6l0,0.2l0,0.2l0.1,0l0,2c-0.1-0.3-0.1-0.7-0.1-1.2
			C366.5,480.2,366.6,479.8,366.6,479.6z M366.5,476.4c0-0.5,0-0.9,0.1-1.1c0,0,0,0,0,0l0,0.4l0,0.2l0,0l0,1.6
			C366.6,477.2,366.5,476.9,366.5,476.4z M366.4,473c0-0.7,0.1-1.1,0.1-1.3l0,0.2l-0.1,0.2l0.1,0l0,2.4c0,0,0,0,0,0
			C366.5,474.2,366.4,473.7,366.4,473z M366.5,469.4c0-0.4,0-0.7,0-1l0,0l0,2C366.5,470.2,366.5,469.9,366.5,469.4z M366.5,464.3
			l0,0.2l0,0.2l0,0l0,1.8c-0.1-0.3-0.1-0.6-0.1-1.1C366.4,464.9,366.4,464.6,366.5,464.3z M366.4,461.7c0-0.5,0-0.8,0.1-1.1l0,2.1
			C366.4,462.5,366.4,462.2,366.4,461.7z M366.3,457.5c0-0.9,0.1-1.1,0.1-1.1l0,0l0,0.2l0,0l0,2.3
			C366.4,458.6,366.3,458.2,366.3,457.5z"/>
		<path fill="#6C6361" d="M366.2,437.8c-0.2,0.3-0.3,0.9-0.3,1.9c0,1.1,0.2,1.6,0.4,1.9l0,0.2l0.1,0c0,0-0.1,0.1-0.1,0.1
			c-0.2,0.4-0.3,0.9-0.3,1.7c0,1,0.2,1.5,0.4,1.9c-0.2,0.3-0.3,0.8-0.3,1.8c0,0.8,0.1,1.4,0.3,1.7c0,0.1,0.1,0.1,0.1,0.1l0,0.2
			c0,0,0,0,0,0c-0.2,0.3-0.3,0.9-0.3,1.6c0,0.9,0.2,1.4,0.4,1.7c-0.2,0.3-0.4,0.7-0.4,1.7l0.3,0c0-0.9,0.2-1.2,0.3-1.4
			c0.1,0.1,0.2,0.2,0.2,0.2l6.5,0.7l0.5,0.4l0.1-0.4l-0.2-0.2c0,0,0,0,0-0.1l0.1,0l0.1-0.4l0,0c0-0.3,0.1-0.6,0.1-1
			c0-0.9-0.1-1.5-0.2-1.9l0.1,0l0.1-0.4l-0.2-0.1c0.1-0.3,0.3-0.8,0.2-1.7c0-0.8-0.1-1.3-0.3-1.6c-0.1-0.1-0.2-0.1-0.2-0.2
			c0.1,0,0.2-0.1,0.3-0.3l0.1,0.1l0.1-0.4l-0.1,0c0.1-0.3,0.1-0.7,0.1-1.3c0-1-0.2-1.6-0.4-1.9c0,0,0-0.1,0.1-0.1l0.2,0.1l0.1-0.4
			l-0.1-0.1c0.1-0.4,0.1-0.8,0.1-1.5c0-0.5,0-0.9-0.1-1.2l0.1-0.4l-0.2-0.1c0,0,0,0,0,0c0.2-0.3,0.3-0.9,0.3-1.8
			c0-1-0.1-1.6-0.3-1.9c0.1-0.3,0.2-0.8,0.2-1.5l-0.3,0c0,0.5,0,0.8-0.1,1.1c0-0.1-0.1-0.1-0.1-0.1l0,0l-6.8-0.7l0,0.5l6.7,0.7
			c0,0,0,0,0,0c-0.1,0.1-0.1,0.1-0.1,0.1l-6.5-0.7c-0.1,0-0.3-0.1-0.5,0.2c-0.2,0.3-0.3,0.8-0.3,1.5
			C365.8,436.9,366,437.4,366.2,437.8z M366.2,434.8l5.6,3.1l-5.4-0.6l0,0c-0.2-0.2-0.3-0.7-0.3-1.6
			C366.1,435.3,366.2,435,366.2,434.8z M372.9,438.1l-6.2-3.5l6.4,0.7c0,0,0.1,0,0.3-0.2c0.1,0.3,0.2,0.8,0.2,1.6
			c0,1.2-0.2,1.5-0.3,1.5L372.9,438.1z M373.4,441.5l-5.9-3.3l5.7,0.6l0,0c0,0,0,0,0.1,0c0,0,0.2,0.3,0.2,1.4
			C373.5,440.8,373.5,441.2,373.4,441.5z M373.5,445.3l-5.7-3.2l5.3,0.5l0,0c0,0,0.1,0,0.1-0.1c0.1,0.2,0.3,0.6,0.3,1.6
			C373.6,444.6,373.5,445,373.5,445.3z M373.6,447.9c0,0.9-0.1,1.3-0.2,1.5c0,0,0,0,0,0l-0.1,0l0,0l-6.1-3.4l6,0.6l0,0
			c0,0,0.1,0,0.2,0.1C373.5,446.8,373.6,447.1,373.6,447.9z M373.6,453l-6.2-3.4l5.8,0.6l0,0c0,0,0,0,0.1,0c0.1,0.3,0.3,0.9,0.3,2
			C373.7,452.5,373.6,452.8,373.6,453z M366.5,449.6c0-0.1,0.1-0.1,0.1-0.1l6.2,3.5l-6.1-0.6c0,0-0.1,0-0.1,0
			c-0.2-0.2-0.3-0.7-0.3-1.5C366.3,450.3,366.4,449.9,366.5,449.6z M366.3,447.2c0-0.6,0.1-0.9,0.1-1.2l5.8,3.2l-5.6-0.6
			c0,0-0.1,0-0.1-0.1C366.4,448.5,366.3,448.1,366.3,447.2z M366.7,442l6.6,3.7c0,0.1-0.1,0.1-0.1,0.1l-6.6-0.7l0,0
			c0,0-0.1,0-0.2,0.1c-0.2-0.3-0.3-0.8-0.3-1.6c0-0.6,0.1-1.1,0.2-1.4C366.6,442,366.7,442,366.7,442L366.7,442z M366.2,439.7
			c0-0.8,0.1-1.3,0.2-1.5l6.8,3.8c0,0,0,0,0,0c0,0-0.1-0.1-0.1-0.1l-6.6-0.7C366.5,441.2,366.2,440.8,366.2,439.7z"/>
		<polygon fill="#6C6361" points="384,403.8 384.9,403.7 384.9,404.7 384.1,404.7 		"/>
		<polygon fill="#6C6361" points="380.7,403.9 381.5,403.9 381.5,404.8 380.7,404.9 		"/>
		
			<rect x="385.7" y="403.7" transform="matrix(0.9988 -4.891452e-02 4.891452e-02 0.9988 -19.3061 19.3719)" fill="#6C6361" width="0.8" height="1"/>
		
			<rect x="382.4" y="403.8" transform="matrix(0.9992 -4.025171e-02 4.025171e-02 0.9992 -15.9632 15.7351)" fill="#6C6361" width="0.8" height="1"/>
		<polygon fill="#6C6361" points="379,403.9 379.8,403.9 379.9,404.9 379,404.9 		"/>
		
			<rect x="392.4" y="403.3" transform="matrix(0.998 -6.326446e-02 6.326446e-02 0.998 -24.757 25.6627)" fill="#6C6361" width="0.8" height="1"/>
		<polygon fill="#6C6361" points="395.8,403.6 395.9,403.1 396.6,403 396.7,404 395.8,404.1 		"/>
		<polygon fill="#6C6361" points="387.4,404.1 387.5,403.6 388.2,403.5 388.3,404.5 387.4,404.6 		"/>
		<polygon fill="#6C6361" points="394.1,403.2 394.9,403.1 395,404.1 394.1,404.2 		"/>
		<polygon fill="#6C6361" points="397.4,403 398.3,402.9 398.3,403.9 397.5,403.9 		"/>
		
			<rect x="389.1" y="403.5" transform="matrix(0.9984 -5.625996e-02 5.625996e-02 0.9984 -22.1101 22.5534)" fill="#6C6361" width="0.8" height="1"/>
		
			<rect x="390.8" y="403.4" transform="matrix(0.9982 -5.932480e-02 5.932480e-02 0.9982 -23.2704 23.9182)" fill="#6C6361" width="0.8" height="1"/>
		
			<rect x="399.1" y="402.8" transform="matrix(0.9972 -7.506496e-02 7.506496e-02 0.9972 -29.1462 31.1315)" fill="#6C6361" width="0.8" height="1"/>
		
			<rect x="377.3" y="404" transform="matrix(0.9997 -2.530835e-02 2.530835e-02 0.9997 -10.1152 9.6894)" fill="#6C6361" width="0.8" height="1"/>
		
			<rect x="306.9" y="397.9" transform="matrix(0.1487 -0.9889 0.9889 0.1487 -132.1704 643.0873)" fill="#6C6361" width="1" height="0.8"/>
		
			<rect x="305.3" y="397.6" transform="matrix(0.15 -0.9887 0.9887 0.15 -133.661 640.6453)" fill="#6C6361" width="1" height="0.8"/>
		<polygon fill="#6C6361" points="310.4,398.3 311.3,398.4 311.1,399.4 310.3,399.2 		"/>
		
			<rect x="313.6" y="398.9" transform="matrix(0.1413 -0.99 0.99 0.1413 -125.5717 653.8091)" fill="#6C6361" width="1" height="0.8"/>
		
			<rect x="303.6" y="397.4" transform="matrix(0.1524 -0.9883 0.9883 0.1524 -135.386 637.756)" fill="#6C6361" width="1" height="0.8"/>
		
			<rect x="308.6" y="398.1" transform="matrix(0.1467 -0.9892 0.9892 0.1467 -130.4975 645.8394)" fill="#6C6361" width="1" height="0.8"/>
		
			<rect x="302" y="397.1" transform="matrix(0.1537 -0.9881 0.9881 0.1537 -136.855 635.3151)" fill="#6C6361" width="1" height="0.8"/>
		
			<rect x="295.6" y="396.4" transform="matrix(0.1614 -0.9869 0.9869 0.1614 -143.0366 624.7219)" fill="#6C6361" width="1" height="0.2"/>
		
			<rect x="297" y="396.3" transform="matrix(0.1608 -0.987 0.987 0.1608 -141.9741 626.5262)" fill="#6C6361" width="1" height="0.8"/>
		
			<rect x="298.6" y="396.6" transform="matrix(0.1585 -0.9874 0.9874 0.1585 -140.2996 629.4227)" fill="#6C6361" width="1" height="0.8"/>
		
			<rect x="300.3" y="396.9" transform="matrix(0.1564 -0.9877 0.9877 0.1564 -138.6712 632.2079)" fill="#6C6361" width="1" height="0.8"/>
		
			<rect x="311.9" y="398.6" transform="matrix(0.1436 -0.9896 0.9896 0.1436 -127.3545 650.9256)" fill="#6C6361" width="1" height="0.8"/>
		<polygon fill="#6C6361" points="373.9,404 374.8,404 374.8,405 374,405 		"/>
		
			<rect x="375.6" y="404" transform="matrix(0.9998 -1.977461e-02 1.977461e-02 0.9998 -7.9252 7.5154)" fill="#6C6361" width="0.8" height="1"/>
		<polygon fill="#6C6361" points="372.3,404.5 372.3,404.1 373.1,404.1 373.1,405 372.3,405 		"/>
		
			<rect x="424.3" y="400.4" transform="matrix(0.9936 -0.1128 0.1128 0.9936 -42.5019 50.4495)" fill="#6C6361" width="0.8" height="1"/>
		<polygon fill="#6C6361" points="429.2,399.9 430.1,399.8 430.2,400.8 429.4,400.9 		"/>
		
			<rect x="425.9" y="400.2" transform="matrix(0.9933 -0.116 0.116 0.9933 -43.5961 52.1505)" fill="#6C6361" width="0.8" height="1"/>
		
			<rect x="427.6" y="400" transform="matrix(0.9929 -0.1189 0.1189 0.9929 -44.5856 53.7341)" fill="#6C6361" width="0.8" height="1"/>
		<rect x="370.6" y="404.1" fill="#6C6361" width="0.8" height="1"/>
		<polygon fill="#6C6361" points="362.2,404.9 362.2,404.4 362.3,403.9 363,403.9 363,404.9 		"/>
		
			<rect x="368.8" y="404.1" transform="matrix(8.140842e-03 -1 1 8.140842e-03 -38.2157 770.5662)" fill="#6C6361" width="1" height="0.8"/>
		<polygon fill="#6C6361" points="363.8,404.9 363.9,403.9 364.7,404 364.7,405 		"/>
		<polygon fill="#6C6361" points="315.4,399 316.2,399.1 316.1,400.1 315.3,400 		"/>
		<polygon fill="#6C6361" points="367.2,405 367.2,404 368.1,404 368.1,405 		"/>
		<polygon fill="#6C6361" points="365.5,405 365.6,404 366.4,404 366.4,405 		"/>
		
			<rect x="404.2" y="402.4" transform="matrix(0.9965 -8.356743e-02 8.356743e-02 0.9965 -32.2539 35.2207)" fill="#6C6361" width="0.8" height="1"/>
		
			<rect x="405.9" y="402.3" transform="matrix(0.9963 -8.598284e-02 8.598284e-02 0.9963 -33.1254 36.4244)" fill="#6C6361" width="0.8" height="1"/>
		
			<rect x="407.5" y="402.1" transform="matrix(0.9961 -8.840057e-02 8.840057e-02 0.9961 -33.9937 37.6395)" fill="#6C6361" width="0.8" height="1"/>
		
			<rect x="409.2" y="402" transform="matrix(0.9959 -9.074920e-02 9.074920e-02 0.9959 -34.8325 38.8341)" fill="#6C6361" width="0.8" height="1"/>
		
			<rect x="410.9" y="401.8" transform="matrix(0.9957 -9.316950e-02 9.316950e-02 0.9957 -35.6933 40.0709)" fill="#6C6361" width="0.8" height="1"/>
		
			<rect x="402.5" y="402.5" transform="matrix(0.9967 -8.121814e-02 8.121814e-02 0.9967 -31.4027 34.0563)" fill="#6C6361" width="0.8" height="1"/>
		<polygon fill="#6C6361" points="400.8,402.7 401.6,402.6 401.7,403.6 400.9,403.7 		"/>
		
			<rect x="415.9" y="401.3" transform="matrix(0.995 -0.1003 0.1003 0.995 -38.1973 43.7773)" fill="#6C6361" width="0.8" height="1"/>
		
			<rect x="419.3" y="401" transform="matrix(0.9945 -0.1051 0.1051 0.9945 -39.8539 46.3106)" fill="#6C6361" width="0.8" height="1"/>
		
			<rect x="417.6" y="401.2" transform="matrix(0.9947 -0.1026 0.1026 0.9947 -39.0133 45.0203)" fill="#6C6361" width="0.8" height="1"/>
		<polygon fill="#6C6361" points="420.9,401.3 421,400.8 421.7,400.8 421.8,401.7 421,401.8 		"/>
		
			<rect x="414.2" y="401.5" transform="matrix(0.9952 -9.786264e-02 9.786264e-02 0.9952 -37.3485 42.5087)" fill="#6C6361" width="0.8" height="1"/>
		
			<rect x="412.6" y="401.7" transform="matrix(0.9954 -9.544186e-02 9.544186e-02 0.9954 -36.4961 41.2513)" fill="#6C6361" width="0.8" height="1"/>
		
			<rect x="422.6" y="400.6" transform="matrix(0.9939 -0.1104 0.1104 0.9939 -41.7075 49.1683)" fill="#6C6361" width="0.8" height="1"/>
		
			<rect x="328.6" y="400.9" transform="matrix(0.1231 -0.9924 0.9924 0.1231 -109.6517 678.519)" fill="#6C6361" width="1" height="0.8"/>
		
			<rect x="337" y="401.9" transform="matrix(0.1112 -0.9938 0.9938 0.1112 -99.8705 692.9177)" fill="#6C6361" width="1" height="0.8"/>
		
			<rect x="323.6" y="400.2" transform="matrix(0.1303 -0.9915 0.9915 0.1303 -115.3656 669.8109)" fill="#6C6361" width="1" height="0.8"/>
		
			<rect x="345.3" y="402.7" transform="matrix(9.589361e-02 -0.9954 0.9954 9.589361e-02 -88.6496 708.7366)" fill="#6C6361" width="1" height="0.8"/>
		
			<rect x="355.4" y="403.6" transform="matrix(6.877496e-02 -0.9976 0.9976 6.877496e-02 -71.6463 731.2596)" fill="#6C6361" width="1" height="0.8"/>
		<polygon fill="#6C6361" points="330.4,401 331.2,401.1 331.1,402 330.3,401.9 		"/>
		
			<rect x="321.9" y="400" transform="matrix(0.1326 -0.9912 0.9912 0.1326 -117.2242 666.9338)" fill="#6C6361" width="1" height="0.8"/>
		
			<rect x="326.9" y="400.7" transform="matrix(0.1256 -0.9921 0.9921 0.1256 -111.606 675.5612)" fill="#6C6361" width="1" height="0.8"/>
		
			<rect x="335.3" y="401.7" transform="matrix(0.1147 -0.9934 0.9934 0.1147 -102.1767 689.5579)" fill="#6C6361" width="1" height="0.8"/>
		
			<rect x="350.4" y="403.2" transform="matrix(8.369894e-02 -0.9965 0.9965 8.369894e-02 -80.7224 719.4548)" fill="#6C6361" width="1" height="0.8"/>
		
			<rect x="347" y="402.9" transform="matrix(9.167580e-02 -0.9958 0.9958 9.167580e-02 -85.9887 712.3832)" fill="#6C6361" width="1" height="0.8"/>
		
			<rect x="342" y="402.4" transform="matrix(0.1026 -0.9947 0.9947 0.1026 -93.3752 702.1657)" fill="#6C6361" width="1" height="0.8"/>
		
			<rect x="325.3" y="400.5" transform="matrix(0.1279 -0.9918 0.9918 0.1279 -113.4921 672.6876)" fill="#6C6361" width="1" height="0.8"/>
		<polygon fill="#6C6361" points="353.8,403.4 354.7,403.4 354.5,404.4 353.7,404.3 		"/>
		
			<rect x="340.3" y="402.2" transform="matrix(0.1058 -0.9944 0.9944 0.1058 -95.6363 698.9749)" fill="#6C6361" width="1" height="0.8"/>
		
			<rect x="332" y="401.3" transform="matrix(0.1186 -0.9929 0.9929 0.1186 -105.8568 684.1717)" fill="#6C6361" width="1" height="0.8"/>
		<polygon fill="#6C6361" points="317.1,399.2 317.9,399.3 317.8,400.3 316.9,400.2 		"/>
		
			<rect x="352" y="403.3" transform="matrix(7.808365e-02 -0.9969 0.9969 7.808365e-02 -77.5275 723.6794)" fill="#6C6361" width="1" height="0.8"/>
		
			<rect x="318.6" y="399.6" transform="matrix(0.1367 -0.9906 0.9906 0.1367 -120.7504 661.4266)" fill="#6C6361" width="1" height="0.8"/>
		
			<rect x="360.4" y="403.9" transform="matrix(4.985867e-02 -0.9988 0.9988 4.985867e-02 -60.8836 744.6194)" fill="#6C6361" width="1" height="0.8"/>
		<polygon fill="#6C6361" points="348.8,403 349.6,403 349.5,404 348.7,403.9 		"/>
		
			<rect x="357.1" y="403.7" transform="matrix(6.326446e-02 -0.998 0.998 6.326446e-02 -68.3711 735.3951)" fill="#6C6361" width="1" height="0.8"/>
		<polygon fill="#6C6361" points="320.4,399.7 321.2,399.8 321.1,400.8 320.3,400.6 		"/>
		
			<rect x="338.6" y="402.1" transform="matrix(0.1085 -0.9941 0.9941 0.1085 -97.7786 695.924)" fill="#6C6361" width="1" height="0.8"/>
		
			<rect x="333.6" y="401.5" transform="matrix(0.117 -0.9931 0.9931 0.117 -104.1351 686.6943)" fill="#6C6361" width="1" height="0.8"/>
		
			<rect x="358.7" y="403.8" transform="matrix(5.617108e-02 -0.9984 0.9984 5.617108e-02 -64.5218 740.1863)" fill="#6C6361" width="1" height="0.8"/>
		
			<rect x="343.7" y="402.6" transform="matrix(9.903306e-02 -0.9951 0.9951 9.903306e-02 -90.9532 705.5554)" fill="#6C6361" width="1" height="0.8"/>
		<polygon fill="#6C6361" points="349.1,406.9 349,407.9 348.2,407.8 348.3,406.8 		"/>
		
			<rect x="418.7" y="404.9" transform="matrix(0.9945 -0.1049 0.1049 0.9945 -40.2052 46.2025)" fill="#6C6361" width="0.8" height="1"/>
		<polygon fill="#6C6361" points="315.7,403 315.6,404 314.8,403.8 314.9,402.9 		"/>
		
			<rect x="343.2" y="406.5" transform="matrix(9.775601e-02 -0.9952 0.9952 9.775601e-02 -94.8888 709.1115)" fill="#6C6361" width="1" height="0.8"/>
		
			<rect x="408.7" y="405.9" transform="matrix(0.9959 -9.089205e-02 9.089205e-02 0.9959 -35.2398 38.8677)" fill="#6C6361" width="0.8" height="1"/>
		
			<rect x="410.4" y="405.7" transform="matrix(0.9957 -9.316950e-02 9.316950e-02 0.9957 -36.0573 40.0404)" fill="#6C6361" width="0.8" height="1"/>
		
			<rect x="344.8" y="406.6" transform="matrix(9.506544e-02 -0.9955 0.9955 9.506544e-02 -92.7219 712.1064)" fill="#6C6361" width="1" height="0.8"/>
		
			<rect x="407" y="406" transform="matrix(0.9961 -8.853979e-02 8.853979e-02 0.9961 -34.3907 37.6715)" fill="#6C6361" width="0.8" height="1"/>
		
			<rect x="346.5" y="406.8" transform="matrix(8.955694e-02 -0.996 0.996 8.955694e-02 -89.6622 716.3348)" fill="#6C6361" width="1" height="0.8"/>
		
			<rect x="415.4" y="405.2" transform="matrix(0.995 -0.1003 0.1003 0.995 -38.5894 43.7459)" fill="#6C6361" width="0.8" height="1"/>
		
			<rect x="412.1" y="405.5" transform="matrix(0.9954 -9.559198e-02 9.559198e-02 0.9954 -36.9242 41.2883)" fill="#6C6361" width="0.8" height="1"/>
		
			<rect x="413.7" y="405.4" transform="matrix(0.9952 -9.801661e-02 9.801661e-02 0.9952 -37.7873 42.5475)" fill="#6C6361" width="0.8" height="1"/>
		
			<rect x="351.5" y="407.2" transform="matrix(7.866701e-02 -0.9969 0.9969 7.866701e-02 -82.0551 726.4989)" fill="#6C6361" width="1" height="0.8"/>
		
			<rect x="368.3" y="408" transform="matrix(6.309023e-03 -1 1 6.309023e-03 -41.9337 774.6628)" fill="#6C6361" width="1" height="0.8"/>
		
			<rect x="358.2" y="407.7" transform="matrix(5.426774e-02 -0.9985 0.9985 5.426774e-02 -68.2398 744.1587)" fill="#6C6361" width="1" height="0.8"/>
		<polygon fill="#6C6361" points="372.6,408.9 371.8,408.9 371.8,408.4 371.8,407.9 372.6,407.9 		"/>
		<polygon fill="#6C6361" points="367.5,408.9 366.7,408.9 366.7,407.9 367.6,407.9 		"/>
		<polygon fill="#6C6361" points="370.9,408.9 370.1,408.9 370.1,407.9 370.9,407.9 		"/>
		
			<rect x="356.6" y="407.6" transform="matrix(6.246283e-02 -0.998 0.998 6.246283e-02 -72.458 738.8707)" fill="#6C6361" width="1" height="0.8"/>
		<polygon fill="#6C6361" points="361.8,407.8 362.5,407.8 362.5,408.8 361.6,408.7 361.7,408.3 		"/>
		
			<rect x="359.9" y="407.8" transform="matrix(4.885464e-02 -0.9988 0.9988 4.885464e-02 -64.9042 748.2293)" fill="#6C6361" width="1" height="0.8"/>
		<polygon fill="#6C6361" points="364.2,408.8 363.3,408.8 363.4,407.8 364.2,407.9 		"/>
		<polygon fill="#6C6361" points="365.9,408.9 365,408.9 365,407.9 365.9,407.9 		"/>
		
			<rect x="349.8" y="407.1" transform="matrix(8.416893e-02 -0.9965 0.9965 8.416893e-02 -85.2078 722.3019)" fill="#6C6361" width="1" height="0.8"/>
		
			<rect x="425.4" y="404.1" transform="matrix(0.9933 -0.1158 0.1158 0.9933 -43.9856 52.0319)" fill="#6C6361" width="0.8" height="1"/>
		
			<rect x="427.1" y="403.9" transform="matrix(0.9929 -0.1187 0.1187 0.9929 -44.9854 53.6128)" fill="#6C6361" width="0.8" height="1"/>
		
			<rect x="423.8" y="404.3" transform="matrix(0.9936 -0.1128 0.1128 0.9936 -42.9432 50.4169)" fill="#6C6361" width="0.8" height="1"/>
		<polygon fill="#6C6361" points="421.2,404.6 421.3,405.6 420.5,405.7 420.4,405.2 420.5,404.7 		"/>
		
			<rect x="422.1" y="404.5" transform="matrix(0.9939 -0.1104 0.1104 0.9939 -42.1396 49.1359)" fill="#6C6361" width="0.8" height="1"/>
		<polygon fill="#6C6361" points="354.1,407.3 354,408.3 353.2,408.2 353.3,407.3 		"/>
		
			<rect x="354.9" y="407.5" transform="matrix(6.787035e-02 -0.9977 0.9977 6.787035e-02 -75.6984 734.7599)" fill="#6C6361" width="1" height="0.8"/>
		
			<rect x="375.1" y="407.9" transform="matrix(0.9998 -1.971226e-02 1.971226e-02 0.9998 -7.9771 7.4821)" fill="#6C6361" width="0.8" height="1"/>
		<polygon fill="#6C6361" points="374.3,408.9 373.4,408.9 373.4,407.9 374.3,407.9 		"/>
		<polygon fill="#6C6361" points="429.7,404.6 428.9,404.7 428.7,403.8 429.6,403.7 		"/>
		
			<rect x="417.1" y="405" transform="matrix(0.9947 -0.1026 0.1026 0.9947 -39.4146 44.9886)" fill="#6C6361" width="0.8" height="1"/>
		
			<rect x="324.8" y="404.3" transform="matrix(0.1275 -0.9918 0.9918 0.1275 -117.6849 675.7388)" fill="#6C6361" width="1" height="0.8"/>
		
			<rect x="298.1" y="400.5" transform="matrix(0.1574 -0.9875 0.9875 0.1574 -144.2908 632.7081)" fill="#6C6361" width="1" height="0.8"/>
		
			<rect x="301.4" y="401" transform="matrix(0.1547 -0.988 0.988 0.1547 -141.375 637.6275)" fill="#6C6361" width="1" height="0.8"/>
		
			<rect x="299.8" y="400.7" transform="matrix(0.1547 -0.988 0.988 0.1547 -142.5239 635.7608)" fill="#6C6361" width="1" height="0.8"/>
		
			<rect x="323.1" y="404.1" transform="matrix(0.1302 -0.9915 0.9915 0.1302 -119.6476 672.7031)" fill="#6C6361" width="1" height="0.8"/>
		
			<rect x="296.5" y="400.2" transform="matrix(0.1602 -0.9871 0.9871 0.1602 -146.0941 629.5547)" fill="#6C6361" width="1" height="0.8"/>
		<path fill="#6C6361" d="M295.5,400.4l0.1-0.5l0.2,0l-0.1,0.4h0.3l-0.3,0l-0.1,0.5c-0.2,0-0.6-0.1-0.6-0.5H295.5z"/>
		<polygon fill="#6C6361" points="379.3,408.8 378.5,408.8 378.5,407.8 379.3,407.8 		"/>
		
			<rect x="328.1" y="404.8" transform="matrix(0.1222 -0.9925 0.9925 0.1222 -113.7105 681.8068)" fill="#6C6361" width="1" height="0.8"/>
		
			<rect x="376.8" y="407.9" transform="matrix(0.9997 -2.530835e-02 2.530835e-02 0.9997 -10.2136 9.6777)" fill="#6C6361" width="0.8" height="1"/>
		
			<rect x="326.4" y="404.6" transform="matrix(0.1249 -0.9922 0.9922 0.1249 -115.7046 678.7734)" fill="#6C6361" width="1" height="0.8"/>
		
			<rect x="313.1" y="402.8" transform="matrix(0.1412 -0.99 0.99 0.1412 -129.8336 656.6768)" fill="#6C6361" width="1" height="0.8"/>
		
			<rect x="311.4" y="402.5" transform="matrix(0.1439 -0.9896 0.9896 0.1439 -131.7002 653.6295)" fill="#6C6361" width="1" height="0.8"/>
		
			<rect x="318.1" y="403.5" transform="matrix(0.1357 -0.9907 0.9907 0.1357 -124.7894 664.6976)" fill="#6C6361" width="1" height="0.8"/>
		<polygon fill="#6C6361" points="317.4,403.2 317.3,404.2 316.4,404.1 316.6,403.1 		"/>
		<polygon fill="#6C6361" points="310.7,402.3 310.6,403.2 309.8,403.1 309.9,402.1 		"/>
		<polygon fill="#6C6361" points="381,408.7 380.2,408.7 380.2,407.8 381,407.7 		"/>
		
			<rect x="306.4" y="401.8" transform="matrix(0.1465 -0.9892 0.9892 0.1465 -135.905 646.8679)" fill="#6C6361" width="1" height="0.8"/>
		
			<rect x="304.8" y="401.5" transform="matrix(0.1492 -0.9888 0.9888 0.1492 -137.7287 643.8185)" fill="#6C6361" width="1" height="0.8"/>
		
			<rect x="308.1" y="402" transform="matrix(0.1465 -0.9892 0.9892 0.1465 -134.7317 648.7258)" fill="#6C6361" width="1" height="0.8"/>
		
			<rect x="321.4" y="403.9" transform="matrix(0.1331 -0.9911 0.9911 0.1331 -121.6423 669.5857)" fill="#6C6361" width="1" height="0.8"/>
		
			<rect x="303.1" y="401.3" transform="matrix(0.1521 -0.9884 0.9884 0.1521 -139.5851 640.6771)" fill="#6C6361" width="1" height="0.8"/>
		<polygon fill="#6C6361" points="320.7,403.7 320.6,404.6 319.8,404.5 319.9,403.6 		"/>
		
			<rect x="341.5" y="406.3" transform="matrix(0.1031 -0.9947 0.9947 0.1031 -97.8458 704.9242)" fill="#6C6361" width="1" height="0.8"/>
		
			<rect x="398.6" y="406.7" transform="matrix(0.9972 -7.488793e-02 7.488793e-02 0.9972 -29.3725 31.0282)" fill="#6C6361" width="0.8" height="1"/>
		
			<rect x="338.1" y="405.9" transform="matrix(0.1086 -0.9941 0.9941 0.1086 -102.1261 698.8322)" fill="#6C6361" width="1" height="0.8"/>
		<polygon fill="#6C6361" points="394.5,408 393.6,408.1 393.6,407.1 394.4,407 		"/>
		
			<rect x="336.5" y="405.8" transform="matrix(0.1113 -0.9938 0.9938 0.1113 -104.2165 695.8137)" fill="#6C6361" width="1" height="0.8"/>
		<polygon fill="#6C6361" points="396.1,406.9 396.2,407.9 395.3,407.9 395.3,407.5 395.3,407 		"/>
		<polygon fill="#6C6361" points="397.8,407.8 397,407.8 396.9,406.8 397.8,406.8 		"/>
		<polygon fill="#6C6361" points="330.7,405 330.6,405.9 329.8,405.8 329.9,404.9 		"/>
		
			<rect x="405.3" y="406.2" transform="matrix(0.9963 -8.611821e-02 8.611821e-02 0.9963 -33.5116 36.4548)" fill="#6C6361" width="0.8" height="1"/>
		
			<rect x="402" y="406.4" transform="matrix(0.9967 -8.141008e-02 8.141008e-02 0.9967 -31.7916 34.1115)" fill="#6C6361" width="0.8" height="1"/>
		<polygon fill="#6C6361" points="401.2,407.5 400.4,407.6 400.3,406.6 401.1,406.5 		"/>
		
			<rect x="339.8" y="406.1" transform="matrix(0.1031 -0.9947 0.9947 0.1031 -99.1728 703.1019)" fill="#6C6361" width="1" height="0.8"/>
		
			<rect x="403.7" y="406.3" transform="matrix(0.9965 -8.369894e-02 8.369894e-02 0.9965 -32.6293 35.2495)" fill="#6C6361" width="0.8" height="1"/>
		
			<rect x="385.2" y="407.5" transform="matrix(0.9988 -4.876083e-02 4.876083e-02 0.9988 -19.4369 19.2893)" fill="#6C6361" width="0.8" height="1"/>
		
			<rect x="331.4" y="405.2" transform="matrix(0.1194 -0.9929 0.9929 0.1194 -110.3818 686.7453)" fill="#6C6361" width="1" height="0.8"/>
		<polygon fill="#6C6361" points="387.7,407.4 387.8,408.4 386.9,408.5 386.9,408 387,407.5 		"/>
		
			<rect x="391.9" y="407.2" transform="matrix(0.998 -6.306536e-02 6.306536e-02 0.998 -24.9275 25.555)" fill="#6C6361" width="0.8" height="1"/>
		
			<rect x="381.8" y="407.7" transform="matrix(0.9992 -4.025171e-02 4.025171e-02 0.9992 -16.1199 15.7177)" fill="#6C6361" width="0.8" height="1"/>
		<polygon fill="#6C6361" points="384.4,408.6 383.6,408.6 383.5,407.6 384.4,407.6 		"/>
		
			<rect x="334.8" y="405.6" transform="matrix(0.114 -0.9935 0.9935 0.114 -106.2901 692.7932)" fill="#6C6361" width="1" height="0.8"/>
		
			<rect x="333.1" y="405.4" transform="matrix(0.1167 -0.9932 0.9932 0.1167 -108.3446 689.7709)" fill="#6C6361" width="1" height="0.8"/>
		
			<rect x="390.3" y="407.3" transform="matrix(0.9982 -5.932480e-02 5.932480e-02 0.9982 -23.5017 23.8947)" fill="#6C6361" width="0.8" height="1"/>
		
			<rect x="388.6" y="407.4" transform="matrix(0.9984 -5.608248e-02 5.608248e-02 0.9984 -22.261 22.4579)" fill="#6C6361" width="0.8" height="1"/>
	</g>
</g>
<g id="SHADING">
	<g opacity="2.000000e-02">
		<g>
			<path d="M293.8,311.5c-0.1,2-0.2,3.2-0.2,3.2S293.6,313.6,293.8,311.5 M323.2,250.8c0,0-19.6,6.4-23.9,19.1
				c-3.5,10.3-5.1,33.1-5.6,41.6c0.4-6.3,2-20.2,7-29.6C307.4,269.5,323.2,250.8,323.2,250.8"/>
			<path d="M328.5,270.5l-32.6,34.1c0,0,1.1-10,12.2-20C319.1,274.5,328.5,270.5,328.5,270.5"/>
			<path d="M354.5,318.6c0,0-19.4,22.6-24.8,31.4c-5.4,8.8-31.2,35.7-31.2,35.7s23.9-38.9,34.3-48.8
				C343.3,326.9,354.5,318.6,354.5,318.6"/>
			<path d="M371,345.2c0,0-5.8,15.2-12.7,20.7c-6.9,5.5-24.5,9.3-24.5,9.3s17.8-11.4,23-16.7C362.1,353.2,371,345.2,371,345.2"/>
			<path d="M326.7,569.7c0,0,1.5,17.6-1,30.4c-2.5,12.7-17.6,34.3-17.6,34.3L326.7,569.7"/>
			<path d="M334.6,594.7c0,0,4.9,18.6,2.5,22.1c-2.5,3.4-18.6,14.7-18.6,14.7s12.3-12.3,14.7-21.1
				C335.6,601.5,334.6,594.7,334.6,594.7"/>
		</g>
	</g>
	<g>
	</g>
</g>
</svg>
