<?xml version="1.0" encoding="utf-8"?>
<!-- Generator: Adobe Illustrator 26.0.2, SVG Export Plug-In . SVG Version: 6.00 Build 0)  -->
<svg version="1.1" xmlns="http://www.w3.org/2000/svg" xmlns:xlink="http://www.w3.org/1999/xlink" x="0px" y="0px"
	 viewBox="0 0 615.6 1015.1" enable-background="new 0 0 749.6 1015.1" xml:space="preserve">

<g id="OUTLINE_00000116229273572435575240000002306185632200491455_">
	<path fill="#FFFFFF" stroke="#A39E9B" stroke-miterlimit="10" d="M704.2,467.5l-3.2-15.9c0,0-2.1-91-12.7-128.1
		c-10.6-37-46.6-64.6-52.9-66.7c-3.4-1.1-8.2-4-12.1-6.5c0-0.2,0-0.4,0-0.6c-0.5-0.2-1.2-0.4-2-0.8c-0.7-0.5-1.4-0.9-1.9-1.3
		c0,0.2,0,0.4,0,0.6c-34.7-13.8-46-17.9-53.9-20.8c-7.5-2.9-13.6-5.3-16.4-6.4c-0.2-0.1-0.3-0.1-0.5-0.2
		c-19.2-7.9-40.1-20.3-46.5-25.1c-0.8-0.6-1.8-1.2-3.1-1.7c-3.2-2.2-6.3-4.3-9-6.4c-1.3-0.9-2.5-1.8-3.7-2.7
		c-8.4-6.3-14.1-11.2-16.1-12.8c-5.3-4.2-5.3-7.4-10.6-10.6c-5.3-3.2-7.4-12.7-18-18c-6.7-3.4-37.1-4.6-58.2-5l0-0.3
		c0,0-4.2,0-10.6,0.1c-6.4-0.1-10.6-0.1-10.6-0.1l0,0.3c-21.2,0.4-51.5,1.7-58.2,5c-10.6,5.3-12.7,14.8-18,18
		c-5.3,3.2-5.3,6.4-10.6,10.6c-1.6,1.2-5.5,4.6-11.3,9.1c-3.6,2.8-7.9,6.1-12.9,9.5c0,0,0,0,0,0c0,0-0.1,0.1-0.2,0.1
		c-0.4,0.3-0.8,0.5-1.1,0.8c-7.6,5-27.5,13.9-44.4,23.8c-5.4,3.2-14.4,7.3-24.5,11.6c-12.1,4.8-28.2,11.2-40,15.9
		c-7.3,2.7-12.8,4.7-15.1,5.4c0-0.2,0-0.4,0-0.5c0,0,0,0,0,0c-3.7,2.6-11,7.4-15.6,8.9c-6.4,2.1-42.3,29.6-52.9,66.7
		c-10.6,37-12.7,128.1-12.7,128.1l-3.2,15.9l-3.2,9.5c0,0,37,9.5,68.8,11.6c31.8,2.1,51.9,2.1,51.9,2.1s2.1-2.1,1.1-8.5
		c-1.1-6.4-2.1-8.5-1.1-11.6c1-3,4.8-12.4,5.2-13.6c0-0.6,0-1.2,0-1.9c0,0,0,0,0,0c0-0.6,0-1.3,0-1.9c0,0.6,0,1.3,0,1.9c0,0,0,0,0,0
		c0,0.6,0,1.3,0,1.9c0-0.1,0.1-0.1,0.1-0.1s6.4,33.9,5.3,47.6c-1.1,13.8,6.4,99.5,11.6,126c5.3,26.5,11.6,94.2,6.4,122.8
		c-2.6,14.1-7,39.8-11.2,66.1l42.2-0.1l153.4,5.1l152.1-6l41.7-0.1c-3.2-26.3-4.9-49.9-7.7-65c-5.3-28.6,1.1-96.3,6.4-122.8
		c5.3-26.5,12.7-112.2,11.6-126c-0.9-11.6,3.5-37.3,4.9-45.2c0.4-0.4,0.7-0.7,1-1.1c1.2,2.9,3.9,9.9,4.8,12.4
		c1.1,3.2,0,5.3-1.1,11.6c-1.1,6.4,1.1,8.5,1.1,8.5s20.1,0,51.9-2.1c31.8-2.1,68.8-11.6,68.8-11.6L704.2,467.5z"/>
</g>
	<g id="BACK_BODY">
<g id="SHIRT_BODY">
	<path fill="#FFFFFF" d="M513.1,728.8c-5.3-28.6,1.1-96.3,6.4-122.8c5.3-26.5,20.2-104.8,19.1-118.5c-0.9-11.8,42.7-23.1,44-30.4
		c0-4.9,2.1-29.2,3.1-34.6c1.7-8.5,17.1-55.6,19.9-69.1c2.8-13.5,20.8-40,23-52.4c1.1-6.1-5.5-44.8-5.2-51.3
		c-7.8-2.9-65.6-25.3-74.7-28.9c-23.3-9.2-44.1-22.7-58.6-33.2c-28.8-6.4-70.2-13.1-117.2-13.1c-50.9,0-93.9,8.7-121.6,16.2
		c-14.1,10-33.1,21.7-54.1,30c-9.3,3.7-72.2,28.5-72.2,28.9c0,0,11.8,88,14.7,101.6c2.8,13.5,18.8,84.2,18.8,84.8
		c0-0.1,57.5,34.5,56.5,48.2c-1.1,13.8,6.4,99.5,11.6,126c5.3,26.5,11.6,94.2,6.4,122.8c-3.3,17.7-9.4,53.6-14.3,86.2l155.4,5.1
		l150.1-6C518.7,782.7,516.8,748.5,513.1,728.8z"/>
</g>
    <g id="SHIRT_FAUX_UPPER_BACK_PANEL">
	<path fill="#A39E9B" d="M619.5,248.3c-57.7-22.9-50.9-19.2-70.8-27.4c-19.2-7.9-40.1-20.3-46.5-25.1c-5.5-4.1-26.3-8.9-31-12.4
		c-22.4-2.6-67.2-7.4-94.1-7.7c-28.7-0.4-80.8,6.1-102.6,8.9c-4.4,3.9-18.2,2.5-23.1,6.2c-6.3,4.8-27.7,14.2-45.7,24.7
		c-17.9,10.5-76.4,32.3-80.6,33.2c-0.5,0.1,3.9,15.5,2.5,16.4c1.1,19.5,8,48.8,13.8,73.5c50.8,43.5,134.7,71.9,229.6,71.9
		c95.1,0,179.2-28.5,229.9-72.1c3.3-17.3,6.6-32.3,9.2-39.4C614.6,287,620,257.9,619.5,248.3z"/>
</g>
	<g id="SHIRT_BACK_BOTTOM">
		<g>
			<g>
				<path fill="#A39E9B" d="M230.4,639.5h286.1c0.2-1.7,0.5-3.5,0.7-5.3H229.7C229.9,636,230.2,637.8,230.4,639.5z"/>
			</g>
		</g>
	</g>
	<g id="SHIRT_BACK_MIDDLE">
		<g>
			<path fill="#64615E" d="M229.7,634.2h287.6c3.6-20.2,7.9-45.2,9.2-64.3H222.2C223.4,589.5,221.7,604.7,229.7,634.2z"/>
		</g>
	</g>
	<g id="SHIRT_BACK_TOP">
		<g>
			<path fill="#A39E9B" d="M222.7,572h303.3c0.3-1.4,0.7-2.8,1-4.2H221.7C222,569.1,222.3,570.5,222.7,572z"/>
		</g>
	</g>
	</g>	
	<g id="CUSTOM"></g>

<g id="SHIRT_SIDE_PANELS">
	<g>
		<path d="M163.1,440.9c0.1,0.6,0.2,1.2,0.3,1.8c0,0.1,0,0.1,0,0.2c0.1,0.6,0.2,1.2,0.2,1.8c0,0.1,0,0.1,0,0.2
			c0.1,0.6,0.1,1.3,0.2,1.9c0,0,0,0.1,0,0.1c0.1,0.7,0.1,1.4,0.2,2.1c0,0,0,0,0,0c0,0.7,0.1,1.4,0.1,2c0,0.1,0,0.1,0,0.2
			c0,0.6,0.1,1.3,0.1,1.9c0,0.1,0,0.1,0,0.2c0,0.6,0,1.3,0,1.9c0,0,0,0,0,0c0,0.6,0,1.3,0,1.9c0-0.1,0.1-0.1,0.1-0.1
			s6.4,33.9,5.3,47.6c-1.1,13.8,6.4,99.5,11.6,126c5.3,26.5,11.6,94.2,6.4,122.8c-2.6,14.1-7,39.8-11.2,66.1l42.2-0.1
			c8.1-29.5,12.5-56.6,14.3-86.2c1.8-29-3.5-96-6.4-122.8c-3.3-31.5-2.2-110.8-12.2-128.9C198.4,452.3,163.1,440.9,163.1,440.9z"/>
		<path d="M581.2,458.8c-1.3,7.2-5.9,33.9-5,45.8c1.1,13.8-6.4,99.5-11.6,126c-5.3,26.5-11.6,94.2-6.4,122.8
			c2.8,15.1,4.6,38.7,7.7,65l-41.7,0.1c-5.5-35.8-7.4-69.9-11.1-89.6c-5.3-28.6,1.1-96.3,6.4-122.8c5.3-26.5,17.6-116.3,19.5-120.8
			C540.9,480.7,581.2,458.8,581.2,458.8z"/>
	</g>
</g>
<g id="SHIRT_SLEEVES">
	<g>
		<path fill="#FFFFFF" d="M164.3,455.2C164.3,455.2,164.3,455.2,164.3,455.2c0-0.7,0-1.3,0-1.9c0-0.1,0-0.1,0-0.2
			c0-0.6,0-1.3-0.1-1.9c0-0.1,0-0.1,0-0.2c0-0.7-0.1-1.4-0.1-2c0,0,0,0,0,0c0-0.7-0.1-1.4-0.2-2.1c0,0,0-0.1,0-0.1
			c-0.1-0.6-0.1-1.3-0.2-1.9c0-0.1,0-0.1,0-0.2c-0.1-0.6-0.2-1.2-0.2-1.8c0-0.1,0-0.1,0-0.2c-0.1-0.6-0.2-1.2-0.3-1.8
			c-1.7-8.5-14.6-80-17.5-93.5s-15.2-59.2-17.5-71.5c-0.1-0.5-0.2-1-0.3-1.5c0-0.1,0-0.3-0.1-0.4c-0.1-0.4-0.1-0.8-0.2-1.2
			c0-0.1,0-0.2-0.1-0.4c-0.1-0.5-0.1-1-0.2-1.6c0-0.1,0-0.2,0-0.4c-0.1-0.4-0.1-0.9-0.1-1.3c0-0.2,0-0.3-0.1-0.5
			c-0.1-0.5-0.1-1-0.2-1.5c0-0.1,0-0.1,0-0.2c-0.1-0.6-0.1-1.1-0.1-1.7c0-0.2,0-0.3,0-0.5c0-0.4-0.1-0.9-0.1-1.3c0-0.2,0-0.3,0-0.5
			c0-0.6-0.1-1.1-0.1-1.7c0-0.1,0-0.2,0-0.3c0-0.5-0.1-0.9-0.1-1.4c0-0.2,0-0.3,0-0.5c0-0.5-0.1-1-0.1-1.4c0-0.1,0-0.1,0-0.2
			c0-0.5-0.1-1.1-0.1-1.6c0-0.1,0-0.3,0-0.4c0-0.4,0-0.9-0.1-1.3c0-0.1,0-0.2,0-0.3c0-0.5,0-1-0.1-1.5c0,0,0-0.1,0-0.1
			c0-0.5,0-0.9,0-1.4c0-0.1,0-0.2,0-0.2c0-1-0.1-1.8-0.1-2.7c0,0,0,0,0,0c-3.7,2.6-11,7.4-15.6,8.9c-6.4,2.1-42.3,29.6-52.9,66.7
			c-10.6,37-12.7,128.1-12.7,128.1l-3.2,15.9l-3.2,9.5c0,0,37,9.5,68.8,11.6c31.8,2.1,51.9,2.1,51.9,2.1s2.1-2.1,1.1-8.5
			c-1.1-6.4-2.1-8.5-1.1-11.6c1-3,4.8-12.4,5.2-13.6l0,0C164.4,456.5,164.4,455.8,164.3,455.2z"/>
		<path fill="#FFFFFF" d="M704.3,467.5l-3.2-15.9c0,0-2.1-91-12.7-128.1c-10.6-37-46.6-64.6-52.9-66.7c-4.7-1.6-12.4-6.7-16-9.2
			c-0.1,6.7-0.6,19.4-2.2,28.1c-2.3,12.4-14.6,58-17.5,71.5c-2.8,13.5-15.8,85.1-17.5,93.5c-1.1,5.4-1.2,13.1-1.2,17.9
			c0.2-1.2,0.3-1.9,0.3-1.9s4.2,10.6,5.3,13.8c1.1,3.2,0,5.3-1.1,11.6c-1.1,6.4,1.1,8.5,1.1,8.5s20.1,0,51.9-2.1
			c31.8-2.1,68.8-11.6,68.8-11.6L704.3,467.5z"/>
	</g>
</g>
<g id="SHIRT_COLLAR">
	<path fill="#FFFFFF" d="M490.1,187.7c-1.3-0.9-2.5-1.8-3.7-2.7c-8.4-6.3-14.1-11.2-16.1-12.8c-5.3-4.2-5.3-7.4-10.6-10.6
		c-5.3-3.2-7.4-12.7-18-18c-6.7-3.4-37.1-4.6-58.2-5l0-0.3c0,0-4.2,0-10.6,0.1c-6.4-0.1-10.6-0.1-10.6-0.1l0,0.3
		c-21.2,0.4-51.5,1.7-58.2,5c-10.6,5.3-12.7,14.8-18,18c-5.3,3.2-5.3,6.4-10.6,10.6c-1.6,1.2-5.5,4.6-11.3,9.1
		c-3.6,2.8-8,6.1-12.9,9.6c27.7-7.5,70.7-16.2,121.6-16.2C420,174.6,461.4,181.3,490.1,187.7z"/>
</g>
<g id="SHIRT_STITCHING">
	<g>
		<g>
			<g>
				<g>
					<path d="M485.5,184.4l-0.6,0.8c0.2,0.2,0.3,0.3,0.3,0.3l0.6-0.7C485.9,184.7,485.7,184.6,485.5,184.4 M484.1,183.4l-0.5,0.8
						c0.3,0.2,0.5,0.3,0.7,0.5l0.6-0.8C484.6,183.8,484.4,183.6,484.1,183.4 M262.2,183.2c-0.5,0.3-0.7,0.5-0.7,0.5l0.6,0.8
						c0,0,0.2-0.2,0.7-0.4L262.2,183.2 M482.7,182.5l-0.5,0.8l0.7,0.4l0.5-0.8L482.7,182.5 M263.7,182.3c-0.3,0.2-0.5,0.3-0.7,0.4
						l0.5,0.8c0.2-0.1,0.4-0.3,0.7-0.4L263.7,182.3 M481.3,181.7l-0.5,0.8l0.7,0.4l0.5-0.8L481.3,181.7 M265.1,181.5l-0.7,0.4
						l0.5,0.8l0.7-0.4L265.1,181.5 M479.8,180.9l-0.5,0.8l0.7,0.4l0.5-0.8L479.8,180.9 M266.6,180.7l-0.7,0.4l0.4,0.8l0.7-0.4
						L266.6,180.7 M478.4,180.1l-0.4,0.8l0.7,0.4l0.4-0.8L478.4,180.1 M268,180l-0.7,0.4l0.4,0.9l0.7-0.4L268,180 M476.9,179.4
						l-0.4,0.9l0.7,0.4l0.4-0.9L476.9,179.4 M269.5,179.2l-0.7,0.4l0.4,0.9l0.7-0.3L269.5,179.2 M475.4,178.6l-0.4,0.9l0.7,0.4
						l0.4-0.9L475.4,178.6 M271,178.6l-0.8,0.3l0.4,0.9l0.7-0.3L271,178.6 M473.9,177.9l-0.4,0.9l0.7,0.3l0.4-0.9L473.9,177.9
						 M272.5,177.9l-0.8,0.3l0.4,0.9l0.8-0.3L272.5,177.9 M472.4,177.3l-0.4,0.9l0.7,0.3l0.4-0.9L472.4,177.3 M274.1,177.3l-0.8,0.3
						l0.4,0.9l0.8-0.3L274.1,177.3 M275.6,176.6l-0.8,0.3l0.4,0.9l0.8-0.3L275.6,176.6 M470.9,176.6l-0.4,0.9l0.8,0.3l0.4-0.9
						L470.9,176.6 M277.1,176l-0.8,0.3l0.3,0.9l0.8-0.3L277.1,176 M469.4,176l-0.4,0.9l0.8,0.3l0.3-0.9L469.4,176 M278.7,175.5
						l-0.8,0.3l0.3,0.9l0.8-0.3L278.7,175.5 M467.8,175.4l-0.3,0.9l0.8,0.3l0.3-0.9L467.8,175.4 M280.2,174.9l-0.8,0.3l0.3,0.9
						l0.8-0.3L280.2,174.9 M466.3,174.8l-0.3,0.9l0.8,0.3l0.3-0.9L466.3,174.8 M281.8,174.4l-0.8,0.3l0.3,0.9l0.8-0.3L281.8,174.4
						 M464.7,174.3l-0.3,0.9l0.8,0.3l0.3-0.9L464.7,174.3 M283.4,173.9l-0.8,0.3l0.3,0.9l0.8-0.3L283.4,173.9 M463.2,173.7l-0.3,0.9
						l0.8,0.3l0.3-0.9L463.2,173.7 M284.9,173.3l-0.8,0.2l0.3,0.9l0.8-0.2L284.9,173.3 M461.6,173.2l-0.3,0.9l0.8,0.3l0.3-0.9
						L461.6,173.2 M286.5,172.9l-0.8,0.2l0.3,0.9l0.8-0.2L286.5,172.9 M460,172.7l-0.3,0.9l0.8,0.3l0.3-0.9L460,172.7 M288.1,172.4
						l-0.8,0.2l0.3,0.9l0.8-0.2L288.1,172.4 M458.5,172.2l-0.3,0.9l0.8,0.2l0.3-0.9L458.5,172.2 M289.7,171.9l-0.8,0.2l0.3,0.9
						l0.8-0.2L289.7,171.9 M456.9,171.7l-0.3,0.9l0.8,0.2l0.3-0.9L456.9,171.7 M291.3,171.5l-0.8,0.2l0.3,0.9l0.8-0.2L291.3,171.5
						 M455.3,171.2l-0.3,0.9l0.8,0.2l0.3-0.9L455.3,171.2 M292.8,171.1l-0.7,0.2l0.3,0.9l0.8-0.2L292.8,171.1 M453.7,170.8l-0.3,0.9
						l0.8,0.2l0.3-0.9L453.7,170.8 M294.5,170.6l-0.8,0.2l0.2,0.9l0.8-0.2L294.5,170.6 M452.1,170.4l-0.2,0.9l0.8,0.2l0.3-0.9
						L452.1,170.4 M296.1,170.2l-0.8,0.2l0.2,0.9l0.8-0.2L296.1,170.2 M450.5,169.9l-0.2,0.9l0.8,0.2l0.2-0.9L450.5,169.9
						 M297.7,169.8l-0.8,0.2l0.2,0.9l0.8-0.2L297.7,169.8 M448.9,169.5l-0.2,0.9l0.8,0.2l0.2-0.9L448.9,169.5 M299.3,169.5l-0.8,0.2
						l0.2,0.9l0.8-0.2L299.3,169.5 M447.3,169.1l-0.2,0.9l0.8,0.2l0.2-0.9L447.3,169.1 M300.9,169.1l-0.8,0.2l0.2,0.9l0.8-0.2
						L300.9,169.1 M445.7,168.8l-0.2,0.9l0.8,0.2l0.2-0.9L445.7,168.8 M302.5,168.7l-0.8,0.2l0.2,0.9l0.8-0.2L302.5,168.7
						 M304.1,168.4l-0.8,0.2l0.2,0.9l0.8-0.2L304.1,168.4 M444.1,168.4l-0.2,0.9l0.8,0.2l0.2-0.9L444.1,168.4 M305.7,168.1l-0.8,0.2
						l0.2,0.9l0.8-0.2L305.7,168.1 M442.5,168.1l-0.2,0.9l0.8,0.2l0.2-0.9L442.5,168.1 M307.3,167.8l-0.8,0.2l0.2,0.9l0.8-0.2
						L307.3,167.8 M440.9,167.7l-0.2,0.9l0.8,0.2l0.2-0.9L440.9,167.7 M309,167.4l-0.8,0.2l0.2,0.9l0.8-0.2L309,167.4 M439.3,167.4
						l-0.2,0.9l0.8,0.2l0.2-0.9L439.3,167.4 M310.6,167.1l-0.8,0.1l0.2,0.9l0.8-0.1L310.6,167.1 M437.6,167.1l-0.2,0.9l0.8,0.2
						l0.2-0.9L437.6,167.1 M312.2,166.9l-0.8,0.1l0.2,0.9l0.8-0.1L312.2,166.9 M436,166.8l-0.2,0.9l0.8,0.2l0.2-0.9L436,166.8
						 M313.8,166.6l-0.8,0.1l0.2,0.9l0.8-0.1L313.8,166.6 M434.4,166.5l-0.2,0.9l0.8,0.1l0.2-0.9L434.4,166.5 M315.4,166.3l-0.8,0.1
						l0.2,0.9l0.8-0.1L315.4,166.3 M432.8,166.2l-0.2,0.9l0.8,0.1l0.2-0.9L432.8,166.2 M317.1,166l-0.8,0.1l0.2,0.9l0.8-0.1
						L317.1,166 M431.2,165.9l-0.2,0.9l0.8,0.1l0.2-0.9L431.2,165.9 M318.7,165.8l-0.8,0.1l0.1,0.9l0.8-0.1L318.7,165.8
						 M429.5,165.7l-0.1,0.9l0.8,0.1l0.1-0.9L429.5,165.7 M320.3,165.6l-0.8,0.1l0.1,0.9l0.8-0.1L320.3,165.6 M427.9,165.4l-0.1,0.9
						l0.8,0.1l0.1-0.9L427.9,165.4 M322,165.3l-0.8,0.1l0.1,0.9l0.8-0.1L322,165.3 M426.3,165.2l-0.1,0.9l0.8,0.1l0.1-0.9
						L426.3,165.2 M323.6,165.1l-0.8,0.1l0.1,0.9l0.8-0.1L323.6,165.1 M424.6,164.9l-0.1,0.9l0.8,0.1l0.1-0.9L424.6,164.9
						 M325.2,164.9l-0.8,0.1l0.1,0.9l0.8-0.1L325.2,164.9 M423,164.7l-0.1,0.9l0.8,0.1l0.1-0.9L423,164.7 M326.9,164.7l-0.8,0.1
						l0.1,1l0.8-0.1L326.9,164.7 M421.4,164.5l-0.1,1l0.8,0.1l0.1-0.9L421.4,164.5 M328.5,164.5l-0.8,0.1l0.1,1l0.8-0.1L328.5,164.5
						 M419.7,164.3l-0.1,1l0.8,0.1l0.1-1L419.7,164.3 M330.1,164.3l-0.8,0.1l0.1,1l0.8-0.1L330.1,164.3 M331.8,164.1l-0.8,0.1l0.1,1
						l0.8-0.1L331.8,164.1 M418.1,164.1l-0.1,1l0.8,0.1l0.1-1L418.1,164.1 M333.4,163.9l-0.8,0.1l0.1,1l0.8-0.1L333.4,163.9
						 M416.5,163.9l-0.1,1l0.8,0.1l0.1-1L416.5,163.9 M335.1,163.8l-0.8,0.1l0.1,1l0.8-0.1L335.1,163.8 M414.8,163.7l-0.1,1l0.8,0.1
						l0.1-1L414.8,163.7 M336.7,163.6l-0.8,0.1l0.1,1l0.8-0.1L336.7,163.6 M413.2,163.6l-0.1,1l0.8,0.1l0.1-1L413.2,163.6
						 M338.3,163.5l-0.8,0.1l0.1,1l0.8-0.1L338.3,163.5 M411.5,163.4l-0.1,1l0.8,0.1l0.1-1L411.5,163.4 M340,163.3l-0.8,0.1l0.1,1
						l0.8-0.1L340,163.3 M409.9,163.3l-0.1,1l0.8,0.1l0.1-1L409.9,163.3 M341.6,163.2l-0.8,0.1l0.1,1l0.8-0.1L341.6,163.2
						 M408.3,163.1l-0.1,1l0.8,0.1l0.1-1L408.3,163.1 M343.3,163.1l-0.8,0.1l0.1,1l0.8-0.1L343.3,163.1 M406.6,163l-0.1,1l0.8,0.1
						l0.1-1L406.6,163 M344.9,162.9l-0.8,0.1l0.1,1l0.8-0.1L344.9,162.9 M405,162.9l-0.1,1l0.8,0.1l0.1-1L405,162.9 M346.5,162.8
						l-0.8,0.1l0.1,1l0.8-0.1L346.5,162.8 M403.3,162.8l-0.1,1l0.8,0.1l0.1-1L403.3,162.8 M348.2,162.7l-0.8,0.1l0.1,1l0.8-0.1
						L348.2,162.7 M401.7,162.6l-0.1,1l0.8,0.1l0.1-1L401.7,162.6 M349.8,162.6l-0.8,0l0.1,1l0.8,0L349.8,162.6 M400,162.5l-0.1,1
						l0.8,0l0.1-1L400,162.5 M351.5,162.5l-0.8,0l0.1,1l0.8,0L351.5,162.5 M398.4,162.5l-0.1,1l0.8,0l0.1-1L398.4,162.5
						 M353.1,162.4l-0.8,0l0,1l0.8,0L353.1,162.4 M396.8,162.4l0,1l0.8,0l0-1L396.8,162.4 M354.8,162.4l-0.8,0l0,1l0.8,0
						L354.8,162.4 M395.1,162.3l0,1l0.8,0l0-1L395.1,162.3 M356.4,162.3l-0.8,0l0,1l0.8,0L356.4,162.3 M358.1,162.2l-0.8,0l0,1
						l0.8,0L358.1,162.2 M393.5,162.2l0,1l0.8,0l0-1L393.5,162.2 M359.7,162.2l-0.8,0l0,1l0.8,0L359.7,162.2 M391.8,162.2l0,1l0.8,0
						l0-1L391.8,162.2 M361.4,162.1l-0.8,0l0,1l0.8,0L361.4,162.1 M390.2,162.1l0,1l0.8,0l0-1L390.2,162.1 M363,162.1l-0.8,0l0,1
						l0.8,0L363,162.1 M388.5,162l0,1l0.8,0l0-1L388.5,162 M364.6,162l-0.8,0l0,1l0.8,0L364.6,162 M386.9,162l0,1l0.8,0l0-1
						L386.9,162 M366.3,162l-0.8,0l0,1l0.8,0L366.3,162 M385.2,162l0,1l0.8,0l0-1L385.2,162 M367.9,161.9l-0.8,0l0,1l0.8,0
						L367.9,161.9 M383.6,161.9l0,1l0.8,0l0-1L383.6,161.9 M369.6,161.9l-0.8,0l0,1l0.8,0L369.6,161.9 M381.9,161.9l0,1l0.8,0l0-1
						L381.9,161.9 M371.2,161.9l-0.8,0l0,1l0.8,0L371.2,161.9 M380.3,161.9l0,1l0.8,0l0-1L380.3,161.9 M372.9,161.9l-0.8,0l0,1
						l0.8,0L372.9,161.9 M378.6,161.9l0,1l0.8,0l0-1L378.6,161.9 M374.5,161.9l-0.8,0l0,1l0.8,0V161.9 M377,161.9l0,1l0.8,0l0-1
						L377,161.9 M376.2,161.9l-0.8,0l0,1l0.8,0V161.9"/>
					<path d="M158.5,470.1l0,1.2l0.6,0l0-1.2L158.5,470.1 M156.4,470l0,1.2l1.1,0l0-1.2L156.4,470 M154.3,470l0,1.2l1.1,0l0-1.2
						L154.3,470 M152.1,470l0,1.2l1.1,0l0-1.2L152.1,470 M150,469.9l0,1.2l1.1,0l0-1.2L150,469.9 M147.8,469.8l0,1.2l1.1,0l0-1.2
						L147.8,469.8 M145.7,469.7l0,1.2l1.1,0l0-1.2L145.7,469.7 M143.5,469.7l-0.1,1.2l1.1,0l0-1.2L143.5,469.7 M141.4,469.6
						l-0.1,1.2l1.1,0l0.1-1.2L141.4,469.6 M139.3,469.5l-0.1,1.2l1.1,0.1l0.1-1.2L139.3,469.5 M137.1,469.3l-0.1,1.2l1.1,0.1
						l0.1-1.2L137.1,469.3 M135,469.2l-0.1,1.2l1.1,0.1l0.1-1.2L135,469.2 M132.8,469.1l-0.1,1.2l1.1,0.1l0.1-1.2L132.8,469.1
						 M130.7,469l-0.1,1.2l1.1,0.1l0.1-1.2L130.7,469 M128.5,468.8l-0.1,1.2l1.1,0.1l0.1-1.2L128.5,468.8 M126.4,468.7l-0.1,1.2
						l1.1,0.1l0-0.6l-0.1-0.6L126.4,468.7 M124.3,468.5l-0.1,1.2l1.1,0.1l0.1-1.2L124.3,468.5 M122.1,468.4l-0.1,1.2l1.1,0.1
						l0.1-1.2L122.1,468.4 M120,468.2l-0.1,1.2l1.1,0.1l0.1-1.2L120,468.2 M117.9,468l-0.1,1.2l1.1,0.1l0.1-1.2L117.9,468
						 M115.7,467.9l-0.1,1.2l1.1,0.1l0.1-1.2L115.7,467.9 M113.6,467.7l-0.1,1.2l1.1,0.1l0.1-1.2L113.6,467.7 M111.4,467.5l0,1.3
						l1,0.1l0.1-1.2L111.4,467.5 M109.3,467.3l-0.1,1.2l1.1,0.1l0.1-1.2L109.3,467.3 M107.2,467.1l-0.1,1.2l1.1,0.1l0.1-0.6
						l-0.1-0.6L107.2,467.1 M105,466.9l-0.1,1.2l1.1,0.1l0.1-1.2L105,466.9 M102.9,466.7l-0.1,1.2l1.1,0.1l0.1-1.2L102.9,466.7
						 M100.8,466.4l-0.1,1.2l1.1,0.1l0.1-1.2L100.8,466.4 M98.6,466.2l-0.1,1.2l1.1,0.1l0.1-1.2L98.6,466.2 M96.5,466l-0.2,1.2
						l1.1,0.1l0.1-1.2L96.5,466 M94.4,465.7l-0.2,1.2l1.1,0.1l0.2-1.2L94.4,465.7 M92.3,465.4l-0.2,1.2l1.1,0.1l0.2-1.2L92.3,465.4
						 M90.1,465.1l-0.2,1.2l1.1,0.1l0.2-1.2L90.1,465.1 M88,464.8l-0.2,1.2l1.1,0.2l0.2-1.2L88,464.8 M85.9,464.5l-0.2,1.2l1.1,0.2
						l0.2-1.2L85.9,464.5 M83.8,464.2l-0.2,1.2l1.1,0.2l0.2-1.2L83.8,464.2 M81.7,463.9l-0.2,1.2l1.1,0.2l0.2-1.2L81.7,463.9
						 M79.5,463.5l-0.2,1.2l1.1,0.2l0.2-1.2L79.5,463.5 M77.4,463.2l-0.2,1.2l1.1,0.2l0.2-1.2L77.4,463.2 M75.3,462.8l-0.2,1.2
						l1.1,0.2l0.2-1.2L75.3,462.8 M73.2,462.4l-0.2,1.2l1.1,0.2l0.2-1.2L73.2,462.4 M71.1,462.1l-0.2,1.2l1.1,0.2l0.2-1.2
						L71.1,462.1 M69,461.7l-0.2,1.2l1.1,0.2l0.2-1.2L69,461.7 M66.9,461.3l-0.2,1.2l1.1,0.2l0.2-1.2L66.9,461.3 M64.8,460.8
						l-0.2,1.2l1.1,0.2l0.2-1.2L64.8,460.8 M62.7,460.4l-0.3,1.2l1.1,0.2l0.2-1.2L62.7,460.4 M60.6,460l-0.3,1.2l1.1,0.2l0.3-1.2
						L60.6,460 M58.5,459.5l-0.3,1.2l1.1,0.2l0.3-1.2L58.5,459.5 M56.4,459.1l-0.3,1.2l1,0.2l0.3-1.2L56.4,459.1 M54.3,458.6
						l-0.3,1.2l1,0.2l0.3-1.2L54.3,458.6 M52.2,458.1l-0.3,1.2l1,0.2l0.3-1.2L52.2,458.1 M50.1,457.6l-0.3,1.2l1,0.2l0.3-1.2
						L50.1,457.6 M48,457.1l-0.3,1.2l1,0.3l0.3-1.2L48,457.1 M46,456.6l-0.3,1.2l1,0.3l0.3-1.2L46,456.6 M43.9,456l-0.3,1.2l1,0.3
						l0.3-1.2L43.9,456"/>
					<path d="M158.5,475.1l0,1.2l0.6,0v-1.2L158.5,475.1 M156.4,475l0,1.2l1.1,0l0-1.2L156.4,475 M154.3,475l0,1.2l1.1,0l0-1.2
						L154.3,475 M152.1,475l0,1.2l1.1,0l0-1.2L152.1,475 M150,474.9l0,1.2l1.1,0l0-1.2L150,474.9 M147.8,474.8l0,1.2l1.1,0l0-1.2
						L147.8,474.8 M145.7,474.7l0,1.2l1.1,0l0-1.2L145.7,474.7 M143.5,474.7l-0.1,1.2l1.1,0l0-1.2L143.5,474.7 M141.4,474.6
						l-0.1,1.2l1.1,0l0.1-1.2L141.4,474.6 M139.3,474.5l-0.1,1.2l1.1,0.1l0.1-1.2L139.3,474.5 M137.1,474.3l-0.1,1.2l1.1,0.1
						l0.1-1.2L137.1,474.3 M135,474.2l-0.1,1.2l1.1,0.1l0.1-1.2L135,474.2 M132.8,474.1l-0.1,1.2l1.1,0.1l0.1-1.2L132.8,474.1
						 M130.7,474l-0.1,1.2l1.1,0.1l0.1-1.2L130.7,474 M128.5,473.8l-0.1,1.2l1.1,0.1l0.1-1.2L128.5,473.8 M126.4,473.7l-0.1,1.2
						l1.1,0.1l0-0.6l-0.1-0.6L126.4,473.7 M124.3,473.5l-0.1,1.2l1.1,0.1l0.1-1.2L124.3,473.5 M122.1,473.4l-0.1,1.2l1.1,0.1
						l0.1-1.2L122.1,473.4 M120,473.2l-0.1,1.2l1.1,0.1l0.1-1.2L120,473.2 M117.9,473l-0.1,1.2l1.1,0.1l0.1-1.2L117.9,473
						 M115.7,472.9l-0.1,1.2l1.1,0.1l0.1-1.2L115.7,472.9 M113.6,472.7l-0.1,1.2l1.1,0.1l0.1-1.2L113.6,472.7 M111.4,472.5l0,1.3
						l1,0.1l0.1-1.2L111.4,472.5 M109.3,472.3l-0.1,1.2l1.1,0.1l0.1-1.2L109.3,472.3 M107.2,472.1l-0.1,1.2l1.1,0.1l0.1-0.6
						l-0.1-0.6L107.2,472.1 M105,471.9l-0.1,1.2l1.1,0.1l0.1-1.2L105,471.9 M102.9,471.7l-0.1,1.2l1.1,0.1l0.1-1.2L102.9,471.7
						 M100.8,471.4l-0.1,1.2l1.1,0.1l0.1-1.2L100.8,471.4 M98.6,471.2l-0.1,1.2l1.1,0.1l0.1-1.2L98.6,471.2 M96.5,471l-0.2,1.2
						l1.1,0.1l0.1-1.2L96.5,471 M94.4,470.7l-0.2,1.2l1.1,0.1l0.2-1.2L94.4,470.7 M92.3,470.4l-0.2,1.2l1.1,0.1l0.2-1.2L92.3,470.4
						 M90.1,470.1l-0.2,1.2l1.1,0.1l0.2-1.2L90.1,470.1 M88,469.8l-0.2,1.2l1.1,0.2l0.2-1.2L88,469.8 M85.9,469.5l-0.2,1.2l1.1,0.2
						l0.2-1.2L85.9,469.5 M83.8,469.2l-0.2,1.2l1.1,0.2l0.2-1.2L83.8,469.2 M81.7,468.9l-0.2,1.2l1.1,0.2l0.2-1.2L81.7,468.9
						 M79.5,468.5l-0.2,1.2l1.1,0.2l0.2-1.2L79.5,468.5 M77.4,468.2l-0.2,1.2l1.1,0.2l0.2-1.2L77.4,468.2 M75.3,467.8l-0.2,1.2
						l1.1,0.2l0.2-1.2L75.3,467.8 M73.2,467.4l-0.2,1.2l1.1,0.2l0.2-1.2L73.2,467.4 M71.1,467.1l-0.2,1.2l1.1,0.2l0.2-1.2
						L71.1,467.1 M69,466.7l-0.2,1.2l1.1,0.2l0.2-1.2L69,466.7 M66.9,466.3l-0.2,1.2l1.1,0.2l0.2-1.2L66.9,466.3 M64.8,465.8
						l-0.2,1.2l1.1,0.2l0.2-1.2L64.8,465.8 M62.7,465.4l-0.3,1.2l1.1,0.2l0.2-1.2L62.7,465.4 M60.6,465l-0.3,1.2l1.1,0.2l0.3-1.2
						L60.6,465 M58.5,464.5l-0.3,1.2l1.1,0.2l0.3-1.2L58.5,464.5 M56.4,464.1l-0.3,1.2l1,0.2l0.3-1.2L56.4,464.1 M54.3,463.6
						l-0.3,1.2l1,0.2l0.3-1.2L54.3,463.6 M52.2,463.1l-0.3,1.2l1,0.2l0.3-1.2L52.2,463.1 M50.1,462.6l-0.3,1.2l1,0.2l0.3-1.2
						L50.1,462.6 M48,462.1l-0.3,1.2l1,0.3l0.3-1.2L48,462.1 M46,461.6l-0.3,1.2l1,0.3l0.3-1.2L46,461.6 M43.9,461l-0.3,1.2l1,0.3
						l0.3-1.2L43.9,461"/>
					<path d="M588.1,470.1l-0.6,0l0,1.2l0.6,0L588.1,470.1 M590.2,470l-1.1,0l0,1.2l1.1,0L590.2,470 M592.4,470l-1.1,0l0,1.2l1.1,0
						L592.4,470 M594.5,470l-1.1,0l0,1.2l1.1,0L594.5,470 M596.7,469.9l-1.1,0l0,1.2l1.1,0L596.7,469.9 M598.8,469.8l-1.1,0l0,1.2
						l1.1,0L598.8,469.8 M601,469.7l-1.1,0l0,1.2l1.1,0L601,469.7 M603.1,469.7l-1.1,0l0,1.2l1.1,0L603.1,469.7 M605.2,469.6l-1.1,0
						l0.1,1.2l1.1,0L605.2,469.6 M607.4,469.5l-1.1,0.1l0.1,1.2l1.1-0.1L607.4,469.5 M609.5,469.3l-1.1,0.1l0.1,1.2l1.1-0.1
						L609.5,469.3 M611.7,469.2l-1.1,0.1l0.1,1.2l1.1-0.1L611.7,469.2 M613.8,469.1l-1.1,0.1l0.1,1.2l1.1-0.1L613.8,469.1 M616,469
						l-1.1,0.1l0.1,1.2l1.1-0.1L616,469 M618.1,468.8l-1.1,0.1l0.1,1.2l1.1-0.1L618.1,468.8 M620.2,468.7l-1.1,0.1l0.1,1.2l1.1-0.1
						L620.2,468.7 M622.2,468.5l-0.9,0.1l0.1,1.2l0.9-0.1l0.1-0.6L622.2,468.5 M624.5,468.4l-1.1,0.1l0.1,1.2l1.1-0.1L624.5,468.4
						 M626.6,468.2l-1.1,0.1l0.1,1.2l1.1-0.1L626.6,468.2 M628.8,468l-1.1,0.1l0.1,1.2l1.1-0.1L628.8,468 M630.9,467.9l-1.1,0.1
						l0.1,1.2l1.1-0.1L630.9,467.9 M633.1,467.7l-1.1,0.1l0.1,1.2l1.1-0.1L633.1,467.7 M635.2,467.5l-1.1,0.1l0.1,1.2l1.1-0.1
						L635.2,467.5 M637.3,467.3l-1.1,0.1l0.1,1.2l1.1-0.1L637.3,467.3 M639.5,467.1l-1.1,0.1l0.1,1.2l1.1-0.1L639.5,467.1
						 M641.6,466.9l-1.1,0.1l0.1,1.2l1.1-0.1L641.6,466.9 M643.7,466.7l-1.1,0.1l0.1,1.2l1.1-0.1L643.7,466.7 M645.9,466.4l-1.1,0.1
						l0.1,1.2l1.1-0.1L645.9,466.4 M648,466.2l-1.1,0.1l0.1,1.2l1.1-0.1L648,466.2 M650.1,466l-1.1,0.1l0.1,1.2l1.1-0.1L650.1,466
						 M652.2,465.7l-1.1,0.1l0.2,1.2l1.1-0.1L652.2,465.7 M654.4,465.4l-1.1,0.1l0.2,1.2l1.1-0.1L654.4,465.4 M656.5,465.1l-1.1,0.1
						l0.2,1.2l1.1-0.1L656.5,465.1 M658.6,464.8l-1.1,0.1l0.2,1.2l1.1-0.2L658.6,464.8 M660.7,464.5l-1.1,0.2l0.2,1.2l1.1-0.2
						L660.7,464.5 M662.9,464.2l-1.1,0.2l0.2,1.2l1.1-0.2L662.9,464.2 M665,463.9l-1.1,0.2l0.2,1.2l1.1-0.2L665,463.9 M667.1,463.5
						l-1.1,0.2l0.2,1.2l1.1-0.2L667.1,463.5 M669.2,463.2l-1.1,0.2l0.2,1.2l1.1-0.2L669.2,463.2 M671.3,462.8l-1.1,0.2l0.2,1.2
						l1.1-0.2L671.3,462.8 M673.4,462.4l-1.1,0.2l0.2,1.2l1.1-0.2L673.4,462.4 M675.5,462.1l-1.1,0.2l0.2,1.2l1.1-0.2L675.5,462.1
						 M677.7,461.7l-1.1,0.2l0.2,1.2l1.1-0.2L677.7,461.7 M679.8,461.3l-1.1,0.2l0.2,1.2l1.1-0.2L679.8,461.3 M681.9,460.8l-1.1,0.2
						l0.2,1.2l1.1-0.2L681.9,460.8 M684,460.4l-1.1,0.2l0.2,1.2l1.1-0.2L684,460.4 M686.1,460l-1,0.2l0.3,1.2l1.1-0.2L686.1,460
						 M688.2,459.5l-1,0.2l0.3,1.2l1-0.2L688.2,459.5 M690.3,459.1l-1,0.2l0.3,1.2l1-0.2L690.3,459.1 M692.3,458.6l-1,0.2l0.3,1.2
						l1-0.2L692.3,458.6 M694.4,458.1l-1,0.2l0.3,1.2l1.1-0.2L694.4,458.1 M696.5,457.6l-1,0.2l0.3,1.2l1-0.2L696.5,457.6
						 M698.6,457.1l-1,0.3l0.4,1.2l1-0.2L698.6,457.1 M700.7,456.6l-1,0.3l0.3,1.2l1-0.3L700.7,456.6 M702.8,456l-1,0.3l0.3,1.2
						l1-0.3L702.8,456"/>
					<path d="M588.1,475.1l-0.6,0l0,1.2l0.6,0L588.1,475.1 M590.2,475l-1.1,0l0,1.2l1.1,0L590.2,475 M592.4,475l-1.1,0l0,1.2l1.1,0
						L592.4,475 M594.5,475l-1.1,0l0,1.2l1.1,0L594.5,475 M596.7,474.9l-1.1,0l0,1.2l1.1,0L596.7,474.9 M598.8,474.8l-1.1,0l0,1.2
						l1.1,0L598.8,474.8 M601,474.7l-1.1,0l0,1.2l1.1,0L601,474.7 M603.1,474.7l-1.1,0l0,1.2l1.1,0L603.1,474.7 M605.2,474.6l-1.1,0
						l0.1,1.2l1.1,0L605.2,474.6 M607.4,474.5l-1.1,0.1l0.1,1.2l1.1-0.1L607.4,474.5 M609.5,474.3l-1.1,0.1l0.1,1.2l1.1-0.1
						L609.5,474.3 M611.7,474.2l-1.1,0.1l0.1,1.2l1.1-0.1L611.7,474.2 M613.8,474.1l-1.1,0.1l0.1,1.2l1.1-0.1L613.8,474.1 M616,474
						l-1.1,0.1l0.1,1.2l1.1-0.1L616,474 M618.1,473.8l-1.1,0.1l0.1,1.2l1.1-0.1L618.1,473.8 M620.2,473.7l-1.1,0.1l0.1,1.2l1.1-0.1
						L620.2,473.7 M622.2,473.5l-0.9,0.1l0.1,1.2l0.9-0.1l0.1-0.6L622.2,473.5 M624.5,473.4l-1.1,0.1l0.1,1.2l1.1-0.1L624.5,473.4
						 M626.6,473.2l-1.1,0.1l0.1,1.2l1.1-0.1L626.6,473.2 M628.8,473l-1.1,0.1l0.1,1.2l1.1-0.1L628.8,473 M630.9,472.9l-1.1,0.1
						l0.1,1.2l1.1-0.1L630.9,472.9 M633.1,472.7l-1.1,0.1l0.1,1.2l1.1-0.1L633.1,472.7 M635.2,472.5l-1.1,0.1l0.1,1.2l1.1-0.1
						L635.2,472.5 M637.3,472.3l-1.1,0.1l0.1,1.2l1.1-0.1L637.3,472.3 M639.5,472.1l-1.1,0.1l0.1,1.2l1.1-0.1L639.5,472.1
						 M641.6,471.9l-1.1,0.1l0.1,1.2l1.1-0.1L641.6,471.9 M643.7,471.7l-1.1,0.1l0.1,1.2l1.1-0.1L643.7,471.7 M645.9,471.4l-1.1,0.1
						l0.1,1.2l1.1-0.1L645.9,471.4 M648,471.2l-1.1,0.1l0.1,1.2l1.1-0.1L648,471.2 M650.1,471l-1.1,0.1l0.1,1.2l1.1-0.1L650.1,471
						 M652.2,470.7l-1.1,0.1l0.2,1.2l1.1-0.1L652.2,470.7 M654.4,470.4l-1.1,0.1l0.2,1.2l1.1-0.1L654.4,470.4 M656.5,470.1l-1.1,0.1
						l0.2,1.2l1.1-0.1L656.5,470.1 M658.6,469.8l-1.1,0.1l0.2,1.2l1.1-0.2L658.6,469.8 M660.7,469.5l-1.1,0.2l0.2,1.2l1.1-0.2
						L660.7,469.5 M662.9,469.2l-1.1,0.2l0.2,1.2l1.1-0.2L662.9,469.2 M665,468.9l-1.1,0.2l0.2,1.2l1.1-0.2L665,468.9 M667.1,468.5
						l-1.1,0.2l0.2,1.2l1.1-0.2L667.1,468.5 M669.2,468.2l-1.1,0.2l0.2,1.2l1.1-0.2L669.2,468.2 M671.3,467.8l-1.1,0.2l0.2,1.2
						l1.1-0.2L671.3,467.8 M673.4,467.4l-1.1,0.2l0.2,1.2l1.1-0.2L673.4,467.4 M675.5,467.1l-1.1,0.2l0.2,1.2l1.1-0.2L675.5,467.1
						 M677.7,466.7l-1.1,0.2l0.2,1.2l1.1-0.2L677.7,466.7 M679.8,466.3l-1.1,0.2l0.2,1.2l1.1-0.2L679.8,466.3 M681.9,465.8l-1.1,0.2
						l0.2,1.2l1.1-0.2L681.9,465.8 M684,465.4l-1.1,0.2l0.2,1.2l1.1-0.2L684,465.4 M686.1,465l-1,0.2l0.3,1.2l1.1-0.2L686.1,465
						 M688.2,464.5l-1,0.2l0.3,1.2l1-0.2L688.2,464.5 M690.3,464.1l-1,0.2l0.3,1.2l1-0.2L690.3,464.1 M692.3,463.6l-1,0.2l0.3,1.2
						l1-0.2L692.3,463.6 M694.4,463.1l-1,0.2l0.3,1.2l1.1-0.2L694.4,463.1 M696.5,462.6l-1,0.2l0.3,1.2l1-0.2L696.5,462.6
						 M698.6,462.1l-1,0.3l0.4,1.2l1-0.2L698.6,462.1 M700.7,461.6l-1,0.3l0.3,1.2l1-0.3L700.7,461.6 M702.8,461l-1,0.3l0.3,1.2
						l1-0.3L702.8,461"/>
					<path d="M265.7,179.8c-0.5,0.3-0.7,0.5-0.7,0.5l0.6,0.7c0,0,0.2-0.2,0.6-0.5L265.7,179.8 M267.1,178.9
						c-0.3,0.2-0.5,0.3-0.7,0.4l0.5,0.8c0.2-0.1,0.4-0.3,0.7-0.4L267.1,178.9 M268.5,178l-0.7,0.4l0.5,0.8l0.7-0.4L268.5,178
						 M478.3,178l-0.6,0.8c0.3,0.3,0.5,0.4,0.6,0.5l0.6-0.7C478.8,178.4,478.6,178.3,478.3,178 M270,177.2l-0.7,0.4l0.5,0.8l0.7-0.4
						L270,177.2 M476.9,177l-0.5,0.8c0.2,0.2,0.5,0.3,0.7,0.5l0.6-0.8C477.4,177.3,477.1,177.2,476.9,177 M271.5,176.5l-0.7,0.4
						l0.4,0.9l0.7-0.4L271.5,176.5 M475.5,176.1L475,177c0.2,0.1,0.5,0.3,0.7,0.4l0.5-0.8C476,176.4,475.7,176.3,475.5,176.1
						 M272.9,175.7l-0.7,0.4l0.4,0.9l0.7-0.4L272.9,175.7 M474,175.3l-0.5,0.8c0.2,0.1,0.5,0.3,0.7,0.4l0.5-0.8
						C474.5,175.6,474.3,175.4,474,175.3 M274.4,175l-0.8,0.3l0.4,0.9l0.7-0.3L274.4,175 M472.6,174.5l-0.4,0.9l0.7,0.4l0.4-0.8
						L472.6,174.5 M276,174.4l-0.8,0.3l0.4,0.9l0.7-0.3L276,174.4 M471.1,173.8l-0.4,0.9l0.7,0.4l0.4-0.9L471.1,173.8 M277.5,173.7
						l-0.8,0.3l0.4,0.9l0.8-0.3L277.5,173.7 M279,173.1l-0.8,0.3l0.4,0.9l0.8-0.3L279,173.1 M469.6,173.1l-0.4,0.9l0.7,0.3l0.4-0.9
						L469.6,173.1 M280.6,172.5l-0.8,0.3l0.3,0.9l0.8-0.3L280.6,172.5 M468.1,172.4l-0.4,0.9c0.3,0.1,0.5,0.2,0.7,0.3l0.4-0.9
						C468.6,172.6,468.3,172.5,468.1,172.4 M282.1,172l-0.8,0.3l0.3,0.9l0.8-0.3L282.1,172 M466.6,171.8l-0.4,0.9l0.8,0.3l0.4-0.9
						L466.6,171.8 M283.7,171.4l-0.8,0.3l0.3,0.9l0.8-0.3L283.7,171.4 M465,171.2l-0.3,0.9l0.8,0.3l0.4-0.9L465,171.2 M285.2,170.9
						l-0.8,0.3l0.3,0.9l0.8-0.3L285.2,170.9 M463.5,170.6l-0.3,0.9l0.8,0.3l0.3-0.9L463.5,170.6 M286.8,170.4l-0.8,0.3l0.3,0.9
						l0.8-0.3L286.8,170.4 M461.9,170l-0.3,0.9l0.8,0.3l0.3-0.9L461.9,170 M288.4,169.9l-0.8,0.2l0.3,0.9l0.8-0.2L288.4,169.9
						 M460.3,169.5l-0.3,0.9l0.8,0.3l0.3-0.9L460.3,169.5 M290,169.4l-0.8,0.2l0.3,0.9l0.8-0.2L290,169.4 M458.8,169l-0.3,0.9
						l0.8,0.3l0.3-0.9L458.8,169 M291.5,168.9l-0.8,0.2l0.3,0.9l0.8-0.2L291.5,168.9 M457.2,168.5l-0.3,0.9l0.8,0.2l0.3-0.9
						L457.2,168.5 M293.1,168.5l-0.8,0.2l0.3,0.9l0.8-0.2L293.1,168.5 M294.7,168.1l-0.8,0.2l0.2,0.9l0.8-0.2L294.7,168.1
						 M455.6,168.1l-0.3,0.9l0.8,0.2l0.3-0.9L455.6,168.1 M296.3,167.6l-0.8,0.2l0.2,0.9l0.8-0.2L296.3,167.6 M454,167.6l-0.3,0.9
						l0.8,0.2l0.3-0.9L454,167.6 M297.9,167.2l-0.8,0.2l0.2,0.9l0.8-0.2L297.9,167.2 M452.4,167.2l-0.2,0.9l0.8,0.2l0.2-0.9
						L452.4,167.2 M299.5,166.9l-0.8,0.2l0.2,0.9l0.8-0.2L299.5,166.9 M450.8,166.8l-0.2,0.9l0.8,0.2l0.2-0.9L450.8,166.8
						 M301.1,166.5l-0.8,0.2l0.2,0.9l0.8-0.2L301.1,166.5 M449.2,166.4l-0.2,0.9l0.8,0.2l0.2-0.9L449.2,166.4 M302.7,166.1l-0.8,0.2
						l0.2,0.9l0.8-0.2L302.7,166.1 M447.6,166l-0.2,0.9l0.8,0.2l0.2-0.9L447.6,166 M304.3,165.8l-0.8,0.2l0.2,0.9l0.8-0.2
						L304.3,165.8 M446,165.6l-0.2,0.9l0.8,0.2l0.2-0.9L446,165.6 M306,165.4l-0.8,0.2l0.2,0.9l0.8-0.2L306,165.4 M444.4,165.3
						l-0.2,0.9l0.8,0.2l0.2-0.9L444.4,165.3 M307.6,165.1l-0.8,0.2l0.2,0.9l0.8-0.2L307.6,165.1 M442.8,164.9l-0.2,0.9l0.8,0.2
						l0.2-0.9L442.8,164.9 M309.2,164.8l-0.8,0.2l0.2,0.9l0.8-0.2L309.2,164.8 M441.2,164.6l-0.2,0.9l0.8,0.2l0.2-0.9L441.2,164.6
						 M310.8,164.5l-0.8,0.1l0.2,0.9l0.8-0.1L310.8,164.5 M439.6,164.3l-0.2,0.9l0.8,0.2l0.2-0.9L439.6,164.3 M312.4,164.2l-0.8,0.1
						l0.2,0.9l0.8-0.1L312.4,164.2 M437.9,164l-0.2,0.9l0.8,0.1l0.2-0.9L437.9,164 M314.1,163.9l-0.8,0.1l0.2,0.9l0.8-0.1
						L314.1,163.9 M436.3,163.7l-0.2,0.9l0.8,0.1l0.2-0.9L436.3,163.7 M315.7,163.7l-0.8,0.1l0.2,0.9l0.8-0.1L315.7,163.7
						 M434.7,163.4l-0.2,0.9l0.8,0.1l0.2-0.9L434.7,163.4 M317.3,163.4l-0.8,0.1l0.2,0.9l0.8-0.1L317.3,163.4 M433.1,163.2l-0.1,0.9
						l0.8,0.1l0.2-0.9L433.1,163.2 M318.9,163.2l-0.8,0.1l0.1,0.9l0.8-0.1L318.9,163.2 M320.6,162.9l-0.8,0.1l0.1,0.9l0.8-0.1
						L320.6,162.9 M431.4,162.9l-0.1,0.9l0.8,0.1l0.1-0.9L431.4,162.9 M322.2,162.7l-0.8,0.1l0.1,0.9l0.8-0.1L322.2,162.7
						 M429.8,162.7l-0.1,0.9l0.8,0.1l0.1-0.9L429.8,162.7 M323.8,162.5l-0.8,0.1l0.1,0.9l0.8-0.1L323.8,162.5 M428.2,162.4l-0.1,0.9
						l0.8,0.1l0.1-0.9L428.2,162.4 M325.5,162.2l-0.8,0.1l0.1,1l0.8-0.1L325.5,162.2 M426.5,162.2l-0.1,0.9l0.8,0.1l0.1-0.9
						L426.5,162.2 M327.1,162l-0.8,0.1l0.1,1l0.8-0.1L327.1,162 M424.9,162l-0.1,1l0.8,0.1l0.1-0.9L424.9,162 M328.7,161.8l-0.8,0.1
						l0.1,1l0.8-0.1L328.7,161.8 M423.3,161.8l-0.1,1l0.8,0.1l0.1-1L423.3,161.8 M330.4,161.7l-0.8,0.1l0.1,1l0.8-0.1L330.4,161.7
						 M421.6,161.6l-0.1,1l0.8,0.1l0.1-1L421.6,161.6 M332,161.5l-0.8,0.1l0.1,1l0.8-0.1L332,161.5 M420,161.4l-0.1,1l0.8,0.1l0.1-1
						L420,161.4 M333.7,161.3l-0.8,0.1l0.1,1l0.8-0.1L333.7,161.3 M418.4,161.3l-0.1,1l0.8,0.1l0.1-1L418.4,161.3 M335.3,161.2
						l-0.8,0.1l0.1,1l0.8-0.1L335.3,161.2 M416.7,161.1l-0.1,1l0.8,0.1l0.1-1L416.7,161.1 M336.9,161l-0.8,0.1l0.1,1l0.8-0.1
						L336.9,161 M415.1,160.9l-0.1,1l0.8,0.1l0.1-1L415.1,160.9 M338.6,160.8l-0.8,0.1l0.1,1l0.8-0.1L338.6,160.8 M413.4,160.8
						l-0.1,1l0.8,0.1l0.1-1L413.4,160.8 M340.2,160.7l-0.8,0.1l0.1,1l0.8-0.1L340.2,160.7 M411.8,160.6l-0.1,1l0.8,0.1l0.1-1
						L411.8,160.6 M341.9,160.6l-0.8,0.1l0.1,1l0.8-0.1L341.9,160.6 M410.2,160.5l-0.1,1l0.8,0.1l0.1-1L410.2,160.5 M343.5,160.5
						l-0.8,0.1l0.1,1l0.8-0.1L343.5,160.5 M408.5,160.4l-0.1,1l0.8,0.1l0.1-1L408.5,160.4 M345.1,160.3l-0.8,0.1l0.1,1l0.8-0.1
						L345.1,160.3 M406.9,160.3l-0.1,1l0.8,0.1l0.1-1L406.9,160.3 M346.8,160.2l-0.8,0.1l0.1,1l0.8-0.1L346.8,160.2 M405.2,160.2
						l-0.1,1l0.8,0.1l0.1-1L405.2,160.2 M348.4,160.1l-0.8,0.1l0.1,1l0.8-0.1L348.4,160.1 M403.6,160.1l-0.1,1l0.8,0.1l0.1-1
						L403.6,160.1 M350.1,160l-0.8,0l0.1,1l0.8,0L350.1,160 M401.9,160l-0.1,1l0.8,0l0.1-1L401.9,160 M351.7,159.9l-0.8,0l0.1,1
						l0.8,0L351.7,159.9 M400.3,159.9l0,1l0.8,0l0.1-1L400.3,159.9 M353.4,159.8l-0.8,0l0,1l0.8,0L353.4,159.8 M398.6,159.8l0,1
						l0.8,0l0-1L398.6,159.8 M355,159.8l-0.8,0l0,1l0.8,0L355,159.8 M397,159.7l0,1l0.8,0l0-1L397,159.7 M356.7,159.7l-0.8,0l0,1
						l0.8,0L356.7,159.7 M395.4,159.7l0,1l0.8,0l0-1L395.4,159.7 M358.3,159.6l-0.8,0l0,1l0.8,0L358.3,159.6 M393.7,159.6l0,1l0.8,0
						l0-1L393.7,159.6 M360,159.6l-0.8,0l0,1l0.8,0L360,159.6 M392.1,159.5l0,1l0.8,0l0-1L392.1,159.5 M361.6,159.5l-0.8,0l0,1
						l0.8,0L361.6,159.5 M390.4,159.5l0,1l0.8,0l0-1L390.4,159.5 M363.2,159.5l-0.8,0l0,1l0.8,0L363.2,159.5 M388.8,159.4l0,1l0.8,0
						l0-1L388.8,159.4 M364.9,159.4l-0.8,0l0,1l0.8,0L364.9,159.4 M387.1,159.4l0,1l0.8,0l0-1L387.1,159.4 M366.5,159.4l-0.8,0l0,1
						l0.8,0L366.5,159.4 M385.5,159.4l0,1l0.8,0l0-1L385.5,159.4 M368.2,159.4l-0.8,0l0,1l0.8,0L368.2,159.4 M383.8,159.3l0,1l0.8,0
						l0-1L383.8,159.3 M369.8,159.3l-0.8,0l0,1l0.8,0L369.8,159.3 M382.2,159.3l0,1l0.8,0l0-1L382.2,159.3 M371.5,159.3l-0.8,0l0,1
						l0.8,0L371.5,159.3 M380.5,159.3l0,1l0.8,0l0-1L380.5,159.3 M373.1,159.3l-0.8,0l0,1l0.8,0L373.1,159.3 M374.8,159.3l-0.8,0
						l0,1l0.8,0L374.8,159.3 M378.9,159.3l0,1l0.8,0l0-1L378.9,159.3 M376.4,159.3l-0.8,0l0,0.5l0,0.5l0.8,0L376.4,159.3
						 M377.2,159.3v1l0.8,0l0-1L377.2,159.3"/>
				</g>
				<g>
					<path d="M221.1,820.3l-1.7-0.4l0.4-1.8l1.7,0.4L221.1,820.3z M221.8,816.7l-1.7-0.4l0.3-1.8l1.7,0.4L221.8,816.7z M222.5,813.1
						l-1.7-0.4l0.3-1.6l0.9,0l0.8,0.3L222.5,813.1z M223.2,809.5l-1.7-0.4l0.3-1.8l1.7,0.4L223.2,809.5z M223.8,805.9l-1.7-0.4
						l0.3-1.8l1.7,0.4L223.8,805.9z M224.5,802.4l-1.7-0.4l0.3-1.8l1.7,0.4L224.5,802.4z M225.2,798.8l-1.7-0.3l0.3-1.8l1.7,0.3
						L225.2,798.8z M225.8,795.2l-1.7-0.3l0.3-1.8l1.7,0.3L225.8,795.2z M226.4,791.6l-1.7-0.3l0.3-1.8l1.7,0.3L226.4,791.6z
						 M227.1,788l-1.7-0.3l0.3-1.8l1.7,0.3L227.1,788z M227.7,784.4l-1.7-0.3l0.3-1.8l1.7,0.3L227.7,784.4z M228.3,780.8l-1.7-0.3
						l0.3-1.8l1.7,0.3L228.3,780.8z M228.9,777.2l-1.7-0.3l0.3-1.8l1.7,0.3L228.9,777.2z M229.5,773.6l-1.7-0.3l0.3-1.8l1.7,0.3
						L229.5,773.6z M230.1,770l-1.7-0.3l0.3-1.7l0.9,0l0.8,0.3L230.1,770z M230.7,766.4l-1.7-0.3l0.3-1.8l1.7,0.3L230.7,766.4z
						 M231.2,762.8l-1.7-0.3l0.3-1.8l1.7,0.3L231.2,762.8z M231.7,759.1l-1.7-0.3l0.3-1.8l1.7,0.3L231.7,759.1z M232.2,755.5
						l-1.7-0.3l0.2-1.8l1.7,0.3L232.2,755.5z M232.7,751.9l-1.7-0.2l0.2-1.8l1.7,0.2L232.7,751.9z M233.2,748.3l-1.7-0.2l0.2-1.8
						l1.7,0.2L233.2,748.3z M233.6,744.6l-1.7-0.2l0.2-1.8l1.7,0.2L233.6,744.6z M234,741l-1.7-0.2l0-0.2c0.1-0.5,0.1-1,0.1-1.6
						l1.7,0.2c0,0.5-0.1,1.1-0.1,1.6L234,741z M234.3,737.3l-1.7-0.1c0-0.6,0.1-1.2,0.1-1.8l1.7,0.1
						C234.4,736.1,234.4,736.7,234.3,737.3z M234.6,733.6l-1.7-0.1l0.1-1.8l1.7,0.1L234.6,733.6z M234.7,730l-1.7-0.1l0-1.8l1.7,0
						L234.7,730z M233.1,726.3l0-1.8l1.7,0l0,1.8L233.1,726.3z M233.1,722.7l0-1.8l1.7,0l0,1.8L233.1,722.7z M233.1,719l0-1.8l1.7,0
						l0,1.8L233.1,719z M233,715.4l0-1.8l1.7,0l0,1.7L233,715.4z M233,711.7l-0.1-1.8l1.7-0.1l0.1,1.8L233,711.7z M232.8,708.1
						l-0.1-1.8l1.7-0.1l0.1,1.8L232.8,708.1z M232.7,704.4l-0.1-1.8l1.7-0.1l0.1,1.8L232.7,704.4z M232.5,700.8l-0.1-1.8l1.7-0.1
						l0.1,1.8L232.5,700.8z M232.4,697.2l-0.1-1.8l1.7-0.1l0.1,1.8L232.4,697.2z M232.2,693.5l-0.1-1.8l1.7-0.1l0.1,1.8L232.2,693.5
						z M231.9,689.9l-0.1-1.8l1.7-0.1l0.1,1.8L231.9,689.9z M231.7,686.2l-0.1-1.8l1.7-0.1l0.1,1.8L231.7,686.2z M231.4,682.6
						l-0.1-1.8l1.7-0.1l0.1,1.8L231.4,682.6z M231.2,679l-0.1-1.8l1.7-0.2l0.1,1.8L231.2,679z M230.9,675.3l-0.1-1.8l1.7-0.2
						l0.1,1.8L230.9,675.3z M230.6,671.7l-0.2-1.8l1.7-0.2l0.2,1.8L230.6,671.7z M230.3,668.1l-0.2-1.8l1.7-0.2l0.2,1.8L230.3,668.1
						z M230,664.4l-0.2-1.8l1.7-0.2l0.2,1.8L230,664.4z M229.6,660.8l-0.2-1.8l1.7-0.2l0.2,1.8L229.6,660.8z M229.3,657.2l-0.2-1.8
						l1.7-0.2l0.2,1.8L229.3,657.2z M229,653.5l-0.2-1.8l1.7-0.2l0.2,1.8L229,653.5z M228.6,649.9l-0.2-1.8l1.7-0.2l0.2,1.8
						L228.6,649.9z M228.2,646.3l-0.2-1.8l1.7-0.2l0.2,1.8L228.2,646.3z M227.9,642.6l-0.2-1.8l1.7-0.2l0.2,1.8L227.9,642.6z
						 M227.5,639l-0.2-1.8l1.7-0.2l0.2,1.8L227.5,639z M227.1,635.4l-0.2-1.8l1.7-0.2l0.2,1.8L227.1,635.4z M226.7,631.8l-0.2-1.8
						l1.7-0.2l0.2,1.8L226.7,631.8z M226.3,628.1l-0.2-1.8l1.7-0.2l0.2,1.8L226.3,628.1z M225.9,624.5l0-0.3c-0.1-0.5-0.1-1-0.2-1.5
						l1.7-0.2c0.1,0.5,0.1,1,0.2,1.5l0,0.3L225.9,624.5z M225.5,620.8l-0.2-1.8l1.7-0.2l0.2,1.8L225.5,620.8z M225.2,617.2l-0.1-1.8
						l1.7-0.1l0.1,1.8L225.2,617.2z M225,613.5l-0.1-1.8l1.7-0.1l0.1,1.8L225,613.5z M224.8,609.9l-0.1-1.8l1.7-0.1l0.1,1.8
						L224.8,609.9z M224.6,606.2l-0.1-1.8l1.7-0.1l0.1,1.8L224.6,606.2z M224.4,602.6l-0.1-1.8l1.7-0.1l0.1,1.8L224.4,602.6z
						 M224.2,598.9l-0.1-1.8l1.7-0.1l0.1,1.8L224.2,598.9z M224,595.3l-0.1-1.8l1.7-0.1l0.1,1.8L224,595.3z M223.9,591.6l-0.1-1.8
						l1.7-0.1l0.1,1.8L223.9,591.6z M223.7,588l-0.1-1.8l1.7-0.1l0.1,1.8L223.7,588z M223.5,584.3l-0.1-1.8l1.7-0.1l0.1,1.8
						L223.5,584.3z M223.4,580.7l-0.1-1.8l1.7-0.1l0.1,1.8L223.4,580.7z M223.2,577l-0.1-1.8l1.7-0.1l0.1,1.8L223.2,577z
						 M223.1,573.4l-0.1-1.8l1.7-0.1l0.1,1.8L223.1,573.4z M222.9,569.7l-0.1-1.8l1.7-0.1l0.1,1.8L222.9,569.7z M222.8,566.1
						l-0.1-1.8l1.7-0.1l0.1,1.8L222.8,566.1z M222.6,562.4l-0.1-1.8l1.7-0.1l0.1,1.8L222.6,562.4z M222.5,558.8l-0.1-1.8l1.7-0.1
						l0.1,1.8L222.5,558.8z M222.3,555.1l-0.1-1.8l1.7-0.1l0.1,1.8L222.3,555.1z M222.2,551.5l-0.1-1.8l1.7-0.1l0.1,1.8L222.2,551.5
						z M222,547.8l-0.1-1.8l1.7-0.1l0.1,1.8L222,547.8z M221.8,544.2l-0.1-1.8l1.7-0.1l0.1,1.8L221.8,544.2z M221.6,540.5l-0.1-1.8
						l1.7-0.1l0.1,1.8L221.6,540.5z M221.5,536.9l-0.1-1.8l1.7-0.1l0.1,1.8L221.5,536.9z M221.3,533.2l-0.1-1.8l1.7-0.1l0.1,1.8
						L221.3,533.2z M221.1,529.6l-0.1-1.8l1.7-0.1l0.1,1.8L221.1,529.6z M220.9,526l-0.1-1.8l1.7-0.1l0.1,1.8L220.9,526z
						 M220.6,522.3l-0.1-1.8l1.7-0.1l0.1,1.8L220.6,522.3z M220.4,518.7l-0.1-1.8l1.7-0.1l0.1,1.8L220.4,518.7z M220.2,515l-0.1-1.8
						l1.7-0.1l0.1,1.8L220.2,515z M219.9,511.4l-0.1-1.8l1.7-0.2l0.1,1.8L219.9,511.4z M219.6,507.8l-0.2-1.8l1.7-0.2l0.2,1.8
						L219.6,507.8z M219.3,504.1l-0.2-1.8l1.7-0.2l0.2,1.8L219.3,504.1z M218.9,500.5l-0.2-1.8l1.7-0.2l0.2,1.8L218.9,500.5z
						 M218.5,496.9l-0.2-1.8l1.7-0.3l0.2,1.8L218.5,496.9z M218,493.3c-0.1-0.6-0.2-1.2-0.3-1.8l1.7-0.3c0.1,0.6,0.2,1.2,0.3,1.8
						L218,493.3z M217.4,489.7c-0.1-0.6-0.2-1.1-0.4-1.7l1.6-0.5c0.2,0.6,0.3,1.2,0.4,1.8L217.4,489.7z M216.5,486.4
						c-0.2-0.6-0.4-1.1-0.6-1.6l1.6-0.7c0.2,0.6,0.4,1.2,0.6,1.7L216.5,486.4z M215.3,483.1c-0.2-0.5-0.5-1-0.8-1.6l1.5-0.9
						c0.3,0.5,0.6,1.1,0.8,1.7L215.3,483.1z M213.6,480c-0.3-0.5-0.6-1-0.9-1.5l1.4-1c0.3,0.5,0.7,1,1,1.6L213.6,480z M211.7,477.1
						c-0.3-0.5-0.7-0.9-1-1.4l1.3-1.2c0.4,0.5,0.7,1,1.1,1.5L211.7,477.1z M209.6,474.3c-0.4-0.4-0.7-0.9-1.1-1.3l1.2-1.2
						c0.4,0.5,0.8,0.9,1.2,1.4L209.6,474.3z M207.4,471.7c-0.4-0.4-0.8-0.8-1.2-1.3l1.2-1.3c0.4,0.4,0.8,0.9,1.2,1.3L207.4,471.7z
						 M205,469.1c-0.4-0.4-0.8-0.8-1.2-1.2l1.1-1.4c0.4,0.4,0.9,0.8,1.3,1.2L205,469.1z M202.4,466.8c-0.4-0.4-0.9-0.8-1.3-1.2
						l1.1-1.4c0.4,0.4,0.9,0.8,1.3,1.2L202.4,466.8z M199.8,464.5c-0.4-0.4-0.9-0.7-1.3-1.1l1-1.5c0.5,0.4,0.9,0.7,1.4,1.1
						L199.8,464.5z M197.1,462.3c-0.5-0.4-0.9-0.7-1.4-1.1l1-1.5c0.5,0.4,0.9,0.7,1.4,1.1L197.1,462.3z M194.4,460.2
						c-0.5-0.3-0.9-0.7-1.4-1l0.9-1.5c0.5,0.3,0.9,0.7,1.4,1L194.4,460.2z M191.6,458.2c-0.5-0.3-1-0.7-1.4-1l0.9-1.6
						c0.5,0.3,1,0.6,1.4,1L191.6,458.2z M188.7,456.3c-0.5-0.3-1-0.6-1.5-0.9l0.9-1.6c0.5,0.3,1,0.6,1.5,0.9L188.7,456.3z
						 M185.8,454.5l-1.5-0.9l0.8-1.6l1.5,0.9L185.8,454.5z M182.8,452.7l-1.5-0.9l0.8-1.6c0.5,0.3,1,0.6,1.5,0.9L182.8,452.7z
						 M179.9,451c-0.5-0.3-1-0.6-1.5-0.8l0.8-1.6c0.5,0.3,1,0.6,1.5,0.8L179.9,451z M176.8,449.3l-1.5-0.8l0.7-1.6l1.5,0.8
						L176.8,449.3z M173.8,447.7l-1.5-0.8l0.7-1.7l1.5,0.8L173.8,447.7z M170.7,446.2c-0.6-0.3-1.1-0.5-1.6-0.7l0.7-1.7
						c0.5,0.2,1,0.5,1.6,0.7L170.7,446.2z M167.6,444.8c-1-0.5-1.6-0.7-1.6-0.7l0.6-1.7c0,0,0.6,0.2,1.6,0.7L167.6,444.8z"/>
				</g>
				<g>
					<path d="M523,818.2l-0.2-1.5l1.6-0.3c0.1,1.1,0.2,1.6,0.2,1.6L523,818.2z M522.6,814.9l-0.2-1.8l1.6-0.3l0.2,1.8L522.6,814.9z
						 M522.1,811.3l-0.2-1.8l1.6-0.3l0.2,1.8L522.1,811.3z M521.6,807.7l-0.2-1.8l1.6-0.3l0.2,1.8L521.6,807.7z M521.1,804.1
						l-0.2-1.8l1.6-0.2l0.2,1.8L521.1,804.1z M520.7,800.5l-0.2-1.8l1.6-0.3l0.2,1.8L520.7,800.5z M520.2,796.9l-0.2-1.8l1.6-0.2
						l0.2,1.8L520.2,796.9z M519.7,793.4l-0.2-1.8l1.6-0.2l0.2,1.8L519.7,793.4z M519.3,789.8L519,788l1.6-0.2l0.2,1.8L519.3,789.8z
						 M518.8,786.2l-0.2-1.8l1.6-0.2l0.2,1.8L518.8,786.2z M518.4,782.6l-0.2-1.8l1.6-0.2l0.2,1.8L518.4,782.6z M517.9,779l-0.2-1.8
						l1.6-0.2l0.2,1.8L517.9,779z M517.4,775.5l-0.2-1.8l1.6-0.2l0.2,1.8L517.4,775.5z M517,771.9l-0.2-1.8l1.6-0.2l0.2,1.8
						L517,771.9z M516.6,768.3l-0.2-1.8l1.6-0.2l0.2,1.8L516.6,768.3z M516.1,764.7l-0.2-1.8l1.6-0.2l0.2,1.8L516.1,764.7z
						 M515.7,761.1l-0.2-1.8l1.6-0.2l0.2,1.8L515.7,761.1z M515.2,757.5l-0.2-1.8l1.6-0.2l0.2,1.8L515.2,757.5z M514.8,753.9
						l-0.2-1.8l1.6-0.2l0.2,1.8L514.8,753.9z M514.4,750.4l-0.2-1.8l1.6-0.2l0.2,1.8L514.4,750.4z M514,746.8l-0.2-1.8l1.6-0.2
						l0.2,1.8L514,746.8z M513.6,743.2l-0.2-1.8l1.6-0.2l0.2,1.8L513.6,743.2z M513.2,739.6l-0.2-1.8l1.6-0.2l0.2,1.8L513.2,739.6z
						 M512.8,736l-0.2-1.8l1.6-0.2l0.2,1.8L512.8,736z M512.4,732.4l-0.2-1.8l1.7-0.2l0.2,1.8L512.4,732.4z M512.1,728.8
						c0-0.6-0.1-1.2-0.1-1.8l1.7-0.1c0,0.6,0.1,1.2,0.1,1.8L512.1,728.8z M511.9,725.1c0-0.6,0-1.2-0.1-1.8l1.7,0
						c0,0.6,0,1.2,0.1,1.8L511.9,725.1z M513.5,721.5l-1.7,0l0-1.8l1.7,0L513.5,721.5z M513.5,717.9l-1.7,0l0-1.8l1.7,0L513.5,717.9
						z M513.5,714.3l-1.7,0l0-1.8l1.7,0.1L513.5,714.3z M513.6,710.7l-1.7-0.1l0.1-1.8l1.7,0.1L513.6,710.7z M513.8,707.1l-1.7-0.1
						l0.1-1.8l1.7,0.1L513.8,707.1z M513.9,703.5l-1.7-0.1l0.1-1.8l1.7,0.1L513.9,703.5z M514.1,699.8l-1.7-0.1l0.1-1.8l1.7,0.1
						L514.1,699.8z M514.3,696.2l-1.7-0.1l0.1-1.8l1.7,0.1L514.3,696.2z M514.5,692.6l-1.7-0.1l0.1-1.8l1.7,0.1L514.5,692.6z
						 M514.7,689l-1.7-0.1l0.1-1.8l1.7,0.1L514.7,689z M515,685.4l-1.7-0.1l0.1-1.7l1.7,0.1L515,685.4z M515.2,681.8l-1.7-0.1
						l0.1-1.8l1.7,0.1L515.2,681.8z M515.5,678.2l-1.7-0.1l0.1-1.8l1.7,0.2L515.5,678.2z M515.7,674.6l-1.7-0.2l0.1-1.8l1.7,0.2
						L515.7,674.6z M516,671l-1.7-0.2l0.1-1.8l1.7,0.2L516,671z M516.3,667.5l-1.7-0.2l0.2-1.8l1.7,0.2L516.3,667.5z M516.6,663.9
						l-1.7-0.2l0.2-1.8l1.7,0.2L516.6,663.9z M516.9,660.3l-1.7-0.2l0.2-1.8l1.7,0.2L516.9,660.3z M517.2,656.7l-1.7-0.2l0.2-1.8
						l1.7,0.2L517.2,656.7z M517.6,653.1l-1.7-0.2l0.2-1.8l1.7,0.2L517.6,653.1z M517.9,649.5l-1.7-0.2l0.2-1.8l1.7,0.2L517.9,649.5
						z M518.2,645.9l-1.7-0.2l0.2-1.8l1.7,0.2L518.2,645.9z M518.5,642.3l-1.7-0.2l0.2-1.8l1.7,0.2L518.5,642.3z M518.9,638.7
						l-1.7-0.2l0.2-1.8l1.7,0.2L518.9,638.7z M519.2,635.1l-1.7-0.2l0.2-1.8l1.7,0.2L519.2,635.1z M519.6,631.5l-1.7-0.2l0.2-1.8
						l1.6,0.2L519.6,631.5z M520,627.9l-1.7-0.2l0.2-1.8l1.6,0.2L520,627.9z M520.3,624.3l-1.6-0.2l0.2-1.8l1.6,0.2L520.3,624.3z
						 M520.8,620.7l-1.6-0.3l0.2-1.8l1.6,0.3L520.8,620.7z M521.3,617.1l-1.6-0.2l0.2-1.8l1.6,0.3L521.3,617.1z M521.7,613.5
						l-1.6-0.3l0.2-1.8l1.6,0.3L521.7,613.5z M522.2,610l-1.6-0.3l0.2-1.8l1.6,0.3L522.2,610z M522.7,606.4l-1.6-0.3l0.2-1.8
						l1.6,0.3L522.7,606.4z M523.1,602.8l-1.6-0.3l0.2-1.8l1.6,0.3L523.1,602.8z M523.6,599.2L522,599l0.2-1.8l1.6,0.3L523.6,599.2z
						 M524.1,595.7l-1.6-0.3l0.2-1.8l1.6,0.3L524.1,595.7z M524.6,592.1l-1.6-0.3l0.2-1.8l1.6,0.3L524.6,592.1z M525,588.5l-1.6-0.3
						l0.2-1.8l1.6,0.3L525,588.5z M525.5,584.9l-1.6-0.3l0.2-1.8l1.6,0.3L525.5,584.9z M526,581.3l-1.6-0.3l0.2-1.8l1.6,0.3
						L526,581.3z M526.5,577.8l-1.6-0.3l0.2-1.8l1.6,0.3L526.5,577.8z M527,574.2l-1.6-0.3l0.2-1.8l1.6,0.3L527,574.2z M527.4,570.6
						l-1.6-0.3l0.2-1.8l1.6,0.3L527.4,570.6z M527.9,567.1l-1.6-0.3l0.2-1.8l1.6,0.3L527.9,567.1z M528.4,563.5l-1.6-0.3l0.2-1.8
						l1.6,0.3L528.4,563.5z M528.9,559.9l-1.6-0.3l0.2-1.8l1.6,0.3L528.9,559.9z M529.4,556.3l-1.6-0.3l0.2-1.8l1.6,0.3L529.4,556.3
						z M529.9,552.7l-1.6-0.3l0.2-1.7l0.8,0l0.8,0.3L529.9,552.7z M530.4,549.2l-1.6-0.3l0.2-1.8l1.6,0.3L530.4,549.2z M530.9,545.6
						l-1.6-0.3l0.2-1.8l1.6,0.3L530.9,545.6z M531.3,542l-1.6-0.3l0.2-1.8l1.6,0.3L531.3,542z M531.8,538.5l-1.6-0.3l0.2-1.8
						l1.6,0.3L531.8,538.5z M532.3,534.9l-1.6-0.3l0.2-1.8l1.6,0.3L532.3,534.9z M532.8,531.3l-1.6-0.3l0.2-1.8l1.6,0.3L532.8,531.3
						z M533.3,527.7l-1.6-0.3l0.2-1.8l1.6,0.3L533.3,527.7z M533.8,524.2l-1.6-0.3l0.2-1.8l1.6,0.3L533.8,524.2z M534.3,520.6
						l-1.6-0.3l0.3-1.8l1.6,0.3L534.3,520.6z M534.8,517l-1.6-0.3l0.3-1.8l1.6,0.3L534.8,517z M535.3,513.5l-1.6-0.3l0.3-1.8
						l1.6,0.3L535.3,513.5z M535.8,509.9l-1.6-0.3l0.2-1.6l1.7,0.1L535.8,509.9z M536.4,506.3l-1.6-0.3l0.3-1.8l1.6,0.3L536.4,506.3
						z M536.9,502.7l-1.6-0.3l0.3-1.8l1.6,0.3L536.9,502.7z M537.4,499.2l-1.6-0.3l0.3-1.8l1.6,0.3L537.4,499.2z M537.9,495.6
						l-1.6-0.3l0.3-1.8l1.6,0.3L537.9,495.6z M538.5,492l-1.6-0.3l0.3-1.8l1.6,0.3L538.5,492z M539.1,488.5l-1.6-0.4
						c0-0.1,0.1-0.2,0.1-0.3c0.2-0.4,0.5-0.9,1.3-1.5l1.1,1.4C539.3,488.2,539.2,488.5,539.1,488.5z M541.2,486.6l-1-1.5
						c0.4-0.3,0.9-0.7,1.4-1l0.9,1.5C542.1,485.9,541.6,486.3,541.2,486.6z M543.9,484.6l-0.9-1.5l1.4-1l0.9,1.5L543.9,484.6z
						 M546.7,482.7l-0.9-1.5l1.4-1l0.9,1.5L546.7,482.7z M549.6,480.8l-0.9-1.5l1.4-0.9l0.9,1.5L549.6,480.8z M552.4,478.9l-0.8-1.6
						l1.4-0.9l0.8,1.6L552.4,478.9z M555.3,477.1l-0.8-1.6l1.4-0.9l0.8,1.6L555.3,477.1z M558.2,475.3l-0.8-1.6l1.4-0.9l0.8,1.6
						L558.2,475.3z M561,473.5l-0.8-1.6l1.4-0.9l0.8,1.6L561,473.5z M563.9,471.7l-0.8-1.6l1.4-0.9l0.8,1.6L563.9,471.7z
						 M566.8,469.9l-0.8-1.6l1.4-0.9l0.8,1.6L566.8,469.9z M569.7,468.1l-0.8-1.6l1.5-0.9l0.8,1.6L569.7,468.1z M572.6,466.3
						l-0.8-1.6l1.5-0.9l0.8,1.6L572.6,466.3z M575.5,464.6l-0.8-1.6l1.5-0.9l0.8,1.6L575.5,464.6z M578.4,462.8l-0.8-1.6l1.5-0.9
						l0.8,1.6L578.4,462.8z"/>
				</g>
			</g>
			<g>
				<path d="M163.3,440.2l0-0.2l1.2-0.2l0,0.2L163.3,440.2z M163.1,438.8l-0.2-1.3l1.2-0.2l0.2,1.3L163.1,438.8z M162.6,436.3
					l-0.2-1.2l1.2-0.2l0.2,1.3L162.6,436.3z M162.2,433.8l-0.2-1.2l1.2-0.3l0.2,1.2L162.2,433.8z M161.8,431.3l-0.2-1.2l1.2-0.2
					l0.2,1.2L161.8,431.3z M161.4,428.8l-0.2-1.2l1.2-0.3l0.2,1.2L161.4,428.8z M161,426.3l-0.2-1.2l1.2-0.2l0.2,1.2L161,426.3z
					 M160.6,423.8l-0.2-1.2l1.2-0.2l0.2,1.2L160.6,423.8z M160.2,421.3l-0.2-1.2l1.2-0.2l0.2,1.2L160.2,421.3z M159.7,418.8
					l-0.2-1.2l1.2-0.2l0.2,1.2L159.7,418.8z M159.3,416.3l-0.2-1.2l1.2-0.2l0.2,1.2L159.3,416.3z M158.9,413.8l-0.2-1.2l1.2-0.2
					l0.2,1.2L158.9,413.8z M158.5,411.3l-0.2-1.2l1.2-0.2l0.2,1.2L158.5,411.3z M158,408.8l-0.2-1.2l1.2-0.2l0.2,1.2L158,408.8z
					 M157.6,406.3l-0.2-1.2l1.2-0.2l0.2,1.2L157.6,406.3z M157.2,403.9l-0.2-1.2l1.2-0.2l0.2,1.2L157.2,403.9z M156.7,401.4
					l-0.2-1.2l1.2-0.2l0.2,1.2L156.7,401.4z M156.3,398.9l-0.2-1.2l1.2-0.2l0.2,1.2L156.3,398.9z M155.9,396.4l-0.2-1.2l1.2-0.2
					l0.2,1.2L155.9,396.4z M155.4,393.9l-0.2-1.2l1.2-0.2l0.2,1.2L155.4,393.9z M155,391.4l-0.2-1.2l1.2-0.2l0.2,1.2L155,391.4z
					 M154.5,388.9l-0.2-1.2l1.2-0.2l0.2,1.2L154.5,388.9z M154.1,386.4l-0.2-1.2l1.2-0.2l0.2,1.2L154.1,386.4z M153.6,384l-0.2-1.2
					l1.2-0.2l0.2,1.2L153.6,384z M153.1,381.5l-0.2-1.2l1.2-0.2l0.2,1.2L153.1,381.5z M152.7,379l-0.2-1.2l1.2-0.2l0.2,1.2
					L152.7,379z M152.2,376.5l-0.3-1.2l1.2-0.3l0.3,1.2L152.2,376.5z M151.7,374l-0.3-1.2l1.2-0.3l0.3,1.2L151.7,374z M151.1,371.6
					l-0.3-1.2l1.2-0.3l0.3,1.2L151.1,371.6z M150.6,369.1c-0.1-0.4-0.2-0.8-0.3-1.2l1.2-0.3c0.1,0.4,0.2,0.8,0.3,1.2L150.6,369.1z
					 M149.9,366.7l-0.3-1.2l1.2-0.3l0.3,1.2L149.9,366.7z M149.3,364.3l-0.3-1.2l1.2-0.3l0.3,1.2L149.3,364.3z M148.6,361.8
					l-0.3-1.2l1.2-0.3l0.3,1.2L148.6,361.8z M148,359.4l-0.3-1.2l1.2-0.3l0.3,1.2L148,359.4z M147.3,356.9l-0.3-1.2l1.2-0.3l0.3,1.2
					L147.3,356.9z M146.7,354.5l-0.3-1.2l1.2-0.3l0.3,1.2L146.7,354.5z M146,352l-0.3-1.2l1.2-0.3l0.3,1.2L146,352z M145.4,349.6
					l-0.3-1.2l1.2-0.3l0.3,1.2L145.4,349.6z M144.8,347.2l-0.3-1.2l1.2-0.3l0.3,1.2L144.8,347.2z M144.1,344.7l-0.3-1.2l1.2-0.3
					l0.3,1.2L144.1,344.7z M143.5,342.2l-0.3-1.2l1.2-0.3l0.3,1.2L143.5,342.2z M142.9,339.8l-0.3-1.2l1.2-0.3l0.3,1.2L142.9,339.8z
					 M142.3,337.3l-0.3-1.2l1.2-0.3l0.3,1.2L142.3,337.3z M141.7,334.9l-0.3-1.2l1.2-0.3l0.3,1.2L141.7,334.9z M141.1,332.4
					l-0.3-1.2l1.2-0.3l0.3,1.2L141.1,332.4z M140.5,330l-0.3-1.2l1.2-0.3l0.3,1.2L140.5,330z M140,327.5l-0.3-1.2l1.2-0.3l0.3,1.2
					L140,327.5z M139.4,325l-0.3-1.2l1.2-0.3l0.3,1.2L139.4,325z M138.8,322.6l-0.3-1.2l1.2-0.3l0.3,1.2L138.8,322.6z M138.3,320.1
					l-0.3-1.2l1.2-0.3l0.3,1.2L138.3,320.1z M137.7,317.7l-0.3-1.2l1.2-0.3l0.3,1.2L137.7,317.7z M137.2,315.2l-0.3-1.2l1.2-0.3
					l0.3,1.2L137.2,315.2z M136.6,312.7l-0.3-1.2l1.2-0.3l0.3,1.2L136.6,312.7z M136.1,310.3l-0.3-1.2l1.2-0.3l0.3,1.2L136.1,310.3z
					 M135.5,307.8l-0.3-1.2l1.2-0.3l0.3,1.2L135.5,307.8z M135,305.3l-0.3-1.2l1.2-0.3l0.3,1.2L135,305.3z M134.5,302.8l-0.3-1.2
					l1.2-0.3l0.3,1.2L134.5,302.8z M134,300.4l-0.3-1.2l1.2-0.3l0.3,1.2L134,300.4z M133.5,297.9l-0.3-1.2l1.2-0.3l0.3,1.2
					L133.5,297.9z M133,295.4l-0.2-1.2l1.2-0.2l0.2,1.2L133,295.4z M132.5,292.9l-0.2-1.2l1.2-0.2l0.2,1.2L132.5,292.9z M132,290.5
					l-0.2-1.2l1.2-0.2l0.2,1.2L132,290.5z M131.5,288l-0.2-1.2l1.2-0.2l0.2,1.2L131.5,288z M131,285.5l-0.2-1.2l1.2-0.2l0.2,1.2
					L131,285.5z M130.5,283l-0.2-1.2l1.2-0.2l0.2,1.2L130.5,283z M130,280.5l-0.2-1.2l1.2-0.2l0.2,1.2L130,280.5z M129.6,278
					l-0.2-1.2l1.2-0.2l0.2,1.2L129.6,278z M129.1,275.6l-0.2-1.2l1.2-0.2l0.2,1.2L129.1,275.6z M128.7,273.1l-0.2-1.2l1.2-0.2
					l0.2,1.2L128.7,273.1z M128.2,270.6l-0.2-1.2l1.2-0.2l0.2,1.2L128.2,270.6z M127.8,268.1l-0.2-1.2l1.2-0.2l0.2,1.2L127.8,268.1z
					 M127.4,265.6l-0.2-1.2l1.2-0.2l0.2,1.2L127.4,265.6z M126.9,263.1l-0.2-1.2l1.2-0.2l0.2,1.2L126.9,263.1z M126.5,260.6
					l-0.2-1.2l1.2-0.2l0.2,1.2L126.5,260.6z M126.1,258.1l-0.2-1.2l1.2-0.2l0.2,1.2L126.1,258.1z M125.7,255.6l-0.2-1.2l1.2-0.2
					l0.2,1.2L125.7,255.6z M125.3,253.1l-0.2-1.3l1.2-0.2l0.2,1.2L125.3,253.1z M125,250.6l-0.2-1.3l1.3-0.2l0.2,1.3L125,250.6z"/>
			</g>
			<g>
				<path d="M582,459.8l-1.3-0.1L582,459.8L582,459.8z M582.2,458.6l-1.3-0.2l0.2-1.3l1.3,0.2L582.2,458.6z M582.5,456.1l-1.3-0.2
					l0.2-1.3l1.3,0.2L582.5,456.1z M582.8,453.6l-1.3-0.2l0.2-1.3l1.3,0.2L582.8,453.6z M583.2,451.1l-1.3-0.2l0.2-1.3l1.3,0.2
					L583.2,451.1z M583.5,448.6l-1.3-0.2l0.2-1.3l1.3,0.2L583.5,448.6z M583.9,446.1l-1.3-0.2l0.2-1.3l1.3,0.2L583.9,446.1z
					 M584.2,443.6l-1.3-0.2l0.2-1.3l1.3,0.2L584.2,443.6z M584.5,441.1l-1.3-0.2l0.2-1.3l1.3,0.2L584.5,441.1z M584.9,438.6
					l-1.3-0.2l0.2-1.3l1.3,0.2L584.9,438.6z M585.2,436.1l-1.3-0.2l0.2-1.3l1.3,0.2L585.2,436.1z M585.6,433.6l-1.3-0.2l0.2-1.3
					l1.3,0.2L585.6,433.6z M585.9,431.1l-1.3-0.2l0.2-1.3l1.3,0.2L585.9,431.1z M586.2,428.6l-1.3-0.2l0.2-1.3l1.2,0.2L586.2,428.6z
					 M586.7,426.1l-1.2-0.2l0.2-1.3l1.2,0.2L586.7,426.1z M587.1,423.6l-1.2-0.2l0.2-1.2l1.2,0.2L587.1,423.6z M587.5,421.1
					l-1.2-0.2l0.2-1.2l1.2,0.2L587.5,421.1z M588,418.6l-1.2-0.2l0.2-1.2l1.2,0.2L588,418.6z M588.4,416.1l-1.2-0.2l0.2-1.2l1.2,0.2
					L588.4,416.1z M588.9,413.6l-1.2-0.2l0.2-1.2l1.2,0.2L588.9,413.6z M589.3,411.1l-1.2-0.2l0.2-1.2l1.2,0.2L589.3,411.1z
					 M589.8,408.6l-1.2-0.2l0.2-1.2l1.2,0.2L589.8,408.6z M590.2,406.2l-1.2-0.2l0.2-1.2l1.2,0.2L590.2,406.2z M590.7,403.7
					l-1.2-0.2l0.2-1.2l1.2,0.2L590.7,403.7z M591.1,401.2l-1.2-0.2l0.2-1.2l1.2,0.2L591.1,401.2z M591.6,398.7l-1.2-0.2l0.2-1.2
					l1.2,0.2L591.6,398.7z M592,396.2l-1.2-0.2l0.2-1.2l1.2,0.2L592,396.2z M592.5,393.7l-1.2-0.2l0.2-1.2l1.2,0.2L592.5,393.7z
					 M592.9,391.2l-1.2-0.2l0.2-1.2l1.2,0.2L592.9,391.2z M593.4,388.7l-1.2-0.2l0.2-1.2l1.2,0.2L593.4,388.7z M593.8,386.3
					l-1.2-0.2l0.2-1.2l1.2,0.2L593.8,386.3z M594.3,383.8l-1.2-0.2l0.2-1.2l1.2,0.2L594.3,383.8z M594.8,381.3l-1.2-0.2l0.2-1.2
					l1.2,0.2L594.8,381.3z M595.2,378.8l-1.2-0.2l0.2-1.2l1.2,0.2L595.2,378.8z M595.7,376.3l-1.2-0.2l0.2-1.2l1.2,0.2L595.7,376.3z
					 M596.1,373.8l-1.2-0.2l0.2-1.1l1.3,0.1L596.1,373.8z M596.6,371.3l-1.2-0.2l0.2-1.1l1.3,0.1L596.6,371.3z M597,368.9l-1.2-0.2
					l0.2-1.2l1.2,0.2L597,368.9z M597.5,366.4l-1.2-0.2l0.2-1.2l1.2,0.2L597.5,366.4z M597.9,363.9l-1.2-0.2l0.2-1.2l1.2,0.2
					L597.9,363.9z M598.4,361.4l-1.2-0.2l0.2-1.2l1.2,0.2L598.4,361.4z M598.9,358.9l-1.2-0.2l0.2-1.2l1.2,0.2L598.9,358.9z
					 M599.3,356.4l-1.2-0.2l0.2-1.2l1.2,0.2L599.3,356.4z M599.8,353.9l-1.2-0.2l0.2-1.2l1.2,0.2L599.8,353.9z M600.2,351.5
					l-1.2-0.2l0.2-1.1l0.6,0l0.6,0.2L600.2,351.5z M600.7,349l-1.2-0.2l0.2-1.2l1.2,0.2L600.7,349z M601.2,346.5l-1.2-0.2l0.2-1.2
					l1.2,0.2L601.2,346.5z M601.6,344l-1.2-0.2l0.2-1.2l1.2,0.2L601.6,344z M602.1,341.5l-1.2-0.2l0.2-1.2l1.2,0.2L602.1,341.5z
					 M602.6,339l-1.2-0.2l0.2-1.2l1.2,0.2L602.6,339z M603,336.6l-1.2-0.2l0.2-1.2l1.2,0.2L603,336.6z M603.5,334.1l-1.2-0.2
					l0.2-1.2l1.2,0.2L603.5,334.1z M604,331.6l-1.2-0.2l0.2-1.2l1.2,0.2L604,331.6z M604.4,329.1l-1.2-0.2l0.2-1.2l1.2,0.2
					L604.4,329.1z M604.9,326.6l-1.2-0.2l0.2-1.2l1.2,0.2L604.9,326.6z M605.4,324.1l-1.2-0.2l0.2-1.2l1.2,0.2L605.4,324.1z
					 M605.9,321.7l-1.2-0.2l0.2-1.2l1.2,0.2L605.9,321.7z M606.3,319.2l-1.2-0.2l0.2-1.2l1.2,0.2L606.3,319.2z M606.8,316.7
					l-1.2-0.2l0.2-1.2l1.2,0.2L606.8,316.7z M607.3,314.2l-1.2-0.2l0.2-1.2l1.2,0.2L607.3,314.2z M607.8,311.7l-1.2-0.2l0.2-1.2
					l1.2,0.2L607.8,311.7z M608.3,309.3l-1.2-0.2l0.3-1.2l1.2,0.3L608.3,309.3z M608.8,306.8l-1.2-0.3l0.3-1.2l1.2,0.3L608.8,306.8z
					 M609.3,304.3l-1.2-0.3l0.3-1.2l1.2,0.3L609.3,304.3z M609.9,301.7l-0.6,0l-0.6-0.1l0.3-1.2l1.2,0.3L609.9,301.7z M610.4,299.4
					l-1.2-0.3c0.1-0.5,0.2-0.9,0.3-1.2l1.2,0.3C610.6,298.5,610.5,298.9,610.4,299.4z M611,296.9l-1.2-0.3c0.1-0.4,0.2-0.8,0.3-1.2
					l1.2,0.3C611.2,296.1,611.1,296.5,611,296.9z M611.6,294.5l-1.2-0.3l0.3-1.2l1.2,0.3L611.6,294.5z M612.2,292l-1.2-0.3l0.3-1.2
					l1.2,0.3L612.2,292z M612.7,289.5l-1.2-0.3l0.3-1.2l1.2,0.3L612.7,289.5z M613.2,287l-1.2-0.3l0.3-1.2l1.2,0.2L613.2,287z
					 M613.7,284.5l-1.2-0.2l0.2-1.2l1.2,0.2L613.7,284.5z M614.2,282.1l-1.2-0.2l0.2-1.2l1.2,0.2L614.2,282.1z M614.7,279.6
					l-1.2-0.2l0.2-1.2l1.2,0.2L614.7,279.6z M615.1,277.1l-1.2-0.2l0.2-1.2l1.2,0.2L615.1,277.1z M615.6,274.6l-1.2-0.2l0.2-1.2
					l1.2,0.2L615.6,274.6z M616,272.1l-1.2-0.2l0.2-1.2l1.2,0.2L616,272.1z M616.4,269.6l-1.2-0.2l0.2-1.2l1.2,0.2L616.4,269.6z
					 M616.9,267.1l-1.2-0.2l0.2-1.2l1.2,0.2L616.9,267.1z M617.3,264.6l-1.2-0.2l0.2-1.2l1.2,0.2L617.3,264.6z M617.7,262.1
					l-1.2-0.2l0.2-1.2l1.2,0.2L617.7,262.1z M618.1,259.6l-1.2-0.2l0.2-1.2l1.2,0.2L618.1,259.6z M618.5,257.1l-1.2-0.2l0.2-1.2
					l1.2,0.2L618.5,257.1z M618.9,254.6l-1.2-0.2l0.2-1.3l1.2,0.2L618.9,254.6z M619.3,252.1l-1.2-0.2l0.2-1.3l1.2,0.2L619.3,252.1z
					 M619.7,249.6l-1.2-0.2l0.2-1.3l1.2,0.2L619.7,249.6z"/>
			</g>
		</g>
		<g>
			<path d="M376.7,790.9v-1.3l1.3,0l0,1.3L376.7,790.9z M375.4,790.9h-1.3v-1.3h1.3V790.9z M372.9,790.9l-1.3,0l0-1.3l1.3,0V790.9z
				 M379.2,790.9l0-1.3l1.3,0v1.3L379.2,790.9z M370.4,790.9l-1.3,0l0-1.3l1.3,0L370.4,790.9z M381.7,790.9l0-1.3l1.3,0v1.3
				L381.7,790.9z M384.3,790.9l0-1.3l1.3,0l0,1.3L384.3,790.9z M367.8,790.9l-1.3,0l0-1.3l1.3,0L367.8,790.9z M386.8,790.9l0-1.3
				l1.3,0l0,1.3L386.8,790.9z M365.3,790.9l-1.3,0l0-1.3l1.3,0L365.3,790.9z M389.3,790.9l0-1.3l1.3,0l0,1.3L389.3,790.9z
				 M362.8,790.9l-1.3,0l0-1.3l1.3,0L362.8,790.9z M391.8,790.8l0-1.3l1.3,0l0,1.3L391.8,790.8z M394.3,790.8l0-1.3l1.3,0l0,1.3
				L394.3,790.8z M360.3,790.8l-1.3,0l0-1.3l1.3,0L360.3,790.8z M396.9,790.8l0-1.3l1.3,0l0,1.3L396.9,790.8z M357.7,790.8l-1.3,0
				l0-1.3l1.3,0L357.7,790.8z M399.4,790.8l0-1.3l1.3,0l0,1.3L399.4,790.8z M355.2,790.8l-1.3,0l0-1.3l1.3,0L355.2,790.8z
				 M401.9,790.8l0-1.3l1.3,0l0,1.3L401.9,790.8z M352.7,790.8l-1.3,0l0-1.3l1.3,0L352.7,790.8z M404.5,790.8l0-1.3l1.3,0l0,1.3
				L404.5,790.8z M407,790.7l0-1.3l1.3,0l0,1.3L407,790.7z M350.1,790.7l-1.3,0l0-1.3l1.3,0L350.1,790.7z M409.6,790.7l0-0.6l0-0.6
				l1.3,0l0,1.3L409.6,790.7z M347.6,790.7l-1.3,0l0-1.3l1.3,0L347.6,790.7z M412.1,790.7l0-0.6l0-0.6l1.2,0l0,1.3L412.1,790.7z
				 M345.1,790.6l-1.3,0l0-1.3l1.3,0L345.1,790.6z M414.6,790.6l0-1.3l1.3,0l0,1.3L414.6,790.6z M417.1,790.6l0-1.3l1.3,0l0,1.3
				L417.1,790.6z M342.5,790.6l-1.3,0l0-1.3l1.3,0L342.5,790.6z M419.6,790.6l0-1.3l1.3,0l0,1.3L419.6,790.6z M340,790.6l-1.3,0
				l0-1.3l1.3,0L340,790.6z M422.2,790.5l0-0.6l0-0.6l1.2,0l0,1.3L422.2,790.5z M337.5,790.5l-1.3,0l0-1.3l1.3,0L337.5,790.5z
				 M424.7,790.5l0-0.6l0-0.6l1.2,0l0,1.3L424.7,790.5z M427.2,790.5l0-1.3l1.3,0l0,1.3L427.2,790.5z M335,790.5l-1.3,0l0-1.3l1.3,0
				L335,790.5z M429.7,790.4l0-1.3l1.3,0l0,1.3L429.7,790.4z M332.4,790.4l-1.3,0l0-1.3l1.3,0L332.4,790.4z M432.3,790.4l0-1.3
				l1.3,0l0,1.3L432.3,790.4z M329.9,790.4l-1.3,0l0-1.3l1.3,0L329.9,790.4z M434.8,790.4l0-0.6l0-0.6l1.2,0l0,1.3L434.8,790.4z
				 M437.3,790.3l0-0.6l0-0.6l1.2,0l0,1.3L437.3,790.3z M327.4,790.3l-1.3,0l0-1.3l1.3,0L327.4,790.3z M439.8,790.3l0-1.3l1.3,0
				l0,1.3L439.8,790.3z M324.9,790.3l-1.3,0l0-1.3l1.3,0L324.9,790.3z M442.4,790.2l0-1.3l1.3,0l0,1.3L442.4,790.2z M322.4,790.2
				l-1.2,0l0-1.3l0,0.6l0-0.6l1.2,0L322.4,790.2z M444.9,790.2l0-1.3l1.3,0l0,1.3L444.9,790.2z M447.4,790.1l0-1.3l1.3,0l0,1.3
				L447.4,790.1z M319.8,790.1l-1.3,0l0-1.3l1.3,0L319.8,790.1z M450,790.1l0-0.6l0-0.6l1.2,0l0,1.3L450,790.1z M317.3,790.1l-1.3,0
				l0-1.3l1.3,0L317.3,790.1z M452.5,790l0-0.6l0-0.6l1.2,0l0,1.3L452.5,790z M314.8,790l-1.2,0l0-1.3l0,0.6l0-0.6l1.2,0L314.8,790z
				 M455,790l0-1.3l1.3,0l0,1.3L455,790z M457.5,789.9l0-1.3l1.3,0l0,1.3L457.5,789.9z M312.3,789.9l-1.2,0l0-1.3l0,0.6l0-0.6l1.2,0
				L312.3,789.9z M460.1,789.9l0-1.3l1.3,0l0,1.3L460.1,789.9z M309.7,789.9l-1.3,0l0-1.3l1.3,0L309.7,789.9z M462.6,789.8l0-1.3
				l1.3,0l0,1.3L462.6,789.8z M307.2,789.8l-1.3,0l0-1.3l1.3,0L307.2,789.8z M465.2,789.8l-0.1-0.6l0-0.6l1.2,0l0,1.3L465.2,789.8z
				 M467.7,789.7l-0.1-0.6l0-0.6l1.2,0l0,1.3L467.7,789.7z M304.7,789.7l-1.2,0l0-0.6l0.1-0.6l1.2,0L304.7,789.7z M470.2,789.7
				l-0.1-0.6l0-0.6l1.2,0l0,1.3L470.2,789.7z M302.2,789.6l-1.3,0l0-1.3l1.3,0L302.2,789.6z M472.7,789.6l0-1.3l1.3,0l0,1.3
				L472.7,789.6z M299.6,789.6l-1.3,0l0-1.3l1.3,0L299.6,789.6z M475.2,789.5l0-1.3l1.3,0l0,1.3L475.2,789.5z M477.7,789.5l0-1.3
				l1.3,0l0,1.3L477.7,789.5z M297.1,789.5l-1.3,0l0-1.3l1.3,0L297.1,789.5z M480.3,789.4l0-1.3l1.3,0l0,1.3L480.3,789.4z
				 M294.6,789.4l-1.2,0l0-0.6l0.1-0.6l1.2,0L294.6,789.4z M482.9,789.4l-0.1-0.6l0.1-0.6l1.2,0l0,1.3L482.9,789.4z M292.1,789.3
				l-1.2,0l0-0.6l0.1-0.6l1.2,0L292.1,789.3z M485.4,789.3l-0.1-0.6l0.1-0.6l1.2,0l0,1.3L485.4,789.3z M487.8,789.2l0-1.3l1.3,0
				l0,1.3L487.8,789.2z M289.5,789.2l-1.3,0l0-1.3l1.3,0L289.5,789.2z M490.4,789.2l0-1.3l1.3,0l0,1.3L490.4,789.2z M287,789.1
				l-1.3,0l0-1.3l1.3,0L287,789.1z M492.9,789.1l0-1.3l1.3,0l0,1.3L492.9,789.1z M284.5,789.1l-1.3,0l0-1.3l1.3,0L284.5,789.1z
				 M303.4,789l0-0.6L303.4,789z M495.4,789l0-1.3l1.3,0l0,1.3L495.4,789z M497.9,789l0-1.3l1.3,0l0,1.3L497.9,789z M282,789l-1.2,0
				l0-0.6l0.1-0.6l1.2,0L282,789z M500.5,788.9l0-1.3l1.3,0l0,1.3L500.5,788.9z M279.4,788.9l-1.3,0l0-1.3l1.3,0L279.4,788.9z
				 M503,788.8l0-1.3l1.3,0l0,1.3L503,788.8z M276.9,788.8l-1.3,0l0-1.3l1.3,0L276.9,788.8z M505.5,788.8l0-1.3l1.3,0l0,1.3
				L505.5,788.8z M293.3,788.7l0-0.6L293.3,788.7z M274.4,788.7l-1.3,0l0-1.3l1.3,0L274.4,788.7z M508,788.7l0-1.3l1.3,0l0,1.3
				L508,788.7z M290.8,788.6l0-0.6L290.8,788.6z M510.6,788.6l0-1.3l1.3,0l0,1.3L510.6,788.6z M271.9,788.6l-1.2,0l0-0.6l0.1-0.6
				l1.2,0L271.9,788.6z M513.1,788.5l0-1.3l1.3,0l0,1.3L513.1,788.5z M269.3,788.5l-1.2,0l0-0.6l0.1-0.6l1.2,0L269.3,788.5z
				 M515.6,788.5l0-1.3l1.3,0l0,1.3L515.6,788.5z M266.8,788.4l-1.3-0.1l0.1-1.3l1.3,0.1L266.8,788.4z M518.2,788.4l0-1.3l0.4,0
				l0.1,1.3L518.2,788.4z M280.7,788.3l0-0.6L280.7,788.3z M264.3,788.3l-1.3-0.1l0.1-1.3l1.3,0.1L264.3,788.3z M261.8,788.2
				l-1.3-0.1l0.1-1.3l1.3,0.1L261.8,788.2z M259.2,788.1L258,788l0.1-1.3l1.3,0.1L259.2,788.1z M256.7,788l-1.3-0.1l0.1-1.3l1.3,0.1
				L256.7,788z M270.6,787.9l0-0.6L270.6,787.9z M254.2,787.9l-1.3-0.1l0.1-1.3l1.3,0.1L254.2,787.9z M268.1,787.8l0-0.6
				L268.1,787.8z M251.7,787.8l-1.3-0.1l0.1-1.3l1.3,0.1L251.7,787.8z M249.1,787.6l-1.3-0.1l0.1-1.3l1.3,0.1L249.1,787.6z
				 M246.6,787.5l-1.3-0.1l0.1-1.3l1.3,0.1L246.6,787.5z M244.1,787.4l-1.3-0.1l0.1-1.3l1.3,0.1L244.1,787.4z M241.6,787.3l-1.3-0.1
				l0.1-1.3l1.3,0.1L241.6,787.3z M239,787.2l-1.3-0.1l0.1-1.3l1.3,0.1L239,787.2z M236.5,787.1l-1.3-0.1l0.1-1.3l1.3,0.1
				L236.5,787.1z M234,786.9l-1.3-0.1l0.1-1.3l1.3,0.1L234,786.9z M231.5,786.8l-1.3-0.1l0.1-1.3l1.3,0.1L231.5,786.8z M228.9,786.7
				l-1.3-0.1l0.1-1.3l1.3,0.1L228.9,786.7z"/>
		</g>
		<g>
			<path d="M376.9,797.2h-1.3V796h1.3V797.2z M374.3,797.2l-1.3,0V796l1.3,0L374.3,797.2z M378.1,797.2V796l1.3,0l0,1.3L378.1,797.2
				z M371.8,797.2l-1.3,0l0-1.3l1.3,0L371.8,797.2z M380.6,797.2l0-1.3l1.3,0v1.3L380.6,797.2z M369.3,797.2l-1.3,0l0-1.3l1.3,0
				L369.3,797.2z M383.2,797.2l0-1.3l1.3,0l0,1.3L383.2,797.2z M385.7,797.2l0-1.3l1.3,0l0,1.3L385.7,797.2z M366.7,797.2l-1.3,0
				l0-1.3l1.3,0L366.7,797.2z M388.2,797.2l0-1.3l1.3,0l0,1.3L388.2,797.2z M364.2,797.2l-1.3,0l0-1.3l1.3,0L364.2,797.2z
				 M390.7,797.2l0-1.3l1.3,0l0,1.3L390.7,797.2z M361.7,797.2l-1.3,0l0-1.3l1.3,0L361.7,797.2z M393.2,797.2l0-1.3l1.3,0l0,1.3
				L393.2,797.2z M359.2,797.1l-1.3,0l0-1.3l1.3,0L359.2,797.1z M395.8,797.1l0-1.3l1.3,0l0,1.3L395.8,797.1z M398.3,797.1l0-1.3
				l1.3,0l0,1.3L398.3,797.1z M356.6,797.1l-1.3,0l0-1.3l1.3,0L356.6,797.1z M400.8,797.1l0-1.3l1.3,0l0,1.3L400.8,797.1z
				 M354.1,797.1l-1.3,0l0-1.3l1.3,0L354.1,797.1z M403.4,797.1l0-1.3l1.3,0l0,1.3L403.4,797.1z M351.6,797.1l-1.3,0l0-1.3l1.3,0
				L351.6,797.1z M405.9,797l0-1.3l1.3,0l0,1.3L405.9,797z M349.1,797l-1.3,0l0-1.3l1.3,0L349.1,797z M408.4,797l0-0.6l0-0.6l1.3,0
				l0,1.3L408.4,797z M411,797l0-1.3l1.3,0l0,1.3L411,797z M346.5,797l-1.3,0l0-1.3l1.3,0L346.5,797z M413.5,797l0-1.3l1.3,0l0,1.3
				L413.5,797z M344,796.9l-1.3,0l0-1.3l1.3,0L344,796.9z M416,796.9l0-1.3l1.3,0l0,1.3L416,796.9z M341.4,796.9l-1.3,0l0-1.3l1.3,0
				L341.4,796.9z M418.6,796.9l0-0.6l0-0.6l1.2,0l0,1.3L418.6,796.9z M421.1,796.9l0-1.3l1.3,0l0,1.3L421.1,796.9z M338.9,796.9
				l-1.3,0l0-1.3l1.3,0L338.9,796.9z M423.6,796.8l0-1.3l1.3,0l0,1.3L423.6,796.8z M336.4,796.8l-1.3,0l0-1.3l1.3,0L336.4,796.8z
				 M426.1,796.8l0-1.3l1.3,0l0,1.3L426.1,796.8z M333.9,796.8l-1.3,0l0-1.3l1.3,0L333.9,796.8z M428.6,796.7l0-1.3l1.3,0l0,1.3
				L428.6,796.7z M331.3,796.7l-1.3,0l0-1.3l1.3,0L331.3,796.7z M431.2,796.7l0-0.6l0-0.6l1.2,0l0,1.3L431.2,796.7z M433.7,796.7
				l0-1.3l1.3,0l0,1.3L433.7,796.7z M328.8,796.7l-1.3,0l0-1.3l1.3,0L328.8,796.7z M436.2,796.6l0-1.3l1.3,0l0,1.3L436.2,796.6z
				 M326.3,796.6l-1.3,0l0-1.3l1.3,0L326.3,796.6z M438.7,796.6l0-1.3l1.3,0l0,1.3L438.7,796.6z M323.8,796.5l-1.2,0l0-1.3l0,0.6
				l0-0.6l1.2,0L323.8,796.5z M441.3,796.5l0-1.3l1.3,0l0,1.3L441.3,796.5z M443.8,796.5l0-0.6l0-0.6l1.2,0l0,1.3L443.8,796.5z
				 M321.3,796.5l-1.3,0l0-1.3l1.3,0L321.3,796.5z M446.3,796.4l0-0.6l0-0.6l1.2,0l0,1.3L446.3,796.4z M318.7,796.4l-1.3,0l0-1.3
				l1.3,0L318.7,796.4z M448.8,796.4l0-1.3l1.3,0l0,1.3L448.8,796.4z M316.2,796.3l-1.2,0l0-1.3l0,0.6l0-0.6l1.2,0L316.2,796.3z
				 M451.4,796.3l0-1.3l1.3,0l0,1.3L451.4,796.3z M453.9,796.3l0-1.3l1.3,0l0,1.3L453.9,796.3z M313.7,796.3l-1.2,0l0-1.3l0,0.6
				l0-0.6l1.2,0L313.7,796.3z M456.4,796.2l0-1.3l1.3,0l0,1.3L456.4,796.2z M311.2,796.2l-1.3,0l0-1.3l1.3,0L311.2,796.2z
				 M459,796.2l0-0.6l0-0.6l1.2,0l0,1.3L459,796.2z M308.6,796.1l-1.3,0l0-1.3l1.3,0L308.6,796.1z M461.5,796.1l0-0.6l0-0.6l1.2,0
				l0,1.3L461.5,796.1z M306.1,796.1l-1.2,0l0-0.6l0.1-0.6l1.2,0L306.1,796.1z M464,796.1l0-1.3l1.3,0l0,1.3L464,796.1z M466.5,796
				l0-1.3l1.3,0l0,1.3L466.5,796z M303.6,796l-1.2,0l0-0.6l0.1-0.6l1.2,0L303.6,796z M469.1,795.9l0-1.3l1.3,0l0,1.3L469.1,795.9z
				 M301.1,795.9l-1.3,0l0-1.3l1.3,0L301.1,795.9z M471.6,795.9l0-1.3l1.3,0l0,1.3L471.6,795.9z M298.5,795.8l-1.3,0l0-1.3l1.3,0
				L298.5,795.8z M474.2,795.8l-0.1-0.6l0-0.6l1.2,0l0,1.3L474.2,795.8z M476.7,795.7l-0.1-0.6l0-0.6l1.2,0l0,1.3L476.7,795.7z
				 M296,795.7l-1.2,0l0-0.6l0.1-0.6l1.2,0L296,795.7z M479.2,795.7l-0.1-0.6l0-0.6l1.2,0l0,1.3L479.2,795.7z M293.5,795.7l-1.2,0
				l0-0.6l0.1-0.6l1.2,0L293.5,795.7z M481.7,795.6l0-1.3l1.3,0l0,1.3L481.7,795.6z M291,795.6l-1.3,0l0-1.3l1.3,0L291,795.6z
				 M484.2,795.6l0-1.3l1.3,0l0,1.3L484.2,795.6z M288.4,795.5l-1.3,0l0-1.3l1.3,0L288.4,795.5z M486.7,795.5l0-1.3l1.3,0l0,1.3
				L486.7,795.5z M489.3,795.4l0-1.3l1.3,0l0,1.3L489.3,795.4z M285.9,795.4l-1.3,0l0-1.3l1.3,0L285.9,795.4z M304.9,795.4l0-0.6
				L304.9,795.4z M491.8,795.3l0-1.3l1.3,0l0,1.3L491.8,795.3z M302.3,795.3l0-0.6L302.3,795.3z M283.4,795.3l-1.2,0l0-0.6l0.1-0.6
				l1.2,0L283.4,795.3z M494.3,795.3l0-1.3l1.3,0l0,1.3L494.3,795.3z M280.9,795.2l-1.3,0l0-1.3l1.3,0L280.9,795.2z M496.8,795.2
				l0-1.3l1.3,0l0,1.3L496.8,795.2z M499.4,795.1l0-1.3l1.3,0l0,1.3L499.4,795.1z M278.3,795.1l-1.3,0l0-1.3l1.3,0L278.3,795.1z
				 M294.8,795.1l0-0.6L294.8,795.1z M501.9,795.1l0-1.3l1.3,0l0,1.3L501.9,795.1z M275.8,795l-1.3,0l0-1.3l1.3,0L275.8,795z
				 M292.2,795l0-0.6L292.2,795z M504.4,795l0-1.3l1.3,0l0,1.3L504.4,795z M273.3,794.9l-1.2,0l-0.1-0.6l0.1-0.6l1.2,0L273.3,794.9z
				 M506.9,794.9l0-1.3l1.3,0l0,1.3L506.9,794.9z M270.8,794.8l-1.2,0l0-0.6l0.1-0.6l1.2,0L270.8,794.8z M509.5,794.8l0-1.3l1.3,0
				l0,1.3L509.5,794.8z M512,794.7l0-1.3l1.3,0l0,1.3L512,794.7z M268.2,794.7l-1.3-0.1l0.1-1.3l1.3,0.1L268.2,794.7z M514.5,794.7
				l0-1.3l1.3,0l0,1.3L514.5,794.7z M282.1,794.6l0-0.6L282.1,794.6z M265.7,794.6l-1.3-0.1l0.1-1.3l1.3,0.1L265.7,794.6z
				 M517.1,794.6l0-1.3l1.3,0l0,1.3L517.1,794.6z M263.2,794.5l-1.3-0.1l0.1-1.3l1.3,0.1L263.2,794.5z M519.7,794.5l-0.1-0.6
				l0.1-0.1L519.7,794.5z M260.7,794.4l-1.3-0.1l0.1-1.3l1.3,0.1L260.7,794.4z M258.1,794.3l-1.3-0.1l0.1-1.3l1.3,0.1L258.1,794.3z
				 M272,794.3l0-0.6L272,794.3z M255.6,794.2l-1.3-0.1l0.1-1.3l1.3,0.1L255.6,794.2z M269.5,794.2l0-0.6L269.5,794.2z M253.1,794.1
				l-1.3-0.1l0.1-1.3l1.3,0.1L253.1,794.1z M250.6,794l-1.3-0.1l0.1-1.3l1.3,0.1L250.6,794z M519.6,793.9l-0.1-0.7l0.6,0.2
				L519.6,793.9z M248,793.9l-1.3-0.1l0.1-1.3l1.3,0.1L248,793.9z M245.5,793.8l-1.3-0.1l0.1-1.3l1.3,0.1L245.5,793.8z M243,793.6
				l-1.3-0.1l0.1-1.3l1.3,0.1L243,793.6z M240.5,793.5l-1.3-0.1l0.1-1.3l1.3,0.1L240.5,793.5z M237.9,793.4l-1.3-0.1l0.1-1.3
				l1.3,0.1L237.9,793.4z M235.4,793.3l-1.3-0.1l0.1-1.3l1.3,0.1L235.4,793.3z M232.9,793.2l-1.3-0.1l0.1-1.3l1.3,0.1L232.9,793.2z
				 M230.4,793l-1.3-0.1l0.1-1.3l1.3,0.1L230.4,793z M227.8,792.9l-1.3-0.1l0.1-1.3l1.3,0.1L227.8,792.9z"/>
		</g>
	</g>
</g>
<g id="SHADING">
	<path d="M164.3,455.2C164.3,455.2,164.3,455.2,164.3,455.2C164.3,455.2,164.3,455.2,164.3,455.2z"/>
	<polygon points="164.4,457.1 164.4,457.1 164.4,457.1 	"/>
	<path d="M163.9,446.7c0,0,0,0.1,0,0.1C163.9,446.8,163.9,446.8,163.9,446.7z"/>
	<path d="M163.7,444.6c0,0.1,0,0.1,0,0.2C163.7,444.8,163.7,444.7,163.7,444.6z"/>
	<path d="M163.5,442.7c0,0.1,0,0.1,0,0.2C163.5,442.8,163.5,442.7,163.5,442.7z"/>
	<path d="M164.2,451c0,0.1,0,0.1,0,0.2C164.2,451.1,164.2,451.1,164.2,451z"/>
	<path d="M164.1,449C164.1,449,164.1,449,164.1,449C164.1,449,164.1,449,164.1,449z"/>
	<path d="M164.3,453.1c0,0.1,0,0.1,0,0.2C164.3,453.2,164.3,453.1,164.3,453.1z"/>
	<path d="M164.1,449c0-0.7-0.1-1.4-0.2-2.1C164,447.6,164.1,448.3,164.1,449z"/>
	<path d="M164.4,457.1c0-0.6,0-1.2,0-1.9C164.4,455.8,164.4,456.5,164.4,457.1z"/>
	<path d="M163.5,442.7c-0.1-0.6-0.2-1.2-0.3-1.8C163.3,441.5,163.4,442.1,163.5,442.7z"/>
	<path d="M164.3,455.2c0-0.6,0-1.3,0-1.9C164.3,453.9,164.3,454.5,164.3,455.2z"/>
	<path d="M164.2,451c0-0.7-0.1-1.4-0.1-2C164.2,449.7,164.2,450.3,164.2,451z"/>
	<path d="M164.3,453.1c0-0.6,0-1.3-0.1-1.9C164.3,451.8,164.3,452.5,164.3,453.1z"/>
	<path d="M163.7,444.6c-0.1-0.6-0.2-1.2-0.2-1.8C163.6,443.4,163.7,444,163.7,444.6z"/>
	<path d="M163.9,446.7c-0.1-0.6-0.1-1.3-0.2-1.9C163.8,445.5,163.9,446.1,163.9,446.7z"/>
	<polygon points="126,248 126,248 126,248 	"/>
	<g opacity="2.000000e-02">
		<path d="M283.8,172.4c-2.9,3.3-4.4,6.8-6.9,8.3c-3.8,2.3-3.8,4.6-7.5,7.6c-3.8,3-27.1,23.6-55.8,35.1
			c-28.7,11.5-49.1,18.4-49.1,18.4s-0.5,0.4-1.4,1c0.1,4.8,0.5,13.8,1.7,20.1c1.7,8.9,10.7,41.4,12.7,51.1
			c2.1,9.7,11.6,60.8,12.8,66.8c0.8,3.8,0.9,9.3,0.9,12.8c1,5.2,4.3,24.2,3.7,32.7c-0.7,9.8,4.9,71.1,8.8,90
			c3.9,18.9,10.3,74.6,6.7,95.1c-3.7,20.5-11.1,67.6-16.3,91.1c-5.1,23-2.1,40.9-2.1,40.9s-3,3-3,6.1s1.6,9.8,1.6,9.8l0,5.3
			c0,0,0.4,2.8,4.6,5.9l4.4-1.7c14-12.2,11.7-2.8,17.1-23.5c5.4-20.7,6.8-43.4,6.8-43.4s1.5-21.9,5.7-36.3
			c4.2-14.5,0.3-10.5,8.5-20.7c1.4-1.7,2.3-2.3,3-2.3c0.9,0,1.4,1.1,1.7,2.2c0.4,1.1,0.6,2.2,1.1,2.2c0.8,0,2.4-3.5,6.6-16.5
			c10.8-33.2,15.8-48.1,9.1-63.3c-6.7-15.2-26-42.8-26.5-63.9c-0.5-21.1,6.4-40.6,3.7-50c-2.8-9.4-7.1-21.8-7.1-21.8
			s-16.1-12.8-15.3-20.2c0.7-7.4,4.7-74.2-2-82.7c-6.7-8.6-29.3-6.1-30.9-22.1c-1.6-16-18.9-30,3.7-36.3c11.4-3.2,17.1-4.2,21.8-4.2
			c4.6,0,8.3,0.9,15.7,1.7c14.8,1.5,10.2,0.3,31.2,1.4c3.3,0.2,6.6,0.2,9.8,0.2c16.8,0,30.4-2,30.4-2s-1.5,0.2-3.6,0.2
			c-5.9,0-16.5-1.5-14-13c3.4-15.6,8.5-9.8,13.2-20.8c4.6-11,7.3-18.4,7.3-25.8c0-7.4-0.4-7-0.1-12.1c0.1-1.3,0.7-3,1.6-4.9
			c-10.9-4.4-17.5-9.6-17.3-11c0.2-1.8,2.4-4.5,4.9-6.9L283.8,172.4"/>
		<path d="M675.5,319c0,0-63.3,85.2-66.1,89.6c-2.7,4.4-14.2,21.8-16.9,28.4c-2.7,6.6-6.6,22.4-6.6,22.4s19.1-27.3,29.5-43.1
			c10.4-15.8,32.8-38.2,43.7-48.6c10.9-10.4,24.6-25.1,24.6-27.3c0-0.2-0.1-0.2-0.3-0.2c-2.2,0-17.9,12.4-19.9,15
			c-2.2,2.7-42,46.4-42,46.4s44.2-55.7,48.6-65C674.4,327.2,675.5,319,675.5,319"/>
		<path d="M671.1,305.9c0,0-14.7,21.3-18.6,26.8c-3.8,5.5-24,22.4-24,22.4s12.6-3.8,24.6-15.3C665.1,328.3,671.1,305.9,671.1,305.9"
			/>
		<path d="M61.7,335.4c0,0-8.7,18.6,8.7,43.7c17.5,25.1,62.8,43.1,69.9,48.6c7.1,5.5,18.6,7.6,18.6,7.6s-25.1-27.8-38.8-35.5
			c-13.7-7.6-39.3-28.4-45.3-39.3C68.8,349.6,61.7,335.4,61.7,335.4"/>
		<path d="M70.5,418.4c0,0,7.1,15.8,32.8,26.2c12.5,5.1,23.8,6.4,32.2,6.4c8.8,0,14.2-1.4,14.2-1.4s-28.9-5.5-44.2-9.8
			C90.1,435.4,70.5,418.4,70.5,418.4"/>
		<path d="M89.8,345.7c-4.3,0-7.3,1.8-7.3,1.8s9.3,7.6,15.3,18c6,10.4,14.7,9.8,27.3,15.8c12.1,5.8,15.6,20.3,15.8,21.2
			c-0.3-1.1-5.1-22.5-14.2-27.8c-9.3-5.5-12.6-9.8-22.9-21.8C98.8,347.2,93.7,345.7,89.8,345.7"/>
	</g>
</g>
</svg>
