<?xml version="1.0" encoding="utf-8"?>
<!-- Generator: Adobe Illustrator 26.0.2, SVG Export Plug-In . SVG Version: 6.00 Build 0)  -->
<svg version="1.1" xmlns="http://www.w3.org/2000/svg" xmlns:xlink="http://www.w3.org/1999/xlink" x="0px" y="0px"
	 viewBox="0 0 610 992.1" enable-background="new 0 0 743 992.1" xml:space="preserve">

<g id="OUTLINE">
	<path fill="#FFFFFF" stroke="#A39E9B" d="M528.9,365.6c7.8-28,23.3-130.7,10.9-182.1c-12.4-51.4-52.9-108.9-52.9-116.7
		c0-1.7-1.2-4.3-3.2-7.4c-1.3-0.1-2.6-0.2-3.9-0.3c1.4,0.1,2.7,0.2,3.9,0.3c-7-11.2-23.3-28.4-23.3-28.4s-63.8,1.6-79.4,14
		c-5.4,4.3-19.6,20.8-36.2,40.7c0,0,0,0,0,0c-31.3,37.6-72.7,86-77.4,91.6c-6.6,7.9-60.7,101.2-63.8,135.4
		c-3.1,34.2-4.7,76.3,0,94.9c4.7,18.7-1.6,115.2,3.1,150.9c4.7,35.8,7.6,156,15.4,194.9c0,0,55.5-14,113.7-4
		c20.1,3.5,40.4,9.8,59,20.5c20.6,11.9,38.1,25.1,53.1,38.7c77.7,70.8,86.4,155.6,89.1,155.6c3.2,0-44.1-452.5-44.1-474.2
		C493.2,468.4,521.2,393.7,528.9,365.6z"/>
</g>
	
<g id="SHIRT_BODY">
	<path fill="#FFFFFF" stroke="#A39E9B" stroke-width="0.3024" d="M203.7,312.8c3.1-34.2,57.2-127.5,63.8-135.4
		c4.7-5.6,46.1-54,77.4-91.6c17.7-9.4,45.7-23,65.2-26.1c20.3-3.2,53.5-1.6,73.6-0.2c2,3.1,3.2,5.7,3.2,7.4
		c0,7.8,40.5,65.4,52.9,116.7c12.4,51.4-3.1,154.1-10.9,182.1c-7.8,28-35.8,102.7-35.8,124.5c0,21.8,47.3,474.2,44.1,474.2
		c-2.7,0-11.4-84.8-89.1-155.6V365.9H335.9v383.7c-58.2-10-113.7,4-113.7,4c-7.8-38.9-10.8-159.2-15.4-194.9
		c-4.7-35.8,1.6-132.3-3.1-150.9C199,389,200.5,347,203.7,312.8z"/>
</g>
		
	
<g id="SHIRT_BACK">
	<g id="SHIRT_BACK_BOTTOM">
		<g>
			<g>
				<path fill="#A39E9B" d="M417.8,472.1l77.9,0.3c0.5-1.9,1-4.2,1.6-6.2l-80.3,0.1C417.2,468.3,417.5,470.2,417.8,472.1z"/>
			</g>
		</g>
	</g>
	<g id="SHIRT_BACK_MIDDLE">
		<g>
			<path fill="#64615E" d="M417,466.3l80.3-0.1c6.1-21.8,14.7-48.7,21.7-70.3H408.8C410.1,417.4,408.3,434,417,466.3z"/>
		</g>
	</g>
	<g id="SHIRT_BACK_TOP">
		<g>
			<path fill="#A39E9B" d="M409.3,398.3h109c0.5-1.6,1-3.1,1.5-4.6H408.2C408.6,395.2,408.9,396.7,409.3,398.3z"/>
		</g>
	</g>
</g>
	
<g id="SHIRT_FAUX_UPPER_BACK_PANEL">
	<path fill="#A39E9B" stroke="#A39E9B" stroke-width="0.3472" d="M398.5,96.7c0-12.8,10.3-26,13.4-37.7c20.1-1.1,55.1-0.7,71.5,0.5
		c2,3.2,3.3,6,3.3,7.8c0,8.1,40.4,66.4,53.4,120c2.4,9.9,3.5,24.8,4.2,37.6c-4.4,0.6-6.7-0.5-11.2-0.5
		C469.2,224.3,398.5,168.1,398.5,96.7z"/>
</g>
		
<g id="LEFT_BODY">	
<g id="SHIRT_SIDE_PANELS">
	<path stroke="#A39E9B" stroke-width="0.3024" d="M448,365.9v442.9c-15-13.7-32.5-26.8-53.1-38.7c-18.6-10.7-38.9-17.1-59-20.5
		V365.9H448z"/>
</g>
	</g>
	<g id="CUSTOM"></g>
<g id="SHIRT_SLEEVES">
	<g>
		
			<image overflow="visible" opacity="0.2" width="218" height="315" xlink:href="SVG/SBDUC65/DB702ECE.png"  transform="matrix(1 0 0 1 294.4386 79.7368)">
		</image>
		<g>
			<path fill="#FFFFFF" d="M309.7,195.5c1.3-37.5,11.2-87.1,62.4-96.7c51.3-9.6,82.2,6.1,82.2,6.1s16.5,6.6,24.9,28
				c8.4,21.4,17.3,55.6,17.8,71.2c1.1,36.4-7.9,83.5-7.6,94.5c0.3,11,3.3,64.6,3.3,64.6s-10.1,13.4-86.3,15.9
				c-77.1,2.4-85.7-14.7-85.7-14.7s1.7-71.4-0.3-81.1C318.4,273.8,308.4,233,309.7,195.5z"/>
			<path fill="none" stroke="#A39E9B" stroke-width="0.3024" d="M309.7,195.5c1.3-37.5,11.2-87.1,62.4-96.7
				c51.3-9.6,82.2,6.1,82.2,6.1s16.5,6.6,24.9,28c8.4,21.4,17.3,55.6,17.8,71.2c1.1,36.4-7.9,83.5-7.6,94.5
				c0.3,11,3.3,64.6,3.3,64.6s-10.1,13.4-86.3,15.9c-77.1,2.4-85.7-14.7-85.7-14.7s1.7-71.4-0.3-81.1
				C318.4,273.8,308.4,233,309.7,195.5z"/>
		</g>
	</g>
</g>
<g id="SHIRT_COLLAR">
	<path fill="#FFFFFF" stroke="#A39E9B" stroke-width="0.25" d="M410.1,59.7c-19.5,3.1-47.5,16.7-65.2,26.1
		c16.6-19.9,30.8-36.4,36.2-40.7c15.6-12.4,79.4-14,79.4-14s16.2,17.2,23.3,28.4C463.6,58,430.4,56.4,410.1,59.7z"/>
</g>
<g id="SHIRT_STITCHING">
	<g>
		<path d="M395.3,343.9l0,1.2l1.1,0v-1.2L395.3,343.9 M398.5,343.9l-1.1,0l0,1.2l1.1,0L398.5,343.9 M393.2,343.9l0,1.2l1.1,0l0-1.2
			L393.2,343.9 M400.6,343.8l-1.1,0l0,1.2l1.1,0L400.6,343.8 M391,343.8l0,1.2l1.1,0l0-1.2L391,343.8 M388.9,343.8l0,1.2l1.1,0
			l0-1.2L388.9,343.8 M402.7,343.8l-1.1,0l0,1.2l1.1,0L402.7,343.8 M386.8,343.7l0,1.2l1.1,0l0-1.2L386.8,343.7 M404.8,343.7l-1.1,0
			l0,1.2l1.1,0L404.8,343.7 M384.7,343.7l0,1.2l1.1,0l0-1.2L384.7,343.7 M407,343.6l-1.1,0l0,1.2l1.1,0L407,343.6 M382.5,343.6
			l0,1.2l1.1,0l0-1.2L382.5,343.6 M409.1,343.5l-1.1,0.1l0.1,1.2l1.1-0.1L409.1,343.5 M380.4,343.5l0,1.2l1,0l0-1.2L380.4,343.5
			 M378.3,343.4l-0.1,1.2l1.1,0l0.1-1.2L378.3,343.4 M411.2,343.4l-1.1,0.1l0.1,1.2l1.1-0.1L411.2,343.4 M376.1,343.3l-0.1,1.2
			l1.1,0.1l0.1-1.2L376.1,343.3 M413.3,343.3l-1.1,0.1l0.1,1.2l1.1-0.1L413.3,343.3 M374,343.2l-0.1,1.2l1.1,0.1l0.1-1.2L374,343.2
			 M415.4,343.1l-1.1,0.1l0.1,1.2l1.1-0.1L415.4,343.1 M371.9,343.1l-0.1,1.2l1.1,0.1l0.1-1.2L371.9,343.1 M417.6,343l-1.1,0.1
			l0.1,1.2l1.1-0.1L417.6,343 M369.8,343l-0.1,1.2l1.1,0.1l0.1-1.2L369.8,343 M367.7,342.8l-0.1,1.2l1.1,0.1l0.1-1.2L367.7,342.8
			 M419.7,342.8l-1.1,0.1l0.1,1.2l1.1-0.1L419.7,342.8 M365.5,342.7l-0.1,1.2l1.1,0.1l0.1-1.2L365.5,342.7 M421.8,342.7l-1.1,0.1
			l0.1,1.2l1.1-0.1L421.8,342.7 M363.4,342.6l-0.1,1.2l1.1,0.1l0.1-1.2L363.4,342.6 M423.9,342.5l-1.1,0.1l0.1,1.2l1.1-0.1
			L423.9,342.5 M361.3,342.4l-0.1,1.2l1.1,0.1l0.1-1.2L361.3,342.4 M426,342.3l-1.1,0.1l0.1,1.2l1.1-0.1L426,342.3 M359.2,342.2
			l-0.1,1.2l1.1,0.1l0.1-1.2L359.2,342.2 M357,342.1l-0.1,1.2l1.1,0.1l0.1-1.2L357,342.1 M428.2,342.1l-1.1,0.1l0.1,1.2l1.1-0.1
			L428.2,342.1 M354.9,341.9l-0.1,1.2l1.1,0.1l0.1-1.2L354.9,341.9 M430.3,341.9l-1.1,0.1l0.1,1.2l1.1-0.1L430.3,341.9 M352.8,341.7
			l-0.1,1.2l1.1,0.1l0.1-1.2L352.8,341.7 M432.4,341.6l-1.1,0.1l0.1,1.2l1.1-0.1L432.4,341.6 M350.7,341.6l-0.1,1.2l1.1,0.1l0.1-1.2
			L350.7,341.6 M434.5,341.4l-1.1,0.1l0.1,1.2l1.1-0.1L434.5,341.4 M348.6,341.4l-0.1,1.2l1.1,0.1l0.1-1.2L348.6,341.4 M436.6,341.2
			l-1.1,0.1l0.1,1.2l1.1-0.1L436.6,341.2 M346.4,341.2l-0.1,1.2l1.1,0.1l0.1-1.2L346.4,341.2 M344.3,341l-0.1,1.2l1.1,0.1l0.1-1.2
			L344.3,341 M438.7,341l-1.1,0.1l0.1,1.2l1.1-0.1L438.7,341 M342.2,340.8l-0.1,1.2l1.1,0.1l0.1-1.2L342.2,340.8 M440.9,340.7
			l-1.1,0.1l0.1,1.2l1.1-0.1L440.9,340.7 M340.1,340.6l-0.1,1.2l1.1,0.1l0.1-1.2L340.1,340.6 M443,340.5l-1.1,0.1l0.1,1.2l1.1-0.1
			L443,340.5 M338,340.4l-0.1,1.2l1.1,0.1l0.1-1.2L338,340.4 M445.1,340.2l-1.1,0.1l0.1,1.2l1.1-0.1L445.1,340.2 M335.8,340.1
			l-0.1,1.2l1.1,0.1l0.1-1.2L335.8,340.1 M447.2,340l-1.1,0.1l0.1,1.2l1.1-0.1L447.2,340 M333.7,339.9l-0.1,1.2l1.1,0.1l0.1-1.2
			L333.7,339.9 M449.3,339.7l-1.1,0.1l0.2,1.2l1.1-0.1L449.3,339.7 M331.6,339.7l-0.1,1.2l1.1,0.1l0.1-1.2L331.6,339.7 M329.5,339.5
			l-0.1,1.2l1.1,0.1l0.1-1.2L329.5,339.5 M451.4,339.4l-1.1,0.1l0.2,1.2l1.1-0.1L451.4,339.4 M327.4,339.2l-0.1,1.2l1.1,0.1l0.1-1.2
			L327.4,339.2 M453.5,339.2l-1.1,0.1l0.2,1.2l1.1-0.1L453.5,339.2 M325.3,339l-0.1,1.2l1.1,0.1l0.1-1.2L325.3,339 M455.7,338.9
			l-1.1,0.1l0.2,1.2l1.1-0.1L455.7,338.9 M323.1,338.7L323,340l1.1,0.1l0.1-1.2L323.1,338.7 M457.8,338.6l-1.1,0.1l0.2,1.2l1.1-0.1
			L457.8,338.6 M321,338.5l-0.2,1.2l1.1,0.1l0.2-1.2L321,338.5 M459.9,338.3l-1.1,0.1l0.2,1.2l1.1-0.1L459.9,338.3 M462,338
			l-1.1,0.1l0.2,1.2l1.1-0.1L462,338 M464.1,337.7l-1.1,0.1l0.2,1.2l1.1-0.1L464.1,337.7 M466.2,337.4l-1.1,0.1l0.2,1.2l1.1-0.1
			L466.2,337.4 M468.3,337.1l-1.1,0.2l0.2,1.2l1.1-0.2L468.3,337.1 M470.4,336.8l-1.1,0.2l0.2,1.2l1.1-0.2L470.4,336.8 M472.5,336.5
			l-1.1,0.2l0.2,1.2l1.1-0.2L472.5,336.5 M474.6,336.2l-1.1,0.2l0.2,1.2l1.1-0.2L474.6,336.2 M476.7,335.9l-1.1,0.2l0.2,1.2l1.1-0.2
			L476.7,335.9 M478.8,335.6l-1.1,0.2l0.2,1.2l1.1-0.2L478.8,335.6 M480.9,335.3l-1.1,0.2l0.2,1.2l1.1-0.2L480.9,335.3 M483.1,334.9
			l-1.1,0.2l0.2,1.2l1.1-0.2L483.1,334.9 M485.2,334.6l-1.1,0.2l0.2,1.2l1.1-0.2L485.2,334.6 M487.3,334.3l-1,0.2l0.2,1.2l1.1-0.2
			L487.3,334.3 M489.4,333.9l-1.1,0.2l0.2,1.2l1.1-0.2L489.4,333.9 M490.8,333.7c0,0-0.1,0-0.4,0.1l0.2,1.2l0.2,0V333.7"/>
		<path d="M395.9,348.8l0,1.2l1.1,0v-1.2L395.9,348.8 M399.1,348.8l-1.1,0l0,1.2l1.1,0L399.1,348.8 M393.8,348.8l0,1.2l1.1,0l0-1.2
			L393.8,348.8 M401.2,348.8l-1.1,0l0,1.2l1.1,0L401.2,348.8 M391.7,348.7l0,1.2l1.1,0l0-1.2L391.7,348.7 M389.5,348.7l0,1.2l1.1,0
			l0-1.2L389.5,348.7 M403.4,348.7l-1.1,0l0,1.2l1.1,0L403.4,348.7 M387.4,348.7l0,1.2l1.1,0l0-1.2L387.4,348.7 M405.5,348.6l-1.1,0
			l0,1.2l1.1,0L405.5,348.6 M385.3,348.6l0,1.2l1.1,0l0-1.2L385.3,348.6 M407.6,348.6l-1.1,0l0,1.2l1.1,0L407.6,348.6 M383.2,348.5
			l0,1.2l1.1,0l0-1.2L383.2,348.5 M409.7,348.5l-1.1,0.1l0.1,1.2l1.1-0.1L409.7,348.5 M381,348.4l0,1.2l1,0l0-1.2L381,348.4
			 M378.9,348.3l-0.1,1.2l1.1,0l0.1-1.2L378.9,348.3 M411.9,348.3l-1.1,0.1l0.1,1.2l1.1-0.1L411.9,348.3 M376.8,348.2l-0.1,1.2
			l1.1,0.1l0.1-1.2L376.8,348.2 M414,348.2l-1.1,0.1l0.1,1.2l1.1-0.1L414,348.2 M374.7,348.1l-0.1,1.2l1.1,0.1l0.1-1.2L374.7,348.1
			 M416.1,348.1l-1.1,0.1l0.1,1.2l1.1-0.1L416.1,348.1 M372.5,348l-0.1,1.2l1.1,0.1l0.1-1.2L372.5,348 M418.2,347.9l-1.1,0.1
			l0.1,1.2l1.1-0.1L418.2,347.9 M370.4,347.9l-0.1,1.2l1.1,0.1l0.1-1.2L370.4,347.9 M368.3,347.8l-0.1,1.2l1.1,0.1l0.1-1.2
			L368.3,347.8 M420.3,347.7l-1.1,0.1l0.1,1.2l1.1-0.1L420.3,347.7 M366.2,347.6l-0.1,1.2l1.1,0.1l0.1-1.2L366.2,347.6 M422.5,347.6
			l-1.1,0.1l0.1,1.2l1.1-0.1L422.5,347.6 M364,347.5l-0.1,1.2l1.1,0.1l0.1-1.2L364,347.5 M424.6,347.4l-1.1,0.1l0.1,1.2l1.1-0.1
			L424.6,347.4 M361.9,347.3l-0.1,1.2l1.1,0.1l0.1-1.2L361.9,347.3 M426.7,347.2l-1.1,0.1l0.1,1.2l1.1-0.1L426.7,347.2 M359.8,347.2
			l-0.1,1.2l1.1,0.1l0.1-1.2L359.8,347.2 M357.7,347l-0.1,1.2l1.1,0.1l0.1-1.2L357.7,347 M428.8,347l-1.1,0.1l0.1,1.2l1.1-0.1
			L428.8,347 M355.6,346.8l-0.1,1.2l1.1,0.1l0.1-1.2L355.6,346.8 M430.9,346.8l-1.1,0.1l0.1,1.2l1.1-0.1L430.9,346.8 M353.4,346.7
			l-0.1,1.2l1.1,0.1l0.1-1.2L353.4,346.7 M433,346.6l-1.1,0.1l0.1,1.2l1.1-0.1L433,346.6 M351.3,346.5l-0.1,1.2l1.1,0.1l0.1-1.2
			L351.3,346.5 M435.2,346.3l-1.1,0.1l0.1,1.2l1.1-0.1L435.2,346.3 M349.2,346.3l-0.1,1.2l1.1,0.1l0.1-1.2L349.2,346.3 M437.3,346.1
			l-1.1,0.1l0.1,1.2l1.1-0.1L437.3,346.1 M347.1,346.1l-0.1,1.2l1.1,0.1l0.1-1.2L347.1,346.1 M345,345.9l-0.1,1.2l1.1,0.1l0.1-1.2
			L345,345.9 M439.4,345.9l-1.1,0.1l0.1,1.2l1.1-0.1L439.4,345.9 M342.8,345.7l-0.1,1.2l1.1,0.1l0.1-1.2L342.8,345.7 M441.5,345.6
			l-1.1,0.1l0.1,1.2l1.1-0.1L441.5,345.6 M340.7,345.5l-0.1,1.2l1.1,0.1l0.1-1.2L340.7,345.5 M443.6,345.4l-1.1,0.1l0.1,1.2l1.1-0.1
			L443.6,345.4 M338.6,345.3l-0.1,1.2l1.1,0.1l0.1-1.2L338.6,345.3 M445.7,345.1l-1.1,0.1l0.1,1.2l1.1-0.1L445.7,345.1 M336.5,345.1
			l-0.1,1.2l1.1,0.1l0.1-1.2L336.5,345.1 M447.8,344.9l-1.1,0.1l0.2,1.2l1.1-0.1L447.8,344.9 M334.4,344.8l-0.1,1.2l1.1,0.1l0.1-1.2
			L334.4,344.8 M450,344.6l-1.1,0.1l0.2,1.2l1.1-0.1L450,344.6 M332.2,344.6l-0.1,1.2l1.1,0.1l0.1-1.2L332.2,344.6 M330.1,344.4
			l-0.1,1.2l1.1,0.1l0.1-1.2L330.1,344.4 M452.1,344.3l-1.1,0.1l0.2,1.2l1.1-0.1L452.1,344.3 M328,344.1l-0.1,1.2l1.1,0.1l0.1-1.2
			L328,344.1 M454.2,344.1l-1.1,0.1l0.2,1.2l1.1-0.1L454.2,344.1 M325.9,343.9l-0.1,1.2l1.1,0.1l0.1-1.2L325.9,343.9 M456.3,343.8
			l-1.1,0.1l0.2,1.2l1.1-0.1L456.3,343.8 M323.8,343.6l-0.1,1.2l1.1,0.1l0.1-1.2L323.8,343.6 M458.4,343.5l-1.1,0.1l0.2,1.2l1.1-0.1
			L458.4,343.5 M321.7,343.4l-0.2,1.2l1.1,0.1l0.2-1.2L321.7,343.4 M460.5,343.2l-1.1,0.1l0.2,1.2l1.1-0.1L460.5,343.2 M462.6,342.9
			l-1.1,0.1l0.2,1.2l1.1-0.1L462.6,342.9 M464.7,342.7l-1.1,0.1l0.2,1.2l1.1-0.1L464.7,342.7 M466.8,342.4l-1.1,0.1l0.2,1.2l1.1-0.1
			L466.8,342.4 M469,342.1l-1.1,0.2l0.2,1.2l1.1-0.2L469,342.1 M471.1,341.8l-1.1,0.2l0.2,1.2l1.1-0.2L471.1,341.8 M473.2,341.4
			l-1.1,0.2l0.2,1.2l1.1-0.2L473.2,341.4 M475.3,341.1l-1.1,0.2l0.2,1.2l1.1-0.2L475.3,341.1 M477.4,340.8l-1.1,0.2l0.2,1.2l1.1-0.2
			L477.4,340.8 M479.5,340.5l-1.1,0.2l0.2,1.2l1.1-0.2L479.5,340.5 M481.6,340.2l-1.1,0.2l0.2,1.2l1.1-0.2L481.6,340.2 M483.7,339.8
			l-1.1,0.2l0.2,1.2l1.1-0.2L483.7,339.8 M485.8,339.5l-1.1,0.2l0.2,1.2l1.1-0.2L485.8,339.5 M487.9,339.2l-1,0.2l0.2,1.2l1.1-0.2
			L487.9,339.2 M490,338.8L489,339l0.2,1.2l1.1-0.2L490,338.8 M491.2,338.6l-0.2,0l0.1,0.8l0.1,0.4l0.3,0l-0.1-0.6l-0.2,0.3l0.6-0.7
			L491.2,338.6"/>
		<path d="M534.7,928.1l-0.1-0.5l0.9-0.3l0.2,0.5L534.7,928.1z M534.2,926.5l-0.3-1l0.9-0.3l0.3,1L534.2,926.5z M533.6,924.5l-0.3-1
			l0.9-0.3l0.3,1L533.6,924.5z M532.9,922.5l-0.3-1l0.9-0.3l0.3,1L532.9,922.5z M532.3,920.5l-0.3-1l0.9-0.3l0.3,1L532.3,920.5z
			 M531.6,918.5l-0.4-1l0.9-0.3l0.4,1L531.6,918.5z M530.9,916.4l-0.4-1l0.9-0.3l0.4,1L530.9,916.4z M530.1,914.5l-0.4-1l0.9-0.3
			l0.4,1L530.1,914.5z M529.4,912.5l-0.4-1l0.9-0.3l0.4,1L529.4,912.5z M528.6,910.5l-0.4-1l0.9-0.3l0.4,1L528.6,910.5z
			 M527.9,908.5l-0.4-1l0.9-0.3l0.4,1L527.9,908.5z M527.1,906.5l-0.4-1l0.9-0.3l0.4,1L527.1,906.5z M526.3,904.5l-0.4-1l0.9-0.4
			l0.4,1L526.3,904.5z M525.5,902.6l-0.4-1l0.9-0.4l0.4,1L525.5,902.6z M524.6,900.6l-0.4-1l0.9-0.4l0.4,1L524.6,900.6z
			 M523.8,898.7l-0.4-1l0.8-0.4l0.4,1L523.8,898.7z M522.9,896.7l-0.4-1l0.8-0.4l0.4,1L522.9,896.7z M522.1,894.8l-0.4-1l0.8-0.4
			l0.4,1L522.1,894.8z M521.2,892.9l-0.4-1l0.8-0.4l0.4,1L521.2,892.9z M520.3,890.9l-0.5-1l0.8-0.4l0.5,1L520.3,890.9z M519.4,889
			l-0.5-1l0.8-0.4l0.5,1L519.4,889z M518.5,887.1l-0.5-1l0.8-0.4l0.5,1L518.5,887.1z M517.5,885.2l-0.5-1l0.8-0.4l0.5,1L517.5,885.2
			z M516.6,883.3l-0.5-0.9l0.8-0.4l0.5,1L516.6,883.3z M515.6,881.4l-0.5-0.9l0.8-0.4l0.5,0.9L515.6,881.4z M514.6,879.5l-0.5-0.9
			l0.8-0.4l0.5,0.9L514.6,879.5z M513.7,877.6l-0.5-0.9l0.8-0.4l0.5,0.9L513.7,877.6z M512.7,875.7l-0.5-0.9l0.8-0.4l0.5,0.9
			L512.7,875.7z M511.7,873.8l-0.5-0.9l0.8-0.4l0.5,0.9L511.7,873.8z M510.6,872l-0.5-0.9l0.8-0.5l0.5,0.9L510.6,872z M509.6,870.1
			l-0.5-0.9l0.8-0.5l0.5,0.9L509.6,870.1z M508.5,868.3l-0.5-0.9l0.8-0.5l0.5,0.9L508.5,868.3z M507.5,866.4l-0.5-0.9l0.8-0.5
			l0.5,0.9L507.5,866.4z M506.4,864.6l-0.5-0.9l0.8-0.5l0.5,0.9L506.4,864.6z M505.3,862.8l-0.6-0.9l0.8-0.5l0.6,0.9L505.3,862.8z
			 M504.2,861l-0.6-0.9l0.8-0.5l0.6,0.9L504.2,861z M503.1,859.2l-0.6-0.9l0.8-0.5l0.6,0.9L503.1,859.2z M502,857.4l-0.6-0.9
			l0.8-0.5l0.6,0.9L502,857.4z M500.8,855.6l-0.6-0.9l0.8-0.5l0.6,0.9L500.8,855.6z M499.7,853.8l-0.6-0.9l0.8-0.5l0.6,0.9
			L499.7,853.8z M498.5,852l-0.6-0.9l0.8-0.5l0.6,0.9L498.5,852z M497.3,850.2l-0.6-0.9l0.8-0.5l0.6,0.9L497.3,850.2z M496.2,848.5
			l-0.6-0.9l0.8-0.5l0.6,0.9L496.2,848.5z M494.9,846.7l-0.6-0.9l0.8-0.5l0.6,0.9L494.9,846.7z M493.7,845l-0.6-0.9l0.8-0.5l0.6,0.9
			L493.7,845z M492.5,843.2l-0.6-0.9l0.8-0.5l0.6,0.9L492.5,843.2z M491.2,841.5l-0.6-0.9l0.8-0.5l0.6,0.9L491.2,841.5z M490,839.8
			l-0.6-0.9l0.7-0.6l0.6,0.9L490,839.8z M488.7,838.1l-0.6-0.8l0.7-0.6l0.6,0.8L488.7,838.1z M487.4,836.4l-0.6-0.8l0.7-0.6l0.7,0.8
			L487.4,836.4z M486.1,834.7l-0.7-0.8l0.7-0.6l0.7,0.8L486.1,834.7z M484.8,833.1l-0.7-0.8l0.7-0.6l0.7,0.8L484.8,833.1z
			 M483.5,831.4l-0.7-0.8l0.7-0.6l0.7,0.8L483.5,831.4z M482.1,829.8l-0.7-0.8l0.7-0.6l0.7,0.8L482.1,829.8z M480.8,828.1l-0.7-0.8
			l0.7-0.6l0.7,0.8L480.8,828.1z M479.4,826.5l-0.7-0.8l0.7-0.6l0.7,0.8L479.4,826.5z M478,824.9l-0.7-0.8l0.7-0.6l0.7,0.8
			L478,824.9z M476.7,823.3l-0.7-0.8l0.7-0.6l0.7,0.8L476.7,823.3z M475.3,821.7l-0.7-0.8l0.7-0.6l0.7,0.8L475.3,821.7z
			 M473.8,820.1l-0.7-0.8l0.7-0.6l0.7,0.8L473.8,820.1z M472.4,818.5l-0.7-0.8l0.7-0.6l0.7,0.8L472.4,818.5z M471,816.9l-0.7-0.8
			l0.7-0.6l0.7,0.8L471,816.9z M469.6,815.4l-0.7-0.8l0.7-0.6l0.7,0.8L469.6,815.4z M468.1,813.8l-0.7-0.8l0.7-0.6l0.7,0.8
			L468.1,813.8z M466.6,812.2l-0.7-0.8l0.7-0.6l0.7,0.8L466.6,812.2z M465.2,810.7l-0.7-0.8l0.7-0.6l0.7,0.8L465.2,810.7z
			 M463.7,809.2l-0.7-0.8l0.7-0.7l0.7,0.8L463.7,809.2z M462.2,807.7l-0.7-0.8l0.7-0.7l0.8,0.8L462.2,807.7z M460.7,806.2l-0.8-0.7
			l0.7-0.7l0.8,0.8L460.7,806.2z M459.2,804.7l-0.8-0.7l0.7-0.7l0.8,0.7L459.2,804.7z M457.7,803.2l-0.8-0.7l0.6-0.7l0.8,0.7
			L457.7,803.2z M456.2,801.7l-0.8-0.7l0.6-0.7l0.8,0.7L456.2,801.7z M454.6,800.2l-0.8-0.7l0.6-0.7l0.8,0.7L454.6,800.2z
			 M453.1,798.8l-0.8-0.7l0.6-0.7l0.8,0.7L453.1,798.8z M451.5,797.3l-0.8-0.7l0.6-0.7l0.8,0.7L451.5,797.3z M449.9,795.9l-0.8-0.7
			l0.6-0.7l0.8,0.7L449.9,795.9z M448.4,794.5l-0.8-0.7l0.6-0.7l0.8,0.7L448.4,794.5z M446.8,793.1l-0.8-0.7l0.6-0.7l0.8,0.7
			L446.8,793.1z M445.2,791.7l-0.8-0.7l0.6-0.7l0.8,0.7L445.2,791.7z M443.6,790.3l-0.8-0.7l0.6-0.7l0.8,0.7L443.6,790.3z
			 M441.9,788.9l-0.8-0.7l0.6-0.7l0.8,0.7L441.9,788.9z M440.3,787.6l-0.8-0.7l0.6-0.7l0.8,0.7L440.3,787.6z M438.7,786.2l-0.8-0.7
			l0.6-0.7l0.8,0.7L438.7,786.2z M437,784.9l-0.8-0.7l0.6-0.7l0.8,0.7L437,784.9z M435.4,783.6l-0.8-0.7l0.6-0.7l0.8,0.7
			L435.4,783.6z M433.7,782.3l-0.8-0.6l0.6-0.7l0.8,0.7L433.7,782.3z M432,781l-0.8-0.6l0.6-0.7l0.8,0.6L432,781z M430.3,779.7
			l-0.8-0.6l0.6-0.7l0.9,0.6L430.3,779.7z M428.6,778.4l-0.9-0.6l0.5-0.8l0.9,0.6L428.6,778.4z M426.9,777.2l-0.9-0.6l0.5-0.8
			l0.9,0.6L426.9,777.2z M425.2,776l-0.9-0.6l0.5-0.8l0.9,0.6L425.2,776z M423.5,774.7l-0.9-0.6l0.5-0.8l0.9,0.6L423.5,774.7z
			 M421.7,773.5l-0.9-0.6l0.5-0.8l0.9,0.6L421.7,773.5z M420,772.3l-0.9-0.6l0.5-0.8l0.9,0.6L420,772.3z M418.2,771.2l-0.9-0.6
			l0.5-0.8l0.9,0.6L418.2,771.2z M416.4,770l-0.9-0.6l0.5-0.8l0.9,0.6L416.4,770z M414.6,768.9l-0.9-0.6l0.5-0.8l0.9,0.6
			L414.6,768.9z M412.8,767.7l-0.9-0.6l0.5-0.8l0.9,0.6L412.8,767.7z M411,766.6l-0.9-0.5l0.5-0.8l0.9,0.6L411,766.6z M409.2,765.6
			l-0.9-0.5l0.5-0.8l0.9,0.5L409.2,765.6z M407.4,764.5l-0.9-0.5l0.5-0.8l0.9,0.5L407.4,764.5z M405.6,763.4l-0.9-0.5l0.5-0.8
			l0.9,0.5L405.6,763.4z M403.7,762.4l-0.9-0.5l0.4-0.8l0.9,0.5L403.7,762.4z M401.9,761.4l-0.9-0.5l0.4-0.8l0.9,0.5L401.9,761.4z
			 M400,760.4l-0.9-0.5l0.4-0.8l0.9,0.5L400,760.4z M398.1,759.4l-0.9-0.5l0.4-0.8l0.9,0.5L398.1,759.4z M396.2,758.4l-0.9-0.5
			l0.4-0.8l1,0.5L396.2,758.4z M394.3,757.5l-1-0.5l0.4-0.8l1,0.5L394.3,757.5z M392.4,756.6l-1-0.5l0.4-0.8l1,0.5L392.4,756.6z
			 M390.5,755.7l-1-0.4l0.4-0.8l1,0.4L390.5,755.7z M388.6,754.8l-1-0.4l0.4-0.8l1,0.4L388.6,754.8z M386.6,754l-1-0.4l0.4-0.9
			l1,0.4L386.6,754z M384.7,753.1l-1-0.4l0.4-0.9l1,0.4L384.7,753.1z M382.7,752.3l-1-0.4l0.3-0.9l1,0.4L382.7,752.3z M380.8,751.5
			l-1-0.4l0.3-0.9l1,0.4L380.8,751.5z M378.8,750.8l-1-0.4l0.3-0.9l1,0.4L378.8,750.8z M376.8,750l-1-0.4l0.3-0.9l1,0.4L376.8,750z
			 M374.8,749.3l-1-0.3l0.3-0.9l1,0.4L374.8,749.3z M372.8,748.6l-1-0.3l0.3-0.9l1,0.3L372.8,748.6z M370.8,748l-1-0.3l0.3-0.9
			l1,0.3L370.8,748z M368.8,747.3l-1-0.3l0.3-0.9l1,0.3L368.8,747.3z M366.8,746.7l-1-0.3l0.3-0.9l1,0.3L366.8,746.7z M364.7,746.1
			l-1-0.3l0.2-0.9l1,0.3L364.7,746.1z M362.7,745.5l-1-0.3l0.2-0.9l1,0.3L362.7,745.5z M360.6,745l-1-0.3l0.2-0.9l1,0.3L360.6,745z
			 M221.1,744.9l-0.3-0.9c0,0,0.3-0.1,1-0.3l0.3,0.9C221.4,744.7,221.1,744.9,221.1,744.9z M358.6,744.5l-1-0.3l0.2-0.9l1,0.3
			L358.6,744.5z M223.1,744.2l-0.3-0.9l1-0.3l0.3,0.9L223.1,744.2z M356.5,744l-1-0.3l0.2-0.9l1,0.3L356.5,744z M225.1,743.6
			l-0.3-0.9l1-0.3l0.3,0.9L225.1,743.6z M354.4,743.5l-1-0.2l0.2-0.9l1,0.2L354.4,743.5z M227.1,743l-0.2-0.9l1-0.3l0.2,0.9
			L227.1,743z M352.4,743l-1-0.2l0.2-0.9l1,0.2L352.4,743z M350.3,742.5l-1-0.2l0.2-0.9l0.9,0.2L350.3,742.5z M229.2,742.5l-0.2-0.9
			l1-0.3l0.2,0.9L229.2,742.5z M348.2,742l-1-0.2l0.2-0.9l0.9,0.2L348.2,742z M231.3,741.9L231,741l1-0.3l0.2,0.9L231.3,741.9z
			 M346.1,741.6l-1-0.2l0.2-0.9l0.9,0.2L346.1,741.6z M233.3,741.4l-0.2-0.9l1-0.2l0.2,0.9L233.3,741.4z M344.1,741.2l-1-0.2
			l0.2-0.9l1,0.2L344.1,741.2z M235.4,741l-0.2-0.9l1-0.2l0.2,0.9L235.4,741z M342,740.7l-0.9-0.2l0-0.5l0.2-0.4l0.9,0.2L342,740.7z
			 M237.5,740.5l-0.2-0.4l0-0.5l1-0.2l0.2,0.9L237.5,740.5z M339.9,740.3l-1-0.2l0-0.5l0.2-0.4l1,0.2L339.9,740.3z M239.6,740.1
			l-0.2-0.9l1-0.2l0.2,0.9L239.6,740.1z M341,740.1l0.1-0.5L341,740.1z M337.8,740l-0.9-0.2l0-0.5l0.2-0.4l0.9,0.2L337.8,740z
			 M338.9,739.7l0.1-0.5L338.9,739.7z M241.6,739.7l-0.2-0.9l1.1-0.2l0.2,0.9L241.6,739.7z M335.7,739.6l-1-0.2l0.2-0.9l1.1,0.2
			L335.7,739.6z M336.8,739.3l0.1-0.5L336.8,739.3z M243.7,739.3l-0.2-0.9l1.1-0.2l0.2,0.9L243.7,739.3z M333.6,739.2l-1-0.2
			l0.1-0.9l1.1,0.2L333.6,739.2z M245.8,738.9l-0.2-0.9l1.1-0.2l0.2,0.9L245.8,738.9z M331.5,738.9l-1-0.2l0.1-0.9l1.1,0.2
			L331.5,738.9z M247.9,738.6l-0.1-0.9l1.1-0.2l0.1,0.9L247.9,738.6z M329.4,738.6l-1.1-0.2l0.1-0.9l1,0.1L329.4,738.6z
			 M327.3,738.3l-1.1-0.1l0.1-0.9l1.1,0.1L327.3,738.3z M250,738.3l-0.1-0.9l1.1-0.2l0.1,0.9L250,738.3z M325.2,738l-1-0.1l0-0.5
			l0.1-0.5l1,0.1L325.2,738z M252.1,738l-0.1-0.9l1.1-0.1l0.1,0.9L252.1,738z M323.1,737.7l-1-0.1l0-0.5l0.1-0.5l1,0.1L323.1,737.7z
			 M254.2,737.7l-0.1-0.9l1.1-0.1l0.1,0.9L254.2,737.7z M321,737.5l-1.1-0.1l0.1-0.9l1.1,0.1L321,737.5z M256.3,737.4l-0.1-0.9
			l1.1-0.1l0.1,0.9L256.3,737.4z M324.2,737.4l0.1-0.5L324.2,737.4z M318.9,737.2l-1.1-0.1l0.1-0.9l1.1,0.1L318.9,737.2z
			 M258.4,737.2l-0.1-0.9l1.1-0.1l0.1,0.9L258.4,737.2z M322.1,737.1l0.1-0.5L322.1,737.1z M316.8,737l-1.1-0.1l0.1-0.9l1.1,0.1
			L316.8,737z M260.6,736.9l-0.1-0.9l1.1-0.1l0.1,0.9L260.6,736.9z M314.6,736.8l-1-0.1l0.1-0.9l0,0.5l0.1-0.5l1,0.1L314.6,736.8z
			 M262.7,736.7l-0.1-0.9l1.1-0.1l0.1,0.9L262.7,736.7z M312.5,736.6l-1-0.1l0-0.5l0.1-0.5l1,0.1L312.5,736.6z M264.8,736.5
			l-0.1-0.9l1.1-0.1l0.1,0.9L264.8,736.5z M310.4,736.4l-1.1-0.1l0.1-0.9l1.1,0.1L310.4,736.4z M266.9,736.3l-0.1-0.9l1.1-0.1
			l0.1,0.9L266.9,736.3z M308.3,736.2l-1.1-0.1l0.1-0.9l1.1,0.1L308.3,736.2z M269,736.2l-0.1-0.9l1.1-0.1l0.1,0.9L269,736.2z
			 M306.2,736.1l-1.1-0.1l0.1-0.9l1,0.1L306.2,736.1z M271.1,736l-0.1-0.9l1.1-0.1l0.1,0.9L271.1,736z M311.5,736l0-0.5L311.5,736z
			 M304.1,736l-1-0.1l0-0.5l0.1-0.5l1,0.1L304.1,736z M273.3,735.9l-0.1-0.9l1.1-0.1l0,0.9L273.3,735.9z M301.9,735.9l-1,0l0-0.5
			l0.1-0.5l1,0L301.9,735.9z M275.4,735.8l0-0.9l1.1,0l0,0.9L275.4,735.8z M299.8,735.8l-1.1,0l0-0.9l1.1,0L299.8,735.8z
			 M277.5,735.7l0-0.9l1.1,0l0,0.9L277.5,735.7z M297.7,735.7l-1.1,0l0-0.9l1,0L297.7,735.7z M279.6,735.6l0-0.9l1.1,0l0,0.9
			L279.6,735.6z M295.6,735.6l-1,0l0-0.5l0-0.5l1.1,0L295.6,735.6z M281.8,735.6l0-0.9l1.1,0l0,0.9L281.8,735.6z M293.4,735.6
			l-1.1,0l0-0.5l0-0.5l1.1,0L293.4,735.6z M283.9,735.5l0-0.9l1.1,0l0,0.9L283.9,735.5z M291.3,735.5l-1.1,0l0-0.9l1.1,0
			L291.3,735.5z M286,735.5l0-0.9l1.1,0l0,0.9L286,735.5z M289.2,735.5l-1.1,0l0-0.9l1.1,0V735.5z M303,735.4l0-0.5L303,735.4z
			 M300.9,735.3l0-0.5L300.9,735.3z M294.5,735.1l0-0.5L294.5,735.1z M292.4,735.1l0-0.5L292.4,735.1z"/>
		<path d="M534.6,920.6c0,0-0.1-0.2-0.1-0.4l0.9-0.3c0.2,0.6,0.2,0.6,0.2,0.7L534.6,920.6L534.6,920.6z M534.2,919.1l-0.3-1l0.9-0.3
			l0.3,1L534.2,919.1z M533.6,917.1l-0.3-1l0.9-0.3l0.3,0.9L533.6,917.1z M532.9,915l-0.3-1l0.9-0.3l0.3,1L532.9,915z M532.3,913
			l-0.3-1l0.9-0.3l0.3,1L532.3,913z M531.6,911l-0.4-1l0.9-0.3l0.4,1L531.6,911z M530.9,909l-0.4-1l0.9-0.3l0.4,1L530.9,909z
			 M530.1,907l-0.4-1l0.9-0.3l0.4,1L530.1,907z M529.4,905l-0.4-1l0.9-0.3l0.4,1L529.4,905z M528.6,903l-0.4-1l0.9-0.3l0.4,1
			L528.6,903z M527.9,901.1l-0.4-1l0.9-0.3l0.4,1L527.9,901.1z M527.1,899.1l-0.4-1l0.9-0.3l0.4,1L527.1,899.1z M526.3,897.1l-0.4-1
			l0.9-0.4l0.4,1L526.3,897.1z M525.5,895.1l-0.4-1l0.9-0.4l0.4,1L525.5,895.1z M524.6,893.2l-0.4-1l0.9-0.4l0.4,1L524.6,893.2z
			 M523.8,891.2l-0.4-1l0.8-0.4l0.4,1L523.8,891.2z M522.9,889.3l-0.4-1l0.8-0.4l0.4,1L522.9,889.3z M522.1,887.3l-0.4-1l0.8-0.4
			l0.4,1L522.1,887.3z M521.2,885.4l-0.4-1l0.8-0.4l0.4,1L521.2,885.4z M520.3,883.5l-0.5-1l0.8-0.4l0.5,1L520.3,883.5z
			 M519.4,881.6l-0.5-1l0.8-0.4l0.5,1L519.4,881.6z M518.5,879.6l-0.5-1l0.8-0.4l0.5,1L518.5,879.6z M517.5,877.7l-0.5-1l0.8-0.4
			l0.5,1L517.5,877.7z M516.6,875.8l-0.5-0.9l0.8-0.4l0.5,1L516.6,875.8z M515.6,873.9l-0.5-0.9l0.8-0.4l0.5,0.9L515.6,873.9z
			 M514.6,872l-0.5-0.9l0.8-0.4l0.5,0.9L514.6,872z M513.7,870.2l-0.5-0.9l0.8-0.4l0.5,0.9L513.7,870.2z M512.7,868.3l-0.5-0.9
			l0.8-0.4l0.5,0.9L512.7,868.3z M511.7,866.4l-0.5-0.9l0.8-0.4l0.5,0.9L511.7,866.4z M510.6,864.5l-0.5-0.9l0.8-0.5l0.5,0.9
			L510.6,864.5z M509.6,862.7l-0.5-0.9l0.8-0.5l0.5,0.9L509.6,862.7z M508.5,860.8l-0.5-0.9l0.8-0.5l0.5,0.9L508.5,860.8z
			 M507.5,859l-0.5-0.9l0.8-0.5l0.5,0.9L507.5,859z M506.4,857.2l-0.5-0.9l0.8-0.5l0.5,0.9L506.4,857.2z M505.3,855.3l-0.6-0.9
			l0.8-0.5l0.6,0.9L505.3,855.3z M504.2,853.5l-0.6-0.9l0.8-0.5l0.6,0.9L504.2,853.5z M503.1,851.7l-0.6-0.9l0.8-0.5l0.6,0.9
			L503.1,851.7z M502,849.9l-0.6-0.9l0.8-0.5l0.6,0.9L502,849.9z M500.8,848.1l-0.6-0.9l0.8-0.5l0.6,0.9L500.8,848.1z M499.7,846.3
			l-0.6-0.9l0.8-0.5l0.6,0.9L499.7,846.3z M498.5,844.6l-0.6-0.9l0.8-0.5l0.6,0.9L498.5,844.6z M497.3,842.8l-0.6-0.9l0.8-0.5
			l0.6,0.9L497.3,842.8z M496.2,841l-0.6-0.9l0.8-0.5l0.6,0.9L496.2,841z M494.9,839.3l-0.6-0.9l0.8-0.5l0.6,0.9L494.9,839.3z
			 M493.7,837.5l-0.6-0.9l0.8-0.5l0.6,0.9L493.7,837.5z M492.5,835.8l-0.6-0.9l0.8-0.5l0.6,0.9L492.5,835.8z M491.2,834.1l-0.6-0.9
			l0.8-0.5l0.6,0.9L491.2,834.1z M490,832.4l-0.6-0.9l0.7-0.6l0.6,0.9L490,832.4z M488.7,830.7l-0.6-0.8l0.7-0.6l0.6,0.8
			L488.7,830.7z M487.4,829l-0.6-0.8l0.7-0.6l0.7,0.8L487.4,829z M486.1,827.3l-0.7-0.8l0.7-0.6l0.7,0.8L486.1,827.3z M484.8,825.6
			l-0.7-0.8l0.7-0.6l0.7,0.8L484.8,825.6z M483.5,824l-0.7-0.8l0.7-0.6l0.7,0.8L483.5,824z M482.1,822.3l-0.7-0.8l0.7-0.6l0.7,0.8
			L482.1,822.3z M480.8,820.7l-0.7-0.8l0.7-0.6l0.7,0.8L480.8,820.7z M479.4,819.1l-0.7-0.8l0.7-0.6l0.7,0.8L479.4,819.1z
			 M478,817.4l-0.7-0.8l0.7-0.6l0.7,0.8L478,817.4z M476.7,815.8L476,815l0.7-0.6l0.7,0.8L476.7,815.8z M475.3,814.2l-0.7-0.8
			l0.7-0.6l0.7,0.8L475.3,814.2z M473.8,812.6l-0.7-0.8l0.7-0.6l0.7,0.8L473.8,812.6z M472.4,811l-0.7-0.8l0.7-0.6l0.7,0.8
			L472.4,811z M471,809.5l-0.7-0.8l0.7-0.6l0.7,0.8L471,809.5z M469.6,807.9l-0.7-0.8l0.7-0.6l0.7,0.8L469.6,807.9z M468.1,806.4
			l-0.7-0.8l0.7-0.6l0.7,0.8L468.1,806.4z M466.6,804.8l-0.7-0.8l0.7-0.6l0.7,0.8L466.6,804.8z M465.2,803.3l-0.7-0.8l0.7-0.6
			l0.7,0.8L465.2,803.3z M463.7,801.7L463,801l0.7-0.7l0.7,0.8L463.7,801.7z M462.2,800.2l-0.7-0.8l0.7-0.7l0.8,0.8L462.2,800.2z
			 M460.7,798.7L460,798l0.7-0.7l0.8,0.8L460.7,798.7z M459.2,797.2l-0.8-0.7l0.7-0.7l0.8,0.7L459.2,797.2z M457.7,795.7l-0.8-0.7
			l0.6-0.7l0.8,0.7L457.7,795.7z M456.2,794.3l-0.8-0.7l0.6-0.7l0.8,0.7L456.2,794.3z M454.6,792.8l-0.8-0.7l0.6-0.7l0.8,0.7
			L454.6,792.8z M453.1,791.3l-0.8-0.7l0.6-0.7l0.8,0.7L453.1,791.3z M451.5,789.9l-0.8-0.7l0.6-0.7l0.8,0.7L451.5,789.9z
			 M449.9,788.5l-0.8-0.7l0.6-0.7l0.8,0.7L449.9,788.5z M448.4,787.1l-0.8-0.7l0.6-0.7l0.8,0.7L448.4,787.1z M446.8,785.7L446,785
			l0.6-0.7l0.8,0.7L446.8,785.7z M445.2,784.3l-0.8-0.7l0.6-0.7l0.8,0.7L445.2,784.3z M443.6,782.9l-0.8-0.7l0.6-0.7l0.8,0.7
			L443.6,782.9z M441.9,781.5l-0.8-0.7l0.6-0.7l0.8,0.7L441.9,781.5z M440.3,780.1l-0.8-0.7l0.6-0.7l0.8,0.7L440.3,780.1z
			 M438.7,778.8l-0.8-0.7l0.6-0.7l0.8,0.7L438.7,778.8z M437,777.5l-0.8-0.7l0.6-0.7l0.8,0.7L437,777.5z M435.4,776.1l-0.8-0.7
			l0.6-0.7l0.8,0.7L435.4,776.1z M433.7,774.8l-0.8-0.6l0.6-0.7l0.8,0.7L433.7,774.8z M432,773.5l-0.8-0.6l0.6-0.7l0.8,0.6
			L432,773.5z M430.3,772.3l-0.8-0.6l0.6-0.7l0.9,0.6L430.3,772.3z M428.6,771l-0.9-0.6l0.5-0.8l0.9,0.6L428.6,771z M426.9,769.8
			l-0.9-0.6l0.5-0.8l0.9,0.6L426.9,769.8z M425.2,768.5l-0.9-0.6l0.5-0.8l0.9,0.6L425.2,768.5z M423.5,767.3l-0.9-0.6l0.5-0.8
			l0.9,0.6L423.5,767.3z M421.7,766.1l-0.9-0.6l0.5-0.8l0.9,0.6L421.7,766.1z M420,764.9l-0.9-0.6l0.5-0.8l0.9,0.6L420,764.9z
			 M418.2,763.7l-0.9-0.6l0.5-0.8l0.9,0.6L418.2,763.7z M416.4,762.6l-0.9-0.6l0.5-0.8l0.9,0.6L416.4,762.6z M414.6,761.4l-0.9-0.6
			l0.5-0.8l0.9,0.6L414.6,761.4z M412.8,760.3l-0.9-0.6l0.5-0.8l0.9,0.6L412.8,760.3z M411,759.2l-0.9-0.5l0.5-0.8l0.9,0.6
			L411,759.2z M409.2,758.1l-0.9-0.5l0.5-0.8l0.9,0.5L409.2,758.1z M407.4,757l-0.9-0.5l0.5-0.8l0.9,0.5L407.4,757z M405.6,756
			l-0.9-0.5l0.5-0.8l0.9,0.5L405.6,756z M403.7,754.9l-0.9-0.5l0.4-0.8l0.9,0.5L403.7,754.9z M401.9,753.9l-0.9-0.5l0.4-0.8l0.9,0.5
			L401.9,753.9z M400,752.9l-0.9-0.5l0.4-0.8l0.9,0.5L400,752.9z M398.1,752l-0.9-0.5l0.4-0.8l0.9,0.5L398.1,752z M396.2,751
			l-0.9-0.5l0.4-0.8l1,0.5L396.2,751z M394.3,750.1l-1-0.5l0.4-0.8l1,0.5L394.3,750.1z M392.4,749.1l-1-0.5l0.4-0.8l1,0.5
			L392.4,749.1z M390.5,748.2l-1-0.4l0.4-0.8l1,0.4L390.5,748.2z M388.6,747.4l-1-0.4l0.4-0.8l1,0.4L388.6,747.4z M386.6,746.5
			l-1-0.4l0.4-0.9l1,0.4L386.6,746.5z M384.7,745.7l-1-0.4l0.4-0.9l1,0.4L384.7,745.7z M382.7,744.9l-1-0.4l0.3-0.9l1,0.4
			L382.7,744.9z M380.8,744.1l-1-0.4l0.3-0.9l1,0.4L380.8,744.1z M378.8,743.3l-1-0.4l0.3-0.9l1,0.4L378.8,743.3z M376.8,742.6
			l-1-0.4l0.3-0.9l1,0.4L376.8,742.6z M374.8,741.9l-1-0.3l0.3-0.9l1,0.4L374.8,741.9z M372.8,741.2l-1-0.3l0.3-0.9l1,0.3
			L372.8,741.2z M370.8,740.5l-1-0.3l0.3-0.9l1,0.3L370.8,740.5z M368.8,739.9l-1-0.3l0.3-0.9l1,0.3L368.8,739.9z M366.8,739.3
			l-1-0.3l0.3-0.9l1,0.3L366.8,739.3z M364.7,738.7l-1-0.3l0.2-0.9l1,0.3L364.7,738.7z M362.7,738.1l-1-0.3l0.2-0.9l1,0.3
			L362.7,738.1z M360.6,737.6l-1-0.3l0.2-0.9l1,0.3L360.6,737.6z M221.1,737.4l-0.3-0.9c0,0,0.3-0.1,1-0.3l0.3,0.9
			C221.4,737.3,221.1,737.4,221.1,737.4z M358.6,737l-1-0.3l0.2-0.9l1,0.3L358.6,737z M223.1,736.8l-0.3-0.9l1-0.3l0.3,0.9
			L223.1,736.8z M356.5,736.5l-1-0.3l0.2-0.9l1,0.3L356.5,736.5z M225.1,736.1l-0.3-0.9l1-0.3l0.3,0.9L225.1,736.1z M354.4,736
			l-1-0.2l0.2-0.9l1,0.2L354.4,736z M227.1,735.6l-0.2-0.9l1-0.3l0.2,0.9L227.1,735.6z M352.4,735.5l-1-0.2l0.2-0.9l1,0.2
			L352.4,735.5z M350.3,735l-1-0.2l0.2-0.9l0.9,0.2L350.3,735z M229.2,735l-0.2-0.9l1-0.3l0.2,0.9L229.2,735z M348.2,734.6l-1-0.2
			l0.2-0.9l0.9,0.2L348.2,734.6z M231.3,734.5l-0.2-0.9l1-0.3l0.2,0.9L231.3,734.5z M346.1,734.1l-1-0.2l0.2-0.9l0.9,0.2
			L346.1,734.1z M233.3,734l-0.2-0.9l1-0.2l0.2,0.9L233.3,734z M344.1,733.7l-1-0.2l0.2-0.9l1,0.2L344.1,733.7z M235.4,733.5
			l-0.2-0.9l1-0.2l0.2,0.9L235.4,733.5z M342,733.3l-0.9-0.2l0-0.5l0.2-0.4l0.9,0.2L342,733.3z M237.5,733.1l-0.2-0.4l0-0.5l1-0.2
			l0.2,0.9L237.5,733.1z M339.9,732.9l-1-0.2l0-0.5l0.2-0.4l1,0.2L339.9,732.9z M239.6,732.7l-0.2-0.9l1-0.2l0.2,0.9L239.6,732.7z
			 M341,732.6l0.1-0.5L341,732.6z M337.8,732.5l-0.9-0.2l0-0.5l0.2-0.4l0.9,0.2L337.8,732.5z M338.9,732.3l0.1-0.5L338.9,732.3z
			 M241.6,732.3l-0.2-0.9l1.1-0.2l0.2,0.9L241.6,732.3z M335.7,732.2l-1-0.2l0.2-0.9l1.1,0.2L335.7,732.2z M336.8,731.9l0.1-0.5
			L336.8,731.9z M243.7,731.9l-0.2-0.9l1.1-0.2l0.2,0.9L243.7,731.9z M333.6,731.8l-1-0.2l0.1-0.9l1.1,0.2L333.6,731.8z
			 M245.8,731.5l-0.2-0.9l1.1-0.2l0.2,0.9L245.8,731.5z M331.5,731.5l-1-0.2l0.1-0.9l1.1,0.2L331.5,731.5z M247.9,731.2l-0.1-0.9
			l1.1-0.2l0.1,0.9L247.9,731.2z M329.4,731.1l-1.1-0.2l0.1-0.9l1,0.1L329.4,731.1z M327.3,730.8l-1.1-0.1l0.1-0.9l1.1,0.1
			L327.3,730.8z M250,730.8l-0.1-0.9l1.1-0.2l0.1,0.9L250,730.8z M325.2,730.6l-1-0.1l0-0.5l0.1-0.5l1,0.1L325.2,730.6z
			 M252.1,730.5l-0.1-0.9l1.1-0.1l0.1,0.9L252.1,730.5z M323.1,730.3l-1-0.1l0-0.5l0.1-0.5l1,0.1L323.1,730.3z M254.2,730.2
			l-0.1-0.9l1.1-0.1l0.1,0.9L254.2,730.2z M321,730l-1.1-0.1l0.1-0.9l1.1,0.1L321,730z M256.3,730l-0.1-0.9l1.1-0.1l0.1,0.9
			L256.3,730z M324.2,730l0.1-0.5L324.2,730z M318.9,729.8l-1.1-0.1l0.1-0.9l1.1,0.1L318.9,729.8z M258.4,729.7l-0.1-0.9l1.1-0.1
			l0.1,0.9L258.4,729.7z M322.1,729.7l0.1-0.5L322.1,729.7z M316.8,729.6l-1.1-0.1l0.1-0.9l1.1,0.1L316.8,729.6z M260.6,729.5
			l-0.1-0.9l1.1-0.1l0.1,0.9L260.6,729.5z M314.6,729.3l-1-0.1l0.1-0.9l0,0.5l0.1-0.5l1,0.1L314.6,729.3z M262.7,729.3l-0.1-0.9
			l1.1-0.1l0.1,0.9L262.7,729.3z M312.5,729.1l-1-0.1l0-0.5l0.1-0.5l1,0.1L312.5,729.1z M264.8,729.1l-0.1-0.9l1.1-0.1l0.1,0.9
			L264.8,729.1z M310.4,729l-1.1-0.1l0.1-0.9l1.1,0.1L310.4,729z M266.9,728.9l-0.1-0.9l1.1-0.1l0.1,0.9L266.9,728.9z M308.3,728.8
			l-1.1-0.1l0.1-0.9l1.1,0.1L308.3,728.8z M269,728.7l-0.1-0.9l1.1-0.1l0.1,0.9L269,728.7z M306.2,728.7l-1.1-0.1l0.1-0.9l1,0.1
			L306.2,728.7z M271.1,728.6l-0.1-0.9l1.1-0.1l0.1,0.9L271.1,728.6z M311.5,728.6l0-0.5L311.5,728.6z M304.1,728.5l-1-0.1l0-0.5
			l0.1-0.5l1,0.1L304.1,728.5z M273.3,728.5l-0.1-0.9l1.1-0.1l0,0.9L273.3,728.5z M301.9,728.4l-1,0l0-0.5l0.1-0.5l1,0.1
			L301.9,728.4z M275.4,728.4l0-0.9l1.1,0l0,0.9L275.4,728.4z M299.8,728.3l-1.1,0l0-0.9l1.1,0L299.8,728.3z M277.5,728.3l0-0.9
			l1.1,0l0,0.9L277.5,728.3z M297.7,728.2l-1.1,0l0-0.9l1,0L297.7,728.2z M279.6,728.2l0-0.9l1.1,0l0,0.9L279.6,728.2z M295.6,728.2
			l-1,0l0-0.5l0-0.5l1.1,0L295.6,728.2z M281.8,728.1l0-0.9l1.1,0l0,0.9L281.8,728.1z M293.4,728.1l-1.1,0l0-0.5l0-0.5l1.1,0
			L293.4,728.1z M283.9,728.1l0-0.9l1.1,0l0,0.9L283.9,728.1z M291.3,728.1l-1.1,0l0-0.9l1.1,0L291.3,728.1z M286,728.1l0-0.9l1.1,0
			l0,0.9L286,728.1z M289.2,728.1l-1.1,0l0-0.9l1.1,0V728.1z M303,728l0-0.5L303,728z M300.9,727.9l0-0.5L300.9,727.9z M294.5,727.7
			l0-0.5L294.5,727.7z M292.4,727.6l0-0.5L292.4,727.6z"/>
		<path d="M336.5,748.8h-1.2v-0.7h1.2V748.8z M336.5,747h-1.2v-1.1h1.2V747z M336.5,744.9h-1.2v-1.1h1.2V744.9z M336.5,742.7h-1.2
			v-1.1h1.2V742.7z M336.5,740.6h-1.2v-1.1h1.2V740.6z M336.5,738.5h-1.2v-1.1h1.2V738.5z M336.5,736.4h-1.2v-1.1h1.2V736.4z
			 M336.5,734.2h-1.2v-1.1h1.2V734.2z M336.5,732.1h-1.2V731h1.2V732.1z M336.5,730h-1.2v-1.1h1.2V730z M336.5,727.8h-1.2v-1.1h1.2
			V727.8z M336.5,725.7h-1.2v-1.1h1.2V725.7z M336.5,723.6h-1.2v-1.1h1.2V723.6z M336.5,721.5h-1.2v-1.1h1.2V721.5z M336.5,719.3
			h-1.2v-1.1h1.2V719.3z M336.5,717.2h-1.2v-1.1h1.2V717.2z M336.5,715.1h-1.2V714h1.2V715.1z M336.5,712.9h-1.2v-1.1h1.2V712.9z
			 M336.5,710.8h-1.2v-1.1h1.2V710.8z M336.5,708.7h-1.2v-1.1h1.2V708.7z M336.5,706.6h-1.2v-1.1h1.2V706.6z M336.5,704.4h-1.2v-1.1
			h1.2V704.4z M336.5,702.3h-1.2v-1.1h1.2V702.3z M336.5,700.2h-1.2v-1.1h1.2V700.2z M336.5,698h-1.2V697h1.2V698z M336.5,695.9
			h-1.2v-1.1h1.2V695.9z M336.5,693.8h-1.2v-1.1h1.2V693.8z M336.5,691.7h-1.2v-1.1h1.2V691.7z M336.5,689.5h-1.2v-1.1h1.2V689.5z
			 M336.5,687.4h-1.2v-1.1h1.2V687.4z M336.5,685.3h-1.2v-1.1h1.2V685.3z M336.5,683.1h-1.2v-1.1h1.2V683.1z M336.5,681h-1.2V680
			h1.2V681z M336.5,678.9h-1.2v-1.1h1.2V678.9z M336.5,676.8h-1.2v-1.1h1.2V676.8z M336.5,674.6h-1.2v-1.1h1.2V674.6z M336.5,672.5
			h-1.2v-1.1h1.2V672.5z M336.5,670.4h-1.2v-1.1h1.2V670.4z M336.5,668.2h-1.2v-1.1h1.2V668.2z M336.5,666.1h-1.2v-1.1h1.2V666.1z
			 M336.5,664h-1.2v-1.1h1.2V664z M336.5,661.9h-1.2v-1.1h1.2V661.9z M336.5,659.7h-1.2v-1.1h1.2V659.7z M336.5,657.6h-1.2v-1.1h1.2
			V657.6z M336.5,655.5h-1.2v-1.1h1.2V655.5z M336.5,653.3h-1.2v-1.1h1.2V653.3z M336.5,651.2h-1.2v-1.1h1.2V651.2z M336.5,649.1
			h-1.2V648h1.2V649.1z M336.5,647h-1.2v-1.1h1.2V647z M336.5,644.8h-1.2v-1.1h1.2V644.8z M336.5,642.7h-1.2v-1.1h1.2V642.7z
			 M336.5,640.6h-1.2v-1.1h1.2V640.6z M336.5,638.4h-1.2v-1.1h1.2V638.4z M336.5,636.3h-1.2v-1.1h1.2V636.3z M336.5,634.2h-1.2v-1.1
			h1.2V634.2z M336.5,632.1h-1.2V631h1.2V632.1z M336.5,629.9h-1.2v-1.1h1.2V629.9z M336.5,627.8h-1.2v-1.1h1.2V627.8z M336.5,625.7
			h-1.2v-1.1h1.2V625.7z M336.5,623.5h-1.2v-1.1h1.2V623.5z M336.5,621.4h-1.2v-1.1h1.2V621.4z M336.5,619.3h-1.2v-1.1h1.2V619.3z
			 M336.5,617.2h-1.2v-1.1h1.2V617.2z M336.5,615h-1.2V614h1.2V615z M336.5,612.9h-1.2v-1.1h1.2V612.9z M336.5,610.8h-1.2v-1.1h1.2
			V610.8z M336.5,608.6h-1.2v-1.1h1.2V608.6z M336.5,606.5h-1.2v-1.1h1.2V606.5z M336.5,604.4h-1.2v-1.1h1.2V604.4z M336.5,602.3
			h-1.2v-1.1h1.2V602.3z M336.5,600.1h-1.2v-1.1h1.2V600.1z M336.5,598h-1.2v-1.1h1.2V598z M336.5,595.9h-1.2v-1.1h1.2V595.9z
			 M336.5,593.7h-1.2v-1.1h1.2V593.7z M336.5,591.6h-1.2v-1.1h1.2V591.6z M336.5,589.5h-1.2v-1.1h1.2V589.5z M336.5,587.4h-1.2v-1.1
			h1.2V587.4z M336.5,585.2h-1.2v-1.1h1.2V585.2z M336.5,583.1h-1.2V582h1.2V583.1z M336.5,581h-1.2v-1.1h1.2V581z M336.5,578.8
			h-1.2v-1.1h1.2V578.8z M336.5,576.7h-1.2v-1.1h1.2V576.7z M336.5,574.6h-1.2v-1.1h1.2V574.6z M336.5,572.5h-1.2v-1.1h1.2V572.5z
			 M336.5,570.3h-1.2v-1.1h1.2V570.3z M336.5,568.2h-1.2v-1.1h1.2V568.2z M336.5,566.1h-1.2V565h1.2V566.1z M336.5,563.9h-1.2v-1.1
			h1.2V563.9z M336.5,561.8h-1.2v-1.1h1.2V561.8z M336.5,559.7h-1.2v-1.1h1.2V559.7z M336.5,557.6h-1.2v-1.1h1.2V557.6z
			 M336.5,555.4h-1.2v-1.1h1.2V555.4z M336.5,553.3h-1.2v-1.1h1.2V553.3z M336.5,551.2h-1.2v-1.1h1.2V551.2z M336.5,549h-1.2V548
			h1.2V549z M336.5,546.9h-1.2v-1.1h1.2V546.9z M336.5,544.8h-1.2v-1.1h1.2V544.8z M336.5,542.7h-1.2v-1.1h1.2V542.7z M336.5,540.5
			h-1.2v-1.1h1.2V540.5z M336.5,538.4h-1.2v-1.1h1.2V538.4z M336.5,536.3h-1.2v-1.1h1.2V536.3z M336.5,534.1h-1.2v-1.1h1.2V534.1z
			 M336.5,532h-1.2V531h1.2V532z M336.5,529.9h-1.2v-1.1h1.2V529.9z M336.5,527.8h-1.2v-1.1h1.2V527.8z M336.5,525.6h-1.2v-1.1h1.2
			V525.6z M336.5,523.5h-1.2v-1.1h1.2V523.5z M336.5,521.4h-1.2v-1.1h1.2V521.4z M336.5,519.2h-1.2v-1.1h1.2V519.2z M336.5,517.1
			h-1.2v-1.1h1.2V517.1z M336.5,515h-1.2v-1.1h1.2V515z M336.5,512.9h-1.2v-1.1h1.2V512.9z M336.5,510.7h-1.2v-1.1h1.2V510.7z
			 M336.5,508.6h-1.2v-1.1h1.2V508.6z M336.5,506.5h-1.2v-1.1h1.2V506.5z M336.5,504.3h-1.2v-1.1h1.2V504.3z M336.5,502.2h-1.2v-1.1
			h1.2V502.2z M336.5,500.1h-1.2V499h1.2V500.1z M336.5,498h-1.2v-1.1h1.2V498z M336.5,495.8h-1.2v-1.1h1.2V495.8z M336.5,493.7
			h-1.2v-1.1h1.2V493.7z M336.5,491.6h-1.2v-1.1h1.2V491.6z M336.5,489.4h-1.2v-1.1h1.2V489.4z M336.5,487.3h-1.2v-1.1h1.2V487.3z
			 M336.5,485.2h-1.2v-1.1h1.2V485.2z M336.5,483.1h-1.2V482h1.2V483.1z M336.5,480.9h-1.2v-1.1h1.2V480.9z M336.5,478.8h-1.2v-1.1
			h1.2V478.8z M336.5,476.7h-1.2v-1.1h1.2V476.7z M336.5,474.5h-1.2v-1.1h1.2V474.5z M336.5,472.4h-1.2v-1.1h1.2V472.4z
			 M336.5,470.3h-1.2v-1.1h1.2V470.3z M336.5,468.2h-1.2v-1.1h1.2V468.2z M336.5,466h-1.2V465h1.2V466z M336.5,463.9h-1.2v-1.1h1.2
			V463.9z M336.5,461.8h-1.2v-1.1h1.2V461.8z M336.5,459.6h-1.2v-1.1h1.2V459.6z M336.5,457.5h-1.2v-1.1h1.2V457.5z M336.5,455.4
			h-1.2v-1.1h1.2V455.4z M336.5,453.3h-1.2v-1.1h1.2V453.3z M336.5,451.1h-1.2v-1.1h1.2V451.1z M336.5,449h-1.2v-1.1h1.2V449z
			 M336.5,446.9h-1.2v-1.1h1.2V446.9z M336.5,444.7h-1.2v-1.1h1.2V444.7z M336.5,442.6h-1.2v-1.1h1.2V442.6z M336.5,440.5h-1.2v-1.1
			h1.2V440.5z M336.5,438.4h-1.2v-1.1h1.2V438.4z M336.5,436.2h-1.2v-1.1h1.2V436.2z M336.5,434.1h-1.2V433h1.2V434.1z M336.5,432
			h-1.2v-1.1h1.2V432z M336.5,429.8h-1.2v-1.1h1.2V429.8z M336.5,427.7h-1.2v-1.1h1.2V427.7z M336.5,425.6h-1.2v-1.1h1.2V425.6z
			 M336.5,423.5h-1.2v-1.1h1.2V423.5z M336.5,421.3h-1.2v-1.1h1.2V421.3z M336.5,419.2h-1.2v-1.1h1.2V419.2z M336.5,417.1h-1.2V416
			h1.2V417.1z M336.5,414.9h-1.2v-1.1h1.2V414.9z M336.5,412.8h-1.2v-1.1h1.2V412.8z M336.5,410.7h-1.2v-1.1h1.2V410.7z
			 M336.5,408.6h-1.2v-1.1h1.2V408.6z M336.5,406.4h-1.2v-1.1h1.2V406.4z M336.5,404.3h-1.2v-1.1h1.2V404.3z M336.5,402.2h-1.2v-1.1
			h1.2V402.2z M336.5,400h-1.2V399h1.2V400z M336.5,397.9h-1.2v-1.1h1.2V397.9z M336.5,395.8h-1.2v-1.1h1.2V395.8z M336.5,393.7
			h-1.2v-1.1h1.2V393.7z M336.5,391.5h-1.2v-1.1h1.2V391.5z M336.5,389.4h-1.2v-1.1h1.2V389.4z M336.5,387.3h-1.2v-1.1h1.2V387.3z
			 M336.5,385.1h-1.2v-1.1h1.2V385.1z M336.5,383h-1.2V382h1.2V383z M336.5,380.9h-1.2v-1.1h1.2V380.9z M336.5,378.8h-1.2v-1.1h1.2
			V378.8z M336.5,376.6h-1.2v-1.1h1.2V376.6z M336.5,374.5h-1.2v-1.1h1.2V374.5z"/>
		<path d="M448.1,805.8h-1.2V805h1.2V805.8z M448.1,803.9h-1.2v-1.1h1.2V803.9z M448.1,801.8h-1.2v-1.1h1.2V801.8z M448.1,799.7
			h-1.2v-1.1h1.2V799.7z M448.1,797.6h-1.2v-1.1h1.2V797.6z M448.1,795.4h-1.2v-1.1h1.2V795.4z M448.1,793.3h-1.2v-1.1h1.2V793.3z
			 M448.1,791.2h-1.2v-1.1h1.2V791.2z M448.1,789h-1.2V788h1.2V789z M448.1,786.9h-1.2v-1.1h1.2V786.9z M448.1,784.8h-1.2v-1.1h1.2
			V784.8z M448.1,782.7h-1.2v-1.1h1.2V782.7z M448.1,780.5h-1.2v-1.1h1.2V780.5z M448.1,778.4h-1.2v-1.1h1.2V778.4z M448.1,776.3
			h-1.2v-1.1h1.2V776.3z M448.1,774.1h-1.2v-1.1h1.2V774.1z M448.1,772h-1.2v-1.1h1.2V772z M448.1,769.9h-1.2v-1.1h1.2V769.9z
			 M448.1,767.8h-1.2v-1.1h1.2V767.8z M448.1,765.6h-1.2v-1.1h1.2V765.6z M448.1,763.5h-1.2v-1.1h1.2V763.5z M448.1,761.4h-1.2v-1.1
			h1.2V761.4z M448.1,759.2h-1.2v-1.1h1.2V759.2z M448.1,757.1h-1.2V756h1.2V757.1z M448.1,755h-1.2v-1.1h1.2V755z M448.1,752.9
			h-1.2v-1.1h1.2V752.9z M448.1,750.7h-1.2v-1.1h1.2V750.7z M448.1,748.6h-1.2v-1.1h1.2V748.6z M448.1,746.5h-1.2v-1.1h1.2V746.5z
			 M448.1,744.3h-1.2v-1.1h1.2V744.3z M448.1,742.2h-1.2v-1.1h1.2V742.2z M448.1,740.1h-1.2V739h1.2V740.1z M448.1,738h-1.2v-1.1
			h1.2V738z M448.1,735.8h-1.2v-1.1h1.2V735.8z M448.1,733.7h-1.2v-1.1h1.2V733.7z M448.1,731.6h-1.2v-1.1h1.2V731.6z M448.1,729.4
			h-1.2v-1.1h1.2V729.4z M448.1,727.3h-1.2v-1.1h1.2V727.3z M448.1,725.2h-1.2v-1.1h1.2V725.2z M448.1,723.1h-1.2V722h1.2V723.1z
			 M448.1,720.9h-1.2v-1.1h1.2V720.9z M448.1,718.8h-1.2v-1.1h1.2V718.8z M448.1,716.7h-1.2v-1.1h1.2V716.7z M448.1,714.5h-1.2v-1.1
			h1.2V714.5z M448.1,712.4h-1.2v-1.1h1.2V712.4z M448.1,710.3h-1.2v-1.1h1.2V710.3z M448.1,708.2h-1.2v-1.1h1.2V708.2z M448.1,706
			h-1.2V705h1.2V706z M448.1,703.9h-1.2v-1.1h1.2V703.9z M448.1,701.8h-1.2v-1.1h1.2V701.8z M448.1,699.6h-1.2v-1.1h1.2V699.6z
			 M448.1,697.5h-1.2v-1.1h1.2V697.5z M448.1,695.4h-1.2v-1.1h1.2V695.4z M448.1,693.3h-1.2v-1.1h1.2V693.3z M448.1,691.1h-1.2v-1.1
			h1.2V691.1z M448.1,689h-1.2v-1.1h1.2V689z M448.1,686.9h-1.2v-1.1h1.2V686.9z M448.1,684.7h-1.2v-1.1h1.2V684.7z M448.1,682.6
			h-1.2v-1.1h1.2V682.6z M448.1,680.5h-1.2v-1.1h1.2V680.5z M448.1,678.4h-1.2v-1.1h1.2V678.4z M448.1,676.2h-1.2v-1.1h1.2V676.2z
			 M448.1,674.1h-1.2V673h1.2V674.1z M448.1,672h-1.2v-1.1h1.2V672z M448.1,669.8h-1.2v-1.1h1.2V669.8z M448.1,667.7h-1.2v-1.1h1.2
			V667.7z M448.1,665.6h-1.2v-1.1h1.2V665.6z M448.1,663.5h-1.2v-1.1h1.2V663.5z M448.1,661.3h-1.2v-1.1h1.2V661.3z M448.1,659.2
			h-1.2v-1.1h1.2V659.2z M448.1,657.1h-1.2V656h1.2V657.1z M448.1,654.9h-1.2v-1.1h1.2V654.9z M448.1,652.8h-1.2v-1.1h1.2V652.8z
			 M448.1,650.7h-1.2v-1.1h1.2V650.7z M448.1,648.6h-1.2v-1.1h1.2V648.6z M448.1,646.4h-1.2v-1.1h1.2V646.4z M448.1,644.3h-1.2v-1.1
			h1.2V644.3z M448.1,642.2h-1.2v-1.1h1.2V642.2z M448.1,640h-1.2V639h1.2V640z M448.1,637.9h-1.2v-1.1h1.2V637.9z M448.1,635.8
			h-1.2v-1.1h1.2V635.8z M448.1,633.7h-1.2v-1.1h1.2V633.7z M448.1,631.5h-1.2v-1.1h1.2V631.5z M448.1,629.4h-1.2v-1.1h1.2V629.4z
			 M448.1,627.3h-1.2v-1.1h1.2V627.3z M448.1,625.1h-1.2v-1.1h1.2V625.1z M448.1,623h-1.2v-1.1h1.2V623z M448.1,620.9h-1.2v-1.1h1.2
			V620.9z M448.1,618.8h-1.2v-1.1h1.2V618.8z M448.1,616.6h-1.2v-1.1h1.2V616.6z M448.1,614.5h-1.2v-1.1h1.2V614.5z M448.1,612.4
			h-1.2v-1.1h1.2V612.4z M448.1,610.2h-1.2v-1.1h1.2V610.2z M448.1,608.1h-1.2V607h1.2V608.1z M448.1,606h-1.2v-1.1h1.2V606z
			 M448.1,603.9h-1.2v-1.1h1.2V603.9z M448.1,601.7h-1.2v-1.1h1.2V601.7z M448.1,599.6h-1.2v-1.1h1.2V599.6z M448.1,597.5h-1.2v-1.1
			h1.2V597.5z M448.1,595.3h-1.2v-1.1h1.2V595.3z M448.1,593.2h-1.2v-1.1h1.2V593.2z M448.1,591.1h-1.2V590h1.2V591.1z M448.1,589
			h-1.2v-1.1h1.2V589z M448.1,586.8h-1.2v-1.1h1.2V586.8z M448.1,584.7h-1.2v-1.1h1.2V584.7z M448.1,582.6h-1.2v-1.1h1.2V582.6z
			 M448.1,580.4h-1.2v-1.1h1.2V580.4z M448.1,578.3h-1.2v-1.1h1.2V578.3z M448.1,576.2h-1.2v-1.1h1.2V576.2z M448.1,574.1h-1.2V573
			h1.2V574.1z M448.1,571.9h-1.2v-1.1h1.2V571.9z M448.1,569.8h-1.2v-1.1h1.2V569.8z M448.1,567.7h-1.2v-1.1h1.2V567.7z
			 M448.1,565.5h-1.2v-1.1h1.2V565.5z M448.1,563.4h-1.2v-1.1h1.2V563.4z M448.1,561.3h-1.2v-1.1h1.2V561.3z M448.1,559.2h-1.2v-1.1
			h1.2V559.2z M448.1,557h-1.2V556h1.2V557z M448.1,554.9h-1.2v-1.1h1.2V554.9z M448.1,552.8h-1.2v-1.1h1.2V552.8z M448.1,550.6
			h-1.2v-1.1h1.2V550.6z M448.1,548.5h-1.2v-1.1h1.2V548.5z M448.1,546.4h-1.2v-1.1h1.2V546.4z M448.1,544.3h-1.2v-1.1h1.2V544.3z
			 M448.1,542.1h-1.2v-1.1h1.2V542.1z M448.1,540h-1.2v-1.1h1.2V540z M448.1,537.9h-1.2v-1.1h1.2V537.9z M448.1,535.7h-1.2v-1.1h1.2
			V535.7z M448.1,533.6h-1.2v-1.1h1.2V533.6z M448.1,531.5h-1.2v-1.1h1.2V531.5z M448.1,529.4h-1.2v-1.1h1.2V529.4z M448.1,527.2
			h-1.2v-1.1h1.2V527.2z M448.1,525.1h-1.2V524h1.2V525.1z M448.1,523h-1.2v-1.1h1.2V523z M448.1,520.8h-1.2v-1.1h1.2V520.8z
			 M448.1,518.7h-1.2v-1.1h1.2V518.7z M448.1,516.6h-1.2v-1.1h1.2V516.6z M448.1,514.5h-1.2v-1.1h1.2V514.5z M448.1,512.3h-1.2v-1.1
			h1.2V512.3z M448.1,510.2h-1.2v-1.1h1.2V510.2z M448.1,508.1h-1.2V507h1.2V508.1z M448.1,505.9h-1.2v-1.1h1.2V505.9z M448.1,503.8
			h-1.2v-1.1h1.2V503.8z M448.1,501.7h-1.2v-1.1h1.2V501.7z M448.1,499.6h-1.2v-1.1h1.2V499.6z M448.1,497.4h-1.2v-1.1h1.2V497.4z
			 M448.1,495.3h-1.2v-1.1h1.2V495.3z M448.1,493.2h-1.2v-1.1h1.2V493.2z M448.1,491h-1.2V490h1.2V491z M448.1,488.9h-1.2v-1.1h1.2
			V488.9z M448.1,486.8h-1.2v-1.1h1.2V486.8z M448.1,484.7h-1.2v-1.1h1.2V484.7z M448.1,482.5h-1.2v-1.1h1.2V482.5z M448.1,480.4
			h-1.2v-1.1h1.2V480.4z M448.1,478.3h-1.2v-1.1h1.2V478.3z M448.1,476.1h-1.2v-1.1h1.2V476.1z M448.1,474h-1.2v-1.1h1.2V474z
			 M448.1,471.9h-1.2v-1.1h1.2V471.9z M448.1,469.8h-1.2v-1.1h1.2V469.8z M448.1,467.6h-1.2v-1.1h1.2V467.6z M448.1,465.5h-1.2v-1.1
			h1.2V465.5z M448.1,463.4h-1.2v-1.1h1.2V463.4z M448.1,461.2h-1.2v-1.1h1.2V461.2z M448.1,459.1h-1.2V458h1.2V459.1z M448.1,457
			h-1.2v-1.1h1.2V457z M448.1,454.9h-1.2v-1.1h1.2V454.9z M448.1,452.7h-1.2v-1.1h1.2V452.7z M448.1,450.6h-1.2v-1.1h1.2V450.6z
			 M448.1,448.5h-1.2v-1.1h1.2V448.5z M448.1,446.3h-1.2v-1.1h1.2V446.3z M448.1,444.2h-1.2v-1.1h1.2V444.2z M448.1,442.1h-1.2V441
			h1.2V442.1z M448.1,440h-1.2v-1.1h1.2V440z M448.1,437.8h-1.2v-1.1h1.2V437.8z M448.1,435.7h-1.2v-1.1h1.2V435.7z M448.1,433.6
			h-1.2v-1.1h1.2V433.6z M448.1,431.4h-1.2v-1.1h1.2V431.4z M448.1,429.3h-1.2v-1.1h1.2V429.3z M448.1,427.2h-1.2v-1.1h1.2V427.2z
			 M448.1,425.1h-1.2V424h1.2V425.1z M448.1,422.9h-1.2v-1.1h1.2V422.9z M448.1,420.8h-1.2v-1.1h1.2V420.8z M448.1,418.7h-1.2v-1.1
			h1.2V418.7z M448.1,416.5h-1.2v-1.1h1.2V416.5z M448.1,414.4h-1.2v-1.1h1.2V414.4z M448.1,412.3h-1.2v-1.1h1.2V412.3z
			 M448.1,410.2h-1.2v-1.1h1.2V410.2z M448.1,408h-1.2V407h1.2V408z M448.1,405.9h-1.2v-1.1h1.2V405.9z M448.1,403.8h-1.2v-1.1h1.2
			V403.8z M448.1,401.6h-1.2v-1.1h1.2V401.6z M448.1,399.5h-1.2v-1.1h1.2V399.5z M448.1,397.4h-1.2v-1.1h1.2V397.4z M448.1,395.3
			h-1.2v-1.1h1.2V395.3z M448.1,393.1h-1.2v-1.1h1.2V393.1z M448.1,391h-1.2v-1.1h1.2V391z M448.1,388.9h-1.2v-1.1h1.2V388.9z
			 M448.1,386.7h-1.2v-1.1h1.2V386.7z M448.1,384.6h-1.2v-1.1h1.2V384.6z M448.1,382.5h-1.2v-1.1h1.2V382.5z M448.1,380.4h-1.2v-1.1
			h1.2V380.4z M448.1,378.2h-1.2v-1.1h1.2V378.2z"/>
		<path d="M337.6,95.9l-0.7-1L337.6,95.9L337.6,95.9z M338.6,95.3l-0.7-1l0.9-0.6l0.7,1L338.6,95.3z M340.3,94.2l-0.7-1l0.9-0.6
			l0.7,1.1L340.3,94.2z M342.1,93.1l-0.6-1.1l0.9-0.6l0.6,1.1L342.1,93.1z M344,92l-0.6-1.1l0.9-0.5l0.6,1.1L344,92z M345.8,90.9
			l-0.6-1.1l0.9-0.5l0.6,1.1L345.8,90.9z M347.6,89.8l-0.6-1.1l0.9-0.5l0.6,1.1L347.6,89.8z M349.5,88.8l-0.6-1.1l0.9-0.5l0.6,1.1
			L349.5,88.8z M351.3,87.7l-0.6-1.1l0.9-0.5l0.6,1.1L351.3,87.7z M353.2,86.7l-0.6-1.1l0.9-0.5l0.6,1.1L353.2,86.7z M355.1,85.7
			l-0.6-1.1l0.9-0.5l0.6,1.1L355.1,85.7z M357,84.8l-0.6-1.1l1-0.5l0.6,1.1L357,84.8z M358.9,83.8l-0.6-1.1l1-0.5l0.5,1.1
			L358.9,83.8z M360.8,82.9l-0.5-1.1l1-0.5l0.5,1.1L360.8,82.9z M362.7,81.9l-0.5-1.1l1-0.5l0.5,1.1L362.7,81.9z M364.6,81l-0.5-1.1
			l1-0.4l0.5,1.1L364.6,81z M366.5,80.2L366,79l1-0.4l0.5,1.1L366.5,80.2z M368.5,79.3l-0.5-1.1l1-0.4l0.5,1.1L368.5,79.3z
			 M370.4,78.4l-0.5-1.1l1-0.4l0.5,1.1L370.4,78.4z M372.4,77.6l-0.5-1.1l1-0.4l0.5,1.1L372.4,77.6z M374.3,76.8l-0.5-1.1l1-0.4
			l0.5,1.1L374.3,76.8z M376.3,76l-0.5-1.2l1-0.4l0.4,1.2L376.3,76z M378.3,75.2l-0.4-1.2l1-0.4l0.4,1.2L378.3,75.2z M380.3,74.5
			l-0.4-1.2l1-0.4l0.4,1.2L380.3,74.5z M382.3,73.8l-0.4-1.2l1-0.4l0.4,1.2L382.3,73.8z M384.3,73.1l-0.4-1.2l1-0.3l0.4,1.2
			L384.3,73.1z M386.3,72.4l-0.4-1.2l1-0.3l0.4,1.2L386.3,72.4z M388.3,71.7l-0.4-1.2l1-0.3l0.4,1.2L388.3,71.7z M390.3,71.1
			l-0.4-1.2l1-0.3l0.4,1.2L390.3,71.1z M392.4,70.5l-0.3-1.2l1-0.3l0.3,1.2L392.4,70.5z M394.4,69.9l-0.3-1.2l1-0.3l0.3,1.2
			L394.4,69.9z M396.4,69.3l-0.3-1.2l1-0.3l0.3,1.2L396.4,69.3z M398.5,68.8l-0.3-1.2l1-0.3l0.3,1.2L398.5,68.8z M400.6,68.3
			l-0.3-1.2l1-0.2l0.3,1.2L400.6,68.3z M402.6,67.8l-0.3-1.2l1-0.2l0.3,1.2L402.6,67.8z M404.7,67.4l-0.2-1.2l1-0.2l0.2,1.2
			L404.7,67.4z M406.8,67l-0.2-1.2l1.1-0.2l0.2,1.2L406.8,67z M408.9,66.6l-0.2-1.2l1.1-0.2l0.2,1.2L408.9,66.6z M486.2,66.3
			c0,0-0.4,0-1.1-0.1l0.1-1.2c0.7,0.1,1.1,0.1,1.1,0.1L486.2,66.3z M411,66.3l-0.2-1.2l1.1-0.2l0.2,1.2L411,66.3z M484.1,66
			l-1.1-0.1l0.1-1.2l1.1,0.1L484.1,66z M413.1,66l-0.2-1.2l1.1-0.1l0.2,1.2L413.1,66z M482,65.8l-1.1-0.1l0.1-1.2l1.1,0.1L482,65.8z
			 M415.2,65.7l-0.2-1.2l1.1-0.1l0.1,1.2L415.2,65.7z M479.8,65.6l-1.1-0.1l0.1-1.2l1.1,0.1L479.8,65.6z M417.3,65.4l-0.1-1.2
			l1.1-0.1l0.1,1.2L417.3,65.4z M477.7,65.4l-1.1-0.1l0.1-1.2l1.1,0.1L477.7,65.4z M475.6,65.2l-1.1-0.1l0.1-1.2l1.1,0.1L475.6,65.2
			z M419.4,65.2l-0.1-1.2l1.1-0.1l0.1,1.2L419.4,65.2z M473.5,65.1l-1.1-0.1l0.1-1.2l1.1,0.1L473.5,65.1z M421.5,65l-0.1-1.2
			l1.1-0.1l0.1,1.2L421.5,65z M471.4,64.9l-1.1-0.1l0.1-1.2l1.1,0.1L471.4,64.9z M423.6,64.8l-0.1-1.2l1.1-0.1l0.1,1.2L423.6,64.8z
			 M469.3,64.8l-1.1-0.1l0.1-1.2l1.1,0.1L469.3,64.8z M425.7,64.7l-0.1-1.2l1.1-0.1l0.1,1.2L425.7,64.7z M467.1,64.6l-1.1-0.1
			l0.1-1.2l1.1,0.1L467.1,64.6z M427.9,64.5l-0.1-1.2l1.1-0.1l0.1,1.2L427.9,64.5z M465,64.5l-1.1-0.1l0.1-1.2l1.1,0.1L465,64.5z
			 M430,64.4l-0.1-1.2l1.1-0.1l0.1,1.2L430,64.4z M462.9,64.4l-1.1-0.1l0.1-1.2l1.1,0.1L462.9,64.4z M460.8,64.3l-1.1,0l0.1-1.2
			l1.1,0L460.8,64.3z M432.1,64.3L432,63l1.1,0l0.1,1.2L432.1,64.3z M458.6,64.2l-1.1,0l0-1.2l1.1,0L458.6,64.2z M434.2,64.2l0-1.2
			l1.1,0l0,1.2L434.2,64.2z M456.5,64.1l-1.1,0l0-1.2l1.1,0L456.5,64.1z M436.3,64.1l0-1.2l1.1,0l0,1.2L436.3,64.1z M454.4,64.1
			l-1.1,0l0-1.2l1.1,0L454.4,64.1z M438.5,64.1l0-1.2l1.1,0l0,1.2L438.5,64.1z M452.3,64l-1.1,0l0-1.2l1.1,0L452.3,64z M440.6,64
			l0-1.2l1.1,0l0,1.2L440.6,64z M450.1,64l-1.1,0l0-1.2l1.1,0L450.1,64z M442.7,64l0-1.2l1.1,0l0,1.2L442.7,64z M448,64l-1.1,0
			l0-1.2l1.1,0L448,64z M444.8,64l0-1.2l1.1,0V64L444.8,64z"/>
		<path d="M345.1,86.7l-0.7-1c0.2-0.1,0.5-0.4,0.9-0.6l0.7,1C345.6,86.3,345.3,86.5,345.1,86.7z M346.8,85.5l-0.7-1l0.9-0.6l0.7,1
			L346.8,85.5z M348.6,84.4l-0.7-1.1l0.9-0.6l0.6,1.1L348.6,84.4z M350.4,83.3l-0.6-1.1l0.9-0.5l0.6,1.1L350.4,83.3z M352.3,82.2
			l-0.6-1.1l0.9-0.5l0.6,1.1L352.3,82.2z M354.1,81.2l-0.6-1.1l0.9-0.5l0.6,1.1L354.1,81.2z M356,80.1l-0.6-1.1l0.9-0.5l0.6,1.1
			L356,80.1z M357.8,79.1l-0.6-1.1l0.9-0.5l0.6,1.1L357.8,79.1z M359.7,78.1l-0.6-1.1l1-0.5l0.6,1.1L359.7,78.1z M361.6,77.2
			l-0.6-1.1l1-0.5l0.5,1.1L361.6,77.2z M363.5,76.3l-0.5-1.1l1-0.5l0.5,1.1L363.5,76.3z M365.4,75.3l-0.5-1.1l1-0.4l0.5,1.1
			L365.4,75.3z M367.4,74.5l-0.5-1.1l1-0.4l0.5,1.1L367.4,74.5z M369.3,73.6l-0.5-1.1l1-0.4l0.5,1.1L369.3,73.6z M371.3,72.7
			l-0.5-1.1l1-0.4l0.5,1.1L371.3,72.7z M373.2,71.9l-0.5-1.1l1-0.4l0.5,1.1L373.2,71.9z M375.2,71.1l-0.5-1.2l1-0.4l0.5,1.2
			L375.2,71.1z M377.2,70.4l-0.4-1.2l1-0.4l0.4,1.2L377.2,70.4z M379.1,69.6l-0.4-1.2l1-0.4l0.4,1.2L379.1,69.6z M381.1,68.9
			l-0.4-1.2l1-0.4l0.4,1.2L381.1,68.9z M383.1,68.2l-0.4-1.2l1-0.3l0.4,1.2L383.1,68.2z M385.2,67.5l-0.4-1.2l1-0.3l0.4,1.2
			L385.2,67.5z M387.2,66.9l-0.4-1.2l1-0.3l0.4,1.2L387.2,66.9z M389.2,66.2l-0.4-1.2l1-0.3l0.4,1.2L389.2,66.2z M391.2,65.6
			l-0.3-1.2l1-0.3l0.3,1.2L391.2,65.6z M393.3,65.1l-0.3-1.2l1-0.3l0.3,1.2L393.3,65.1z M395.3,64.5l-0.3-1.2l1-0.3l0.3,1.2
			L395.3,64.5z M397.4,64l-0.3-1.2l1-0.3l0.3,1.2L397.4,64z M399.5,63.5l-0.3-1.2l1-0.2l0.3,1.2L399.5,63.5z M401.5,63l-0.3-1.2
			l1-0.2l0.3,1.2L401.5,63z M403.6,62.6l-0.2-1.2l1-0.2l0.2,1.2L403.6,62.6z M405.7,62.2l-0.2-1.2l1-0.2l0.2,1.2L405.7,62.2z
			 M407.8,61.8l-0.2-1.2l1.1-0.2l0.2,1.2L407.8,61.8z M409.9,61.5l-0.2-1.2l1.1-0.2l0.2,1.2L409.9,61.5z M412,61.2l-0.2-1.2l1.1-0.2
			L413,61L412,61.2z M414.1,60.9l-0.2-1.2l1.1-0.1l0.2,1.2L414.1,60.9z M416.2,60.6l-0.1-1.2l1.1-0.1l0.1,1.2L416.2,60.6z
			 M418.3,60.4l-0.1-1.2l1.1-0.1l0.1,1.2L418.3,60.4z M482.9,60.3c0,0-0.4,0-1.1-0.1L482,59c0.7,0.1,1.1,0.1,1.1,0.1L482.9,60.3z
			 M420.4,60.1l-0.1-1.2l1.1-0.1l0.1,1.2L420.4,60.1z M480.8,60.1l-1.1-0.1l0.1-1.2l1.1,0.1L480.8,60.1z M422.5,59.9l-0.1-1.2
			l1.1-0.1l0.1,1.2L422.5,59.9z M478.7,59.9l-1.1-0.1l0.1-1.2l1.1,0.1L478.7,59.9z M424.6,59.8l-0.1-1.2l1.1-0.1l0.1,1.2L424.6,59.8
			z M476.6,59.7l-1.1-0.1l0.1-1.2l1.1,0.1L476.6,59.7z M474.5,59.6l-1.1-0.1l0.1-1.2l1.1,0.1L474.5,59.6z M426.7,59.6l-0.1-1.2
			l1.1-0.1l0.1,1.2L426.7,59.6z M472.4,59.4l-1.1-0.1l0.1-1.2l1.1,0.1L472.4,59.4z M428.8,59.4l-0.1-1.2l1.1-0.1l0.1,1.2L428.8,59.4
			z M470.2,59.3l-1.1-0.1l0.1-1.2l1.1,0.1L470.2,59.3z M431,59.3l-0.1-1.2l1.1-0.1l0.1,1.2L431,59.3z M468.1,59.2l-1.1-0.1l0.1-1.2
			l1.1,0.1L468.1,59.2z M433.2,59.2l-0.1-0.6l0-0.6l1.1-0.1l0.1,1.2L433.2,59.2z M466,59.1l-1.1,0l0.1-1.2l1.1,0L466,59.1z
			 M435.3,59.1l-0.1-0.6l0-0.6l1.1,0l0.1,1.2L435.3,59.1z M463.9,59l-1.1,0l0-1.2l1.1,0L463.9,59z M437.4,59l-0.1-0.6l0-0.6l1.1,0
			l0,1.2L437.4,59z M461.7,58.9l-1.1,0l0-1.2l1.1,0L461.7,58.9z M439.6,58.9l-0.1-0.6l0-0.6l1.1,0l0,1.2L439.6,58.9z M459.6,58.9
			l-1.1,0l0-1.2l1.1,0L459.6,58.9z M441.6,58.9l-0.1-1.2l1.1,0l0,1.2L441.6,58.9z M457.5,58.8l-1.1,0l0-1.2l1.1,0L457.5,58.8z
			 M443.7,58.8l0-1.2l1.1,0l0,1.2L443.7,58.8z M455.4,58.8l-1.1,0l0-1.2l1.1,0L455.4,58.8z M445.8,58.8l0-1.2l1.1,0l0,1.2
			L445.8,58.8z M453.2,58.8l-1.1,0l0-1.2l1.1,0L453.2,58.8z M447.9,58.8l0-1.2l1.1,0l0,1.2L447.9,58.8z M451.1,58.8l-1.1,0l0-1.2
			l1.1,0L451.1,58.8z"/>
	</g>
</g>
<g id="SHADING">
	<g opacity="2.000000e-02">
		<path d="M493.8,230.8c0,0-0.6-25.8-9.1-41.6c-8.4-15.7-28.5-39.4-28.5-39.4s24.8,8.1,30.3,24.2S493.8,230.8,493.8,230.8z"/>
		<path d="M491,218c0,0-1.4-12.7-15.4-25.4c-14-12.7-25.9-17.8-25.9-17.8L491,218z"/>
		<path d="M487.7,320.6c0,0-30.3-49.2-43.5-61.8c-13.2-12.6-27.4-23.1-27.4-23.1s24.6,28.7,31.4,39.8
			C454.9,286.6,487.7,320.6,487.7,320.6z"/>
		<path d="M442.9,307.2c0,0-22.6-14.4-29.2-21.1s-17.9-16.8-17.9-16.8s7.3,19.3,16,26.2C420.6,302.4,442.9,307.2,442.9,307.2z"/>
		<path d="M475.5,635.5c0,0-19.2-27.3-22.3-43.4c-3.1-16.1-1.2-38.5-1.2-38.5L475.5,635.5z"/>
		<path d="M462.4,631.8c0,0-15.5-15.5-18.6-26.7c-3.1-11.2-1.9-19.9-1.9-19.9s-6.2,23.6-3.1,27.9
			C441.9,617.5,462.4,631.8,462.4,631.8z"/>
	</g>
</g>
</svg>
