<?xml version="1.0" encoding="utf-8"?>
<!-- Generator: Adobe Illustrator 26.0.2, SVG Export Plug-In . SVG Version: 6.00 Build 0)  -->
<svg version="1.1" xmlns="http://www.w3.org/2000/svg" xmlns:xlink="http://www.w3.org/1999/xlink" x="0px" y="0px"
	 viewBox="0 0 610.4 997.4" enable-background="new 0 0 740.4 997.4" xml:space="preserve">

<g id="OUTLINE">
	<path fill="#FFFFFF" stroke="#A39E9B" d="M223,361.4c-7.7-27.6-23-128.9-10.7-179.6c12.3-50.6,52.2-107.4,52.2-115.1
		c0-1.7,1.2-4.3,3.2-7.3c1.2-0.1,2.5-0.2,3.9-0.3c-1.3,0.1-2.6,0.2-3.9,0.3c6.9-11,22.9-28,22.9-28s62.9,1.5,78.3,13.8
		c5.3,4.3,19.3,20.5,35.7,40.1c0,0,0,0,0,0c30.9,37.1,71.7,84.8,76.4,90.3c6.6,7.8,59.9,99.8,62.9,133.5c3.1,33.8,4.6,75.2,0,93.6
		c-4.6,18.4,1.5,113.6-3.1,148.9c-4.6,35.3-7.5,153.9-15.2,192.3c0,0-54.7-13.8-112.2-3.9c-19.8,3.4-39.9,9.6-58.2,20.2
		c-20.3,11.8-37.6,24.7-52.4,38.2c-76.6,69.9-85.2,153.5-87.9,153.4c-3.2,0,43.4-446.2,43.4-467.7C258.3,462.7,230.7,389,223,361.4z
		"/>
</g>
	
<g id="SHIRT_BODY">
	<path fill="#FFFFFF" stroke="#A39E9B" stroke-width="0.3024" d="M543.8,309.3c-3.1-33.8-56.4-125.7-62.9-133.5
		c-4.7-5.5-45.5-53.3-76.4-90.3c-17.5-9.3-45.1-22.7-64.3-25.8c-20-3.2-52.8-1.6-72.6-0.2c-1.9,3.1-3.2,5.7-3.2,7.3
		c0,7.7-39.9,64.5-52.2,115.1c-12.3,50.6,3.1,151.9,10.7,179.6c7.7,27.6,35.3,101.3,35.3,122.8c0,21.5-46.6,467.7-43.4,467.7
		c2.7,0,11.2-83.6,87.9-153.4V361.7h110.6v378.4c57.4-9.9,112.2,3.9,112.2,3.9c7.7-38.4,10.6-157,15.2-192.3
		c4.6-35.3-1.5-130.5,3.1-148.9C548.4,384.5,546.9,343,543.8,309.3z"/>
</g>
		
	
<g id="SHIRT_BACK">
	<g id="SHIRT_BACK_BOTTOM">
		<g>
			<g>
				<path fill="#A39E9B" d="M332.7,466.4l-76.9,0.3c-0.5-1.9-1-4.1-1.5-6.1l79.2,0.1C333.2,462.6,332.9,464.5,332.7,466.4z"/>
			</g>
		</g>
	</g>
	<g id="SHIRT_BACK_MIDDLE">
		<g>
			<path fill="#64615E" d="M333.5,460.7l-79.2-0.1c-6.1-21.5-14.5-48.1-21.4-69.3h108.7C340.3,412.5,342.1,428.9,333.5,460.7z"/>
		</g>
	</g>
	<g id="SHIRT_BACK_TOP">
		<g>
			<path fill="#A39E9B" d="M341,393.6H233.6c-0.5-1.5-1-3-1.5-4.5h110C341.7,390.5,341.4,392,341,393.6z"/>
		</g>
	</g>
</g>
<g id="SHIRT_FAUX_UPPER_BACK_PANEL">
	<path fill="#A39E9B" stroke="#A39E9B" stroke-width="0.3472" d="M351.7,96.2c0-12.6-10.2-25.7-13.2-37.2
		c-19.8-1.1-54.4-0.7-70.5,0.5c-2,3.2-3.3,5.9-3.3,7.7c0,8-39.8,65.5-52.6,118.4c-2.4,9.8-3.5,24.5-4.1,37c4.3,0.6,6.6-0.5,11-0.5
		C281.9,222,351.7,166.6,351.7,96.2z"/>
</g>
	<g id="RIGHT_BODY">
<g id="SHIRT_SIDE_PANELS">
	<path stroke="#A39E9B" stroke-width="0.3024" d="M302.8,361.7v436.8c14.8-13.5,32.1-26.4,52.4-38.2c18.3-10.6,38.4-16.8,58.2-20.2
		V361.7H302.8z"/>
</g>
		</g>
	<g id="CUSTOM"></g>http://localhost:16740/
<g id="SHIRT_SLEEVES">
	<g>
		
			<image overflow="visible" opacity="0.2" width="216" height="312" xlink:href="SVG/SBDUC65/D64BAF39.png"  transform="matrix(1 0 0 1 239.2105 79.1053)">
		</image>
		<g>
			<path fill="#FFFFFF" d="M439.2,193.7c-1.3-36.9-11-85.9-61.6-95.4c-50.6-9.5-81.1,6-81.1,6s-16.2,6.6-24.6,27.6
				c-8.3,21.1-17.1,54.8-17.5,70.2c-1.1,35.9,7.7,82.4,7.5,93.2s-3.3,63.7-3.3,63.7s10,13.3,85.1,15.6c76.1,2.4,84.5-14.5,84.5-14.5
				s-1.7-70.5,0.3-80C430.6,270.8,440.5,230.6,439.2,193.7z"/>
			<path fill="none" stroke="#A39E9B" stroke-width="0.3024" d="M439.2,193.7c-1.3-36.9-11-85.9-61.6-95.4c-50.6-9.5-81.1,6-81.1,6
				s-16.2,6.6-24.6,27.6c-8.3,21.1-17.1,54.8-17.5,70.2c-1.1,35.9,7.7,82.4,7.5,93.2s-3.3,63.7-3.3,63.7s10,13.3,85.1,15.6
				c76.1,2.4,84.5-14.5,84.5-14.5s-1.7-70.5,0.3-80C430.6,270.8,440.5,230.6,439.2,193.7z"/>
		</g>
	</g>
</g>
<g id="SHIRT_COLLAR">
	<path fill="#FFFFFF" stroke="#A39E9B" stroke-width="0.25" d="M340.2,59.6c19.3,3.1,46.8,16.5,64.3,25.8
		c-16.4-19.6-30.4-35.9-35.7-40.1c-15.3-12.3-78.3-13.8-78.3-13.8s-16,16.9-22.9,28C287.5,58,320.2,56.4,340.2,59.6z"/>
</g>
<g id="SHIRT_STITCHING">
	<g>
		<path d="M354.9,339.9l-1,0v1.2l1.1,0L354.9,339.9 M351.7,339.9l0,1.2l1.1,0l0-1.2L351.7,339.9 M357,339.9l-1,0l0,1.2l1.1,0
			L357,339.9 M349.6,339.9l0,1.2l1.1,0l0-1.2L349.6,339.9 M359.1,339.9l-1,0l0,1.2l1.1,0L359.1,339.9 M361.2,339.9l-1,0l0,1.2l1.1,0
			L361.2,339.9 M347.5,339.9l0,1.2l1.1,0l0-1.2L347.5,339.9 M363.2,339.8l-1,0l0,1.2l1.1,0L363.2,339.8 M345.4,339.8l0,1.2l1.1,0
			l0-1.2L345.4,339.8 M365.3,339.8l-1,0l0,1.2l1.1,0L365.3,339.8 M343.3,339.7l-0.1,1.2l1.1,0l0-1.2L343.3,339.7 M367.4,339.7l-1,0
			l0,1.2l1.1,0L367.4,339.7 M341.3,339.6l-0.1,1.2l1.1,0.1l0.1-1.2L341.3,339.6 M369.5,339.6l-1,0l0,1.2l1,0L369.5,339.6
			 M371.6,339.5l-1.1,0l0.1,1.2l1.1,0L371.6,339.5 M339.2,339.5l-0.1,1.2l1.1,0.1l0.1-1.2L339.2,339.5 M373.7,339.4l-1,0.1l0.1,1.2
			l1.1-0.1L373.7,339.4 M337.1,339.4l-0.1,1.2l1,0.1l0.1-1.2L337.1,339.4 M375.8,339.3l-1,0.1l0.1,1.2l1.1-0.1L375.8,339.3
			 M335,339.2l-0.1,1.2l1.1,0.1l0.1-1.2L335,339.2 M377.9,339.2l-1,0.1l0.1,1.2l1-0.1L377.9,339.2 M332.9,339.1l-0.1,1.2l1,0.1
			l0.1-1.2L332.9,339.1 M380,339.1l-1,0.1l0.1,1.2l1-0.1L380,339.1 M382.1,338.9l-1,0.1l0.1,1.2l1-0.1L382.1,338.9 M330.8,338.9
			l-0.1,1.2l1,0.1l0.1-1.2L330.8,338.9 M384.2,338.8l-1,0.1l0.1,1.2l1-0.1L384.2,338.8 M328.7,338.7l-0.1,1.2l1,0.1l0.1-1.2
			L328.7,338.7 M386.3,338.7l-1,0.1l0.1,1.2l1-0.1L386.3,338.7 M326.6,338.6l-0.1,1.2l1,0.1l0.1-1.2L326.6,338.6 M388.4,338.5
			l-1,0.1l0.1,1.2l1-0.1L388.4,338.5 M324.5,338.4l-0.1,1.2l1,0.1l0.1-1.2L324.5,338.4 M390.5,338.3l-1,0.1l0.1,1.2l1-0.1
			L390.5,338.3 M392.6,338.2l-1,0.1l0.1,1.2l1-0.1L392.6,338.2 M322.4,338.2l-0.1,1.2l1,0.1l0.1-1.2L322.4,338.2 M394.7,338l-1,0.1
			l0.1,1.2l1-0.1L394.7,338 M320.3,338l-0.1,1.2l1,0.1l0.1-1.2L320.3,338 M396.8,337.8l-1,0.1l0.1,1.2l1-0.1L396.8,337.8
			 M318.3,337.8l-0.1,1.2l1,0.1l0.1-1.2L318.3,337.8 M398.9,337.7l-1,0.1l0.1,1.2l1-0.1L398.9,337.7 M316.2,337.5l-0.1,1.2l1,0.1
			l0.1-1.2L316.2,337.5 M400.9,337.5l-1,0.1l0.1,1.2l1-0.1L400.9,337.5 M314.1,337.3l-0.1,1.2l1,0.1l0.1-1.2L314.1,337.3 M403,337.3
			l-1,0.1l0.1,1.2l1-0.1L403,337.3 M405.1,337.1l-1,0.1l0.1,1.2l1-0.1L405.1,337.1 M312,337.1l-0.1,1.2l1,0.1l0.1-1.2L312,337.1
			 M407.2,336.9l-1,0.1l0.1,1.2l1-0.1L407.2,336.9 M309.9,336.8l-0.1,1.2l1,0.1l0.1-1.2L309.9,336.8 M409.3,336.7l-1,0.1l0.1,1.2
			l1-0.1L409.3,336.7 M307.8,336.6l-0.1,1.2l1,0.1l0.1-1.2L307.8,336.6 M411.4,336.5l-1,0.1l0.1,1.2l1-0.1L411.4,336.5 M305.7,336.3
			l-0.1,1.2l1,0.1l0.1-1.2L305.7,336.3 M413.5,336.3l-1,0.1l0.1,1.2l1-0.1L413.5,336.3 M303.7,336.1l-0.2,1.2l1,0.1l0.1-1.2
			L303.7,336.1 M415.6,336l-1,0.1l0.1,1.2l1-0.1L415.6,336 M301.6,335.8l-0.2,1.2l1,0.1l0.2-1.2L301.6,335.8 M417.7,335.8l-1,0.1
			l0.1,1.2l1-0.1L417.7,335.8 M419.7,335.6l-1,0.1l0.1,1.2l1-0.1L419.7,335.6 M299.5,335.6l-0.2,1.2l1,0.1l0.2-1.2L299.5,335.6
			 M421.8,335.4l-1,0.1l0.1,1.2l1-0.1L421.8,335.4 M297.4,335.3l-0.2,1.2l1,0.1l0.2-1.2L297.4,335.3 M423.9,335.1l-1,0.1l0.1,1.2
			l1-0.1L423.9,335.1 M295.3,335l-0.2,1.2l1,0.1l0.2-1.2L295.3,335 M426,334.9l-1,0.1l0.1,1.2l1-0.1L426,334.9 M293.2,334.8
			l-0.2,1.2l1,0.1l0.2-1.2L293.2,334.8 M428.1,334.6l-1,0.1l0.1,1.2l1.1-0.1L428.1,334.6 M291.2,334.5l-0.2,1.2l1,0.1l0.2-1.2
			L291.2,334.5 M289.1,334.2l-0.2,1.2l1,0.1l0.2-1.2L289.1,334.2 M287,333.9l-0.2,1.2l1,0.1l0.2-1.2L287,333.9 M284.9,333.6
			l-0.2,1.2l1,0.1l0.2-1.2L284.9,333.6 M282.8,333.3l-0.2,1.2l1,0.1l0.2-1.2L282.8,333.3 M280.8,333l-0.2,1.2l1,0.2l0.2-1.2
			L280.8,333 M278.7,332.7l-0.2,1.2l1,0.2l0.2-1.2L278.7,332.7 M276.6,332.4l-0.2,1.2l1,0.2l0.2-1.2L276.6,332.4 M274.5,332.1
			l-0.2,1.2l1,0.2l0.2-1.2L274.5,332.1 M272.5,331.8l-0.2,1.2l1,0.2l0.2-1.2L272.5,331.8 M270.4,331.5l-0.2,1.2l1,0.2l0.2-1.2
			L270.4,331.5 M268.3,331.1l-0.2,1.2l1,0.2l0.2-1.2L268.3,331.1 M266.2,330.8L266,332l1,0.2l0.2-1.2L266.2,330.8 M264.1,330.5
			l-0.2,1.2l1,0.2l0.2-1.2L264.1,330.5 M262.1,330.1l-0.2,1.2l1,0.2l0.2-1.2L262.1,330.1 M260.7,329.9v1.2l0.2,0l0.2-1.2
			C260.8,329.9,260.7,329.9,260.7,329.9"/>
		<path d="M354.2,344.8l-1,0v1.2l1.1,0L354.2,344.8 M351.1,344.8l0,1.2l1.1,0l0-1.2L351.1,344.8 M356.3,344.8l-1,0l0,1.2l1.1,0
			L356.3,344.8 M349,344.8l0,1.2l1.1,0l0-1.2L349,344.8 M358.4,344.8l-1,0l0,1.2l1.1,0L358.4,344.8 M360.5,344.7l-1,0l0,1.2l1.1,0
			L360.5,344.7 M346.9,344.7l0,1.2l1.1,0l0-1.2L346.9,344.7 M362.6,344.7l-1,0l0,1.2l1.1,0L362.6,344.7 M344.8,344.7l0,1.2l1.1,0
			l0-1.2L344.8,344.7 M364.7,344.6l-1,0l0,1.2l1.1,0L364.7,344.6 M342.7,344.6l-0.1,1.2l1.1,0l0-1.2L342.7,344.6 M366.8,344.5l-1,0
			l0,1.2l1.1,0L366.8,344.5 M340.6,344.5l-0.1,1.2l1.1,0.1l0.1-1.2L340.6,344.5 M368.9,344.5l-1,0l0,1.2l1,0L368.9,344.5 M371,344.4
			l-1.1,0l0.1,1.2l1.1,0L371,344.4 M338.5,344.4l-0.1,1.2l1.1,0.1l0.1-1.2L338.5,344.4 M373.1,344.3l-1,0.1l0.1,1.2l1.1-0.1
			L373.1,344.3 M336.4,344.2l-0.1,1.2l1,0.1l0.1-1.2L336.4,344.2 M375.2,344.2l-1,0.1l0.1,1.2l1.1-0.1L375.2,344.2 M334.3,344.1
			l-0.1,1.2l1.1,0.1l0.1-1.2L334.3,344.1 M377.3,344l-1,0.1l0.1,1.2l1-0.1L377.3,344 M332.2,343.9l-0.1,1.2l1,0.1l0.1-1.2
			L332.2,343.9 M379.4,343.9l-1,0.1l0.1,1.2l1-0.1L379.4,343.9 M381.5,343.8l-1,0.1l0.1,1.2l1-0.1L381.5,343.8 M330.2,343.8
			l-0.1,1.2l1,0.1l0.1-1.2L330.2,343.8 M383.6,343.6l-1,0.1l0.1,1.2l1-0.1L383.6,343.6 M328.1,343.6l-0.1,1.2l1,0.1l0.1-1.2
			L328.1,343.6 M385.7,343.5l-1,0.1l0.1,1.2l1-0.1L385.7,343.5 M326,343.4l-0.1,1.2l1,0.1l0.1-1.2L326,343.4 M387.8,343.4l-1,0.1
			l0.1,1.2l1-0.1L387.8,343.4 M323.9,343.2l-0.1,1.2l1,0.1l0.1-1.2L323.9,343.2 M389.9,343.2l-1,0.1l0.1,1.2l1-0.1L389.9,343.2
			 M391.9,343l-1,0.1l0.1,1.2l1-0.1L391.9,343 M321.8,343l-0.1,1.2l1,0.1l0.1-1.2L321.8,343 M394,342.9l-1,0.1l0.1,1.2l1-0.1
			L394,342.9 M319.7,342.8l-0.1,1.2l1,0.1l0.1-1.2L319.7,342.8 M396.1,342.7l-1,0.1l0.1,1.2l1-0.1L396.1,342.7 M317.6,342.6
			l-0.1,1.2l1,0.1l0.1-1.2L317.6,342.6 M398.2,342.5l-1,0.1l0.1,1.2l1-0.1L398.2,342.5 M315.5,342.4l-0.1,1.2l1,0.1l0.1-1.2
			L315.5,342.4 M400.3,342.3l-1,0.1l0.1,1.2l1-0.1L400.3,342.3 M313.4,342.2l-0.1,1.2l1,0.1l0.1-1.2L313.4,342.2 M402.4,342.1
			l-1,0.1l0.1,1.2l1-0.1L402.4,342.1 M404.5,341.9l-1,0.1l0.1,1.2l1-0.1L404.5,341.9 M311.4,341.9l-0.1,1.2l1,0.1l0.1-1.2
			L311.4,341.9 M406.6,341.7l-1,0.1l0.1,1.2l1-0.1L406.6,341.7 M309.3,341.7l-0.1,1.2l1,0.1l0.1-1.2L309.3,341.7 M408.7,341.5
			l-1,0.1l0.1,1.2l1-0.1L408.7,341.5 M307.2,341.4l-0.1,1.2l1,0.1l0.1-1.2L307.2,341.4 M410.8,341.3l-1,0.1l0.1,1.2l1-0.1
			L410.8,341.3 M305.1,341.2l-0.1,1.2l1,0.1l0.1-1.2L305.1,341.2 M412.8,341.1l-1,0.1l0.1,1.2l1-0.1L412.8,341.1 M303,340.9
			l-0.2,1.2l1,0.1l0.1-1.2L303,340.9 M414.9,340.9l-1,0.1l0.1,1.2l1-0.1L414.9,340.9 M300.9,340.7l-0.2,1.2l1,0.1l0.2-1.2
			L300.9,340.7 M417,340.7l-1,0.1l0.1,1.2l1-0.1L417,340.7 M419.1,340.4l-1,0.1l0.1,1.2l1-0.1L419.1,340.4 M298.9,340.4l-0.2,1.2
			l1,0.1l0.2-1.2L298.9,340.4 M421.2,340.2l-1,0.1l0.1,1.2l1-0.1L421.2,340.2 M296.8,340.2l-0.2,1.2l1,0.1l0.2-1.2L296.8,340.2
			 M423.3,340l-1,0.1l0.1,1.2l1-0.1L423.3,340 M294.7,339.9l-0.2,1.2l1,0.1l0.2-1.2L294.7,339.9 M425.4,339.7l-1,0.1l0.1,1.2l1-0.1
			L425.4,339.7 M292.6,339.6l-0.2,1.2l1,0.1l0.2-1.2L292.6,339.6 M427.5,339.5l-1,0.1l0.1,1.2l1.1-0.1L427.5,339.5 M290.5,339.3
			l-0.2,1.2l1,0.1l0.2-1.2L290.5,339.3 M288.4,339l-0.2,1.2l1,0.1l0.2-1.2L288.4,339 M286.4,338.7l-0.2,1.2l1,0.1l0.2-1.2
			L286.4,338.7 M284.3,338.5l-0.2,1.2l1,0.1l0.2-1.2L284.3,338.5 M282.2,338.2l-0.2,1.2l1,0.1l0.2-1.2L282.2,338.2 M280.1,337.9
			l-0.2,1.2l1,0.2l0.2-1.2L280.1,337.9 M278,337.6l-0.2,1.2l1,0.2l0.2-1.2L278,337.6 M276,337.2l-0.2,1.2l1,0.2l0.2-1.2L276,337.2
			 M273.9,336.9l-0.2,1.2l1,0.2l0.2-1.2L273.9,336.9 M271.8,336.6l-0.2,1.2l1,0.2l0.2-1.2L271.8,336.6 M269.7,336.3l-0.2,1.2l1,0.2
			l0.2-1.2L269.7,336.3 M267.7,336l-0.2,1.2l1,0.2l0.2-1.2L267.7,336 M265.6,335.7l-0.2,1.2l1,0.2l0.2-1.2L265.6,335.7 M263.5,335.3
			l-0.2,1.2l1,0.2l0.2-1.2L263.5,335.3 M261.4,335l-0.2,1.2l1,0.2l0.2-1.2L261.4,335 M260.2,334.8l-0.6,0.1l0.6,0.7l-0.2-0.3
			l-0.1,0.6l0.3,0l0.1-0.4l0.1-0.8L260.2,334.8"/>
		<path d="M216.5,915.9l0.2-0.5l0.9,0.3l-0.1,0.5L216.5,915.9z M217,914.3l0.3-1l0.9,0.3l-0.3,1L217,914.3z M217.6,912.3l0.3-1
			l0.9,0.3l-0.3,1L217.6,912.3z M218.2,910.3l0.3-1l0.9,0.3l-0.3,1L218.2,910.3z M218.9,908.3l0.3-1l0.9,0.3l-0.3,1L218.9,908.3z
			 M219.6,906.3l0.3-1l0.9,0.3l-0.3,1L219.6,906.3z M220.3,904.3l0.4-1l0.9,0.3l-0.4,1L220.3,904.3z M221,902.3l0.4-1l0.9,0.3
			l-0.4,1L221,902.3z M221.7,900.4l0.4-1l0.9,0.3l-0.4,1L221.7,900.4z M222.5,898.4l0.4-1l0.9,0.3l-0.4,1L222.5,898.4z M223.3,896.5
			l0.4-1l0.9,0.3l-0.4,1L223.3,896.5z M224,894.5l0.4-1l0.8,0.3l-0.4,1L224,894.5z M224.8,892.5l0.4-1l0.8,0.4l-0.4,1L224.8,892.5z
			 M225.6,890.6l0.4-1l0.8,0.4l-0.4,1L225.6,890.6z M226.5,888.7l0.4-1l0.8,0.4l-0.4,1L226.5,888.7z M227.3,886.7l0.4-1l0.8,0.4
			l-0.4,1L227.3,886.7z M228.1,884.8l0.4-1l0.8,0.4l-0.4,1L228.1,884.8z M229,882.9l0.4-1l0.8,0.4l-0.4,1L229,882.9z M229.9,881
			l0.4-1l0.8,0.4l-0.4,1L229.9,881z M230.8,879.1l0.4-1l0.8,0.4l-0.4,0.9L230.8,879.1z M231.6,877.2l0.5-0.9l0.8,0.4l-0.5,0.9
			L231.6,877.2z M232.6,875.3l0.5-0.9l0.8,0.4l-0.5,0.9L232.6,875.3z M233.5,873.4l0.5-0.9l0.8,0.4l-0.5,0.9L233.5,873.4z
			 M234.4,871.5l0.5-0.9l0.8,0.4l-0.5,0.9L234.4,871.5z M235.4,869.6l0.5-0.9l0.8,0.4l-0.5,0.9L235.4,869.6z M236.3,867.8l0.5-0.9
			l0.8,0.4l-0.5,0.9L236.3,867.8z M237.3,865.9l0.5-0.9l0.8,0.4l-0.5,0.9L237.3,865.9z M238.3,864l0.5-0.9l0.8,0.4l-0.5,0.9
			L238.3,864z M239.3,862.2l0.5-0.9l0.8,0.4l-0.5,0.9L239.3,862.2z M240.3,860.3l0.5-0.9l0.8,0.4l-0.5,0.9L240.3,860.3z
			 M241.3,858.5l0.5-0.9l0.8,0.5l-0.5,0.9L241.3,858.5z M242.4,856.7l0.5-0.9l0.8,0.5l-0.5,0.9L242.4,856.7z M243.4,854.9l0.5-0.9
			l0.8,0.5l-0.5,0.9L243.4,854.9z M244.5,853l0.5-0.9l0.8,0.5l-0.5,0.9L244.5,853z M245.6,851.2l0.5-0.9l0.8,0.5l-0.5,0.9
			L245.6,851.2z M246.6,849.4l0.6-0.9l0.8,0.5l-0.5,0.9L246.6,849.4z M247.7,847.6l0.6-0.9l0.8,0.5l-0.6,0.9L247.7,847.6z
			 M248.9,845.9l0.6-0.9l0.8,0.5l-0.6,0.9L248.9,845.9z M250,844.1l0.6-0.9l0.8,0.5l-0.6,0.9L250,844.1z M251.1,842.3l0.6-0.9
			l0.8,0.5l-0.6,0.9L251.1,842.3z M252.3,840.6l0.6-0.9l0.8,0.5l-0.6,0.9L252.3,840.6z M253.4,838.8l0.6-0.9l0.8,0.5l-0.6,0.9
			L253.4,838.8z M254.6,837.1l0.6-0.9l0.8,0.5l-0.6,0.9L254.6,837.1z M255.8,835.3l0.6-0.9l0.8,0.5l-0.6,0.9L255.8,835.3z
			 M257,833.6l0.6-0.9l0.7,0.5l-0.6,0.9L257,833.6z M258.2,831.9l0.6-0.9l0.7,0.5l-0.6,0.9L258.2,831.9z M259.5,830.2l0.6-0.8
			l0.7,0.5l-0.6,0.8L259.5,830.2z M260.7,828.5l0.6-0.8l0.7,0.5l-0.6,0.8L260.7,828.5z M262,826.8l0.6-0.8l0.7,0.6l-0.6,0.8
			L262,826.8z M263.3,825.2l0.6-0.8l0.7,0.6l-0.6,0.8L263.3,825.2z M264.5,823.5l0.6-0.8l0.7,0.6l-0.6,0.8L264.5,823.5z
			 M265.8,821.8l0.7-0.8l0.7,0.6l-0.7,0.8L265.8,821.8z M267.2,820.2l0.7-0.8l0.7,0.6l-0.7,0.8L267.2,820.2z M268.5,818.6l0.7-0.8
			l0.7,0.6l-0.7,0.8L268.5,818.6z M269.8,816.9l0.7-0.8l0.7,0.6l-0.7,0.8L269.8,816.9z M271.2,815.3l0.7-0.8l0.7,0.6l-0.7,0.8
			L271.2,815.3z M272.5,813.7l0.7-0.8l0.7,0.6l-0.7,0.8L272.5,813.7z M273.9,812.1l0.7-0.8l0.7,0.6l-0.7,0.8L273.9,812.1z
			 M275.3,810.6l0.7-0.8l0.7,0.6l-0.7,0.8L275.3,810.6z M276.7,809l0.7-0.8l0.7,0.6l-0.7,0.8L276.7,809z M278.1,807.4l0.7-0.8
			l0.7,0.6l-0.7,0.8L278.1,807.4z M279.5,805.9l0.7-0.8l0.7,0.6l-0.7,0.8L279.5,805.9z M280.9,804.3l0.7-0.8l0.7,0.6l-0.7,0.8
			L280.9,804.3z M282.4,802.8l0.7-0.8l0.7,0.6l-0.7,0.8L282.4,802.8z M283.8,801.2l0.7-0.8l0.7,0.6l-0.7,0.8L283.8,801.2z
			 M285.3,799.7l0.7-0.8l0.7,0.6l-0.7,0.8L285.3,799.7z M286.7,798.2l0.7-0.8l0.7,0.6l-0.7,0.7L286.7,798.2z M288.2,796.7l0.7-0.7
			l0.6,0.6l-0.7,0.7L288.2,796.7z M289.7,795.2l0.7-0.7l0.6,0.7l-0.7,0.7L289.7,795.2z M291.2,793.7l0.7-0.7l0.6,0.7l-0.7,0.7
			L291.2,793.7z M292.7,792.3l0.8-0.7l0.6,0.7l-0.8,0.7L292.7,792.3z M294.2,790.8l0.8-0.7l0.6,0.7l-0.8,0.7L294.2,790.8z
			 M295.7,789.4l0.8-0.7l0.6,0.7l-0.8,0.7L295.7,789.4z M297.2,787.9l0.8-0.7l0.6,0.7l-0.8,0.7L297.2,787.9z M298.8,786.5l0.8-0.7
			l0.6,0.7l-0.8,0.7L298.8,786.5z M300.3,785.1l0.8-0.7l0.6,0.7l-0.8,0.7L300.3,785.1z M301.9,783.7l0.8-0.7l0.6,0.7l-0.8,0.7
			L301.9,783.7z M303.5,782.3l0.8-0.7l0.6,0.7l-0.8,0.7L303.5,782.3z M305.1,780.9l0.8-0.7l0.6,0.7l-0.8,0.7L305.1,780.9z
			 M306.7,779.5l0.8-0.7l0.6,0.7l-0.8,0.7L306.7,779.5z M308.3,778.2l0.8-0.7l0.6,0.7l-0.8,0.7L308.3,778.2z M309.9,776.8l0.8-0.7
			l0.6,0.7l-0.8,0.7L309.9,776.8z M311.5,775.5l0.8-0.7l0.6,0.7l-0.8,0.7L311.5,775.5z M313.1,774.2l0.8-0.7l0.6,0.7l-0.8,0.7
			L313.1,774.2z M314.8,772.9l0.8-0.6l0.6,0.7l-0.8,0.6L314.8,772.9z M316.4,771.6l0.8-0.6l0.6,0.7l-0.8,0.6L316.4,771.6z
			 M318.1,770.3l0.8-0.6l0.6,0.7l-0.8,0.6L318.1,770.3z M319.8,769l0.8-0.6l0.5,0.7l-0.8,0.6L319.8,769z M321.4,767.8l0.8-0.6
			l0.5,0.7l-0.8,0.6L321.4,767.8z M323.1,766.6l0.9-0.6l0.5,0.7l-0.8,0.6L323.1,766.6z M324.8,765.3l0.9-0.6l0.5,0.7l-0.9,0.6
			L324.8,765.3z M326.6,764.1l0.9-0.6l0.5,0.8l-0.9,0.6L326.6,764.1z M328.3,762.9l0.9-0.6l0.5,0.8l-0.9,0.6L328.3,762.9z
			 M330,761.8l0.9-0.6l0.5,0.8l-0.9,0.6L330,761.8z M331.8,760.6l0.9-0.6l0.5,0.8l-0.9,0.6L331.8,760.6z M333.5,759.4l0.9-0.6
			l0.5,0.8l-0.9,0.6L333.5,759.4z M335.3,758.3l0.9-0.6l0.5,0.8l-0.9,0.6L335.3,758.3z M337.1,757.2l0.9-0.6l0.5,0.8l-0.9,0.5
			L337.1,757.2z M338.9,756.1l0.9-0.5l0.5,0.8l-0.9,0.5L338.9,756.1z M340.6,755l0.9-0.5l0.5,0.8l-0.9,0.5L340.6,755z M342.5,754
			l0.9-0.5l0.5,0.8l-0.9,0.5L342.5,754z M344.3,752.9l0.9-0.5l0.4,0.8l-0.9,0.5L344.3,752.9z M346.1,751.9l0.9-0.5l0.4,0.8l-0.9,0.5
			L346.1,751.9z M347.9,750.9l0.9-0.5l0.4,0.8l-0.9,0.5L347.9,750.9z M349.8,749.9l0.9-0.5l0.4,0.8l-0.9,0.5L349.8,749.9z
			 M351.7,748.9l0.9-0.5l0.4,0.8l-0.9,0.5L351.7,748.9z M353.5,748l0.9-0.5l0.4,0.8l-0.9,0.5L353.5,748z M355.4,747.1l0.9-0.5
			l0.4,0.8l-0.9,0.5L355.4,747.1z M357.3,746.1l0.9-0.4l0.4,0.8l-0.9,0.4L357.3,746.1z M359.2,745.3l1-0.4l0.4,0.8l-0.9,0.4
			L359.2,745.3z M361.1,744.4l1-0.4l0.4,0.8l-1,0.4L361.1,744.4z M363,743.5l1-0.4l0.4,0.8l-1,0.4L363,743.5z M365,742.7l1-0.4
			l0.4,0.8l-1,0.4L365,742.7z M366.9,741.9l1-0.4l0.3,0.8l-1,0.4L366.9,741.9z M368.8,741.1l1-0.4l0.3,0.9l-1,0.4L368.8,741.1z
			 M370.8,740.4l1-0.4l0.3,0.9l-1,0.4L370.8,740.4z M372.8,739.6l1-0.4l0.3,0.9l-1,0.4L372.8,739.6z M374.7,738.9l1-0.3l0.3,0.9
			l-1,0.3L374.7,738.9z M376.7,738.2l1-0.3l0.3,0.9l-1,0.3L376.7,738.2z M378.7,737.6l1-0.3l0.3,0.9l-1,0.3L378.7,737.6z M380.7,737
			l1-0.3l0.3,0.9l-1,0.3L380.7,737z M382.7,736.3l1-0.3l0.3,0.9l-1,0.3L382.7,736.3z M384.8,735.8l1-0.3l0.2,0.9l-1,0.3L384.8,735.8
			z M386.8,735.2l1-0.3l0.2,0.9l-1,0.3L386.8,735.2z M388.8,734.7l1-0.3l0.2,0.9l-1,0.3L388.8,734.7z M525.7,735.1l0.3-0.9
			c0.7,0.2,1,0.3,1,0.3l-0.3,0.9C526.7,735.4,526.3,735.3,525.7,735.1z M390.8,734.1l1-0.3l0.2,0.9l-1,0.3L390.8,734.1z
			 M523.7,734.4l0.3-0.9l1,0.3l-0.3,0.9L523.7,734.4z M392.9,733.6l1-0.3l0.2,0.9l-1,0.3L392.9,733.6z M521.7,733.9l0.2-0.9l1,0.3
			l-0.3,0.9L521.7,733.9z M394.9,733.1l1-0.2l0.2,0.9l-1,0.2L394.9,733.1z M519.7,733.3l0.2-0.9l1,0.3l-0.2,0.9L519.7,733.3z
			 M397,732.6l1-0.2l0.2,0.9l-1,0.2L397,732.6z M399.1,732.2l0.9-0.2l0.2,0.9l-1,0.2L399.1,732.2z M517.6,732.8l0.2-0.9l1,0.3
			l-0.2,0.9L517.6,732.8z M401.2,731.7l0.9-0.2l0.2,0.9l-1,0.2L401.2,731.7z M515.6,732.3l0.2-0.9l1,0.2l-0.2,0.9L515.6,732.3z
			 M403.2,731.3l0.9-0.2l0.2,0.9l-1,0.2L403.2,731.3z M513.6,731.8l0.2-0.9l1,0.2l-0.2,0.9L513.6,731.8z M405.2,730.9l1-0.2l0.2,0.9
			l-1,0.2L405.2,730.9z M511.5,731.4l0.2-0.9l1,0.2l-0.2,0.9L511.5,731.4z M407.3,730.5l0.9-0.2l0.2,0.4l0,0.5l-0.9,0.2L407.3,730.5
			z M509.5,730.9l0.2-0.9l1,0.2l0,0.5l-0.2,0.4L509.5,730.9z M409.3,730.1l0.9-0.2l0.2,0.4l0,0.5l-0.9,0.2L409.3,730.1z
			 M507.4,730.5l0.2-0.9l1,0.2l-0.2,0.9L507.4,730.5z M408.3,730.3l0.1,0.4L408.3,730.3z M411.4,729.7l0.9-0.2l0.2,0.4l0,0.5
			l-0.9,0.2L411.4,729.7z M410.4,729.9l0.1,0.5L410.4,729.9z M505.4,730.1l0.2-0.9l1,0.2l-0.2,0.9L505.4,730.1z M413.5,729.3l1-0.2
			l0.2,0.9l-1,0.2L413.5,729.3z M412.4,729.5l0.1,0.5L412.4,729.5z M503.3,729.8l0.2-0.9l1,0.2l-0.2,0.9L503.3,729.8z M415.5,729
			l1-0.2l0.1,0.9l-1,0.2L415.5,729z M501.2,729.4l0.1-0.9l1,0.2l-0.2,0.9L501.2,729.4z M417.6,728.6l1-0.2l0.1,0.9l-1,0.2
			L417.6,728.6z M499.2,729.1l0.1-0.9l1,0.2l-0.1,0.9L499.2,729.1z M419.8,728.3l1-0.1l0.1,0.9l-1,0.2L419.8,728.3z M421.8,728
			l1-0.1l0.1,0.9l-1,0.1L421.8,728z M497.1,728.8l0.1-0.9l1,0.2l-0.1,0.9L497.1,728.8z M423.9,727.7l1-0.1l0.1,0.4l0,0.5l-1,0.1
			L423.9,727.7z M495,728.5l0.1-0.9l1,0.1l-0.1,0.9L495,728.5z M425.9,727.5l1-0.1l0.1,0.4l0,0.5l-1,0.1L425.9,727.5z M492.9,728.2
			l0.1-0.9l1,0.1l-0.1,0.9L492.9,728.2z M428,727.2l1-0.1l0.1,0.9l-1,0.1L428,727.2z M490.9,727.9l0.1-0.9l1,0.1l-0.1,0.9
			L490.9,727.9z M424.9,727.6l0.1,0.5L424.9,727.6z M430.1,727l1-0.1l0.1,0.9l-1,0.1L430.1,727z M488.8,727.7l0.1-0.9l1,0.1
			l-0.1,0.9L488.8,727.7z M427,727.3l0.1,0.5L427,727.3z M432.2,726.7l1-0.1l0.1,0.9l-1,0.1L432.2,726.7z M486.7,727.5l0.1-0.9
			l1,0.1l-0.1,0.9L486.7,727.5z M434.3,726.5l1-0.1l0.1,0.5l0-0.5l0.1,0.9l-1,0.1L434.3,726.5z M484.6,727.3l0.1-0.9l1,0.1l-0.1,0.9
			L484.6,727.3z M436.4,726.3l1-0.1l0.1,0.5l0,0.5l-1,0.1L436.4,726.3z M482.5,727.1l0.1-0.9l1,0.1l-0.1,0.9L482.5,727.1z
			 M438.5,726.2l1-0.1l0.1,0.9l-1,0.1L438.5,726.2z M480.4,726.9l0.1-0.9l1,0.1l-0.1,0.9L480.4,726.9z M440.6,726l1.1-0.1l0.1,0.9
			l-1,0.1L440.6,726z M478.3,726.8l0.1-0.9l1,0.1l-0.1,0.9L478.3,726.8z M442.7,725.9l1-0.1l0.1,0.9l-1,0.1L442.7,725.9z
			 M476.2,726.7l0.1-0.9l1.1,0.1l-0.1,0.9L476.2,726.7z M437.4,726.2l0,0.5L437.4,726.2z M444.8,725.7l1-0.1l0.1,0.5l0,0.5l-1,0.1
			L444.8,725.7z M474.2,726.5l0-0.9l1,0.1l-0.1,0.9L474.2,726.5z M446.9,725.6l1,0l0.1,0.5l0,0.5l-1,0L446.9,725.6z M472.1,726.4
			l0-0.9l1.1,0l0,0.9L472.1,726.4z M449,725.5l1.1,0l0,0.9l-1,0L449,725.5z M470,726.4l0-0.9l1.1,0l0,0.9L470,726.4z M451.1,725.4
			l1,0l0,0.9l-1,0L451.1,725.4z M467.9,726.3l0-0.9l1.1,0l0,0.9L467.9,726.3z M453.2,725.4l1,0l0,0.5l0,0.5l-1,0L453.2,725.4z
			 M465.8,726.2l0-0.9l1.1,0l0,0.9L465.8,726.2z M455.3,725.3l1,0l0,0.5l0,0.5l-1,0L455.3,725.3z M463.7,726.2l0-0.9l1.1,0l0,0.9
			L463.7,726.2z M457.4,725.3l1.1,0l0,0.9l-1,0L457.4,725.3z M461.6,726.2l0-0.9l1.1,0l0,0.9L461.6,726.2z M459.5,725.3l1,0l0,0.9
			l-1,0V725.3z M445.8,725.7l0,0.5L445.8,725.7z M447.9,725.6l0,0.5L447.9,725.6z M454.2,725.3l0,0.5L454.2,725.3z M456.3,725.3
			l0,0.5L456.3,725.3z"/>
		<path d="M217.4,908.7h-0.9c0-0.1,0-0.1,0.2-0.7l0.9,0.3C217.5,908.5,217.4,908.7,217.4,908.7L217.4,908.7z M217,907l0.3-1l0.9,0.3
			l-0.3,1L217,907z M217.6,904.9l0.3-0.9l0.9,0.3l-0.3,1L217.6,904.9z M218.2,903l0.3-1l0.9,0.3l-0.3,1L218.2,903z M218.9,901l0.3-1
			l0.9,0.3l-0.3,1L218.9,901z M219.6,899l0.3-1l0.9,0.3l-0.3,1L219.6,899z M220.3,897l0.4-1l0.9,0.3l-0.4,1L220.3,897z M221,895
			l0.4-1l0.9,0.3l-0.4,1L221,895z M221.7,893l0.4-1l0.9,0.3l-0.4,1L221.7,893z M222.5,891.1l0.4-1l0.9,0.3l-0.4,1L222.5,891.1z
			 M223.3,889.1l0.4-1l0.9,0.3l-0.4,1L223.3,889.1z M224,887.2l0.4-1l0.8,0.3l-0.4,1L224,887.2z M224.8,885.2l0.4-1l0.8,0.4l-0.4,1
			L224.8,885.2z M225.6,883.3l0.4-1l0.8,0.4l-0.4,1L225.6,883.3z M226.5,881.3l0.4-1l0.8,0.4l-0.4,1L226.5,881.3z M227.3,879.4
			l0.4-1l0.8,0.4l-0.4,1L227.3,879.4z M228.1,877.5l0.4-1l0.8,0.4l-0.4,1L228.1,877.5z M229,875.6l0.4-1l0.8,0.4l-0.4,1L229,875.6z
			 M229.9,873.6l0.4-1l0.8,0.4l-0.4,1L229.9,873.6z M230.8,871.7l0.4-1l0.8,0.4l-0.4,0.9L230.8,871.7z M231.6,869.8l0.5-0.9l0.8,0.4
			l-0.5,0.9L231.6,869.8z M232.6,867.9l0.5-0.9l0.8,0.4l-0.5,0.9L232.6,867.9z M233.5,866l0.5-0.9l0.8,0.4l-0.5,0.9L233.5,866z
			 M234.4,864.2l0.5-0.9l0.8,0.4l-0.5,0.9L234.4,864.2z M235.4,862.3l0.5-0.9l0.8,0.4l-0.5,0.9L235.4,862.3z M236.3,860.4l0.5-0.9
			l0.8,0.4l-0.5,0.9L236.3,860.4z M237.3,858.6l0.5-0.9l0.8,0.4l-0.5,0.9L237.3,858.6z M238.3,856.7l0.5-0.9l0.8,0.4l-0.5,0.9
			L238.3,856.7z M239.3,854.8l0.5-0.9l0.8,0.4l-0.5,0.9L239.3,854.8z M240.3,853l0.5-0.9l0.8,0.4l-0.5,0.9L240.3,853z M241.3,851.2
			l0.5-0.9l0.8,0.5l-0.5,0.9L241.3,851.2z M242.4,849.3l0.5-0.9l0.8,0.5l-0.5,0.9L242.4,849.3z M243.4,847.5l0.5-0.9l0.8,0.5
			l-0.5,0.9L243.4,847.5z M244.5,845.7l0.5-0.9l0.8,0.5l-0.5,0.9L244.5,845.7z M245.6,843.9l0.5-0.9l0.8,0.5l-0.5,0.9L245.6,843.9z
			 M246.6,842.1l0.6-0.9l0.8,0.5l-0.5,0.9L246.6,842.1z M247.7,840.3l0.6-0.9l0.8,0.5l-0.6,0.9L247.7,840.3z M248.9,838.5l0.6-0.9
			l0.8,0.5l-0.6,0.9L248.9,838.5z M250,836.7l0.6-0.9l0.8,0.5l-0.6,0.9L250,836.7z M251.1,835l0.6-0.9l0.8,0.5l-0.6,0.9L251.1,835z
			 M252.3,833.2l0.6-0.9l0.8,0.5l-0.6,0.9L252.3,833.2z M253.4,831.5l0.6-0.9l0.8,0.5l-0.6,0.9L253.4,831.5z M254.6,829.7l0.6-0.9
			l0.8,0.5l-0.6,0.9L254.6,829.7z M255.8,828l0.6-0.9l0.8,0.5l-0.6,0.9L255.8,828z M257,826.3l0.6-0.9l0.7,0.5l-0.6,0.9L257,826.3z
			 M258.2,824.6l0.6-0.9l0.7,0.5l-0.6,0.9L258.2,824.6z M259.5,822.9l0.6-0.8l0.7,0.5l-0.6,0.8L259.5,822.9z M260.7,821.2l0.6-0.8
			l0.7,0.5l-0.6,0.8L260.7,821.2z M262,819.5l0.6-0.8l0.7,0.6l-0.6,0.8L262,819.5z M263.3,817.8l0.6-0.8l0.7,0.6l-0.6,0.8
			L263.3,817.8z M264.5,816.1l0.6-0.8l0.7,0.6l-0.6,0.8L264.5,816.1z M265.8,814.5l0.7-0.8l0.7,0.6l-0.7,0.8L265.8,814.5z
			 M267.2,812.9l0.7-0.8l0.7,0.6l-0.7,0.8L267.2,812.9z M268.5,811.2l0.7-0.8l0.7,0.6l-0.7,0.8L268.5,811.2z M269.8,809.6l0.7-0.8
			l0.7,0.6l-0.7,0.8L269.8,809.6z M271.2,808l0.7-0.8l0.7,0.6l-0.7,0.8L271.2,808z M272.5,806.4l0.7-0.8l0.7,0.6l-0.7,0.8
			L272.5,806.4z M273.9,804.8l0.7-0.8l0.7,0.6l-0.7,0.8L273.9,804.8z M275.3,803.2l0.7-0.8l0.7,0.6l-0.7,0.8L275.3,803.2z
			 M276.7,801.6l0.7-0.8l0.7,0.6l-0.7,0.8L276.7,801.6z M278.1,800.1l0.7-0.8l0.7,0.6l-0.7,0.8L278.1,800.1z M279.5,798.5l0.7-0.8
			l0.7,0.6l-0.7,0.8L279.5,798.5z M280.9,797l0.7-0.8l0.7,0.6l-0.7,0.8L280.9,797z M282.4,795.4l0.7-0.8l0.7,0.6l-0.7,0.8
			L282.4,795.4z M283.8,793.9l0.7-0.8l0.7,0.6l-0.7,0.8L283.8,793.9z M285.3,792.4l0.7-0.8l0.7,0.6l-0.7,0.8L285.3,792.4z
			 M286.7,790.9l0.7-0.8l0.7,0.6l-0.7,0.7L286.7,790.9z M288.2,789.4l0.7-0.7l0.6,0.6l-0.7,0.7L288.2,789.4z M289.7,787.9l0.7-0.7
			l0.6,0.7l-0.7,0.7L289.7,787.9z M291.2,786.4l0.7-0.7l0.6,0.7l-0.7,0.7L291.2,786.4z M292.7,784.9l0.8-0.7l0.6,0.7l-0.8,0.7
			L292.7,784.9z M294.2,783.5l0.8-0.7l0.6,0.7l-0.8,0.7L294.2,783.5z M295.7,782l0.8-0.7l0.6,0.7l-0.8,0.7L295.7,782z M297.2,780.6
			l0.8-0.7l0.6,0.7l-0.8,0.7L297.2,780.6z M298.8,779.2l0.8-0.7l0.6,0.7l-0.8,0.7L298.8,779.2z M300.3,777.7l0.8-0.7l0.6,0.7
			l-0.8,0.7L300.3,777.7z M301.9,776.3l0.8-0.7l0.6,0.7l-0.8,0.7L301.9,776.3z M303.5,775l0.8-0.7l0.6,0.7l-0.8,0.7L303.5,775z
			 M305.1,773.6l0.8-0.7l0.6,0.7l-0.8,0.7L305.1,773.6z M306.7,772.2l0.8-0.7l0.6,0.7l-0.8,0.7L306.7,772.2z M308.3,770.8l0.8-0.7
			l0.6,0.7l-0.8,0.7L308.3,770.8z M309.9,769.5l0.8-0.7l0.6,0.7l-0.8,0.7L309.9,769.5z M311.5,768.2l0.8-0.7l0.6,0.7l-0.8,0.7
			L311.5,768.2z M313.1,766.9l0.8-0.7l0.6,0.7l-0.8,0.7L313.1,766.9z M314.8,765.5l0.8-0.6l0.6,0.7l-0.8,0.6L314.8,765.5z
			 M316.4,764.3l0.8-0.6l0.6,0.7L317,765L316.4,764.3z M318.1,763l0.8-0.6l0.6,0.7l-0.8,0.6L318.1,763z M319.8,761.7l0.8-0.6
			l0.5,0.7l-0.8,0.6L319.8,761.7z M321.4,760.5l0.8-0.6l0.5,0.7l-0.8,0.6L321.4,760.5z M323.1,759.2l0.9-0.6l0.5,0.7l-0.8,0.6
			L323.1,759.2z M324.8,758l0.9-0.6l0.5,0.7l-0.9,0.6L324.8,758z M326.6,756.8l0.9-0.6l0.5,0.8l-0.9,0.6L326.6,756.8z M328.3,755.6
			l0.9-0.6l0.5,0.8l-0.9,0.6L328.3,755.6z M330,754.4l0.9-0.6l0.5,0.8l-0.9,0.6L330,754.4z M331.8,753.3l0.9-0.6l0.5,0.8l-0.9,0.6
			L331.8,753.3z M333.5,752.1l0.9-0.6l0.5,0.8l-0.9,0.6L333.5,752.1z M335.3,751l0.9-0.6l0.5,0.8l-0.9,0.6L335.3,751z M337.1,749.9
			l0.9-0.6l0.5,0.8l-0.9,0.5L337.1,749.9z M338.9,748.8l0.9-0.5l0.5,0.8l-0.9,0.5L338.9,748.8z M340.6,747.7l0.9-0.5l0.5,0.8
			l-0.9,0.5L340.6,747.7z M342.5,746.6l0.9-0.5l0.5,0.8l-0.9,0.5L342.5,746.6z M344.3,745.6l0.9-0.5l0.4,0.8l-0.9,0.5L344.3,745.6z
			 M346.1,744.6l0.9-0.5l0.4,0.8l-0.9,0.5L346.1,744.6z M347.9,743.6l0.9-0.5l0.4,0.8l-0.9,0.5L347.9,743.6z M349.8,742.6l0.9-0.5
			l0.4,0.8l-0.9,0.5L349.8,742.6z M351.7,741.6l0.9-0.5l0.4,0.8l-0.9,0.5L351.7,741.6z M353.5,740.6l0.9-0.5l0.4,0.8l-0.9,0.5
			L353.5,740.6z M355.4,739.7l0.9-0.5l0.4,0.8l-0.9,0.5L355.4,739.7z M357.3,738.8l0.9-0.4l0.4,0.8l-0.9,0.4L357.3,738.8z
			 M359.2,737.9l1-0.4l0.4,0.8l-0.9,0.4L359.2,737.9z M361.1,737l1-0.4l0.4,0.8l-1,0.4L361.1,737z M363,736.2l1-0.4l0.4,0.8l-1,0.4
			L363,736.2z M365,735.4l1-0.4l0.4,0.8l-1,0.4L365,735.4z M366.9,734.6l1-0.4l0.3,0.8l-1,0.4L366.9,734.6z M368.8,733.8l1-0.4
			l0.3,0.9l-1,0.4L368.8,733.8z M370.8,733l1-0.4l0.3,0.9l-1,0.4L370.8,733z M372.8,732.3l1-0.4l0.3,0.9l-1,0.4L372.8,732.3z
			 M374.7,731.6l1-0.3l0.3,0.9l-1,0.3L374.7,731.6z M376.7,730.9l1-0.3l0.3,0.9l-1,0.3L376.7,730.9z M378.7,730.3l1-0.3l0.3,0.9
			l-1,0.3L378.7,730.3z M380.7,729.6l1-0.3l0.3,0.9l-1,0.3L380.7,729.6z M382.7,729l1-0.3l0.3,0.9l-1,0.3L382.7,729z M384.8,728.4
			l1-0.3l0.2,0.9l-1,0.3L384.8,728.4z M386.8,727.9l1-0.3l0.2,0.9l-1,0.3L386.8,727.9z M388.8,727.3l1-0.3l0.2,0.9l-1,0.3
			L388.8,727.3z M525.7,727.7l0.3-0.9c0.7,0.2,1,0.3,1,0.3l-0.3,0.9C526.7,728.1,526.3,727.9,525.7,727.7z M390.8,726.8l1-0.3
			l0.2,0.9l-1,0.3L390.8,726.8z M523.7,727.1l0.3-0.9l1,0.3l-0.3,0.9L523.7,727.1z M392.9,726.3l1-0.3l0.2,0.9l-1,0.3L392.9,726.3z
			 M521.7,726.5l0.2-0.9l1,0.3l-0.3,0.9L521.7,726.5z M394.9,725.8l1-0.2l0.2,0.9l-1,0.2L394.9,725.8z M519.7,726l0.2-0.9l1,0.3
			l-0.2,0.9L519.7,726z M397,725.3l1-0.2l0.2,0.9l-1,0.2L397,725.3z M399.1,724.8l0.9-0.2l0.2,0.9l-1,0.2L399.1,724.8z M517.6,725.4
			l0.2-0.9l1,0.3l-0.2,0.9L517.6,725.4z M401.2,724.4l0.9-0.2l0.2,0.9l-1,0.2L401.2,724.4z M515.6,724.9l0.2-0.9l1,0.2l-0.2,0.9
			L515.6,724.9z M403.2,723.9l0.9-0.2l0.2,0.9l-1,0.2L403.2,723.9z M513.6,724.5l0.2-0.9l1,0.2l-0.2,0.9L513.6,724.5z M405.2,723.5
			l1-0.2l0.2,0.9l-1,0.2L405.2,723.5z M511.5,724l0.2-0.9l1,0.2l-0.2,0.9L511.5,724z M407.3,723.1l0.9-0.2l0.2,0.4l0,0.5l-0.9,0.2
			L407.3,723.1z M509.5,723.6l0.2-0.9l1,0.2l0,0.5l-0.2,0.4L509.5,723.6z M409.3,722.7l0.9-0.2l0.2,0.4l0,0.5l-0.9,0.2L409.3,722.7z
			 M507.4,723.2l0.2-0.9l1,0.2l-0.2,0.9L507.4,723.2z M408.3,722.9l0.1,0.4L408.3,722.9z M411.4,722.3l0.9-0.2l0.2,0.4l0,0.5
			l-0.9,0.2L411.4,722.3z M410.4,722.5l0.1,0.5L410.4,722.5z M505.4,722.8l0.2-0.9l1,0.2l-0.2,0.9L505.4,722.8z M413.5,722l1-0.2
			l0.2,0.9l-1,0.2L413.5,722z M412.4,722.2l0.1,0.5L412.4,722.2z M503.3,722.4l0.2-0.9l1,0.2l-0.2,0.9L503.3,722.4z M415.5,721.6
			l1-0.2l0.1,0.9l-1,0.2L415.5,721.6z M501.2,722.1l0.1-0.9l1,0.2l-0.2,0.9L501.2,722.1z M417.6,721.3l1-0.2l0.1,0.9l-1,0.2
			L417.6,721.3z M499.2,721.7l0.1-0.9l1,0.2l-0.1,0.9L499.2,721.7z M419.8,721l1-0.1l0.1,0.9l-1,0.2L419.8,721z M421.8,720.7l1-0.1
			l0.1,0.9l-1,0.1L421.8,720.7z M497.1,721.4l0.1-0.9l1,0.2l-0.1,0.9L497.1,721.4z M423.9,720.4l1-0.1l0.1,0.4l0,0.5l-1,0.1
			L423.9,720.4z M495,721.1l0.1-0.9l1,0.1l-0.1,0.9L495,721.1z M425.9,720.1l1-0.1l0.1,0.4l0,0.5l-1,0.1L425.9,720.1z M492.9,720.9
			l0.1-0.9l1,0.1L494,721L492.9,720.9z M428,719.9l1-0.1l0.1,0.9l-1,0.1L428,719.9z M490.9,720.6l0.1-0.9l1,0.1l-0.1,0.9
			L490.9,720.6z M424.9,720.3l0.1,0.5L424.9,720.3z M430.1,719.6l1-0.1l0.1,0.9l-1,0.1L430.1,719.6z M488.8,720.4l0.1-0.9l1,0.1
			l-0.1,0.9L488.8,720.4z M427,720l0.1,0.5L427,720z M432.2,719.4l1-0.1l0.1,0.9l-1,0.1L432.2,719.4z M486.7,720.2l0.1-0.9l1,0.1
			l-0.1,0.9L486.7,720.2z M434.3,719.2l1-0.1l0.1,0.5l0-0.5l0.1,0.9l-1,0.1L434.3,719.2z M484.6,719.9l0.1-0.9l1,0.1l-0.1,0.9
			L484.6,719.9z M436.4,719l1-0.1l0.1,0.5l0,0.5l-1,0.1L436.4,719z M482.5,719.8l0.1-0.9l1,0.1l-0.1,0.9L482.5,719.8z M438.5,718.8
			l1-0.1l0.1,0.9l-1,0.1L438.5,718.8z M480.4,719.6l0.1-0.9l1,0.1l-0.1,0.9L480.4,719.6z M440.6,718.7l1.1-0.1l0.1,0.9l-1,0.1
			L440.6,718.7z M478.3,719.4l0.1-0.9l1,0.1l-0.1,0.9L478.3,719.4z M442.7,718.5l1-0.1l0.1,0.9l-1,0.1L442.7,718.5z M476.2,719.3
			l0.1-0.9l1.1,0.1l-0.1,0.9L476.2,719.3z M437.4,718.9l0,0.5L437.4,718.9z M444.8,718.4l1-0.1l0.1,0.5l0,0.5l-1,0.1L444.8,718.4z
			 M474.2,719.2l0-0.9l1,0.1l-0.1,0.9L474.2,719.2z M446.9,718.3l1-0.1l0.1,0.5l0,0.5l-1,0L446.9,718.3z M472.1,719.1l0-0.9l1.1,0
			l0,0.9L472.1,719.1z M449,718.2l1.1,0l0,0.9l-1,0L449,718.2z M470,719l0-0.9l1.1,0l0,0.9L470,719z M451.1,718.1l1,0l0,0.9l-1,0
			L451.1,718.1z M467.9,718.9l0-0.9l1.1,0l0,0.9L467.9,718.9z M453.2,718l1,0l0,0.5l0,0.5l-1,0L453.2,718z M465.8,718.9l0-0.9l1.1,0
			l0,0.9L465.8,718.9z M455.3,718l1,0l0,0.5l0,0.5l-1,0L455.3,718z M463.7,718.9l0-0.9l1.1,0l0,0.9L463.7,718.9z M457.4,718l1.1,0
			l0,0.9l-1,0L457.4,718z M461.6,718.8l0-0.9l1.1,0l0,0.9L461.6,718.8z M459.5,717.9l1,0l0,0.9l-1,0V717.9z M445.8,718.3l0,0.5
			L445.8,718.3z M447.9,718.2l0,0.5L447.9,718.2z M454.2,718l0,0.5L454.2,718z M456.3,718l0,0.5L456.3,718z"/>
		<path d="M412.9,738.6h1.2v0.7h-1.2V738.6z M412.9,736.5h1.2v1h-1.2V736.5z M412.9,734.4h1.2v1.1h-1.2V734.4z M412.9,732.3h1.2v1.1
			h-1.2V732.3z M412.9,730.2h1.2v1.1h-1.2V730.2z M412.9,728.1h1.2v1h-1.2V728.1z M412.9,726h1.2v1.1h-1.2V726z M412.9,723.9h1.2
			v1.1h-1.2V723.9z M412.9,721.8h1.2v1.1h-1.2V721.8z M412.9,719.7h1.2v1h-1.2V719.7z M412.9,717.6h1.2v1.1h-1.2V717.6z
			 M412.9,715.5h1.2v1.1h-1.2V715.5z M412.9,713.4h1.2v1.1h-1.2V713.4z M412.9,711.3h1.2v1h-1.2V711.3z M412.9,709.2h1.2v1.1h-1.2
			V709.2z M412.9,707.1h1.2v1.1h-1.2V707.1z M412.9,705h1.2v1.1h-1.2V705z M412.9,702.9h1.2v1h-1.2V702.9z M412.9,700.8h1.2v1.1
			h-1.2V700.8z M412.9,698.7h1.2v1.1h-1.2V698.7z M412.9,696.6h1.2v1.1h-1.2V696.6z M412.9,694.5h1.2v1h-1.2V694.5z M412.9,692.4
			h1.2v1.1h-1.2V692.4z M412.9,690.3h1.2v1.1h-1.2V690.3z M412.9,688.2h1.2v1.1h-1.2V688.2z M412.9,686.1h1.2v1h-1.2V686.1z
			 M412.9,684h1.2v1.1h-1.2V684z M412.9,681.9h1.2v1.1h-1.2V681.9z M412.9,679.8h1.2v1.1h-1.2V679.8z M412.9,677.7h1.2v1h-1.2V677.7
			z M412.9,675.6h1.2v1h-1.2V675.6z M412.9,673.5h1.2v1.1h-1.2V673.5z M412.9,671.4h1.2v1.1h-1.2V671.4z M412.9,669.3h1.2v1h-1.2
			V669.3z M412.9,667.2h1.2v1h-1.2V667.2z M412.9,665.1h1.2v1.1h-1.2V665.1z M412.9,663h1.2v1.1h-1.2V663z M412.9,660.9h1.2v1.1
			h-1.2V660.9z M412.9,658.8h1.2v1h-1.2V658.8z M412.9,656.7h1.2v1h-1.2V656.7z M412.9,654.6h1.2v1.1h-1.2V654.6z M412.9,652.5h1.2
			v1.1h-1.2V652.5z M412.9,650.4h1.2v1.1h-1.2V650.4z M412.9,648.3h1.2v1h-1.2V648.3z M412.9,646.2h1.2v1.1h-1.2V646.2z
			 M412.9,644.1h1.2v1.1h-1.2V644.1z M412.9,642h1.2v1.1h-1.2V642z M412.9,639.9h1.2v1h-1.2V639.9z M412.9,637.8h1.2v1h-1.2V637.8z
			 M412.9,635.7h1.2v1.1h-1.2V635.7z M412.9,633.6h1.2v1.1h-1.2V633.6z M412.9,631.5h1.2v1.1h-1.2V631.5z M412.9,629.4h1.2v1h-1.2
			V629.4z M412.9,627.3h1.2v1h-1.2V627.3z M412.9,625.2h1.2v1.1h-1.2V625.2z M412.9,623.1h1.2v1.1h-1.2V623.1z M412.9,621h1.2v1
			h-1.2V621z M412.9,618.9h1.2v1h-1.2V618.9z M412.9,616.8h1.2v1.1h-1.2V616.8z M412.9,614.7h1.2v1.1h-1.2V614.7z M412.9,612.6h1.2
			v1.1h-1.2V612.6z M412.9,610.5h1.2v1h-1.2V610.5z M412.9,608.4h1.2v1h-1.2V608.4z M412.9,606.3h1.2v1.1h-1.2V606.3z M412.9,604.2
			h1.2v1.1h-1.2V604.2z M412.9,602.1h1.2v1.1h-1.2V602.1z M412.9,600h1.2v1h-1.2V600z M412.9,597.9h1.2v1.1h-1.2V597.9z
			 M412.9,595.8h1.2v1.1h-1.2V595.8z M412.9,593.7h1.2v1.1h-1.2V593.7z M412.9,591.6h1.2v1h-1.2V591.6z M412.9,589.5h1.2v1h-1.2
			V589.5z M412.9,587.4h1.2v1.1h-1.2V587.4z M412.9,585.3h1.2v1.1h-1.2V585.3z M412.9,583.2h1.2v1.1h-1.2V583.2z M412.9,581.1h1.2v1
			h-1.2V581.1z M412.9,579h1.2v1.1h-1.2V579z M412.9,576.9h1.2v1.1h-1.2V576.9z M412.9,574.8h1.2v1.1h-1.2V574.8z M412.9,572.7h1.2
			v1h-1.2V572.7z M412.9,570.6h1.2v1h-1.2V570.6z M412.9,568.5h1.2v1.1h-1.2V568.5z M412.9,566.4h1.2v1.1h-1.2V566.4z M412.9,564.3
			h1.2v1.1h-1.2V564.3z M412.9,562.2h1.2v1h-1.2V562.2z M412.9,560.1h1.2v1h-1.2V560.1z M412.9,558h1.2v1.1h-1.2V558z M412.9,555.9
			h1.2v1.1h-1.2V555.9z M412.9,553.8h1.2v1h-1.2V553.8z M412.9,551.7h1.2v1h-1.2V551.7z M412.9,549.6h1.2v1.1h-1.2V549.6z
			 M412.9,547.5h1.2v1.1h-1.2V547.5z M412.9,545.4h1.2v1.1h-1.2V545.4z M412.9,543.3h1.2v1h-1.2V543.3z M412.9,541.2h1.2v1h-1.2
			V541.2z M412.9,539.1h1.2v1.1h-1.2V539.1z M412.9,537.1h1.2v1.1h-1.2V537.1z M412.9,535h1.2v1h-1.2V535z M412.9,532.9h1.2v1h-1.2
			V532.9z M412.9,530.8h1.2v1.1h-1.2V530.8z M412.9,528.7h1.2v1.1h-1.2V528.7z M412.9,526.6h1.2v1.1h-1.2V526.6z M412.9,524.5h1.2v1
			h-1.2V524.5z M412.9,522.4h1.2v1h-1.2V522.4z M412.9,520.3h1.2v1.1h-1.2V520.3z M412.9,518.2h1.2v1.1h-1.2V518.2z M412.9,516.1
			h1.2v1h-1.2V516.1z M412.9,514h1.2v1h-1.2V514z M412.9,511.9h1.2v1.1h-1.2V511.9z M412.9,509.8h1.2v1.1h-1.2V509.8z M412.9,507.7
			h1.2v1.1h-1.2V507.7z M412.9,505.6h1.2v1h-1.2V505.6z M412.9,503.5h1.2v1.1h-1.2V503.5z M412.9,501.4h1.2v1.1h-1.2V501.4z
			 M412.9,499.3h1.2v1.1h-1.2V499.3z M412.9,497.2h1.2v1h-1.2V497.2z M412.9,495.1h1.2v1h-1.2V495.1z M412.9,493h1.2v1.1h-1.2V493z
			 M412.9,490.9h1.2v1.1h-1.2V490.9z M412.9,488.8h1.2v1h-1.2V488.8z M412.9,486.7h1.2v1h-1.2V486.7z M412.9,484.6h1.2v1h-1.2V484.6
			z M412.9,482.5h1.2v1h-1.2V482.5z M412.9,480.4h1.2v1h-1.2V480.4z M412.9,478.3h1.2v1h-1.2V478.3z M412.9,476.2h1.2v1h-1.2V476.2z
			 M412.9,474.1h1.2v1.1h-1.2V474.1z M412.9,472h1.2v1h-1.2V472z M412.9,469.9h1.2v1.1h-1.2V469.9z M412.9,467.8h1.2v1h-1.2V467.8z
			 M412.9,465.7h1.2v1.1h-1.2V465.7z M412.9,463.6h1.2v1h-1.2V463.6z M412.9,461.5h1.2v1h-1.2V461.5z M412.9,459.4h1.2v1h-1.2V459.4
			z M412.9,457.3h1.2v1h-1.2V457.3z M412.9,455.2h1.2v1h-1.2V455.2z M412.9,453.1h1.2v1h-1.2V453.1z M412.9,451h1.2v1h-1.2V451z
			 M412.9,448.9h1.2v1h-1.2V448.9z M412.9,446.8h1.2v1h-1.2V446.8z M412.9,444.7h1.2v1h-1.2V444.7z M412.9,442.6h1.2v1.1h-1.2V442.6
			z M412.9,440.5h1.2v1h-1.2V440.5z M412.9,438.4h1.2v1.1h-1.2V438.4z M412.9,436.3h1.2v1h-1.2V436.3z M412.9,434.2h1.2v1.1h-1.2
			V434.2z M412.9,432.1h1.2v1h-1.2V432.1z M412.9,430h1.2v1.1h-1.2V430z M412.9,427.9h1.2v1h-1.2V427.9z M412.9,425.8h1.2v1h-1.2
			V425.8z M412.9,423.7h1.2v1h-1.2V423.7z M412.9,421.6h1.2v1h-1.2V421.6z M412.9,419.5h1.2v1h-1.2V419.5z M412.9,417.4h1.2v1h-1.2
			V417.4z M412.9,415.3h1.2v1h-1.2V415.3z M412.9,413.2h1.2v1h-1.2V413.2z M412.9,411.1h1.2v1.1h-1.2V411.1z M412.9,409h1.2v1h-1.2
			V409z M412.9,406.9h1.2v1.1h-1.2V406.9z M412.9,404.8h1.2v1h-1.2V404.8z M412.9,402.7h1.2v1.1h-1.2V402.7z M412.9,400.6h1.2v1
			h-1.2V400.6z M412.9,398.5h1.2v1.1h-1.2V398.5z M412.9,396.4h1.2v1h-1.2V396.4z M412.9,394.3h1.2v1h-1.2V394.3z M412.9,392.2h1.2
			v1h-1.2V392.2z M412.9,390.1h1.2v1h-1.2V390.1z M412.9,388h1.2v1h-1.2V388z M412.9,385.9h1.2v1h-1.2V385.9z M412.9,383.8h1.2v1
			h-1.2V383.8z M412.9,381.7h1.2v1h-1.2V381.7z M412.9,379.6h1.2v1.1h-1.2V379.6z M412.9,377.5h1.2v1h-1.2V377.5z M412.9,375.4h1.2
			v1.1h-1.2V375.4z M412.9,373.3h1.2v1h-1.2V373.3z M412.9,371.2h1.2v1.1h-1.2V371.2z M412.9,369.1h1.2v1h-1.2V369.1z"/>
		<path d="M302.8,794.7h1.2v0.8h-1.2V794.7z M302.8,792.6h1.2v1.1h-1.2V792.6z M302.8,790.5h1.2v1.1h-1.2V790.5z M302.8,788.4h1.2
			v1.1h-1.2V788.4z M302.8,786.3h1.2v1h-1.2V786.3z M302.8,784.2h1.2v1.1h-1.2V784.2z M302.8,782.1h1.2v1.1h-1.2V782.1z M302.8,780
			h1.2v1.1h-1.2V780z M302.8,777.9h1.2v1h-1.2V777.9z M302.8,775.8h1.2v1.1h-1.2V775.8z M302.8,773.7h1.2v1.1h-1.2V773.7z
			 M302.8,771.6h1.2v1.1h-1.2V771.6z M302.8,769.5h1.2v1h-1.2V769.5z M302.8,767.4h1.2v1.1h-1.2V767.4z M302.8,765.3h1.2v1.1h-1.2
			V765.3z M302.8,763.2h1.2v1.1h-1.2V763.2z M302.8,761.1h1.2v1h-1.2V761.1z M302.8,759h1.2v1.1h-1.2V759z M302.8,756.9h1.2v1.1
			h-1.2V756.9z M302.8,754.8h1.2v1.1h-1.2V754.8z M302.8,752.7h1.2v1h-1.2V752.7z M302.8,750.6h1.2v1.1h-1.2V750.6z M302.8,748.5
			h1.2v1.1h-1.2V748.5z M302.8,746.4h1.2v1.1h-1.2V746.4z M302.8,744.3h1.2v1h-1.2V744.3z M302.8,742.2h1.2v1.1h-1.2V742.2z
			 M302.8,740.1h1.2v1.1h-1.2V740.1z M302.8,738h1.2v1.1h-1.2V738z M302.8,735.9h1.2v1h-1.2V735.9z M302.8,733.8h1.2v1.1h-1.2V733.8
			z M302.8,731.7h1.2v1.1h-1.2V731.7z M302.8,729.6h1.2v1.1h-1.2V729.6z M302.8,727.5h1.2v1h-1.2V727.5z M302.8,725.4h1.2v1.1h-1.2
			V725.4z M302.8,723.4h1.2v1.1h-1.2V723.4z M302.8,721.3h1.2v1.1h-1.2V721.3z M302.8,719.2h1.2v1h-1.2V719.2z M302.8,717.1h1.2v1.1
			h-1.2V717.1z M302.8,715h1.2v1.1h-1.2V715z M302.8,712.9h1.2v1.1h-1.2V712.9z M302.8,710.8h1.2v1h-1.2V710.8z M302.8,708.7h1.2
			v1.1h-1.2V708.7z M302.8,706.6h1.2v1.1h-1.2V706.6z M302.8,704.5h1.2v1.1h-1.2V704.5z M302.8,702.4h1.2v1h-1.2V702.4z
			 M302.8,700.3h1.2v1.1h-1.2V700.3z M302.8,698.2h1.2v1.1h-1.2V698.2z M302.8,696.1h1.2v1.1h-1.2V696.1z M302.8,694h1.2v1h-1.2V694
			z M302.8,691.9h1.2v1.1h-1.2V691.9z M302.8,689.8h1.2v1.1h-1.2V689.8z M302.8,687.7h1.2v1.1h-1.2V687.7z M302.8,685.6h1.2v1h-1.2
			V685.6z M302.8,683.5h1.2v1.1h-1.2V683.5z M302.8,681.4h1.2v1.1h-1.2V681.4z M302.8,679.3h1.2v1.1h-1.2V679.3z M302.8,677.2h1.2v1
			h-1.2V677.2z M302.8,675.1h1.2v1h-1.2V675.1z M302.8,673h1.2v1.1h-1.2V673z M302.8,670.9h1.2v1.1h-1.2V670.9z M302.8,668.8h1.2
			v1.1h-1.2V668.8z M302.8,666.7h1.2v1h-1.2V666.7z M302.8,664.6h1.2v1h-1.2V664.6z M302.8,662.5h1.2v1.1h-1.2V662.5z M302.8,660.4
			h1.2v1.1h-1.2V660.4z M302.8,658.3h1.2v1h-1.2V658.3z M302.8,656.2h1.2v1h-1.2V656.2z M302.8,654.1h1.2v1.1h-1.2V654.1z
			 M302.8,652h1.2v1.1h-1.2V652z M302.8,649.9h1.2v1.1h-1.2V649.9z M302.8,647.8h1.2v1h-1.2V647.8z M302.8,645.7h1.2v1h-1.2V645.7z
			 M302.8,643.6h1.2v1.1h-1.2V643.6z M302.8,641.5h1.2v1.1h-1.2V641.5z M302.8,639.4h1.2v1.1h-1.2V639.4z M302.8,637.3h1.2v1h-1.2
			V637.3z M302.8,635.2h1.2v1.1h-1.2V635.2z M302.8,633.1h1.2v1.1h-1.2V633.1z M302.8,631h1.2v1.1h-1.2V631z M302.8,628.9h1.2v1
			h-1.2V628.9z M302.8,626.8h1.2v1h-1.2V626.8z M302.8,624.7h1.2v1.1h-1.2V624.7z M302.8,622.6h1.2v1.1h-1.2V622.6z M302.8,620.5
			h1.2v1.1h-1.2V620.5z M302.8,618.4h1.2v1h-1.2V618.4z M302.8,616.3h1.2v1.1h-1.2V616.3z M302.8,614.2h1.2v1.1h-1.2V614.2z
			 M302.8,612.1h1.2v1.1h-1.2V612.1z M302.8,610h1.2v1h-1.2V610z M302.8,607.9h1.2v1h-1.2V607.9z M302.8,605.8h1.2v1.1h-1.2V605.8z
			 M302.8,603.7h1.2v1.1h-1.2V603.7z M302.8,601.6h1.2v1.1h-1.2V601.6z M302.8,599.5h1.2v1h-1.2V599.5z M302.8,597.4h1.2v1h-1.2
			V597.4z M302.8,595.3h1.2v1.1h-1.2V595.3z M302.8,593.2h1.2v1.1h-1.2V593.2z M302.8,591.1h1.2v1h-1.2V591.1z M302.8,589h1.2v1
			h-1.2V589z M302.8,586.9h1.2v1.1h-1.2V586.9z M302.8,584.8h1.2v1.1h-1.2V584.8z M302.8,582.7h1.2v1.1h-1.2V582.7z M302.8,580.6
			h1.2v1h-1.2V580.6z M302.8,578.5h1.2v1h-1.2V578.5z M302.8,576.4h1.2v1.1h-1.2V576.4z M302.8,574.3h1.2v1.1h-1.2V574.3z
			 M302.8,572.2h1.2v1h-1.2V572.2z M302.8,570.1h1.2v1h-1.2V570.1z M302.8,568h1.2v1.1h-1.2V568z M302.8,565.9h1.2v1.1h-1.2V565.9z
			 M302.8,563.8h1.2v1.1h-1.2V563.8z M302.8,561.7h1.2v1h-1.2V561.7z M302.8,559.6h1.2v1h-1.2V559.6z M302.8,557.5h1.2v1.1h-1.2
			V557.5z M302.8,555.4h1.2v1.1h-1.2V555.4z M302.8,553.3h1.2v1.1h-1.2V553.3z M302.8,551.2h1.2v1h-1.2V551.2z M302.8,549.1h1.2v1.1
			h-1.2V549.1z M302.8,547h1.2v1.1h-1.2V547z M302.8,544.9h1.2v1.1h-1.2V544.9z M302.8,542.8h1.2v1h-1.2V542.8z M302.8,540.7h1.2v1
			h-1.2V540.7z M302.8,538.6h1.2v1.1h-1.2V538.6z M302.8,536.5h1.2v1.1h-1.2V536.5z M302.8,534.4h1.2v1.1h-1.2V534.4z M302.8,532.3
			h1.2v1h-1.2V532.3z M302.8,530.2h1.2v1h-1.2V530.2z M302.8,528.1h1.2v1.1h-1.2V528.1z M302.8,526h1.2v1.1h-1.2V526z M302.8,523.9
			h1.2v1h-1.2V523.9z M302.8,521.8h1.2v1h-1.2V521.8z M302.8,519.7h1.2v1.1h-1.2V519.7z M302.8,517.6h1.2v1.1h-1.2V517.6z
			 M302.8,515.5h1.2v1.1h-1.2V515.5z M302.8,513.4h1.2v1h-1.2V513.4z M302.8,511.3h1.2v1.1h-1.2V511.3z M302.8,509.2h1.2v1.1h-1.2
			V509.2z M302.8,507.1h1.2v1.1h-1.2V507.1z M302.8,505h1.2v1h-1.2V505z M302.8,502.9h1.2v1.1h-1.2V502.9z M302.8,500.8h1.2v1.1
			h-1.2V500.8z M302.8,498.7h1.2v1.1h-1.2V498.7z M302.8,496.6h1.2v1h-1.2V496.6z M302.8,494.5h1.2v1h-1.2V494.5z M302.8,492.4h1.2
			v1.1h-1.2V492.4z M302.8,490.3h1.2v1.1h-1.2V490.3z M302.8,488.2h1.2v1h-1.2V488.2z M302.8,486.1h1.2v1h-1.2V486.1z M302.8,484
			h1.2v1h-1.2V484z M302.8,481.9h1.2v1.1h-1.2V481.9z M302.8,479.8h1.2v1h-1.2V479.8z M302.8,477.7h1.2v1.1h-1.2V477.7z
			 M302.8,475.6h1.2v1h-1.2V475.6z M302.8,473.5h1.2v1.1h-1.2V473.5z M302.8,471.4h1.2v1h-1.2V471.4z M302.8,469.3h1.2v1.1h-1.2
			V469.3z M302.8,467.2h1.2v1h-1.2V467.2z M302.8,465.1h1.2v1h-1.2V465.1z M302.8,463h1.2v1h-1.2V463z M302.8,460.9h1.2v1h-1.2
			V460.9z M302.8,458.8h1.2v1h-1.2V458.8z M302.8,456.8h1.2v1h-1.2V456.8z M302.8,454.7h1.2v1h-1.2V454.7z M302.8,452.6h1.2v1h-1.2
			V452.6z M302.8,450.5h1.2v1h-1.2V450.5z M302.8,448.4h1.2v1h-1.2V448.4z M302.8,446.3h1.2v1.1h-1.2V446.3z M302.8,444.2h1.2v1
			h-1.2V444.2z M302.8,442.1h1.2v1.1h-1.2V442.1z M302.8,440h1.2v1h-1.2V440z M302.8,437.9h1.2v1.1h-1.2V437.9z M302.8,435.8h1.2v1
			h-1.2V435.8z M302.8,433.7h1.2v1.1h-1.2V433.7z M302.8,431.6h1.2v1h-1.2V431.6z M302.8,429.5h1.2v1h-1.2V429.5z M302.8,427.4h1.2
			v1h-1.2V427.4z M302.8,425.3h1.2v1h-1.2V425.3z M302.8,423.2h1.2v1h-1.2V423.2z M302.8,421.1h1.2v1h-1.2V421.1z M302.8,419h1.2v1
			h-1.2V419z M302.8,416.9h1.2v1h-1.2V416.9z M302.8,414.8h1.2v1h-1.2V414.8z M302.8,412.7h1.2v1h-1.2V412.7z M302.8,410.6h1.2v1.1
			h-1.2V410.6z M302.8,408.5h1.2v1h-1.2V408.5z M302.8,406.4h1.2v1.1h-1.2V406.4z M302.8,404.3h1.2v1h-1.2V404.3z M302.8,402.2h1.2
			v1.1h-1.2V402.2z M302.8,400.1h1.2v1h-1.2V400.1z M302.8,398h1.2v1h-1.2V398z M302.8,395.9h1.2v1h-1.2V395.9z M302.8,393.8h1.2v1
			h-1.2V393.8z M302.8,391.7h1.2v1h-1.2V391.7z M302.8,389.6h1.2v1h-1.2V389.6z M302.8,387.5h1.2v1h-1.2V387.5z M302.8,385.4h1.2v1
			h-1.2V385.4z M302.8,383.3h1.2v1.1h-1.2V383.3z M302.8,381.2h1.2v1h-1.2V381.2z M302.8,379.1h1.2v1.1h-1.2V379.1z M302.8,377h1.2
			v1h-1.2V377z M302.8,374.9h1.2v1.1h-1.2V374.9z M302.8,372.8h1.2v1h-1.2V372.8z"/>
		<path d="M411.7,95.4l0.7-1L411.7,95.4L411.7,95.4z M409.9,94.3l0.7-1l0.9,0.6l-0.7,1L409.9,94.3z M408.2,93.2l0.6-1l0.9,0.6
			l-0.7,1L408.2,93.2z M406.4,92.1l0.6-1l0.9,0.5l-0.6,1L406.4,92.1z M404.6,91l0.6-1.1l0.9,0.5l-0.6,1L404.6,91z M402.8,89.9
			l0.6-1.1l0.9,0.5l-0.6,1.1L402.8,89.9z M401,88.9l0.6-1.1l0.9,0.5l-0.6,1.1L401,88.9z M399.1,87.9l0.6-1.1l0.9,0.5l-0.6,1.1
			L399.1,87.9z M397.3,86.8l0.6-1.1l0.9,0.5l-0.6,1.1L397.3,86.8z M395.4,85.9l0.6-1.1l0.9,0.5l-0.6,1.1L395.4,85.9z M393.6,84.9
			l0.6-1.1l0.9,0.5l-0.6,1.1L393.6,84.9z M391.7,83.9l0.6-1.1l0.9,0.5l-0.6,1.1L391.7,83.9z M389.8,83l0.5-1.1l0.9,0.5l-0.5,1.1
			L389.8,83z M388,82.1l0.5-1.1l0.9,0.5l-0.5,1.1L388,82.1z M386.1,81.2l0.5-1.1l1,0.5l-0.5,1.1L386.1,81.2z M384.2,80.3l0.5-1.1
			l1,0.4l-0.5,1.1L384.2,80.3z M382.3,79.4l0.5-1.1l1,0.4l-0.5,1.1L382.3,79.4z M380.3,78.6l0.5-1.1l1,0.4l-0.5,1.1L380.3,78.6z
			 M378.4,77.8l0.5-1.1l1,0.4l-0.5,1.1L378.4,77.8z M376.5,77l0.5-1.1l1,0.4l-0.5,1.1L376.5,77z M374.5,76.2L375,75l1,0.4l-0.5,1.1
			L374.5,76.2z M372.6,75.4l0.4-1.1l1,0.4l-0.4,1.1L372.6,75.4z M370.6,74.6l0.4-1.1l1,0.4l-0.4,1.1L370.6,74.6z M368.7,73.9
			l0.4-1.1l1,0.4l-0.4,1.1L368.7,73.9z M366.7,73.2l0.4-1.2l1,0.4l-0.4,1.2L366.7,73.2z M364.7,72.5l0.4-1.2l1,0.3l-0.4,1.2
			L364.7,72.5z M362.7,71.9l0.4-1.2l1,0.3l-0.4,1.2L362.7,71.9z M360.7,71.2l0.4-1.2l1,0.3l-0.4,1.2L360.7,71.2z M358.7,70.6
			l0.4-1.2l1,0.3l-0.4,1.2L358.7,70.6z M356.7,70l0.3-1.2l1,0.3l-0.3,1.2L356.7,70z M354.7,69.5l0.3-1.2l1,0.3l-0.3,1.2L354.7,69.5z
			 M352.7,68.9l0.3-1.2l1,0.3l-0.3,1.2L352.7,68.9z M350.7,68.4l0.3-1.2l1,0.3l-0.3,1.2L350.7,68.4z M348.6,68l0.3-1.2l1,0.2
			l-0.3,1.2L348.6,68z M346.6,67.5l0.3-1.2l1,0.2l-0.3,1.2L346.6,67.5z M344.5,67.1l0.2-1.2l1,0.2l-0.2,1.2L344.5,67.1z M342.5,66.7
			l0.2-1.2l1,0.2l-0.2,1.2L342.5,66.7z M340.4,66.3l0.2-1.2l1,0.2l-0.2,1.2L340.4,66.3z M265.1,65c0,0,0.4,0,1.1-0.1l0.1,1.2
			c-0.7,0.1-1,0.1-1,0.1L265.1,65z M338.4,66l0.2-1.2l1,0.2l-0.2,1.2L338.4,66z M267.2,64.7l1-0.1l0.1,1.2l-1,0.1L267.2,64.7z
			 M336.3,65.7l0.2-1.2l1,0.1l-0.2,1.2L336.3,65.7z M269.2,64.5l1-0.1l0.1,1.2l-1,0.1L269.2,64.5z M334.2,65.5l0.1-1.2l1,0.1
			l-0.2,1.2L334.2,65.5z M271.3,64.3l1-0.1l0.1,1.2l-1,0.1L271.3,64.3z M332.1,65.2l0.1-1.2l1,0.1l-0.1,1.2L332.1,65.2z M273.4,64.1
			l1.1-0.1l0.1,1.2l-1,0.1L273.4,64.1z M275.5,63.9l1.1-0.1l0.1,1.2l-1,0.1L275.5,63.9z M330,65l0.1-1.2l1,0.1l-0.1,1.2L330,65z
			 M277.6,63.8l1-0.1l0.1,1.2l-1,0.1L277.6,63.8z M327.9,64.8l0.1-1.2l1,0.1l-0.1,1.2L327.9,64.8z M279.7,63.6l1-0.1l0.1,1.2l-1,0.1
			L279.7,63.6z M325.9,64.7l0.1-1.2l1,0.1l-0.1,1.2L325.9,64.7z M281.8,63.5l1.1-0.1l0.1,1.2l-1,0.1L281.8,63.5z M323.8,64.5
			l0.1-1.2l1,0.1l-0.1,1.2L323.8,64.5z M283.9,63.3l1.1-0.1l0.1,1.2l-1,0.1L283.9,63.3z M321.7,64.4l0.1-1.2l1,0.1l-0.1,1.2
			L321.7,64.4z M286,63.2l1.1-0.1l0.1,1.2l-1,0.1L286,63.2z M319.6,64.3l0.1-1.2l1.1,0.1l-0.1,1.2L319.6,64.3z M288.1,63.1l1.1,0
			l0.1,1.2l-1,0L288.1,63.1z M290.2,63l1.1,0l0.1,1.2l-1,0L290.2,63z M317.5,64.2l0.1-1.2l1.1,0l-0.1,1.2L317.5,64.2z M292.3,62.9
			l1.1,0l0,1.2l-1,0L292.3,62.9z M315.4,64.1l0-1.2l1,0l0,1.2L315.4,64.1z M294.4,62.8l1.1,0l0,1.2l-1,0L294.4,62.8z M313.3,64
			l0-1.2l1.1,0l0,1.2L313.3,64z M296.5,62.8l1.1,0l0,1.2l-1,0L296.5,62.8z M311.2,64l0-1.2l1,0l0,1.2L311.2,64z M298.6,62.7l1.1,0
			l0,1.2l-1,0L298.6,62.7z M309.1,63.9l0-1.2l1.1,0l0,1.2L309.1,63.9z M300.7,62.7l1.1,0l0,1.2l-1,0L300.7,62.7z M307,63.9l0-1.2
			l1,0l0,1.2L307,63.9z M302.9,62.7l1.1,0l0,1.2l-1,0L302.9,62.7z M305,63.9v-1.2l1.1,0l0,1.2L305,63.9z"/>
		<path d="M403.5,85.7l0.7-1c0.4,0.2,0.7,0.4,0.9,0.6l-0.7,1C404.2,86.2,403.9,86,403.5,85.7z M401.8,84.6l0.7-1l0.9,0.6l-0.7,1
			L401.8,84.6z M400,83.5l0.6-1l0.9,0.6l-0.6,1L400,83.5z M398.2,82.4l0.6-1.1l0.9,0.5l-0.6,1L398.2,82.4z M396.4,81.4l0.6-1.1
			l0.9,0.5l-0.6,1.1L396.4,81.4z M394.5,80.3l0.6-1.1l0.9,0.5l-0.6,1.1L394.5,80.3z M392.7,79.3l0.6-1.1l0.9,0.5l-0.6,1.1
			L392.7,79.3z M390.9,78.4l0.6-1.1l0.9,0.5l-0.6,1.1L390.9,78.4z M389,77.4l0.6-1.1l0.9,0.5l-0.6,1.1L389,77.4z M387.1,76.5
			l0.5-1.1l0.9,0.5l-0.5,1.1L387.1,76.5z M385.2,75.6l0.5-1.1l1,0.5l-0.5,1.1L385.2,75.6z M383.3,74.7l0.5-1.1l1,0.4l-0.5,1.1
			L383.3,74.7z M381.4,73.8l0.5-1.1l1,0.4l-0.5,1.1L381.4,73.8z M379.5,73l0.5-1.1l1,0.4l-0.5,1.1L379.5,73z M377.6,72.2l0.5-1.1
			l1,0.4l-0.5,1.1L377.6,72.2z M375.7,71.4l0.5-1.1l1,0.4l-0.5,1.1L375.7,71.4z M373.7,70.6l0.4-1.1l1,0.4l-0.5,1.1L373.7,70.6z
			 M371.8,69.8l0.4-1.1l1,0.4l-0.4,1.1L371.8,69.8z M369.8,69.1l0.4-1.1l1,0.4l-0.4,1.1L369.8,69.1z M367.8,68.4l0.4-1.2l1,0.4
			l-0.4,1.2L367.8,68.4z M365.8,67.7l0.4-1.2l1,0.3l-0.4,1.2L365.8,67.7z M363.8,67.1l0.4-1.2l1,0.3l-0.4,1.2L363.8,67.1z
			 M361.9,66.4l0.4-1.2l1,0.3l-0.4,1.2L361.9,66.4z M359.8,65.8l0.3-1.2l1,0.3l-0.4,1.2L359.8,65.8z M357.8,65.3l0.3-1.2l1,0.3
			l-0.3,1.2L357.8,65.3z M355.8,64.7l0.3-1.2l1,0.3l-0.3,1.2L355.8,64.7z M353.8,64.2l0.3-1.2l1,0.3l-0.3,1.2L353.8,64.2z
			 M351.8,63.7l0.3-1.2l1,0.2l-0.3,1.2L351.8,63.7z M349.7,63.2L350,62l1,0.2l-0.3,1.2L349.7,63.2z M347.7,62.8l0.3-1.2l1,0.2
			l-0.3,1.2L347.7,62.8z M345.6,62.4l0.2-1.2l1,0.2l-0.2,1.2L345.6,62.4z M343.6,62l0.2-1.2l1,0.2l-0.2,1.2L343.6,62z M341.5,61.6
			l0.2-1.2l1,0.2l-0.2,1.2L341.5,61.6z M339.5,61.3l0.2-1.2l1,0.2l-0.2,1.2L339.5,61.3z M337.4,61l0.2-1.2l1,0.1l-0.2,1.2L337.4,61z
			 M335.3,60.7l0.2-1.2l1,0.1l-0.2,1.2L335.3,60.7z M333.2,60.5l0.1-1.2l1,0.1l-0.1,1.2L333.2,60.5z M331.2,60.2l0.1-1.2l1,0.1
			l-0.1,1.2L331.2,60.2z M268.3,59.1c0,0,0.4,0,1.1-0.1l0.1,1.2c-0.7,0.1-1,0.1-1,0.1L268.3,59.1z M329.1,60l0.1-1.2l1,0.1l-0.1,1.2
			L329.1,60z M270.4,58.9l1-0.1l0.1,1.2l-1,0.1L270.4,58.9z M327,59.8l0.1-1.2l1,0.1l-0.1,1.2L327,59.8z M272.5,58.7l1-0.1l0.1,1.2
			l-1,0.1L272.5,58.7z M324.9,59.7l0.1-1.2l1,0.1l-0.1,1.2L324.9,59.7z M274.6,58.5l1-0.1l0.1,1.2l-1,0.1L274.6,58.5z M276.7,58.4
			l1.1-0.1l0.1,1.2l-1,0.1L276.7,58.4z M322.8,59.5l0.1-1.2l1,0.1l-0.1,1.2L322.8,59.5z M278.8,58.2l1.1-0.1l0.1,1.2l-1,0.1
			L278.8,58.2z M320.7,59.4l0.1-1.2l1,0.1l-0.1,1.2L320.7,59.4z M280.9,58.1l1.1-0.1l0.1,1.2l-1,0.1L280.9,58.1z M318.6,59.2
			l0.1-1.2l1,0.1l-0.1,1.2L318.6,59.2z M283,58l1.1-0.1l0.1,1.2l-1,0.1L283,58z M316.6,59.1l0.1-1.2l1,0.1l0,0.6l-0.1,0.6
			L316.6,59.1z M285.1,57.9l1.1,0l0.1,1.2l-1,0L285.1,57.9z M314.5,59l0.1-1.2l1.1,0l0,0.6l-0.1,0.6L314.5,59z M287.2,57.8l1.1,0
			l0,1.2l-1,0L287.2,57.8z M312.4,59l0-1.2l1.1,0l0,0.6l-0.1,0.6L312.4,59z M289.3,57.7l1.1,0l0,1.2l-1,0L289.3,57.7z M310.3,58.9
			l0-1.2l1.1,0l0,0.6l-0.1,0.6L310.3,58.9z M291.4,57.7l1.1,0l0,1.2l-1,0L291.4,57.7z M308.2,58.8l0-1.2l1.1,0l-0.1,1.2L308.2,58.8z
			 M293.5,57.6l1.1,0l0,1.2l-1,0L293.5,57.6z M306.1,58.8l0-1.2l1.1,0l0,1.2L306.1,58.8z M295.6,57.6l1.1,0l0,1.2l-1,0L295.6,57.6z
			 M304,58.8l0-1.2l1.1,0l0,1.2L304,58.8z M297.7,57.5l1.1,0l0,1.2l-1,0L297.7,57.5z M301.9,58.8l0-1.2l1.1,0l0,1.2L301.9,58.8z
			 M299.8,57.5l1.1,0l0,1.2l-1,0L299.8,57.5z"/>
	</g>
</g>
<g id="SHADING">
	<g opacity="2.000000e-02">
		<path d="M257.7,228.4c0,0,0.6-25.5,9-41c8.3-15.5,28.1-38.9,28.1-38.9s-24.5,8-29.9,23.9C259.4,188.3,257.7,228.4,257.7,228.4z"/>
		<path d="M260.5,215.8c0,0,1.4-12.5,15.2-25c13.8-12.5,25.5-17.5,25.5-17.5L260.5,215.8z"/>
		<path d="M263.8,317c0,0,29.8-48.5,42.9-61c13.1-12.4,27.1-22.8,27.1-22.8s-24.2,28.3-30.9,39.2C296.1,283.4,263.8,317,263.8,317z"
			/>
		<path d="M307.9,303.8c0,0,22.3-14.2,28.8-20.8c6.5-6.6,17.6-16.6,17.6-16.6s-7.2,19-15.8,25.8C329.9,299,307.9,303.8,307.9,303.8z
			"/>
		<path d="M275.8,627.6c0,0,19-26.9,22-42.8c3.1-15.9,1.2-37.9,1.2-37.9L275.8,627.6z"/>
		<path d="M288.6,623.9c0,0,15.3-15.3,18.4-26.3c3.1-11,1.8-19.6,1.8-19.6s6.1,23.3,3.1,27.5C308.8,609.8,288.6,623.9,288.6,623.9z"
			/>
	</g>
</g>
</svg>
