<?xml version="1.0" encoding="utf-8"?>
<!-- Generator: Adobe Illustrator 27.1.1, SVG Export Plug-In . SVG Version: 6.00 Build 0)  -->
<svg version="1.1" xmlns="http://www.w3.org/2000/svg" xmlns:xlink="http://www.w3.org/1999/xlink" x="0px" y="0px"
	 viewBox="0 0 640 1042.1" enable-background="new 0 0 938.2 1042.1" xml:space="preserve">
<g id="PADS">
	<g>
		<g>
			<path fill="#897F76" d="M444.9,366.3c0,0,43.1-17.7,77.1-15.5c34,2.2,75.4,16.8,100.3,40c25,23.3,43.9,58.1,43.9,101.6
				s-22.8,123.1-43.1,149.4c-20.2,26.3-50.4,37.5-71,44.4c-20.7,6.9-37.9,4.3-37.9,4.3L509,537.3l-40-129.6l-28.8-33.6L444.9,366.3z
				"/>
			<g>
				<g>
					<g>
						<g>
							<polygon fill="#625A57" points="444.4,365.8 444.2,366.2 443.6,367.2 							"/>
							<path fill="#625A57" d="M440.6,372.5c0.1-0.2,0.1-0.1,0.2-0.3l2.1-4C441.8,369.8,441.4,371.4,440.6,372.5z"/>
							<path fill="#625A57" d="M439.9,373.6c-0.1,0.1-0.1,0.2-0.2,0.3l-0.2,0.3l0.2,0.3c0.9,1.1,1.4,1.5,1.7,1.8
								c-0.3-0.3-1.2-1.4-1.6-1.8l-0.2-0.2l0.1-0.3C439.9,373.6,440,373.5,439.9,373.6z"/>
							<path fill="#625A57" d="M499.6,508.1c0-0.2-0.1-0.4-0.2-0.5C499.5,507.8,499.5,508,499.6,508.1z"/>
							<path fill="#625A57" d="M509.4,545.6l0.1,0.4c-0.2-2.8-0.3-5.7-0.4-8.7l0,0l0,0c-1.4-4.6-2.8-9.3-4.3-13.8l0.2,0.5
								c-5.7-18.7-11.2-35.8-17-54.3c0.1,0.3,0.2,0.4,0.3,0.7c-0.3-0.9-0.7-1.9-1-2.9c-0.1-0.3,0.1,0.3,0.2,0.6
								c-1-4-3.7-11.5-4.3-13.9c-0.4-1.1-0.6-1.6-0.4-0.9c-4.5-14.5-9.3-30-14-44.7c-0.1-0.3-0.1-0.5-0.1-0.6l0.1,0.1
								c-0.1-0.1-0.1-0.2,0-0.1c-8.8-9.8-17.8-20.4-26.5-30.7c-0.4-0.3,0.8,1.1-0.1,0.1c2.8,3.4,5.3,5.9,7.8,9l-0.4-0.3
								c1.8,2.2,0.5,0.3,2.4,2.6c0.7,0.9-0.3-0.2,0.1,0.3c4,4.6,8.1,9.5,12,13.7c0.6,1,3,3.6,4.6,5.5l-0.1-0.2
								c0.2,0.6,0.3,1.1,0.4,1.6c0.5,1.5,1,3,1.3,3.5c6.2,20.4,12.8,41.2,19.2,62.1c3.3,9.7,6.6,21.5,10.3,33c0,0.1,0,0.1,0,0
								c1.2,3.8,3,9.3,4.3,13.8l1.3,3.8c1.2,3.9,2.3,7.8,3.5,11.7l0-0.1c0.8,24.4,1.6,49.3,2.4,74c0.9,27.8,1.5,52.7,2.6,79.3l0,0.4
								l0.3,0c4.6,0.5,9.4,0.5,14.2,0.1c0,0,0.2,0-0.6,0.1c9.2-0.6,17.6-2.2,25.8-5.1l0,0c5.1-1.8,10.3-3.6,15.4-5.7
								c5.1-2.1,10.2-4.4,15.2-6.9c5-2.5,9.7-5.4,14.3-8.4c4.5-3,8.7-6.4,12.5-9.9c4.7-4.3,9.1-9.1,13.1-14.4
								c3.9-5.4,7.1-11.4,10.1-17.5c5.9-12.3,10.6-25.4,14.6-38.1l0,0.1c3.2-10.2,6-20.4,8.6-30.6c2.5-10.2,4.7-20.5,6.2-31.1
								c0.9-5.4,1.6-11,2-16.6c0.5-5.6,0.7-11.3,0.5-16.9c-0.3-11.3-1.9-22.6-4.6-33.3c-1.6-6.7-4.1-14.2-7.5-21.3
								c-3.3-7.1-7.2-13.8-10.5-19.3c-3.6-5.6-7.5-10.9-11.8-15.8c-4.4-4.9-9-9.5-14-13.7c-5.1-4.1-10.4-7.8-16.1-11.1
								c-5.7-3.2-11.5-6.3-17.6-8.9c-11.1-5.1-22.8-8.8-34.5-11.5c-1.5-0.4-3-0.6-4.4-0.9c-1.5-0.3-2.9-0.6-4.4-0.9
								c-3-0.5-5.9-1-8.9-1.4c-1.5-0.2-3-0.4-4.4-0.5c-1.5-0.1-3-0.3-4.4-0.4c-1.5-0.2-3-0.1-4.4-0.2c-1.5,0-3-0.2-4.4-0.1
								c-1.4,0.1-2.8,0.1-4.2,0.2c-1.4,0-2.9,0.2-4.3,0.3c-2.9,0.2-5.9,0.6-8.9,0.9c-6,0.8-12.1,1.9-18.2,3.4l0.5,0
								c-4.4,0.8-9.6,2.8-12.3,3.3l0.4-0.1c-2.3,0.5-5.1,2-6.6,2.2l-0.3,0.2c-2.7,0.9-0.4,0-2.5,0.7c-0.8,0.3-0.3,0.2-1.9,0.7
								c-0.2-0.1-1.9,0.5-3.5,1.1c-1.6,0.6-3.2,1.2-3.4,1c1.5-0.5-2.4,0.7,0.9-0.6c-0.5,0.1-1.8,0.7-3,1.1c-0.6,0.2-1.1,0.5-1.5,0.6
								c-0.5,0.2-0.6,0.4-0.5,0.3c-0.1,0.2-0.5,0.6-0.5,0.8c0,0.1,0,0.1,0.2,0c0.2-0.1,0.5-0.5,1.2-0.6l0.5-0.3
								c1-0.2,0.7-0.2,1.1-0.2c3.6-1.3,4.1-1.3,6.7-2.1c0,0-0.1,0,0,0c1.7-0.8,4.2-1.5,5.6-1.9l0.6-0.1c0.9-0.1,4-1.6,3-1
								c7.4-2.3,16-4.6,24.4-6.3c1.2-0.4,6.5-1.1,4.6-1c2.2-0.2,8.5-1,10.9-1.3c-0.1,0-0.2,0.1-0.6,0.1c4.6-0.1,5.4-0.8,9.8-0.6
								c0.2-0.1,0.7-0.1,1.5-0.2c0.8,0,1.8-0.1,2.9,0c2.2,0.1,4.6,0.1,5.8,0.1c0.5,0.1,0.7,0.2,0.5,0.2c1.9,0.2,3.9,0.3,5.9,0.5
								c2,0.3,4,0.5,6,0.8c1.9,0.3,3.9,0.7,5.7,1c1.8,0.3,3.6,0.7,5.2,1.1c2.8,0.4,6.1,1.3,9.3,2.1c1.6,0.5,3.2,0.9,4.6,1.3
								c0.7,0.2,1.4,0.4,2.1,0.6c0.7,0.2,1.3,0.4,1.9,0.5c1.9,0.7,4.4,1.4,7.1,2.5c1.3,0.5,2.7,1,4.1,1.5c1.4,0.5,2.7,1.1,4,1.6
								l-0.5-0.2c3,1.1,6.2,2.6,9.2,4c3,1.4,5.8,2.8,7.7,3.7c0.7,0.6,1.7,1.2,2.8,1.8c1.1,0.7,2.3,1.3,3.4,2.1
								c3.7,2,10.8,6.8,15.8,10.9c0.7,0.8,4,3.5,4.2,3.8c6.8,6,13.6,13.6,19.4,22c5.9,8.4,10.8,17.7,14.3,26.7l-0.1-0.3
								c0.6,1.1,1.1,2.4,1.6,3.6c0.5,1.2,1.1,2.5,1.6,3.7c0.1,0.2,0,0.2-0.2-0.3c0.6,1.6,1,3.3,1.5,5c0.5,1.6,1,3.3,1.4,5
								c0,0,0,0-0.2-0.6c0.4,1.6,0.8,3.3,1.2,5c0.4,1.7,0.7,3.6,1.1,5.5l0,0.2l0.5,2.4c-0.1,0-0.2-0.1-0.4-1.4l0.3,1.4l0.2,1.4
								l0.4,2.8c0.3,1.9,0.5,3.8,0.7,5.7c0.2,1.9,0.3,3.8,0.5,5.7c0.1,1.9,0.1,3.8,0.2,5.7c0.2,7.7-0.4,15.4-1.2,23.1
								c-1.7,15.4-4.8,30.8-8.6,45.9l0.2-1.1c-0.5,2-0.9,3.9-1.4,5.9c0,0,0-0.3,0.1-0.6c-2.1,7.4-4.1,15.1-6.4,22.3
								c0,0,0.3-1.1-0.1-0.2c-0.8,2.7-1.5,4.8-2.2,6.5c-0.6,1.8-1.1,3.2-1.4,4.6c-0.1,0.2-0.2,0.4-0.1-0.2
								c-2.5,7.3-5.3,14.6-8.5,21.8c-3.2,7.1-6.8,14.2-11.1,20.6c-1.8,2.7-3.9,5.3-6.1,7.9c-1.1,1.2-2.3,2.5-3.5,3.8
								c-1.2,1.2-2.5,2.4-3.7,3.6c-5.1,4.7-10.7,8.9-16.3,12.6l0-0.1c-7.3,4.8-15.3,8.9-23.7,12.3c-4.2,1.8-8.5,3.3-12.8,4.8
								c-4.3,1.5-8.6,3-13,4.1c-3.6,0.9-6.7,1.5-9.8,2c-3.1,0.5-6.3,0.8-10,1l-0.2-0.1c-3.8,0.2-7.6,0.2-11.6-0.3l0,0.1
								c-0.3-9.3-0.4-19-0.9-28.4l0.1,0.9c-0.2-2-0.2-8-0.5-7.2l0-2.3c-0.7-9-0.4-16.4-1-27.4l0.1,0.7c-0.2-2.9-0.3-6.3-0.3-8.5
								c0,0.3,0,0.2,0.1,0.9c0-9.2-0.7-19.4-1-29.1l0.2,1.1c-0.3-4.7-0.5-13.3-0.7-19.4l0.1,0.4l-0.2-3.1l0.1-0.1
								C510,560.9,509.7,553.4,509.4,545.6z"/>
							<path fill="#625A57" d="M487.5,468C487.5,468,487.6,468,487.5,468C487.6,468.3,487.6,468.2,487.5,468z"/>
							<path fill="#625A57" d="M454.8,363.3c-0.4,0.1-0.6,0.2-0.9,0.3C453.9,363.6,454.5,363.4,454.8,363.3z"/>
						</g>
					</g>
				</g>
			</g>
		</g>
		<g>
			<path fill="#897F76" d="M383.7,361.6c0,0-13.7-3.1-36.6,0.9c-27.6,4.7-88.7,43.9-108.5,81.4c-19.8,37.5-30.6,74.9-26.7,133.5
				c3.9,58.6,23.2,110.2,57.3,145.1c34,34.9,83.5,68,142.1,63.3c58.6-4.7,83.1-43.5,84.8-46.1c1.7-2.6,27.1-43.5,40-102
				c12.9-58.6,21.1-97.3,11.6-146.8c-9.5-49.5-30.5-79.1-74.9-109.4C432.4,353.9,383.7,361.6,383.7,361.6z"/>
			<g>
				<g>
					<g>
						<g>
							<polygon fill="#625A57" points="383.7,362.3 384.4,362.2 385.9,361.9 							"/>
							<path fill="#625A57" d="M393.5,361.2c-0.3,0-0.2,0-0.4,0c-1.9,0.2-3.8,0.4-5.7,0.7C390,361.8,391.8,361.1,393.5,361.2z"/>
							<path fill="#625A57" d="M395.2,361.1c2.2,0,3.2-0.1,3.7-0.2C398.1,361.1,394.8,361,395.2,361.1z"/>
							<path fill="#625A57" d="M542.4,470.4c-0.1-0.2-0.1-0.5-0.2-0.7C542.3,470.1,542.4,470.3,542.4,470.4z"/>
							<path fill="#625A57" d="M551.6,520.9l0.1,0.5c-0.7-9.6-1.8-20.4-3.8-30.4l0.2,0.7c-2.3-12.7-5.6-24.7-10.3-36.2
								c-4.7-11.4-10.8-22.3-18.6-32.4c0.3,0.3,0.3,0.4,0.6,0.7c-0.4-0.5-0.8-1-1.2-1.5c-0.4-0.5-0.9-1-1.3-1.6
								c-0.2-0.3,0.3,0.3,0.6,0.6c-3.2-4.4-10.5-11.9-12.9-14.2c-1.1-1-1.6-1.5-1.1-0.8c-7.2-6.9-15.3-13.4-23.7-19.5l-6.4-4.5
								c-1.1-0.8-2.2-1.4-3.2-2.1l-1.6-1.1l-1.7-1c-4.5-2.6-9.1-4.9-13.8-6.9c-0.9-0.4-1-0.5-0.8-0.5c-8.1-3.2-16.7-5.6-25.5-7.3
								c-8.8-1.6-17.8-2.5-26.7-2.6c-0.7,0.1,1.8,0.1,0.1,0.2c5.7,0.1,10.5,0.1,15.6,0.8l-0.7,0c3.7,0.5,0.8-0.1,4.7,0.5
								c1.5,0.3-0.4,0,0.3,0.1c7.9,1.1,16.1,3,23.3,5.2c0.4,0.2,1.2,0.4,2,0.8c0.9,0.3,1.9,0.7,3,1.1c2.1,0.8,4.4,1.7,5.7,2.4
								c1,0.4,1.9,0.8,2.7,1.1c0.8,0.4,1.4,0.7,1.8,0.8c3.2,1.5,6.2,3.3,9.2,5.1c1.5,0.9,3,1.9,4.4,2.9l4.3,3.1c1.4,1,2.9,2,4.3,3.1
								l4.3,3.2c2.9,2.1,5.6,4.4,8.4,6.7c11,9.1,21,19.6,29.2,31.4c0.9,1.4,1.9,2.8,2.9,4.3c0.5,0.7,1,1.5,1.5,2.2
								c0.4,0.8,0.9,1.6,1.4,2.4c0.9,1.6,1.9,3.2,2.7,4.9c0.8,1.7,1.7,3.4,2.5,5.1c3.2,7,6.1,14.5,8.3,22.2c0,0.1,0,0.1,0,0
								c1.6,5,3.4,12.3,4.6,18.4c0.4,1.7,0.8,3.4,1.1,5.2c1.6,9.2,2.6,18.6,3.1,28c0.5,9.4,0.4,18.9-0.3,28.4
								c-0.7,9.5-1.8,18.9-3.3,28.3c-1.5,9.4-3.3,18.8-5.2,28.1c-2.2,10.6-4.5,20.8-6.7,30.9c-2.3,10-4.9,19.8-7.9,29.4
								c-6.1,19.2-13.5,37.8-23,56.6c0-0.1-0.2,0.2,0.3-0.7c-2.7,5.4-5.5,10.5-8.5,15.4c-3,4.8-6.7,9.1-10.6,13.3l0,0
								c-9.8,10.3-22.2,18.8-35.7,24.5c-13.5,5.8-27.9,8.7-41.5,9.7c-16.6,1.1-34.5-1-51.7-6.4c-17.2-5.3-33.6-13.7-48.2-23.6l0.1,0
								c-11.7-7.9-22.5-16.8-32.5-26.4c-2.5-2.4-5-4.9-7.4-7.4l-3.5-3.8c-1.2-1.3-2.4-2.5-3.5-3.9l-3.3-4c-0.5-0.7-1.1-1.3-1.7-2
								l-1.6-2.1c-1-1.4-2.1-2.8-3.1-4.2c-1.1-1.4-2-2.9-3-4.4c-7.9-12.1-14.8-25.4-20.3-39.3c-5.4-13.9-9.5-28.4-12.2-42.7
								c-1.7-8.9-3.2-19.2-4.3-29.5c-0.2-2.6-0.5-5.1-0.7-7.7c-0.2-2.5-0.3-5-0.5-7.5c-0.3-4.9-0.3-9.6-0.3-13.8
								c0.1-8.7,0.4-17.4,1.2-26c0.8-8.6,1.9-17.1,3.7-25.5c1.7-8.4,3.8-16.8,6.6-24.9c2.7-8.2,5.9-16.2,9.6-24.2l2.6-5.4l2.8-5.4
								c0.9-1.8,1.9-3.5,2.9-5.3c1.1-1.7,2.1-3.4,3.3-5.1c4.5-6.7,9.8-12.8,15.3-18.5c5.5-5.7,11.5-11,17.6-16
								c6.1-5,12.5-9.6,19-13.9c6.1-4.2,12.7-8.2,19.8-11.9c3.5-1.9,7.2-3.6,10.9-5.3c3.7-1.7,7.5-3.2,11.4-4.5l-0.6,0.1
								c2.8-0.9,5.9-1.9,8.9-2.5c2.9-0.6,5.6-1.1,7.5-1.1l-0.6,0.1c3.1-0.3,7.2-1.2,9.1-1.1l0.5-0.1c3.8-0.2,0.5,0.1,3.4,0
								c1.1,0,0.4-0.2,2.7-0.2c0.3,0.2,2.6,0.1,4.9,0.2c2.3,0.1,4.5,0.3,4.6,0.5c-2.1-0.2,3.2,0.4-1.4,0.1c0.7,0.1,2.6,0.2,4.2,0.4
								c1.6,0.2,3.1,0.4,2.8,0.3c0.3-0.1,1-0.1,1.2-0.2c0.1,0,0.1-0.1-0.2-0.1c-0.1,0-0.4,0-0.7-0.1c-0.1,0-0.3,0-0.5-0.1
								c-0.2,0-0.4-0.1-0.6-0.1l-0.8,0c-1.3-0.3-1-0.2-1.4-0.4c-2.5-0.3-3.9-0.5-5.2-0.6c-1.2-0.1-2.3-0.2-4.1-0.3c0,0,0.1,0,0,0
								c-2.5,0.1-5.9,0.1-7.9,0.2l-0.8,0c-1.2-0.1-5.7,0.7-4.2,0.3c-2.6,0.3-5.2,0.6-7.9,1c-2.7,0.4-5.5,0.8-8.2,1.6
								c-5.5,1.4-10.9,3.6-16.1,6c-1.4,0.7-7.9,3.8-5.6,2.9c-1.3,0.5-3.9,1.8-6.5,3.1c-2.6,1.4-5.1,2.8-6.5,3.6
								c0.1-0.1,0.2-0.2,0.6-0.4c-5.4,2.9-6.1,4-11.1,6.8c-0.3,0.4-2.5,1.8-4.9,3.4c-2.4,1.6-5,3.5-6.2,4.6
								c-0.6,0.4-0.8,0.5-0.6,0.3c-8.3,6.2-17.2,13.5-23.4,19.6c-2.6,2.7-5.8,5.9-8.8,9.2c-2.9,3.3-5.7,6.6-7.4,9.3
								c-0.8,1-1.7,2.3-2.7,3.7c-1,1.4-1.9,2.9-3,4.5c-2,3.2-3.7,6.8-5.4,10.2l0.3-0.7c-1,1.9-1.9,3.9-2.9,5.9c-1,2-1.9,4.1-2.8,6.1
								c-1.8,4-3.2,7.8-4.2,10.5c-0.6,1.1-1.1,2.5-1.8,4.1c-0.6,1.6-1.3,3.3-1.8,5c-0.4,1.3-0.9,3-1.5,4.9c-0.6,1.9-1.1,4-1.8,6.3
								c-0.7,2.2-1.2,4.6-1.7,6.8c-0.3,1.1-0.5,2.3-0.8,3.4c-0.2,1.1-0.4,2.2-0.6,3.3c-0.2,0.6-0.5,2.4-0.8,4
								c-0.3,1.6-0.5,3.2-0.7,3.4c-1.8,11.9-2.9,25.3-3,38.9c-0.1,13.6,0.5,27.4,1.8,40.2l-0.1-0.4c0.5,3.3,1.1,7.1,1.8,10.4
								c0,0.3,0,0.3-0.1-0.4c0.4,2.3,0.7,4.5,1,6.8c0.3,2.2,0.8,4.5,1.2,6.8c0,0,0,0-0.2-0.8c0.5,2.1,0.8,4.4,1.3,6.7
								c0.5,2.3,1,4.7,1.7,7.2l0,0.3c0.3,1.1,0.6,2.1,0.9,3.2c-0.1-0.1-0.2-0.2-0.6-1.9c2.5,9.7,5.5,19.4,9.2,28.9
								c3.8,9.5,8.1,18.7,13.2,27.7c1.3,2.2,2.6,4.4,3.9,6.6c1.4,2.2,2.8,4.3,4.3,6.4l1.1,1.6c0.4,0.5,0.8,1,1.1,1.6l2.3,3.1
								l2.3,3.1l2.5,3c3.2,4,6.8,7.8,10.3,11.5c3.6,3.7,7.3,7.3,11.1,10.7l-1.2-1c2,1.8,4,3.5,6,5.2c-0.1,0-0.3-0.2-0.6-0.5
								c3.8,3.4,7.8,6.7,11.9,9.8c4.1,3.1,8.3,6.1,12.4,8.9c-0.1,0-1.3-0.8-0.2,0c6.2,3.9,9.9,6.5,13.2,8c0.3,0.2,0.5,0.4-0.2,0
								c4.5,2.5,9.1,4.8,13.7,7c4.7,2.2,9.5,4.1,14.4,5.9c9.8,3.5,19.9,6.1,30.1,7.6c8.5,1,17.6,1.6,26.8,1
								c9.1-0.5,18.4-1.8,26.9-4.2l-0.1,0.1c11.1-3,22.2-7.7,32.3-14c10.1-6.4,19.4-14.4,26.7-23.9c3.1-3.9,5.1-7.6,7.1-11.2
								c2-3.6,4-7.3,6.2-11.8l0.2-0.2c7.3-15.1,14.9-32,20-48.7l-0.3,1.2c0.3-1.3,1.2-3.8,1.9-5.9c0.6-2.1,1.1-3.7,0.8-3.3l1-2.9
								c3-11.5,5.8-20.8,8.6-35.1l-0.1,0.9c0.8-3.8,1.7-8.2,2.3-11c-0.1,0.4,0,0.2-0.2,1.1c2.8-11.8,5.2-25.1,7.2-37.7l-0.1,1.5
								c0.2-1.5,0.5-3.4,0.8-5.4c0.3-2,0.6-4.3,0.9-6.6c0.3-2.3,0.6-4.7,0.8-6.9c0.3-2.3,0.4-4.5,0.6-6.5l0,0.5l0.3-4.1l0.1-0.1
								C552.2,541.2,552.2,531.2,551.6,520.9z"/>
							<path fill="#625A57" d="M517.8,421.4C517.8,421.5,517.8,421.5,517.8,421.4C518.1,421.8,518,421.7,517.8,421.4z"/>
							<path fill="#625A57" d="M370.1,359.9c0.5,0,0.9,0,1.3,0C371.3,359.9,370.5,359.9,370.1,359.9z"/>
						</g>
					</g>
				</g>
			</g>
		</g>
	</g>
</g>
 <g id="CUSTOM"> </g>
  <g id="STRAPS">
	<g>
		<g>
			<path fill="#AFB1AF" d="M580.1,675.4c0,0,7,16.5,8.5,30.7c1.6,15.1-1.1,29.9-1.1,29.9l28-5.8c0,0,0.9-19.1-0.2-31.4
				c-1.7-18.7-9.9-39.5-9.9-39.5L580.1,675.4z"/>
			<g>
				<g>
					<g>
						<g>
							<polygon fill="#B9BBB9" points="580.5,675.9 580.6,675.9 580.7,675.7 							"/>
							<path fill="#B9BBB9" d="M581.7,674.9C581.6,674.9,581.6,674.9,581.7,674.9l-0.7,0.7C581.4,675.6,581.4,675,581.7,674.9z"/>
							<path fill="#B9BBB9" d="M581.9,674.8c0.3-0.1,0.4-0.3,0.4-0.4C582.3,674.5,581.8,674.7,581.9,674.8z"/>
							<path fill="#B9BBB9" d="M606.1,662.2C606.1,662.1,606.1,662.1,606.1,662.2C606.1,662.1,606.1,662.2,606.1,662.2z"/>
							<path fill="#B9BBB9" d="M609.1,669.7l0.1,0c-0.6-1.4-1-3.1-1.6-4.6l0.1,0.1c-0.7-2.1-1.4-4.1-2.3-6l0-0.1l-0.1,0
								c-1.5,1-2.9,2-4.5,3c0,0,0-0.1,0.1-0.1c-0.1,0.1-0.3,0.3-0.5,0.4c-0.1,0,0-0.1,0.1-0.1c-0.8,0.3-2,1.4-2.6,1.6
								c-0.2,0.1-0.2,0.3-0.1,0.2c-2.6,1.7-5.5,3.6-8.1,5.4c-0.1,0.1-0.2,0-0.2,0c-2.2,1.7-4.7,3.2-7.1,4.7c0,0.1,0.3-0.1,0.1,0.1
								c0.8-0.4,1.3-1.1,2.1-1.4l0,0.1c0.5-0.3,0-0.2,0.6-0.5c0.2-0.1,0,0.1,0.1,0.1c1.1-0.7,2.2-1.4,3.1-2.2c0.3,0,1.2-0.7,1.6-0.8
								c0.2-0.2,0.5-0.4,0.6-0.6c3.8-2.3,7.5-4.9,11.4-7.3c1-0.9,2.2-1.6,3.5-2.3l-0.5-0.2c0.3,0.9,0.6,1.9,1,2.8c0,0,0,0,0,0
								c0.4,0.7,0.8,1.9,1.1,2.8l0.4,0.7c1.6,5.7,3.5,11.4,4.8,17.3c1.5,6.7,2.2,12.6,3,19.1c0,0,0,0-0.1-0.1
								c0.2,1.9,0.1,3.7,0.2,5.5l0,0c0.4,4.5,0.1,9.3,0.3,13.6c-0.1,2.8-0.2,5.9-0.3,9l0.1-0.1c-2.5,0.5-5.1,1.1-7.6,1.7l0-0.1
								c-4.3,1-8.6,1.6-13,2.6c-2.5,0.4-4.9,1.1-7.4,1.7l0.1,0.1c0.3-2.1,0.5-4.3,0.8-6.3c0.6-2.8,0.2-6.6,0.6-9.3
								c0.7-5.5,0.2-10.9-0.8-16.3c-0.5-5.1-2.2-9.9-3.2-14.7c-0.9-2.2-1.2-4.8-2.1-7.2l0,0.1c-0.1-1-1-1.8-0.9-2.5l0,0.1
								c0-0.5-0.8-0.9-0.7-1.3l-0.1,0c-0.2-0.5,0.1-0.1-0.1-0.5c-0.1-0.2-0.2,0-0.3-0.4c0.3-0.2-0.6-1.3-0.3-1.5
								c0.1,0.3,0-0.5,0.3,0.1c0-0.2-0.4-1.1-0.6-1c-0.2,0-0.5-0.3-0.4,0.3l0.2,0.1c0,0.2,0,0.2-0.1,0.3c0.3,0.7,0.1,0.9,0.3,1.5
								c0,0,0,0,0,0c0.3,0.3,0.4,0.8,0.5,1.1l0,0.1c-0.1,0.2,0.6,0.7,0.3,0.6c0.6,1.5,1.3,3.2,1.8,4.9c0.2,0.2,0.4,1.3,0.5,0.9
								c-0.1,0.5,0.3,1.8,0.5,2.3c0,0-0.1,0-0.1-0.1c0,1,0.6,1,0.5,2c0.3,0.1,0.4,1.6,0.8,2c0,0.1-0.1,0.2-0.1,0.1
								c0.4,1.6,0.8,3.3,1.1,4.7c0.5,1.1,0.5,2.8,1,3.7c0.1,0.8,0.2,2.2,0.5,3.3l-0.1-0.1c0.2,1.3,0.4,2.9,0.7,3.8
								c-0.3,0.4-0.1,1-0.2,1.6c0.2,0.9,0.3,2.6,0.4,4c-0.1,0.2,0.1,1.1-0.1,1.2c0.5,3.7,0.2,8.4-0.4,12.4l0-0.1
								c0.1,0.5,0.3,1.1,0.3,1.7c0,0.1-0.1,0,0-0.1c0,0.7-0.3,1.4-0.3,2.1c0,0,0,0,0-0.1c0,0.7-0.3,1.4-0.3,2.2l-0.1,0l0,0.5
								c-0.1,0-0.2-0.1-0.1-0.3c-0.2,1.3-0.4,2.7-0.6,4l-0.1,0.8l0.8-0.2c4.9-1.1,9.9-2.3,14.9-3.3l-0.2,0.1l1.2-0.4
								c0,0-0.1,0.1-0.1,0.1c1.6-0.2,3.2-0.7,4.7-1c0,0-0.2,0.1,0,0.1c1.1-0.4,1.9-0.2,2.4-0.6c0.1,0,0.1,0.1,0,0.1
								c1.7-0.4,3.4-0.8,5.1-1.2l0.3-0.1l0-0.3c0.1-1.5,0.1-3,0.2-4.6c-0.2-2.7,0.1-5.7-0.1-8.5l0.1,0c-0.2-3.6,0-7.5-0.2-11.3
								c0-1.6-0.2-2.6-0.3-4.2l0.1,0c-0.5-2.6-0.2-5.6-1-8.3l0.1,0.2c-0.2-0.4-0.2-1.7-0.5-1.5l0-0.5c-0.7-1.8-0.4-3.4-1.1-5.6
								l0.1,0.1c-0.2-0.6-0.4-1.3-0.4-1.7c0,0.1,0,0,0.1,0.2c-0.2-1.9-0.9-3.9-1.5-5.9l0.2,0.2c-0.4-0.9-0.7-2.7-1.1-3.9l0.1,0.1
								l-0.3-0.6l0.1,0C610.2,672.7,609.6,671.3,609.1,669.7z"/>
							<path fill="#B9BBB9" d="M600.6,662.4C600.6,662.4,600.6,662.4,600.6,662.4C600.7,662.4,600.6,662.4,600.6,662.4z"/>
							<path fill="#B9BBB9" d="M580.4,677.6c0-0.1,0-0.1-0.1-0.2C580.3,677.4,580.4,677.5,580.4,677.6z"/>
						</g>
					</g>
				</g>
			</g>
		</g>
		<g>
			<path fill="#AFB1AF" d="M474.6,436.5c0,0,22.9-21.6,73-59.7c50-38,61.8-37.3,64.4-38c11-3.1,25.8-1.3,25.8-1.3l28.9,24.5
				c0,0,1.8,4.4-1.6,10.4c-3.4,6-25.6,37.8-25.6,37.8s-6.7-8.4-12-13.9c-4.9-5.1-10.6-10.1-10.6-10.1l7-10.7c0,0-10.5,2-39.1,25
				c-28.7,22.9-88.3,74.3-88.3,74.3s-12.2,12-15.4,14.1c-3.1,2.1-21.5,16.2-21.5,16.2s-2.5,0.1-5.6-0.9c-4.5-1.5-10.5-4.8-14.1-9.8
				c-1.5-2.1-3-4.3-3.9-6.6c-2.8-7.6-1.6-17.6,8-25.4C456.4,452.4,474.6,436.5,474.6,436.5z"/>
			<g>
				<g>
					<g>
						<g>
							<polygon fill="#B9BBB9" points="474.2,436 474,436.1 473.4,436.7 							"/>
							<path fill="#B9BBB9" d="M470.4,439.5c0.1-0.1,0.1,0,0.2-0.1l2.1-2.2C471.6,438,471.2,439,470.4,439.5z"/>
							<path fill="#B9BBB9" d="M469.7,440.1c-0.9,0.7-1.2,1.1-1.4,1.4C468.6,441.1,470,440.1,469.7,440.1z"/>
							<path fill="#B9BBB9" d="M468.6,498.7c-0.1,0.1-0.2,0.2-0.3,0.2C468.4,498.8,468.5,498.8,468.6,498.7z"/>
							<path fill="#B9BBB9" d="M489.5,481.4l0.1-0.3c-1.8,1.8-3.8,3.6-5.8,5.4c-2,1.8-4.4,3.3-6.5,4.9l0.3-0.2
								c-6.2,4.6-12.1,9.1-18,13.7l0,0c-2.8,0.1-5.6-0.7-8.2-1.8c-2.6-1.1-5.1-2.6-7.4-4.4c0.2,0.1,0.2,0.1,0.4,0.3
								c-0.5-0.4-1.1-0.8-1.7-1.3c-0.1-0.2,0.2,0.1,0.4,0.3c-2.1-1.9-5.4-6.4-6.1-8.1c-0.4-0.7-0.6-1-0.5-0.6
								c-0.6-1.2-1-2.5-1.4-3.8c-0.4-1.3-0.5-2.7-0.7-4c-0.2-2.7,0.2-5.5,1.1-8.2c0.9-2.6,2.3-5.1,4.1-7.2c1.7-2.2,3.9-4,5.9-5.7
								c0.4-0.3,0.5-0.3,0.5-0.2c6.9-6.1,14.3-12.2,21.5-18.3c0.2-0.3-0.8,0.6-0.1-0.1c-2.4,1.9-4.1,3.8-6.3,5.4l0.2-0.3
								c-1.6,1.3-0.2,0.4-1.8,1.7c-0.7,0.5,0.1-0.2-0.2,0c-3.2,2.8-6.6,5.6-9.6,8.3c-0.9,0.5-3.5,2.9-4.8,3.8
								c-0.8,0.7-1.7,1.4-1.9,1.8c-1.5,1.2-2.7,2.6-4,4.1c-1.2,1.5-2.2,3.1-3,4.9c-1.5,3.5-2.2,7.4-1.7,11.3
								c0.2,1.9,0.7,3.8,1.4,5.6c0.8,1.8,1.8,3.4,2.9,5c2.1,3.2,5,6,8.3,8c1.8,1,3.7,1.9,5.8,2.7c2.1,0.8,4.4,1.3,6.8,1.3l0.1,0
								l0.1-0.1c2.9-2.1,5.8-4.3,8.7-6.6c0.1,0,0.1,0,0,0c2.1-1.7,5.3-4.2,8-6.1l2.2-1.8c8.3-5.5,14.8-13.4,22.6-19.7
								c7.6-6.5,15.3-13.1,23-19.6c17.5-14.7,32.9-27.5,49.8-41.9c0,0,0.1-0.1-0.3,0.3c4.9-4.1,9.5-7.7,14.2-11.5l0,0
								c5.5-4.4,11.3-8.8,17.4-12.8c3-2,6.1-3.9,9.2-5.7c3.1-1.7,6.2-3.4,9.5-4.4l-0.2-0.2c-0.5,0.8-1,1.6-1.5,2.3
								c-1.7,2.6-3.5,5.3-5.5,8.4l-0.1,0.1l0.1,0.1c3.9,3.5,7.8,7.2,11.6,11.2c3.8,4.1,7.4,8.4,10.9,12.7l0.1,0.1l0.1-0.1
								c2.5-3.6,5-7.2,7.4-10.8l0,0.1c4.1-6,8.2-12,12.3-17.9c2-3,4.1-6,5.9-9.1c1.8-3.1,2.8-7,1.6-10.6l0,0l0,0
								c-0.2-0.1-0.4-0.3-0.5-0.5c-9.2-7.9-19-15.9-28.5-23.9l0,0c-3.2-0.3-6.5-0.5-9.7-0.6c-4.8-0.1-10.3,0.2-15.6,1.7
								c-5.4,0.9-10.3,3.1-14.4,4.9c-8.4,3.9-16.1,8.7-23.7,13.7c-7.5,5.1-14.8,10.5-22.1,16.1c-13.7,10.1-26.8,20.8-39.8,30.9
								c-5.9,5.1-12.9,10.1-19.5,15.8l0.3-0.1c-2.5,1.8-5.1,4.7-6.8,5.8l0.2-0.2c-1.4,0.9-2.6,2.8-3.5,3.3l-0.1,0.2
								c-1.5,1.3-0.2,0.1-1.4,1.1c-0.4,0.4-0.1,0.3-1,1c-0.4-0.1-3.6,3.3-4,3.1c0.8-0.7-1.4,1,0.4-0.7c-0.5,0.4-3,2.7-2.7,2.6
								c-0.1,0.3-0.9,1.3,0.7,0.1l0.2-0.4c0.6-0.4,0.4-0.3,0.7-0.4c2-1.8,2.4-1.9,3.8-3.1c0,0,0,0,0,0c0.9-1,2.3-2.1,3.1-2.8
								l0.4-0.2c0.6-0.3,2.1-2.2,1.6-1.5c4-3.6,8.7-7.6,13.4-11.5c0.6-0.6,3.6-2.9,2.4-2.3c1.3-0.8,4.8-3.6,6.1-4.7
								c0,0.1-0.1,0.1-0.3,0.3c2.7-1.8,2.8-2.6,5.4-4.3c0.2-0.5,4.3-3.4,5.5-4.7c0.3-0.2,0.5-0.2,0.4-0.1c4.3-3.4,9.1-7.1,12.7-9.9
								c3-2.6,7.6-5.8,10.1-8.1c2.3-1.6,5.9-4.3,9-6.8l-0.3,0.3c3.5-2.7,7.9-6,10.3-7.9c1.2-0.5,2.7-1.7,4.3-2.7
								c1.1-0.9,3-2.2,5-3.6c2-1.4,4.1-2.9,6-4.2c0.6-0.3,3.1-2.1,3.4-2.1c5.2-3.6,11.2-7.4,17.5-10.6c3.2-1.6,6.5-3.1,9.8-4.3
								c1.7-0.6,3.3-1,5-1.3c1.8-0.2,3.4-0.8,5.1-1l-0.2,0c1.7-0.4,3.6-0.9,5.4-1.2c0.2,0,0.2,0-0.2,0.1c2.4-0.3,4.8-0.2,7.2-0.2
								c0,0,0,0-0.4,0.1c2.3-0.1,4.7,0.2,7.5,0.3l0.1,0.1l1.7,0.1c0,0.1-0.1,0.1-1,0c0.7,0.1,1.3,0.1,2,0.2l-0.3-0.1
								c9.5,8.1,19.2,16.2,29,24.4l-0.1-0.2c0.6,1.8,0.6,3.9,0.2,5.9c-0.5,2-1.3,3.8-2.4,5.5c-2.2,3.5-4.5,6.9-6.8,10.4l0.4-0.7
								l-2.3,3.5c0,0,0.1-0.2,0.2-0.4c-3.1,4.4-6.1,9.1-9.1,13.3c0,0,0.4-0.7-0.1-0.1c-2.1,3.3-3.7,5-4.5,6.8
								c-0.1,0.1-0.3,0.2-0.1-0.1c-0.9,1.3-1.7,2.5-2.6,3.8l0.6,0c-2.9-3.6-6-7.2-9.1-10.7c-3.1-3.5-6.5-6.8-9.9-10
								c-1.2-1-2.4-2.1-3.7-3.2l0,0.3c2.2-3.5,4.6-7.1,7-10.7l0.3-0.4l-0.5,0.1c-3.6,1-6.8,2.8-9.9,4.6l0-0.1
								c-10.5,6.2-20.9,13.8-30.7,21.7c-4.1,3.3-6.8,5.6-10.8,8.9l-0.2,0c-6.6,5.9-14.5,11.7-21.3,17.9l0.4-0.5
								c-1,1.1-4.3,3.5-3.7,3.4l-1.3,1c-4.5,4.3-8.8,7.2-14.5,12.4l0.3-0.4c-1.5,1.4-3.3,2.9-4.5,3.9c0.2-0.2,0.1-0.1,0.4-0.4
								c-5.1,3.9-10.3,8.8-15.4,13.2l0.5-0.6c-2.4,2.2-7,6-10.2,8.9l0.2-0.2l-1.6,1.5l-0.1-0.1c-1.1,0.9-2.1,1.8-3.1,2.7
								c-1,0.9-2.1,1.8-3,2.8C493.4,477.7,491.5,479.5,489.5,481.4z"/>
							<path fill="#B9BBB9" d="M443.2,498C443.2,498,443.2,498,443.2,498C443.4,498.1,443.3,498.1,443.2,498z"/>
							<path fill="#B9BBB9" d="M480.4,432c-0.2,0.2-0.4,0.3-0.5,0.4C479.9,432.5,480.2,432.2,480.4,432z"/>
						</g>
					</g>
				</g>
			</g>
		</g>
		<g>
			<path fill="#AFB1AF" d="M218.8,493.1c0,0-89.5,23.2-88.9,24.3c1,2,49,4.7,62,4.9c13,0.2,21.3-0.2,21.3-0.2s1.2-9.5,2.2-14.4
				C216.4,502.9,218.8,493.1,218.8,493.1z"/>
			<g>
				<g>
					<g>
						<g>
							<polygon fill="#B9BBB9" points="218.2,493 218.1,493.1 218.2,493.3 							"/>
							<path fill="#B9BBB9" d="M218,494.7C218,494.6,218.1,494.6,218,494.7l0-1.1C217.8,494,218.2,494.4,218,494.7z"/>
							<path fill="#B9BBB9" d="M217.9,494.9c-0.2,0.4-0.1,0.5,0,0.6C217.8,495.4,218.1,494.9,217.9,494.9z"/>
							<path fill="#B9BBB9" d="M207.7,522c0,0,0.1,0,0.1,0C207.8,521.9,207.7,521.9,207.7,522z"/>
							<path fill="#B9BBB9" d="M199,522.5l-0.1,0.1c1.6-0.2,3.4,0,5.1-0.1l-0.1,0c3.2,0,6.2-0.1,9.2-0.4l0,0
								c0.1-1.1,0.2-2.2,0.4-3.4c0,0.1,0,0.1,0,0.2c0-0.2-0.1-0.4,0-0.7c0-0.1,0,0.1,0,0.1c0.3-0.9,0.2-2.7,0.5-3.2
								c0-0.3,0-0.4-0.1-0.2c0.4-3.3,0.9-6.9,1.7-10.3c0.1-0.2,0.1-0.2,0.2-0.1c0.4-2.9,1.2-5.9,1.9-8.8c0-0.1-0.2,0.3-0.2,0
								c-0.3,0.9-0.2,1.8-0.6,2.6l0-0.1c-0.2,0.6,0.2,0.2-0.1,0.8c-0.1,0.2-0.1-0.1-0.1,0c-0.3,1.3-0.7,2.7-0.8,4
								c-0.2,0.3-0.3,1.4-0.6,1.9c0,0.4-0.1,0.7,0,0.8c-0.6,2.3-1,4.7-1.3,7.1c-0.3,2.4-0.6,4.8-1,7.2c0,0.7-0.1,1.4-0.1,2.2
								l0.3-0.2c-1.7,0.1-3.6,0-5.5,0.1c0,0,0,0,0,0c-0.9,0.1-2.2,0.2-3.2,0.1l-0.9,0.1c-6.3-0.2-12.7-0.1-19.1-0.5
								c-7.3-0.4-13.6-1-20.7-1c0,0,0-0.1,0.1-0.1c-2-0.1-3.9-0.3-5.8-0.4l0,0c-4.8-0.1-9.9-0.7-14.5-0.9c-2.8-0.3-5.8-0.6-8.8-1
								c-1.5-0.2-3-0.4-4.5-0.9c-0.1,0-0.2-0.1-0.2-0.1c0,0-0.1,0-0.1-0.1l0-0.1c0,0,0,0,0,0c0,0,0,0,0,0c0,0,0,0,0,0
								c0.1-0.1,0.3-0.2,0.5-0.2c0.3-0.1,0.7-0.3,1.1-0.4c0.7-0.2,1.4-0.5,2.1-0.7l0,0.1c4.5-1.5,9-2.4,13.6-3.8
								c4.7-1.2,9.6-3,14.4-4.1c3-0.5,6.7-2.2,9.6-2.6c5.8-1,11.2-2.8,16.8-4.6c5.3-1.2,10.4-3,15.6-4c2.3-0.8,5.1-1.1,7.8-1.8
								l-0.1-0.1c1,0,2.1-0.9,2.7-0.7l-0.1,0c0.6,0,1.1-0.7,1.4-0.6l0.1-0.1c0.6-0.2,0.1,0.1,0.6,0c0.2-0.1,0-0.2,0.4-0.2
								c0.2,0.3,1.5-0.5,1.6-0.1c-0.3,0.1,0.6,0-0.2,0.3c0.2,0,1.3-0.3,1.1-0.4c0-0.2,0.4-0.5-0.3-0.4l-0.1,0.2
								c-0.2-0.1-0.2,0-0.3-0.1c-0.8,0.2-1,0-1.6,0.1c0,0,0,0,0,0c-0.4,0.3-0.9,0.3-1.3,0.4l-0.1,0c-0.2-0.1-0.9,0.5-0.7,0.2
								c-1.6,0.5-3.6,1-5.4,1.5c-0.2,0.2-1.4,0.4-1,0.4c-0.5-0.1-1.9,0.2-2.4,0.4c0,0,0-0.1,0.1-0.1c-1.1,0-1.1,0.6-2.1,0.5
								c-0.1,0.3-1.7,0.4-2.2,0.8c-0.1,0-0.2-0.1-0.1-0.1c-1.7,0.4-3.6,0.8-5,1.2c-1.2,0.5-3,0.7-3.9,1.2c-0.9,0.2-2.3,0.4-3.5,0.8
								l0.1-0.1c-1.4,0.4-3.1,0.8-4,1.3c-0.5-0.2-1.1,0-1.7,0.1c-0.9,0.4-2.7,0.8-4.1,1.3c-0.2-0.1-1.1,0.4-1.3,0.2
								c-3.8,1.4-8.6,2.5-12.9,3.4l0.1,0c-0.5,0.2-1.1,0.6-1.6,0.9c-0.1,0-0.1,0,0.1-0.1c-0.7,0.2-1.5,0.2-2.3,0.5c0,0,0,0,0.1-0.1
								c-0.7,0.3-1.5,0.2-2.3,0.6l-0.1,0l-0.5,0.2c0-0.1,0-0.2,0.3-0.2c-6.5,1.7-13.2,3.9-19.8,5.7l0.2-0.1l-1.3,0.5
								c0,0,0.1-0.1,0.1-0.1c-1.7,0.4-3.3,1-4.9,1.5c0,0,0.2-0.2,0-0.1c-1.1,0.5-2,0.4-2.4,0.9c-0.1,0-0.1-0.1,0-0.1l-0.6,0.3
								l-0.3,0.1c-0.1,0-0.1,0.1-0.2,0.1c0,0-0.1,0-0.1,0.1c0,0-0.1,0.1-0.1,0.1c0,0-0.1,0.1-0.1,0.2c0,0.1,0,0.2,0.1,0.3
								c0,0.1,0.2,0.2,0.4,0.3c0.1,0.1,0.2,0.1,0.3,0.1c0.2,0.1,0.4,0.1,0.7,0.2c0.9,0.2,1.7,0.3,2.6,0.5c1.7,0.3,3.5,0.5,5.2,0.7
								c2.9,0,6.1,0.6,9.1,0.6l0,0.1c3.9,0.1,8,0.6,12,0.9c1.7,0.1,2.8,0.1,4.5,0.2l0,0.1c2.8-0.1,5.9,0.6,8.9,0.4l-0.2,0.1
								c0.5-0.1,1.8,0.2,1.6-0.1l0.5,0.1c2-0.3,3.6,0.4,6.1,0.2L181,522c0.7,0,1.4,0,1.9,0.1c-0.1,0,0,0-0.2,0
								c2,0.4,4.3,0.1,6.5,0.2l-0.2,0.1c1-0.1,3,0.1,4.3,0l-0.1,0.1l0.7-0.1l0,0.1C195.6,522.6,197.3,522.5,199,522.5z"/>
							<path fill="#B9BBB9" d="M213.7,518.4L213.7,518.4C213.6,518.5,213.7,518.5,213.7,518.4z"/>
							<path fill="#B9BBB9" d="M216.5,493.2c0.1,0,0.1,0,0.2,0C216.7,493.1,216.5,493.2,216.5,493.2z"/>
						</g>
					</g>
				</g>
			</g>
		</g>
		<g>
			<path fill="#AFB1AF" d="M125.9,517.7l2.2,38.1c0,0,5.6,2.3,30.1,4.3c55.1,4.5,93.7-1,93.7-1l2.1-21.2c0,0-2.9-9.9-11.5-14.6
				c0,0-15,0.7-52.7,0c-37.8-0.8-55.7-3.4-58.8-4.1C128,518.5,125.9,517.7,125.9,517.7z"/>
			<g>
				<g>
					<g>
						<g>
							<polygon fill="#B9BBB9" points="125.6,518.3 125.8,518.4 126.2,518.4 							"/>
							<path fill="#B9BBB9" d="M128.2,518.9c-0.1,0,0-0.1-0.1-0.1c0,0-0.4,0-0.8-0.1c-0.4-0.1-0.8-0.1-0.8-0.1
								C127.2,519,127.8,518.7,128.2,518.9z"/>
							<path fill="#B9BBB9" d="M128.6,519.1c0.6,0.2,0.8,0.2,1,0.1C129.4,519.3,128.5,518.9,128.6,519.1z"/>
							<path fill="#B9BBB9" d="M180.1,523.4c-0.1,0-0.1,0-0.2,0C180,523.4,180.1,523.4,180.1,523.4z"/>
							<path fill="#B9BBB9" d="M193.6,523.2l0.1-0.1c-2.5,0.2-5.3-0.1-8-0.1l0.2,0c-6.7-0.2-13-0.2-19.7-0.5c0.1,0,0.1,0,0.2,0
								c-0.3,0-0.7,0.1-1,0.1c-0.1,0,0.1,0,0.2-0.1c-1.4-0.3-4.2-0.1-5-0.3c-0.4,0-0.6,0.1-0.4,0.1c-5.2-0.3-10.8-0.6-16.2-1
								c-0.3,0-0.3-0.1-0.2-0.2c-2.3-0.1-4.6-0.3-7-0.6c-2.3-0.3-4.7-0.6-7-1.2c-0.2,0,0.5,0.2,0,0.2c1.5,0.4,2.8,0.3,4.1,0.7
								l-0.2,0c1,0.2,0.2-0.2,1.2,0.1c0.4,0.1-0.1,0.1,0.1,0.1c2.1,0.3,4.3,0.6,6.3,0.6c0.5,0.2,2.3,0.2,3,0.5c0.5,0,1.1,0.1,1.3,0
								c7.3,0.8,14.9,1.1,22.4,1.4c3.5-0.1,7.8,0.4,11.9,0.4c0,0,0,0,0,0c1.4,0,3.4,0,5,0.1l1.4-0.1c9.8,0.5,19.8,0.5,29.8,0.6
								c9.2,0.1,17.4,0.2,26.1-0.2l-0.2-0.1c1.7,0.9,3.4,2.1,4.9,3.5c0,0,0,0.1-0.2-0.1c2.3,2.2,3.8,4.6,5.2,7.3l0,0
								c0.6,1.1,1.2,2.4,1.6,3.6l0-0.1c-0.5,6.2-1.3,12.7-1.7,18.6c-0.1,0.8-0.2,1.7-0.3,2.6l0.1-0.1c-7.9,1-16.7,1.7-25.1,2.2
								l0-0.1c-7.4,0.5-14.5,0.4-21.9,0.5c-7.6-0.1-15.6,0.3-23.2-0.2c-1.2-0.1-2.5-0.2-3.8-0.2c-1.3-0.1-2.7-0.1-4-0.1
								c-2.7-0.1-5.4-0.1-7.6-0.4c-9.1-1.1-17.9-1.5-27-2.5c-1.9-0.3-3.8-0.6-5.7-1c-1.9-0.4-3.8-0.7-5.6-1.3l-0.1,0l0-0.1
								c-0.3-4.6-0.6-9.1-0.7-13.5c-0.4-3.8-0.2-8.1-0.5-12.4l-0.1,0.2c0.1-1.6-0.5-3.4-0.2-4.4l0,0.2c0.1-0.8-0.5-1.9-0.3-2.4
								l-0.1-0.1c-0.1-1,0.1-0.1,0.1-0.9c0-0.3-0.2-0.1-0.1-0.7c0.4-0.2-0.2-2.4,0.2-2.5c0,0.5,0.1-0.9,0.3,0.4c0-0.3-0.1-2-0.3-1.8
								c-0.2-0.1-0.4-0.8-0.5,0.2l0.1,0.2c-0.1,0.3-0.1,0.3-0.1,0.4c0.1,1.3-0.1,1.5-0.2,2.5c0,0,0,0,0,0c0.2,0.6,0.2,1.5,0.2,2
								l-0.1,0.2c-0.1,0.3,0.4,1.5,0.1,1.1c0.2,2.7,0.4,5.7,0.6,8.7c0.1,0.4,0.1,2.3,0.3,1.6c-0.2,0.8-0.1,3-0.1,3.8
								c0,0,0-0.1,0-0.2c-0.2,1.6,0.4,1.9,0.1,3.4c0.3,0.2,0.1,2.7,0.4,3.6c0,0.2-0.1,0.3-0.1,0.2c0.1,2.7,0.2,5.7,0.3,8
								c0.1,0.7,0.2,1.6,0.2,2.4l0,0.4l0.4,0.1c1.5,0.5,2.9,0.9,4,0.9c1.4,0.4,3.6,0.9,5.5,1.1l-0.2,0c2.2,0.3,4.9,0.7,6.4,0.7
								c0.6,0.4,1.6,0.4,2.5,0.6c1.5,0,4.4,0.4,6.7,0.5c0.3,0.2,1.8,0.1,1.9,0.3c6.3,0.2,14,0.9,20.7,1.5l-0.1,0
								c0.9-0.1,1.9-0.2,2.8-0.3c0.1,0,0.1,0.1-0.1,0c1.2,0,2.4,0.2,3.6,0.2c0,0,0,0-0.2,0.1c1.1,0,2.4,0.2,3.7,0.1l0.1,0.1l0.9,0
								c0,0.1-0.1,0.2-0.5,0.1c10.5,0.4,21.3,0.1,32.1-0.2l-0.4,0.1l2.1-0.2c0,0-0.1,0.1-0.2,0.1c2.7,0,5.4-0.3,8-0.4
								c0,0-0.4,0.1,0,0.1c1.9-0.3,3.1,0.1,4-0.4c0.1,0,0.2,0.1,0,0.1c5.3-0.5,10.8-0.9,16.2-1.4c1.5-0.3,3.1-0.5,4.7-0.7l0.2,0
								l0-0.2c0.3-3.1,0.7-6.3,0.8-9.4l0.1,0c0.2-3.9,0.7-7.9,1.1-11.9l0,0l0,0c-0.7-2.2-1.7-4.2-2.9-6.1c-1.4-2.2-2.5-3.6-4.4-5.4
								l0-0.1c-1.4-1.1-2.8-2.1-4.3-3.1l0,0l0,0c-2.8,0-5.7,0-8.5,0.2l0.3-0.1c-0.7,0.2-2.8,0-2.5,0.3l-0.8-0.1
								c-3.1,0.4-5.7-0.1-9.5,0.1l0.3-0.1c-1,0.1-2.2,0.1-2.9,0c0.1,0,0.1,0,0.3,0c-3.2-0.3-6.7,0-10.1,0l0.4-0.1
								c-1.6,0.1-4.6,0-6.7,0l0.1-0.1l-1.1,0.1l0-0.1C198.9,523.2,196.3,523.3,193.6,523.2z"/>
							<path fill="#B9BBB9" d="M165.7,522.5C165.7,522.5,165.7,522.5,165.7,522.5C165.8,522.5,165.8,522.5,165.7,522.5z"/>
							<path fill="#B9BBB9" d="M125.5,521.3c0-0.1,0-0.2,0-0.3C125.5,520.9,125.5,521.1,125.5,521.3z"/>
						</g>
					</g>
				</g>
			</g>
		</g>
		<path fill="#AFB1AF" stroke="#AFB1AF" d="M265.5,652.8c0,0-21.3,8.4-41,18.4c-19.7,10-30,19.4-30,19.4l15.2,32.6
			c0,0,26.6-14.6,42.1-22.3c15.5-7.8,29.3-15.1,29.3-15.1l4.5-3.9L265.5,652.8z"/>
		<g>
			<path fill="#AFB1AF" d="M418,732.4l30.3-21.3c0,0,3.6,35.9,12.7,61.5c9,25.5,14.9,36.2,22.9,50.1c8.1,13.9,25.2,36.5,32.6,40
				c4,1.9,8.4,4.5,8.4,4.5v2.9c0,0-5.5,1-8.4,0c-1.5-0.5-4.4-0.7-7.9-0.4c-3.1,0.3-6.6,1.1-9.2,1.7c-5.5,1.3-11.6,3.6-11.6,3.6
				l-3.6,0.6l-3.2-3.6c0,0-6.9-4-14.5-11.6c-8.7-8.7-25.5-36.5-33.9-56.2c-8.4-19.7-16.1-39.1-16.1-46.5
				C416.3,750.3,418,732.4,418,732.4z"/>
			<g>
				<g>
					<g>
						<g>
							<polygon fill="#B9BBB9" points="417.3,732.3 417.2,732.5 417.3,733.1 							"/>
							<path fill="#B9BBB9" d="M417.2,735.8c0-0.1,0.1,0,0.1-0.1l-0.1-2C416.9,734.5,417.4,735.2,417.2,735.8z"/>
							<path fill="#B9BBB9" d="M417.2,736.4c-0.1,0.8,0,1.1,0,1.3C417.1,737.4,417.3,736.2,417.2,736.4z"/>
							<path fill="#B9BBB9" d="M431.3,802.5c0-0.1-0.1-0.2-0.1-0.2C431.3,802.3,431.3,802.4,431.3,802.5z"/>
							<path fill="#B9BBB9" d="M439.4,818.5l0.2,0.1c-1.7-2.9-3.2-6.3-4.8-9.5l0.1,0.2c-1.9-4.1-3.6-8-5.3-12
								c-1.7-3.9-3.4-7.9-5.1-12c0.1,0.1,0.1,0.2,0.2,0.3c-0.2-0.4-0.4-0.8-0.6-1.3c0-0.1,0.1,0.1,0.2,0.2c-0.5-1.8-2.1-5.1-2.4-6.3
								c-0.2-0.5-0.4-0.7-0.3-0.4c-1.2-3.3-2.4-6.7-3.5-10.1c-0.5-1.7-1-3.5-1.4-5.3c-0.4-1.8-0.7-3.6-0.7-5.4
								c0-0.3,0.1-0.4,0.1-0.3c-0.2-6.1,0.5-12.4,1-18.6c-0.1-0.2-0.1,0.6-0.2,0c-0.3,2-0.1,3.7-0.4,5.5l-0.1-0.2
								c-0.1,1.3,0.2,0.3,0,1.6c-0.1,0.5-0.1-0.1-0.1,0.1c-0.2,2.8-0.4,5.7-0.3,8.4c-0.2,0.6-0.1,3-0.3,4.1c0.1,0.8,0.1,1.5,0.3,1.8
								c0.3,2.5,0.9,4.9,1.6,7.3c0.7,2.4,1.5,4.7,2.3,7.1c1.7,4.7,3.5,9.4,5.4,14c2,4.2,3.8,9.6,6.1,14.7c0,0,0,0,0,0
								c0.8,1.6,1.9,4.1,2.7,6.1l0.9,1.6c2.6,6,5.7,11.8,8.9,17.6c3.2,5.8,6.7,11.5,10.3,17.1c1.8,2.8,3.7,5.6,5.6,8.2
								c0.9,1.3,1.9,2.6,2.9,3.9l1.5,1.9c0.5,0.6,1.1,1.2,1.6,1.8c4.5,4.5,9.3,8.5,15,11.9l-0.1-0.1c1,1,2,2.1,3,3.2
								c0,0,0,0.1-0.2-0.2c0.2,0.2,0.3,0.3,0.5,0.5l0.1,0.1l0.2,0c1.2-0.2,2.4-0.4,3.6-0.7l0,0l0,0c2.5-0.9,4.9-1.6,7.4-2.4l0,0
								c2.3-0.8,4.8-1.4,7.3-1.9c2.5-0.5,5-1,7.5-1.1c1.3-0.1,2.5-0.1,3.8,0c0.6,0.1,1.2,0.1,1.8,0.3c0.6,0.1,1.2,0.4,1.8,0.4
								c2.5,0.4,5,0.1,7.4-0.4c0,0,0,0,0.1,0l0.1,0l0-0.1c0-0.9,0-1.8,0-2.9l0-0.1l-0.1,0c-2.3-1.4-4.7-2.7-7.3-4
								c-2.6-1.1-4.8-3-6.8-5c-4.1-4-7.9-8.5-11.4-12.9l0.1,0c-6.1-7.7-11.3-15.7-16.3-24.1c-2.5-4.4-5.1-8.9-7.5-13.4
								c-2.4-4.6-4.7-9.3-6.6-14c-2.2-5.9-5.7-13.4-7.4-19.1c-3.7-11.6-6.7-22.9-9.2-34.8c-1.7-9.6-3.4-19.2-4.3-28.7l0.2,0.1
								c-1.2,0.8-2.4,1.6-3.5,2.4c-4.1,3.1-9,6-13.6,9.3l0.2-0.1c-1.8,1-3.6,2.9-4.8,3.4l0.2-0.1c-1,0.5-1.8,1.8-2.5,2l-0.1,0.2
								c-1.1,0.8-0.2,0-1,0.6c-0.3,0.2,0,0.2-0.7,0.6c-0.3-0.2-2.6,1.9-2.9,1.6c0.6-0.4-1,0.5,0.3-0.5c-0.4,0.2-2.2,1.5-1.9,1.5
								c0,0.3-0.7,0.9,0.5,0.2l0.1-0.3c0.4-0.2,0.3-0.1,0.5-0.2c1.4-1,1.7-1,2.8-1.6c0,0,0,0,0,0c0.6-0.6,1.6-1.2,2.2-1.6l0.3-0.1
								c0.4-0.1,1.5-1.4,1.2-0.9c2.9-2.1,6.2-4.4,9.5-6.7c0.4-0.4,2.5-1.7,1.7-1.4c0.9-0.4,3.4-2.1,4.3-2.7c0,0,0,0.1-0.2,0.2
								c1.9-1,1.9-1.7,3.8-2.5c0.1-0.4,3-2,3.8-2.9c0.2-0.1,0.3-0.1,0.3,0l0.1-0.1l-0.9-0.4c0.4,3.6,0.8,7.5,1.2,10.5
								c0.6,2.5,0.8,6.3,1.5,8.4c0.2,1.8,0.6,4.8,1.2,7.4l-0.1-0.2c0.5,2.9,1.3,6.5,1.9,8.4c-0.1,0.9,0.2,2.1,0.4,3.4
								c0.3,0.9,0.6,2.4,1,3.9c0.4,1.6,0.8,3.2,1.2,4.7c0,0.5,0.7,2.4,0.5,2.6c1.2,4,2.7,8.4,4.2,12.9c1.6,4.5,3.2,9,4.6,13.2
								l-0.1-0.1c0.5,1,1.2,2.2,1.8,3.2c0,0.1,0,0.1-0.1-0.1c0.7,1.5,1,3,1.7,4.5c0,0,0,0-0.2-0.2c0.7,1.4,1.1,3,2,4.5l0,0.1l0.5,1
								c-0.1,0-0.2,0-0.4-0.6c2.8,6.4,6.2,12.7,9.8,18.9c1.8,3.1,3.6,6.2,5.5,9.2c1.9,3,3.9,6,6,9l-0.4-0.4l1.7,2.2
								c0,0-0.1-0.1-0.2-0.2c2,2.9,4.3,5.8,6.4,8.5c0,0-0.4-0.4-0.1,0c1.7,1.9,2.4,3.4,3.5,4.1c0.1,0.1,0.1,0.2-0.1,0
								c2.3,2.7,4.7,5.4,7.3,7.9c0.7,0.6,1.3,1.3,2,1.9c0.7,0.6,1.4,1.2,2.1,1.7c0.7,0.6,1.5,1,2.3,1.5c0.8,0.4,1.6,0.8,2.4,1.2
								c2,0.9,4.1,2,6.1,3.2l-0.1-0.2c0,1,0,1.9,0,2.9l0.2-0.2c-1.5,0.2-3,0.4-4.5,0.4c-1.5,0-3,0-4.4-0.5l0-0.1
								c-4-0.7-8.2-0.2-12.3,0.6c-4.1,0.8-8.2,1.8-12.1,3.1c-1.5,0.5-2.7,0.9-3.9,1.4l0,0c-1.1,0.2-2.2,0.4-3.5,0.7l0.1,0
								c-0.3-0.3-0.6-0.7-1-1.1l0-0.1c-0.8-0.7-1.5-1.5-2.2-2.3l0,0l0,0c-4.2-2.5-8.1-6-11.9-9.2l0.4,0.2c-0.8-0.5-2.6-2.6-2.6-2.1
								c0,0-0.2-0.2-0.4-0.4c-0.2-0.2-0.3-0.4-0.3-0.4c-3.1-2.8-4.8-5.8-7.9-9.8l0.2,0.2c-0.8-1.1-1.7-2.3-2.2-3.2
								c0.1,0.1,0.1,0.1,0.3,0.3c-2.1-3.6-4.9-7.4-7.2-11.3l0.4,0.4c-1.2-1.8-3.1-5.2-4.6-7.7l0.1,0.1l-0.8-1.2l0.1-0.1
								C442.8,824.6,441,821.7,439.4,818.5z"/>
							<path fill="#B9BBB9" d="M424.3,784.5C424.3,784.6,424.3,784.6,424.3,784.5C424.4,784.7,424.3,784.6,424.3,784.5z"/>
							<path fill="#B9BBB9" d="M422.2,730.1c-0.1,0.1-0.3,0.2-0.4,0.2C421.8,730.4,422.1,730.2,422.2,730.1z"/>
						</g>
					</g>
				</g>
			</g>
		</g>
		<g>
			<path fill="#AFB1AF" d="M470,168.6l42,15.6c0,0,13.5,10.9,23.7,90.7c8,62.5,7.8,78.6,7.8,78.6s-9.3-1.7-17.3-2.5
				c-7.3-0.7-16.4-0.2-16.4-0.2s-0.9-30.4-8-80.4c-8.1-57.1-17.7-78.7-17.7-78.7s-25.3,12-49.5,78.4c-24.8,68-24.8,86-25.3,92.2
				c-0.5,6.3,0.8,18.5,0.8,18.5l-4.9,17.3l-31.1-2.5c0,0-4.7-11.1-2.6-27.8c2.1-16.7,6-45.9,22.9-86.3
				c16.9-40.4,30.5-68.3,42.2-84.4C450.1,178.7,470,168.6,470,168.6z"/>
			<g>
				<g>
					<g>
						<g>
							<path fill="#B9BBB9" d="M469.7,168l-0.4,0.2l-1,0.6c0,0,0.3-0.2,0.7-0.4C469.3,168.2,469.7,168,469.7,168z"/>
							<path fill="#B9BBB9" d="M463.3,172c0.2-0.1,0.1,0,0.3-0.1c0,0,0.9-0.7,1.8-1.3c0.9-0.6,1.8-1.3,1.8-1.3
								C465.4,170.2,464.4,171.4,463.3,172z"/>
							<path fill="#B9BBB9" d="M462.2,172.7c-1.5,0.9-2,1.4-2.3,1.7C460.3,174,462.6,172.6,462.2,172.7z"/>
							<path fill="#B9BBB9" d="M386.9,300c0.1-0.2,0.1-0.4,0.2-0.5C386.9,299.8,386.9,300,386.9,300z"/>
							<path fill="#B9BBB9" d="M376.5,337.8l0,0.4c1.3-7.2,3.6-15.1,5.7-22.5l-0.1,0.5c2.8-9.4,5.9-18.3,9.3-27
								c3.4-8.7,7.1-17.4,10.9-26.3c-0.1,0.3-0.1,0.4-0.2,0.7c0.3-0.9,0.7-1.9,1.1-2.8c0.1-0.2-0.1,0.3-0.2,0.6
								c1.8-3.7,4.8-11.1,6-13.3c0.5-1.1,0.6-1.6,0.3-1c3.2-6.9,6.5-14,10.1-21.1c3.6-7.1,7.3-14.1,11.4-20.7
								c0.4-0.6,0.5-0.7,0.5-0.5c1.7-2.8,3.5-5.7,5.5-8.4c1-1.3,2-2.7,3.1-4l1.7-2l1.8-1.9c4.7-5,10-9.4,15.5-13.4
								c0.4-0.4-1.2,0.7-0.1-0.1c-3.6,2.5-6.3,5-9.3,7.5l0.3-0.4c-2.2,1.9-0.3,0.5-2.6,2.5c-0.9,0.8,0.1-0.3-0.3,0.1
								c-4.4,4.2-8.7,9.1-11.8,14c-1,1.1-3.7,5.5-5,7.3c-0.8,1.4-1.6,2.7-1.8,3.3c-5.5,9.2-10.4,18.9-15,28.7
								c-4.7,9.8-9.1,19.8-13.4,29.9c-3.7,9.5-9,20.7-12.9,32.2c0,0.1,0,0.1,0,0c-0.3,0.9-0.7,2-1.1,3.1c-0.4,1.1-0.7,2.3-1.1,3.5
								c-0.8,2.4-1.6,4.9-2.3,7.2c0,0-0.3,1-0.5,1.9c-0.2,1-0.5,1.9-0.5,1.9c-3.8,12.5-6.7,25.5-8.7,38.6c-0.5,3.3-0.9,6.6-1.4,9.9
								c-0.4,3.3-0.8,6.6-0.7,10c0,6.7,0.8,13.4,3.1,19.7l0.1,0.2l0.2,0c2.4,0.2,4.7,0.4,7.1,0.6c8.2,0.7,16.2,1.3,24,2l0.4,0
								l0.1-0.4c1.7-5.8,3.3-11.6,4.9-17.3l0-0.1l0-0.1c-0.4-4.2-0.7-8.5-0.9-12.7c-0.1-2.1-0.1-4.2,0.1-6.3
								c0.1-2.1,0.3-4.2,0.6-6.4c1-8.5,2.9-16.9,5.1-25.5c0,0,0.1-0.2-0.1,0.6c2.3-8.9,4.8-17,7.4-25.3l0,0
								c3.2-10.3,6.8-20.9,10.6-31.4c0.5-1.3,0.9-2.6,1.4-3.9c0.5-1.3,1-2.6,1.5-3.9c1-2.6,2-5.1,2.9-7.7c1.1-2.5,2.1-5,3.1-7.5
								c0.5-1.2,1-2.5,1.6-3.7c0.6-1.2,1.1-2.4,1.6-3.6c4.3-9.3,9.4-18.9,15.6-28c3.2-4.5,6.5-9,10.2-13.1
								c3.8-4.1,7.8-8.1,12.6-10.8l-0.1,0c1.9,4.7,3.5,9.6,4.9,14.5l-0.1,0c3,10.3,5.3,20.6,7.3,31c2,10.4,3.7,20.8,5.2,31.3
								c3,21.8,6.2,44.9,7.6,67c0.3,4.7,0.5,9.9,0.8,15.2l0,0.1l0.1,0c5.1-0.3,10.4-0.4,15.4-0.1c5,0.4,9.8,1.1,13.9,1.9
								c1.5,0.3,3,0.6,4.4,0.8l0.1,0l0-0.1c0-6.2-0.5-12.4-1-18.6c-0.5-6.2-1.1-12.3-1.8-18.4c-1.3-12.3-2.9-24.5-4.6-36.9
								c-0.7-6.1-1.6-12.1-2.4-18.2c-0.5-3-1-6-1.4-9l-0.7-4.5l-0.8-4.5c-2.2-11.9-4.7-23.7-7.9-35.1c-0.3-1-0.6-2-1-3
								c-0.3-1-0.7-2-1-3.1c-0.4-1-0.7-2.1-1.1-3.1c-0.4-1-0.8-2.1-1.2-3.1c-0.8-2.1-1.7-4.2-2.7-6.2c-1.1-2-2.1-4.1-3.8-5.8l0,0
								l0,0c-2.9-1.1-5.8-2.2-8.8-3.3l0.4,0.2c-4.1-1.8-9.5-3.2-12-4.5l0.4,0.1c-2.2-1-5.3-1.5-6.6-2.2l-0.4-0.1
								c-2.7-1-0.3-0.2-2.3-1c-0.8-0.3-0.4,0-2-0.6c-0.2-0.5-6.6-2.4-6.7-2.8c1.5,0.5-2.3-1,1.1,0.1c-0.9-0.4-5.4-2.1-5.1-1.7
								c-0.4,0-2.3-0.5,0.4,0.7l0.6,0.1c0.9,0.5,0.7,0.3,1,0.5c3.6,1.4,4,1.7,6.5,2.7c0,0,0,0,0,0c1.8,0.5,4.2,1.5,5.6,2l0.5,0.3
								c0.8,0.5,4.2,1.2,3,1.1c7.3,2.7,15.7,5.8,23.8,8.8c0.1,0,0.2,0,0.3,0.1l-0.1-0.1c0.5,0.4,1.5,1.7,2.1,2.6
								c0.6,1,1,1.6,0.6,0.8c0.5,1,1.4,2.9,2.3,4.9c0.4,1,0.9,2,1.2,2.9c0.4,0.9,0.7,1.7,0.9,2.3c-0.1-0.1-0.1-0.2-0.2-0.5
								c0.7,2.2,1.2,3.5,1.7,4.7c0.5,1.3,1,2.4,1.4,4.6c0.2,0.3,0.8,2.2,1.4,4.3c0.6,2.1,1.2,4.5,1.6,5.6c0.1,0.5,0.1,0.7,0,0.5
								c0.5,1.9,0.9,3.9,1.4,5.8c0.4,2,0.9,3.9,1.3,5.9c0.8,3.9,1.6,7.6,2.1,10.9c0.6,2.8,1.2,6.2,1.8,9.4c0.5,3.3,1,6.5,1.5,8.9
								c0.6,4,1.3,10.5,2.2,16.1l-0.1-0.5c0.8,6.3,1.8,14.2,2.5,18.5c-0.1,1.9,0.3,4.6,0.5,7.4c0.6,4.2,1.6,12.7,2.3,19.2
								c0,1,0.6,5.3,0.4,5.7c0.5,4.4,1,9.2,1.5,14c0.4,4.9,0.8,9.9,0.9,15l0.5-0.4c-5.2-0.9-10.4-1.8-15.6-2.4
								c-5.2-0.6-10.4-0.7-15.3-0.7l0.3,0c-1,0.1-2.1,0.2-3.2,0.3l0.5,0.5c-0.2-1.6-0.3-3.2-0.5-4.8c0-0.3,0-0.2,0.1,0.3
								c-0.2-3.5-0.2-6.9-0.5-10.4c0,0,0,0,0.1,0.6c-0.3-3.3-0.3-6.9-0.8-10.8l0-0.2l-0.3-2.5c0.1,0.1,0.2,0.1,0.3,1.5
								c-1.3-15.2-3.1-30.6-5.2-46c-2.2-15.4-4.6-30.9-7.8-46.3l0.3,1.1l-1.4-5.9c0,0,0.1,0.3,0.2,0.6c-1.5-7.6-3.6-15.3-5.7-22.6
								c0,0,0.4,1.1,0.2,0.1c-1.7-5.3-2.5-8.6-3.8-11.2c-0.1-0.2-0.1-0.4,0.2,0.1c-0.4-1-0.7-1.9-1.2-2.9l-0.2-0.4l-0.4,0.2
								c-1.7,0.9-3.1,2-4.6,3.1l-2.1,1.8l-2,1.9c-1.3,1.3-2.6,2.6-3.9,4c-1.2,1.4-2.4,2.8-3.6,4.2c-4.7,5.7-8.8,11.9-12.5,18.1
								c-6.4,11.4-12.8,24.5-17.5,37.2l0-0.1c-3.1,8.2-6.1,16.7-9.1,25.3c-3,8.6-5.9,17.3-8.6,26c-2.2,7.2-3.6,12.1-5.5,19.4
								l-0.1,0.2c-1.4,6.2-3,12.7-4.1,19.4c-1.1,6.7-1.7,13.6-1,20.2l-0.2-0.9c0.2,2.1,0.5,8,0.7,7.2l0.1,2.3c0,0.1,0,0.2,0,0.3l0,0
								c-1.4,6-3.1,11.1-4.9,17.3l0,0c-2.8-0.2-5.8-0.5-9.2-0.7l0.7,0c-2.9-0.2-6.4-0.4-8.5-0.6c0.3,0,0.2,0,0.9,0
								c-4.8-0.5-9.9-0.9-15-1.3l0.1,0.1c-1.7-4.4-2.6-9.1-3-13.7l0.2,1.1c-0.3-2.3-0.5-5.7-0.4-9.2c0.1-3.5,0.7-7.2,1-10.2l0,0.4
								l0.3-3.1l0.1-0.1C373.7,352.9,374.9,345.4,376.5,337.8z"/>
							<path fill="#B9BBB9" d="M403.1,261.3C403,261.3,403,261.4,403.1,261.3C402.9,261.6,403,261.5,403.1,261.3z"/>
							<path fill="#B9BBB9" d="M479.5,172.8c-0.3-0.1-0.6-0.3-0.9-0.4C478.6,172.4,479.2,172.6,479.5,172.8z"/>
						</g>
					</g>
				</g>
			</g>
		</g>
		<path fill="#AFB1AF" stroke="#AFB1AF" d="M209.7,723.2c0,0,9.7,0.5,31.3-10.8c12-6.3,14-6.4,14-6.4l-3.7-5c0,0-13.9,6.7-23.7,11.8
			C217.8,717.7,209.7,723.2,209.7,723.2z"/>
		<path fill="#AFB1AF" stroke="#AFB1AF" d="M179.1,503.8c0,0-51.8,12.2-53,13.4c-1.2,1.2,1,3.2,37.8,5.1c36.8,2,78.5,1.2,78.5,1.2
			l-2-1.4c0,0-32.7,0.2-44.3,0c-11.6-0.2-70.6-2.8-65.6-5C134.9,515.3,179.1,503.8,179.1,503.8z"/>
	</g>
</g>
<g id="DETAIL_SHADING">
	<g>
		<path d="M484.2,875.6c0,0,3.2,4.8,9.5,5.7c6.2,0.9,15.8-0.8,18-0.8c2.2,0,9.3-0.6,11.7-2.7c2.5-2.1,6.9-6,6.7-8.8
			c-0.1-2.2-2.5-5.9-1.7-7.1c1-1.5,3.8-2.6,4.5-4.8c0.8-2.2-0.5-7.6-5.1-7.5c-4.6,0-6.4,3.4-6.4,3.4s-0.6-0.9-2.3-1
			c-1.7-0.1-3.1,1.7-3.1,1.7l-2.9-0.6l-1.8-1c0,0-2.3-0.4-3,0c-0.6,0.4-1.3,2.1-1.3,2.1s4,5.3,7.4,7.3c3.4,2.1,7.1,3.7,7.1,3.7
			l4.7-0.5c0,0,1.2,2.4,0.8,3.9c-0.4,1.6-4.4,7.5-9.6,8.7c-5.2,1.2-18.4,3.2-23,1.8c-4.5-1.4-7.2-4.3-7.2-4.3L484.2,875.6z"/>
	</g>
	<g>
		<path d="M521.9,878.9c0,0,14.4,1.3,27.1-6.5c12.7-7.8,32.1-24.5,43.3-46.9c11.2-22.4,21.3-56.4,23.2-67.6
			c1.9-11.2,2.4-21.5,2.4-21.5s1.1-6-0.2-8.4c-1.3-2.4-3.7-3-4.7-2.8c-1.1,0.2-2.6,0.9-2.6,0.9s-1.1-1.3-2.4-1.1
			c-1.3,0.2-3.7,3.7-3.7,3.7s-1.5-0.4-2.4,0c-0.9,0.4-3.4,1.7-3.4,1.7s-3.2-1.5-4.7-0.9c-1.5,0.6-3.4,2.4-3.4,2.4s-2.2,0.9-3,1.5
			c-0.9,0.6-2.4,0.2-4.1,0.2c-1.7,0-5,1.7-5,1.7s-3.7-1.1-5.4-0.9c-1.7,0.2-2.6,0.9-2.6,0.9s-7.8,38.9-18.9,62
			c-19.6,40.5-48,52.7-48,52.7l3.7,4.4c0,0,0.8-2.7,2.7-2.7c1.9,0,5.3,2.4,6.2,1.7c0.9-0.6,2.3-1.6,3.1-1.7c0.9-0.1,2.5,1.2,2.5,1.2
			s2.6-3.8,7-3.2c2.5,0.3,5.3,3,4.3,7.6c-0.5,2.5-5.2,3.6-4.6,5.8c0.6,2.2,2.9,5.4,1.2,8.4C527.8,874.6,521.9,878.9,521.9,878.9z"/>
	</g>
	<path d="M549.4,567.5c1.7-14.3,2.6-39.7,2.6-39.7s-2.2-26-5.6-41.3c-3.4-15.3-12.8-40-12.8-40s15.8-3.2,35.6,22.7
		c15.6,20.4,13.8,30.6,13.8,37.9c0,7.3-3,28.4-12.9,54.7c-9.9,26.3-20.2,40.5-25,44.8c-4.7,4.3-2.9,2.1-2.9,2.1
		S547.7,581.8,549.4,567.5z"/>
	<path opacity="0.35" d="M539.9,620.7c0,0,19.1-9.8,32.8-45.5c13.3-34.6,15.9-69.3,15.5-73.6c-0.4-4.3-15.2-27.4-15.2-27.4
		s10.4,16.7,10.5,27.4c0.1,9.8-5,44.6-16.8,68.7c-17.3,35.4-24.5,38.5-24.5,38.5L539.9,620.7z"/>
	<path opacity="0.2" fill="#FFFFFF" d="M369.5,370.5c0,0-16.6,24.4-19.1,38.6c-2.5,14.3,0,21.7,0,21.7s0.7-18.7,4.6-28.4
		C358.8,392.7,369.5,370.5,369.5,370.5z"/>
	<path opacity="0.5" d="M371.1,379.2l0.2-8.3c0,0-16.1,30.7-17.7,44.6c-3,25.9,9,28.2,9,28.2s-7.3-10-2.5-26.5
		c3.5-12.1,11.9-29.9,11.9-29.9L371.1,379.2z"/>
	<path d="M379.6,414.9l-0.4,25.6c0,0,1.6-1.1,4-3.8c2.2-2.5,5.1-6.3,8.5-11.2c4.8-6.9,6.4-9.7,6.4-9.7L379.6,414.9z"/>
	<polygon points="492,493.4 460.6,445.5 467.4,440.6 498.9,488.5 	"/>
	<polygon opacity="0.55" fill="#AEB1AF" points="492,493.4 460.6,445.5 467.4,440.6 498.9,488.5 	"/>
	<polygon opacity="0.75" fill="#AEB1AF" points="494,481 500.1,476.5 505.4,484.1 498.9,488.5 	"/>
	<polygon fill="none" points="509.7,407.7 539.7,385.4 523.9,395.7 	"/>
	<g opacity="0.35">
		<g>
			<g>
				<g>
					<g>
						<path fill="#B8BBB9" d="M667.5,361.7c0,0-0.1-0.3-0.1-0.3c0,0,0,0-0.1-0.1c0,0-0.1,0-0.1,0c-0.1,0-0.1,0-0.1,0s0.1,0,0.1,0.1
							c0,0,0.1,0.1,0.2,0.2C667.5,361.6,667.5,361.7,667.5,361.7z"/>
						<path fill="#B8BBB9" d="M666.4,360.9C666.4,361,666.4,361,666.4,360.9c0,0.1,0.1,0.1,0.3,0.1c0.2,0,0.3,0,0.3,0
							C667,360.7,666.5,361.2,666.4,360.9z"/>
						<path fill="#B8BBB9" d="M666.3,360.8c-0.1-0.2-0.3-0.1-0.3-0.1C666.1,360.7,666.3,361,666.3,360.8z"/>
						<path fill="#B8BBB9" d="M650.3,363.3C650.3,363.3,650.4,363.2,650.3,363.3C650.3,363.2,650.3,363.2,650.3,363.3z"/>
						<path fill="#B8BBB9" d="M646.5,365.3l0,0.2c0.7-0.5,1.6-0.6,2.4-1l0,0.1c2-0.7,3.8-1.5,5.8-2.3c0,0,0,0.1-0.1,0.1
							c0.1-0.1,0.2-0.2,0.3-0.2c0,0,0,0.1,0,0.1c0.5,0.1,1.2-0.6,1.5-0.5c0.1-0.1,0.1-0.2,0-0.2c1.6-0.6,3.3-1.1,4.9-1.7
							c0.1,0,0.1,0.1,0.1,0.2c0.3-0.2,0.7-0.3,1.1-0.4c0.2,0,0.4-0.1,0.7-0.1c0.1,0,0.2,0,0.4,0c0.1,0,0.2,0,0.3,0.1
							c0.9,0.2,1.5,0.7,2.2,1.1c0.1-0.1-0.1-0.2,0.1-0.2c-0.4-0.4-0.9-0.3-1.2-0.6l0.1-0.1c-0.3-0.2-0.2,0.2-0.4-0.1
							c-0.1-0.1,0.1-0.1,0-0.1c-0.2-0.1-0.4-0.1-0.6-0.2c-0.1,0-0.2,0-0.3-0.1l-0.2,0l-0.2,0c-0.4,0-0.9,0.1-1.1,0.3
							c-0.2-0.2-0.7,0.1-1,0c-0.2,0.1-0.3,0.1-0.4,0.3c-2.3,0.5-4.5,1.4-6.8,2.2c-0.9,0.7-2.4,0.7-3.6,1.3c0,0,0,0,0,0
							c-0.4,0.2-1,0.5-1.5,0.6l-0.4,0.3c-3.1,0.7-6,2-9,3c-3.4,1.2-6.4,2-9.5,3.8c0,0,0,0,0-0.1c-0.9,0.5-1.8,0.7-2.6,1.2l0,0
							c-1,0.6-2.1,1.1-3.3,1.6c-1.1,0.5-2.2,1-3.1,1.7c-2.5,1.2-5.3,2.7-7.7,4.2l0-0.1c-1,0.6-2,1.2-3,1.7c-1,0.5-2.1,1.1-3,1.8
							c-2.1,1.1-3.9,3.1-6,4.3c-1.5,0.6-2.6,2.4-3.9,2.9c-2.7,1.2-4.7,3.3-6.7,5.4c-2.2,1.5-3.9,3.7-6.2,5c-0.8,1-2.2,1.4-3.2,2.3
							l0.1,0c-0.6,0.1-0.6,1-1.1,0.9l0,0c-0.3,0-0.1,0.8-0.4,0.7l0,0.1c-0.2,0.2-0.1-0.1-0.3,0c-0.1,0.1,0.1,0.2-0.1,0.3
							c-0.3-0.3-0.5,0.6-0.9,0.2c0.1-0.1-0.3,0-0.1-0.3c-0.1,0-0.5,0.4-0.3,0.5c0.1,0.2,0.1,0.5,0.4,0.4l-0.1-0.2
							c0.2,0.1,0.1,0,0.2,0.1c0.3-0.2,0.5-0.1,0.8-0.2c0,0,0,0,0,0c0-0.3,0.3-0.4,0.5-0.5l0.1,0c0.2,0.1,0.1-0.6,0.2-0.3
							c0.6-0.6,1.4-1.2,2.1-1.8c0-0.2,0.6-0.5,0.2-0.5c0.4,0.1,1-0.3,1.1-0.5c0,0,0,0.1,0,0.1c0.6,0,0.2-0.7,0.9-0.6
							c-0.1-0.3,0.7-0.5,0.7-0.9c0.1,0,0.1,0.1,0.2,0.1c0.7-0.5,1.5-1.1,2-1.5c0.3-0.6,1.2-0.9,1.4-1.5c0.4-0.2,1-0.5,1.4-1.1l0,0.1
							c0.5-0.5,1.2-1,1.4-1.5c0.4,0.2,0.6-0.1,0.9-0.2c0.3-0.4,1-1,1.5-1.5c0.2,0.1,0.4-0.4,0.6-0.2c1.3-1.6,3.3-2.9,5.3-3.9l0,0
							c0.1-0.3,0.2-0.7,0.3-1c0,0,0.1,0,0,0.1c0.3-0.3,0.7-0.3,1-0.5c0,0,0,0,0,0.1c0.2-0.3,0.7-0.3,1-0.7l0.1,0l0.2-0.2
							c0,0.1,0.1,0.2,0,0.2c2.8-1.8,5.4-4,8.4-5.7l-0.1,0.1l0.5-0.5c0,0,0,0.1,0,0.1c0.8-0.3,1.4-0.9,2.2-1.3c0,0-0.1,0.2,0.1,0.2
							c0.4-0.5,1-0.2,1-0.8c0,0,0.1,0.1,0.1,0.2c1.4-1,2.9-1.7,4.5-2.5c1.1-1.1,2.7-1.4,3.8-2.3l0,0.1c1.6-1.1,3.6-1.6,5.4-2.5
							c0.8-0.3,1.2-0.6,2-0.9l0.1,0.1c1.1-0.9,2.8-0.8,4-1.7l0,0.2c0.1-0.3,0.8-0.2,0.6-0.6l0.3,0c0.7-0.8,1.8-0.4,2.8-1.2l0,0.1
							c0.3-0.2,0.6-0.4,0.9-0.4c0,0,0,0-0.1,0.1c1.1,0,2-0.8,3-1.1l-0.1,0.2c0.4-0.4,1.4-0.5,2-0.8l0,0.1l0.3-0.2l0.1,0.1
							C645,366,645.7,365.6,646.5,365.3z"/>
						<path fill="#B8BBB9" d="M654.8,362.2L654.8,362.2C654.8,362.2,654.8,362.2,654.8,362.2z"/>
						<path fill="#B8BBB9" d="M579.8,405.3c0,0-0.1,0-0.1,0C579.7,405.3,579.8,405.3,579.8,405.3z"/>
					</g>
				</g>
			</g>
		</g>
	</g>
	<path fill="none" d="M624,375.5c0,0,35.8-14.1,38.4-11.8c2.6,2.3,1.3,6.8,0,10.3c-1.3,3.6-9,16.1-9,16.1"/>
	<path fill="#AFB1AF" d="M616.7,386.2l7.2-10.7l20.1-7.5c5.6-1.5,9.9-3.1,12.8-3.9c4.2-1.1,5.5-0.5,5.5-0.5s2.9,1.3,0.6,9.1
		c-2.3,7.8-23.5,37.4-23.5,37.4s-6.8-8.8-12-14C623.5,392.3,616.7,386.2,616.7,386.2z"/>
	<path opacity="0.2" fill="#AFB1AF" d="M234.2,514.2c0,0,29.7,15.2,24.2,41.7c-7.5,36-35,16.9-35,16.9s3.3,10.8,16.2,9.2
		c12.9-1.6,24.2-15.5,21.3-36.8C258.1,523.9,234.2,514.2,234.2,514.2z"/>
	<path fill="none" d="M402.1,725.4l-12.1-3.9c0,0-9.5-17.3,0.8-25.4c0,0,0.3,10.8,2.8,17C396.2,719.2,402.1,725.4,402.1,725.4z"/>
	<path fill="none" d="M448.3,729.6c0,0-0.4,2.8-0.1,5.2c0.3,2.4,1.8,8.1,2,8.4c0.2,0.3,0.8,0.3,0.9-0.2c0.1-0.5-1-6-1.1-7.5
		c-0.1-1.5-0.3-6-0.5-6.3C449.4,729,448.3,729.6,448.3,729.6z"/>
	<path opacity="0.5" d="M457.6,761.9c0,0,1.1-13.7,2.1-16.4c1-2.7,1.5-6.9,3.4-6.1c1.8,0.8,4.7,0,4.7,0l-3.6-5.9c0,0-4.3-4.8-7-4.2
		c-2.7,0.6-5.1,6.4-4.8,9C452.6,741.2,457.6,761.9,457.6,761.9z"/>
	<path opacity="0.15" fill="#AEB1AF" d="M530,855.2c0,1.4-1.2,2.6-2.6,2.6c-1.4,0-2.6-1.2-2.6-2.6c0-1.4,1.2-2.6,2.6-2.6
		C528.8,852.6,530,853.8,530,855.2z"/>
	<path opacity="0.1" fill="#FFFFFF" d="M472.9,866.1c0,0,4.5,1.8,6.2,1.5c4.9-0.7,6-0.1,7.5-0.4c1.6-0.3,1.1-3,3.2-3
		c2.2,0,3.9,1.3,7.3,0.6c3.4-0.6,3.7-2.4,4.9-2.4c1.3,0,4.1-2.2,4.1-2.8c0-0.6-1.5-3.2-1.5-3.2s1.9,3.7,5.8,6.2
		c3.9,2.6,14.3,7.3,14.3,7.3s-2,0.4-4.9,0.3c-4.3-0.2-10.2-1.1-12.2-0.7c-3.4,0.6-9.3,1.7-9.9,1.9c-0.6,0.2-3.7,1.5-5.2,1.9
		c-1.5,0.4-3.9,1-5.6,1.5c-1.7,0.4-2.9,0.6-2.9,0.6s-2.5-3.3-3.2-3.6c-0.8-0.2-4.1-2.9-5.2-3.6C474.7,867.8,472.9,866.1,472.9,866.1
		z"/>
	<path opacity="5.000000e-02" fill="#FFFFFF" d="M584.2,685.7l25.1-12.6c0,0,2,5.7,3.2,11.4c1.2,5.6,1.8,9.9,1.8,9.9L588.7,706
		c0,0-0.9-6.2-1.9-10.9C585.7,690.4,584.2,685.7,584.2,685.7z"/>
	<path opacity="0.15" fill="#FFFFFF" d="M578.3,735.3c0,0-7.2,38.2-19.2,63.6c-19.2,40.5-41,46.1-41,46.1s16.6-18,22-26
		c3.5-5.2,6.5-12.2,6.5-12.2s-15.9,25.1-28.8,34.6c-12.9,9.4-14.3,8.7-14.3,8.7l3.7,4.4c0,0,0.8-2.2,2-2.5c1.3-0.3,2.3,0.1,3.5,0.6
		c0.6,0.3,2,0.7,2,0.7s0.6,0.7,1.5,0.3c0.9-0.3,2.1-2.1,3.2-1.7c1.6,0.5,2.3,1.1,2.3,1.1s1.6-1.8,2.1-2.1c0.5-0.3,2.3-1.6,5-1.2
		c2.8,0.3,11.9,0.7,16.2-0.2c4.4-0.9,18.9-8.4,25.5-17.1c6.6-8.7,17.8-23.6,26.5-49.2c6-17.8,12-56.4,12-56.4l-0.9-0.7
		c0,0-6.3,47.3-19.5,74.5c-15.6,32-35.3,43.3-35.3,43.3s14.5-6.9,27.4-37.9c10.5-25.1,18.8-59.9,18.8-59.9s-18.6,61.1-31,77.7
		c-12,16.1-23.7,22.9-23.7,22.9h-3.7c0,0,4.7-3.3,7.3-5.2c2.6-1.9,12.8-10.9,24.6-33.7c15.4-29.7,20.3-64.6,20.3-64.6
		s-14.8,54.5-27.2,73.3c-16.8,25.3-32.5,31.8-32.5,31.8s-1.7,0-0.9-0.5c0.9-0.5,18.8-13.9,27.2-30.2c22-42.4,26.5-76.5,26.5-76.5
		s-17.4,62.1-30.4,78.7C538.8,842,528,847.3,526.4,848c-1.6,0.7-7.9,2.6-7.9,2.6s10.4-5.1,23.6-20.4
		C574.3,792.8,578.3,735.3,578.3,735.3z"/>
	<polygon opacity="0.4" points="368.4,395.2 364,405.5 402.6,406.9 405.2,398.2 	"/>
	<path opacity="2.000000e-02" d="M538.7,621.2c0,0,2.6,6.5,4.7,6.5c2.2,0,2.1,3.9,5.6,6.9c3.4,3,7.3,5.2,7.3,5.2s-0.9,12.5,1.3,14.6
		c2.2,2.2,5.6,11.2,6.9,11.2s9-3.9,10.8-3c1.7,0.9,4.3,4.3,4.3,4.3s0,4.3,2.2,6c2.2,1.7,4.7,0.9,4.7,0.9l18.1-10.3
		c0,0-6.5-1.7-6.9-4.3c-0.4-2.6-3.4-4.3-3.4-4.3l-2.6-3c0,0-1.7-4.7-3.9-6.5c-2.2-1.7-7.7-8.2-7.7-8.2s-2.2-6.9-7.8-9.5
		c-5.6-2.6-7.8-2.6-9-4.7c-1.3-2.2-2.2-4.3-2.2-6.5c0-2.2-1.3-6-1.3-6l-4.2-4.9c0,0-3.5,5.7-8.7,9.6
		C541.8,619.1,538.7,621.2,538.7,621.2z"/>
	<path opacity="2.000000e-02" d="M543,573.4c0,0-6.5,11.6-6.5,13.8c0,2.2-2.6,6-3.9,8.2c-1.3,2.2-9.5,3-10.8,3.4
		c-1.3,0.4-18.1,40.5-20.7,45.6c-2.6,5.2-12.9,32.7-35.7,34c-22.8,1.3-26.3,1.3-41.8,3c-15.5,1.7-24.1,6-32.3,1.7
		c-8.2-4.3-11.6-6.5-24.1-6c-12.5,0.4-22.4,4.7-22.4,4.7s27.1,9,30.6,12.5c3.4,3.4,3.4,31.9,1.3,34.9c-2.2,3-15.1,14.6-13.8,20.2
		c1.3,5.6,7.7,24.5,9.5,25.4c1.7,0.9,0,3.4,0,5.2c0,1.7,18.9,9.5,43.1,4.7c24.1-4.7,61.1-16.8,76.6-40.9
		c15.5-24.1,32.7-54.2,42.2-98.6c9.5-44.3,15.9-77.5,15.9-77.5L543,573.4z"/>
	<path opacity="0.15" d="M528.4,476.6c0,0,9.5,53.5,3.9,102c-5.6,48.2-8.3,72.7-31.9,119.7c-14.1,28-21.5,36.6-21.5,36.6s-3,6-1.3,6
		c1.7,0,39.9-39.5,51.7-115.8C543.9,530.4,528.4,476.6,528.4,476.6z"/>
	<g opacity="0.35">
		<g>
			<g>
				<g>
					<g>
						<polygon fill="#202020" points="254.7,701 254.8,701.1 255,701.2 						"/>
						<path fill="#202020" d="M255.9,702c0-0.1,0-0.1,0-0.1l-0.9-0.5C255.2,701.9,255.9,701.7,255.9,702z"/>
						<path fill="#202020" d="M256.1,702.3c0.2,0.3,0.4,0.3,0.5,0.4C256.4,702.6,256.2,702.1,256.1,702.3z"/>
						<path fill="#202020" d="M276.6,725.6C276.6,725.6,276.5,725.6,276.6,725.6C276.5,725.6,276.6,725.6,276.6,725.6z"/>
						<path fill="#202020" d="M282.7,731l0.2,0c-1.2-0.9-2.3-2.2-3.5-3.3l0.1,0c-2.8-2.9-5.5-5.5-8.3-8.4c0.1,0,0.1,0,0.2,0.1
							c-0.2-0.1-0.4-0.2-0.5-0.4c0-0.1,0.1,0,0.1,0c-0.4-0.8-1.8-1.8-2-2.3c-0.2-0.2-0.3-0.2-0.3,0c-2.1-2.3-4.4-4.8-6.6-7.2
							c-0.1-0.1,0-0.2,0-0.2c-2.1-1.9-3.8-4.2-5.5-6.4c-0.1,0,0.1,0.3-0.2,0.1c0.5,0.8,1.2,1.1,1.6,1.9l-0.1,0
							c0.3,0.5,0.3-0.1,0.6,0.5c0.1,0.2-0.1,0-0.1,0.1c0.8,1,1.6,2,2.6,2.8c0,0.4,0.9,1,1,1.5c0.3,0.2,0.5,0.5,0.7,0.5
							c2.8,3.5,5.9,6.7,9,10.1c1.7,1.3,3.1,3.5,5,5.2c0,0,0,0,0,0c0.6,0.5,1.5,1.3,2.2,2.1l0.7,0.5c1,1.1,2,2.2,3,3.3
							c1.1,1.1,2.1,2.1,3.2,3.1c1.1,1,2.2,2,3.4,3c1.2,1,2.3,1.9,3.5,2.9c5.4,4.2,10.2,7.8,16,11c0,0,0,0.1-0.1,0
							c1.7,1,3.1,2,4.6,2.9l0,0c1,0.5,2,1.1,3,1.7c1,0.6,2,1.2,3,1.7c2,1.2,4,2.3,6,3.2c4.6,2.6,9.9,5.3,15,7.5l0,0.1
							c2.1,0.8,4,1.8,6,2.7c2,0.9,4,1.8,6.1,2.5c1.1,0.4,2.2,0.8,3.3,1.1c0.6,0.2,1.1,0.3,1.7,0.5l1.7,0.4c1.1,0.3,2.3,0.5,3.4,0.8
							c1.1,0.3,2.3,0.5,3.4,0.8c0.7,0.2,1.4,0.4,2.2,0.6c0.8,0.2,1.6,0.2,2.4,0.2c1.6,0.1,3.2,0.3,4.5,0.6
							c5.4,1.2,10.8,0.9,16.3,0.3c5.1,0,10-1.1,14.9-1.5c2.2-0.7,4.9-0.5,7.4-1.2l-0.1-0.1c1,0.1,1.9-0.9,2.6-0.6l-0.1,0
							c0.5,0.1,1-0.8,1.3-0.6l0-0.1c0.6-0.2,0.1,0.1,0.6,0c0.2-0.1,0-0.2,0.4-0.3c0.2,0.4,1.4-0.5,1.6,0c-0.3,0.1,0.6,0-0.1,0.4
							c0.2,0,1.2-0.4,1-0.5c0-0.3,0.3-0.6-0.3-0.5l-0.1,0.2c-0.2-0.1-0.2,0-0.3-0.1c-0.8,0.2-0.9,0-1.5,0.1c0,0,0,0,0,0
							c-0.3,0.3-0.9,0.3-1.2,0.4l-0.1-0.1c-0.2-0.1-0.8,0.6-0.6,0.2c-1.5,0.5-3.3,1-5,1.4c-0.2,0.2-1.3,0.3-0.9,0.4
							c-0.5-0.2-1.8,0-2.3,0.1c0,0,0-0.1,0.1-0.1c-1-0.2-1.1,0.5-2,0.3c-0.1,0.3-1.6,0.2-2.1,0.6c-0.1-0.1-0.2-0.1-0.1-0.2
							c-1.6,0.2-3.4,0.4-4.7,0.5c-1.1,0.4-2.8,0.2-3.8,0.6c-0.8,0-2.2,0-3.3,0.2l0.1-0.1c-1.3,0.1-2.9,0.2-3.8,0.5
							c-0.4-0.4-1-0.3-1.5-0.4c-0.9,0.2-2.6,0.2-4,0.3c-0.2-0.2-1.1,0-1.2-0.2c-0.9,0.1-1.9,0.1-3,0.1c-1,0-2.1-0.1-3.1-0.2
							c-2.1-0.2-4.2-0.7-6.2-1.1l0.1,0c-0.5,0.1-1.2,0.3-1.7,0.3c0,0,0-0.1,0.1,0c-0.7-0.1-1.4-0.5-2.1-0.6c0,0,0,0,0.1-0.1
							c-0.7,0-1.4-0.5-2.2-0.5l0-0.1l-0.5,0c0-0.1,0.1-0.2,0.3-0.1c-6-1.6-12.3-3.4-18.2-5.9l0.2,0l-1.2-0.4c0,0,0.1,0,0.1,0
							c-1.4-0.8-3-1.2-4.4-1.9c0,0,0.3,0,0.1-0.1c-1.1-0.3-1.5-1.1-2.3-0.9c0,0,0-0.2,0.1-0.1c-1.5-0.6-3-1.3-4.4-2
							c-1.4-0.7-2.9-1.5-4.3-2.3c-2.6-0.9-5-2.7-7.6-3.8l0.1-0.1c-1.6-0.8-3.2-1.7-4.9-2.7c-1.6-1-3.2-2.1-4.8-3
							c-1.3-0.8-2.2-1.4-3.6-2.2l0-0.1c-2.5-1.1-4.4-3.3-7-4.5l0.2,0c-0.5-0.1-1.3-1-1.4-0.6l-0.3-0.4c-1.8-0.7-2.7-2.1-4.7-3.2
							l0.2,0c-0.5-0.3-1.1-0.7-1.5-1c0.1,0,0.1,0,0.2,0.1c-1.3-1.4-3.2-2.4-4.7-3.7l0.3,0c-0.9-0.5-2.1-1.8-3.1-2.6l0.1,0l-0.6-0.3
							l0.1-0.1C285.1,733,283.9,732.1,282.7,731z"/>
						<path fill="#202020" d="M271,719C271,719,271,719,271,719C271,719,271,719,271,719z"/>
						<path fill="#202020" d="M418.1,774c0.1,0,0.1,0,0.2,0C418.2,774,418.1,774,418.1,774z"/>
					</g>
				</g>
			</g>
		</g>
	</g>
	<path opacity="0.35" fill="#AEB1AF" d="M617.6,729.9c0,0-8.3,62.6-33.4,96.3c-24,32.2-40,31-40,31s2,1,5,0.7c3-0.3,23-2.5,47-46.2
		c15.7-28.6,21.1-73.8,21.1-73.8L617.6,729.9z"/>
	<g opacity="0.55">
		<g>
			<g>
				<g>
					<g>
						<polygon fill="#B8BBB9" points="512,183.5 511.9,183.4 511.6,183.6 						"/>
						<path fill="#B8BBB9" d="M510,183.6C510,183.7,510,183.7,510,183.6l1.3-0.2C510.8,183.2,510.3,183.8,510,183.6z"/>
						<path fill="#B8BBB9" d="M509.6,183.6c-0.5-0.1-0.7,0-0.8,0.1C509,183.6,509.7,183.8,509.6,183.6z"/>
						<path fill="#B8BBB9" d="M472.3,196.9c0,0,0.1-0.1,0.1-0.1C472.4,196.8,472.3,196.8,472.3,196.9z"/>
						<path fill="#B8BBB9" d="M465.6,205.1l0,0.2c0.5-0.9,1.2-1.6,1.9-2.4c0.7-0.8,1.4-1.6,2.1-2.4l-0.1,0.1
							c3.7-3.8,7.2-7.3,11.5-10.3c-0.1,0.1-0.1,0.1-0.1,0.2c0.2-0.2,0.4-0.4,0.6-0.6c0.1,0,0,0.1-0.1,0.2c0.5-0.2,1.2-0.7,1.8-1.1
							c0.6-0.4,1.3-0.8,1.6-0.9c0.3-0.2,0.3-0.3,0.2-0.3c0.9-0.5,1.9-1,2.8-1.4c1-0.5,2-0.8,3-1.2c2-0.7,4.1-1.4,6.3-1.6
							c0.2,0,0.2,0.1,0.2,0.2c3.6-0.7,7.4-0.4,11.1-0.1c0.1-0.1-0.4-0.1,0-0.2c-1.2-0.2-2.2,0.1-3.3-0.1l0.1-0.1
							c-0.8-0.1-0.2,0.2-1,0.1c-0.3-0.1,0.1-0.1-0.1-0.1c-1.7,0-3.4-0.1-5,0.2c-0.4-0.2-1.8,0.1-2.4-0.1c-0.4,0.1-0.9,0.2-1,0.3
							c-0.4,0-0.7,0.1-1.1,0.2l-0.3,0c-0.1,0-0.2,0-0.3,0.1l-0.5,0.1c-0.7,0.2-1.4,0.4-2.2,0.6c-1.4,0.5-2.8,1-4.2,1.7
							c-1.4,0.6-2.7,1.4-4,2.1c-0.7,0.4-1.3,0.8-1.9,1.2c-0.6,0.4-1.3,0.8-1.9,1.3c-1,1-2.3,1.9-3.5,2.9c-0.6,0.5-1.3,1-1.9,1.5
							c-0.6,0.5-1.2,1.1-1.8,1.7c0,0,0,0,0,0c-0.7,0.8-1.8,2-2.7,2.9l-0.6,0.9c-5.5,5.5-10,12.1-14.2,18.8c-1.2,1.9-2.3,3.8-3.3,5.6
							c-1,1.9-2,3.7-3,5.6c-1.9,3.7-3.6,7.5-5.2,11.5c0,0-0.1,0,0-0.2c-1,2.3-2.1,4.3-2.9,6.5l0,0c-2.1,5.5-4.9,11.2-6.6,16.6
							c-2.6,6.4-5.2,13.7-7.5,20.6l-0.1,0c-1.8,5.6-3.9,10.8-5.5,16.4c-1.9,5.7-3.1,11.9-5,17.6c-1.4,3.5-1.9,8.4-3.1,11.7
							c-0.6,1.7-1.1,3.4-1.6,5.1c-0.4,1.7-0.8,3.5-1.2,5.2c-0.4,1.7-0.6,3.5-0.9,5.3c-0.2,1.8-0.5,3.5-0.7,5.3
							c-1.3,6.5-1.4,13.2-1.9,19.6c0.3,3-0.2,6.4,0.6,9.8l0.1-0.1c0,0.6,0.2,1.3,0.5,1.9c0.3,0.6,0.5,1.1,0.4,1.5l-0.1-0.1
							c0,0.4,0.4,0.8,0.7,1.1l-0.1,0c0-0.3,0-0.5,0.2-0.6l-0.1-0.1c0.2-0.7,0.2,0,0.4-0.6c0.1-0.2-0.2-0.1,0-0.6
							c0.5,0.1,0.5-1.8,1-1.7c-0.1,0.4,0.4-0.6,0.2,0.4c0.1-0.2,0.5-1.5,0.3-1.4c-0.2-0.2-0.2-0.7-0.6,0l0.1,0.2
							c-0.2,0.2-0.1,0.2-0.3,0.2c-0.4,1-0.6,1-1,1.7c0,0,0,0,0,0c0,0.5-0.3,1.2-0.5,1.5l-0.1,0.1c-0.2,0.1-0.1,0.6-0.1,0.8l1.1-0.1
							c-0.1-0.1-0.1-0.1,0.1-0.1c-0.4-0.8-0.8-1.9-1.1-3c-0.3-1.1-0.5-2.3-0.6-3.4c-0.2-0.3-0.2-1.8-0.4-1.2c0.2-0.6,0.2-2.3,0.1-3
							c0,0,0.1,0,0.1,0.1c0.3-1.3-0.4-1.5,0-2.7c-0.3-0.2,0.1-2.1-0.3-2.8c0.1-0.1,0.1-0.2,0.2-0.1c0-1.1,0.1-2.2,0.2-3.2
							c0.1-1.1,0.2-2.1,0.3-3c-0.2-1.6,0.5-3.7,0.3-5c0.2-1.1,0.6-2.8,0.7-4.3l0,0.2c0.2-1.7,0.5-3.8,0.5-5c0.5-0.4,0.5-1.2,0.8-1.9
							c0-1.2,0.5-3.4,0.8-5.2c0.2-0.2,0.2-1.4,0.5-1.5c0.2-1.2,0.4-2.5,0.6-3.8c0.3-1.3,0.6-2.7,1-4c0.4-1.4,0.7-2.7,1.1-4
							c0.4-1.3,0.9-2.6,1.3-3.9l0,0.1c0-0.7,0-1.5,0-2.3c0-0.1,0.1,0,0,0.1c0.2-0.9,0.7-1.7,0.9-2.7c0,0,0,0,0,0.2
							c0.1-0.9,0.7-1.7,0.8-2.8l0.1,0l0.1-0.7c0.1,0,0.2,0.1,0.1,0.4c2.4-7.9,4.4-16.2,7.2-24.2l0,0.3l0.4-1.6c0,0,0,0.1,0,0.2
							c0.8-1.9,1.3-4.1,2-6c0,0,0,0.3,0.1,0.1c0.3-1.5,1.1-2.2,0.9-3.1c0-0.1,0.2-0.1,0.1,0.1c0.6-2,1.3-4,2-6c0.7-2,1.5-4,2.3-6
							c0.9-3.4,2.7-7,3.8-10.5l0.1,0c1.5-4.5,3.8-9,5.8-13.5c0.9-1.8,1.4-3.1,2.2-5l0.1,0c1.1-3.3,3.4-6.4,4.7-9.8l0,0.3
							c0.1-0.6,1-1.9,0.6-1.9l0.4-0.5c0.7-2.4,2.2-3.9,3.5-6.6l0,0.2c0.3-0.7,0.7-1.6,1.1-2c0,0.1,0,0.1-0.1,0.2
							c0.8-1,1.5-2.1,2.1-3.3c0.7-1.2,1.3-2.4,2-3.5l0,0.3c0.6-1.2,2-3,2.9-4.4l0,0.1l0.4-0.7l0.1,0.1c0.7-0.9,1.2-1.8,1.9-2.6
							C464.3,206.8,464.9,205.9,465.6,205.1z"/>
						<path fill="#B8BBB9" d="M481.5,190.1C481.5,190.1,481.5,190.1,481.5,190.1C481.5,190.1,481.5,190.1,481.5,190.1z"/>
						<path fill="#B8BBB9" d="M408.4,383.4c0-0.1,0.1-0.2,0.1-0.2C408.5,383.2,408.5,383.3,408.4,383.4z"/>
					</g>
				</g>
			</g>
		</g>
	</g>
	<g opacity="0.65">
		<g>
			<g>
				<g>
					<g>
						<polygon fill="#B8BBB9" points="542,351.9 542,351.8 541.9,351.6 						"/>
						<path fill="#B8BBB9" d="M541.7,350.3C541.7,350.4,541.7,350.3,541.7,350.3l0.2,1C542,350.9,541.7,350.6,541.7,350.3z"/>
						<path fill="#B8BBB9" d="M541.7,350c0-0.4-0.1-0.5-0.1-0.6C541.7,349.6,541.6,350.1,541.7,350z"/>
						<path fill="#B8BBB9" d="M539.3,318.2c0,0,0,0.1,0,0.1C539.4,318.2,539.4,318.2,539.3,318.2z"/>
						<path fill="#B8BBB9" d="M538.3,309.9L538.3,309.9c0.2,1.5,0.2,3.2,0.4,4.8l0-0.1c0.4,4.2,0.8,8,1.2,12.1c0-0.1,0-0.1,0-0.1
							c0,0.2,0.1,0.4,0.1,0.6c0,0.1,0-0.1-0.1-0.1c0,0.9,0.3,2.6,0.2,3.1c0,0.2,0.1,0.3,0.1,0.2c0.3,3.2,0.6,6.7,0.9,10
							c0,0.2,0,0.2-0.1,0.1c0.4,2.8,0.5,5.8,0.6,8.6c0.1,0.1,0-0.3,0.1,0c0-0.9-0.2-1.7-0.2-2.5l0.1,0.1c0-0.6-0.1-0.1-0.1-0.8
							c0-0.3,0.1,0.1,0.1-0.1c-0.1-1.3-0.1-2.7-0.3-3.9c0.1-0.3-0.1-1.4,0-1.9c-0.1-0.3-0.1-0.7-0.2-0.8c-0.3-4.6-0.7-9.2-1.1-13.8
							c-0.4-2.2-0.4-4.8-0.7-7.4c0,0,0,0,0,0c-0.1-0.8-0.3-2.1-0.3-3.1l-0.2-0.8c-0.4-6.1-1.2-12.2-1.8-18.4
							c-0.8-7-1.4-13.1-2.6-19.8c0,0,0-0.1,0.1,0.1c-0.3-1.9-0.5-3.7-0.8-5.6l0,0c-0.8-4.5-1.4-9.5-2.3-13.8
							c-0.8-5.3-1.8-11.4-2.8-17l0,0c-0.4-2.3-0.8-4.5-1.2-6.7c-0.3-2.2-0.8-4.4-1.3-6.7c-0.8-4.6-2.3-9.4-3.5-14
							c-0.6-2.9-2.1-6.4-2.9-9.1c-1.6-5.4-3.8-10.5-7-15.2c-0.2-0.3-0.4-0.6-0.6-0.8l0,0c-2.2-1-4.7-1.4-7.1-1.5
							c-2.4-0.1-4.8,0.1-7.1,0.5c-2.3,0.6-4.9,1.1-7.4,2.1l0.1,0c-1,0.2-1.9,1-2.5,1l0.1-0.1c-0.5,0.1-1,0.7-1.3,0.7l0,0.1
							c-0.5,0.3-0.1,0-0.5,0.2c-0.2,0.1,0,0.1-0.4,0.3c-0.2-0.2-1.3,0.7-1.5,0.5c0.3-0.2-0.5,0.2,0.1-0.2c-0.2,0.1-1.1,0.6-1,0.6
							c0,0.1-0.3,0.4,0.3,0.2l0.1-0.1c0.2,0,0.2,0,0.3,0c0.7-0.4,0.9-0.3,1.4-0.5c0,0,0,0,0,0c0.3-0.3,0.8-0.5,1.1-0.6l0.1,0
							c0.2,0,0.8-0.6,0.6-0.3c1.5-0.7,3.2-1.4,5-2c0.2-0.1,1.3-0.4,0.9-0.4c0.5,0,1.8-0.4,2.3-0.5c0,0,0,0-0.1,0.1
							c1-0.1,1.1-0.5,2-0.4c0.1-0.2,1.6-0.3,2.1-0.5c0.1,0,0.2,0,0.1,0.1c1.7-0.3,3.5-0.3,4.9-0.2c1.2-0.1,2.9,0.3,3.9,0.3
							c0.8,0.2,2.1,0.6,3.2,1l-0.1,0c0.1,0,0.2,0.1,0.2,0.1l-0.1-0.1c0.7,1,1.5,2.3,2,3c0,0.4,0.3,0.9,0.5,1.5
							c0.5,0.8,1.2,2.4,1.9,3.6c0,0.2,0.5,1,0.4,1.1c1.7,3.5,3.2,8,4.3,12l0-0.1c0.2,0.5,0.5,1,0.8,1.5c0,0.1,0,0.1,0-0.1
							c0.2,0.7,0.3,1.4,0.5,2.2c0,0,0,0-0.1-0.1c0.3,0.7,0.3,1.4,0.6,2.2l0,0.1l0.2,0.5c0,0-0.1,0-0.2-0.3
							c1.6,6.3,3.3,12.8,4.4,19.3l-0.1-0.2l0.3,1.3c0,0,0-0.1-0.1-0.1c0.2,1.6,0.6,3.3,0.9,4.9c0,0-0.1-0.2-0.1,0
							c0.3,1.2,0.2,1.9,0.5,2.5c0,0.1,0,0.1-0.1,0c0.6,3.2,1.2,6.6,1.6,9.9c0.6,2.7,0.9,5.8,1.5,8.6l0,0c0.7,3.7,1.1,7.6,1.7,11.4
							c0.2,1.6,0.4,2.7,0.6,4.3l0,0c0.6,2.7,0.6,5.7,1.2,8.5l-0.1-0.2c0.2,0.4,0.2,1.7,0.4,1.5l0,0.5c0.5,1.9,0.3,3.5,0.8,5.8
							l-0.1-0.1c0.1,0.6,0.2,1.3,0.2,1.8c0-0.1,0,0-0.1-0.2c0.1,2,0.5,4.1,0.7,6.2l-0.1-0.2c0.2,1,0.3,2.8,0.5,4.1l0-0.1l0.1,0.7
							l-0.1,0C537.9,306.6,538.1,308.2,538.3,309.9z"/>
						<path fill="#B8BBB9" d="M539.9,327.1C539.9,327.1,539.9,327.1,539.9,327.1C539.9,327,539.9,327,539.9,327.1z"/>
						<path fill="#B8BBB9" d="M486.1,191.1c-0.1,0-0.1,0.1-0.2,0.1C485.9,191.2,486.1,191.1,486.1,191.1z"/>
					</g>
				</g>
			</g>
		</g>
	</g>
	<polygon opacity="5.000000e-02" fill="#FFFFFF" points="382,319.2 416.2,317.4 411,337.2 377.1,338.2 	"/>
	<path opacity="5.000000e-02" fill="#FFFFFF" d="M391.6,290.9c4-10.7,7.7-18.4,7.7-18.4l32.4-1.7l-12.1,35.1l-33.6,1.3
		C386,307.2,387.6,301.6,391.6,290.9z"/>
	<path d="M361.1,414l37.1,1.9c0,0,1.7-2.7,2.5-4.4c0.8-1.6,1.7-4.1,1.7-4.1l-38.4-2c0,0-1.4,3.6-1.6,4.3
		C362.1,410.5,361.1,414,361.1,414z"/>
	<path opacity="0.55" fill="#AEB1AF" d="M361.1,414l37.1,1.9c0,0,1.7-2.7,2.5-4.4c0.8-1.6,1.7-4.1,1.7-4.1l-38.4-2
		c0,0-1.4,3.6-1.6,4.3C362.1,410.5,361.1,414,361.1,414z"/>
	<polygon opacity="0.35" fill="#FFFFFF" points="412.7,736.3 448.3,710.9 443.1,705.4 407.1,730.7 	"/>
	<polygon opacity="0.25" points="412.7,736.3 448.3,710.9 443.1,705.4 407.1,730.7 	"/>
	<polygon opacity="0.5" fill="#FFFFFF" points="364.5,405.5 402.4,407.4 401.7,409.4 363.9,407 	"/>
	<path opacity="0.1" d="M468.2,469.7c0,0,6.1-2.2,9.7-2.4c3.5-0.2,12.4-0.2,13.1-2.5c0.7-2.2-9.9-22.1-9.9-22.1l-8.6-5.1l-11.4,7.6
		l-8,10.1L468.2,469.7z"/>
	<path fill="#FFFFFF" d="M261.8,647.2l24.4,35.3c0,0,0.7-5.2,0.5-6.6c-0.3-1.4-14.5-22.4-14.5-22.4s-3-2.6-5.2-3.8
		C264.8,648.5,261.8,647.2,261.8,647.2z"/>
	<path opacity="0.55" d="M261.8,647.2l24.4,35.3c0,0,0.7-5.2,0.5-6.6c-0.3-1.4-14.5-22.4-14.5-22.4s-3-2.6-5.2-3.8
		C264.8,648.5,261.8,647.2,261.8,647.2z"/>
	<path fill="#FFFFFF" d="M253.9,537.9l-4.4,32.8c0,0,6.3-4.7,7.3-14.2C257.7,548.1,253.9,537.9,253.9,537.9z"/>
	<path opacity="0.55" d="M253.9,537.9l-4.4,32.8c0,0,6.3-4.7,7.3-14.2C257.7,548.1,253.9,537.9,253.9,537.9z"/>
	<path opacity="2.000000e-02" d="M580.9,488.5c0,0,28.6-10.6,33.5-18c4.9-7.4,13.9-21.3,21.3-13.9c7.4,7.4,27.8,43.3,19.6,78.5
		c-8.2,35.2-27,48.2-27,53.1c0,4.9,9,26.2,9,26.2s35.3-80.2,27.8-140.6c-5.7-45.8-34.3-74-37.6-77.5c-3.3-3.5-14.7-5.9-18.8,8
		c-4.1,13.9-31.9,15.5-39.2,24.5c-7.4,9-21.3,20.4-21.3,20.4s14.9,12.2,21.1,20C576.8,478.7,580.9,488.5,580.9,488.5"/>
	<path opacity="0.35" fill="#AEB1AF" d="M251.7,701.5l-0.4-0.6c0,0-33.2,16.7-34.5,18c-1.3,1.3-7.1,4.2-7.1,4.2s6.5,0,13.9-2.9
		c7.4-2.9,31.3-14.5,31.3-14.5l-0.5-0.6c0,0-36.2,17.7-40.2,16.7C212.8,721.5,251.7,701.5,251.7,701.5z"/>
	<g>
		<path opacity="5.000000e-02" fill="#AEB1AF" d="M371.9,539.5c3.8-0.6,15.6,2.7,16.6,12.9c1,10.2-9,14-11.9,14
			c-2.9,0-13.2-3.5-14.3-13.6C360.9,540.8,371.9,539.5,371.9,539.5z"/>
		<g>
			<g opacity="0.15">
				<g>
					<g>
						<g>
							<g>
								<polygon fill="#FFFFFF" points="371.8,539.1 371.8,539.1 371.7,539.1 								"/>
								<path fill="#FFFFFF" d="M371.1,539.4C371.2,539.4,371.2,539.4,371.1,539.4l0.4-0.2C371.3,539,371.3,539.4,371.1,539.4z"/>
								<path fill="#FFFFFF" d="M371,539.4c-0.2,0-0.2,0.1-0.2,0.1C370.8,539.4,371.1,539.4,371,539.4z"/>
								<path fill="#FFFFFF" d="M362,548.6C362,548.6,362,548.6,362,548.6C362,548.6,362,548.6,362,548.6z"/>
								<path fill="#FFFFFF" d="M362.2,552.2L362.2,552.2c-0.1-0.6,0-1.4,0-2l0,0c0-0.4,0.1-0.9,0.1-1.3c0.1-0.4,0.2-0.8,0.2-1.2
									c0.1-0.4,0.2-0.8,0.3-1.2c0.1-0.4,0.3-0.8,0.5-1.2c0,0,0,0,0,0.1c0-0.1,0-0.2,0.1-0.3c0,0,0,0,0,0.1
									c0.1-0.1,0.3-0.4,0.4-0.6c0.1-0.2,0.3-0.4,0.4-0.5c0.1-0.1,0-0.2,0-0.1c0.8-1.1,1.9-2.2,3.1-2.9c0.1,0,0.1,0,0.1,0
									c1-0.8,2.2-1.2,3.4-1.5c0-0.1-0.1,0,0-0.1c-0.4,0-0.7,0.3-1,0.4l0-0.1c-0.3,0.1,0,0.1-0.3,0.2c-0.1,0,0-0.1,0-0.1
									c-0.5,0.2-1.1,0.4-1.5,0.8c-0.2,0-0.5,0.3-0.8,0.3c-0.1,0.1-0.2,0.2-0.2,0.3c-1.7,1-3.1,2.6-3.9,4.5c-0.1,0.5-0.3,1-0.5,1.4
									c-0.2,0.5-0.3,1.1-0.4,1.6c0,0,0,0,0,0c0,0.4,0,0.9-0.1,1.3l0.1,0.4c-0.3,2.5,0.3,5.3,1.4,7.6c1.4,2.6,3.2,4.8,5.8,6.1
									c0,0,0,0-0.1,0c0.4,0.2,0.7,0.4,1,0.6c0.3,0.2,0.7,0.4,1.1,0.5l0,0c0.9,0.4,1.9,0.7,2.8,1c1,0.3,2,0.5,2.9,0.3
									c2.3-0.3,4.7-1.5,6.6-2.9l0,0c1.5-1.2,2.9-2.5,3.7-4.3c1-1.8,1.1-3.9,1.1-5.9c0-0.3,0.1-0.6,0-1c-0.1-0.3-0.2-0.7-0.2-1
									c-0.1-0.7-0.4-1.3-0.5-1.9c-0.5-2.4-2.1-4.3-4-5.7c-1.6-1.5-3.7-2.3-5.6-3.2c-1-0.2-2-0.8-3.1-1l0,0.1
									c-0.4-0.2-0.9,0.1-1.1-0.2l0,0c-0.2-0.1-0.5,0.2-0.6,0.1l0,0.1c-0.3,0,0-0.1-0.2-0.1c-0.1,0,0,0.1-0.2,0.1
									c0-0.3-0.6,0.1-0.7-0.2c0.1,0-0.2-0.1,0.1-0.2c-0.1,0-0.5,0-0.5,0.1c0,0.1-0.2,0.2,0.1,0.3l0-0.1c0.1,0.1,0.1,0,0.1,0.1
									c0.3,0,0.4,0.1,0.6,0.1c0,0,0,0,0,0c0.1-0.1,0.4,0,0.5,0l0,0c0.1,0.1,0.4-0.2,0.3,0c0.3,0,0.7,0,1.1,0.1
									c0.4,0.1,0.8,0.1,1.1,0.2c0.1,0,0.6,0.2,0.4,0c0.2,0.2,0.7,0.4,0.9,0.4c0,0,0,0-0.1,0c0.3,0.3,0.5,0,0.8,0.3
									c0.1-0.1,0.6,0.3,0.9,0.2c0,0.1,0,0.1,0,0.1c0.3,0.1,0.6,0.3,1,0.4c0.3,0.2,0.6,0.3,0.8,0.5c0.5,0.1,1,0.7,1.5,0.7
									c0.3,0.2,0.7,0.6,1.1,0.9l-0.1,0c0.5,0.3,0.9,0.8,1.3,1c0,0.2,0.2,0.4,0.3,0.6c0.3,0.2,0.8,0.8,1.2,1.2
									c0,0.1,0.3,0.4,0.2,0.5c0.6,0.6,1,1.4,1.3,2.2c0.1,0.4,0.2,0.9,0.4,1.3c0.1,0.4,0.1,0.9,0.1,1.3l0,0
									c0.1,0.2,0.3,0.4,0.4,0.7c0,0,0,0,0,0c0,0.3-0.1,0.6,0,0.9c0,0,0,0,0-0.1c0.1,0.3-0.1,0.6,0,1l0,0c0,0,0,0.2,0,0.2
									c0,0-0.1,0-0.1-0.1c-0.2,2.6-1,5.4-2.9,7.4l0-0.1l-0.3,0.4c0,0,0,0,0-0.1c-0.2,0.2-0.5,0.5-0.8,0.7
									c-0.2,0.2-0.5,0.5-0.8,0.7c0,0,0-0.1,0-0.1c-0.3,0.4-0.7,0.4-0.8,0.7c0,0-0.1,0,0-0.1c-1.1,0.8-2.4,1.4-3.7,1.8
									c-0.5,0.3-1.1,0.4-1.7,0.5c-0.6,0.1-1.2,0-1.8,0l0,0c-1.6-0.1-3.1-0.9-4.5-1.6c-0.6-0.3-1-0.5-1.6-0.9l0-0.1
									c-1.1-0.4-1.8-1.5-2.8-2.2l0.1,0c-0.2-0.1-0.5-0.6-0.5-0.4l-0.1-0.2c-0.4-0.2-0.6-0.5-0.8-0.9c-0.2-0.3-0.4-0.7-0.7-1.1
									l0.1,0c-0.2-0.2-0.3-0.5-0.4-0.6c0,0,0,0,0.1,0.1c-0.1-0.4-0.4-0.8-0.5-1.2c-0.2-0.4-0.5-0.8-0.6-1.2l0.1,0.1
									c-0.2-0.4-0.4-1.1-0.5-1.7l0,0l-0.1-0.3l0.1,0C362.4,553.5,362.2,552.9,362.2,552.2z"/>
								<path fill="#FFFFFF" d="M363.4,545.1L363.4,545.1C363.4,545.1,363.4,545.1,363.4,545.1z"/>
								<path fill="#FFFFFF" d="M372.8,539.8C372.8,539.8,372.8,539.8,372.8,539.8C372.7,539.8,372.8,539.8,372.8,539.8z"/>
							</g>
						</g>
					</g>
				</g>
			</g>
			<path d="M379.2,542.6c0,0-0.6,6.1,2.2,9.6c2.8,3.4,6.1,5.2,6.1,5.2s1.4-7.9-1.7-11.1C382.6,543.1,379.2,542.6,379.2,542.6z"/>
			<path opacity="0.35" d="M378.2,542.2c0,0-0.4,7.8,2.3,11c2.7,3.2,6.2,5.1,6.2,5.1s-2.5,5.1-5.8,5c-3.3-0.1-11.5-5.1-10.9-12.3
				C370.7,543.7,378.2,542.2,378.2,542.2z"/>
			<path opacity="0.15" d="M371.2,556c0,0-8.1-0.8-8.2-6.1c-0.1-5.4,4.4-10.2,7.8-10.5c3.3-0.3,9.4,2.5,9.4,2.5s-6.5,0.2-8.4,5.3
				C369.8,552.1,371.2,556,371.2,556z"/>
			<path opacity="0.25" fill="#FFFFFF" d="M369.6,564.4c0,0,1,1.9,2.7,2.4c1.7,0.4,4.2-0.3,4.2-0.3s-2-0.3-3.4-0.9
				C371.7,565,369.6,564.4,369.6,564.4z"/>
			<path opacity="0.25" fill="#FFFFFF" d="M387.5,558.9c0,0,1.8-2.3,1.8-3.2c0-1-1.3-5.2-1.3-5.2s0.3,2.3,0.1,4.3
				C387.9,556.8,387.5,558.9,387.5,558.9z"/>
		</g>
	</g>
	<g>
		<path opacity="5.000000e-02" fill="#AEB1AF" d="M371.9,593.3c3.8-0.6,15.6,2.7,16.6,12.9c1,10.2-9,14-11.9,14
			c-2.9,0-13.2-3.5-14.3-13.6C360.9,594.6,371.9,593.3,371.9,593.3z"/>
		<g>
			<g opacity="0.15">
				<g>
					<g>
						<g>
							<g>
								<polygon fill="#FFFFFF" points="371.8,592.9 371.8,592.9 371.7,593 								"/>
								<path fill="#FFFFFF" d="M371.1,593.2C371.2,593.2,371.2,593.2,371.1,593.2l0.4-0.2C371.3,592.9,371.3,593.2,371.1,593.2z"/>
								<path fill="#FFFFFF" d="M371,593.2c-0.2,0-0.2,0.1-0.2,0.1C370.8,593.2,371.1,593.3,371,593.2z"/>
								<path fill="#FFFFFF" d="M362,602.4C362,602.4,362,602.4,362,602.4C362,602.4,362,602.4,362,602.4z"/>
								<path fill="#FFFFFF" d="M362.2,606L362.2,606c-0.1-0.6,0-1.4,0-2l0,0c0-0.4,0.1-0.9,0.1-1.3c0.1-0.4,0.2-0.8,0.2-1.2
									c0.1-0.4,0.2-0.8,0.3-1.2c0.1-0.4,0.3-0.8,0.5-1.2c0,0,0,0,0,0.1c0-0.1,0-0.2,0.1-0.3c0,0,0,0,0,0.1
									c0.1-0.1,0.3-0.4,0.4-0.6c0.1-0.2,0.3-0.4,0.4-0.5c0.1-0.1,0-0.2,0-0.1c0.8-1.1,1.9-2.2,3.1-2.9c0.1,0,0.1,0,0.1,0
									c1-0.8,2.2-1.2,3.4-1.5c0-0.1-0.1,0,0-0.1c-0.4,0-0.7,0.3-1,0.4l0-0.1c-0.3,0.1,0,0.1-0.3,0.2c-0.1,0,0-0.1,0-0.1
									c-0.5,0.2-1.1,0.4-1.5,0.8c-0.2,0-0.5,0.3-0.8,0.3c-0.1,0.1-0.2,0.2-0.2,0.3c-1.7,1-3.1,2.6-3.9,4.5c-0.1,0.5-0.3,1-0.5,1.4
									c-0.2,0.5-0.3,1.1-0.4,1.6c0,0,0,0,0,0c0,0.4,0,0.9-0.1,1.3l0.1,0.4c-0.3,2.5,0.3,5.3,1.4,7.6c1.4,2.6,3.2,4.8,5.8,6.1
									c0,0,0,0-0.1,0c0.4,0.2,0.7,0.4,1,0.6c0.3,0.2,0.7,0.4,1.1,0.5l0,0c0.9,0.4,1.9,0.7,2.8,1c1,0.3,2,0.5,2.9,0.3
									c2.3-0.3,4.7-1.5,6.6-2.9l0,0c1.5-1.2,2.9-2.5,3.7-4.3c1-1.8,1.1-3.9,1.1-5.9c0-0.3,0.1-0.6,0-1c-0.1-0.3-0.2-0.7-0.2-1
									c-0.1-0.7-0.4-1.3-0.5-1.9c-0.5-2.4-2.1-4.3-4-5.7c-1.6-1.5-3.7-2.3-5.6-3.2c-1-0.2-2-0.8-3.1-1l0,0.1
									c-0.4-0.2-0.9,0.1-1.1-0.2l0,0c-0.2-0.1-0.5,0.2-0.6,0.1l0,0.1c-0.3,0,0-0.1-0.2-0.1c-0.1,0,0,0.1-0.2,0.1
									c0-0.3-0.6,0.1-0.7-0.2c0.1,0-0.2-0.1,0.1-0.2c-0.1,0-0.5,0-0.5,0.1c0,0.1-0.2,0.2,0.1,0.3l0-0.1c0.1,0.1,0.1,0,0.1,0.1
									c0.3,0,0.4,0.1,0.6,0.1c0,0,0,0,0,0c0.1-0.1,0.4,0,0.5,0l0,0c0.1,0.1,0.4-0.2,0.3,0c0.3,0,0.7,0,1.1,0.1
									c0.4,0.1,0.8,0.1,1.1,0.2c0.1,0,0.6,0.2,0.4,0c0.2,0.2,0.7,0.4,0.9,0.4c0,0,0,0-0.1,0c0.3,0.3,0.5,0,0.8,0.3
									c0.1-0.1,0.6,0.3,0.9,0.2c0,0.1,0,0.1,0,0.1c0.3,0.1,0.6,0.3,1,0.4c0.3,0.2,0.6,0.3,0.8,0.5c0.5,0.1,1,0.7,1.5,0.7
									c0.3,0.2,0.7,0.6,1.1,0.9l-0.1,0c0.5,0.3,0.9,0.8,1.3,1c0,0.2,0.2,0.4,0.3,0.6c0.3,0.2,0.8,0.8,1.2,1.2
									c0,0.1,0.3,0.4,0.2,0.5c0.6,0.6,1,1.4,1.3,2.2c0.1,0.4,0.2,0.9,0.4,1.3c0.1,0.4,0.1,0.9,0.1,1.3l0,0
									c0.1,0.2,0.3,0.4,0.4,0.7c0,0,0,0,0,0c0,0.3-0.1,0.6,0,0.9c0,0,0,0,0-0.1c0.1,0.3-0.1,0.6,0,1l0,0c0,0,0,0.2,0,0.2
									c0,0-0.1,0-0.1-0.1c-0.2,2.6-1,5.4-2.9,7.4l0-0.1l-0.3,0.4c0,0,0,0,0-0.1c-0.2,0.2-0.5,0.5-0.8,0.7
									c-0.2,0.2-0.5,0.5-0.8,0.7c0,0,0-0.1,0-0.1c-0.3,0.4-0.7,0.4-0.8,0.7c0,0-0.1,0,0-0.1c-1.1,0.8-2.4,1.4-3.7,1.8
									c-0.5,0.3-1.1,0.4-1.7,0.5c-0.6,0.1-1.2,0-1.8,0l0,0c-1.6-0.1-3.1-0.9-4.5-1.6c-0.6-0.3-1-0.5-1.6-0.9l0-0.1
									c-1.1-0.4-1.8-1.5-2.8-2.2l0.1,0c-0.2-0.1-0.5-0.6-0.5-0.4l-0.1-0.2c-0.4-0.2-0.6-0.5-0.8-0.9c-0.2-0.3-0.4-0.7-0.7-1.1
									l0.1,0c-0.2-0.2-0.3-0.5-0.4-0.6c0,0,0,0,0.1,0.1c-0.1-0.4-0.4-0.8-0.5-1.2c-0.2-0.4-0.5-0.8-0.6-1.2l0.1,0.1
									c-0.2-0.4-0.4-1.1-0.5-1.7l0,0l-0.1-0.3l0.1,0C362.4,607.3,362.2,606.7,362.2,606z"/>
								<path fill="#FFFFFF" d="M363.4,598.9L363.4,598.9C363.4,599,363.4,598.9,363.4,598.9z"/>
								<path fill="#FFFFFF" d="M372.8,593.6C372.8,593.6,372.8,593.6,372.8,593.6C372.7,593.6,372.8,593.6,372.8,593.6z"/>
							</g>
						</g>
					</g>
				</g>
			</g>
			<path d="M379.2,596.5c0,0-0.6,6.1,2.2,9.6c2.8,3.4,6.1,5.2,6.1,5.2s1.4-7.9-1.7-11.1C382.6,596.9,379.2,596.5,379.2,596.5z"/>
			<path opacity="0.35" d="M378.2,596c0,0-0.4,7.8,2.3,11c2.7,3.2,6.2,5.1,6.2,5.1s-2.5,5.1-5.8,5c-3.3-0.1-11.5-5.1-10.9-12.3
				C370.7,597.5,378.2,596,378.2,596z"/>
			<path opacity="0.15" d="M371.2,609.8c0,0-8.1-0.8-8.2-6.1c-0.1-5.4,4.4-10.2,7.8-10.5c3.3-0.3,9.4,2.5,9.4,2.5s-6.5,0.2-8.4,5.3
				C369.8,605.9,371.2,609.8,371.2,609.8z"/>
			<path opacity="0.25" fill="#FFFFFF" d="M369.6,618.2c0,0,1,1.9,2.7,2.4c1.7,0.4,4.2-0.3,4.2-0.3s-2-0.3-3.4-0.9
				C371.7,618.8,369.6,618.2,369.6,618.2z"/>
			<path opacity="0.25" fill="#FFFFFF" d="M387.5,612.7c0,0,1.8-2.3,1.8-3.2c0-1-1.3-5.2-1.3-5.2s0.3,2.3,0.1,4.3
				C387.9,610.7,387.5,612.7,387.5,612.7z"/>
		</g>
	</g>
	<path opacity="0.5" d="M471.9,747.1c0,0-25.5-49.1-46.5-54.6c-21-5.5-32,0-35.8,4.5c-3.9,4.5-5.3,10.6-1.7,20.5
		c1.2,3.3,4.1,8.2,8.2,13.3c9.4,11.6,23.2,24.6,23.2,24.6s23.8,13.4,34.6,8.4C473.8,754.5,471.9,747.1,471.9,747.1z"/>
	<path opacity="0.25" d="M415.7,739c0,0-23.6-19.7-23.2-31.3c0.3-11.6,5.5-15.8,5.5-15.8s-11,3.2-11.9,13.2c-1,10,5.3,21.5,13.6,30
		c9,9.1,17,17.9,17,17.9l0.5-12.7L415.7,739z"/>
	<path opacity="0.25" d="M242.9,660.5c0,0,7.4-14.2,16.8-13.6c9.4,0.6,27.4,17.4,27.1,30.7c-0.3,13.2-6.1,16.8-11,17.4
		c-4.8,0.6-10.7-1-10.7-1L242.9,660.5z"/>
	<polygon opacity="0.75" points="259.1,705.1 275.9,695.1 266.8,690.2 251.7,696 	"/>
	<path opacity="0.25" d="M228.6,566.4c0,0,12.6,8.6,14.2,8.6c1.6,0,16.9-7.5,14-24.9c-2.9-17.4-7.1-22.5-16.3-27.9
		c-9.2-5.4-14-4.7-14-4.7L228.6,566.4z"/>
	<path opacity="0.25" d="M372,387.1c0,0-9.9,20.4-12.4,32.3c-3.5,17,3,24.4,3,24.4s11.8,3.6,20.5-7c8.8-10.6,17.6-23.6,19.4-29.9
		c1.8-6.2,7-24.2,8.3-27.2c1.3-3,2.2-6.8,2.2-6.8l-3.6-0.2"/>
	<path opacity="0.25" d="M542,468.4c0,0-10,0.9-16.3,3.6c-4,1.7-13.1,6.9-23.7,14.7c-12.3,9-26.7,15.9-26.7,15.9s-13.1,3.9-20.2,2
		c-7.1-1.8-22.8-11.8-20-27.7c2.9-15.9,19.4-28.6,34.7-37.7c15.3-9.2,49.3-16,49.3-16s10.4,13,14.7,23.4
		C540.5,463.1,542,468.4,542,468.4z"/>
	<g>
		<path opacity="5.000000e-02" fill="#AEB1AF" d="M327.6,593.3c3.8-0.6,15.6,2.7,16.6,12.9c1,10.2-9,14-11.9,14
			c-2.9,0-13.2-3.5-14.3-13.6C316.6,594.6,327.6,593.3,327.6,593.3z"/>
		<g>
			<g opacity="0.15">
				<g>
					<g>
						<g>
							<g>
								<polygon fill="#FFFFFF" points="327.6,592.9 327.5,592.9 327.4,593 								"/>
								<path fill="#FFFFFF" d="M326.9,593.2C326.9,593.2,326.9,593.2,326.9,593.2l0.4-0.2C327.1,592.9,327,593.2,326.9,593.2z"/>
								<path fill="#FFFFFF" d="M326.8,593.2c-0.2,0-0.2,0.1-0.2,0.1C326.6,593.2,326.8,593.3,326.8,593.2z"/>
								<path fill="#FFFFFF" d="M317.7,602.5C317.7,602.4,317.7,602.4,317.7,602.5C317.7,602.4,317.7,602.4,317.7,602.5z"/>
								<path fill="#FFFFFF" d="M317.9,606L317.9,606c-0.1-0.6,0-1.4,0-2l0,0c0-0.4,0.1-0.9,0.1-1.3c0.1-0.4,0.2-0.8,0.2-1.2
									c0.1-0.4,0.2-0.8,0.3-1.2c0.1-0.4,0.3-0.8,0.5-1.2c0,0,0,0,0,0.1c0-0.1,0-0.2,0.1-0.3c0,0,0,0,0,0.1
									c0.1-0.1,0.3-0.4,0.4-0.6c0.1-0.2,0.3-0.4,0.4-0.5c0.1-0.1,0-0.2,0-0.1c0.8-1.1,1.9-2.2,3.1-2.9c0.1,0,0.1,0,0.1,0
									c1-0.8,2.2-1.2,3.4-1.5c0-0.1-0.1,0,0-0.1c-0.4,0-0.7,0.3-1,0.4l0-0.1c-0.3,0.1,0,0.1-0.3,0.2c-0.1,0,0-0.1,0-0.1
									c-0.5,0.2-1.1,0.4-1.5,0.8c-0.2,0-0.5,0.3-0.8,0.3c-0.1,0.1-0.2,0.2-0.2,0.3c-1.7,1-3.1,2.6-3.9,4.5c-0.1,0.5-0.3,1-0.5,1.4
									c-0.2,0.5-0.3,1.1-0.4,1.6c0,0,0,0,0,0c0,0.4,0,0.9-0.1,1.3l0.1,0.4c-0.3,2.5,0.3,5.3,1.4,7.6c1.4,2.6,3.2,4.8,5.8,6.1
									c0,0,0,0-0.1,0c0.4,0.2,0.7,0.4,1,0.6c0.3,0.2,0.7,0.4,1.1,0.5l0,0c0.9,0.4,1.9,0.7,2.8,1c1,0.3,2,0.5,2.9,0.3
									c2.3-0.3,4.7-1.5,6.6-2.9l0,0c1.5-1.2,2.9-2.5,3.7-4.3c1-1.8,1.1-3.9,1.1-5.9c0-0.3,0.1-0.6,0-1c-0.1-0.3-0.2-0.7-0.2-1
									c-0.1-0.7-0.4-1.3-0.5-1.9c-0.5-2.4-2.1-4.3-4-5.7c-1.6-1.5-3.7-2.3-5.6-3.2c-1-0.2-2-0.8-3.1-1l0,0.1
									c-0.4-0.2-0.9,0.1-1.1-0.2l0,0c-0.2-0.1-0.5,0.2-0.6,0.1l0,0.1c-0.3,0,0-0.1-0.2-0.1c-0.1,0,0,0.1-0.2,0.1
									c0-0.3-0.6,0.1-0.7-0.2c0.1,0-0.2-0.1,0.1-0.2c-0.1,0-0.5,0-0.5,0.1c0,0.1-0.2,0.2,0.1,0.3l0-0.1c0.1,0.1,0.1,0,0.1,0.1
									c0.3,0,0.4,0.1,0.6,0.1c0,0,0,0,0,0c0.1-0.1,0.4,0,0.5,0l0,0c0.1,0.1,0.4-0.2,0.3,0c0.3,0,0.7,0,1.1,0.1
									c0.4,0.1,0.8,0.1,1.1,0.2c0.1,0,0.6,0.2,0.4,0c0.2,0.2,0.7,0.4,0.9,0.4c0,0,0,0-0.1,0c0.3,0.3,0.5,0,0.8,0.3
									c0.1-0.1,0.6,0.3,0.9,0.2c0,0.1,0,0.1,0,0.1c0.3,0.1,0.6,0.3,1,0.4c0.3,0.2,0.6,0.3,0.8,0.5c0.5,0.1,1,0.7,1.5,0.7
									c0.3,0.2,0.7,0.6,1.1,0.9l-0.1,0c0.5,0.3,0.9,0.8,1.3,1c0,0.2,0.2,0.4,0.3,0.6c0.3,0.2,0.8,0.8,1.2,1.2
									c0,0.1,0.3,0.4,0.2,0.5c0.6,0.6,1,1.4,1.3,2.2c0.1,0.4,0.2,0.9,0.4,1.3c0.1,0.4,0.1,0.9,0.1,1.3l0,0
									c0.1,0.2,0.3,0.4,0.4,0.7c0,0,0,0,0,0c0,0.3-0.1,0.6,0,0.9c0,0,0,0,0-0.1c0.1,0.3-0.1,0.6,0,1l0,0c0,0,0,0.2,0,0.2
									c0,0-0.1,0-0.1-0.1c-0.2,2.6-1,5.4-2.9,7.4l0-0.1l-0.3,0.4c0,0,0,0,0-0.1c-0.2,0.2-0.5,0.5-0.8,0.7
									c-0.2,0.2-0.5,0.5-0.8,0.7c0,0,0-0.1,0-0.1c-0.3,0.4-0.7,0.4-0.8,0.7c0,0-0.1,0,0-0.1c-1.1,0.8-2.4,1.4-3.7,1.8
									c-0.5,0.3-1.1,0.4-1.7,0.5c-0.6,0.1-1.2,0-1.8,0l0,0c-1.6-0.1-3.1-0.9-4.5-1.6c-0.6-0.3-1-0.5-1.6-0.9l0-0.1
									c-1.1-0.4-1.8-1.5-2.8-2.2l0.1,0c-0.2-0.1-0.5-0.6-0.5-0.4l-0.1-0.2c-0.4-0.2-0.6-0.5-0.8-0.9c-0.2-0.3-0.4-0.7-0.7-1.1
									l0.1,0c-0.2-0.2-0.3-0.5-0.4-0.6c0,0,0,0,0.1,0.1c-0.1-0.4-0.4-0.8-0.5-1.2c-0.2-0.4-0.5-0.8-0.6-1.2l0.1,0.1
									c-0.2-0.4-0.4-1.1-0.5-1.7l0,0l-0.1-0.3l0.1,0C318.2,607.3,317.9,606.7,317.9,606z"/>
								<path fill="#FFFFFF" d="M319.2,598.9L319.2,598.9C319.1,599,319.2,598.9,319.2,598.9z"/>
								<path fill="#FFFFFF" d="M328.6,593.6C328.5,593.6,328.5,593.6,328.6,593.6C328.5,593.6,328.5,593.6,328.6,593.6z"/>
							</g>
						</g>
					</g>
				</g>
			</g>
			<path d="M334.9,596.5c0,0-0.6,6.1,2.2,9.6c2.8,3.4,6.1,5.2,6.1,5.2s1.4-7.9-1.7-11.1C338.4,596.9,334.9,596.5,334.9,596.5z"/>
			<path opacity="0.35" d="M334,596c0,0-0.4,7.8,2.3,11c2.7,3.2,6.2,5.1,6.2,5.1s-2.5,5.1-5.8,5c-3.3-0.1-11.5-5.1-10.9-12.3
				C326.4,597.5,334,596,334,596z"/>
			<path opacity="0.15" d="M327,609.8c0,0-8.1-0.8-8.2-6.1c-0.1-5.4,4.4-10.2,7.8-10.5c3.3-0.3,9.4,2.5,9.4,2.5s-6.5,0.2-8.4,5.3
				C325.6,605.9,327,609.8,327,609.8z"/>
			<path opacity="0.25" fill="#FFFFFF" d="M325.3,618.2c0,0,1,1.9,2.7,2.4c1.7,0.4,4.2-0.3,4.2-0.3s-2-0.3-3.4-0.9
				C327.4,618.8,325.3,618.2,325.3,618.2z"/>
			<path opacity="0.25" fill="#FFFFFF" d="M343.2,612.7c0,0,1.8-2.3,1.8-3.2c0-1-1.3-5.2-1.3-5.2s0.3,2.3,0.1,4.3
				C343.6,610.7,343.2,612.7,343.2,612.7z"/>
		</g>
	</g>
	<g>
		<path opacity="5.000000e-02" fill="#AEB1AF" d="M327.6,539.5c3.8-0.6,15.6,2.7,16.6,12.9c1,10.2-9,14-11.9,14
			c-2.9,0-13.2-3.5-14.3-13.6C316.6,540.8,327.6,539.5,327.6,539.5z"/>
		<g>
			<g opacity="0.15">
				<g>
					<g>
						<g>
							<g>
								<polygon fill="#FFFFFF" points="327.5,539.1 327.5,539.1 327.4,539.1 								"/>
								<path fill="#FFFFFF" d="M326.9,539.4C326.9,539.4,326.9,539.4,326.9,539.4l0.4-0.2C327.1,539,327,539.4,326.9,539.4z"/>
								<path fill="#FFFFFF" d="M326.8,539.4c-0.2,0-0.2,0.1-0.2,0.1C326.6,539.4,326.8,539.4,326.8,539.4z"/>
								<path fill="#FFFFFF" d="M317.7,548.6C317.7,548.6,317.7,548.6,317.7,548.6C317.7,548.6,317.7,548.6,317.7,548.6z"/>
								<path fill="#FFFFFF" d="M317.9,552.2L317.9,552.2c-0.1-0.6,0-1.4,0-2l0,0c0-0.4,0.1-0.9,0.1-1.3c0.1-0.4,0.2-0.8,0.2-1.2
									c0.1-0.4,0.2-0.8,0.3-1.2c0.1-0.4,0.3-0.8,0.5-1.2c0,0,0,0,0,0.1c0-0.1,0-0.2,0.1-0.3c0,0,0,0,0,0.1
									c0.1-0.1,0.3-0.4,0.4-0.6c0.1-0.2,0.3-0.4,0.4-0.5c0.1-0.1,0-0.2,0-0.1c0.8-1.1,1.9-2.2,3.1-2.9c0.1,0,0.1,0,0.1,0
									c1-0.8,2.2-1.2,3.4-1.5c0-0.1-0.1,0,0-0.1c-0.4,0-0.7,0.3-1,0.4l0-0.1c-0.3,0.1,0,0.1-0.3,0.2c-0.1,0,0-0.1,0-0.1
									c-0.5,0.2-1.1,0.4-1.5,0.8c-0.2,0-0.5,0.3-0.8,0.3c-0.1,0.1-0.2,0.2-0.2,0.3c-1.7,1-3.1,2.6-3.9,4.5c-0.1,0.5-0.3,1-0.5,1.4
									c-0.2,0.5-0.3,1.1-0.4,1.6c0,0,0,0,0,0c0,0.4,0,0.9-0.1,1.3l0.1,0.4c-0.3,2.5,0.3,5.3,1.4,7.6c1.4,2.6,3.2,4.8,5.8,6.1
									c0,0,0,0-0.1,0c0.4,0.2,0.7,0.4,1,0.6c0.3,0.2,0.7,0.4,1.1,0.5l0,0c0.9,0.4,1.9,0.7,2.8,1c1,0.3,2,0.5,2.9,0.3
									c2.3-0.3,4.7-1.5,6.6-2.9l0,0c1.5-1.2,2.9-2.5,3.7-4.3c1-1.8,1.1-3.9,1.1-5.9c0-0.3,0.1-0.6,0-1c-0.1-0.3-0.2-0.7-0.2-1
									c-0.1-0.7-0.4-1.3-0.5-1.9c-0.5-2.4-2.1-4.3-4-5.7c-1.6-1.5-3.7-2.3-5.6-3.2c-1-0.2-2-0.8-3.1-1l0,0.1
									c-0.4-0.2-0.9,0.1-1.1-0.2l0,0c-0.2-0.1-0.5,0.2-0.6,0.1l0,0.1c-0.3,0,0-0.1-0.2-0.1c-0.1,0,0,0.1-0.2,0.1
									c0-0.3-0.6,0.1-0.7-0.2c0.1,0-0.2-0.1,0.1-0.2c-0.1,0-0.5,0-0.5,0.1c0,0.1-0.2,0.2,0.1,0.3l0-0.1c0.1,0.1,0.1,0,0.1,0.1
									c0.3,0,0.4,0.1,0.6,0.1c0,0,0,0,0,0c0.1-0.1,0.4,0,0.5,0l0,0c0.1,0.1,0.4-0.2,0.3,0c0.3,0,0.7,0,1.1,0.1
									c0.4,0.1,0.8,0.1,1.1,0.2c0.1,0,0.6,0.2,0.4,0c0.2,0.2,0.7,0.4,0.9,0.4c0,0,0,0-0.1,0c0.3,0.3,0.5,0,0.8,0.3
									c0.1-0.1,0.6,0.3,0.9,0.2c0,0.1,0,0.1,0,0.1c0.3,0.1,0.6,0.3,1,0.4c0.3,0.2,0.6,0.3,0.8,0.5c0.5,0.1,1,0.7,1.5,0.7
									c0.3,0.2,0.7,0.6,1.1,0.9l-0.1,0c0.5,0.3,0.9,0.8,1.3,1c0,0.2,0.2,0.4,0.3,0.6c0.3,0.2,0.8,0.8,1.2,1.2
									c0,0.1,0.3,0.4,0.2,0.5c0.6,0.6,1,1.4,1.3,2.2c0.1,0.4,0.2,0.9,0.4,1.3c0.1,0.4,0.1,0.9,0.1,1.3l0,0
									c0.1,0.2,0.3,0.4,0.4,0.7c0,0,0,0,0,0c0,0.3-0.1,0.6,0,0.9c0,0,0,0,0-0.1c0.1,0.3-0.1,0.6,0,1l0,0c0,0,0,0.2,0,0.2
									c0,0-0.1,0-0.1-0.1c-0.2,2.6-1,5.4-2.9,7.4l0-0.1l-0.3,0.4c0,0,0,0,0-0.1c-0.2,0.2-0.5,0.5-0.8,0.7
									c-0.2,0.2-0.5,0.5-0.8,0.7c0,0,0-0.1,0-0.1c-0.3,0.4-0.7,0.4-0.8,0.7c0,0-0.1,0,0-0.1c-1.1,0.8-2.4,1.4-3.7,1.8
									c-0.5,0.3-1.1,0.4-1.7,0.5c-0.6,0.1-1.2,0-1.8,0l0,0c-1.6-0.1-3.1-0.9-4.5-1.6c-0.6-0.3-1-0.5-1.6-0.9l0-0.1
									c-1.1-0.4-1.8-1.5-2.8-2.2l0.1,0c-0.2-0.1-0.5-0.6-0.5-0.4l-0.1-0.2c-0.4-0.2-0.6-0.5-0.8-0.9c-0.2-0.3-0.4-0.7-0.7-1.1
									l0.1,0c-0.2-0.2-0.3-0.5-0.4-0.6c0,0,0,0,0.1,0.1c-0.1-0.4-0.4-0.8-0.5-1.2c-0.2-0.4-0.5-0.8-0.6-1.2l0.1,0.1
									c-0.2-0.4-0.4-1.1-0.5-1.7l0,0l-0.1-0.3l0.1,0C318.2,553.5,317.9,552.9,317.9,552.2z"/>
								<path fill="#FFFFFF" d="M319.2,545.1L319.2,545.1C319.1,545.1,319.2,545.1,319.2,545.1z"/>
								<path fill="#FFFFFF" d="M328.6,539.8C328.5,539.8,328.5,539.8,328.6,539.8C328.5,539.8,328.5,539.8,328.6,539.8z"/>
							</g>
						</g>
					</g>
				</g>
			</g>
			<path d="M334.9,542.6c0,0-0.6,6.1,2.2,9.6c2.8,3.4,6.1,5.2,6.1,5.2s1.4-7.9-1.7-11.1C338.4,543.1,334.9,542.6,334.9,542.6z"/>
			<path opacity="0.35" d="M334,542.2c0,0-0.4,7.7,2.3,11c2.7,3.2,6.2,5.1,6.2,5.1s-2.5,5.1-5.8,5c-3.3-0.1-11.5-5.1-10.9-12.3
				C326.4,543.7,334,542.2,334,542.2z"/>
			<path opacity="0.15" d="M327,556c0,0-8.1-0.8-8.2-6.1c-0.1-5.4,4.4-10.2,7.8-10.5c3.3-0.3,9.4,2.5,9.4,2.5s-6.5,0.2-8.4,5.3
				C325.6,552.1,327,556,327,556z"/>
			<path opacity="0.25" fill="#FFFFFF" d="M325.3,564.4c0,0,1,1.9,2.7,2.4c1.7,0.4,4.2-0.3,4.2-0.3s-2-0.3-3.4-0.9
				C327.4,565,325.3,564.4,325.3,564.4z"/>
			<path opacity="0.25" fill="#FFFFFF" d="M343.2,558.9c0,0,1.8-2.3,1.8-3.2c0-1-1.3-5.2-1.3-5.2s0.3,2.3,0.1,4.3
				C343.6,556.8,343.2,558.9,343.2,558.9z"/>
		</g>
	</g>
	<g opacity="0.5">
		<path fill="#AFB1AF" d="M179.2,503.8c0,0-51.8,12.2-53,13.4c-1.2,1.2,1,3.2,37.8,5.1c36.8,2,78.5,1.2,78.5,1.2l-2-1.4
			c0,0-32.7,0.2-44.3,0c-11.6-0.2-70.6-2.8-65.6-5C135,515.3,179.2,503.8,179.2,503.8z"/>
	</g>
	<path stroke="#AFB1AF" d="M487.4,875c0,0,5.7-1.9,7.8-2.6c2.1-0.6,12.6-3,15.6-2.9c3,0.1,6.8,0.7,8.4,1c1.6,0.3,5.7-0.4,5.7-0.4
		v-2.9l-9.7-5.4c0,0,3.4-0.1,4.3-0.5c0.9-0.4,2.1-1,2.7-0.9c0.6,0.1,3.4,1.6,3.8,2.7c0.4,1.2,1.9,4.5,1.2,6.1
		c-1,1.9-4.4,5.6-6.5,6.9c-2.1,1.3-10.7,2.9-15.8,3.3c-5.1,0.4-9.3,0.1-11.2-0.6C489.4,877.2,487.4,875,487.4,875z"/>
	<g>
		<g>
			<g>
				<path fill="#FFFFFF" d="M369,756.6C369,756.6,369,756.6,369,756.6l-28.7,0c-8.8,0-15.9-7-15.9-15.6c0-4.1,1.6-8,4.6-10.9
					c3-3,7.1-4.7,11.4-4.7c0,0,0,0,0,0l28.7,0c8.8,0,15.9,7,15.9,15.6C385,749.6,377.8,756.6,369,756.6z M340.3,727.6
					c-3.7,0-7.1,1.4-9.7,4c-2.5,2.5-3.9,5.8-3.9,9.3c0,7.3,6.1,13.3,13.6,13.3l28.7,0c0,0,0,0,0,0c7.5,0,13.6-6,13.6-13.3
					c0-7.3-6.1-13.3-13.6-13.3L340.3,727.6C340.4,727.6,340.3,727.6,340.3,727.6z"/>
			</g>
		</g>
		<polygon fill="#FFFFFF" points="363.1,739.5 372.5,730.3 363.1,730.3 		"/>
		<polygon fill="#FFFFFF" points="363.1,742.3 372.4,751.4 363.1,751.4 		"/>
		<rect x="353.3" y="730.3" fill="#FFFFFF" width="7.8" height="21.1"/>
		<path fill="#FFFFFF" d="M330.1,740.9c0-5.6,4.4-10.2,10.1-10.5l0,21.1C334.6,751,330.1,746.4,330.1,740.9L330.1,740.9z
			 M351.3,739.5l-9.4-9.2l9.4,0L351.3,739.5z M351.3,742.3l-9.4,9.2l9.4,0L351.3,742.3z"/>
	</g>
	<g>
	</g>
</g>
</svg>
