<?xml version="1.0" encoding="utf-8"?>
<!-- Generator: Adobe Illustrator 27.1.1, SVG Export Plug-In . SVG Version: 6.00 Build 0)  -->
<svg version="1.1" xmlns="http://www.w3.org/2000/svg" xmlns:xlink="http://www.w3.org/1999/xlink" x="0px" y="0px"
	 viewBox="0 0 625 1016.3" enable-background="new 0 0 769.5 1016.3" xml:space="preserve">
<g id="PADS">
	<g>
		<g>
			<path fill="#897F76" d="M352.7,339.9c0,0-41.6-17.7-74.5-15.5c-32.9,2.2-72.8,16.8-97,40c-24.1,23.3-42.5,58.1-42.5,101.6
				s22.1,123.1,41.6,149.4c19.6,26.3,48.7,37.5,68.7,44.4c20,6.9,36.6,4.3,36.6,4.3l5-153.3l38.7-129.6l27.9-33.6L352.7,339.9z"/>
			<g>
				<g>
					<g>
						<g>
							<polygon fill="#625A57" points="352.3,340.4 352.5,340.8 353.1,341.7 							"/>
							<path fill="#625A57" d="M356.1,346.5c-0.1-0.2,0-0.1-0.1-0.3l-2.4-3.5C354.4,344.5,355.6,345.4,356.1,346.5z"/>
							<path fill="#625A57" d="M356.7,347.6c0.1,0.1,0.1,0.2,0.2,0.3l0-0.6c-0.9,1.1-1.2,1.6-1.4,1.9c0.2-0.4,1.1-1.4,1.5-1.9l0,0.5
								C356.8,347.6,356.7,347.5,356.7,347.6z"/>
							<path fill="#625A57" d="M299.3,480.6c0-0.2,0.1-0.4,0.1-0.5C299.4,480.3,299.4,480.5,299.3,480.6z"/>
							<path fill="#625A57" d="M290.6,517.9l0.1,0.4c0-2.4,0.1-4.9,0.2-7.4l0,0c1.5-4.9,3-9.9,4.4-14.8l-0.1,0.5
								c5.6-18.5,10.5-35.6,15.9-54c-0.1,0.3-0.1,0.4-0.1,0.7c0.2-0.9,0.5-1.9,0.8-2.9c0.1-0.3,0,0.3-0.1,0.6
								c1.3-3.8,3.3-11.4,4.1-13.8c0.3-1.1,0.4-1.6,0.1-1c4.2-14.4,8.8-29.8,13-44.4c0.1-0.3,0.2-0.5,0.2-0.6l0.1-0.1
								c0.1-0.1,0.1,0,0.1,0l-0.1,0.1c0,0,0,0,0,0l0,0l0,0l0-0.1c8.1-10.2,16.9-20.7,25.5-30.9c0.3-0.4-0.9,1-0.2-0.1
								c-2.8,3.2-4.9,6.2-7.5,9.1l0.3-0.4c-1.8,2.1-0.2,0.6-2.2,2.8c-0.8,0.9,0.1-0.3-0.2,0.1c-3.8,4.7-7.9,9.4-11.4,13.9
								c-0.8,0.8-3,3.5-4.6,5.3l-0.1,0.1l0,0.1c-0.2,0.6-0.4,1.2-0.5,1.6c-0.4,1.5-0.8,3-0.9,3.6c-6.1,20.2-12.1,40.8-18.3,61.5
								c-2.6,9.8-6.4,21.3-9.7,32.8c0,0.1,0,0.1,0,0c-1,3.8-2.6,9.2-4,13.7l-1,3.8c-1.3,4.2-2.6,8.4-3.9,12.7l0,0l0,0
								c-0.8,23.7-1.6,47.9-2.4,71.9c-1,28.6-2,54-2.7,81.3l0.3-0.4c-3.5,0.5-7.2,0.6-10.9,0.5c0,0-0.2,0,0.6,0
								c-4.5-0.1-8.9-0.6-13.1-1.3c-4.2-0.8-8.3-1.8-12.3-3.1l0,0c-10.1-3.3-20.5-7.3-30.2-12.3c-4.9-2.5-9.6-5.3-14-8.3
								c-1.1-0.8-2.2-1.5-3.3-2.3c-1.1-0.8-2.1-1.6-3.2-2.4c-1-0.8-2.1-1.6-3.1-2.4c-1-0.8-2-1.7-2.9-2.5c-4.6-4.2-9-9-12.9-14.2
								c-1.8-2.7-3.8-5.4-5.3-8.4c-0.8-1.5-1.7-2.9-2.4-4.4c-0.7-1.5-1.5-3-2.2-4.5c-5.8-12.2-10.4-25.1-14.4-37.7l0.1,0
								c-3.2-10.1-5.9-20.1-8.2-30.3c-1.2-5-2.2-10.2-3.3-15.2c-0.9-5.1-2-10.3-2.7-15.5c-1.6-10.7-3-21.8-3.1-33
								c-0.1-11.2,1.1-22.4,3.6-33c0.4-1.6,0.9-3.3,1.3-5.1c0.5-1.7,1-3.5,1.6-5.3c0.5-1.8,1.2-3.6,1.8-5.4c0.3-0.9,0.6-1.8,0.9-2.7
								c0.3-0.9,0.7-1.8,1.1-2.7c0.7-1.8,1.4-3.6,2.2-5.3c0.8-1.7,1.6-3.4,2.4-5.1c1.7-3.2,3.3-6.4,5.1-9c1.7-2.8,3.6-5.4,5.4-8.1
								c0.9-1.3,2-2.6,2.9-3.9c0.5-0.6,1-1.3,1.5-1.9l1.5-1.9c4.1-5,8.5-9.7,13.2-14l1.8-1.6l0.9-0.8l0.9-0.8l3.7-3
								c1.3-1,2.6-1.9,3.9-2.9c0.7-0.5,1.3-1,2-1.4l2-1.3c5.3-3.6,11-6.8,16.9-9.7l4.1-1.9c1.4-0.6,2.8-1.2,4.2-1.8
								c2.8-1.2,5.6-2.2,8.4-3.3c5.7-2,11.4-3.9,17.2-5.3c11.6-3,23.4-4.8,35.1-4.8c11.1-0.1,23.2,2.2,35.1,5.2l-0.4-0.2
								c4.2,1.2,9.6,2.2,12.1,3.3l-0.5-0.1c2.2,0.8,5.3,1.2,6.6,1.8l0.4,0c2.7,0.9,0.3,0.2,2.3,0.9c0.8,0.3,0.3-0.1,2,0.5
								c0.1,0.2,1.8,0.8,3.4,1.4c1.6,0.6,3.2,1.2,3.2,1.4c-1.4-0.6,2.2,1-1.1-0.1c0.5,0.2,1.8,0.7,3,1.1c0.6,0.2,1.1,0.4,1.5,0.6
								c0.3,0.1,0.5,0.1,0.4,0.1c0.2,0.1,0.7,0.4,0.9,0.4c0.1,0,0.1,0-0.1-0.2c-0.2-0.2-0.4-0.6-1.1-0.9l-0.6-0.1
								c-0.9-0.5-0.7-0.3-0.9-0.6c-3.5-1.4-3.9-1.7-6.4-2.7c0,0,0,0,0,0c-1.8-0.5-4.2-1.4-5.6-1.9l-0.5-0.3c-0.8-0.4-4.2-1-3-0.9
								c-7.3-2.3-15.8-4.6-24.2-6.3c-1.2-0.2-6.5-1.2-4.6-0.7c-0.5-0.1-1.3-0.3-2.2-0.5c-0.9-0.2-2-0.3-3.1-0.5
								c-1.1-0.2-2.1-0.3-3.1-0.5c-1-0.1-1.8-0.2-2.4-0.2c0.1,0,0.2,0,0.6,0c-2.3-0.4-3.7-0.4-5-0.5c-1.3,0-2.6,0-4.8-0.2
								c-0.2,0.1-0.7,0.1-1.6,0c-0.8,0-1.8,0-2.9,0.1c-1.1,0-2.2,0.1-3.3,0.1c-1,0.1-1.9,0.2-2.5,0.3c-0.5,0-0.7,0-0.5-0.1
								c-7.8,0.6-16.2,2-22.7,3.5c-5.4,1.5-13.2,3.3-17.7,5.3c-3.8,1.2-9.9,3.4-15,5.7l0.5-0.2c-5.7,2.6-12.8,6.1-16.4,8.6
								c-0.9,0.3-1.9,0.9-3,1.5c-1.1,0.7-2.2,1.4-3.4,2.1c-1.8,1.1-4.3,3.1-7.1,5.1c-2.7,2.2-5.6,4.5-7.9,6.8
								c-0.4,0.3-1.4,1.2-2.3,2c-0.9,0.9-1.7,1.7-1.9,1.8c-6.2,6.5-12.6,14.3-18.1,22.9c-5.6,8.6-10.2,17.9-13.6,26.9l0.1-0.3
								c-0.7,2.4-1.5,5.2-2.1,7.6c-0.1,0.2-0.1,0.2,0-0.3c-0.5,1.7-1,3.3-1.5,4.9c-0.4,1.6-0.9,3.3-1.3,5c0,0,0,0,0.1-0.6
								c-0.2,0.8-0.4,1.6-0.6,2.4c-0.2,0.8-0.4,1.7-0.5,2.5c-0.4,1.7-0.7,3.5-1,5.5l-0.1,0.2l-0.3,2.5c-0.1-0.1-0.1-0.2,0.1-1.5
								c-0.3,1.9-0.5,3.7-0.8,5.6c-0.2,1.9-0.3,3.8-0.5,5.7l-0.2,2.8l-0.1,2.9c0,1.9-0.1,3.8-0.1,5.7c0.1,1.9,0.1,3.8,0.2,5.7
								c0,1,0,1.9,0.1,2.9l0.2,2.9c0.2,1.9,0.3,3.8,0.5,5.7c0.2,1.9,0.5,3.8,0.7,5.7c1.9,15.3,5,30.4,8.7,45.4l-0.3-1.1
								c0.5,1.9,1,3.9,1.6,5.8c0,0-0.1-0.3-0.2-0.6c1.8,7.4,4.1,15,6.3,22.1c0,0-0.4-1.1-0.2-0.1c0.9,2.6,1.5,4.7,2.1,6.5
								c0.5,1.8,1.1,3.2,1.7,4.5c0.1,0.2,0,0.4-0.2-0.1c0.6,1.8,1.3,3.6,1.9,5.4c0.7,1.8,1.4,3.6,2.1,5.4c0.7,1.8,1.4,3.6,2.1,5.4
								l2.3,5.3c0.4,0.9,0.8,1.8,1.2,2.7l1.3,2.6c0.9,1.7,1.7,3.5,2.6,5.2c0.9,1.7,1.9,3.4,2.8,5.1c0.4,0.9,1,1.7,1.5,2.5l1.6,2.4
								c3.8,5.2,8.3,10.3,13.3,15c5,4.7,10.6,8.9,16.3,12.4l-0.1,0c7.3,4.6,15.3,8.6,23.5,12.1c4.1,1.7,8.3,3.4,12.6,4.9
								c4.2,1.5,8.5,3,12.9,4c3.6,0.9,6.7,1.3,9.8,1.7c3.1,0.4,6.2,0.6,9.9,0.6l0.2,0.1c2.8-0.1,5.6-0.2,8.4-0.6l0,0l0,0
								c0.3-10.1,1-20.8,1-31l0.1,0.9c-0.1-2,0.3-7.9,0-7.2l0.2-2.3c-0.1-8.9,0.7-16.2,0.8-27.1l0,0.7c0-2.9,0.1-6.3,0.2-8.4
								c0,0.3,0,0.2,0,0.9c0.6-9.1,0.6-19.2,0.9-28.7l0.1,1.1c0-4.6,0.4-13.1,0.5-19.2l0,0.4l0-3.1l0.1-0.1
								C290.1,533.1,290.3,525.6,290.6,517.9z"/>
							<path fill="#625A57" d="M311.5,441C311.5,441.1,311.5,441.1,311.5,441C311.4,441.3,311.4,441.2,311.5,441z"/>
							<path fill="#625A57" d="M343.3,335.8c0.3,0.1,0.6,0.2,0.9,0.4C344.2,336.1,343.6,335.9,343.3,335.8z"/>
						</g>
					</g>
				</g>
			</g>
		</g>
		<g>
			<path fill="#897F76" d="M411.8,335.2c0,0,13.3-3.1,35.4,0.9c26.6,4.7,85.7,43.9,104.9,81.4c19.1,37.5,29.6,74.9,25.8,133.5
				c-3.7,58.6-22.5,110.2-55.4,145.1c-32.9,34.9-80.8,68-137.4,63.3c-56.6-4.7-80.3-43.5-82-46.1c-1.7-2.6-26.2-43.5-38.7-102
				c-12.5-58.6-20.4-97.3-11.2-146.8c9.2-49.5,29.5-79.1,72.4-109.4C364.8,327.5,411.8,335.2,411.8,335.2z"/>
			<g>
				<g>
					<g>
						<g>
							<path fill="#625A57" d="M411.8,334.5C411.8,334.5,411.8,334.5,411.8,334.5l-0.2-0.1l-0.3-0.1l-1.5-0.1l1,0.1l0.5,0.1l0.3,0
								L411.8,334.5C411.8,334.5,411.8,334.5,411.8,334.5z"/>
							<path fill="#625A57" d="M402.2,333.9c0.3,0,0.1,0.1,0.4,0.1c1.9,0,3.8,0,5.7,0.1C405.8,333.7,403.9,334.1,402.2,333.9z"/>
							<path fill="#625A57" d="M400.5,333.8c-2.2-0.1-3.1,0-3.7,0C397.6,333.7,401,334,400.5,333.8z"/>
							<path fill="#625A57" d="M257.3,445.2c0.1-0.2,0.1-0.5,0.2-0.7C257.3,444.8,257.3,445.1,257.3,445.2z"/>
							<path fill="#625A57" d="M249.7,495.3l0.1,0.5c0.3-9.5,1.6-20.1,3.3-30l-0.1,0.7c2.2-12.5,5.2-24.4,9.4-35.8
								c4.3-11.4,9.9-22.3,17.3-32.6c-0.2,0.3-0.3,0.4-0.5,0.8c0.7-1,1.4-2.2,2.2-3.3c0.2-0.3-0.2,0.3-0.4,0.7c0.8-1,1.9-2.3,3-3.7
								c1.1-1.4,2.2-2.9,3.5-4.3c2.4-2.8,4.6-5.3,5.9-6.4c1-1.1,1.4-1.6,0.8-1.1c6.9-7.1,14.7-13.8,22.8-20c2-1.6,4.1-3.1,6.2-4.6
								c2.1-1.5,4.2-3,6.3-4.4c4.3-2.8,8.8-5.2,13.4-7.3c0.9-0.4,1.1-0.4,0.9-0.2c15.7-7.3,33.9-10.6,51.5-10.7
								c0.7-0.1-1.8-0.1-0.1-0.2c-5.7,0-10.4,0.5-15.5,1l0.6-0.2c-3.7,0.4-0.7,0.3-4.6,0.7c-1.5,0.2,0.4-0.2-0.3-0.1
								c-7.9,1.2-16,3.1-23,5.8c-0.9,0.2-2.9,1-5,1.8c-1.1,0.4-2.1,0.9-3.1,1.3c-1,0.4-1.9,0.8-2.6,1.1c-1.9,0.9-3.7,1.9-4.3,2.3
								c-1.6,0.8-3.1,1.7-4.6,2.5c-1.5,0.9-3,1.8-4.5,2.8c-2.9,1.9-5.7,4-8.6,6.1l-2.1,1.6l-2.1,1.6l-4.2,3.3
								c-1.4,1.1-2.7,2.3-4.1,3.4c-1.3,1.1-2.7,2.3-4,3.4l-3.9,3.6l-2,1.8c-0.6,0.6-1.2,1.3-1.9,1.9l-3.7,3.8
								c-1.2,1.3-2.4,2.6-3.6,4c-2.4,2.6-4.6,5.5-6.8,8.2c-1.1,1.4-2.1,2.9-3.1,4.3c-1,1.5-2.1,2.9-3,4.4c-0.9,1.4-1.7,2.9-2.6,4.4
								c-0.9,1.5-1.7,3.1-2.6,4.7c-0.4,0.8-0.9,1.6-1.3,2.4c-0.4,0.8-0.8,1.7-1.2,2.5c-0.8,1.7-1.6,3.4-2.5,5.1
								c-1.4,3.5-3.1,7.1-4.3,10.8c-0.6,1.9-1.4,3.7-1.9,5.6l-1.7,5.7c0,0.1,0,0.1,0,0c-0.4,1.2-0.7,2.6-1,4.1
								c-0.4,1.5-0.7,3.1-1.1,4.7c-0.8,3.2-1.4,6.6-2,9.6c-0.3,1.7-0.5,3.4-0.7,5.2c-0.9,4.5-1.4,9.2-2,13.8
								c-0.4,4.6-0.9,9.3-1.1,13.9c-0.4,9.3-0.4,18.7,0.3,28.1c0.7,9.4,1.8,18.7,3.2,28c1.4,9.3,3.1,18.6,4.9,27.8
								c2.1,10.5,4.2,20.6,6.3,30.5c2.2,9.9,4.5,19.6,7.4,29.2c5.7,19.1,12.9,37.6,22.3,56.1c-0.1,0,0.1,0.3-0.4-0.7
								c2.7,5.4,5.3,10.5,8.1,15.4c2.8,4.9,6.2,9.4,10,13.6l0,0c9.5,10.4,21.5,19.1,34.7,25.1c13.2,6.1,27.4,9.2,40.9,10
								c16.4,1.2,34.1-0.9,51-6.5c8.5-2.7,16.7-6.3,24.6-10.4c7.9-4.1,15.4-8.8,22.5-13.8l0,0.1c11.3-8.1,21.8-17,31.5-26.6
								c4.9-4.8,9.5-9.8,13.9-15.2l3.2-4c1.1-1.3,2-2.8,3.1-4.2c1-1.4,2-2.8,3-4.2c0.9-1.5,1.9-2.9,2.8-4.4
								c7.7-12.1,14.2-25.4,19.1-39.2c5-13.9,8.7-28.2,11.5-42.3c1.9-8.7,3.1-19,4-29.1c0.2-2.5,0.4-5.1,0.5-7.6
								c0.2-2.5,0.2-5,0.4-7.4c0.3-4.8,0.3-9.4,0.5-13.6c0.1-8.6,0-17.2-0.7-25.6c-0.2-4.3-0.8-8.5-1.3-12.7
								c-0.7-4.2-1.2-8.4-2.1-12.6c-3.2-16.7-8.7-32.8-15.8-48.5c-1.7-3.6-3.3-7.2-5.1-10.8c-1.7-3.6-3.6-7.1-5.7-10.4
								c-4.3-6.6-9.3-12.8-14.6-18.5c-10.7-11.5-22.8-21.5-35.2-30.5c-6-4.1-12.4-8.3-19.2-12.3c-6.8-3.9-14-7.7-21.7-10.4l0.5,0.3
								c-2.7-1.1-5.8-2-8.7-2.6c-1.5-0.3-2.9-0.5-4.1-0.7c-1.3-0.2-2.4-0.4-3.3-0.6l0.6,0.1c-3-0.6-7.2-0.4-9-0.7l-0.5,0.1
								c-3.7-0.2-0.4-0.1-3.3-0.3c-1.1,0-0.4,0.1-2.7,0.1c-0.2-0.2-2.5-0.2-4.8-0.1c-2.3,0.1-4.5,0.3-4.6,0.1c2-0.2-3.2,0.1,1.4-0.4
								c-0.7,0-2.6,0.2-4.2,0.4c-1.7,0.2-3,0.6-2.7,0.6c-0.3,0.1-1,0.2-1.2,0.3c-0.1,0-0.1,0.1,0.2,0.1c0.1,0,0.4,0,0.7,0
								c0.2,0,0.3,0,0.5,0c0.2,0,0.4-0.1,0.6-0.1l0.7-0.3c1.3-0.1,1-0.1,1.4,0c2.5-0.3,3.9-0.3,5.1-0.4c1.2,0,2.3,0,4.1,0
								c0,0-0.1,0,0,0c2.4-0.2,5.8,0,7.7,0.1l0.8,0.1c0.6,0.1,2,0.2,3.1,0.2c1.1,0,1.8,0.1,1.1,0.1c2.5,0.2,5.1,0.5,7.7,0.9
								c2.7,0.4,5.3,0.9,8,1.7c5.3,1.6,10.6,3.8,15.6,6.2c0.7,0.3,2.7,1.3,4.1,2c1.5,0.8,2.5,1.3,1.4,0.6c2.4,1.5,9.7,5.6,12.3,7.3
								c-0.1,0-0.2-0.1-0.6-0.4c5,3.4,6.2,3.6,10.7,7c0.4,0.2,2.5,1.6,4.8,3.3c2.3,1.7,4.8,3.6,6.2,4.4c0.5,0.5,0.7,0.7,0.4,0.5
								c8.1,6.2,16.4,13.8,22.4,19.9c2.7,2.5,5.7,5.8,8.4,9.1c2.8,3.3,5.3,6.7,7.2,9.1c0.7,1.1,1.5,2.4,2.4,3.7
								c0.8,1.4,1.8,2.9,2.6,4.5c0.4,0.8,0.9,1.6,1.3,2.5c0.4,0.8,0.8,1.7,1.3,2.6c0.9,1.7,1.7,3.4,2.5,5l-0.3-0.6
								c0.9,1.9,1.8,3.9,2.7,5.9c0.9,2,1.8,4.1,2.7,6.1c0.9,2,1.6,3.9,2.4,5.7c0.7,1.8,1.4,3.3,1.9,4.6c0.3,1.2,0.7,2.6,1.2,4.2
								c0.3,0.8,0.5,1.6,0.8,2.4c0.2,0.8,0.5,1.7,0.7,2.6c1.9,5.2,4.7,16,6.4,24.2c0.1,0.6,0.4,2.3,0.7,3.9c0.3,1.6,0.5,3.1,0.4,3.3
								c2,11.6,3.1,24.8,3.2,38.2c0.1,13.4-0.8,27-2.3,39.5l0-0.4c-0.1,1.6-0.2,3.4-0.4,5.1c-0.1,0.9-0.1,1.8-0.2,2.6
								c-0.1,0.9-0.2,1.7-0.3,2.6c-0.1,0.3-0.1,0.3,0-0.4c-0.3,2.3-0.7,4.5-1.1,6.7c-0.3,2.2-0.9,4.4-1.2,6.6c0,0,0,0,0.1-0.8
								c-0.4,2.1-0.8,4.3-1.3,6.6c-0.5,2.3-1.1,4.6-1.6,7.1l-0.1,0.3c-0.2,1.1-0.4,2.1-0.7,3.2c-0.1-0.1-0.1-0.2,0.3-1.9
								c-2.4,9.6-5.2,19.1-8.6,28.5c-3.5,9.4-7.6,18.6-12.3,27.5c-4.8,8.9-10.3,17.4-16.5,25.4l-2.4,3c-0.8,1-1.5,2-2.4,2.9
								l-5.1,5.7c-3.5,3.7-7.1,7.3-10.7,10.8l1-1.1c-1.9,1.8-3.8,3.7-5.7,5.4c0-0.1,0.3-0.3,0.5-0.6c-7.5,6.7-15.5,13.3-23.5,18.9
								c0-0.1,1.2-1,0.1-0.2c-5.8,4.3-9.8,6.2-12.7,8.4c-0.3,0.2-0.5,0.2,0.1-0.2c-4.3,2.6-8.7,5-13.3,7.3c-4.6,2.2-9.2,4.2-14,6
								c-9.5,3.6-19.5,6.2-29.5,7.6c-16.6,2.8-35.8,1.7-52.7-3l0.1,0c-10.9-3-21.8-7.8-31.5-14.5c-9.8-6.6-18.5-14.9-25.4-24.5
								c-1.4-2-2.6-3.9-3.7-5.8c-1.1-1.9-2.1-3.7-3-5.4c-1.9-3.6-3.8-7.3-6-11.7l0-0.3c-3.7-7.4-7.1-15.4-10.3-23.6
								c-0.8-2-1.5-4.1-2.3-6.2l-1.2-3.1l-1.1-3.1c-0.7-2.1-1.5-4.1-2.2-6.2c-0.7-2.1-1.4-4.1-2.1-6.2l0.5,1.1c-1.1-2.5-3-10-3-8.9
								l-0.8-2.9c-3.5-11.2-5.1-20.7-8.3-34.7l0.3,0.9c-0.8-3.7-1.8-8.1-2.3-10.9c0.1,0.4,0.1,0.2,0.3,1.1
								c-2.1-11.8-5-24.8-6.9-37.2l0.4,1.4c-0.3-1.5-0.6-3.3-0.9-5.3c-0.3-2-0.6-4.2-0.9-6.5c-0.3-2.3-0.5-4.6-0.8-6.8
								c-0.3-2.3-0.4-4.5-0.6-6.4l0.1,0.5l-0.4-4l0.1-0.1C249.4,515.3,249.2,505.5,249.7,495.3z"/>
							<path fill="#625A57" d="M281,396.4C281,396.4,281,396.5,281,396.4C280.8,396.8,280.8,396.6,281,396.4z"/>
							<path fill="#625A57" d="M425.2,334.6c-0.5,0-0.9,0-1.3,0C424.1,334.6,424.8,334.6,425.2,334.6z"/>
						</g>
					</g>
				</g>
			</g>
		</g>
	</g>
</g>
  <g id="CUSTOM">
</g>
<g id="STRAPS">
	<g>
		<g>
			<path fill="#AFB1AF" d="M222,649c0,0-6.8,16.5-8.3,30.7c-1.5,15.1,1,29.9,1,29.9l-27.1-5.8c0,0-0.9-19.1,0.2-31.4
				c1.7-18.7,9.6-39.5,9.6-39.5L222,649z"/>
			<g>
				<g>
					<g>
						<g>
							<polygon fill="#B9BBB9" points="222.6,648.8 222.6,648.7 222.3,648.6 							"/>
							<path fill="#B9BBB9" d="M221.1,648C221.1,648,221.1,648,221.1,648l1,0.5C221.9,648.2,221.2,648.2,221.1,648z"/>
							<path fill="#B9BBB9" d="M220.9,647.8c-0.2-0.2-0.5-0.3-0.6-0.3C220.5,647.6,220.8,647.9,220.9,647.8z"/>
							<path fill="#B9BBB9" d="M196,635.9c0,0,0-0.1,0-0.1C196,635.8,196,635.9,196,635.9z"/>
							<path fill="#B9BBB9" d="M194,643.7l0.1,0.1c0.2-1.5,0.9-3.1,1.4-4.6l0,0.1c0.7-2.2,1.4-4.3,2.2-6.5l-0.1,0
								c1.4,0.9,2.8,1.7,4.2,2.6c-0.1,0-0.1,0-0.2,0c0.2,0.1,0.4,0.1,0.6,0.3c0,0.1-0.1,0-0.1,0c0.6,0.6,2.2,1.3,2.5,1.7
								c0.2,0.1,0.4,0.1,0.3,0c2.7,1.7,5.5,3.5,8.3,5.2c0.1,0.1,0.1,0.1,0,0.2c2.5,1.4,4.8,3,7.1,4.6c0.2,0-0.2-0.2,0.1-0.1
								c-0.7-0.5-1.6-0.9-2.1-1.4l0.2,0c-0.5-0.4-0.3,0-0.7-0.4c-0.1-0.2,0.1,0,0-0.1c-1.1-0.7-2.1-1.5-3.3-2
								c-0.1-0.2-1.1-0.8-1.4-1.1c-0.3-0.1-0.6-0.3-0.8-0.4c-3.6-2.5-7.5-4.9-11.3-7.4c-1.1-0.5-2.1-1.2-3.2-2l-0.3-0.2l-0.2,0.4
								c-0.4,1-0.9,2.1-1.2,3.2c0,0,0,0,0,0c-0.2,0.8-0.5,1.9-0.9,2.9l-0.1,0.8c-2.1,5.5-3.5,11.3-4.9,17.1
								c-1.6,6.6-2.7,12.5-2.7,19.1c0,0-0.1,0-0.1-0.1c0,1.9-0.2,3.6-0.2,5.4l0,0c0.1,4.5-0.1,9.3,0.2,13.5c0,2.9,0.1,5.9,0.3,9.1
								l0,0.1l0.1,0c2.4,0.5,4.9,1,7.4,1.5l0,0.1c4.3,0.8,8.4,2,12.8,2.8c2.2,0.6,4.6,1,6.9,1.4l0.1,0l0-0.1
								c-0.4-2.2-0.8-4.5-0.9-6.8c0-2.8-0.9-6.5-0.6-9.2c0.3-5.5,0.2-10.7,0.6-16.2c0.9-5,1.6-10,3.3-14.6c0.4-2.3,1.7-4.6,2.4-7
								l-0.1,0.1c0.5-0.8,0.4-2,0.9-2.5l0,0.1c0.3-0.4,0-1.2,0.3-1.4l-0.1-0.1c0.2-0.6,0.1,0,0.3-0.4c0.1-0.2-0.1-0.1,0-0.4
								c0.4,0.1,0.4-1.4,0.8-1.3c-0.1,0.3,0.3-0.4,0.1,0.3c0.1-0.1,0.2-0.4,0.2-0.6c0-0.1,0.1-0.2,0.1-0.4c0-0.2,0-0.2-0.1-0.2
								c-0.1,0-0.2-0.1-0.3-0.1c0,0-0.1,0-0.1,0.1c0,0,0,0.2-0.1,0.2c0,0,0.1,0.1,0.1,0.1c-0.2,0.1-0.1,0.1-0.2,0.1
								c-0.3,0.7-0.5,0.8-0.8,1.3c0,0,0,0,0,0c0,0.4-0.3,0.9-0.4,1.2l-0.1,0.1c-0.2,0.1,0,0.9-0.2,0.6c-0.5,1.5-1.1,3.3-1.7,5
								c0,0.3-0.4,1.3-0.1,1c-0.4,0.4-0.8,1.6-0.9,2.1c0,0,0-0.1,0-0.1c-0.6,0.8-0.1,1.2-0.7,1.9c0.2,0.2-0.5,1.6-0.4,2.1
								c-0.1,0.1-0.1,0.1-0.2,0.1c-0.4,1.6-1,3.3-1.3,4.6c-0.1,1.2-0.7,2.8-0.6,3.8c-0.2,0.8-0.6,2.1-0.6,3.3l0-0.1
								c-0.2,1.3-0.4,3-0.3,3.9c-0.3,0.4-0.3,0.9-0.5,1.5c0,0.9-0.1,2.7,0,4c-0.1,0.2,0,1.1-0.2,1.2c0.3,3.8,0.2,8.4,0.3,12.4l0-0.1
								c0.1,0.5,0.4,1.1,0.6,1.6c0,0.1,0,0-0.1-0.1c0.1,0.7,0,1.4,0.1,2.1c0,0,0,0-0.1-0.1c0.2,0.7,0,1.4,0.2,2.2l0,0.1l0.1,0.5
								c-0.1,0-0.2,0-0.2-0.3c0.2,1.5,0.4,3,0.6,4.5l0.6-0.6c-4.7-0.9-9.6-1.8-14.3-2.9l0.2,0l-1.2-0.2c0,0,0.1,0,0.1,0
								c-1.5-0.4-3.2-0.6-4.7-1c0,0,0.3,0,0.1-0.1c-1.2-0.1-1.8-0.6-2.4-0.4c0,0-0.1-0.1,0.1-0.1c-1.6-0.3-3.3-0.6-4.9-1l0.3,0.3
								c-0.1-1.6-0.1-3.1-0.1-4.7c-0.4-2.7-0.2-5.7-0.5-8.4l0.1,0c-0.3-3.6,0-7.4,0.1-11.1c0.1-1.5,0-2.6,0.1-4.1l0.1,0
								c-0.1-2.6,0.7-5.5,0.8-8.2l0.1,0.2c-0.1-0.4,0.3-1.6,0-1.5l0.2-0.5c-0.1-1.9,0.7-3.3,0.9-5.6l0,0.2c0.1-0.6,0.2-1.3,0.3-1.7
								c0,0.1,0,0,0,0.2c0.7-1.8,0.8-3.9,1.3-5.9l0.1,0.3c0.1-1,0.7-2.7,0.9-3.9l0,0.1l0.1-0.6l0.1,0
								C193.2,646.8,193.5,645.2,194,643.7z"/>
							<path fill="#B9BBB9" d="M202,635.7C202,635.7,201.9,635.7,202,635.7C201.9,635.7,201.9,635.7,202,635.7z"/>
							<path fill="#B9BBB9" d="M220.7,650.8c0-0.1,0.1-0.1,0.1-0.2C220.7,650.6,220.7,650.7,220.7,650.8z"/>
						</g>
					</g>
				</g>
			</g>
		</g>
		<g>
			<path fill="#AFB1AF" d="M323.9,410.1c0,0-22.2-21.6-70.5-59.7c-48.4-38-59.8-37.3-62.2-38c-10.7-3.1-24.9-1.3-24.9-1.3l-28,24.5
				c0,0-1.8,4.4,1.5,10.4c3.3,6,24.8,37.8,24.8,37.8s6.5-8.4,11.6-13.9c4.8-5.1,10.2-10.1,10.2-10.1l-6.8-10.7c0,0,10.1,2,37.8,25
				c27.7,22.9,85.4,74.3,85.4,74.3s11.8,12,14.9,14.1c3,2.1,20.8,16.2,20.8,16.2s2.4,0.1,5.4-0.9c4.3-1.5,10.2-4.8,13.6-9.8
				c1.4-2.1,2.9-4.3,3.7-6.6c2.7-7.6,1.5-17.6-7.8-25.4C341.6,426,323.9,410.1,323.9,410.1z"/>
			<g>
				<g>
					<g>
						<g>
							<polygon fill="#B9BBB9" points="323.5,410.6 323.7,410.8 324.3,411.2 							"/>
							<path fill="#B9BBB9" d="M327.4,413.8c-0.1-0.1,0-0.1-0.1-0.2l-2.4-1.8C325.8,412.8,326.9,413.1,327.4,413.8z"/>
							<path fill="#B9BBB9" d="M328.1,414.4c0.8,0.8,1.3,1,1.5,1.2C329.2,415.4,328,414.1,328.1,414.4z"/>
							<path fill="#B9BBB9" d="M330.5,471.9c0.1,0.1,0.2,0.2,0.3,0.2C330.7,472,330.6,471.9,330.5,471.9z"/>
							<path fill="#B9BBB9" d="M309.7,455.3l-0.3-0.1c1.9,1.7,3.8,3.5,5.7,5.3c1,0.9,2,1.8,3.1,2.6c1.1,0.8,2.1,1.6,3.2,2.4
								l-0.3-0.2c5.9,4.6,11.6,9,17.3,13.4l0,0l0,0c2.8,0,5.6-0.8,8.1-2.1c2.6-1.2,5-2.8,7.1-4.7c-0.1,0.1-0.2,0.2-0.3,0.4
								c0.5-0.4,0.9-1,1.4-1.5c0.1-0.1-0.1,0.2-0.3,0.3c2.3-1.7,4.9-6.6,5.8-8.1c0.3-0.7,0.4-1.1,0.2-0.7c1-2.4,1.6-4.9,1.7-7.6
								c0.1-2.6-0.3-5.3-1.2-7.8c-0.9-2.5-2.2-4.9-3.9-6.9c-1.7-2.1-3.7-3.8-5.7-5.4c-0.4-0.3-0.4-0.4-0.3-0.4
								c-7.1-5.6-14.1-12-21-18.1c-0.3-0.2,0.6,0.7-0.1,0.1c2.2,2,4.2,3.5,6.1,5.4l-0.3-0.2c1.4,1.3,0.4,0.1,1.9,1.5
								c0.6,0.6-0.2-0.1,0.1,0.2c3.1,2.7,6.4,5.6,9.5,8c0.6,0.8,3.4,2.9,4.5,4c0.9,0.6,1.7,1.4,2,1.5c1.4,1.2,2.5,2.5,3.6,3.9
								c1.1,1.5,2,3,2.7,4.6c1.4,3.3,2.1,7,1.7,10.6c-0.2,1.8-0.6,3.6-1.2,5.3c-0.6,1.7-1.6,3.3-2.6,4.8c-1,1.6-2,3.1-3.3,4.4
								c-1.3,1.3-2.7,2.5-4.2,3.5c-1.6,1.2-3.5,2.2-5.5,3c-2,0.8-4.3,1.3-6.5,1.3l0.2,0.1c-2.6-2.1-5.4-4.4-8.2-6.5c0,0,0,0,0,0
								c-2.2-1.6-5.3-4-7.8-6l-2.3-1.6c-1-0.8-1.9-1.5-2.9-2.2c-0.9-0.7-1.8-1.6-2.7-2.4c-1.8-1.7-3.5-3.4-5.3-5.1
								c-1.7-1.7-3.5-3.5-5.2-5.2l-1.3-1.3l-1.4-1.2l-2.8-2.5c-7.4-6.5-14.8-13.1-22.2-19.6c-16.8-14.9-31.4-27.9-48.3-41.8
								c0,0-0.1-0.1,0.4,0.2c-4.9-4-9.1-7.8-13.8-11.5l0,0c-5.4-4.3-11.1-8.7-17-12.7c-2.9-2-5.9-4-9-5.7c-3.1-1.7-6.1-3.4-9.4-4.3
								l-0.4-0.1l0.2,0.3c0.5,0.8,1,1.5,1.5,2.2c1.7,2.7,3.4,5.4,5.4,8.5l0-0.1c-3.7,3.5-7.6,7.2-11.3,11.2
								c-3.6,4.1-7.1,8.4-10.5,12.8l0.1,0c-2.3-3.5-4.7-7-7.1-10.4l0.1,0c-4.1-6-8.1-12.1-11.9-18.1c-1.9-3-3.9-6.1-5.7-9.2
								c-0.9-1.6-1.5-3.2-1.8-5c-0.3-1.7-0.3-3.6,0.2-5.3l0-0.1l-0.1,0.1c9.2-7.9,18.5-16.5,27.8-24.7l0,0l0,0
								c2.9-0.3,5.8-0.5,8.7-0.5c4.7,0.1,10.1,0.3,15.3,1.5c1.3,0.4,2.6,0.5,3.9,0.8c0.6,0.2,1.3,0.3,1.9,0.5
								c0.6,0.2,1.2,0.4,1.8,0.6c2.4,0.9,4.6,1.9,6.5,3c8,4.3,15.4,9.2,22.8,14.2c7.3,5,14.6,10.2,21.8,15.6
								c13.1,10.4,26.3,20.5,38.5,31.1c6,4.7,12.1,10.6,18.6,16.1l-0.2-0.3c2.1,2.2,5.3,4.2,6.5,5.8l-0.3-0.2c1.1,1.2,3.1,2.2,3.7,3
								l0.3,0.1c1.5,1.3,0.1,0.2,1.2,1.3c0.4,0.4,0.3,0,1.1,0.9c0,0.4,3.6,3.2,3.4,3.6c-0.8-0.7,1.1,1.3-0.7-0.3
								c0.5,0.5,2.9,2.7,2.8,2.4c0.3,0.1,1.4,0.8,0-0.7l-0.4-0.2c-0.4-0.6-0.3-0.4-0.4-0.6c-1.9-1.8-2-2.2-3.3-3.5c0,0,0,0,0,0
								c-1-0.7-2.3-2-3-2.7l-0.3-0.3c-0.4-0.5-2.4-1.8-1.6-1.4c-4-3.5-8.6-7.5-13-11.4c-0.7-0.5-3.4-3-2.6-2c-1-1.1-4.3-4-5.6-5.1
								c0.1,0,0.1,0.1,0.3,0.2c-2.2-2.3-3-2.2-5.1-4.4c-0.5-0.1-4.1-3.5-5.6-4.4c-0.2-0.3-0.3-0.4-0.2-0.3
								c-4.1-3.4-8.7-7.2-12.2-10.1c-3.2-2.3-7.2-6-10-7.8c-2.1-1.8-5.5-4.6-8.7-6.9l0.3,0.2c-3.5-2.6-7.7-6-10.3-7.6
								c-0.9-1-2.4-2.1-3.8-3.3c-1.2-0.8-3-2.1-4.9-3.4c-1-0.7-2-1.4-3-2.1c-1-0.7-2-1.3-2.9-1.9c-0.5-0.5-3-2-3.1-2.3
								c-5.3-3.3-11.2-7-17.4-10.3c-3.1-1.7-6.3-3.2-9.6-4.5c-1.7-0.6-3.4-1.1-5.1-1.5c-0.5-0.1-0.8-0.2-1.2-0.3l-1.2-0.3
								c-0.8-0.2-1.7-0.4-2.5-0.6l0.2,0c-1.7-0.2-3.7-0.2-5.5-0.2c-0.2,0-0.1-0.1,0.2,0c-2.4-0.2-4.7-0.4-7.1-0.4c0,0,0,0,0.4-0.1
								c-2.3,0.1-4.7-0.1-7.4,0.3l-0.2,0l-1.7,0.2c0-0.1,0.1-0.2,1-0.2c-0.4,0-0.8,0.1-1.2,0.1l-0.2,0l-0.1,0.1
								c-9.2,8-18.5,16.3-27.9,24.6l-0.1,0.1l0,0.1c-1.3,4.3,0.2,8.8,2.5,12.3c2.2,3.6,4.5,7.1,6.8,10.6l-0.5-0.6l2.4,3.4
								c0,0-0.2-0.2-0.3-0.3c2.8,4.5,6,8.9,8.8,13.2c0,0-0.5-0.6-0.2,0c2.3,3.1,3.2,5.2,4.6,6.6c0.1,0.2,0.1,0.3-0.2,0
								c0.8,1.2,1.6,2.3,2.4,3.5l0.3,0.4l0.3-0.4c2.8-3.6,5.7-7.3,8.7-10.8c3-3.5,6.3-6.8,9.6-10c1-1.1,2.1-2.2,3.3-3.3l0.2-0.1
								l-0.1-0.2c-2.3-3.4-4.6-7.1-6.9-10.7l-0.2,0.3c1.7,0.5,3.3,1.2,4.9,2c1.6,0.8,3.2,1.6,4.7,2.4l-0.1,0
								c5.2,2.9,10.3,6.4,15.2,10.1c5,3.7,9.8,7.7,14.6,11.6c3.9,3.3,6.6,5.5,10.6,8.8l0,0.1c6.8,5.4,13.7,12.1,20.7,17.8l-0.5-0.3
								c1.2,0.8,4.1,3.6,3.9,3.1l1.1,1.1c4.9,3.8,8.3,7.5,14.2,12.3l-0.4-0.3c1.5,1.3,3.3,2.8,4.4,3.8c-0.2-0.1-0.1-0.1-0.5-0.4
								c4.5,4.4,10,8.7,14.9,13.1l-0.6-0.4c2.5,2,6.8,6,10,8.7l-0.2-0.1l1.7,1.3l0,0.1c1,0.9,2,1.8,3,2.7c0.5,0.4,1,0.9,1.5,1.3
								c0.5,0.4,0.9,0.9,1.4,1.4C305.9,451.6,307.7,453.4,309.7,455.3z"/>
							<path fill="#B9BBB9" d="M354.6,471.2C354.6,471.2,354.5,471.2,354.6,471.2C354.4,471.4,354.5,471.3,354.6,471.2z"/>
							<path fill="#B9BBB9" d="M319.2,404.8c0.2,0.2,0.3,0.3,0.5,0.5C319.6,405.2,319.3,405,319.2,404.8z"/>
						</g>
					</g>
				</g>
			</g>
		</g>
		<g>
			<path fill="#AFB1AF" d="M571.2,466.7c0,0,86.5,23.2,86,24.3c-1,2-47.4,4.7-60,4.9c-12.6,0.2-20.6-0.2-20.6-0.2s-1.1-9.5-2.1-14.4
				C573.6,476.5,571.2,466.7,571.2,466.7z"/>
			<g>
				<g>
					<g>
						<g>
							<polygon fill="#B9BBB9" points="570.8,466.3 570.8,466.3 570.9,466.6 							"/>
							<path fill="#B9BBB9" d="M571.3,468C571.3,468,571.3,468,571.3,468l-0.4-1.2C570.9,467.2,571.3,467.8,571.3,468z"/>
							<path fill="#B9BBB9" d="M571.3,468.3c0,0.3,0.2,0.6,0.2,0.7C571.4,468.8,571.4,468.3,571.3,468.3z"/>
							<path fill="#B9BBB9" d="M581.2,496.3c0,0-0.1,0-0.1,0C581.2,496.3,581.2,496.3,581.2,496.3z"/>
							<path fill="#B9BBB9" d="M589.7,496l0.1-0.1c-1.6,0.2-3.3,0-5,0.1l0.1,0c-2.8-0.1-5.5,0-8.2-0.1l0,0c-0.2-1.3-0.4-2.7-0.6-4
								c0,0.1,0.1,0.1,0.1,0.1c-0.1-0.2-0.2-0.4-0.2-0.6c0-0.1,0.1,0.1,0.1,0.1c0.1-0.9-0.5-2.6-0.4-3.1c-0.1-0.2-0.1-0.3-0.2-0.2
								c-0.3-1.6-0.5-3.3-0.8-5c-0.3-1.7-0.8-3.3-1.2-5c0-0.2,0-0.2,0.1-0.1c-0.9-2.9-1.4-5.9-2-8.8c-0.1-0.2,0,0.2-0.1-0.1
								c0.1,0.9,0.5,1.8,0.6,2.6l-0.1-0.1c0.1,0.6,0.2,0.2,0.2,0.8c0,0.2-0.1-0.1-0.1,0c0.3,1.3,0.5,2.7,1,4
								c-0.1,0.3,0.3,1.4,0.3,1.9c0.1,0.3,0.2,0.7,0.3,0.8c0.5,2.3,0.9,4.6,1.3,6.9c0.4,2.3,0.7,4.6,1,7c0.2,0.9,0.4,1.8,0.5,2.8
								l0,0.2l0.3,0c1.5,0.1,3,0.2,4.6,0.2c0,0,0,0,0,0c0.9-0.1,2.1-0.1,3.1,0l0.9-0.1c6.1,0.3,12.4,0.1,18.6,0
								c7.1-0.2,13.3-0.3,20.2-1.2c0,0,0,0-0.1,0.1c2-0.2,3.8-0.2,5.7-0.4l0,0c4.6-0.6,9.7-0.7,14.1-1.4c2.7-0.2,5.6-0.5,8.5-0.9
								c1.5-0.2,2.9-0.4,4.4-0.9c0.2-0.1,0.4-0.1,0.5-0.2c0.1-0.1,0.2-0.1,0.2-0.2c-0.1-0.2-0.2-0.2-0.2-0.2c-0.3-0.2-0.7-0.3-1-0.4
								c-0.7-0.2-1.4-0.5-2.1-0.7l0-0.1c-4.4-1.3-8.6-2.8-13.1-4c-4.5-1.4-9.5-2.3-14-3.8c-2.8-1.1-6.7-1.5-9.3-2.5
								c-5.4-2-10.8-3.1-16.4-4.4c-5-1.6-10.2-2.5-15.1-4.2c-2.4-0.4-4.8-1.6-7.5-2.2l0.1,0.1c-0.9-0.5-2.2-0.2-2.7-0.7l0.1,0
								c-0.4-0.3-1.3,0.1-1.5-0.2l-0.1,0.1c-0.6-0.1,0-0.1-0.5-0.3c-0.2,0-0.1,0.1-0.5,0c0-0.4-1.5-0.3-1.4-0.7
								c0.3,0.1-0.5-0.3,0.3-0.2c-0.1,0-0.4-0.1-0.7-0.2c-0.1,0-0.1,0-0.2,0c-0.1,0-0.2,0-0.2,0c-0.4,0-0.4,0.2-0.3,0.1
								c0,0.1,0,0.2,0,0.3c0,0,0,0.1,0.1,0.1c0,0,0.1,0,0.1,0c0.1-0.1,0.1,0.1,0,0.1c0,0,0.1-0.1,0.1-0.1c0.2,0.2,0.1,0.1,0.2,0.2
								c0.8,0.2,0.8,0.4,1.4,0.7c0,0,0,0,0,0c0.4,0,0.9,0.2,1.2,0.3l0.1,0.1c0.1,0.2,1,0,0.7,0.1c1.6,0.4,3.5,0.9,5.3,1.4
								c0.3,0,1.4,0.4,1,0.1c0.4,0.3,1.7,0.8,2.2,0.9c0,0-0.1,0-0.1,0c0.9,0.5,1.2,0.1,2,0.6c0.2-0.2,1.6,0.5,2.2,0.4
								c0.1,0.1,0.1,0.1,0.1,0.2c1.6,0.4,3.4,1,4.8,1.4c1.2,0.1,2.8,0.9,3.9,0.9c0.8,0.3,2.2,0.8,3.4,1l-0.1,0
								c1.3,0.3,3,0.8,3.9,0.8c0.3,0.4,0.9,0.5,1.5,0.7c0.9,0.1,2.7,0.6,4.1,0.9c0.2,0.2,1.1,0.3,1.1,0.5c3.9,0.7,8.5,2.1,12.5,3.5
								l-0.1,0c0.6,0,1.2,0,1.8,0c0,0,0,0.1-0.1,0c0.7,0.2,1.4,0.5,2.1,0.7c0,0,0,0-0.1,0c0.7,0.1,1.4,0.5,2.2,0.6l0,0.1l0.5,0.1
								c0,0.1-0.1,0.1-0.3,0c6.3,1.8,12.9,3.3,19.4,5.3l-0.3,0l1.3,0.3c0,0-0.1,0-0.1,0c1.6,0.6,3.3,0.9,4.8,1.4c0,0-0.3,0-0.1,0.1
								c1.2,0.2,1.7,0.8,2.4,0.7c0,0,0,0.1-0.1,0.1c0.2,0.1,0.4,0.1,0.5,0.2l0.1,0.1c0,0,0,0,0,0c0,0,0,0,0-0.1c0,0-0.1-0.1,0-0.2
								c0-0.1,0.1-0.2,0-0.2c0-0.1,0,0-0.1,0c-0.3,0.2-0.7,0.3-1.1,0.4c-0.8,0.2-1.6,0.4-2.5,0.5c-1.7,0.3-3.4,0.4-5,0.6
								c-2.7,0.6-5.9,0.6-8.8,1.1l0-0.1c-3.7,0.5-7.7,0.6-11.6,0.9c-1.6,0.1-2.7,0.2-4.3,0.3l0-0.1c-2.7,0.5-5.8,0.1-8.6,0.6
								l0.2-0.1c-0.4,0.2-1.7,0-1.5,0.3l-0.5-0.1c-1.9,0.5-3.5,0-5.9,0.4l0.2-0.1c-0.6,0.1-1.4,0.2-1.8,0.1c0.1,0,0,0,0.2-0.1
								c-2-0.2-4.2,0.2-6.3,0.3l0.2-0.1c-1,0.2-2.9,0.1-4.2,0.2l0.1-0.1l-0.7,0.1l0-0.1C593,495.8,591.4,495.9,589.7,496z"/>
							<path fill="#B9BBB9" d="M576,491.4L576,491.4C576,491.5,576,491.4,576,491.4z"/>
							<path fill="#B9BBB9" d="M573.3,467.9c-0.1,0-0.1-0.1-0.2-0.1C573.1,467.8,573.2,467.8,573.3,467.9z"/>
						</g>
					</g>
				</g>
			</g>
		</g>
		<g>
			<path fill="#AFB1AF" d="M661.1,491.3l-2.1,38.1c0,0-5.4,2.3-29.1,4.3c-53.3,4.5-90.6-1-90.6-1l-2-21.2c0,0,2.8-9.9,11.2-14.6
				c0,0,14.5,0.7,51,0c36.5-0.8,53.8-3.4,56.9-4.1C659,492.1,661.1,491.3,661.1,491.3z"/>
			<g>
				<g>
					<g>
						<g>
							<path fill="#B9BBB9" d="M661.5,490.7c-0.1-0.1-0.3-0.1-0.5-0.1c-0.1,0-0.2,0-0.2,0l0,0l0,0l-0.1,0l-0.3,0.2l0.2-0.1l0.1-0.1
								l0.1,0l0,0c0,0,0,0,0,0c0.1,0,0.1,0,0.2,0C661.2,490.6,661.4,490.6,661.5,490.7z"/>
							<path fill="#B9BBB9" d="M658.6,491.7c0.1,0,0.1,0,0.1,0c0.4-0.2,0.9-0.5,1.3-0.7C659.3,491,659,491.7,658.6,491.7z"/>
							<path fill="#B9BBB9" d="M658.2,491.8c-0.6,0.1-0.7,0.3-0.9,0.4C657.5,492,658.3,491.9,658.2,491.8z"/>
							<path fill="#B9BBB9" d="M608.2,496.2c0.1,0,0.1,0,0.2,0C608.3,496.2,608.3,496.2,608.2,496.2z"/>
							<path fill="#B9BBB9" d="M595.1,497l-0.1,0.1c2.4-0.2,5.2-0.1,7.8-0.3l-0.2,0c6.6-0.1,12.6-0.5,19.1-0.9
								c-0.1,0-0.1,0.1-0.2,0.1c0.3-0.1,0.7-0.1,1-0.2c0.1,0-0.1,0.1-0.2,0.1c1.4,0.1,4-0.3,4.9-0.3c0.4,0,0.6-0.1,0.3-0.2
								c5.1-0.4,10.5-0.8,15.7-1.5c0.3,0,0.3,0,0.2,0.1c2.2-0.4,4.4-0.7,6.7-1c2.3-0.3,4.6-0.6,6.7-1c0.1-0.1-0.5,0-0.1-0.2
								c-1.4,0.2-2.5,0.7-3.9,0.8l0.2-0.1c-1,0.1-0.2,0.2-1.2,0.3c-0.4,0,0.1-0.1-0.1-0.1c-2,0.3-4.1,0.5-6,0.9
								c-0.5-0.1-2.2,0.2-3,0.1c-0.5,0.1-1.1,0.1-1.2,0.3c-7.1,0.6-14.4,1.2-21.8,1.6c-3.4,0.5-7.6,0.3-11.6,0.5c0,0,0,0,0,0
								c-1.3,0.1-3.3,0.2-4.9,0.2l-1.3,0.2c-9.6-0.1-19.3,0.3-29,0.2c-8.6,0-16.4-0.2-24.5-0.4l-0.1,0l-0.1,0.1
								c-2,1.2-3.8,2.7-5.3,4.6c0,0-0.1,0,0.1-0.2c-2.1,2.4-3.7,4.8-4.9,7.5l0,0c-0.4,1-0.8,2-1.1,3.2l0,0l0,0
								c0.7,6.2,1.1,12.8,2,18.7c0.1,0.8,0.1,1.6,0.2,2.5l0,0.1l0.1,0c7.7,1.1,16.4,1.7,24.5,2.1l0,0.1c7.2,0.2,14.1,0.8,21.3,0.7
								c7.4,0.1,15.2-0.4,22.6-0.6c2.3,0.1,5-0.2,7.6-0.4c2.6-0.2,5.2-0.5,7.4-0.5c8.9-0.1,17.5-1.2,26.3-2.8c1.7-0.2,3.4-0.5,5-0.8
								c1.7-0.4,3.3-0.7,4.9-1.3l-0.1,0.1c0.2-4.8,0.4-9.4,0.9-14.1c0-3.7,0.7-8,0.8-12.2l-0.1,0.2c0.3-1.7-0.1-3.1,0.2-4.3l0,0.1
								c0.2-0.9-0.2-1.5,0-2.2l-0.1-0.1c0-0.9,0.1-0.2,0.1-1c0-0.3-0.1,0,0-0.6c0.2-0.4,0.1-2.3,0.3-2.7c0,0.5,0.1-1,0.1,0.2
								c0-0.4,0.1-2,0-1.7c-0.1,0-0.3,0-0.4,0c0,0-0.1,0.1,0,0.1c0,0.1,0.2,0.1,0.1,0.4l0.1,0.1c-0.1,0.4-0.1,0.3-0.1,0.5
								c-0.1,1.3-0.2,1.6-0.3,2.6c0,0,0,0,0,0c0.1,0.5-0.1,1.4-0.1,1.9l-0.1,0.3c-0.1,0.4,0.1,1.2,0,1c-0.1,2.5-0.3,5.5-0.5,8.4
								c0.1,0.3-0.1,2.2,0.1,1.5c-0.2,0.8-0.4,3-0.5,3.8c0,0,0,0,0-0.2c-0.4,1.6,0.1,1.7-0.3,3.3c0.2,0.2-0.2,2.6,0,3.4
								c-0.1,0.2-0.1,0.3-0.2,0.2c-0.2,2.6-0.4,5.5-0.5,7.7c0.1,1,0,2.2-0.1,3.3l0.4-0.5c-0.9,0.3-2,0.6-2.7,0.9
								c-1.3,0.3-3.5,0.5-5.3,1l0.2-0.1c-2.1,0.4-4.7,0.8-6.2,1.1c-0.7-0.2-1.6,0-2.5,0c-1.4,0.3-4.3,0.6-6.4,0.9
								c-0.3-0.1-1.8,0.2-1.9,0.1c-3,0.5-6.4,0.8-9.9,1c-3.5,0.3-7,0.3-10.2,0.4l0.1,0c-0.8,0.2-1.8,0.4-2.7,0.6
								c-0.1,0-0.1,0,0.1-0.1c-1.2,0.1-2.3-0.1-3.5,0c0,0,0,0,0.2-0.1c-1.1,0.1-2.3-0.1-3.6,0.1l-0.1,0l-0.8,0.1
								c0-0.1,0-0.2,0.5-0.2c-10.2,0.3-20.8,0.6-31.2,0.3l0.4,0l-2,0c0,0,0.1,0,0.2-0.1c-2.6-0.2-5.3-0.1-7.8-0.3c0,0,0.4-0.1,0-0.1
								c-1.9,0.1-3-0.4-3.9-0.1c-0.1,0-0.1-0.1,0.1-0.1c-5.2-0.2-10.5-0.6-15.7-1.3c-1.5-0.1-3.1-0.2-4.7-0.4l0.2,0.2
								c-0.3-3-0.5-6.1-1-9l0.1,0c-0.5-3.9-0.9-8-1.2-12.2l0,0c0.6-1.9,1.5-3.7,2.4-5.4c1.3-2.2,2.2-3.6,4-5.4l0.1,0
								c1.2-1.5,2.9-2.7,4.7-3.7l-0.1,0c2.5,0.2,5,0.3,7.4,0.2l-0.3,0.1c0.7-0.2,2.7,0.1,2.4-0.2l0.8,0.1c3-0.3,5.5,0.2,9.2,0
								l-0.2,0.1c1-0.1,2.1-0.1,2.9,0c-0.1,0-0.1,0-0.3,0c3.1,0.3,6.5-0.1,9.8-0.1l-0.4,0.1c1.6-0.2,4.5-0.1,6.5-0.2l-0.1,0.1l1-0.1
								l0,0.1C590,497.2,592.5,497.1,595.1,497z"/>
							<path fill="#B9BBB9" d="M622.3,495.9C622.3,495.9,622.3,495.9,622.3,495.9C622.2,496,622.3,496,622.3,495.9z"/>
							<path fill="#B9BBB9" d="M660.5,495.2c0-0.1,0-0.2,0-0.3C660.6,494.9,660.6,495.1,660.5,495.2z"/>
						</g>
					</g>
				</g>
			</g>
		</g>
		<path fill="#AFB1AF" stroke="#AFB1AF" d="M526.1,626.4c0,0,20.6,8.4,39.6,18.4c19,10,29,19.4,29,19.4l-14.7,32.6
			c0,0-25.7-14.6-40.7-22.3c-15-7.8-28.3-15.1-28.3-15.1l-4.4-3.9L526.1,626.4z"/>
		<g>
			<path fill="#AFB1AF" d="M378.7,706l-29.2-21.3c0,0-3.5,35.9-12.3,61.5c-8.7,25.5-14.4,36.2-22.2,50.1
				c-7.8,13.9-24.3,36.5-31.5,40c-3.9,1.9-8.1,4.5-8.1,4.5v2.9c0,0,5.3,1,8.1,0c1.5-0.5,4.3-0.7,7.6-0.4c3,0.3,6.4,1.1,8.9,1.7
				c5.3,1.3,11.2,3.6,11.2,3.6l3.4,0.6l3.1-3.6c0,0,6.7-4,14-11.6c8.4-8.7,24.7-36.5,32.8-56.2c8.1-19.7,15.6-39.1,15.6-46.5
				C380.3,723.9,378.7,706,378.7,706z"/>
			<g>
				<g>
					<g>
						<g>
							<path fill="#B9BBB9" d="M378.1,706.3c-0.1,0-0.1,0-0.1-0.1l0.1,0.5L378.1,706.3C378.1,706.4,378.1,706.3,378.1,706.3
								C378.1,706.3,378.1,706.3,378.1,706.3z"/>
							<path fill="#B9BBB9" d="M378.6,709.4c0-0.1,0-0.1,0.1-0.2l-0.5-2C378.1,708.2,378.6,708.8,378.6,709.4z"/>
							<path fill="#B9BBB9" d="M378.6,710c0,0.8,0.2,1.1,0.2,1.3C378.7,711,378.7,709.8,378.6,710z"/>
							<path fill="#B9BBB9" d="M365.3,775.2c0-0.1,0.1-0.2,0.1-0.2C365.4,775.1,365.4,775.1,365.3,775.2z"/>
							<path fill="#B9BBB9" d="M358.5,791.5l0,0.2c1.3-3,3.1-6.3,4.4-9.6l-0.1,0.2c1.8-4.1,3.4-8,4.9-12c1.5-4,3-7.9,4.6-12.1
								c0,0.1,0,0.2-0.1,0.3c0.1-0.4,0.2-0.9,0.4-1.3c0.1-0.1,0,0.1,0,0.3c0.8-1.7,1.8-5.2,2.3-6.2c0.2-0.5,0.2-0.7,0-0.5
								c1.1-3.3,2.3-6.6,3.2-10.1c0.5-1.7,0.9-3.5,1.2-5.2c0.4-1.7,0.5-3.5,0.5-5.2c0-0.3,0.1-0.4,0.1-0.3c-0.4-6-0.8-12.2-1.2-18.4
								c-0.1-0.2,0,0.6-0.2,0c0.1,2,0.5,3.6,0.5,5.4L379,717c0,1.3,0.2,0.2,0.2,1.6c0,0.5-0.1-0.1-0.1,0.1c0.2,2.8,0.3,5.6,0.6,8.2
								c-0.1,0.6,0.1,3-0.1,4c0.1,0.7,0,1.4,0.1,1.7c-0.2,2.4-0.8,4.7-1.5,7.1c-0.6,2.3-1.4,4.7-2.1,7c-1.5,4.7-3.2,9.3-5,13.9
								c-1.4,4.4-3.8,9.5-5.8,14.6c0,0,0,0,0,0c-0.6,1.7-1.6,4.1-2.5,6.1l-0.6,1.7c-5.6,11.6-11.7,23.3-18.7,34.4
								c-1.8,2.8-3.6,5.6-5.5,8.2c-1.9,2.6-3.8,5.2-5.9,7.5c-2.1,2.3-4.4,4.4-6.8,6.5c-2.4,2-4.9,4-7.6,5.8l-0.1,0l0,0
								c-0.8,0.9-1.6,1.9-2.4,2.9c0,0-0.1,0,0.1-0.2c-0.3,0.3-0.6,0.6-0.8,1l0.3-0.1c-1.2-0.2-2.3-0.4-3.4-0.6l0.1,0
								c-2.3-0.9-4.5-1.7-6.8-2.3l0,0c-2.3-0.7-4.8-1.3-7.2-1.8c-2.4-0.5-4.9-1-7.5-1.2c-1.3-0.1-2.5-0.1-3.8,0
								c-0.6,0.1-1.3,0.1-1.9,0.3c-0.3,0.1-0.6,0.2-0.9,0.3c-0.3,0.1-0.6,0.2-0.9,0.2c-2.4,0.4-4.8,0.2-7.1-0.1l0.1,0.1
								c0-0.1,0-0.1,0-0.2c0-0.8,0-1.7,0-2.7l-0.1,0.1c2.3-1.4,4.7-2.7,7.2-4c2.6-1.2,4.7-3.2,6.7-5.2c4-4.1,7.6-8.7,11-13.2l0,0.1
								c5.7-7.9,11.2-15.5,15.9-24c2.5-4.3,4.9-8.9,7.1-13.5c2.2-4.7,4.2-9.4,6.2-14c2.7-5.6,4.8-13.6,7.1-19
								c4.4-11.2,6.7-22.7,8.6-34.6c1.9-9.6,3-19.3,4.2-28.7l0-0.3l0.2,0.2c1,0.8,2,1.5,3,2.3c4.3,2.8,8.5,6.5,13.1,9.8l-0.1-0.2
								c1.5,1.3,3.9,2.5,4.7,3.4l-0.2-0.1c0.7,0.7,2.4,1.2,2.7,1.7l0.2,0.1c1.1,0.8,0,0.1,0.8,0.8c0.3,0.2,0.3,0,0.8,0.5
								c-0.2,0.3,2.6,1.8,2.4,2.1c-0.6-0.4,0.8,0.7-0.6-0.2c0.3,0.3,2.1,1.6,2.1,1.4c0.1,0,0.3,0.2,0.4,0.2c0.1,0,0.1,0,0.1-0.1
								c0-0.1,0-0.3-0.3-0.5l-0.3-0.1c-0.2-0.3-0.2-0.2-0.3-0.4c-1.4-1-1.4-1.3-2.4-2c0,0,0,0,0,0c-0.8-0.4-1.7-1.2-2.2-1.6
								l-0.2-0.2c-0.2-0.3-1.8-1-1.2-0.8c-2.9-2.1-6.2-4.4-9.4-6.8c-0.5-0.3-2.4-1.8-1.9-1.1c-0.6-0.7-3-2.5-3.9-3.2
								c0,0,0.1,0,0.2,0.1c-1.5-1.5-2.2-1.3-3.6-2.7c-0.4,0-2.8-2.1-3.9-2.6l-0.8-0.3l0.1,0.7c0,0,0,0,0,0.1
								c-0.1,0.2-0.1,0.3-0.2,0.2c-0.4,3.5-1,7.4-1.4,10.4c-0.1,2.6-1,6.1-1,8.4c-0.3,1.8-1,4.7-1.3,7.2l0-0.3
								c-0.5,2.8-1.1,6.4-1.3,8.4c-0.4,0.8-0.6,2-1,3.2c-0.1,1-0.4,2.4-0.7,3.9c-0.3,1.5-0.7,3.2-1,4.6c-0.2,0.4-0.6,2.4-0.8,2.5
								c-0.8,4-2.1,8.5-3.6,12.9c-1.5,4.4-3.2,8.8-4.9,12.9l0-0.1c-0.3,1.1-0.6,2.4-0.8,3.5c-0.1,0.1-0.1,0.1,0-0.2
								c-0.6,1.5-1.3,2.8-1.9,4.3c0,0,0,0,0-0.3c-0.5,1.4-1.3,2.8-1.9,4.5l-0.1,0.1l-0.4,1.1c0-0.1-0.1-0.1,0.1-0.7
								c-2.8,6.3-5.8,12.6-9.1,18.8c-1.7,3.1-3.3,6.2-5.1,9.3c-1.8,3-3.7,6-5.7,9l0.2-0.5l-1.5,2.3c0,0,0-0.1,0.1-0.3
								c-2.1,2.8-4,5.9-6.1,8.6c0,0,0.2-0.5-0.1-0.1c-1.4,2.1-2.7,3.1-3.1,4.3c-0.1,0.1-0.2,0.1-0.1-0.1c-2.1,2.8-4.4,5.5-6.9,8.1
								c-1.2,1.3-2.5,2.5-3.9,3.6c-1.3,1.2-2.9,1.9-4.5,2.7c-1.9,1.2-4,2.4-6.1,3.6l-0.1,0.1l0,0.1c0,1,0,1.9,0,2.9l0,0.2l0.2,0
								c1.4,0.2,2.9,0.4,4.4,0.4c1.4,0,2.9-0.1,4.3-0.7l0,0.1c1.9-0.5,3.9-0.6,5.9-0.5c2,0.1,4.1,0.5,6.1,0.9c4,0.8,8,2,11.9,3.3
								c1.3,0.4,2.4,0.8,3.4,1.2l0,0l0,0c1.1,0.2,2.2,0.4,3.4,0.6l0,0l0,0c0.4-0.4,0.8-1,1.4-1.6l0.1,0c0.5-0.7,1.1-1.3,1.6-2l0,0
								c4.2-2.8,8.6-5.9,12.2-9.7l-0.2,0.4c0.6-0.8,2.6-2.5,2.2-2.5l0.8-0.7c2.4-3.3,4.8-5.7,7.4-10l-0.1,0.3
								c0.7-1.1,1.5-2.4,2.1-3.2c-0.1,0.1,0,0.1-0.2,0.4c2.5-3.3,4.7-7.5,6.9-11.3l-0.1,0.5c0.5-1,1.2-2.3,2-3.6
								c0.8-1.4,1.6-2.8,2.3-4.1l0,0.2l0.6-1.3l0.1,0C355.4,797.8,356.9,794.7,358.5,791.5z"/>
							<path fill="#B9BBB9" d="M372.7,757.6C372.7,757.6,372.6,757.7,372.7,757.6C372.6,757.8,372.6,757.7,372.7,757.6z"/>
							<path fill="#B9BBB9" d="M375.4,702.9c0.1,0.1,0.2,0.2,0.3,0.3C375.7,703.2,375.5,703,375.4,702.9z"/>
						</g>
					</g>
				</g>
			</g>
		</g>
		<g>
			<path fill="#AFB1AF" d="M328.5,142.2l-40.6,15.6c0,0-13.1,10.9-22.9,90.7c-7.7,62.5-7.6,78.6-7.6,78.6s9-1.7,16.8-2.5
				c7-0.7,15.8-0.2,15.8-0.2s0.9-30.4,7.7-80.4c7.8-57.1,17.1-78.7,17.1-78.7s24.5,12,47.9,78.4c23.9,68,23.9,86,24.4,92.2
				c0.5,6.3-0.8,18.5-0.8,18.5l4.7,17.3l30.1-2.5c0,0,4.5-11.1,2.5-27.8c-2-16.7-5.8-45.9-22.2-86.3c-16.4-40.4-29.5-68.3-40.8-84.4
				C347.7,152.3,328.5,142.2,328.5,142.2z"/>
			<g>
				<g>
					<g>
						<g>
							<path fill="#B9BBB9" d="M328.4,142.9C328.4,142.9,328.4,142.9,328.4,142.9c-0.1,0.1,0,0.1,0.1,0.2l1,0.5l-0.7-0.4
								L328.4,142.9C328.3,142.9,328.4,142.9,328.4,142.9z"/>
							<path fill="#B9BBB9" d="M334.6,146.4c-0.2-0.1-0.1-0.1-0.2-0.2c-1.3-0.7-2.5-1.4-3.8-2.1
								C332.1,145.3,333.5,145.6,334.6,146.4z"/>
							<path fill="#B9BBB9" d="M335.6,147.2c1.3,1,2,1.3,2.3,1.5C337.4,148.4,335.4,146.9,335.6,147.2z"/>
							<path fill="#B9BBB9" d="M408.2,274.3c-0.1-0.1-0.1-0.3-0.2-0.5C408.1,274,408.1,274.2,408.2,274.3z"/>
							<path fill="#B9BBB9" d="M419,311.5l0.2,0.4c-1.7-7.1-3.4-15-5.6-22.4l0.2,0.5c-2.7-9.4-5.7-18.2-9-26.9
								c-3.4-8.7-7-17.3-10.8-26.1c0.1,0.3,0.2,0.4,0.3,0.6c-0.4-0.8-0.9-1.8-1.3-2.7c-0.1-0.3,0.2,0.2,0.3,0.6
								c-1.4-3.8-4.8-10.9-5.7-13.3c-0.5-1-0.8-1.5-0.5-0.9c-3.1-6.9-6.4-14-9.9-21c-3.5-7-7.2-14-11.2-20.5
								c-0.4-0.6-0.4-0.8-0.2-0.6c-1.7-2.8-3.6-5.5-5.5-8.2c-2-2.7-4.1-5.3-6.3-7.8c-4.5-5-9.6-9.5-14.9-13.6
								c-0.5-0.2,1.1,0.9-0.1,0.2c3.4,2.6,6.3,4.7,9.1,7.5l-0.4-0.3c2,2,0.6,0.2,2.6,2.4c0.8,0.9-0.3-0.1,0.1,0.3
								c4.3,4.2,8.2,9.1,11.5,13.8c0.7,1.2,3.5,5.5,4.5,7.5c0.9,1.3,1.6,2.7,2,3.1c5.2,9.2,9.9,18.9,14.4,28.6
								c4.5,9.8,8.9,19.7,13,29.8c4.2,9.3,8.5,20.7,12.5,32.1c0,0.1,0,0.1,0,0c0.7,1.8,1.5,4.1,2.2,6.5c0.8,2.4,1.5,4.9,2.2,7.1
								c0.4,1.3,0.8,2.5,1.2,3.8c3.4,12.5,6.1,25.4,8,38.5c0.5,3.3,0.9,6.5,1.3,9.8c0.4,3.3,0.7,6.5,0.7,9.8c0,6.6-0.8,13.2-3,19.4
								l0.3-0.2c-2.3,0.2-4.6,0.4-6.8,0.5c-8,0.6-15.7,1.2-23.2,1.8l0.5,0.3c-1.6-5.8-3.1-11.6-4.7-17.3l0,0.2
								c0.4-4.3,0.7-8.5,0.9-12.8c0.1-2.1,0-4.3-0.1-6.5c-0.1-2.1-0.3-4.3-0.6-6.4c-1.1-8.6-3.1-17-5.4-25.6c0,0,0-0.2,0.2,0.6
								c-2.3-8.9-4.6-16.9-7.2-25.2l0,0c-3.3-10.2-6.8-20.8-10.5-31.2c-0.5-1.3-0.9-2.6-1.4-3.9c-0.5-1.3-1-2.6-1.4-3.9
								c-1-2.6-1.9-5.1-2.9-7.7c-1-2.5-2.1-5-3.1-7.4c-0.5-1.2-1-2.4-1.6-3.6c-0.6-1.2-1.1-2.4-1.7-3.5c-4.2-9.3-9.1-18.8-15.1-28
								c-3.1-4.5-6.2-9-9.9-13.2c-3.7-4.1-7.6-8.1-12.4-10.9l-0.1,0l0,0.1c-1.9,4.8-3.3,9.7-4.7,14.7l0-0.1
								c-2.8,10.3-5,20.5-7.1,30.8c-2,10.3-3.7,20.6-5.1,31.1c-3.2,21.6-5.2,44.7-7,66.6c-0.5,4.9-0.8,10.4-0.9,16l0.1-0.1
								c-5-0.2-10-0.2-14.8,0.2c-4.8,0.5-9.4,1.2-13.4,1.7c-1.5,0.2-2.9,0.4-4.4,0.7l0.1,0.1c0.2-6.2,0.8-12.3,1.3-18.4
								c0.5-6.1,1.1-12.2,1.7-18.3c1.2-12.2,2.4-24.4,3.8-36.7c0.7-6,1.6-12,2.4-18c0.4-3,0.9-6,1.3-9l0.7-4.5l0.7-4.5
								c2-11.9,4.3-23.6,7.7-34.9c0.6-2.1,1.1-4.2,1.9-6.3c0.4-1.1,0.7-2.1,1.1-3.2c0.4-1.1,0.8-2.1,1.2-3.2
								c0.4-1.1,0.9-2.1,1.4-3.2l0.7-1.6l0.8-1.6c1.1-2.1,2.2-4.2,3.9-5.9l0,0c2.6-1,5.2-2,7.8-3l-0.4,0.1c4.2-1.4,9.2-3.9,11.8-4.5
								l-0.4,0.2c2.2-0.7,5-2.4,6.4-2.7l0.3-0.2c2.7-1.1,0.3,0,2.4-0.8c0.8-0.3,0.3-0.3,1.9-0.8c0.4,0.2,6.5-2.6,6.7-2.3
								c-1.5,0.6,2.3-0.7-1,0.6c0.9-0.3,5.4-2.1,5-2.1c0.2-0.1,0.8-0.1,0.9-0.2c0.1,0,0.1-0.1-0.2-0.1c-0.2,0-0.7-0.2-1.3,0.1
								l-0.6,0.3c-0.9,0.2-0.7,0.2-1,0.2c-3.6,1.3-4,1.3-6.6,2.2c0,0,0.1,0,0,0c-1.7,0.8-4.2,1.7-5.5,2.2l-0.6,0.1
								c-0.9,0.2-4,1.9-3,1.2c-7,2.7-15.1,5.8-22.9,8.9l-0.1,0l-0.1,0c-0.2,0.2-0.4,0.4-0.5,0.6c-0.4,0.5-1.4,1.9-2,3
								c-0.6,1.1-1,1.9-0.5,1.1c-0.3,0.4-0.7,1.2-1.2,2c-0.5,0.8-0.9,1.8-1.4,2.8c-0.9,2-1.7,4.1-2.1,5.2c0-0.1,0-0.2,0.2-0.5
								c-0.5,1.1-0.8,1.9-1.1,2.7c-0.2,0.8-0.4,1.4-0.6,2.1c-0.2,0.6-0.4,1.3-0.6,2c-0.2,0.7-0.5,1.6-0.9,2.6c0,0.4-0.6,2.2-1.2,4.4
								c-0.6,2.1-1.2,4.5-1.3,5.7c-0.2,0.5-0.3,0.7-0.3,0.5c-1.8,7.6-3.7,16-4.8,22.5c-0.4,2.8-1,6.2-1.5,9.4
								c-0.5,3.3-1,6.5-1.2,8.9c-0.7,4-1.6,10.4-2.2,16l0-0.5c-0.8,6.3-1.7,14.1-2,18.5c-0.5,1.8-0.8,4.5-1.2,7.3
								c-0.3,4.2-1.3,12.7-1.8,19.1c-0.2,1-0.5,5.3-0.7,5.6c-0.3,4.4-0.7,9.1-1,14c-0.3,4.9-0.7,9.8-0.8,14.9l0,0.5l0.5-0.1
								c5.1-0.9,10.3-1.7,15.4-2.2c5.1-0.5,10.2-0.5,15-0.2l-0.3,0c0.7,0,1.5,0,2.3,0l0.6,0l0-0.5c-0.1-1.8-0.1-3.8-0.1-5.6
								c0-0.2,0.1-0.2,0,0.3c0.1-3.5,0.5-6.8,0.7-10.3c0,0,0,0,0,0.6c0.1-3.3,0.6-6.8,0.8-10.7l0.1-0.2l0.1-2.5
								c0.1,0.1,0.1,0.2,0,1.5c1.3-15.1,2.9-30.3,4.8-45.7c1.9-15.3,4.2-30.7,7.3-46l-0.2,1.1l1.1-5.9c0,0,0,0.3-0.1,0.6
								c1.7-7.5,3.3-15.3,5.4-22.4c0,0-0.2,1.1,0.1,0.1c1.3-5.4,2.8-8.4,3.3-11.1c0.1-0.2,0.2-0.4,0.1,0.2c0.3-1,0.7-2,1.1-3
								l-0.5,0.2c1.5,0.8,3,1.9,4.3,3l2,1.7l2,1.9c1.3,1.3,2.5,2.6,3.7,3.9c1.2,1.4,2.4,2.7,3.5,4.2c4.5,5.7,8.4,11.8,12,18.1
								c6.7,11,12.3,24.4,17.3,36.8l-0.1,0c3.2,8.1,6.1,16.5,8.9,25.1c2.9,8.6,5.5,17.3,8.2,25.9c2.1,7.2,3.5,12,5.4,19.3l0,0.2
								c1.7,6.1,3.1,12.6,4,19.2c0.5,3.3,0.8,6.7,1,10c0.3,3.3,0.2,6.7,0.1,10l-0.1-0.9c0.1,2.1-0.6,8-0.2,7.2l-0.3,2.3
								c0,0.3,0,0.6,0,0.9l0,0c1.8,5.8,3,11.1,4.7,17.3l0,0l0,0c2.6-0.2,5.4-0.4,8.5-0.8l-0.7,0.1c2.9-0.3,6.3-0.6,8.5-0.7
								c-0.3,0-0.2,0-0.9,0.1c4.7-0.2,9.7-0.7,14.7-1.1l0.1,0l0-0.1c1.6-4.5,2.3-9.3,2.7-13.9l0,1.1c0.2-2.3,0.3-5.6,0.2-9.1
								c-0.1-3.5-0.6-7.1-1-10.2l0.1,0.4l-0.5-3.1l0.1-0.1C421.9,326.6,420.6,319.1,419,311.5z"/>
							<path fill="#B9BBB9" d="M393.2,235.4C393.2,235.4,393.2,235.5,393.2,235.4C393.4,235.7,393.3,235.6,393.2,235.4z"/>
							<path fill="#B9BBB9" d="M318.8,145.3c0.3-0.1,0.6-0.2,0.9-0.3C319.7,145,319.1,145.2,318.8,145.3z"/>
						</g>
					</g>
				</g>
			</g>
		</g>
		<path fill="#AFB1AF" stroke="#AFB1AF" d="M580.1,696.8c0,0-9.4,0.5-30.3-10.8c-11.6-6.3-13.5-6.4-13.5-6.4l3.6-5
			c0,0,13.4,6.7,22.9,11.8C572.2,691.3,580.1,696.8,580.1,696.8z"/>
		<path fill="#AFB1AF" stroke="#AFB1AF" d="M609.6,477.4c0,0,50.1,12.2,51.2,13.4c1.1,1.2-0.9,3.2-36.5,5.1
			c-35.6,2-75.9,1.2-75.9,1.2l1.9-1.4c0,0,31.6,0.2,42.8,0c11.2-0.2,68.3-2.8,63.4-5C652.3,488.9,609.6,477.4,609.6,477.4z"/>
	</g>
</g>
<g id="DETAIL_SHADING">
	<g>
		<path d="M314.7,849.2c0,0-3.1,4.8-9.2,5.7c-6,0.9-15.3-0.8-17.4-0.8c-2.1,0-9-0.6-11.3-2.7c-2.4-2.1-6.7-6-6.5-8.8
			c0.1-2.2,2.4-5.9,1.7-7.1c-0.9-1.5-3.6-2.6-4.4-4.8c-0.7-2.2,0.5-7.6,4.9-7.5c4.4,0,6.1,3.4,6.1,3.4s0.6-0.9,2.3-1
			c1.6-0.1,3,1.7,3,1.7l2.8-0.6l1.7-1c0,0,2.2-0.4,2.9,0c0.6,0.4,1.2,2.1,1.2,2.1s-3.9,5.3-7.1,7.3c-3.3,2.1-6.9,3.7-6.9,3.7
			l-4.6-0.5c0,0-1.2,2.4-0.8,3.9c0.4,1.6,4.3,7.5,9.3,8.7c5,1.2,17.8,3.2,22.2,1.8c4.4-1.4,6.9-4.3,6.9-4.3L314.7,849.2z"/>
	</g>
	<g>
		<path d="M278.2,852.5c0,0-13.9,1.3-26.2-6.5c-12.3-7.8-31-24.5-41.8-46.9c-10.8-22.4-20.6-56.4-22.5-67.6
			c-1.9-11.2-2.3-21.5-2.3-21.5s-1-6,0.2-8.4c1.2-2.4,3.5-3,4.6-2.8c1,0.2,2.5,0.9,2.5,0.9s1-1.3,2.3-1.1c1.2,0.2,3.5,3.7,3.5,3.7
			s1.5-0.4,2.3,0c0.8,0.4,3.3,1.7,3.3,1.7s3.1-1.5,4.6-0.9c1.5,0.6,3.3,2.4,3.3,2.4s2.1,0.9,2.9,1.5c0.8,0.6,2.3,0.2,4,0.2
			c1.7,0,4.8,1.7,4.8,1.7s3.5-1.1,5.2-0.9c1.7,0.2,2.5,0.9,2.5,0.9s7.5,38.9,18.3,62c18.9,40.5,46.4,52.7,46.4,52.7l-3.5,4.4
			c0,0-0.7-2.7-2.6-2.7c-1.9,0-5.2,2.4-6,1.7c-0.8-0.6-2.2-1.6-3-1.7c-0.9-0.1-2.4,1.2-2.4,1.2s-2.5-3.8-6.8-3.2
			c-2.4,0.3-5.1,3-4.1,7.6c0.5,2.5,5,3.6,4.4,5.8c-0.6,2.2-2.8,5.4-1.2,8.4C272.6,848.2,278.2,852.5,278.2,852.5z"/>
	</g>
	<path d="M251.6,541.1c-1.6-14.3-2.6-39.7-2.6-39.7s2.1-26,5.4-41.3c3.3-15.3,12.4-40,12.4-40s-15.2-3.2-34.4,22.7
		c-15.1,20.4-13.3,30.6-13.3,37.9c0,7.3,2.9,28.4,12.5,54.7c9.6,26.3,19.6,40.5,24.1,44.8c4.6,4.3,2.8,2.1,2.8,2.1
		S253.3,555.4,251.6,541.1z"/>
	<path opacity="0.35" d="M260.8,594.3c0,0-18.4-9.8-31.7-45.5c-12.9-34.6-15.4-69.3-15-73.6c0.4-4.3,14.7-27.4,14.7-27.4
		s-10,16.7-10.1,27.4c-0.1,9.8,4.8,44.6,16.2,68.7c16.7,35.4,23.6,38.5,23.6,38.5L260.8,594.3z"/>
	<path opacity="0.2" fill="#FFFFFF" d="M425.6,344.1c0,0,16,24.4,18.4,38.6c2.4,14.3,0,21.7,0,21.7s-0.7-18.7-4.4-28.4
		C435.9,366.3,425.6,344.1,425.6,344.1z"/>
	<path opacity="0.5" d="M424,352.8l-0.2-8.3c0,0,15.6,30.7,17.1,44.6c2.9,25.9-8.7,28.2-8.7,28.2s7-10,2.5-26.5
		c-3.4-12.1-11.5-29.9-11.5-29.9L424,352.8z"/>
	<path d="M415.9,388.5l0.4,25.6c0,0-1.5-1.1-3.9-3.8c-2.1-2.5-5-6.3-8.3-11.2c-4.7-6.9-6.2-9.7-6.2-9.7L415.9,388.5z"/>
	<polygon points="307.2,467 337.5,419.1 331,414.2 300.5,462.1 	"/>
	<polygon opacity="0.55" fill="#AEB1AF" points="307.2,467 337.5,419.1 331,414.2 300.5,462.1 	"/>
	<polygon opacity="0.75" fill="#AEB1AF" points="305.2,454.6 299.3,450.1 294.2,457.7 300.5,462.1 	"/>
	<polygon fill="none" points="290.1,381.3 261,359 276.3,369.3 	"/>
	<g opacity="0.35">
		<g>
			<g>
				<g>
					<g>
						<path fill="#B8BBB9" d="M138.3,335.6c0.1,0,0.2,0.1,0.3,0.2c0,0.1,0.1,0.1,0.2,0.2l0.1,0.1l0,0l0-0.1c0,0,0,0.1,0,0l-0.2-0.2
							c0,0-0.1-0.1-0.1-0.1C138.5,335.6,138.4,335.6,138.3,335.6z"/>
						<path fill="#B8BBB9" d="M139.2,335.5C139.2,335.4,139.2,335.4,139.2,335.5c-0.1,0.1-0.1,0.3-0.1,0.5
							C139.3,336,139,335.4,139.2,335.5z"/>
						<path fill="#B8BBB9" d="M139.3,335.4c0.2,0,0.1-0.2,0.1-0.3C139.5,335.3,139.2,335.3,139.3,335.4z"/>
						<path fill="#B8BBB9" d="M153.8,337.9C153.8,337.8,153.8,337.8,153.8,337.9C153.8,337.9,153.8,337.9,153.8,337.9z"/>
						<path fill="#B8BBB9" d="M157.9,338.7l0.1-0.1c-0.8,0-1.5-0.6-2.4-0.8l0.1,0c-1.9-0.8-3.8-1.2-5.8-1.7c0,0,0.1,0,0.1,0
							c-0.1,0-0.2,0.1-0.3,0c0,0,0.1-0.1,0.1-0.1c-0.3-0.4-1.3-0.3-1.5-0.5c-0.1,0-0.2,0.1-0.2,0.2c-1.5-0.5-3.2-0.9-4.8-1.1
							c-0.1,0-0.1-0.1,0-0.2c-0.4,0-0.7,0-1,0c-0.3,0-0.6,0-0.8,0c-0.6,0.1-1.2,0.5-1.8,0.8c0,0.1,0.2,0,0.1,0.2
							c0.4-0.1,0.5-0.6,1-0.7l0,0.1c0.3-0.1-0.1-0.3,0.3-0.2c0.1,0,0,0.1,0.1,0.1c0.5-0.3,0.8-0.1,1.5-0.3c0.1,0.2,0.6,0.1,0.8,0.4
							c0.2,0,0.3,0,0.4-0.1c2.1,0.7,4.4,1.2,6.6,2c1.2,0,2.2,0.9,3.5,1.2c0,0,0,0,0,0c0.4,0,1,0.2,1.5,0.4l0.5,0
							c2.7,1.4,5.7,2.2,8.5,3.5c3.2,1.4,5.9,2.8,9.3,3.6c0,0,0,0.1-0.1,0c0.9,0.3,1.7,0.8,2.6,1.1l0,0c1.1,0.3,2.2,0.8,3.3,1.3
							c1.1,0.5,2.1,1.1,3.2,1.4c2.4,1.3,5.1,2.7,7.6,4l0,0.1c1,0.5,1.9,1.1,2.9,1.8c0.9,0.6,1.8,1.3,2.8,1.9c1.9,1.4,4.2,2.3,6,3.9
							c0.9,1.2,3,1.6,3.8,2.8c1.9,2.2,4.2,3.6,6.6,5.1c1.8,1.8,4.2,3.1,5.8,5.1c1.1,0.6,1.7,1.9,2.7,2.7l0-0.1
							c0.2,0.5,1.1,0.4,1,0.9l-0.1,0c0,0.3,0.8,0,0.7,0.3l0.1-0.1c0.3,0.2-0.1,0.1,0.1,0.3c0.1,0,0.2-0.1,0.3,0
							c-0.3,0.4,0.6,0.4,0.3,0.8c-0.1-0.1,0.1,0.3-0.3,0.2c0,0.1,0.5,0.4,0.6,0.2c0.2-0.2,0.5-0.2,0.3-0.5l-0.2,0.1
							c0-0.2,0-0.1,0-0.2c-0.3-0.3-0.2-0.5-0.3-0.8c0,0,0,0,0,0c-0.3,0-0.4-0.2-0.5-0.4l0-0.1c0.1-0.2-0.6,0-0.3-0.2
							c-0.7-0.5-1.4-1.1-2.1-1.7c-0.2,0-0.5-0.5-0.5-0.1c0-0.4-0.5-0.9-0.7-1c0,0,0.1,0,0.1,0c-0.1-0.6-0.7-0.1-0.7-0.8
							c-0.3,0.2-0.6-0.6-1-0.5c0-0.1,0-0.2,0.1-0.2c-0.6-0.6-1.3-1.2-1.8-1.7c-0.6-0.2-1-1.1-1.7-1.1c-0.3-0.3-0.7-0.9-1.3-1.2
							l0.1,0c-0.5-0.4-1.2-0.9-1.7-1.1c0.1-0.4-0.2-0.5-0.3-0.8c-0.5-0.2-1.1-0.8-1.8-1.1c0-0.2-0.5-0.3-0.4-0.5
							c-1.8-0.8-3.6-2.4-5-4l0,0c-0.3-0.1-0.7,0-1.1,0c0,0,0-0.1,0.1,0c-0.3-0.2-0.5-0.6-0.8-0.8c0,0,0,0,0.1,0
							c-0.4-0.1-0.5-0.6-0.9-0.7l0-0.1l-0.3-0.1c0.1-0.1,0.1-0.2,0.2-0.1c-2.6-1.9-5.6-3.5-8.4-5.3l0.1,0l-0.6-0.2c0,0,0.1,0,0.1,0
							c-0.6-0.6-1.5-0.8-2.2-1.2c0,0,0.2,0,0.1-0.1c-0.6-0.1-0.7-0.7-1.2-0.5c0,0,0-0.1,0.1-0.1c-1.5-0.7-3-1.5-4.4-2.4
							c-1.4-0.3-2.6-1.3-4.1-1.7l0-0.1c-1.8-0.6-3.5-1.7-5.2-2.4c-0.7-0.4-1.3-0.5-2-0.8l0-0.1c-1.4-0.2-2.5-1.4-4-1.5l0.1-0.1
							c-0.3,0.1-0.8-0.4-0.8,0l-0.2-0.2c-1.1,0.1-1.5-0.9-2.8-1l0.1-0.1c-0.3,0-0.7-0.1-0.9-0.3c0,0,0,0,0.1,0
							c-0.8-0.7-1.9-0.7-2.9-1.1l0.2-0.1c-0.5,0-1.3-0.5-2-0.6l0.1-0.1l-0.4,0l0-0.2C159.5,339.1,158.7,339,157.9,338.7z"/>
						<path fill="#B8BBB9" d="M149.8,336L149.8,336C149.8,336,149.8,336,149.8,336z"/>
						<path fill="#B8BBB9" d="M223.2,377.7C223.2,377.8,223.3,377.8,223.2,377.7C223.3,377.8,223.2,377.8,223.2,377.7z"/>
					</g>
				</g>
			</g>
		</g>
	</g>
	<path fill="none" d="M179.6,349.1c0,0-34.6-14.1-37.1-11.8c-2.5,2.3-1.2,6.8,0,10.3c1.2,3.6,8.7,16.1,8.7,16.1"/>
	<path fill="#AFB1AF" d="M186.6,359.8l-7-10.7l-19.4-7.5c-5.5-1.5-9.6-3.1-12.4-3.9c-4.1-1.1-5.3-0.5-5.3-0.5s-2.8,1.3-0.6,9.1
		c2.2,7.8,22.7,37.4,22.7,37.4s6.6-8.8,11.6-14C180.1,365.9,186.6,359.8,186.6,359.8z"/>
	<path opacity="0.2" fill="#AFB1AF" d="M556.4,487.8c0,0-28.7,15.2-23.4,41.7c7.2,36,33.8,16.9,33.8,16.9s-3.2,10.8-15.7,9.2
		c-12.5-1.6-23.4-15.5-20.6-36.8C533.3,497.5,556.4,487.8,556.4,487.8z"/>
	<path fill="none" d="M394.1,699l11.7-3.9c0,0,9.2-17.3-0.8-25.4c0,0-0.3,10.8-2.8,17C399.8,692.8,394.1,699,394.1,699z"/>
	<path fill="none" d="M349.4,703.2c0,0,0.4,2.8,0.1,5.2c-0.3,2.4-1.8,8.1-2,8.4c-0.2,0.3-0.7,0.3-0.8-0.2c-0.1-0.5,0.9-6,1-7.5
		c0.1-1.5,0.3-6,0.5-6.3C348.4,702.6,349.4,703.2,349.4,703.2z"/>
	<path opacity="0.5" d="M340.5,735.5c0,0-1.1-13.7-2-16.4c-1-2.7-1.5-6.9-3.3-6.1c-1.8,0.8-4.5,0-4.5,0l3.4-5.9c0,0,4.2-4.8,6.8-4.2
		c2.6,0.6,4.9,6.4,4.7,9C345.3,714.8,340.5,735.5,340.5,735.5z"/>
	<path opacity="0.15" fill="#AEB1AF" d="M270.5,828.8c0,1.4,1.1,2.6,2.5,2.6c1.4,0,2.5-1.2,2.5-2.6c0-1.4-1.1-2.6-2.5-2.6
		C271.6,826.2,270.5,827.4,270.5,828.8z"/>
	<path opacity="0.1" fill="#FFFFFF" d="M325.6,839.7c0,0-4.3,1.8-6,1.5c-4.8-0.7-5.8-0.1-7.3-0.4c-1.5-0.3-1-3-3.1-3
		c-2.1,0-3.7,1.3-7.1,0.6c-3.3-0.6-3.5-2.4-4.8-2.4c-1.2,0-4-2.2-4-2.8c0-0.6,1.5-3.2,1.5-3.2s-1.9,3.7-5.6,6.2
		c-3.7,2.6-13.8,7.3-13.8,7.3s1.9,0.4,4.7,0.3c4.1-0.2,9.9-1.1,11.8-0.7c3.3,0.6,8.9,1.7,9.6,1.9c0.6,0.2,3.5,1.5,5,1.9
		c1.5,0.4,3.7,1,5.4,1.5c1.7,0.4,2.8,0.6,2.8,0.6s2.4-3.3,3.1-3.6c0.7-0.2,4-2.9,5-3.6C323.9,841.4,325.6,839.7,325.6,839.7z"/>
	<path opacity="5.000000e-02" fill="#FFFFFF" d="M218.1,659.3l-24.3-12.6c0,0-1.9,5.7-3.1,11.4c-1.2,5.6-1.8,9.9-1.8,9.9l24.7,11.7
		c0,0,0.8-6.2,1.9-10.9C216.6,664,218.1,659.3,218.1,659.3z"/>
	<path opacity="0.15" fill="#FFFFFF" d="M223.7,708.9c0,0,7,38.2,18.6,63.6c18.6,40.5,39.7,46.1,39.7,46.1s-16.1-18-21.3-26
		c-3.4-5.2-6.2-12.2-6.2-12.2s15.4,25.1,27.8,34.6c12.5,9.4,13.9,8.7,13.9,8.7l-3.5,4.4c0,0-0.8-2.2-1.9-2.5
		c-1.2-0.3-2.3,0.1-3.4,0.6c-0.5,0.3-1.9,0.7-1.9,0.7s-0.6,0.7-1.4,0.3c-0.8-0.3-2-2.1-3.1-1.7c-1.5,0.5-2.2,1.1-2.2,1.1
		s-1.6-1.8-2.1-2.1c-0.5-0.3-2.2-1.6-4.9-1.2c-2.7,0.3-11.5,0.7-15.7-0.2c-4.2-0.9-18.2-8.4-24.6-17.1c-6.4-8.7-17.2-23.6-25.7-49.2
		c-5.8-17.8-11.6-56.4-11.6-56.4l0.8-0.7c0,0,6.1,47.3,18.9,74.5c15.1,32,34.1,43.3,34.1,43.3s-14-6.9-26.5-37.9
		c-10.1-25.1-18.2-59.9-18.2-59.9s18,61.1,30,77.7c11.6,16.1,23,22.9,23,22.9h3.5c0,0-4.6-3.3-7.1-5.2c-2.5-1.9-12.4-10.9-23.8-33.7
		c-14.9-29.7-19.6-64.6-19.6-64.6s14.3,54.5,26.3,73.3c16.2,25.3,31.4,31.8,31.4,31.8s1.7,0,0.8-0.5c-0.8-0.5-18.1-13.9-26.3-30.2
		c-21.3-42.4-25.7-76.5-25.7-76.5s16.9,62.1,29.4,78.7c16.7,22.2,27.2,27.4,28.7,28.1c1.5,0.7,7.6,2.6,7.6,2.6s-10.1-5.1-22.8-20.4
		C227.6,766.4,223.7,708.9,223.7,708.9z"/>
	<polygon opacity="0.4" points="426.7,368.8 430.9,379.1 393.6,380.5 391.1,371.8 	"/>
	<path opacity="2.000000e-02" stroke="#000000" d="M262,594.8c0,0-2.5,6.5-4.6,6.5c-2.1,0-2.1,3.9-5.4,6.9c-3.3,3-7.1,5.2-7.1,5.2
		s0.8,12.5-1.3,14.6c-2.1,2.2-5.4,11.2-6.7,11.2s-8.7-3.9-10.4-3c-1.7,0.9-4.2,4.3-4.2,4.3s0,4.3-2.1,6c-2.1,1.7-4.6,0.9-4.6,0.9
		L198.3,637c0,0,6.2-1.7,6.7-4.3c0.4-2.6,3.3-4.3,3.3-4.3l2.5-3c0,0,1.7-4.7,3.7-6.5c2.1-1.7,7.5-8.2,7.5-8.2s2.1-6.9,7.5-9.5
		c5.4-2.6,7.5-2.6,8.7-4.7c1.2-2.2,2.1-4.3,2.1-6.5c0-2.2,1.2-6,1.2-6l4-4.9c0,0,3.4,5.7,8.4,9.6C259,592.7,262,594.8,262,594.8z"/>
	<path opacity="2.000000e-02" stroke="#000000" d="M257.8,547c0,0,6.2,11.6,6.2,13.8c0,2.2,2.5,6,3.7,8.2c1.2,2.2,9.2,3,10.4,3.4
		c1.2,0.4,17.5,40.5,20,45.6c2.5,5.2,12.5,32.7,34.5,34c22.1,1.3,25.4,1.3,40.4,3c15,1.7,23.3,6,31.2,1.7c7.9-4.3,11.2-6.5,23.3-6
		c12.1,0.4,21.6,4.7,21.6,4.7s-26.2,9-29.6,12.5c-3.3,3.4-3.3,31.9-1.2,34.9c2.1,3,14.6,14.6,13.3,20.2c-1.2,5.6-7.5,24.5-9.2,25.4
		c-1.7,0.9,0,3.4,0,5.2c0,1.7-18.3,9.5-41.6,4.7c-23.3-4.7-59.1-16.8-74.1-40.9c-15-24.1-31.6-54.2-40.8-98.6
		c-9.2-44.3-15.4-77.5-15.4-77.5L257.8,547z"/>
	<path opacity="0.15" d="M272,450.2c0,0-9.2,53.5-3.7,102c5.4,48.2,8,72.7,30.8,119.7c13.6,28,20.8,36.6,20.8,36.6s2.9,6,1.2,6
		c-1.7,0-38.5-39.5-49.9-115.8C257,504,272,450.2,272,450.2z"/>
	<g opacity="0.35">
		<g>
			<g>
				<g>
					<g>
						<polygon fill="#202020" points="535.2,673.5 535.1,673.6 535.1,673.8 						"/>
						<path fill="#202020" d="M534.5,674.9c0,0,0.1,0,0.1,0l0.2-0.9C534.4,674.2,534.8,674.8,534.5,674.9z"/>
						<path fill="#202020" d="M534.3,675.1c-0.3,0.2-0.2,0.4-0.2,0.5C534,675.4,534.5,675.1,534.3,675.1z"/>
						<path fill="#202020" d="M514.9,698.3C514.9,698.2,515,698.2,514.9,698.3C514.9,698.2,514.9,698.2,514.9,698.3z"/>
						<path fill="#202020" d="M509.9,704.4l0,0.2c0.8-1.2,2.2-2.2,3.2-3.5l0,0.1c2.8-2.8,5-5.7,7.5-8.7c0,0.1,0,0.1,0,0.2
							c0.1-0.2,0.2-0.4,0.3-0.5c0.1,0,0,0.1,0,0.1c0.7-0.5,1.5-1.9,2-2.2c0.1-0.2,0.1-0.3,0-0.3c1.9-2.4,4-4.9,5.8-7.5
							c0.1-0.1,0.2-0.1,0.2,0c1.4-2.3,3.3-4.4,5-6.5c0-0.1-0.3,0.2-0.2-0.1c-0.6,0.6-0.8,1.4-1.4,1.9l0-0.1
							c-0.4,0.4,0.1,0.2-0.4,0.6c-0.2,0.1-0.1-0.1-0.1,0c-0.7,1-1.6,1.9-2.1,3c-0.3,0.1-0.8,1-1.3,1.2c-0.1,0.3-0.4,0.5-0.3,0.7
							c-2.8,3.3-5.5,6.8-8.4,10.1c-1.1,1.8-3.1,3.3-4.6,5.2c0,0,0,0,0,0c-0.5,0.7-1.2,1.5-1.9,2.2l-0.4,0.7c-2.1,2-4.2,4-6.3,6
							c-1,1-2.1,2-3.2,3c-1.1,0.9-2.2,1.9-3.4,2.8c-5.2,4-10.2,7.1-15.2,11.2c0,0-0.1,0,0.1-0.1c-1.5,1.1-3,1.9-4.4,2.9l0,0
							c-1.7,1.3-3.7,2.5-5.6,3.7c-1,0.6-1.9,1.2-2.9,1.7c-0.9,0.6-1.9,1.1-2.7,1.7c-4.4,2.6-9.5,5.3-14.4,7.8l0-0.1
							c-1.9,1-3.9,1.8-5.9,2.6c-2,0.7-4,1.5-6,2.4c-4.2,1.3-8.5,3.5-12.9,4.2c-2.8,0.3-6.2,1.6-8.9,1.5c-5.4,0-10.5,0.5-15.9,0.6
							c-4.9-0.4-9.9-0.4-14.6-1.7c-2.3-0.1-4.6-1.2-7.1-1.8l0.1,0.1c-0.8-0.5-2.1-0.1-2.5-0.7l0.1,0c-0.4-0.3-1.2,0.2-1.4-0.1
							l-0.1,0.1c-0.6-0.1,0-0.1-0.4-0.3c-0.2,0-0.1,0.2-0.4,0c0.1-0.5-1.4-0.3-1.3-0.9c0.3,0.1-0.4-0.4,0.3-0.2
							c-0.2-0.1-1.1-0.4-1.1-0.2c-0.2,0.2-0.6,0.3-0.1,0.6l0.2-0.1c0.1,0.2,0.1,0.1,0.1,0.3c0.7,0.3,0.8,0.5,1.3,0.8c0,0,0,0,0,0
							c0.4-0.1,0.9,0.2,1.2,0.3l0.1,0.1c0.1,0.2,1-0.1,0.6,0.1c1.5,0.4,3.3,0.8,5,1.2c0.3-0.1,1.3,0.3,1,0c0.4,0.4,1.6,0.7,2.1,0.8
							c0,0,0,0-0.1,0c0.9,0.5,1.2-0.1,2,0.5c0.2-0.3,1.6,0.4,2.1,0.1c0.1,0.1,0.1,0.2,0.1,0.2c1.6,0.3,3.3,0.6,4.7,0.8
							c0.6-0.1,1.3,0,2,0.1c0.7,0.1,1.3,0.1,1.8,0c0.8,0.1,2.1,0.5,3.3,0.3l-0.1,0c1.3,0,2.9,0.1,3.8-0.1c0.4,0.4,0.9,0.3,1.5,0.4
							c0.9-0.2,2.6-0.1,3.9-0.3c0.2,0.2,1.1-0.1,1.2,0.1c3.7-0.6,8.2-0.9,12.2-1.2l-0.1,0c0.5-0.2,1-0.6,1.5-0.9
							c0.1,0,0.1,0.1-0.1,0.1c0.7-0.2,1.4-0.1,2.1-0.3c0,0,0,0-0.1,0.1c0.6-0.3,1.4-0.1,2.2-0.5l0.1,0.1c0.2-0.1,0.3-0.1,0.5-0.2
							c0,0.1,0,0.2-0.2,0.2c6-1.5,11.9-4.2,17.7-6.7l-0.2,0.2l1.1-0.6c0,0,0,0.1-0.1,0.1c1.5-0.5,2.9-1.4,4.3-2c0,0-0.2,0.2,0,0.2
							c0.9-0.7,1.7-0.6,2-1.2c0.1,0,0.1,0.1,0,0.2c1.4-0.8,2.8-1.5,4.2-2.3c1.4-0.8,2.8-1.5,4.2-2.2c2.1-1.6,4.8-2.8,7-4.5l0,0.1
							c1.4-1,3-2,4.6-2.9c1.6-1,3.2-1.9,4.7-2.9c1.3-0.8,2.1-1.5,3.4-2.3l0.1,0.1c1.9-1.7,4.7-2.8,6.6-4.7l-0.1,0.2
							c0.2-0.4,1.4-0.9,1-1.1l0.5-0.2c1.2-1.5,2.8-1.8,4.4-3.4l-0.1,0.2c0.4-0.4,0.9-0.9,1.3-1.1c0,0.1,0,0.1-0.1,0.2
							c0.8-0.4,1.6-1.1,2.3-1.7c0.7-0.7,1.4-1.4,2.2-2l-0.1,0.3c0.6-0.8,2-1.8,2.8-2.7l0,0.1l0.4-0.5l0.1,0.1
							C507.8,706.7,508.8,705.5,509.9,704.4z"/>
						<path fill="#202020" d="M520.9,692.3C520.9,692.3,520.9,692.3,520.9,692.3C520.8,692.3,520.9,692.3,520.9,692.3z"/>
						<path fill="#202020" d="M378.2,749c-0.1,0-0.1-0.1-0.2-0.1C378,749,378.2,749,378.2,749z"/>
					</g>
				</g>
			</g>
		</g>
	</g>
	<path opacity="0.35" fill="#AEB1AF" d="M185.7,703.5c0,0,8,62.6,32.3,96.3c23.2,32.2,38.7,31,38.7,31s-1.9,1-4.8,0.7
		c-2.9-0.3-22.3-2.5-45.4-46.2c-15.2-28.6-20.4-73.8-20.4-73.8L185.7,703.5z"/>
	<g opacity="0.55">
		<g>
			<g>
				<g>
					<g>
						<polygon fill="#B8BBB9" points="288,158.8 288.1,158.9 288.4,158.7 						"/>
						<path fill="#B8BBB9" d="M289.9,158.4C289.9,158.3,289.9,158.3,289.9,158.4l-1.2,0.4C289.2,158.9,289.6,158.2,289.9,158.4z"/>
						<path fill="#B8BBB9" d="M290.3,158.4c0.5,0.1,0.6-0.1,0.7-0.2C290.9,158.3,290.2,158.2,290.3,158.4z"/>
						<path fill="#B8BBB9" d="M326.1,171.8c0,0-0.1-0.1-0.1-0.1C326,171.7,326,171.8,326.1,171.8z"/>
						<path fill="#B8BBB9" d="M333.4,179.3l0.2,0c-1.4-1.4-2.6-3.2-4.1-4.8l0.1,0.1c-3.5-4-7.2-7.2-11.5-10.1c0.1,0,0.1,0,0.2,0.1
							c-0.2-0.1-0.5-0.2-0.7-0.3c0-0.1,0.1,0,0.2,0c-0.8-0.8-2.8-1.7-3.3-2.1c-0.3-0.1-0.5-0.1-0.3,0c-0.4-0.2-0.9-0.5-1.4-0.7
							c-0.5-0.2-0.9-0.4-1.4-0.7c-0.5-0.2-1-0.4-1.4-0.6l-1.5-0.5c-0.5-0.2-1-0.4-1.5-0.5l-1.5-0.4c-1-0.3-2-0.4-3-0.5
							c-0.2,0-0.2-0.1-0.2-0.2c-3.5,0.1-7.2,0.1-10.9,0.2c-0.1,0.1,0.4,0.1,0,0.2c1.2,0.1,2.1-0.4,3.2-0.2l-0.1,0.1
							c0.8,0,0.1-0.3,0.9-0.1c0.3,0.1-0.1,0.1,0.1,0.1c1.6-0.1,3.3,0,4.9-0.2c0.4,0.2,1.7,0.1,2.3,0.4c0.4,0,0.8,0,1-0.1
							c2.7,0.6,5.5,1.5,8,2.8c0.7,0.3,1.3,0.6,1.9,1c0.6,0.4,1.3,0.7,1.9,1.1c1.2,0.8,2.5,1.5,3.6,2.5c0.6,0.3,1.2,0.7,1.8,1.2
							c0.6,0.5,1.1,1,1.7,1.5c1.2,1,2.2,2.3,3.5,3.3c0,0,0,0,0,0c0.8,0.7,1.9,1.8,2.7,2.7c0.3,0.2,0.6,0.5,0.8,0.7
							c4.7,6,9.4,12.3,13.1,19.1c4.3,7.7,7.2,14.9,11.2,22.5c0,0,0,0.1-0.1-0.1c1.1,2.2,1.9,4.4,2.9,6.5l0,0
							c2.6,5.2,4.6,11.2,6.9,16.3c2.4,6.4,5,13.6,7.4,20.5l-0.1,0c2,5.4,3.2,10.9,5,16.4c1.5,5.7,3.9,11.6,5.2,17.4
							c0.6,3.7,2.7,8.1,3.1,11.6c1.2,7.1,2.9,13.7,4.4,20.7c0.8,6.5,2,13.1,1.5,19.5c0.3,3-0.6,6.4-1.1,9.6l0.1-0.1
							c-0.3,0.6-0.3,1.2-0.4,1.8c-0.1,0.6-0.2,1.2-0.5,1.5l0-0.1c-0.3,0.3-0.2,0.8-0.3,1.2l0,0.1l-0.1-0.1c-0.2-0.2-0.3-0.4-0.2-0.6
							l-0.1-0.1c-0.3-0.7,0.1-0.1,0-0.7c-0.1-0.2-0.2,0-0.3-0.5c0.4-0.2-0.7-1.8-0.2-2c0.1,0.4,0-0.7,0.4,0.2c0-0.3-0.5-1.5-0.6-1.3
							c-0.3,0-0.6-0.4-0.5,0.4l0.2,0.1c-0.1,0.3,0,0.2-0.1,0.3c0.3,1,0.1,1.2,0.2,1.9c0,0,0,0,0,0c0.4,0.4,0.5,1.1,0.5,1.5l0,0.2
							c-0.1,0.2,0.3,0.6,0.4,0.7l0.8,1.1l0.3-1c0-0.1,0.1-0.2,0.1,0c0.5-1.1,0.8-2.2,1-3.3c0.3-1.1,0.4-2.3,0.6-3.5
							c-0.1-0.3,0.2-1.8-0.1-1.3c0.4-0.6,0.5-2.3,0.6-3c0,0,0.1,0.1,0,0.2c0.5-1.3-0.3-1.5,0.2-2.7c-0.3-0.2,0.2-2.2-0.3-2.8
							c0.1-0.1,0.1-0.2,0.2-0.1c0-1.1,0-2.2,0-3.3c-0.1-1.1-0.1-2.1-0.2-3c-0.4-1.5-0.2-3.7-0.8-5c0-0.5,0-1.3-0.1-2
							c-0.1-0.8-0.2-1.6-0.4-2.3l0.1,0.1c-0.3-1.7-0.6-3.8-1.1-4.9c0.3-0.6,0.1-1.3,0-2c-0.4-1.1-0.7-3.4-1.3-5.1
							c0.1-0.3-0.4-1.4-0.2-1.5c-0.4-1.2-0.7-2.4-1.1-3.7c-0.3-1.3-0.7-2.6-1-4c-0.6-2.7-1.2-5.5-1.7-8.1l0,0.1
							c-0.3-0.6-0.8-1.3-1.1-1.9c0-0.1,0-0.1,0.1,0.1c-0.3-0.9-0.3-1.8-0.6-2.7c0,0,0,0,0.1,0.1c-0.3-0.8-0.3-1.8-0.8-2.8l0-0.1
							l-0.3-0.6c0.1,0,0.2,0,0.3,0.3c-2.1-7.9-4.9-15.9-7.4-24l0.2,0.3l-0.6-1.5c0,0,0.1,0.1,0.1,0.1c-0.5-2-1.4-4-2-5.9
							c0,0,0.2,0.3,0.2,0c-0.7-1.4-0.5-2.4-1.2-2.9c0-0.1,0.1-0.2,0.2,0c-1.5-3.9-2.9-8-4.3-11.9c-1.6-3.1-2.6-6.9-4.3-10.2l0.1,0
							c-2-4.3-3.6-9-5.6-13.5c-0.8-1.9-1.4-3.1-2.3-4.9l0.1-0.1c-1.8-3-2.7-6.7-4.6-9.7l0.2,0.2c-0.4-0.4-0.9-2-1.1-1.6l-0.2-0.6
							c-1.5-1.9-1.8-4.1-3.5-6.5l0.2,0.1c-0.4-0.7-0.9-1.4-1.1-2c0.1,0.1,0.1,0,0.2,0.2c-0.9-2.4-2.7-4.5-4-6.8l0.3,0.2
							c-0.9-1-2-3-3-4.3l0.1,0l-0.6-0.6l0.1-0.1c-0.6-0.9-1.3-1.7-1.9-2.6C334.8,180.9,334.1,180.1,333.4,179.3z"/>
						<path fill="#B8BBB9" d="M317.8,164.2L317.8,164.2C317.8,164.2,317.8,164.2,317.8,164.2z"/>
						<path fill="#B8BBB9" d="M386.6,357.5c0-0.1,0-0.2-0.1-0.3C386.5,357.2,386.6,357.4,386.6,357.5z"/>
					</g>
				</g>
			</g>
		</g>
	</g>
	<g opacity="0.65">
		<g>
			<g>
				<g>
					<g>
						<polygon fill="#B8BBB9" points="259.7,325.5 259.7,325.4 259.7,325.2 						"/>
						<path fill="#B8BBB9" d="M259.6,323.9C259.6,324,259.6,324,259.6,323.9l0.1,1C259.9,324.5,259.6,324.2,259.6,323.9z"/>
						<path fill="#B8BBB9" d="M259.7,323.7c0.1-0.4,0-0.5,0-0.6C259.7,323.2,259.6,323.7,259.7,323.7z"/>
						<path fill="#B8BBB9" d="M261.9,292c0,0,0,0.1,0,0.1C261.9,292,261.9,292,261.9,292z"/>
						<path fill="#B8BBB9" d="M262.3,283.7L262.3,283.7c-0.1,1.5-0.4,3.2-0.5,4.8l0-0.1c-0.4,4.1-0.6,8-0.9,12.1c0-0.1,0-0.1,0-0.2
							c0,0.2,0,0.4,0,0.6c0,0.1,0-0.1,0-0.1c-0.2,0.9-0.1,2.6-0.3,3.1c0,0.2,0,0.4,0.1,0.2c-0.2,3.2-0.4,6.7-0.5,9.9
							c0,0.2-0.1,0.2-0.1,0.1c0,2.8-0.2,5.7-0.4,8.6c0,0.1,0.1-0.3,0.1,0c0.1-0.9,0-1.7,0.1-2.5l0,0.1c0.1-0.6-0.1-0.1,0-0.8
							c0.1-0.2,0.1,0.1,0.1,0c0.1-1.3,0.2-2.6,0.1-3.9c0.1-0.3,0.1-1.4,0.2-1.9c0-0.3,0-0.7,0-0.8c0.3-4.5,0.6-9.1,1-13.8
							c0-2.2,0.4-4.8,0.6-7.3c0,0,0,0,0,0c0-0.8,0.1-2.1,0.2-3.1l0-0.9c0.7-6,1.2-12.1,2-18.2c0.8-6.9,1.8-12.9,2.4-19.7
							c0,0,0,0,0,0.1c0.2-1.9,0.5-3.7,0.8-5.5l0,0c0.5-4.6,1.4-9.4,1.9-13.8c0.8-5.3,1.7-11.3,2.6-16.9l0,0c0.3-2.3,0.7-4.5,1.1-6.6
							c0.2-1.1,0.4-2.2,0.6-3.3c0.2-1.1,0.4-2.2,0.7-3.3c1-4.6,1.8-9.4,3.1-14c0.5-1.4,0.9-3,1.3-4.6c0.4-1.6,0.9-3.2,1.4-4.5
							c2.1-5.2,3.8-10.4,6.5-15.4c0.3-0.5,0.6-1,1-1.4l0,0l0,0c4.3-1.8,9.1-2.1,13.4-1c2.4,0.3,4.8,1.4,7.3,2.4l-0.1-0.1
							c0.8,0.5,2,0.6,2.5,1.1l-0.1,0c0.4,0.3,1.2,0.2,1.4,0.5l0.1,0c0.6,0.3,0,0.1,0.4,0.3c0.2,0.1,0.1-0.1,0.4,0.1
							c0,0.2,1.3,0.6,1.3,0.9c-0.3-0.2,0.4,0.3-0.3,0c0.2,0.1,1.1,0.6,1,0.5c0.1-0.1,0.5,0.1,0-0.3l-0.2,0c-0.1-0.2-0.1-0.1-0.2-0.2
							c-0.7-0.4-0.7-0.6-1.2-0.9c0,0,0,0,0,0c-0.4-0.1-0.9-0.4-1.1-0.5l-0.1-0.1c-0.1-0.2-0.9-0.2-0.6-0.3c-1.5-0.7-3.3-1.4-5-2
							c-0.3,0-1.3-0.5-1-0.2c-0.4-0.3-1.7-0.7-2.2-0.8c0,0,0,0,0.1,0c-0.9-0.4-1.2-0.1-2-0.6c-0.2,0.1-1.7-0.4-2.2-0.3
							c-0.1-0.1-0.1-0.1-0.1-0.1c-1.7-0.2-3.5-0.3-5-0.2c-1.2,0.2-3,0.3-3.9,0.7c-0.7,0.1-1.8,0.4-2.8,0.9l-0.1,0l-0.1,0.1
							c-0.1,0.2-0.2,0.3-0.3,0.5l0-0.1c-0.8,1.1-1.5,2.7-1.9,3.5c-0.3,0.3-0.6,0.8-0.9,1.3c-0.3,0.9-1.1,2.5-1.5,3.8
							c-0.2,0.2-0.4,1.1-0.5,1.1c-1.3,3.7-2.8,8.2-4.1,12.1l0-0.1c-0.1,0.5-0.1,1.2-0.2,1.7c0,0,0,0,0-0.1c-0.2,0.7-0.5,1.4-0.7,2.1
							c0,0,0,0,0-0.1c-0.1,0.7-0.5,1.4-0.6,2.2l0,0l-0.1,0.5c0,0-0.1-0.1,0-0.3c-1.6,6.3-2.8,12.8-3.9,19.4l0-0.2l-0.2,1.3
							c0,0,0-0.1,0-0.1c-0.4,1.6-0.5,3.3-0.8,4.9c0,0,0-0.3-0.1,0c-0.1,1.2-0.4,1.9-0.3,2.5c0,0.1-0.1,0.1-0.1,0
							c-0.4,3.3-1,6.6-1.5,9.9c-0.2,2.8-0.9,5.8-1.1,8.6l0,0c-0.4,3.7-1.1,7.6-1.6,11.4c-0.2,1.6-0.3,2.7-0.5,4.2l-0.1,0
							c-0.2,2.7-0.9,5.6-1.1,8.4l0-0.2c0.1,0.4-0.3,1.7,0,1.5l-0.1,0.5c0,1.9-0.5,3.4-0.7,5.8l0-0.2c0,0.6-0.1,1.3-0.2,1.8
							c0-0.1,0,0,0-0.2c-0.4,1.9-0.5,4.1-0.7,6.1l-0.1-0.2c0,1-0.3,2.8-0.4,4.1l0-0.1l0,0.7l-0.1,0
							C262.6,280.5,262.5,282.1,262.3,283.7z"/>
						<path fill="#B8BBB9" d="M260.9,300.8C260.9,300.8,260.9,300.8,260.9,300.8C260.9,300.8,260.9,300.8,260.9,300.8z"/>
						<path fill="#B8BBB9" d="M313.1,164c0.1,0,0.1,0.1,0.2,0.1C313.3,164.1,313.2,164.1,313.1,164z"/>
					</g>
				</g>
			</g>
		</g>
	</g>
	<polygon opacity="5.000000e-02" fill="#FFFFFF" points="413.5,292.8 380.4,291 385.4,310.8 418.2,311.8 	"/>
	<path opacity="5.000000e-02" fill="#FFFFFF" d="M404.2,264.5c-3.8-10.7-7.5-18.4-7.5-18.4l-31.3-1.7l11.7,35.1l32.5,1.3
		C409.6,280.8,408.1,275.2,404.2,264.5z"/>
	<path d="M433.7,387.6l-35.9,1.9c0,0-1.6-2.7-2.4-4.4c-0.8-1.6-1.7-4.1-1.7-4.1l37.2-2c0,0,1.3,3.6,1.6,4.3
		C432.7,384.1,433.7,387.6,433.7,387.6z"/>
	<path opacity="0.55" fill="#AEB1AF" d="M433.7,387.6l-35.9,1.9c0,0-1.6-2.7-2.4-4.4c-0.8-1.6-1.7-4.1-1.7-4.1l37.2-2
		c0,0,1.3,3.6,1.6,4.3C432.7,384.1,433.7,387.6,433.7,387.6z"/>
	<polygon opacity="0.35" fill="#FFFFFF" points="383.8,709.9 349.4,684.5 354.4,679 389.2,704.3 	"/>
	<polygon opacity="0.25" points="383.8,709.9 349.4,684.5 354.4,679 389.2,704.3 	"/>
	<polygon opacity="0.5" fill="#FFFFFF" points="430.4,379.1 393.8,381 394.5,383 431,380.6 	"/>
	<path opacity="0.1" d="M330.2,443.3c0,0-5.9-2.2-9.3-2.4c-3.4-0.2-12-0.2-12.6-2.5c-0.6-2.2,9.6-22.1,9.6-22.1l8.3-5.1l11,7.6
		l7.7,10.1L330.2,443.3z"/>
	<path fill="#FFFFFF" d="M529.7,620.8l-23.6,35.3c0,0-0.7-5.2-0.5-6.6c0.2-1.4,14-22.4,14-22.4s2.9-2.6,5-3.8
		C526.8,622.1,529.7,620.8,529.7,620.8z"/>
	<path opacity="0.55" d="M529.7,620.8l-23.6,35.3c0,0-0.7-5.2-0.5-6.6c0.2-1.4,14-22.4,14-22.4s2.9-2.6,5-3.8
		C526.8,622.1,529.7,620.8,529.7,620.8z"/>
	<path fill="#FFFFFF" d="M537.3,511.5l4.2,32.8c0,0-6.1-4.7-7-14.2C533.7,521.7,537.3,511.5,537.3,511.5z"/>
	<path opacity="0.55" d="M537.3,511.5l4.2,32.8c0,0-6.1-4.7-7-14.2C533.7,521.7,537.3,511.5,537.3,511.5z"/>
	<path opacity="2.000000e-02" stroke="#000000" d="M221.2,462.1c0,0-27.7-10.6-32.4-18c-4.7-7.4-13.4-21.3-20.5-13.9
		c-7.1,7.4-26.9,43.3-19,78.5c7.9,35.2,26.1,48.2,26.1,53.1c0,4.9-8.7,26.2-8.7,26.2s-34.2-80.2-26.9-140.6
		c5.5-45.8,33.2-74,36.3-77.5c3.2-3.5,14.2-5.9,18.2,8c4,13.9,30.8,15.5,37.9,24.5c7.1,9,20.6,20.4,20.6,20.4s-14.4,12.2-20.4,20
		C225.2,452.3,221.2,462.1,221.2,462.1"/>
	<path opacity="0.35" fill="#AEB1AF" d="M539.5,675.1l0.4-0.6c0,0,32.1,16.7,33.4,18c1.2,1.3,6.9,4.2,6.9,4.2s-6.2,0-13.4-2.9
		c-7.2-2.9-30.2-14.5-30.2-14.5l0.5-0.6c0,0,35,17.7,38.9,16.7C577.1,695.1,539.5,675.1,539.5,675.1z"/>
	<g>
		<path opacity="5.000000e-02" fill="#AEB1AF" d="M423.3,513.1c-3.6-0.6-15.1,2.7-16,12.9c-0.9,10.2,8.7,14,11.6,14
			c2.8,0,12.8-3.5,13.8-13.6C433.9,514.4,423.3,513.1,423.3,513.1z"/>
		<g>
			<g opacity="0.15">
				<g>
					<g>
						<g>
							<g>
								<polygon fill="#FFFFFF" points="423.2,513.5 423.3,513.6 423.4,513.5 								"/>
								<path fill="#FFFFFF" d="M423.9,513.5C423.9,513.5,423.9,513.5,423.9,513.5c-0.2,0-0.3,0-0.4,0.1
									C423.6,513.7,423.8,513.4,423.9,513.5z"/>
								<path fill="#FFFFFF" d="M424,513.6c0.1,0.1,0.2,0,0.3,0C424.2,513.6,424,513.5,424,513.6z"/>
								<path fill="#FFFFFF" d="M432.3,522.3L432.3,522.3C432.3,522.3,432.3,522.3,432.3,522.3z"/>
								<path fill="#FFFFFF" d="M432.7,525.7L432.7,525.7c0-0.6,0.2-1.3,0-2l0,0c0-0.4-0.1-0.9-0.1-1.3c-0.1-0.4-0.2-0.8-0.3-1.2
									c-0.1-0.4-0.2-0.8-0.4-1.2c-0.2-0.4-0.3-0.8-0.5-1.1c0,0,0,0,0.1,0c-0.1-0.1-0.1-0.1-0.2-0.2c0,0,0,0,0.1,0
									c-0.1-0.4-0.6-0.9-0.6-1.1c-0.1-0.1-0.1-0.1-0.1,0c-0.8-1.1-1.9-2-3-2.7c0,0,0-0.1,0-0.1c-1.1-0.4-2.1-1-3.3-1.3
									c-0.1,0,0.1,0.1,0,0.1c0.3,0.2,0.7,0.1,1,0.3l-0.1,0c0.2,0.1,0.1-0.1,0.3,0c0.1,0.1,0,0,0,0.1c0.5,0.2,1,0.4,1.5,0.6
									c0.1,0.1,0.5,0.3,0.6,0.5c0.1,0,0.2,0.1,0.3,0.1c1.5,1.1,2.8,2.4,3.6,4.2c0.2,0.4,0.4,0.8,0.6,1.3c0.1,0.5,0.1,1,0.3,1.5
									c0,0,0,0,0,0c0.1,0.3,0.1,0.8,0.2,1.2l0.1,0.3c-0.1,2.5-0.4,5.1-1.5,7.3c-0.7,1.2-1.4,2.4-2.4,3.3c-0.4,0.5-0.9,0.9-1.4,1.4
									c-0.5,0.4-1,0.9-1.6,1.3c0,0,0,0,0-0.1c-0.6,0.5-1.3,0.8-2,1.2l0,0c-1.6,1-3.6,1.6-5.4,1.6c-2.2-0.3-4.5-1.4-6.4-2.9l0,0
									c-1.5-1.1-2.6-2.7-3.4-4.3c-0.8-1.7-1.5-3.7-1.3-5.7c0.1-0.3,0.1-0.6,0.1-1c0-0.3,0.1-0.7,0.1-1c0-0.7,0.2-1.4,0.5-1.9
									c1-2.1,2.1-4.1,3.7-5.8c1.7-1.4,3.4-2.7,5.5-3.2c0.9-0.5,2-0.5,3.1-0.7l0,0c0.4,0.1,0.8-0.3,1.1-0.2l0,0
									c0.2,0.1,0.5-0.3,0.6-0.2l0-0.1c0.3,0,0,0.1,0.2,0.1c0.1,0,0-0.1,0.2-0.1c0,0.2,0.6,0,0.6,0.2c-0.1,0,0.2,0.1-0.1,0.1
									c0.1,0,0.5,0.1,0.5-0.1c0.1-0.1,0.2-0.2,0-0.3l-0.1,0.1c-0.1-0.1-0.1,0-0.1-0.1c-0.3,0-0.4-0.2-0.6-0.2c0,0,0,0,0,0
									c-0.2,0.1-0.4,0.1-0.5,0l-0.1,0c-0.1-0.1-0.4,0.2-0.3,0c-0.3,0.1-0.7,0.1-1.1,0.2c-0.4,0.1-0.8,0.2-1.1,0.2
									c-0.1,0.1-0.6,0.2-0.4,0.2c-0.2-0.1-0.8,0-1,0.1c0,0,0,0,0,0c-0.5,0-0.4,0.3-0.9,0.2c0,0.2-0.7,0.2-0.8,0.5
									c-0.1,0-0.1,0-0.1-0.1c-0.7,0.3-1.4,0.6-1.9,0.9c-0.4,0.4-1.1,0.6-1.4,1c-0.3,0.2-0.8,0.5-1.2,0.9l0,0
									c-0.5,0.4-0.9,0.9-1.1,1.3c-0.3,0-0.4,0.2-0.6,0.4c-0.2,0.4-0.7,0.9-1,1.5c-0.1,0-0.2,0.4-0.4,0.4c-0.7,1.5-1.5,3.4-1.8,5.1
									l0,0c0,0.2,0.1,0.5,0.2,0.7c0,0,0,0,0,0c0,0.3-0.1,0.6-0.1,0.9c0,0,0,0,0-0.1c0,0.3-0.1,0.6,0,1l0,0l0.1,0.2
									c0,0-0.1,0-0.1-0.1c0.1,2.8,1.3,5.5,3.2,7.6l-0.1-0.1l0.4,0.4c0,0,0,0-0.1,0c0.2,0.3,0.5,0.5,0.7,0.7
									c0.3,0.2,0.5,0.4,0.8,0.6c0,0-0.1,0-0.1,0.1c0.5,0.2,0.5,0.6,0.9,0.6c0,0,0,0.1-0.1,0.1c1.2,0.7,2.5,1.4,3.8,1.8
									c0.6,0.1,1.2,0.2,1.8,0.3c0.6,0.1,1.3,0,1.8-0.2l0,0c1.5-0.4,3.1-0.9,4.5-1.7c0.6-0.3,1-0.6,1.5-1l0,0
									c0.4-0.4,0.9-0.7,1.4-1.1c0.5-0.4,1-0.7,1.3-1.2l0,0.1c0-0.2,0.5-0.5,0.3-0.6l0.2-0.1c0.2-0.4,0.4-0.6,0.7-0.9
									c0.2-0.3,0.6-0.6,0.7-1.1l0,0.1c0.1-0.2,0.2-0.5,0.4-0.7c0,0,0,0,0,0.1c0.3-0.3,0.5-0.7,0.6-1.1c0.1-0.4,0.3-0.8,0.4-1.2
									l0.1,0.1c0-0.4,0.4-1.1,0.4-1.7l0,0l0-0.3l0.1,0C432.7,527.1,432.8,526.4,432.7,525.7z"/>
								<path fill="#FFFFFF" d="M431.4,518.8L431.4,518.8C431.4,518.8,431.4,518.8,431.4,518.8z"/>
								<path fill="#FFFFFF" d="M422.4,512.7C422.4,512.7,422.5,512.7,422.4,512.7C422.5,512.7,422.4,512.7,422.4,512.7z"/>
							</g>
						</g>
					</g>
				</g>
			</g>
			<path d="M416.2,516.2c0,0,0.6,6.1-2.1,9.6c-2.7,3.4-5.9,5.2-5.9,5.2s-1.4-7.9,1.7-11.1C412.9,516.7,416.2,516.2,416.2,516.2z"/>
			<path opacity="0.35" d="M417.2,515.8c0,0,0.4,7.8-2.2,11c-2.6,3.2-6,5.1-6,5.1s2.4,5.1,5.6,5c3.2-0.1,11.1-5.1,10.5-12.3
				C424.4,517.3,417.2,515.8,417.2,515.8z"/>
			<path opacity="0.15" d="M423.9,529.6c0,0,7.8-0.8,7.9-6.1c0.1-5.4-4.3-10.2-7.5-10.5c-3.2-0.3-9.1,2.5-9.1,2.5s6.2,0.2,8.1,5.3
				C425.3,525.7,423.9,529.6,423.9,529.6z"/>
			<path opacity="0.25" fill="#FFFFFF" d="M425.5,538c0,0-0.9,1.9-2.6,2.4c-1.7,0.4-4.1-0.3-4.1-0.3s2-0.3,3.3-0.9
				C423.5,538.6,425.5,538,425.5,538z"/>
			<path opacity="0.25" fill="#FFFFFF" d="M408.2,532.5c0,0-1.8-2.3-1.8-3.2c0-1,1.2-5.2,1.2-5.2s-0.3,2.3-0.1,4.3
				C407.8,530.4,408.2,532.5,408.2,532.5z"/>
		</g>
	</g>
	<g>
		<path opacity="5.000000e-02" fill="#AEB1AF" d="M423.3,566.9c-3.6-0.6-15.1,2.7-16,12.9c-0.9,10.2,8.7,14,11.6,14
			c2.8,0,12.8-3.5,13.8-13.6C433.9,568.2,423.3,566.9,423.3,566.9z"/>
		<g>
			<g opacity="0.15">
				<g>
					<g>
						<g>
							<g>
								<polygon fill="#FFFFFF" points="423.2,567.4 423.3,567.4 423.4,567.3 								"/>
								<path fill="#FFFFFF" d="M423.9,567.3C423.9,567.3,423.9,567.3,423.9,567.3c-0.2,0-0.3,0-0.4,0.1
									C423.6,567.5,423.8,567.2,423.9,567.3z"/>
								<path fill="#FFFFFF" d="M424,567.4c0.1,0.1,0.2,0,0.3,0C424.2,567.4,424,567.3,424,567.4z"/>
								<path fill="#FFFFFF" d="M432.3,576.1L432.3,576.1C432.3,576.1,432.3,576.1,432.3,576.1z"/>
								<path fill="#FFFFFF" d="M432.7,579.5L432.7,579.5c0-0.6,0.2-1.3,0-2l0,0c0-0.4-0.1-0.9-0.1-1.3c-0.1-0.4-0.2-0.8-0.3-1.2
									c-0.1-0.4-0.2-0.8-0.4-1.2c-0.2-0.4-0.3-0.8-0.5-1.1c0,0,0,0,0.1,0c-0.1-0.1-0.1-0.1-0.2-0.2c0,0,0,0,0.1,0
									c-0.1-0.4-0.6-0.9-0.6-1.1c-0.1-0.1-0.1-0.1-0.1,0c-0.8-1.1-1.9-2-3-2.7c0,0,0-0.1,0-0.1c-1.1-0.4-2.1-1-3.3-1.3
									c-0.1,0,0.1,0.1,0,0.1c0.3,0.2,0.7,0.1,1,0.3l-0.1,0c0.2,0.1,0.1-0.1,0.3,0c0.1,0.1,0,0,0,0.1c0.5,0.2,1,0.4,1.5,0.6
									c0.1,0.1,0.5,0.3,0.6,0.5c0.1,0,0.2,0.1,0.3,0.1c1.5,1.1,2.8,2.4,3.6,4.2c0.2,0.4,0.4,0.8,0.6,1.3c0.1,0.5,0.1,1,0.3,1.5
									c0,0,0,0,0,0c0.1,0.3,0.1,0.8,0.2,1.2l0.1,0.3c-0.1,2.5-0.4,5.1-1.5,7.3c-0.7,1.2-1.4,2.4-2.4,3.3c-0.4,0.5-0.9,0.9-1.4,1.4
									c-0.5,0.4-1,0.9-1.6,1.3c0,0,0,0,0-0.1c-0.6,0.5-1.3,0.8-2,1.2l0,0c-1.6,1-3.6,1.6-5.4,1.6c-2.2-0.3-4.5-1.4-6.4-2.9l0,0
									c-1.5-1.1-2.6-2.7-3.4-4.3c-0.8-1.7-1.5-3.7-1.3-5.7c0.1-0.3,0.1-0.6,0.1-1c0-0.3,0.1-0.7,0.1-1c0-0.7,0.2-1.4,0.5-1.9
									c1-2.1,2.1-4.1,3.7-5.8c1.7-1.4,3.4-2.7,5.5-3.2c0.9-0.5,2-0.5,3.1-0.7l0,0c0.4,0.1,0.8-0.3,1.1-0.2l0,0
									c0.2,0.1,0.5-0.3,0.6-0.2l0-0.1c0.3,0,0,0.1,0.2,0.1c0.1,0,0-0.1,0.2-0.1c0,0.2,0.6,0,0.6,0.2c-0.1,0,0.2,0.1-0.1,0.1
									c0.1,0,0.5,0.1,0.5-0.1c0.1-0.1,0.2-0.2,0-0.3l-0.1,0.1c-0.1-0.1-0.1,0-0.1-0.1c-0.3,0-0.4-0.2-0.6-0.2c0,0,0,0,0,0
									c-0.2,0.1-0.4,0.1-0.5,0l-0.1,0c-0.1-0.1-0.4,0.2-0.3,0c-0.3,0.1-0.7,0.1-1.1,0.2c-0.4,0.1-0.8,0.2-1.1,0.2
									c-0.1,0.1-0.6,0.2-0.4,0.2c-0.2-0.1-0.8,0-1,0.1c0,0,0,0,0,0c-0.5,0-0.4,0.3-0.9,0.2c0,0.2-0.7,0.2-0.8,0.5
									c-0.1,0-0.1,0-0.1-0.1c-0.7,0.3-1.4,0.6-1.9,0.9c-0.4,0.4-1.1,0.6-1.4,1c-0.3,0.2-0.8,0.5-1.2,0.9l0,0
									c-0.5,0.4-0.9,0.9-1.1,1.3c-0.3,0-0.4,0.2-0.6,0.4c-0.2,0.4-0.7,0.9-1,1.5c-0.1,0-0.2,0.4-0.4,0.4c-0.7,1.5-1.5,3.4-1.8,5.1
									l0,0c0,0.2,0.1,0.5,0.2,0.7c0,0,0,0,0,0c0,0.3-0.1,0.6-0.1,0.9c0,0,0,0,0-0.1c0,0.3-0.1,0.6,0,1l0,0l0.1,0.2
									c0,0-0.1,0-0.1-0.1c0.1,2.8,1.3,5.5,3.2,7.6l-0.1-0.1l0.4,0.4c0,0,0,0-0.1,0c0.2,0.3,0.5,0.5,0.7,0.7
									c0.3,0.2,0.5,0.4,0.8,0.6c0,0-0.1,0-0.1,0.1c0.5,0.2,0.5,0.6,0.9,0.6c0,0,0,0.1-0.1,0.1c1.2,0.7,2.5,1.4,3.8,1.8
									c0.6,0.1,1.2,0.2,1.8,0.3c0.6,0.1,1.3,0,1.8-0.2l0,0c1.5-0.4,3.1-0.9,4.5-1.7c0.6-0.3,1-0.6,1.5-1l0,0
									c0.4-0.4,0.9-0.7,1.4-1.1c0.5-0.4,1-0.7,1.3-1.2l0,0.1c0-0.2,0.5-0.5,0.3-0.6l0.2-0.1c0.2-0.4,0.4-0.6,0.7-0.9
									c0.2-0.3,0.6-0.6,0.7-1.1l0,0.1c0.1-0.2,0.2-0.5,0.4-0.7c0,0,0,0,0,0.1c0.3-0.3,0.5-0.7,0.6-1.1c0.1-0.4,0.3-0.8,0.4-1.2
									l0.1,0.1c0-0.4,0.4-1.1,0.4-1.7l0,0l0-0.3l0.1,0C432.7,580.9,432.8,580.2,432.7,579.5z"/>
								<path fill="#FFFFFF" d="M431.4,572.6L431.4,572.6C431.4,572.6,431.4,572.6,431.4,572.6z"/>
								<path fill="#FFFFFF" d="M422.4,566.5C422.4,566.5,422.5,566.5,422.4,566.5C422.5,566.5,422.4,566.5,422.4,566.5z"/>
							</g>
						</g>
					</g>
				</g>
			</g>
			<path d="M416.2,570.1c0,0,0.6,6.1-2.1,9.6c-2.7,3.4-5.9,5.2-5.9,5.2s-1.4-7.9,1.7-11.1C412.9,570.5,416.2,570.1,416.2,570.1z"/>
			<path opacity="0.35" d="M417.2,569.6c0,0,0.4,7.8-2.2,11c-2.6,3.2-6,5.1-6,5.1s2.4,5.1,5.6,5c3.2-0.1,11.1-5.1,10.5-12.3
				C424.4,571.1,417.2,569.6,417.2,569.6z"/>
			<path opacity="0.15" d="M423.9,583.4c0,0,7.8-0.8,7.9-6.1c0.1-5.4-4.3-10.2-7.5-10.5c-3.2-0.3-9.1,2.5-9.1,2.5s6.2,0.2,8.1,5.3
				C425.3,579.5,423.9,583.4,423.9,583.4z"/>
			<path opacity="0.25" fill="#FFFFFF" d="M425.5,591.8c0,0-0.9,1.9-2.6,2.4c-1.7,0.4-4.1-0.3-4.1-0.3s2-0.3,3.3-0.9
				C423.5,592.4,425.5,591.8,425.5,591.8z"/>
			<path opacity="0.25" fill="#FFFFFF" d="M408.2,586.3c0,0-1.8-2.3-1.8-3.2c0-1,1.2-5.2,1.2-5.2s-0.3,2.3-0.1,4.3
				C407.8,584.3,408.2,586.3,408.2,586.3z"/>
		</g>
	</g>
	<path opacity="0.5" d="M326.6,720.7c0,0,24.7-49.1,45-54.6c20.3-5.5,30.9,0,34.7,4.5c3.7,4.5,5.1,10.6,1.7,20.5
		c-1.1,3.3-4,8.2-7.9,13.3c-9.1,11.6-22.4,24.6-22.4,24.6s-23,13.4-33.4,8.4C324.7,728.1,326.6,720.7,326.6,720.7z"/>
	<path opacity="0.25" d="M380.9,712.6c0,0,22.8-19.7,22.5-31.3c-0.3-11.6-5.3-15.8-5.3-15.8s10.6,3.2,11.6,13.2
		c0.9,10-5.1,21.5-13.2,30c-8.7,9.1-16.4,17.9-16.4,17.9l-0.5-12.7L380.9,712.6z"/>
	<path opacity="0.25" d="M547.9,634.1c0,0-7.2-14.2-16.2-13.6c-9.1,0.6-26.5,17.4-26.2,30.7c0.3,13.2,5.9,16.8,10.6,17.4
		c4.7,0.6,10.3-1,10.3-1L547.9,634.1z"/>
	<polygon opacity="0.75" points="532.3,678.7 516.1,668.7 524.8,663.8 539.5,669.6 	"/>
	<path opacity="0.25" d="M561.8,540c0,0-12.2,8.6-13.7,8.6c-1.6,0-16.4-7.5-13.6-24.9c2.8-17.4,6.9-22.5,15.8-27.9
		c8.9-5.4,13.6-4.7,13.6-4.7L561.8,540z"/>
	<path opacity="0.25" d="M423.2,360.7c0,0,9.6,20.4,12,32.3c3.4,17-2.9,24.4-2.9,24.4s-11.4,3.6-19.8-7
		c-8.5-10.6-17.1-23.6-18.8-29.9c-1.7-6.2-6.7-24.2-8-27.2c-1.3-3-2.1-6.8-2.1-6.8l3.5-0.2"/>
	<path opacity="0.25" d="M258.9,442c0,0,9.7,0.9,15.8,3.6c3.8,1.7,12.6,6.9,22.9,14.7c11.9,9,25.8,15.9,25.8,15.9s12.6,3.9,19.5,2
		c6.9-1.8,22.1-11.8,19.3-27.7c-2.8-15.9-18.7-28.6-33.5-37.7c-14.8-9.2-47.6-16-47.6-16s-10.1,13-14.2,23.4
		C260.3,436.7,258.9,442,258.9,442z"/>
	<g>
		<path opacity="5.000000e-02" fill="#AEB1AF" d="M466.1,566.9c-3.6-0.6-15.1,2.7-16,12.9c-0.9,10.2,8.7,14,11.5,14
			c2.8,0,12.8-3.5,13.8-13.6C476.7,568.2,466.1,566.9,466.1,566.9z"/>
		<g>
			<g opacity="0.15">
				<g>
					<g>
						<g>
							<g>
								<polygon fill="#FFFFFF" points="466,567.4 466.1,567.4 466.2,567.3 								"/>
								<path fill="#FFFFFF" d="M466.7,567.3C466.7,567.3,466.7,567.3,466.7,567.3c-0.2,0-0.3,0-0.4,0.1
									C466.4,567.5,466.6,567.2,466.7,567.3z"/>
								<path fill="#FFFFFF" d="M466.8,567.4c0.1,0.1,0.2,0,0.3,0C467,567.4,466.8,567.3,466.8,567.4z"/>
								<path fill="#FFFFFF" d="M475.1,576.1L475.1,576.1C475.1,576.1,475.1,576.1,475.1,576.1z"/>
								<path fill="#FFFFFF" d="M475.5,579.5L475.5,579.5c0-0.6,0.2-1.3,0-2l0,0c0-0.4-0.1-0.9-0.1-1.3c-0.1-0.4-0.2-0.8-0.3-1.2
									c-0.1-0.4-0.2-0.8-0.4-1.2c-0.2-0.4-0.3-0.8-0.5-1.1c0,0,0,0,0.1,0c-0.1-0.1-0.1-0.1-0.2-0.2c0,0,0,0,0.1,0
									c-0.1-0.4-0.6-0.9-0.6-1.1c-0.1-0.1-0.1-0.1-0.1,0c-0.8-1.1-1.9-2-3-2.7c0,0,0-0.1,0-0.1c-1.1-0.4-2.1-1-3.3-1.3
									c-0.1,0,0.1,0.1,0,0.1c0.3,0.2,0.7,0.1,1,0.3l-0.1,0c0.2,0.1,0.1-0.1,0.3,0c0.1,0.1,0,0,0,0.1c0.5,0.2,1,0.4,1.5,0.6
									c0.1,0.1,0.5,0.3,0.6,0.5c0.1,0,0.2,0.1,0.3,0.1c1.5,1.1,2.8,2.4,3.6,4.2c0.2,0.4,0.4,0.8,0.6,1.3c0.1,0.5,0.1,1,0.3,1.5
									c0,0,0,0,0,0c0.1,0.3,0.1,0.8,0.2,1.2l0.1,0.3c-0.1,2.5-0.4,5.1-1.5,7.3c-0.7,1.2-1.4,2.4-2.4,3.3c-0.4,0.5-0.9,0.9-1.4,1.4
									c-0.5,0.4-1,0.9-1.6,1.3c0,0,0,0,0-0.1c-0.6,0.5-1.3,0.8-2,1.2l0,0c-1.6,1-3.6,1.6-5.4,1.6c-2.2-0.3-4.5-1.5-6.4-2.9l0,0
									c-1.5-1.1-2.6-2.7-3.4-4.3c-0.8-1.7-1.5-3.7-1.3-5.7c0.1-0.3,0.1-0.6,0.1-1c0-0.3,0.1-0.7,0.1-1c0-0.7,0.2-1.4,0.5-1.9
									c1-2.1,2.1-4.1,3.7-5.8c1.7-1.4,3.4-2.7,5.5-3.2c0.9-0.5,2-0.5,3.1-0.7l0,0c0.4,0.1,0.8-0.3,1.1-0.2l0,0
									c0.2,0.1,0.5-0.3,0.6-0.2l0-0.1c0.3,0,0,0.1,0.2,0.1c0.1,0,0-0.1,0.2-0.1c0,0.2,0.6,0,0.6,0.2c-0.1,0,0.2,0.1-0.1,0.1
									c0.1,0,0.5,0.1,0.5-0.1c0.1-0.1,0.2-0.2,0-0.3l-0.1,0.1c-0.1-0.1-0.1,0-0.1-0.1c-0.3,0-0.4-0.2-0.6-0.2c0,0,0,0,0,0
									c-0.2,0.1-0.4,0.1-0.5,0l-0.1,0c-0.1-0.1-0.4,0.2-0.3,0c-0.3,0.1-0.7,0.1-1.1,0.2c-0.4,0.1-0.8,0.2-1.1,0.2
									c-0.1,0.1-0.6,0.2-0.4,0.2c-0.2-0.1-0.8,0-1,0.1c0,0,0,0,0,0c-0.5,0-0.4,0.3-0.9,0.2c0,0.2-0.7,0.2-0.8,0.5
									c-0.1,0-0.1,0-0.1-0.1c-0.7,0.3-1.4,0.6-1.9,0.9c-0.4,0.4-1.1,0.6-1.4,1c-0.3,0.2-0.8,0.5-1.2,0.9l0,0
									c-0.5,0.4-0.9,0.9-1.1,1.3c-0.3,0-0.4,0.2-0.6,0.4c-0.2,0.4-0.7,0.9-1,1.5c-0.1,0-0.2,0.4-0.4,0.4c-0.7,1.5-1.5,3.4-1.8,5.1
									l0,0c0,0.2,0.1,0.5,0.2,0.7c0,0,0,0,0,0c0,0.3-0.1,0.6-0.1,0.9c0,0,0,0,0-0.1c0,0.3-0.1,0.6,0,1l0,0l0.1,0.2
									c0,0-0.1,0-0.1-0.1c0.1,2.8,1.3,5.5,3.2,7.6l-0.1-0.1l0.4,0.4c0,0,0,0-0.1,0c0.2,0.3,0.5,0.5,0.7,0.7
									c0.3,0.2,0.5,0.4,0.8,0.6c0,0-0.1,0-0.1,0.1c0.5,0.2,0.5,0.6,0.9,0.6c0,0,0,0.1-0.1,0.1c1.2,0.7,2.5,1.4,3.8,1.8
									c0.6,0.1,1.2,0.2,1.8,0.3c0.6,0.1,1.3,0,1.8-0.2l0,0c1.5-0.4,3.1-0.9,4.5-1.7c0.6-0.3,1-0.6,1.5-1l0,0
									c0.4-0.4,0.9-0.7,1.4-1.1c0.5-0.4,1-0.7,1.3-1.2l0,0.1c0-0.2,0.5-0.5,0.3-0.6l0.2-0.1c0.2-0.4,0.4-0.6,0.7-0.9
									c0.2-0.3,0.6-0.6,0.7-1.1l0,0.1c0.1-0.2,0.2-0.5,0.4-0.7c0,0,0,0,0,0.1c0.3-0.3,0.5-0.7,0.6-1.1c0.1-0.4,0.3-0.8,0.4-1.2
									l0.1,0.1c0-0.4,0.4-1.1,0.4-1.7l0,0l0-0.3l0.1,0C475.5,580.9,475.5,580.2,475.5,579.5z"/>
								<path fill="#FFFFFF" d="M474.2,572.6L474.2,572.6C474.2,572.6,474.2,572.6,474.2,572.6z"/>
								<path fill="#FFFFFF" d="M465.2,566.5C465.2,566.5,465.2,566.5,465.2,566.5C465.3,566.5,465.2,566.5,465.2,566.5z"/>
							</g>
						</g>
					</g>
				</g>
			</g>
			<path d="M459,570.1c0,0,0.6,6.1-2.1,9.6c-2.7,3.4-5.9,5.2-5.9,5.2s-1.4-7.9,1.7-11.1C455.7,570.5,459,570.1,459,570.1z"/>
			<path opacity="0.35" d="M460,569.6c0,0,0.4,7.8-2.2,11c-2.6,3.2-6,5.1-6,5.1s2.4,5.1,5.6,5c3.2-0.1,11.1-5.1,10.5-12.3
				C467.2,571.1,460,569.6,460,569.6z"/>
			<path opacity="0.15" d="M466.7,583.4c0,0,7.8-0.8,7.9-6.1c0.1-5.4-4.3-10.2-7.5-10.5c-3.2-0.3-9.1,2.5-9.1,2.5s6.2,0.2,8.1,5.3
				C468.1,579.5,466.7,583.4,466.7,583.4z"/>
			<path opacity="0.25" fill="#FFFFFF" d="M468.3,591.8c0,0-0.9,1.9-2.6,2.4c-1.7,0.4-4.1-0.3-4.1-0.3s2-0.3,3.3-0.9
				C466.3,592.4,468.3,591.8,468.3,591.8z"/>
			<path opacity="0.25" fill="#FFFFFF" d="M451,586.3c0,0-1.8-2.3-1.8-3.2c0-1,1.2-5.2,1.2-5.2s-0.3,2.3-0.1,4.3
				C450.6,584.3,451,586.3,451,586.3z"/>
		</g>
	</g>
	<g>
		<path opacity="5.000000e-02" fill="#AEB1AF" d="M466.1,513.1c-3.6-0.6-15.1,2.7-16,12.9c-0.9,10.2,8.7,14,11.5,14
			c2.8,0,12.8-3.5,13.8-13.6C476.7,514.4,466.1,513.1,466.1,513.1z"/>
		<g>
			<g opacity="0.15">
				<g>
					<g>
						<g>
							<g>
								<polygon fill="#FFFFFF" points="466,513.5 466.1,513.6 466.2,513.5 								"/>
								<path fill="#FFFFFF" d="M466.7,513.5C466.7,513.5,466.7,513.5,466.7,513.5c-0.2,0-0.3,0-0.4,0.1
									C466.4,513.7,466.6,513.4,466.7,513.5z"/>
								<path fill="#FFFFFF" d="M466.8,513.6c0.1,0.1,0.2,0,0.3,0C467,513.6,466.8,513.5,466.8,513.6z"/>
								<path fill="#FFFFFF" d="M475.1,522.3L475.1,522.3C475.1,522.3,475.1,522.3,475.1,522.3z"/>
								<path fill="#FFFFFF" d="M475.5,525.7L475.5,525.7c0-0.6,0.2-1.3,0-2l0,0c0-0.4-0.1-0.9-0.1-1.3c-0.1-0.4-0.2-0.8-0.3-1.2
									c-0.1-0.4-0.2-0.8-0.4-1.2c-0.2-0.4-0.3-0.8-0.5-1.1c0,0,0,0,0.1,0c-0.1-0.1-0.1-0.1-0.2-0.2c0,0,0,0,0.1,0
									c-0.1-0.4-0.6-0.9-0.6-1.1c-0.1-0.1-0.1-0.1-0.1,0c-0.8-1.1-1.9-2-3-2.7c0,0,0-0.1,0-0.1c-1.1-0.4-2.1-1-3.3-1.3
									c-0.1,0,0.1,0.1,0,0.1c0.3,0.2,0.7,0.1,1,0.3l-0.1,0c0.2,0.1,0.1-0.1,0.3,0c0.1,0.1,0,0,0,0.1c0.5,0.2,1,0.4,1.5,0.6
									c0.1,0.1,0.5,0.3,0.6,0.5c0.1,0,0.2,0.1,0.3,0.1c1.5,1.1,2.8,2.4,3.6,4.2c0.2,0.4,0.4,0.8,0.6,1.3c0.1,0.5,0.1,1,0.3,1.5
									c0,0,0,0,0,0c0.1,0.3,0.1,0.8,0.2,1.2l0.1,0.3c-0.1,2.5-0.4,5.1-1.5,7.3c-0.7,1.2-1.4,2.4-2.4,3.3c-0.4,0.5-0.9,0.9-1.4,1.4
									c-0.5,0.4-1,0.9-1.6,1.3c0,0,0,0,0-0.1c-0.6,0.5-1.3,0.8-2,1.2l0,0c-1.6,1-3.6,1.6-5.4,1.6c-2.2-0.3-4.5-1.5-6.4-2.9l0,0
									c-1.5-1.1-2.6-2.7-3.4-4.3c-0.8-1.7-1.5-3.7-1.3-5.7c0.1-0.3,0.1-0.6,0.1-1c0-0.3,0.1-0.7,0.1-1c0-0.7,0.2-1.4,0.5-1.9
									c1-2.1,2.1-4.1,3.7-5.8c1.7-1.4,3.4-2.7,5.5-3.2c0.9-0.5,2-0.5,3.1-0.7l0,0c0.4,0.1,0.8-0.3,1.1-0.2l0,0
									c0.2,0.1,0.5-0.3,0.6-0.2l0-0.1c0.3,0,0,0.1,0.2,0.1c0.1,0,0-0.1,0.2-0.1c0,0.2,0.6,0,0.6,0.2c-0.1,0,0.2,0.1-0.1,0.1
									c0.1,0,0.5,0.1,0.5-0.1c0.1-0.1,0.2-0.2,0-0.3L466,513c-0.1-0.1-0.1,0-0.1-0.1c-0.3,0-0.4-0.2-0.6-0.2c0,0,0,0,0,0
									c-0.2,0.1-0.4,0.1-0.5,0l-0.1,0c-0.1-0.1-0.4,0.2-0.3,0c-0.3,0.1-0.7,0.1-1.1,0.2c-0.4,0.1-0.8,0.2-1.1,0.2
									c-0.1,0.1-0.6,0.2-0.4,0.2c-0.2-0.1-0.8,0-1,0.1c0,0,0,0,0,0c-0.5,0-0.4,0.3-0.9,0.2c0,0.2-0.7,0.2-0.8,0.5
									c-0.1,0-0.1,0-0.1-0.1c-0.7,0.3-1.4,0.6-1.9,0.9c-0.4,0.4-1.1,0.6-1.4,1c-0.3,0.2-0.8,0.5-1.2,0.9l0,0
									c-0.5,0.4-0.9,0.9-1.1,1.3c-0.3,0-0.4,0.2-0.6,0.4c-0.2,0.4-0.7,0.9-1,1.5c-0.1,0-0.2,0.4-0.4,0.4c-0.7,1.5-1.5,3.4-1.8,5.1
									l0,0c0,0.2,0.1,0.5,0.2,0.7c0,0,0,0,0,0c0,0.3-0.1,0.6-0.1,0.9c0,0,0,0,0-0.1c0,0.3-0.1,0.6,0,1l0,0l0.1,0.2
									c0,0-0.1,0-0.1-0.1c0.1,2.8,1.3,5.5,3.2,7.6l-0.1-0.1l0.4,0.4c0,0,0,0-0.1,0c0.2,0.3,0.5,0.5,0.7,0.7
									c0.3,0.2,0.5,0.4,0.8,0.6c0,0-0.1,0-0.1,0.1c0.5,0.2,0.5,0.6,0.9,0.6c0,0,0,0.1-0.1,0.1c1.2,0.7,2.5,1.4,3.8,1.8
									c0.6,0.1,1.2,0.2,1.8,0.3c0.6,0.1,1.3,0,1.8-0.2l0,0c1.5-0.4,3.1-0.9,4.5-1.7c0.6-0.3,1-0.6,1.5-1l0,0
									c0.4-0.4,0.9-0.7,1.4-1.1c0.5-0.4,1-0.7,1.3-1.2l0,0.1c0-0.2,0.5-0.5,0.3-0.6l0.2-0.1c0.2-0.4,0.4-0.6,0.7-0.9
									c0.2-0.3,0.6-0.6,0.7-1.1l0,0.1c0.1-0.2,0.2-0.5,0.4-0.7c0,0,0,0,0,0.1c0.3-0.3,0.5-0.7,0.6-1.1c0.1-0.4,0.3-0.8,0.4-1.2
									l0.1,0.1c0-0.4,0.4-1.1,0.4-1.7l0,0l0-0.3l0.1,0C475.5,527.1,475.5,526.4,475.5,525.7z"/>
								<path fill="#FFFFFF" d="M474.2,518.8L474.2,518.8C474.2,518.8,474.2,518.8,474.2,518.8z"/>
								<path fill="#FFFFFF" d="M465.2,512.7C465.2,512.7,465.2,512.7,465.2,512.7C465.3,512.7,465.2,512.7,465.2,512.7z"/>
							</g>
						</g>
					</g>
				</g>
			</g>
			<path d="M459,516.2c0,0,0.6,6.1-2.1,9.6c-2.7,3.4-5.9,5.2-5.9,5.2s-1.4-7.9,1.7-11.1C455.7,516.7,459,516.2,459,516.2z"/>
			<path opacity="0.35" d="M459.9,515.8c0,0,0.4,7.7-2.2,11c-2.6,3.2-6,5.1-6,5.1s2.4,5.1,5.6,5c3.2-0.1,11.1-5.1,10.5-12.3
				C467.2,517.3,459.9,515.8,459.9,515.8z"/>
			<path opacity="0.15" d="M466.7,529.6c0,0,7.8-0.8,7.9-6.1c0.1-5.4-4.3-10.2-7.5-10.5c-3.2-0.3-9.1,2.5-9.1,2.5s6.2,0.2,8.1,5.3
				C468.1,525.7,466.7,529.6,466.7,529.6z"/>
			<path opacity="0.25" fill="#FFFFFF" d="M468.3,538c0,0-0.9,1.9-2.6,2.4c-1.7,0.4-4.1-0.3-4.1-0.3s2-0.3,3.3-0.9
				C466.3,538.6,468.3,538,468.3,538z"/>
			<path opacity="0.25" fill="#FFFFFF" d="M451,532.5c0,0-1.8-2.3-1.8-3.2c0-1,1.2-5.2,1.2-5.2s-0.3,2.3-0.1,4.3
				C450.6,530.4,451,532.5,451,532.5z"/>
		</g>
	</g>
	<g opacity="0.5">
		<path fill="#AFB1AF" d="M609.6,477.4c0,0,50.1,12.2,51.2,13.4c1.1,1.2-1,3.2-36.5,5.1c-35.6,2-75.9,1.2-75.9,1.2l1.9-1.4
			c0,0,31.6,0.2,42.8,0c11.2-0.2,68.3-2.8,63.4-5C652.3,488.9,609.6,477.4,609.6,477.4z"/>
	</g>
	<path stroke="#AFB1AF" d="M311.6,848.6c0,0-5.5-1.9-7.5-2.6c-2-0.6-12.2-3-15.1-2.9c-2.9,0.1-6.6,0.7-8.1,1
		c-1.5,0.3-5.5-0.4-5.5-0.4v-2.9l9.4-5.4c0,0-3.3-0.1-4.2-0.5c-0.9-0.4-2-1-2.6-0.9c-0.6,0.1-3.3,1.6-3.6,2.7
		c-0.4,1.2-1.9,4.5-1.1,6.1c0.9,1.9,4.2,5.6,6.3,6.9c2.1,1.3,10.4,2.9,15.3,3.3c4.9,0.4,9,0.1,10.8-0.6
		C309.6,850.8,311.6,848.6,311.6,848.6z"/>
	<g>
		<g>
			<g>
				<path fill="#FFFFFF" d="M452.6,730C452.6,730,452.6,730,452.6,730l-27.7,0c-8.5,0-15.4-7-15.4-15.6c0-4.1,1.6-8,4.4-10.9
					c2.9-3,6.8-4.7,11-4.7c0,0,0,0,0,0l27.7,0c8.5,0,15.4,7,15.4,15.6C468,723,461.1,730,452.6,730z M424.9,701
					c-3.6,0-6.9,1.4-9.4,4c-2.4,2.5-3.8,5.8-3.8,9.3c0,7.3,5.9,13.3,13.2,13.3l27.7,0c0,0,0,0,0,0c7.3,0,13.2-6,13.2-13.3
					c0-7.3-5.9-13.3-13.2-13.3L424.9,701C424.9,701,424.9,701,424.9,701z"/>
			</g>
		</g>
		<polygon fill="#FFFFFF" points="446.9,712.9 455.9,703.8 446.9,703.8 		"/>
		<polygon fill="#FFFFFF" points="446.9,715.7 455.9,724.9 446.9,724.9 		"/>
		<rect x="437.4" y="703.8" fill="#FFFFFF" width="7.5" height="21.1"/>
		<path fill="#FFFFFF" d="M415,714.3c0-5.6,4.3-10.2,9.7-10.5l0,21.1C419.3,724.5,415,719.9,415,714.3L415,714.3z M435.5,712.9
			l-9.1-9.2l9.1,0L435.5,712.9z M435.5,715.7l-9.1,9.2l9.1,0L435.5,715.7z"/>
	</g>
	<g>
	</g>
</g>
</svg>
