<?xml version="1.0" encoding="utf-8"?>
<!-- Generator: Adobe Illustrator 26.0.2, SVG Export Plug-In . SVG Version: 6.00 Build 0)  -->
<svg version="1.1" xmlns="http://www.w3.org/2000/svg" xmlns:xlink="http://www.w3.org/1999/xlink" x="0px" y="0px"
	 viewBox="0 0 610.4 1000" enable-background="new 0 0 747.4 1000" xml:space="preserve">

<g id="OUTLINE">
	<path fill="#FFFFFF" stroke="#A39D9B" stroke-width="1.4142" stroke-miterlimit="10" d="M700.8,484.3c0,0-1.1-14.2-1.1-18.6
		c0-4.4,4.4-98.4-15.3-133.4c-19.7-35-60.2-68.9-64.5-70c-0.4-0.1-1.1-0.3-2.2-0.7h0c0,0,0,0,0,0c-5.2-1.8-17.9-6.7-32.1-12.5
		c-0.9-0.4-1.7-0.7-2.6-1.1c-1.2-0.5-2.5-1-3.7-1.5c-0.9-0.4-1.8-0.8-2.7-1.1c-1.2-0.5-2.5-1-3.7-1.6c-1.5-0.7-3.1-1.3-4.6-2
		c-3.2-1.4-6.3-2.8-9.4-4.2c-6.1-2.8-11.7-5.5-16.4-7.9c-0.8-0.4-1.5-0.8-2.3-1.2c-1.5-0.8-2.8-1.6-4-2.3c-0.6-0.4-1.2-0.7-1.7-1.1
		c-1.7-1.1-3.5-2.3-5.4-3.5c-1.2-0.8-2.4-1.7-3.7-2.5c-1.2-0.9-2.5-1.7-3.7-2.6c-2.5-1.7-5-3.5-7.4-5.3c-1.2-0.9-2.4-1.8-3.6-2.7
		c-2.4-1.8-4.8-3.5-7-5.2c-2.2-1.7-4.4-3.3-6.4-4.8c-1-0.8-1.9-1.5-2.9-2.2c-1.4-1.1-2.6-2.1-3.8-3c-0.4-0.3-0.8-0.6-1.1-0.9
		c-0.7-0.6-1.4-1.1-2-1.6c-0.9-0.7-1.7-1.4-2.3-1.9c-0.7-0.6-1.4-1.3-2.1-2c-0.7-0.7-1.4-1.5-2.1-2.3c-0.4-0.4-0.7-0.8-1.1-1.2
		c-0.7-0.8-1.4-1.7-2.1-2.6c-1-1.3-2.1-2.6-3.1-3.9c-0.7-0.8-1.3-1.6-2-2.4c-0.3-0.4-0.7-0.8-1-1.1c-1-1.1-1.9-2-2.9-2.7
		c-0.8-0.6-1.6-1.1-2.3-1.4c-5.5-2.2-13.1-6.6-13.1-6.6l-7.7-14.2c0,0-31.7-12-58-12c-6,0-34.4,0-40.5,0c-26.2,0-58,12-58,12
		l-7.7,14.2c0,0-7.7,4.4-13.1,6.6c-1.2,0.5-2.5,1.5-3.9,2.8h0c-2.3,2.2-4.7,5.4-7.2,8.5c-0.6,0.8-1.2,1.6-1.9,2.3
		c-1.6,1.9-3.2,3.7-4.8,5.2c-0.3,0.3-0.6,0.6-0.9,0.8c-0.4,0.3-0.9,0.7-1.4,1.2c-0.3,0.2-0.6,0.5-0.9,0.7c-1.8,1.5-4.2,3.3-6.9,5.4
		c-0.9,0.7-1.9,1.4-2.9,2.2c-1,0.8-2,1.5-3.1,2.4c-1.1,0.8-2.2,1.6-3.3,2.5c-1.7,1.3-3.4,2.6-5.2,3.9c-8.3,6.1-17.5,12.6-25.6,17.9
		c-6.4,4.1-18,9.7-30.6,15.2c-1.1,0.5-2.3,1-3.5,1.5c-17.4,7.6-36,14.9-45.4,18.4c-3.1,1.2-5.2,1.9-5.9,2.1c-0.1,0-0.3,0.1-0.5,0.2
		c-0.6,0.3-1.5,0.8-2.7,1.7c-10.9,7.6-44.1,37.5-61.4,68.1c-19.7,35-15.3,129.1-15.3,133.4c0,4.4-1.1,18.6-1.1,18.6l-3.3,6.6
		c0,0,37.2,9.8,68.9,9.8c31.7,0,49.2-5.5,49.2-5.5l-1.1-29.5c0,0,0.5,1,1.3,2.7v3h1.4c0,0.1,0.1,0.2,0.1,0.3c0.2,0.5,0.4,1,0.7,1.6
		c0.1,0.3,0.2,0.5,0.3,0.8c0.2,0.5,0.4,1,0.6,1.5c0,0.1,0.1,0.2,0.1,0.3c0.1,0.3,0.2,0.5,0.3,0.8c0.2,0.5,0.3,0.9,0.5,1.4
		c0.1,0.3,0.2,0.6,0.3,0.9c0.1,0.2,0.1,0.4,0.2,0.6c0.1,0.4,0.3,0.9,0.4,1.3c0.1,0.4,0.3,0.9,0.4,1.3c0,0.1,0.1,0.3,0.1,0.4
		c0.1,0.4,0.2,0.8,0.4,1.3c0.1,0.5,0.3,1.1,0.4,1.6c0,0.1,0,0.2,0.1,0.2c0.1,0.4,0.2,0.8,0.3,1.2c0.1,0.7,0.3,1.3,0.4,2
		c0,0,0,0.1,0,0.1c0.1,0.3,0.1,0.7,0.2,1c0.2,1,0.3,2.1,0.4,3.1c0,0.5,0.1,1.1,0.1,1.7c0,0.1,0,0.2,0,0.3c0,0.6,0.1,1.2,0.1,1.8
		c0,0,0,0,0,0.1h-0.7v6.4h1.1c0.3,4.1,0.6,8.8,1.1,13.9c0,0.1,0,0.2,0,0.4c0.1,1.2,0.2,2.4,0.3,3.6c0,0.1,0,0.2,0,0.3
		c0.1,1.3,0.2,2.6,0.4,4c0,0.1,0,0.3,0,0.4c0.1,0.8,0.2,1.7,0.3,2.5c0,0.1,0,0.1,0,0.2c0,0.3,0.1,0.5,0.1,0.8c0,0.2,0.1,0.5,0.1,0.7
		c0.1,1.3,0.3,2.7,0.5,4c0,0,0,0,0,0.1c0,0.2,0.1,0.4,0.1,0.7c0,0,0,0.1,0,0.1c0.1,1,0.2,2,0.4,3c0,0.3,0.1,0.5,0.1,0.8
		c0.1,0.8,0.2,1.7,0.3,2.5c0,0,0,0,0,0c1.7,12.3,4.2,23.8,7.6,30.6c8.7,17.5,25.2,121.4,27.3,131.2c2.2,9.8-12.1,74.2-12.1,82.9
		c0,8.7,367.1,11.4,367.1,2.7c0-8.7-14.9-75.7-12.7-85.6c2.2-9.8,18.6-113.7,27.3-131.2c2.6-5.1,4.6-12.9,6.1-21.6h0c0,0,0,0,0,0
		c0.4-2,0.7-4.1,1-6.2c0,0,0,0,0-0.1c0.3-1.9,0.6-3.8,0.8-5.7c0,0,0-0.1,0-0.1c0-0.1,0-0.3,0.1-0.4c0,0,0-0.1,0-0.1
		c0.3-2.1,0.5-4.2,0.8-6.4c0,0,0,0,0-0.1c0.1-0.8,0.2-1.6,0.3-2.4c0,0,0,0,0,0c0,0,0,0,0,0c0.5-4.7,0.9-9.3,1.3-13.6
		c0,0,0-0.1,0-0.1c0.1-1,0.2-2,0.2-3c0-0.1,0-0.1,0-0.2c0.1-1,0.2-2,0.2-2.9c0,0,0,0,0,0c0.2-3.3,0.5-6.4,0.6-9l0,0
		c0-0.5,0.1-1,0.1-1.5c0-0.2,0-0.4,0-0.5c0-0.4,0.1-0.8,0.1-1.2c0-0.2,0-0.4,0-0.6c0-0.3,0-0.6,0.1-0.9c0-0.2,0-0.3,0-0.5
		c0-0.1,0-0.2,0-0.3c0-0.3,0-0.5,0.1-0.7c0-0.2,0-0.4,0-0.5c0,0,0,0,0,0c0.1-1.1,0.2-2.2,0.4-3.3c0-0.2,0.1-0.5,0.1-0.7
		c0.2-1,0.4-2,0.6-3c0-0.1,0-0.2,0.1-0.3c0.2-0.7,0.3-1.4,0.5-2.1c0-0.1,0.1-0.3,0.1-0.4c0.2-0.7,0.4-1.3,0.6-2
		c0-0.2,0.1-0.3,0.1-0.5c0.2-0.6,0.4-1.2,0.6-1.8c0.1-0.2,0.1-0.4,0.2-0.6c0.2-0.5,0.3-1,0.5-1.5c0.1-0.3,0.2-0.6,0.3-0.8
		c0.1-0.4,0.3-0.8,0.4-1.1c0.1-0.4,0.3-0.7,0.4-1.1c0.4-1.1,0.9-2.1,1.3-3c0-0.1,0.1-0.2,0.1-0.3c0.2-0.5,0.4-0.9,0.6-1.4
		c0,0,0,0,0,0c1-2.2,1.8-3.6,1.8-3.6l-1.1,29.5c0,0,17.5,5.5,49.2,5.5c31.7,0,68.9-9.8,68.9-9.8L700.8,484.3z"/>
</g>
<g id="BACK_BODY">	
<g id="SHIRT_LOWER_BODY">
	<path fill="#FFFFFF" d="M617.7,261.6c-12.2-4.3-66-25.4-83.1-36.5c-18.6-12-42.7-30.6-49.2-36.1c-5.7-4.7-11.3-14.3-16.3-18.3
		c-23.2-2.9-69.8-8.4-97.7-8.8c-29.8-0.4-83.9,6.9-106.4,10.2c-4.6,4.5-9.6,12.6-14.7,16.9c-6.6,5.5-30.6,24.1-49.2,36.1
		c-18.6,12-80.9,36.1-85.3,37.2c-0.5,0.1-1.6,0.8-3.2,1.9c1.7,33.1,16.8,91.5,21.8,119.5c5.5,30.6,16.4,53.6,16.4,66.7
		c0,4,0,11.4,0,19.8c2.4,5.2,5.8,14.3,6.6,22.8c1.1,13.1,3.3,61.2,12,78.7c8.7,17.5,25.2,121.4,27.3,131.2
		c2.2,9.8-12.1,74.2-12.1,82.9c0,8.7,367.1,11.4,367.1,2.7s-14.9-75.7-12.7-85.6c2.2-9.8,18.6-113.7,27.3-131.2s10.9-65.6,12-78.7
		c0.8-9.1,4.7-18.7,7-23.7c1.3-8.3,2.7-17.8,3.9-26.6c3.3-23,16.4-117,24.1-140C617.9,289,618.2,272.6,617.7,261.6z"/>
</g>
<g id="CAMO3">
	<g>
		<g>
			<g>
				<rect x="290.8" y="490.6" fill="#FFFFFF" width="7" height="6.4"/>
				<rect x="290.8" y="490.6" fill="#FFFFFF" width="7" height="6.4"/>
				<rect x="276.7" y="401.3" fill="#FFFFFF" width="7" height="6.4"/>
				<rect x="276.7" y="401.3" fill="#FFFFFF" width="7" height="6.4"/>
				<polygon fill="#FFFFFF" points="297.8,433.2 297.8,426.8 290.8,426.8 290.8,433.2 283.7,433.2 276.7,433.2 276.7,426.8 
					269.6,426.8 269.6,433.2 269.6,439.6 262.6,439.6 262.6,433.2 255.5,433.2 255.5,426.8 248.5,426.8 248.5,433.2 248.5,439.6 
					255.5,439.6 255.5,445.9 255.5,452.3 248.5,452.3 248.5,458.7 255.5,458.7 255.5,465.1 262.6,465.1 262.6,458.7 269.6,458.7 
					269.6,465.1 269.6,471.4 276.7,471.4 276.7,465.1 283.7,465.1 283.7,458.7 276.7,458.7 276.7,452.3 276.7,445.9 283.7,445.9 
					283.7,439.6 290.8,439.6 290.8,445.9 297.8,445.9 304.8,445.9 304.8,439.6 297.8,439.6 				"/>
				<polygon fill="#FFFFFF" points="297.8,433.2 297.8,426.8 290.8,426.8 290.8,433.2 283.7,433.2 276.7,433.2 276.7,426.8 
					269.6,426.8 269.6,433.2 269.6,439.6 262.6,439.6 262.6,433.2 255.5,433.2 255.5,426.8 248.5,426.8 248.5,433.2 248.5,439.6 
					255.5,439.6 255.5,445.9 255.5,452.3 248.5,452.3 248.5,458.7 255.5,458.7 255.5,465.1 262.6,465.1 262.6,458.7 269.6,458.7 
					269.6,465.1 269.6,471.4 276.7,471.4 276.7,465.1 283.7,465.1 283.7,458.7 276.7,458.7 276.7,452.3 276.7,445.9 283.7,445.9 
					283.7,439.6 290.8,439.6 290.8,445.9 297.8,445.9 304.8,445.9 304.8,439.6 297.8,439.6 				"/>
				<polygon fill="#FFFFFF" points="262.6,535.2 262.6,528.8 269.6,528.8 269.6,522.4 262.6,522.4 255.5,522.4 255.5,528.8 
					248.5,528.8 248.5,522.4 241.5,522.4 241.5,528.8 234.4,528.8 234.4,535.2 234.4,541.5 234.4,547.9 241.5,547.9 241.5,541.5 
					248.5,541.5 248.5,547.9 255.5,547.9 262.6,547.9 262.6,554.3 262.6,560.7 269.6,560.7 276.7,560.7 276.7,554.3 269.6,554.3 
					269.6,547.9 269.6,541.5 276.7,541.5 276.7,535.2 269.6,535.2 				"/>
				<polygon fill="#FFFFFF" points="262.6,535.2 262.6,528.8 269.6,528.8 269.6,522.4 262.6,522.4 255.5,522.4 255.5,528.8 
					248.5,528.8 248.5,522.4 241.5,522.4 241.5,528.8 234.4,528.8 234.4,535.2 234.4,541.5 234.4,547.9 241.5,547.9 241.5,541.5 
					248.5,541.5 248.5,547.9 255.5,547.9 262.6,547.9 262.6,554.3 262.6,560.7 269.6,560.7 276.7,560.7 276.7,554.3 269.6,554.3 
					269.6,547.9 269.6,541.5 276.7,541.5 276.7,535.2 269.6,535.2 				"/>
				<path fill="#FFFFFF" d="M142.8,395h7v-6.4v-6.4h-7h-7v6.4h-0.5c0.9,4.4,1.9,8.7,2.9,12.7h4.7V395z"/>
				<rect x="241.5" y="445.9" fill="#FFFFFF" width="7" height="6.4"/>
				<rect x="241.5" y="445.9" fill="#FFFFFF" width="7" height="6.4"/>
				<rect x="269.6" y="407.7" fill="#FFFFFF" width="7" height="6.4"/>
				<rect x="269.6" y="407.7" fill="#FFFFFF" width="7" height="6.4"/>
				<path fill="#FFFFFF" d="M150.7,465.1h-0.8v6.4h1.4c-0.2-0.4-0.3-0.8-0.5-1.2C150.7,468.5,150.7,466.7,150.7,465.1z"/>
				<path fill="#FFFFFF" d="M164,471.4v6.4v6.4h7v-6.4h7h7v-6.4h7v-6.4h-7h-7v6.4h-7v-6.4v-6.4v-6.4h-7v6.4h-7v6.4h-6.2
					c0,1.7,0,3.4,0,5.2c0.2,0.4,0.3,0.8,0.5,1.2h5.7H164z"/>
				<path fill="#FFFFFF" d="M150.7,465.1h-0.8v6.4h1.4c-0.2-0.4-0.3-0.8-0.5-1.2C150.7,468.5,150.7,466.7,150.7,465.1z"/>
				<path fill="#FFFFFF" d="M164,471.4v6.4v6.4h7v-6.4h7h7v-6.4h7v-6.4h-7h-7v6.4h-7v-6.4v-6.4v-6.4h-7v6.4h-7v6.4h-6.2
					c0,1.7,0,3.4,0,5.2c0.2,0.4,0.3,0.8,0.5,1.2h5.7H164z"/>
				<path fill="#FFFFFF" d="M171,541.5h7v-6.4h7v-6.4v-6.4h-7V516h-7v-6.4h-7h-5.5c0.7,9.7,1.8,21.6,3.4,32.8l9.1,3.5V541.5z"/>
				<path fill="#FFFFFF" d="M171,541.5h7v-6.4h7v-6.4v-6.4h-7V516h-7v-6.4h-7h-5.5c0.7,9.7,1.8,21.6,3.4,32.8l9.1,3.5V541.5z"/>
				<polygon fill="#FFFFFF" points="178.1,547.9 176,547.9 185.1,551.4 185.1,547.9 185.1,541.5 178.1,541.5 				"/>
				<polygon fill="#FFFFFF" points="178.1,547.9 176,547.9 185.1,551.4 185.1,547.9 185.1,541.5 178.1,541.5 				"/>
				<polygon fill="#FFFFFF" points="354.1,426.8 347.1,426.8 347.1,433.2 347.1,439.6 354.1,439.6 354.1,433.2 361.2,433.2 
					361.2,426.8 363.6,426.8 354.1,423.2 				"/>
				<polygon fill="#FFFFFF" points="354.1,426.8 347.1,426.8 347.1,433.2 347.1,439.6 354.1,439.6 354.1,433.2 361.2,433.2 
					361.2,426.8 363.6,426.8 354.1,423.2 				"/>
				<rect x="326" y="586.1" fill="#FFFFFF" width="7" height="6.4"/>
				<rect x="326" y="586.1" fill="#FFFFFF" width="7" height="6.4"/>
				<polygon fill="#FFFFFF" points="318.9,592.5 311.9,592.5 311.9,598.9 311.9,600 325.6,605.3 326,605.3 326,598.9 318.9,598.9 
									"/>
				<polygon fill="#FFFFFF" points="318.9,592.5 311.9,592.5 311.9,598.9 311.9,600 325.6,605.3 326,605.3 326,598.9 318.9,598.9 
									"/>
				<rect x="340.1" y="484.2" fill="#FFFFFF" width="7" height="6.4"/>
				<rect x="340.1" y="484.2" fill="#FFFFFF" width="7" height="6.4"/>
				<polygon fill="#FFFFFF" points="333,465.1 333,471.4 326,471.4 326,465.1 318.9,465.1 318.9,471.4 311.9,471.4 311.9,477.8 
					304.8,477.8 304.8,471.4 304.8,465.1 297.8,465.1 290.8,465.1 290.8,471.4 283.7,471.4 283.7,477.8 290.8,477.8 290.8,484.2 
					297.8,484.2 297.8,490.6 304.8,490.6 304.8,484.2 311.9,484.2 318.9,484.2 326,484.2 326,490.6 333,490.6 333,484.2 
					340.1,484.2 340.1,477.8 340.1,471.4 347.1,471.4 347.1,465.1 340.1,465.1 				"/>
				<polygon fill="#FFFFFF" points="333,465.1 333,471.4 326,471.4 326,465.1 318.9,465.1 318.9,471.4 311.9,471.4 311.9,477.8 
					304.8,477.8 304.8,471.4 304.8,465.1 297.8,465.1 290.8,465.1 290.8,471.4 283.7,471.4 283.7,477.8 290.8,477.8 290.8,484.2 
					297.8,484.2 297.8,490.6 304.8,490.6 304.8,484.2 311.9,484.2 318.9,484.2 326,484.2 326,490.6 333,490.6 333,484.2 
					340.1,484.2 340.1,477.8 340.1,471.4 347.1,471.4 347.1,465.1 340.1,465.1 				"/>
				<polygon fill="#FFFFFF" points="558.4,553 565.4,550.3 565.4,547.9 558.4,547.9 				"/>
				<polygon fill="#FFFFFF" points="558.4,553 565.4,550.3 565.4,547.9 558.4,547.9 				"/>
				<rect x="551.4" y="465.1" fill="#FFFFFF" width="7" height="6.4"/>
				<polygon fill="#FFFFFF" points="558.4,509.7 558.4,516 565.4,516 572.5,516 572.5,509.7 565.4,509.7 				"/>
				<path fill="#FFFFFF" d="M579.5,471.4h-7h-7v-6.4h7v-6.4h-7v-6.4v-6.4v-6.4h-7h-7v6.4h-7v6.4h-7v6.4v6.4v6.4v6.4h7v6.4v6.4v6.4
					h-7v-6.4h-7v-6.4v-6.4h-7v-6.4h-7v-6.4h-7h-7v-6.4h-7v-6.4h-7v-6.4h-7h-7v6.4v6.4h7v6.4h7v6.4h7h7v6.4h7v6.4h7v6.4h-7v6.4h-7
					v6.4v6.4v6.4h-7v6.4h7h7V516h7v-6.4h7h7v6.4v6.4v6.4h-7v6.4h7v6.4h7h7v6.4h7h7v-6.4v-6.4h-7v-6.4h7h7v-6.4h7v6.4h3
					c1-9.4,1.7-18.5,2.2-25.5h-5.1v-6.4h-7v-6.4h7v-6.4v-6.4h7v6.4v1.7c1.5-6.6,4.1-12.9,5.8-16.6c0.2-1.4,0.4-2.8,0.6-4.3h-6.5
					V471.4z"/>
				<path fill="#FFFFFF" d="M579.5,471.4h-7h-7v-6.4h7v-6.4h-7v-6.4v-6.4v-6.4h-7h-7v6.4h-7v6.4h-7v6.4v6.4v6.4v6.4h7v6.4v6.4v6.4
					h-7v-6.4h-7v-6.4v-6.4h-7v-6.4h-7v-6.4h-7h-7v-6.4h-7v-6.4h-7v-6.4h-7h-7v6.4v6.4h7v6.4h7v6.4h7h7v6.4h7v6.4h7v6.4h-7v6.4h-7
					v6.4v6.4v6.4h-7v6.4h7h7V516h7v-6.4h7h7v6.4v6.4v6.4h-7v6.4h7v6.4h7h7v6.4h7h7v-6.4v-6.4h-7v-6.4h7h7v-6.4h7v6.4h3
					c1-9.4,1.7-18.5,2.2-25.5h-5.1v-6.4h-7v-6.4h7v-6.4v-6.4h7v6.4v1.7c1.5-6.6,4.1-12.9,5.8-16.6c0.2-1.4,0.4-2.8,0.6-4.3h-6.5
					V471.4z M551.4,471.4v-6.4h7v6.4H551.4z M572.5,509.7v6.4h-7h-7v-6.4h7H572.5z"/>
				<rect x="530.2" y="445.9" fill="#FFFFFF" width="7" height="6.4"/>
				<rect x="530.2" y="445.9" fill="#FFFFFF" width="7" height="6.4"/>
				<polygon fill="#FFFFFF" points="480.9,465.1 473.9,465.1 466.8,465.1 466.8,471.4 459.8,471.4 459.8,465.1 459.8,458.7 
					452.7,458.7 445.7,458.7 445.7,465.1 438.7,465.1 438.7,471.4 445.7,471.4 452.7,471.4 452.7,477.8 459.8,477.8 466.8,477.8 
					466.8,484.2 473.9,484.2 480.9,484.2 480.9,477.8 488,477.8 488,471.4 480.9,471.4 				"/>
				<polygon fill="#FFFFFF" points="480.9,465.1 473.9,465.1 466.8,465.1 466.8,471.4 459.8,471.4 459.8,465.1 459.8,458.7 
					452.7,458.7 445.7,458.7 445.7,465.1 438.7,465.1 438.7,471.4 445.7,471.4 452.7,471.4 452.7,477.8 459.8,477.8 466.8,477.8 
					466.8,484.2 473.9,484.2 480.9,484.2 480.9,477.8 488,477.8 488,471.4 480.9,471.4 				"/>
				<rect x="480.9" y="484.2" fill="#FFFFFF" width="7" height="6.4"/>
				<rect x="480.9" y="484.2" fill="#FFFFFF" width="7" height="6.4"/>
				<path fill="#FFFFFF" d="M600.7,356.7v6.4h-7v6.4h6.6c0.7-4.3,1.4-8.5,2.1-12.7H600.7z"/>
				<rect x="368.2" y="484.2" fill="#FFFFFF" width="7" height="6.4"/>
				<rect x="368.2" y="484.2" fill="#FFFFFF" width="7" height="6.4"/>
				<polygon fill="#FFFFFF" points="361.2,484.2 354.1,484.2 354.1,490.6 347.1,490.6 347.1,496.9 354.1,496.9 354.1,503.3 
					361.2,503.3 361.2,496.9 368.2,496.9 368.2,490.6 361.2,490.6 				"/>
				<polygon fill="#FFFFFF" points="361.2,484.2 354.1,484.2 354.1,490.6 347.1,490.6 347.1,496.9 354.1,496.9 354.1,503.3 
					361.2,503.3 361.2,496.9 368.2,496.9 368.2,490.6 361.2,490.6 				"/>
			</g>
			<g>
				<g>
					<polygon fill="#FFFFFF" points="480.9,509.7 473.9,509.7 473.9,503.3 473.9,496.9 466.8,496.9 466.8,503.3 459.8,503.3 
						452.7,503.3 452.7,509.7 445.7,509.7 445.7,516 438.7,516 438.7,509.7 431.6,509.7 431.6,503.3 424.6,503.3 424.6,509.7 
						424.6,516 417.5,516 417.5,522.4 410.5,522.4 410.5,528.8 410.5,535.2 403.4,535.2 403.4,541.5 410.5,541.5 417.5,541.5 
						417.5,547.9 417.5,554.3 424.6,554.3 424.6,560.7 424.6,567 417.5,567 417.5,573.4 410.5,573.4 410.5,579.8 417.5,579.8 
						417.5,586.1 410.5,586.1 410.5,579.8 403.4,579.8 403.4,586.1 396.4,586.1 396.4,592.5 396.4,598.9 389.4,598.9 389.4,592.5 
						382.3,592.5 375.3,592.5 375.3,598.9 368.2,598.9 368.2,592.5 368.2,592.5 361.2,592.5 361.2,586.1 354.1,586.1 354.1,579.8 
						361.2,579.8 361.2,573.4 368.2,573.4 368.2,573.4 368.2,567 368.2,560.7 368.2,560.7 361.2,560.7 361.2,554.3 354.1,554.3 
						347.1,554.3 347.1,547.9 340.1,547.9 340.1,554.3 340.1,560.7 347.1,560.7 347.1,567 354.1,567 354.1,573.4 347.1,573.4 
						340.1,573.4 340.1,567 333,567 326,567 326,573.4 318.9,573.4 318.9,567 311.9,567 311.9,573.4 304.8,573.4 304.8,579.8 
						311.9,579.8 311.9,586.1 304.8,586.1 304.8,579.8 297.8,579.8 290.8,579.8 290.8,586.1 283.7,586.1 283.7,589.2 311.9,600 
						311.9,598.9 311.9,592.5 318.9,592.5 318.9,598.9 326,598.9 326,592.5 326,586.1 333,586.1 333,579.8 340.1,579.8 347.1,579.8 
						347.1,586.1 340.1,586.1 333,586.1 333,592.5 340.1,592.5 340.1,598.9 340.1,605.3 333,605.3 333,598.9 326,598.9 326,605.3 
						325.6,605.3 342.2,611.6 347.1,611.6 354.1,611.6 354.1,605.3 361.2,605.3 368.2,605.3 368.2,611.6 368.2,611.6 375.3,611.6 
						375.3,618 382.3,618 382.3,619 396.4,613.7 396.4,611.6 402,611.6 410.5,608.4 410.5,605.3 417.5,605.3 417.5,605.8 
						431.6,600.5 431.6,598.9 436,598.9 466.8,587.3 466.8,586.1 459.8,586.1 459.8,579.8 452.7,579.8 452.7,586.1 445.7,586.1 
						445.7,579.8 452.7,579.8 452.7,573.4 445.7,573.4 438.7,573.4 438.7,567 445.7,567 445.7,560.7 452.7,560.7 459.8,560.7 
						466.8,560.7 466.8,554.3 459.8,554.3 459.8,547.9 452.7,547.9 445.7,547.9 445.7,541.5 452.7,541.5 452.7,535.2 459.8,535.2 
						459.8,528.8 466.8,528.8 466.8,522.4 473.9,522.4 480.9,522.4 488,522.4 488,516 480.9,516 					"/>
					<polygon fill="#FFFFFF" points="311.9,414.1 311.9,407.7 304.8,407.7 304.8,414.1 297.8,414.1 297.8,420.4 290.8,420.4 
						290.8,414.1 283.7,414.1 283.7,407.7 276.7,407.7 276.7,414.1 269.6,414.1 269.6,407.7 276.7,407.7 276.7,401.3 276.7,395 
						281.4,395 164,349.4 164,350.3 156.9,350.3 156.9,356.7 149.9,356.7 149.9,363.1 149.9,369.5 149.9,375.8 156.9,375.8 
						156.9,382.2 164,382.2 164,375.8 171,375.8 171,369.5 178.1,369.5 178.1,363.1 185.1,363.1 192.1,363.1 192.1,369.5 
						199.2,369.5 199.2,375.8 199.2,382.2 199.2,388.6 206.2,388.6 213.3,388.6 213.3,395 220.3,395 220.3,401.3 220.3,407.7 
						227.4,407.7 234.4,407.7 241.5,407.7 241.5,414.1 234.4,414.1 234.4,420.4 227.4,420.4 227.4,426.8 234.4,426.8 234.4,433.2 
						241.5,433.2 248.5,433.2 248.5,426.8 255.5,426.8 255.5,433.2 262.6,433.2 262.6,439.6 269.6,439.6 269.6,433.2 269.6,426.8 
						276.7,426.8 276.7,433.2 283.7,433.2 290.8,433.2 290.8,426.8 297.8,426.8 297.8,433.2 304.8,433.2 304.8,426.8 311.9,426.8 
						318.9,426.8 318.9,420.4 311.9,420.4 					"/>
				</g>
			</g>
		</g>
		<path fill="#FFFFFF" d="M135.8,382.2h7h7h7v-6.4h-7v-6.4v-6.4v-6.4h7v-6.4h7v-1l-40.1-15.6c1.7,7.9,3.4,15.7,4.9,22.9h7v6.4h7v6.4
			h-7h-4.3c0.5,2.2,0.9,4.3,1.3,6.4h3V382.2z"/>
		<path fill="#FFFFFF" d="M149.9,420.4h7h7v-6.4v-6.4h7v6.4h7h7v-6.4v-6.4h7v6.4h7v6.4h7h7v6.4h-7v6.4h-7v6.4h7h7v6.4h-7v6.4h7h7
			v6.4h7v6.4h7v-6.4h7v-6.4h7h7v-6.4h-7v-6.4h-7h-7v-6.4h-7v-6.4h7v-6.4h7v-6.4h-7h-7h-7v-6.4V395h-7v-6.4h-7h-7v-6.4v-6.4v-6.4h-7
			v6.4h-7v-6.4h7v-6.4h-7h-7v6.4h-7v6.4h-7v6.4h-7v6.4h-7v6.4h-7v6.4h-4.7c2.4,9.5,5.1,18,7.4,25.5h4.3V420.4z M178.1,388.6h7v6.4
			h-7V388.6z M164,388.6h7v6.4h-7V388.6z"/>
		<polygon fill="#FFFFFF" points="396.4,426.8 396.4,420.7 389.4,423.3 389.4,426.8 382.3,426.8 382.3,433.2 375.3,433.2 
			375.3,439.6 375.3,445.9 382.3,445.9 382.3,452.3 389.4,452.3 396.4,452.3 403.4,452.3 403.4,445.9 396.4,445.9 396.4,439.6 
			403.4,439.6 403.4,433.2 396.4,433.2 		"/>
		<path fill="#FFFFFF" d="M544.3,547.9v-6.4h-7h-7v-6.4h-7h-7v6.4h-7v-6.4h7v-6.4h-7v-6.4h-7h-7V516h7v-6.4h-7h-7h-7v6.4h7v6.4h-7
			h-7h-7v6.4h7v6.4h-7v-6.4h-7v6.4h-7v6.4h-7v6.4h7h7v6.4h7v6.4h-7h-7h-7v6.4h-7v6.4h7h7v6.4h7v6.4h7v1.2l42.3-15.8V567h-7h-7v-6.4
			h-7v-6.4h7v6.4h7h7h7h7v5.5l35.2-13.2v-5.1h-7H544.3z M473.9,573.4h-7V567h7V573.4z"/>
	</g>
</g>
<g id="CAMO2">
	<g>
		<g>
			<polygon points="586.6,350.3 586.6,348.4 581.5,350.3 			"/>
			<polygon points="586.6,350.3 586.6,348.4 581.5,350.3 			"/>
			<path d="M600.7,343.1v0.9h3.8c0.1-0.8,0.3-1.7,0.4-2.5L600.7,343.1z"/>
			<polygon points="276.7,395 276.7,401.3 283.7,401.3 283.7,395.8 281.4,395 			"/>
			<polygon points="276.7,395 276.7,401.3 283.7,401.3 283.7,395.8 281.4,395 			"/>
			<polygon points="304.8,407.7 311.9,407.7 311.9,406.8 304.8,404 			"/>
			<polygon points="304.8,407.7 311.9,407.7 311.9,406.8 304.8,404 			"/>
			<polygon points="297.8,401.3 290.8,401.3 283.7,401.3 283.7,407.7 283.7,414.1 290.8,414.1 290.8,420.4 297.8,420.4 297.8,414.1 
				304.8,414.1 304.8,407.7 297.8,407.7 			"/>
			<polygon points="297.8,401.3 290.8,401.3 283.7,401.3 283.7,407.7 283.7,414.1 290.8,414.1 290.8,420.4 297.8,420.4 297.8,414.1 
				304.8,414.1 304.8,407.7 297.8,407.7 			"/>
			<rect x="185.1" y="369.5" width="7" height="6.4"/>
			<path d="M142.8,395h7v-6.4h7v-6.4h-7h-7h-7v-6.4h-3c0.6,2.8,1.1,5.5,1.5,7.9c1.1,6.2,2.4,12.1,3.9,17.6h4.7V395z"/>
			<path d="M135.8,369.5h7v-6.4h-7v-6.4h-7c1,4.5,1.9,8.7,2.7,12.7H135.8z"/>
			<rect x="164" y="388.6" width="7" height="6.4"/>
			<rect x="178.1" y="388.6" width="7" height="6.4"/>
			<polygon points="333,579.8 333,586.1 340.1,586.1 347.1,586.1 347.1,579.8 340.1,579.8 			"/>
			<polygon points="333,579.8 333,586.1 340.1,586.1 347.1,586.1 347.1,579.8 340.1,579.8 			"/>
			<rect x="304.8" y="579.8" width="7" height="6.4"/>
			<rect x="304.8" y="579.8" width="7" height="6.4"/>
			<rect x="333" y="458.7" width="7" height="6.4"/>
			<rect x="333" y="458.7" width="7" height="6.4"/>
			<rect x="459.8" y="401.3" width="7" height="6.4"/>
			<rect x="459.8" y="401.3" width="7" height="6.4"/>
			<polygon points="473.9,401.3 473.9,407.7 480.9,407.7 488,407.7 488,401.3 480.9,401.3 			"/>
			<polygon points="473.9,401.3 473.9,407.7 480.9,407.7 488,407.7 488,401.3 480.9,401.3 			"/>
			<rect x="354.1" y="509.7" width="7" height="6.4"/>
			<rect x="389.4" y="560.7" width="7" height="6.4"/>
			<rect x="290.8" y="490.6" width="7" height="6.4"/>
			<path d="M156.9,496.9v6.4h1.1c-0.2-2.4-0.3-4.5-0.4-6.4H156.9z"/>
			<path d="M164,496.9h-6.4c0.1,1.8,0.3,4,0.4,6.4h5.9V496.9z"/>
			<rect x="213.3" y="541.5" width="7" height="6.4"/>
			<rect x="389.4" y="516" width="7" height="6.4"/>
			<polygon points="297.8,535.2 297.8,541.5 304.8,541.5 311.9,541.5 311.9,535.2 304.8,535.2 			"/>
			<polygon points="206.2,484.2 206.2,490.6 213.3,490.6 220.3,490.6 220.3,484.2 213.3,484.2 			"/>
			<rect x="283.7" y="503.3" width="7" height="6.4"/>
			<rect x="382.3" y="567" width="7" height="6.4"/>
			<polygon points="333,528.8 333,535.2 340.1,535.2 340.1,528.8 340.1,522.4 333,522.4 			"/>
			<rect x="304.8" y="522.4" width="7" height="6.4"/>
			<path d="M157.6,496.9h6.4v6.4h7v-6.4h7v6.4h7v-6.4h7v6.4h7v6.4h7v6.4v6.4h-7v6.4h-7h-7v6.4h7v6.4h7v6.4h-7v6.2l17.1,6.6h4h7h7
				v-6.4v-6.4h7v-6.4h-7h-7v6.4h-7v-6.4h7v-6.4h7v-6.4h-7h-7v-6.4h7V516h7v-6.4v-6.4h7v6.4h7h7v6.4h7h7v6.4h7v6.4h7h7v6.4h7v6.4h7
				v-6.4h7h7v6.4h-7h-7v6.4v6.4h-7v-6.4h-7v6.4v6.4h-7v6.4h-7v6.4v6.4h-7v-6.4V567v-6.4v-6.4v-6.4h-7h-7v6.4h-7v6.4h7v6.4v6.4v2.3
				l27.3,10.5h0.9v0.3l7,2.7v-3h7v-6.4h7h7v-6.4h7V567h7v6.4h7V567h7h7v6.4h7h7V567h-7v-6.4h-7v-6.4v-6.4h7v6.4h7h7v6.4h7h0v6.4v6.4
				h0h-7v6.4h-7v6.4h7v6.4h7h0v6.4h7v-6.4h7h7v6.4h7v-6.4v-6.4h7v-6.4h7v-6.4h7V567h7v-6.4v-6.4h-7v-6.4v-6.4h-7h-7v-6.4h7v-6.4
				v-6.4h7V516h7v-6.4v-6.4h7v6.4h7v6.4h7v-6.4h7v-6.4h-7v-6.4v-6.4v-6.4h7h7v-6.4h-7h-7v-6.4h-7v6.4h-7h-7v-6.4h-7v6.4h-7v6.4h-7
				v6.4h7h7v6.4h-7h-7v6.4h-7h-7v6.4h-7v6.4v6.4h7V516h7v6.4h-7v6.4h-7v6.4h-7v6.4h-7h0v-6.4h-7v-6.4h7v-6.4h-7V516h-7v-6.4h7v6.4h7
				v-6.4v-6.4h-7h-7h-7v-6.4h-7h-7v-6.4h-7h-7v-6.4h-7h-7v6.4h-7v6.4h-7v-6.4h7v-6.4h-7h-7h-7v-6.4h-7v6.4h-7v-6.4h-7v-6.4h-7v6.4
				h-7v6.4h-7v-6.4h-7v-6.4h-7v-6.4h-7h-7v6.4h-7h-7h-7v6.4h-7h-7v6.4h-7v-6.4h-7v-6.4h-5.7c2.3,5.3,5.4,13.7,6.1,21.6
				C157.4,494.1,157.5,495.4,157.6,496.9z M382.3,567h7v-6.4h7v6.4h-7v6.4h-7V567z M333,528.8v-6.4h7v6.4v6.4h-7V528.8z
				 M304.8,522.4h7v6.4h-7V522.4z M283.7,503.3h7v6.4h-7V503.3z M206.2,484.2h7h7v6.4h-7h-7V484.2z"/>
			<path d="M164,503.3H158c0.1,2,0.3,4.1,0.5,6.4h5.5V503.3z"/>
			<rect x="466.8" y="445.9" width="7" height="6.4"/>
			<rect x="466.8" y="445.9" width="7" height="6.4"/>
			<rect x="488" y="426.8" width="7" height="6.4"/>
			<rect x="488" y="426.8" width="7" height="6.4"/>
			<polygon points="382.3,426.8 382.3,426 380.2,426.8 			"/>
			<polygon points="382.3,426.8 382.3,426 380.2,426.8 			"/>
			<rect x="375.3" y="452.3" width="7" height="6.4"/>
			<rect x="375.3" y="452.3" width="7" height="6.4"/>
			<rect x="382.3" y="496.9" width="7" height="6.4"/>
			<rect x="382.3" y="496.9" width="7" height="6.4"/>
			<path d="M586.6,420.4h5.9c0.3-2.1,0.6-4.2,0.9-6.4h-6.8V420.4z"/>
			<path d="M593.6,382.2h-7v-6.4h-7v-6.4h-7v6.4h-7v6.4h-7v6.4h-7v6.4h7h7v-6.4h7v6.4h7v6.4h-7h-7v6.4h7v6.4h-7v6.4h-7v6.4h-7h-7
				v6.4h-7v6.4h-7v-6.4h-7v-6.4h-7v-6.4v-6.4h-7v-6.4h-7h-7h-7v6.4h7h7v6.4h-7v6.4h7v6.4v6.4h-7h-7h-7h-7v6.4h7h7v6.4h7v6.4h7v6.4h7
				h7h7h7h7v-6.4h-7v-6.4v-6.4h7h7h7v-6.4h7h7v6.4v6.4h7v6.4h7h7v2.6c0.9-6.1,1.9-12.5,2.7-18.5c0.7-4.8,1.8-12.7,3.2-22.3h-5.9
				v-6.4h6.8c1.1-7.8,2.4-16.5,3.8-25.5h-3.6V382.2z"/>
			<polygon points="403.4,420.4 403.4,426.8 410.5,426.8 410.5,420.4 410.5,415.3 396.9,420.4 			"/>
			<polygon points="403.4,420.4 403.4,426.8 410.5,426.8 410.5,420.4 410.5,415.3 396.9,420.4 			"/>
			<polygon points="396.4,426.8 396.4,420.7 389.4,423.3 389.4,426.8 382.3,426.8 382.3,433.2 375.3,433.2 375.3,439.6 375.3,445.9 
				382.3,445.9 382.3,452.3 389.4,452.3 396.4,452.3 403.4,452.3 403.4,445.9 396.4,445.9 396.4,439.6 403.4,439.6 403.4,433.2 
				396.4,433.2 			"/>
			<rect x="445.7" y="579.8" width="7" height="6.4"/>
			<rect x="445.7" y="579.8" width="7" height="6.4"/>
			<rect x="410.5" y="579.8" width="7" height="6.4"/>
			<rect x="410.5" y="579.8" width="7" height="6.4"/>
			<polygon points="304.8,426.8 304.8,433.2 297.8,433.2 297.8,439.6 304.8,439.6 311.9,439.6 311.9,445.9 318.9,445.9 318.9,439.6 
				318.9,433.2 318.9,426.8 311.9,426.8 			"/>
			<polygon points="304.8,426.8 304.8,433.2 297.8,433.2 297.8,439.6 304.8,439.6 311.9,439.6 311.9,445.9 318.9,445.9 318.9,439.6 
				318.9,433.2 318.9,426.8 311.9,426.8 			"/>
			<polygon points="318.9,409.5 314.3,407.7 311.9,407.7 311.9,414.1 311.9,420.4 318.9,420.4 318.9,426.8 326,426.8 326,420.4 
				326,414.1 318.9,414.1 			"/>
			<polygon points="318.9,409.5 314.3,407.7 311.9,407.7 311.9,414.1 311.9,420.4 318.9,420.4 318.9,426.8 326,426.8 326,420.4 
				326,414.1 318.9,414.1 			"/>
			<polygon points="361.2,439.6 354.1,439.6 347.1,439.6 347.1,445.9 340.1,445.9 340.1,452.3 347.1,452.3 347.1,458.7 354.1,458.7 
				354.1,465.1 361.2,465.1 361.2,458.7 368.2,458.7 368.2,452.3 368.2,445.9 361.2,445.9 			"/>
			<polygon points="361.2,439.6 354.1,439.6 347.1,439.6 347.1,445.9 340.1,445.9 340.1,452.3 347.1,452.3 347.1,458.7 354.1,458.7 
				354.1,465.1 361.2,465.1 361.2,458.7 368.2,458.7 368.2,452.3 368.2,445.9 361.2,445.9 			"/>
			<polygon points="326,592.5 326,598.9 333,598.9 333,605.3 340.1,605.3 340.1,598.9 340.1,592.5 333,592.5 			"/>
			<polygon points="326,592.5 326,598.9 333,598.9 333,605.3 340.1,605.3 340.1,598.9 340.1,592.5 333,592.5 			"/>
			<polygon points="326,439.6 326,445.9 333,445.9 333,439.6 333,433.2 326,433.2 			"/>
			<polygon points="326,439.6 326,445.9 333,445.9 333,439.6 333,433.2 326,433.2 			"/>
			<polygon points="227.4,567 227.4,567.6 234.4,570.3 234.4,567 234.4,560.7 227.4,560.7 			"/>
			<polygon points="227.4,567 227.4,567.6 234.4,570.3 234.4,567 234.4,560.7 227.4,560.7 			"/>
			<polygon points="459.8,484.2 459.8,490.6 452.7,490.6 452.7,496.9 452.7,503.3 459.8,503.3 466.8,503.3 466.8,496.9 473.9,496.9 
				473.9,490.6 473.9,484.2 466.8,484.2 			"/>
			<polygon points="459.8,484.2 459.8,490.6 452.7,490.6 452.7,496.9 452.7,503.3 459.8,503.3 466.8,503.3 466.8,496.9 473.9,496.9 
				473.9,490.6 473.9,484.2 466.8,484.2 			"/>
			<polygon points="530.2,477.8 530.2,484.2 530.2,490.6 537.3,490.6 537.3,496.9 544.3,496.9 544.3,490.6 544.3,484.2 544.3,477.8 
				537.3,477.8 			"/>
			<polygon points="530.2,477.8 530.2,484.2 530.2,490.6 537.3,490.6 537.3,496.9 544.3,496.9 544.3,490.6 544.3,484.2 544.3,477.8 
				537.3,477.8 			"/>
			<rect x="495" y="477.8" width="7" height="6.4"/>
			<rect x="495" y="477.8" width="7" height="6.4"/>
			<polygon points="473.9,496.9 473.9,503.3 473.9,509.7 480.9,509.7 480.9,503.3 488,503.3 488,496.9 480.9,496.9 			"/>
			<polygon points="473.9,496.9 473.9,503.3 473.9,509.7 480.9,509.7 480.9,503.3 488,503.3 488,496.9 480.9,496.9 			"/>
			<polygon points="459.8,407.7 452.7,407.7 452.7,414.1 445.7,414.1 445.7,420.4 452.7,420.4 452.7,426.8 459.8,426.8 466.8,426.8 
				466.8,420.4 466.8,414.1 459.8,414.1 			"/>
			<polygon points="459.8,407.7 452.7,407.7 452.7,414.1 445.7,414.1 445.7,420.4 452.7,420.4 452.7,426.8 459.8,426.8 466.8,426.8 
				466.8,420.4 466.8,414.1 459.8,414.1 			"/>
			<polygon points="593.6,356.7 586.6,356.7 586.6,363.1 586.6,369.5 593.6,369.5 593.6,363.1 600.7,363.1 600.7,356.7 600.7,350.3 
				593.6,350.3 			"/>
			<polygon points="593.6,356.7 586.6,356.7 586.6,363.1 586.6,369.5 593.6,369.5 593.6,363.1 600.7,363.1 600.7,356.7 600.7,350.3 
				593.6,350.3 			"/>
			<polygon points="382.3,471.4 382.3,477.8 389.4,477.8 396.4,477.8 396.4,471.4 389.4,471.4 			"/>
			<polygon points="382.3,471.4 382.3,477.8 389.4,477.8 396.4,477.8 396.4,471.4 389.4,471.4 			"/>
			<rect x="396.4" y="465.1" width="7" height="6.4"/>
			<rect x="396.4" y="465.1" width="7" height="6.4"/>
			<rect x="438.7" y="439.6" width="7" height="6.4"/>
			<rect x="438.7" y="439.6" width="7" height="6.4"/>
			<polygon points="544.3,364.5 544.3,369.5 551.4,369.5 551.4,363.1 547.9,363.1 			"/>
			<polygon points="544.3,364.5 544.3,369.5 551.4,369.5 551.4,363.1 547.9,363.1 			"/>
			<path d="M572.5,535.2h-7h-7v6.4v6.4h7v2.4l7.5-2.8c1-6,1.8-12.5,2.5-18.7h-3V535.2z"/>
			<path d="M572.5,535.2h-7h-7v6.4v6.4h7v2.4l7.5-2.8c1-6,1.8-12.5,2.5-18.7h-3V535.2z"/>
			<rect x="466.8" y="528.8" width="7" height="6.4"/>
			<rect x="509.1" y="535.2" width="7" height="6.4"/>
			<rect x="488" y="554.3" width="7" height="6.4"/>
			<rect x="466.8" y="567" width="7" height="6.4"/>
			<polygon points="544.3,547.9 544.3,541.5 537.3,541.5 530.2,541.5 530.2,535.2 523.2,535.2 516.1,535.2 516.1,528.8 509.1,528.8 
				509.1,522.4 502.1,522.4 495,522.4 495,516 502.1,516 502.1,509.7 495,509.7 488,509.7 480.9,509.7 480.9,516 488,516 488,522.4 
				480.9,522.4 473.9,522.4 466.8,522.4 466.8,528.8 459.8,528.8 459.8,535.2 452.7,535.2 452.7,541.5 445.7,541.5 445.7,547.9 
				452.7,547.9 459.8,547.9 459.8,554.3 466.8,554.3 466.8,560.7 459.8,560.7 452.7,560.7 445.7,560.7 445.7,567 438.7,567 
				438.7,573.4 445.7,573.4 452.7,573.4 452.7,579.8 459.8,579.8 459.8,586.1 466.8,586.1 466.8,587.3 509.1,571.5 509.1,567 
				502.1,567 495,567 495,560.7 502.1,560.7 509.1,560.7 516.1,560.7 523.2,560.7 523.2,566.2 558.4,553 558.4,547.9 551.4,547.9 
							"/>
			<polygon points="375.3,611.6 368.2,611.6 368.2,611.6 368.2,605.3 361.2,605.3 354.1,605.3 354.1,611.6 347.1,611.6 342.2,611.6 
				371.8,623 382.3,619 382.3,618 375.3,618 			"/>
			<polygon points="375.3,611.6 368.2,611.6 368.2,611.6 368.2,605.3 361.2,605.3 354.1,605.3 354.1,611.6 347.1,611.6 342.2,611.6 
				371.8,623 382.3,619 382.3,618 375.3,618 			"/>
			<polygon points="396.4,613.7 402,611.6 396.4,611.6 			"/>
			<polygon points="396.4,613.7 402,611.6 396.4,611.6 			"/>
			<polygon points="410.5,608.4 417.5,605.8 417.5,605.3 410.5,605.3 			"/>
			<polygon points="410.5,608.4 417.5,605.8 417.5,605.3 410.5,605.3 			"/>
			<polygon points="431.6,600.5 436,598.9 431.6,598.9 			"/>
			<polygon points="431.6,600.5 436,598.9 431.6,598.9 			"/>
		</g>
	</g>
</g>
<g id="CAMO1">
	<g>
		<rect x="304.8" y="522.4" fill="#64625F" width="7" height="6.4"/>
		<rect x="304.8" y="522.4" fill="#64625F" width="7" height="6.4"/>
		<polygon fill="#64625F" points="192.1,535.2 185.1,535.2 178.1,535.2 178.1,541.5 185.1,541.5 185.1,547.9 185.1,551.4 
			192.1,554.1 192.1,547.9 199.2,547.9 199.2,541.5 192.1,541.5 		"/>
		<polygon fill="#64625F" points="192.1,535.2 185.1,535.2 178.1,535.2 178.1,541.5 185.1,541.5 185.1,547.9 185.1,551.4 
			192.1,554.1 192.1,547.9 199.2,547.9 199.2,541.5 192.1,541.5 		"/>
		<polygon fill="#64625F" points="290.8,535.2 283.7,535.2 283.7,528.8 276.7,528.8 269.6,528.8 262.6,528.8 262.6,535.2 
			269.6,535.2 276.7,535.2 276.7,541.5 269.6,541.5 269.6,547.9 269.6,554.3 276.7,554.3 276.7,560.7 283.7,560.7 283.7,554.3 
			283.7,547.9 290.8,547.9 290.8,554.3 297.8,554.3 297.8,547.9 297.8,541.5 290.8,541.5 		"/>
		<polygon fill="#64625F" points="290.8,535.2 283.7,535.2 283.7,528.8 276.7,528.8 269.6,528.8 262.6,528.8 262.6,535.2 
			269.6,535.2 276.7,535.2 276.7,541.5 269.6,541.5 269.6,547.9 269.6,554.3 276.7,554.3 276.7,560.7 283.7,560.7 283.7,554.3 
			283.7,547.9 290.8,547.9 290.8,554.3 297.8,554.3 297.8,547.9 297.8,541.5 290.8,541.5 		"/>
		<polygon fill="#64625F" points="297.8,535.2 297.8,541.5 304.8,541.5 311.9,541.5 311.9,535.2 304.8,535.2 		"/>
		<polygon fill="#64625F" points="297.8,535.2 297.8,541.5 304.8,541.5 311.9,541.5 311.9,535.2 304.8,535.2 		"/>
		<rect x="213.3" y="541.5" fill="#64625F" width="7" height="6.4"/>
		<rect x="213.3" y="541.5" fill="#64625F" width="7" height="6.4"/>
		<polygon fill="#64625F" points="171,546 176,547.9 178.1,547.9 178.1,541.5 171,541.5 		"/>
		<polygon fill="#64625F" points="171,546 176,547.9 178.1,547.9 178.1,541.5 171,541.5 		"/>
		<path fill="#64625F" d="M135.8,382.2v-6.4h-3c0.6,2.8,1.1,5.5,1.5,7.9c0.3,1.7,0.6,3.3,0.9,4.9h0.5V382.2z"/>
		<path fill="#64625F" d="M135.8,369.5h7v-6.4h-7v-6.4h-7c1,4.5,1.9,8.7,2.7,12.7H135.8z"/>
		<rect x="149.9" y="382.2" fill="#64625F" width="7" height="6.4"/>
		<rect x="149.9" y="382.2" fill="#64625F" width="7" height="6.4"/>
		<rect x="318.9" y="484.2" fill="#64625F" width="7" height="6.4"/>
		<rect x="318.9" y="484.2" fill="#64625F" width="7" height="6.4"/>
		<polygon fill="#64625F" points="262.6,560.7 262.6,567 262.6,573.4 262.6,579.8 269.6,579.8 269.6,573.4 269.6,567 276.7,567 
			276.7,560.7 269.6,560.7 		"/>
		<polygon fill="#64625F" points="262.6,560.7 262.6,567 262.6,573.4 262.6,579.8 269.6,579.8 269.6,573.4 269.6,567 276.7,567 
			276.7,560.7 269.6,560.7 		"/>
		<rect x="178.1" y="388.6" fill="#64625F" width="7" height="6.4"/>
		<rect x="178.1" y="388.6" fill="#64625F" width="7" height="6.4"/>
		<rect x="164" y="388.6" fill="#64625F" width="7" height="6.4"/>
		<rect x="164" y="388.6" fill="#64625F" width="7" height="6.4"/>
		<polygon fill="#64625F" points="206.2,484.2 206.2,490.6 213.3,490.6 220.3,490.6 220.3,484.2 213.3,484.2 		"/>
		<polygon fill="#64625F" points="206.2,484.2 206.2,490.6 213.3,490.6 220.3,490.6 220.3,484.2 213.3,484.2 		"/>
		<rect x="248.5" y="445.9" fill="#64625F" width="7" height="6.4"/>
		<rect x="248.5" y="445.9" fill="#64625F" width="7" height="6.4"/>
		<rect x="283.7" y="503.3" fill="#64625F" width="7" height="6.4"/>
		<rect x="283.7" y="503.3" fill="#64625F" width="7" height="6.4"/>
		<rect x="156.9" y="471.4" fill="#64625F" width="7" height="6.4"/>
		<rect x="156.9" y="471.4" fill="#64625F" width="7" height="6.4"/>
		<path fill="#64625F" d="M156.9,496.9v6.4h1.1c-0.2-2.4-0.3-4.5-0.4-6.4H156.9z"/>
		<path fill="#64625F" d="M164,496.9h-6.4c0.1,1.8,0.3,4,0.4,6.4h5.9V496.9z"/>
		<path fill="#64625F" d="M156.9,496.9v6.4h1.1c-0.2-2.4-0.3-4.5-0.4-6.4H156.9z"/>
		<path fill="#64625F" d="M164,496.9h-6.4c0.1,1.8,0.3,4,0.4,6.4h5.9V496.9z"/>
		<polygon fill="#64625F" points="199.2,503.3 192.1,503.3 192.1,496.9 185.1,496.9 185.1,503.3 178.1,503.3 178.1,496.9 171,496.9 
			171,503.3 164,503.3 164,509.7 171,509.7 171,516 178.1,516 178.1,522.4 185.1,522.4 185.1,528.8 192.1,528.8 199.2,528.8 
			199.2,522.4 206.2,522.4 206.2,516 206.2,509.7 199.2,509.7 		"/>
		<polygon fill="#64625F" points="199.2,503.3 192.1,503.3 192.1,496.9 185.1,496.9 185.1,503.3 178.1,503.3 178.1,496.9 171,496.9 
			171,503.3 164,503.3 164,509.7 171,509.7 171,516 178.1,516 178.1,522.4 185.1,522.4 185.1,528.8 192.1,528.8 199.2,528.8 
			199.2,522.4 206.2,522.4 206.2,516 206.2,509.7 199.2,509.7 		"/>
		<polygon fill="#64625F" points="248.5,516 248.5,509.7 241.5,509.7 234.4,509.7 234.4,503.3 227.4,503.3 227.4,509.7 227.4,516 
			220.3,516 220.3,522.4 213.3,522.4 213.3,528.8 220.3,528.8 227.4,528.8 227.4,535.2 220.3,535.2 220.3,541.5 227.4,541.5 
			234.4,541.5 234.4,535.2 234.4,528.8 241.5,528.8 241.5,522.4 248.5,522.4 248.5,528.8 255.5,528.8 255.5,522.4 262.6,522.4 
			262.6,516 255.5,516 		"/>
		<polygon fill="#64625F" points="248.5,516 248.5,509.7 241.5,509.7 234.4,509.7 234.4,503.3 227.4,503.3 227.4,509.7 227.4,516 
			220.3,516 220.3,522.4 213.3,522.4 213.3,528.8 220.3,528.8 227.4,528.8 227.4,535.2 220.3,535.2 220.3,541.5 227.4,541.5 
			234.4,541.5 234.4,535.2 234.4,528.8 241.5,528.8 241.5,522.4 248.5,522.4 248.5,528.8 255.5,528.8 255.5,522.4 262.6,522.4 
			262.6,516 255.5,516 		"/>
		<rect x="347.1" y="496.9" fill="#64625F" width="7" height="6.4"/>
		<rect x="347.1" y="496.9" fill="#64625F" width="7" height="6.4"/>
		<rect x="354.1" y="509.7" fill="#64625F" width="7" height="6.4"/>
		<rect x="354.1" y="509.7" fill="#64625F" width="7" height="6.4"/>
		<rect x="185.1" y="369.5" fill="#64625F" width="7" height="6.4"/>
		<rect x="185.1" y="369.5" fill="#64625F" width="7" height="6.4"/>
		<polygon fill="#64625F" points="340.1,484.2 333,484.2 333,490.6 333,496.9 340.1,496.9 347.1,496.9 347.1,490.6 340.1,490.6 		
			"/>
		<polygon fill="#64625F" points="340.1,484.2 333,484.2 333,490.6 333,496.9 340.1,496.9 347.1,496.9 347.1,490.6 340.1,490.6 		
			"/>
		<polygon fill="#64625F" points="333,528.8 333,535.2 340.1,535.2 340.1,528.8 340.1,522.4 333,522.4 		"/>
		<polygon fill="#64625F" points="333,528.8 333,535.2 340.1,535.2 340.1,528.8 340.1,522.4 333,522.4 		"/>
		<path fill="#64625F" d="M586.6,420.4h5.9c0.3-2.1,0.6-4.2,0.9-6.4h-6.8V420.4z"/>
		<path fill="#64625F" d="M586.6,420.4h5.9c0.3-2.1,0.6-4.2,0.9-6.4h-6.8V420.4z"/>
		<path fill="#64625F" d="M579.5,485.9v-1.7v-6.4h-7v6.4v6.4h-7v6.4h7v6.4h5.1c0.3-4.3,0.5-7.8,0.7-10.2
			C578.6,490.7,579,488.3,579.5,485.9z"/>
		<path fill="#64625F" d="M579.5,485.9v-1.7v-6.4h-7v6.4v6.4h-7v6.4h7v6.4h5.1c0.3-4.3,0.5-7.8,0.7-10.2
			C578.6,490.7,579,488.3,579.5,485.9z"/>
		<path fill="#64625F" d="M586.6,465.1v-3.8c-0.2,1.3-0.4,2.5-0.6,3.8H586.6z"/>
		<path fill="#64625F" d="M579.5,458.7h-7v6.4h-7v6.4h7h7v-6.4h6.5c0.2-1.2,0.4-2.5,0.6-3.8v-2.6H579.5z"/>
		<path fill="#64625F" d="M586.6,465.1v-3.8c-0.2,1.3-0.4,2.5-0.6,3.8H586.6z"/>
		<path fill="#64625F" d="M579.5,458.7h-7v6.4h-7v6.4h7h7v-6.4h6.5c0.2-1.2,0.4-2.5,0.6-3.8v-2.6H579.5z"/>
		<rect x="488" y="554.3" fill="#64625F" width="7" height="6.4"/>
		<rect x="488" y="554.3" fill="#64625F" width="7" height="6.4"/>
		<polygon fill="#64625F" points="516.1,509.7 516.1,516 509.1,516 509.1,522.4 509.1,528.8 516.1,528.8 516.1,535.2 523.2,535.2 
			523.2,528.8 530.2,528.8 530.2,522.4 530.2,516 530.2,509.7 523.2,509.7 		"/>
		<polygon fill="#64625F" points="516.1,509.7 516.1,516 509.1,516 509.1,522.4 509.1,528.8 516.1,528.8 516.1,535.2 523.2,535.2 
			523.2,528.8 530.2,528.8 530.2,522.4 530.2,516 530.2,509.7 523.2,509.7 		"/>
		<rect x="459.8" y="477.8" fill="#64625F" width="7" height="6.4"/>
		<rect x="459.8" y="477.8" fill="#64625F" width="7" height="6.4"/>
		<rect x="551.4" y="465.1" fill="#64625F" width="7" height="6.4"/>
		<rect x="551.4" y="465.1" fill="#64625F" width="7" height="6.4"/>
		<rect x="530.2" y="452.3" fill="#64625F" width="7" height="6.4"/>
		<rect x="530.2" y="452.3" fill="#64625F" width="7" height="6.4"/>
		<polygon fill="#64625F" points="523.2,465.1 516.1,465.1 516.1,471.4 523.2,471.4 523.2,477.8 530.2,477.8 537.3,477.8 
			537.3,471.4 537.3,465.1 530.2,465.1 		"/>
		<polygon fill="#64625F" points="523.2,465.1 516.1,465.1 516.1,471.4 523.2,471.4 523.2,477.8 530.2,477.8 537.3,477.8 
			537.3,471.4 537.3,465.1 530.2,465.1 		"/>
		<rect x="537.3" y="445.9" fill="#64625F" width="7" height="6.4"/>
		<rect x="537.3" y="445.9" fill="#64625F" width="7" height="6.4"/>
		<rect x="480.9" y="484.2" fill="#64625F" width="7" height="6.4"/>
		<rect x="495" y="477.8" fill="#64625F" width="7" height="6.4"/>
		<polygon fill="#64625F" points="509.1,477.8 502.1,477.8 502.1,471.4 495,471.4 488,471.4 488,477.8 480.9,477.8 480.9,484.2 
			473.9,484.2 473.9,490.6 473.9,496.9 480.9,496.9 488,496.9 488,503.3 480.9,503.3 480.9,509.7 488,509.7 495,509.7 502.1,509.7 
			502.1,503.3 502.1,496.9 509.1,496.9 509.1,490.6 516.1,490.6 516.1,484.2 509.1,484.2 		"/>
		<polygon fill="#64625F" points="509.1,477.8 502.1,477.8 502.1,484.2 495,484.2 495,477.8 502.1,477.8 502.1,471.4 495,471.4 
			488,471.4 488,477.8 480.9,477.8 480.9,484.2 488,484.2 488,490.6 480.9,490.6 480.9,484.2 473.9,484.2 473.9,490.6 473.9,496.9 
			480.9,496.9 488,496.9 488,503.3 480.9,503.3 480.9,509.7 488,509.7 495,509.7 502.1,509.7 502.1,503.3 502.1,496.9 509.1,496.9 
			509.1,490.6 516.1,490.6 516.1,484.2 509.1,484.2 		"/>
		<rect x="480.9" y="465.1" fill="#64625F" width="7" height="6.4"/>
		<rect x="480.9" y="465.1" fill="#64625F" width="7" height="6.4"/>
		<polygon fill="#64625F" points="565.4,528.8 558.4,528.8 551.4,528.8 551.4,535.2 558.4,535.2 565.4,535.2 572.5,535.2 
			572.5,528.8 572.5,522.4 565.4,522.4 		"/>
		<polygon fill="#64625F" points="565.4,528.8 558.4,528.8 551.4,528.8 551.4,535.2 558.4,535.2 565.4,535.2 572.5,535.2 
			572.5,528.8 572.5,522.4 565.4,522.4 		"/>
		<rect x="445.7" y="471.4" fill="#64625F" width="7" height="6.4"/>
		<rect x="445.7" y="471.4" fill="#64625F" width="7" height="6.4"/>
		<polygon fill="#64625F" points="445.7,484.2 445.7,490.6 445.7,496.9 445.7,503.3 452.7,503.3 452.7,496.9 452.7,490.6 
			459.8,490.6 459.8,484.2 452.7,484.2 		"/>
		<polygon fill="#64625F" points="445.7,484.2 445.7,490.6 445.7,496.9 445.7,503.3 452.7,503.3 452.7,496.9 452.7,490.6 
			459.8,490.6 459.8,484.2 452.7,484.2 		"/>
		<rect x="466.8" y="528.8" fill="#64625F" width="7" height="6.4"/>
		<rect x="466.8" y="528.8" fill="#64625F" width="7" height="6.4"/>
		<rect x="509.1" y="535.2" fill="#64625F" width="7" height="6.4"/>
		<rect x="509.1" y="535.2" fill="#64625F" width="7" height="6.4"/>
		<polygon fill="#64625F" points="558.4,509.7 558.4,516 565.4,516 572.5,516 572.5,509.7 565.4,509.7 		"/>
		<polygon fill="#64625F" points="558.4,509.7 558.4,516 565.4,516 572.5,516 572.5,509.7 565.4,509.7 		"/>
		<rect x="565.4" y="452.3" fill="#64625F" width="7" height="6.4"/>
		<rect x="565.4" y="452.3" fill="#64625F" width="7" height="6.4"/>
		<rect x="382.3" y="567" fill="#64625F" width="7" height="6.4"/>
		<rect x="382.3" y="567" fill="#64625F" width="7" height="6.4"/>
		<polygon fill="#64625F" points="396.4,420.7 396.9,420.4 396.4,420.4 		"/>
		<polygon fill="#64625F" points="396.4,420.7 396.9,420.4 396.4,420.4 		"/>
		<polygon fill="#64625F" points="276.7,586.5 276.7,586.1 275.8,586.1 		"/>
		<polygon fill="#64625F" points="276.7,586.5 276.7,586.1 275.8,586.1 		"/>
		<polygon fill="#64625F" points="326,439.6 326,445.9 333,445.9 333,439.6 333,433.2 326,433.2 		"/>
		<rect x="368.2" y="484.2" fill="#64625F" width="7" height="6.4"/>
		<rect x="375.3" y="452.3" fill="#64625F" width="7" height="6.4"/>
		<rect x="382.3" y="496.9" fill="#64625F" width="7" height="6.4"/>
		<rect x="488" y="426.8" fill="#64625F" width="7" height="6.4"/>
		<polygon fill="#64625F" points="473.9,401.3 473.9,407.7 480.9,407.7 488,407.7 488,401.3 480.9,401.3 		"/>
		<rect x="396.4" y="465.1" fill="#64625F" width="7" height="6.4"/>
		<polygon fill="#64625F" points="459.8,407.7 452.7,407.7 452.7,414.1 445.7,414.1 445.7,420.4 452.7,420.4 452.7,426.8 
			459.8,426.8 466.8,426.8 466.8,420.4 466.8,414.1 459.8,414.1 		"/>
		<polygon fill="#64625F" points="382.3,471.4 382.3,477.8 389.4,477.8 396.4,477.8 396.4,471.4 389.4,471.4 		"/>
		<rect x="438.7" y="439.6" fill="#64625F" width="7" height="6.4"/>
		<rect x="459.8" y="401.3" fill="#64625F" width="7" height="6.4"/>
		<path fill="#64625F" d="M593.6,369.5h-7v-6.4v-6.4h7v-6.4h7v6.4h1.6c0.7-4.3,1.5-8.6,2.2-12.7h-3.8v-0.9l-14.1,5.4v1.9h-5.1
			l-33.6,12.7h3.4v6.4h-7v-5l-133.8,50.8v5.1v6.4h-7v-6.4h-6.5l-0.5,0.2v6.2v6.4h7v6.4h-7v6.4h7v6.4h-7h-7h-7v6.4h-7v-6.4h7v-6.4h-7
			v-6.4v-6.4h7v-6.4h-2.2l-8.4,3.2l-8.2-3.2h-2.4v6.4h-7v6.4h7v6.4h7v6.4v6.4h-7v6.4h-7v-6.4h-7v-6.4h-7v-6.4h7v-6.4v-6.4v-6.4h7
			v-3.7l-35.2-13.7v4.6h7v6.4v6.4h-7v6.4v6.4v6.4h-7v-6.4h-7v6.4h-7h-7v-6.4h-7v6.4h-7v6.4v6.4h7v6.4h-7v6.4h-7v-6.4v-6.4h-7v6.4h-7
			v-6.4h-7v-6.4h-7h-7v6.4h-7v-6.4h-7v-6.4h-7h-7v-6.4h7v-6.4h-7h-7v-6.4h7v-6.4h7v-6.4h-7h-7v-6.4h-7v-6.4h-7v6.4v6.4h-7h-7v-6.4
			h-7v6.4v6.4h-7h-7v6.4h-4.3c2.9,9.7,5.2,17.7,5.2,23.6c0,3.1,0,8.4,0,14.6h6.2v-6.4h7v-6.4h7v6.4v6.4v6.4h7v-6.4h7h7v6.4h7h7v-6.4
			h7h7v6.4h7v6.4h7v6.4h7v-6.4h7v-6.4h7v6.4h7v6.4h7v-6.4h7v6.4h7h7v-6.4h-7v-6.4h7v-6.4h7h7v6.4v6.4h7v-6.4h7v-6.4h7v6.4h7v-6.4
			v-6.4h7v6.4h7v6.4h-7v6.4v6.4h7v6.4h7v-6.4h7v6.4h7v6.4h-7v6.4h7v6.4v6.4h-7v6.4h7v6.4h-7v6.4h7v6.4h0h7v-6.4h7v-6.4h7v-6.4h-7
			V516v-6.4h7v-6.4h-7v-6.4h7v6.4h7h7v-6.4h7h7v-6.4h-7h-7v-6.4h7v-6.4h7v-6.4h7v6.4h7h7v-6.4v-6.4h7v-6.4h7h7v6.4v6.4h7v-6.4h7h7
			v-6.4h-7v-6.4h-7v-6.4h7v-6.4h7h7h7h7v-6.4v-6.4h-7v6.4h-7v-6.4h7v-6.4h7v-6.4h-7h-7v-6.4h-7h-7v-6.4h7h7v6.4h7h7h7v6.4h7v6.4v6.4
			h7v6.4h7v6.4h7v-6.4h7v-6.4h7h7v-6.4h7v-6.4h7v-6.4h-7v-6.4h7h7V395h-7v-6.4h-7v6.4h-7h-7v-6.4h7v-6.4h7v-6.4h7v-6.4h7v6.4h7v6.4
			h7v6.4h3.6c1-6.3,2-12.7,3-19.1H593.6z M333,439.6v6.4h-7v-6.4v-6.4h7V439.6z M375.3,490.6h-7v-6.4h7V490.6z M403.4,471.4h-7v6.4
			h-7h-7v-6.4h7h7v-6.4h7V471.4z M445.7,445.9h-7v-6.4h7V445.9z M466.8,407.7h-7v6.4h7v6.4v6.4h-7h-7v-6.4h-7v-6.4h7v-6.4h7v-6.4h7
			V407.7z"/>
		<polygon fill="#64625F" points="213.3,560.7 209.3,560.7 227.4,567.6 227.4,567 227.4,560.7 220.3,560.7 		"/>
		<polygon fill="#64625F" points="213.3,560.7 209.3,560.7 227.4,567.6 227.4,567 227.4,560.7 220.3,560.7 		"/>
		<rect x="304.8" y="579.8" fill="#64625F" width="7" height="6.4"/>
		<rect x="410.5" y="579.8" fill="#64625F" width="7" height="6.4"/>
		<polygon fill="#64625F" points="333,579.8 333,586.1 340.1,586.1 347.1,586.1 347.1,579.8 340.1,579.8 		"/>
		<rect x="445.7" y="579.8" fill="#64625F" width="7" height="6.4"/>
		<polygon fill="#64625F" points="333,586.1 326,586.1 326,592.5 326,598.9 333,598.9 333,605.3 340.1,605.3 340.1,598.9 
			340.1,592.5 333,592.5 		"/>
		<polygon fill="#64625F" points="480.9,509.7 473.9,509.7 473.9,503.3 473.9,496.9 466.8,496.9 466.8,503.3 459.8,503.3 
			452.7,503.3 452.7,509.7 445.7,509.7 445.7,516 438.7,516 438.7,509.7 431.6,509.7 431.6,503.3 424.6,503.3 424.6,509.7 
			424.6,516 417.5,516 417.5,522.4 410.5,522.4 410.5,528.8 410.5,535.2 403.4,535.2 403.4,541.5 410.5,541.5 417.5,541.5 
			417.5,547.9 417.5,554.3 424.6,554.3 424.6,560.7 424.6,567 417.5,567 417.5,573.4 410.5,573.4 410.5,579.8 403.4,579.8 
			403.4,586.1 396.4,586.1 396.4,592.5 396.4,598.9 389.4,598.9 389.4,592.5 382.3,592.5 375.3,592.5 375.3,598.9 368.2,598.9 
			368.2,592.5 368.2,592.5 361.2,592.5 361.2,586.1 354.1,586.1 354.1,579.8 361.2,579.8 361.2,573.4 368.2,573.4 368.2,573.4 
			368.2,567 368.2,560.7 368.2,560.7 361.2,560.7 361.2,554.3 354.1,554.3 347.1,554.3 347.1,547.9 340.1,547.9 340.1,554.3 
			340.1,560.7 347.1,560.7 347.1,567 354.1,567 354.1,573.4 347.1,573.4 340.1,573.4 340.1,567 333,567 326,567 326,573.4 
			318.9,573.4 318.9,567 311.9,567 311.9,573.4 304.8,573.4 304.8,579.8 297.8,579.8 290.8,579.8 290.8,586.1 283.7,586.1 
			283.7,589.2 311.9,600 311.9,598.9 311.9,592.5 318.9,592.5 318.9,598.9 326,598.9 326,605.3 325.6,605.3 342.2,611.6 
			347.1,611.6 354.1,611.6 354.1,605.3 361.2,605.3 368.2,605.3 368.2,611.6 368.2,611.6 375.3,611.6 375.3,618 382.3,618 
			382.3,619 396.4,613.7 396.4,611.6 402,611.6 410.5,608.4 410.5,605.3 417.5,605.3 417.5,605.8 431.6,600.5 431.6,598.9 
			436,598.9 466.8,587.3 466.8,586.1 459.8,586.1 459.8,579.8 452.7,579.8 452.7,573.4 445.7,573.4 438.7,573.4 438.7,567 
			445.7,567 445.7,560.7 452.7,560.7 459.8,560.7 466.8,560.7 466.8,554.3 459.8,554.3 459.8,547.9 452.7,547.9 445.7,547.9 
			445.7,541.5 452.7,541.5 452.7,535.2 459.8,535.2 459.8,528.8 466.8,528.8 466.8,522.4 473.9,522.4 480.9,522.4 488,522.4 
			488,516 480.9,516 		"/>
		<polygon fill="#64625F" points="382.3,426.8 389.4,426.8 389.4,423.3 382.3,426 		"/>
		<polygon fill="#64625F" points="382.3,426.8 389.4,426.8 389.4,423.3 382.3,426 		"/>
		<polygon fill="#64625F" points="311.9,407.7 314.3,407.7 311.9,406.8 		"/>
		<polygon fill="#64625F" points="311.9,407.7 314.3,407.7 311.9,406.8 		"/>
		<rect x="269.6" y="407.7" fill="#64625F" width="7" height="6.4"/>
		<polygon fill="#64625F" points="311.9,414.1 311.9,407.7 304.8,407.7 304.8,414.1 297.8,414.1 297.8,420.4 290.8,420.4 
			290.8,414.1 283.7,414.1 283.7,407.7 276.7,407.7 276.7,401.3 276.7,395 281.4,395 164,349.4 164,350.3 156.9,350.3 156.9,356.7 
			149.9,356.7 149.9,363.1 149.9,369.5 149.9,375.8 156.9,375.8 156.9,382.2 164,382.2 164,375.8 171,375.8 171,369.5 178.1,369.5 
			178.1,363.1 185.1,363.1 192.1,363.1 192.1,369.5 199.2,369.5 199.2,375.8 199.2,382.2 199.2,388.6 206.2,388.6 213.3,388.6 
			213.3,395 220.3,395 220.3,401.3 220.3,407.7 227.4,407.7 234.4,407.7 241.5,407.7 241.5,414.1 234.4,414.1 234.4,420.4 
			227.4,420.4 227.4,426.8 234.4,426.8 234.4,433.2 241.5,433.2 248.5,433.2 248.5,426.8 255.5,426.8 255.5,433.2 262.6,433.2 
			262.6,439.6 269.6,439.6 269.6,433.2 269.6,426.8 276.7,426.8 276.7,433.2 283.7,433.2 290.8,433.2 290.8,426.8 297.8,426.8 
			297.8,433.2 304.8,433.2 304.8,426.8 311.9,426.8 318.9,426.8 318.9,420.4 311.9,420.4 		"/>
		<polygon fill="#64625F" points="241.5,547.9 234.4,547.9 227.4,547.9 227.4,554.3 227.4,560.7 234.4,560.7 234.4,567 234.4,570.3 
			248.5,575.7 248.5,573.4 248.5,567 248.5,560.7 241.5,560.7 241.5,554.3 248.5,554.3 248.5,547.9 248.5,541.5 241.5,541.5 		"/>
		<polygon fill="#64625F" points="241.5,547.9 234.4,547.9 227.4,547.9 227.4,554.3 227.4,560.7 234.4,560.7 234.4,567 234.4,570.3 
			248.5,575.7 248.5,573.4 248.5,567 248.5,560.7 241.5,560.7 241.5,554.3 248.5,554.3 248.5,547.9 248.5,541.5 241.5,541.5 		"/>
		<polygon fill="#64625F" points="283.7,401.3 290.8,401.3 297.8,401.3 297.8,407.7 304.8,407.7 304.8,404 283.7,395.8 		"/>
		<polygon fill="#64625F" points="283.7,401.3 290.8,401.3 297.8,401.3 297.8,407.7 304.8,407.7 304.8,404 283.7,395.8 		"/>
		<rect x="466.8" y="567" fill="#64625F" width="7" height="6.4"/>
		<rect x="466.8" y="567" fill="#64625F" width="7" height="6.4"/>
		<polygon fill="#64625F" points="509.1,560.7 502.1,560.7 495,560.7 495,567 502.1,567 509.1,567 509.1,571.5 523.2,566.2 
			523.2,560.7 516.1,560.7 		"/>
		<polygon fill="#64625F" points="509.1,560.7 502.1,560.7 495,560.7 495,567 502.1,567 509.1,567 509.1,571.5 523.2,566.2 
			523.2,560.7 516.1,560.7 		"/>
		<rect x="389.4" y="516" fill="#64625F" width="7" height="6.4"/>
		<rect x="389.4" y="516" fill="#64625F" width="7" height="6.4"/>
		<rect x="389.4" y="560.7" fill="#64625F" width="7" height="6.4"/>
		<rect x="389.4" y="560.7" fill="#64625F" width="7" height="6.4"/>
	</g>
</g>
<g id="UPPER_BODY">
	<g>
		<g>
			<path fill="#A39D9B" d="M150.9,470.5c2.3,5.3,5.7,14.1,6.4,22.5c0.1,1.1,0.2,2.6,0.3,4.2l213.6,81.7l206.6-79
				c0.2-2.8,0.4-5.1,0.5-6.9c0.6-6.9,3-14.1,5.1-19.4l-212.2,81.1L150.9,470.5z"/>
		</g>
		<g>
			<path fill="#A39D9B" d="M143.3,419.4c3.3,10.9,6.2,19.9,7.1,26.8l220.8,84.4l217.3-83.1c0.2-1.6,0.5-3.2,0.7-4.8
				c0.6-4.5,1.7-11.8,3-20.7l-221,84.5L143.3,419.4z"/>
		</g>
		<g>
			<path fill="#A39D9B" d="M371.3,603l-211.7-80.9c0.8,8.3,1.8,17.1,3.2,25.3l208.5,79.7l201.2-76.9c1.5-8.1,2.6-17,3.4-25.4
				L371.3,603z"/>
		</g>
		<g>
			<path fill="#A39D9B" d="M371.3,458.3l-240.4-91.9c1.4,6.5,2.6,12.3,3.4,17.3c0.5,3,1.1,6,1.8,8.9l235.1,89.9L596,396.5
				c1.2-8.3,2.6-17,4-25.6L371.3,458.3z"/>
		</g>
		<g>
			<path fill="#A39D9B" d="M617.7,261.6c-12.2-4.3-66-25.4-83.1-36.5c-18.6-12-42.7-30.6-49.2-36.1c-5.7-4.7-11.3-14.3-16.3-18.3
				c-23.2-2.9-69.8-8.4-97.7-8.8c-29.8-0.4-83.9,6.9-106.4,10.2c-4.6,4.5-9.6,12.6-14.7,16.9c-6.6,5.5-30.6,24.1-49.2,36.1
				c-18.6,12-80.9,36.1-85.3,37.2c-0.5,0.1-1.6,0.8-3.2,1.9c1,20.2,7,49.7,12.7,76l246,94l233-89.1c3.3-18.6,6.5-34.6,9.1-42.4
				C617.9,289,618.2,272.6,617.7,261.6z"/>
		</g>
	</g>
</g>
</g>	
<g id="CUSTOM"></g>	
<g id="SHIRT_SLEEVES">
	<g>
		<path fill="#A39D9B" d="M134.3,383.7c-5-28.1-20.1-86.4-21.8-119.5c-10.9,7.6-44.1,37.5-61.4,68.1c-19.7,35-15.3,129.1-15.3,133.4
			s-1.1,18.6-1.1,18.6l-3.3,6.6c0,0,37.2,9.8,68.9,9.8c31.7,0,49.2-5.5,49.2-5.5l-1.1-29.5c0,0,0.9,1.7,2.2,4.5c0-8.5,0-15.9,0-19.8
			C150.7,437.3,139.8,414.3,134.3,383.7z"/>
		<path fill="#A39D9B" d="M700.9,484.3c0,0-1.1-14.2-1.1-18.6s4.4-98.4-15.3-133.4c-19.7-35-60.2-68.9-64.5-70
			c-0.4-0.1-1.1-0.3-2.2-0.7c0.5,11,0.2,27.5-4.3,41.2c-7.7,23-20.8,117-24.1,140c-1.3,8.8-2.7,18.3-3.9,26.6c1-2.2,1.8-3.6,1.8-3.6
			l-1.1,29.5c0,0,17.5,5.5,49.2,5.5s68.9-9.8,68.9-9.8L700.9,484.3z"/>
	</g>
</g>
<g id="SHIRT_COLLAR">
	<path fill="#A39D9B" d="M371.4,161.9c27.9,0.4,74.5,5.9,97.7,8.8c-0.8-0.6-1.6-1.1-2.3-1.4c-5.5-2.2-13.1-6.6-13.1-6.6l-7.7-14.2
		c0,0-31.7-12-58-12c-6,0-34.4,0-40.5,0c-26.2,0-58,12-58,12l-7.7,14.2c0,0-7.7,4.4-13.1,6.6c-1.2,0.5-2.5,1.5-3.9,2.8
		C287.6,168.9,341.6,161.5,371.4,161.9z"/>
</g>
<g id="SHIRT_STITCHING">
	<g>
		<path d="M584.2,472.5l-0.2,1.1l1.3,0.2l0.2-1.1L584.2,472.5 M584.5,470.8l-0.2,1.1l1.3,0.2l0.2-1.1L584.5,470.8 M584.7,469
			l-0.2,1.1l1.3,0.2l0.2-1.1L584.7,469 M585,467.3l-0.2,1.1l1.3,0.2l0.2-1.1L585,467.3 M585.3,465.6l-0.2,1.1l1.3,0.2l0.2-1.1
			L585.3,465.6 M585.5,463.8l-0.2,1.1l1.3,0.2l0.2-1.1L585.5,463.8 M585.8,462.1l-0.2,1.1l1.3,0.2l0.2-1.1L585.8,462.1 M586.1,460.4
			l-0.2,1.1l1.3,0.2l0.2-1.1L586.1,460.4 M586.3,458.6l-0.2,1.1l1.3,0.2l0.2-1.1L586.3,458.6 M586.6,457l-0.2,1l1.3,0.2l0.2-1.1
			L586.6,457 M586.8,455.1l-0.2,1.1l1.3,0.2l0.2-1.1L586.8,455.1 M587.1,453.4l-0.2,1.1l1.3,0.2l0.2-1.1L587.1,453.4 M587.4,451.7
			l-0.2,1.1l1.3,0.2l0.2-1.1L587.4,451.7 M587.6,449.9l-0.2,1.1l1.3,0.2l0.2-1.1L587.6,449.9 M587.8,448.3l-0.1,1l1.3,0.2l0.2-1
			l-0.6-0.2L587.8,448.3 M588.1,446.5l-0.2,1.1l1.3,0.2l0.2-1.1L588.1,446.5 M588.4,444.7l-0.2,1.1l1.3,0.2l0.2-1.1L588.4,444.7
			 M588.6,443l-0.2,1.1l1.3,0.2l0.2-1.1L588.6,443 M588.9,441.3l-0.2,1.1l1.3,0.2l0.2-1.1L588.9,441.3 M589.1,439.5l-0.2,1.1
			l1.3,0.2l0.2-1.1L589.1,439.5 M589.4,437.8l-0.2,1.1l1.3,0.2l0.2-1.1L589.4,437.8 M589.6,436.1l-0.2,1.1l1.3,0.2l0.2-1.1
			L589.6,436.1 M589.8,434.3l-0.2,1.1l1.3,0.2l0.2-1.1L589.8,434.3 M590.1,432.6l-0.2,1.1l1.3,0.2l0.2-1.1L590.1,432.6 M590.3,430.8
			l-0.2,1.1l1.3,0.2l0.2-1.1L590.3,430.8 M590.6,429.1l-0.2,1.1l1.3,0.2l0.2-1.1L590.6,429.1 M590.8,427.4l-0.2,1.1l1.3,0.2l0.2-1.1
			L590.8,427.4 M591.1,425.6l-0.2,1.1l1.3,0.2l0.2-1.1L591.1,425.6 M591.3,423.9l-0.2,1.1l1.3,0.2l0.2-1.1L591.3,423.9 M591.6,422.2
			l-0.2,1.1l1.3,0.2l0.2-1.1L591.6,422.2 M591.8,420.4l-0.2,1.1l1.3,0.2l0.2-1.1L591.8,420.4 M592.1,418.7l-0.2,1.1l1.3,0.2l0.2-1.1
			L592.1,418.7 M592.3,416.9l-0.2,1.1l1.3,0.2l0.2-1.1L592.3,416.9 M592.6,415.2l-0.2,1.1l1.3,0.2l0.2-1.1L592.6,415.2 M592.9,413.5
			l-0.2,1.1l1.3,0.2l0.2-1.1L592.9,413.5 M593.1,411.7l-0.2,1.1l1.3,0.2l0.2-1.1L593.1,411.7 M593.4,410l-0.2,1.1l1.3,0.2l0.2-1.1
			L593.4,410 M593.6,408.3l-0.2,1.1l1.3,0.2l0.2-1.1L593.6,408.3 M593.9,406.6l-0.2,1l1.3,0.2l0.2-1.1L593.9,406.6 M594.1,404.9
			l-0.2,1l1.3,0.2l0.2-1.1L594.1,404.9 M594.4,403.1l-0.2,1l1.3,0.2l0.2-1.1L594.4,403.1 M594.6,401.3l-0.2,1.1l1.3,0.2l0.2-1.1
			L594.6,401.3 M594.9,399.6l-0.2,1.1l1.3,0.2l0.2-1.1L594.9,399.6 M595.2,397.8l-0.2,1.1l1.3,0.2l0.2-1.1L595.2,397.8 M595.4,396.1
			l-0.2,1.1l1.3,0.2l0.2-1.1L595.4,396.1 M595.7,394.4l-0.2,1.1l1.3,0.2l0.2-1.1L595.7,394.4 M596,392.6l-0.2,1.1l1.3,0.2l0.2-1.1
			L596,392.6 M596.2,390.9L596,392l1.3,0.2l0.2-1.1L596.2,390.9 M596.5,389.2l-0.2,1.1l1.3,0.2l0.2-1.1L596.5,389.2 M596.7,387.4
			l-0.2,1.1l1.3,0.2l0.2-1.1L596.7,387.4 M597,385.7l-0.2,1.1l1.3,0.2l0.2-1.1L597,385.7 M597.3,384l-0.2,1.1l1.3,0.2l0.2-1.1
			L597.3,384 M597.5,382.2l-0.2,1.1l1.3,0.2l0.2-1.1L597.5,382.2 M597.8,380.5l-0.2,1.1l1.3,0.2l0.2-1.1L597.8,380.5 M598.1,378.8
			l-0.2,1.1l1.3,0.2l0.2-1.1L598.1,378.8 M598.4,377l-0.2,1.1l1.3,0.2l0.2-1.1L598.4,377 M598.6,375.3l-0.2,1.1l1.3,0.2l0.2-1.1
			L598.6,375.3 M598.9,373.6l-0.2,1.1l1.3,0.2l0.2-1.1L598.9,373.6 M599.2,371.8l-0.2,1.1l1.3,0.2l0.2-1.1L599.2,371.8 M599.5,370.1
			l-0.2,1.1l1.3,0.2l0.2-1.1L599.5,370.1 M599.7,368.3l-0.2,1.1l1.3,0.2l0.2-1.1L599.7,368.3 M600,366.6l-0.2,1.1l1.3,0.2l0.2-1.1
			L600,366.6 M600.3,364.9l-0.2,1.1l1.3,0.2l0.2-1.1L600.3,364.9 M600.6,363.2l-0.2,1.1l1.3,0.2l0.2-1.1L600.6,363.2 M600.9,361.4
			l-0.2,1.1l1.3,0.2l0.2-1.1L600.9,361.4 M601.1,359.7l-0.2,1.1l1.3,0.2l0.2-1.1L601.1,359.7 M601.4,358l-0.2,1.1l1.3,0.2l0.2-1.1
			L601.4,358 M601.7,356.2l-0.2,1.1l1.3,0.2l0.2-1.1L601.7,356.2 M602,354.5l-0.2,1.1l1.3,0.2l0.2-1.1L602,354.5 M602.3,352.8
			l-0.2,1.1l1.3,0.2l0.2-1.1L602.3,352.8 M602.6,351l-0.2,1.1l1.3,0.2l0.2-1.1L602.6,351 M602.9,349.3l-0.2,1.1l1.3,0.2l0.2-1.1
			L602.9,349.3 M603.2,347.7l-0.2,1l1.3,0.2l0.2-1l-0.6-0.2L603.2,347.7 M603.5,345.9l-0.2,1l1.3,0.2l0.2-1l-0.6-0.2L603.5,345.9
			 M603.8,344.1l-0.2,1.1l1.3,0.2l0.2-1.1L603.8,344.1 M604.1,342.4l-0.2,1.1l1.3,0.2l0.2-1.1L604.1,342.4 M604.4,340.7l-0.2,1.1
			l1.3,0.2l0.2-1.1L604.4,340.7 M604.7,339l-0.2,1l1.3,0.2l0.2-1l-0.6-0.2L604.7,339 M605,337.2l-0.2,1.1l1.3,0.2l0.2-1.1L605,337.2
			 M605.4,335.5l-0.2,1.1l1.3,0.2l0.2-1.1L605.4,335.5 M605.7,333.8l-0.2,1.1l1.3,0.2l0.2-1.1L605.7,333.8 M606,332.1l-0.2,1
			l1.3,0.2l0.2-1l-0.6-0.2L606,332.1 M606.3,330.3l-0.2,1.1l1.3,0.2l0.2-1.1L606.3,330.3 M606.7,328.6l-0.2,1.1l1.3,0.2l0.2-1.1
			L606.7,328.6 M607,326.9l-0.2,1.1l1.3,0.2l0.2-1.1L607,326.9 M607.3,325.1l-0.2,1.1l1.3,0.2l0.2-1.1L607.3,325.1 M607.7,323.4
			l-0.2,1.1l1.3,0.3l0.2-1.1L607.7,323.4 M608,321.7l-0.2,1.1l1.3,0.3l0.2-1.1L608,321.7 M608.4,320l-0.2,1.1l1.3,0.3l0.2-1.1
			L608.4,320 M608.8,318.3l-0.2,1.1l1.3,0.3l0.2-1.1L608.8,318.3 M609.1,316.5l-0.2,1.1l1.3,0.3l0.2-1.1L609.1,316.5 M609.5,314.8
			l-0.2,1.1l1.3,0.3l0.2-1.1L609.5,314.8 M609.9,313.1l-0.3,1.1l1.3,0.3l0.2-1.1L609.9,313.1 M610.3,311.4l-0.3,1.1l1.3,0.3l0.3-1.1
			L610.3,311.4 M610.7,309.7l-0.3,1.1l1.3,0.3l0.3-1.1L610.7,309.7 M611.2,308l-0.3,1.1l1.3,0.3l0.3-1.1L611.2,308 M611.6,306.3
			l-0.3,1.1l1.2,0.3l0.3-1.1L611.6,306.3 M612.1,304.6c-0.1,0.3-0.2,0.7-0.3,1.1l1.2,0.4c0.1-0.4,0.2-0.7,0.3-1.1L612.1,304.6
			 M612.6,302.9c-0.1,0.3-0.2,0.7-0.3,1.1l1.2,0.4c0.1-0.4,0.2-0.7,0.3-1L612.6,302.9 M613.2,301.2c-0.1,0.3-0.2,0.7-0.3,1l1.2,0.4
			c0.1-0.4,0.2-0.7,0.3-1.1L613.2,301.2 M613.7,299.5l-0.3,1.1l1.2,0.4l0.3-1.1L613.7,299.5 M614.2,297.9l-0.3,1.1l1.2,0.4l0.3-1.1
			L614.2,297.9 M614.6,296.2l-0.3,1.1l1.3,0.2l0.2-0.9L614.6,296.2 M615.1,294.5l-0.3,1.1l1.3,0.3l0.3-1.1L615.1,294.5 M615.4,292.8
			c-0.1,0.4-0.2,0.7-0.2,1.1l1.3,0.3c0.1-0.4,0.2-0.7,0.2-1.1L615.4,292.8 M615.8,291.1l-0.2,1.1l1.3,0.1l0.2-1L615.8,291.1
			 M616.1,289.4l-0.2,1.1l1.3,0.2l0.2-1.1L616.1,289.4 M616.4,287.7c-0.1,0.4-0.1,0.7-0.2,1.1l1.3,0.2c0.1-0.4,0.1-0.7,0.2-1.1
			L616.4,287.7 M616.7,286l-0.2,1.1l1.3,0.1l0.2-1L616.7,286 M617,284.2l-0.1,1.1l1.3,0.2l0.1-1.1L617,284.2 M617.2,282.5l-0.1,1.1
			l1.3,0.2l0.1-1.1L617.2,282.5 M617.3,280.8c0,0.4-0.1,0.7-0.1,1.1l1.3,0.1c0-0.4,0.1-0.7,0.1-1.1L617.3,280.8 M617.5,279l-0.1,1.1
			l1.3,0.1l0.1-1.1L617.5,279 M617.6,277.3l-0.1,1.1l1.3-0.1l0.1-1L617.6,277.3 M617.7,275.5l-0.1,1.1l1.3,0.1l0.1-1.1L617.7,275.5
			 M617.7,273.8l0,1.1l1.3,0l0-1.1L617.7,273.8 M619.1,272.1h-1.3l0,1.1l1.3,0L619.1,272.1 M619,270.3l-1.3,0l0,1.1l1.3,0L619,270.3
			 M619,268.5l-1.3,0.1l0,1.1l1.3,0L619,268.5 M618.9,266.8l-1.3,0.1l0.1,1.1l1.3-0.1L618.9,266.8 M618.8,265l-1.3,0.1
			c0,0.3,0.1,0.7,0.1,1.1l1.3-0.1C618.8,265.7,618.8,265.3,618.8,265 M618.6,263.2l-1.3,0.2c0,0.3,0.1,0.7,0.1,1.1l1.3-0.1
			C618.7,263.9,618.6,263.6,618.6,263.2 M618.3,261.5l-1.3,0.2c0,0,0.1,0.4,0.2,1.1l1.3-0.2C618.4,261.8,618.3,261.5,618.3,261.5"/>
		<g>
			<path d="M94.1,483.9l0,1.3l1.1,0l0-1.3L94.1,483.9 M97,483.9l-1.1,0v1.3l1.1,0L97,483.9 M98.7,483.9l-1.1,0l0,1.3l1.1,0
				L98.7,483.9 M92.4,483.9l0,1.3l1.1,0l0-1.3L92.4,483.9 M100.5,483.9l-1.1,0l0,1.3l1.1,0L100.5,483.9 M90.6,483.8l0,1.3l1.1,0
				l0-1.3L90.6,483.8 M102.2,483.8l-1.1,0l0,1.3l1.1,0L102.2,483.8 M104,483.8l-1.1,0l0,1.3l1.1,0L104,483.8 M88.9,483.8l0,1.3
				l1.1,0l0-1.3L88.9,483.8 M105.7,483.8l-1.1,0l0,1.3l1.1,0L105.7,483.8 M87.1,483.8l0,1.3l1.1,0l0-1.3L87.1,483.8 M107.5,483.7
				l-1.1,0l0,1.3l1.1,0L107.5,483.7 M109.2,483.7l-1.1,0l0,1.3l1.1,0L109.2,483.7 M85.4,483.7l0,1.3l1.1,0l0-1.3L85.4,483.7
				 M111,483.7l-1.1,0l0,1.3l1.1,0L111,483.7 M83.6,483.6l-0.1,1.3l1.1,0l0-1.3L83.6,483.6 M112.7,483.6l-1.1,0l0,1.3l1.1,0
				L112.7,483.6 M114.5,483.6l-1.1,0l0,1.3l1.1,0L114.5,483.6 M81.9,483.6l-0.1,1.3l1.1,0l0.1-1.3L81.9,483.6 M116.2,483.5l-1.1,0
				l0,1.3l1.1,0L116.2,483.5 M80.1,483.5l-0.1,1.3l1.1,0.1l0.1-1.3L80.1,483.5 M118,483.4l-1.1,0l0,1.3l1.1,0L118,483.4 M78.4,483.4
				l-0.1,1.3l1.1,0.1l0.1-1.3L78.4,483.4 M119.7,483.4l-1.1,0l0,1.3l1.1,0L119.7,483.4 M121.5,483.3l-1.1,0l0.1,1.3l1.1,0
				L121.5,483.3 M76.6,483.3l-0.1,1.3l1.1,0.1l0.1-1.3L76.6,483.3 M123.2,483.2l-1.1,0.1l0.1,1.3l1.1-0.1L123.2,483.2 M74.9,483.1
				l-0.1,1.3l1.1,0.1l0.1-1.3L74.9,483.1 M125,483.1l-1,0l-0.1,0.6l0.1,0.6l1,0L125,483.1 M126.7,483l-1,0.1l-0.1,0.7l0.1,0.6l1-0.1
				L126.7,483 M73.1,483l-0.1,1.3l1.1,0.1l0.1-1.3L73.1,483 M128.5,482.9l-1.1,0.1l0.1,1.3l1.1-0.1L128.5,482.9 M71.4,482.9
				l-0.1,1.3l1.1,0.1l0.1-1.3L71.4,482.9 M130.2,482.8l-1.1,0.1l0.1,1.3l1.1-0.1L130.2,482.8 M69.6,482.8l-0.1,1.3l1.1,0.1l0.1-1.3
				L69.6,482.8 M132,482.7l-1.1,0.1l0.1,1.3l1.1-0.1L132,482.7 M133.7,482.6l-1.1,0.1l0.1,1.3l1.1-0.1L133.7,482.6 M67.9,482.6
				l-0.1,1.3l1.1,0.1l0.1-1.3L67.9,482.6 M135.5,482.5l-1.1,0.1l0.1,1.3l1.1-0.1L135.5,482.5 M66.1,482.5l-0.1,1.3l1.1,0.1l0.1-1.3
				L66.1,482.5 M137.2,482.4l-1.1,0.1l0.1,1.3l1.1-0.1L137.2,482.4 M64.4,482.3l-0.1,1.3l1.1,0.1l0.1-1.3L64.4,482.3 M139,482.3
				l-1.1,0.1l0.1,1.3l1.1-0.1L139,482.3 M140.7,482.1l-1.1,0.1l0.1,1.3l1.1-0.1L140.7,482.1 M62.7,482.1l-0.1,1.3l1.1,0.1l0.1-1.3
				L62.7,482.1 M142.5,482l-1.1,0.1l0.1,1.3l1.1-0.1L142.5,482 M60.9,481.9l-0.1,1.3l1.1,0.1L62,482L60.9,481.9 M144.2,481.9
				l-1.1,0.1l0.1,1.3l1.1-0.1L144.2,481.9 M59.2,481.7L59,483l1.1,0.1l0.1-1.3L59.2,481.7 M146,481.7l-1.1,0.1l0.1,1.3l1.1-0.1
				L146,481.7 M147.7,481.6l-1.1,0.1l0.1,1.3l1.1-0.1L147.7,481.6 M57.4,481.6l-0.1,1.3l1.1,0.1l0.1-1.3L57.4,481.6 M149.3,481.4
				l-1,0.1l0.1,1.3l1-0.1L149.3,481.4 M55.7,481.4l-0.2,1.3l1.1,0.1l0.1-1.3L55.7,481.4 M54,481.1l-0.2,1.3l1.1,0.1l0.2-1.3
				L54,481.1 M52.2,480.9l-0.2,1.3l1.1,0.1l0.2-1.3L52.2,480.9 M50.5,480.7l-0.2,1.3l1.1,0.1l0.2-1.3L50.5,480.7 M48.7,480.5
				l-0.2,1.3l1.1,0.1l0.2-1.3L48.7,480.5 M47,480.2l-0.2,1.3l1.1,0.2l0.2-1.3L47,480.2 M45.3,480l-0.2,1.3l1.1,0.2l0.2-1.3L45.3,480
				 M43.5,479.7l-0.2,1.3l1.1,0.2l0.2-1.3L43.5,479.7 M41.8,479.5l-0.2,1.3l1.1,0.2l0.2-1.3L41.8,479.5 M40.1,479.2l-0.2,1.3
				l1.1,0.2l0.1-0.6l0-0.7L40.1,479.2 M38.3,478.9l-0.2,1.3l1.1,0.2l0.2-1.3L38.3,478.9 M36.6,478.6l-0.2,1.3l1.1,0.2l0.2-1.3
				L36.6,478.6 M34.9,478.3l-0.2,1.3l1.1,0.2l0.2-1.3L34.9,478.3"/>
			<path d="M94.1,478.7l0,1.3l1.1,0l0-1.3L94.1,478.7 M97,478.7l-1.1,0v1.3l1.1,0L97,478.7 M98.7,478.7l-1.1,0l0,1.3l1.1,0
				L98.7,478.7 M92.4,478.7l0,1.3l1.1,0l0-1.3L92.4,478.7 M100.5,478.7l-1.1,0l0,1.3l1.1,0L100.5,478.7 M90.6,478.7l0,1.3l1.1,0
				l0-1.3L90.6,478.7 M102.2,478.7l-1.1,0l0,1.3l1.1,0L102.2,478.7 M104,478.6l-1.1,0l0,1.3l1.1,0L104,478.6 M88.9,478.6l0,1.3
				l1.1,0l0-1.3L88.9,478.6 M105.7,478.6l-1.1,0l0,1.3l1.1,0L105.7,478.6 M87.1,478.6l0,1.3l1.1,0l0-1.3L87.1,478.6 M107.5,478.6
				l-1.1,0l0,1.3l1.1,0L107.5,478.6 M109.2,478.5l-1.1,0l0,1.3l1.1,0L109.2,478.5 M85.4,478.5l0,1.3l1.1,0l0-1.3L85.4,478.5
				 M111,478.5l-1.1,0l0,1.3l1.1,0L111,478.5 M83.6,478.5l-0.1,1.3l1.1,0l0-1.3L83.6,478.5 M112.7,478.4l-1.1,0l0,1.3l1.1,0
				L112.7,478.4 M114.5,478.4l-1.1,0l0,1.3l1.1,0L114.5,478.4 M81.9,478.4l-0.1,1.3l1.1,0l0.1-1.3L81.9,478.4 M116.2,478.3l-1.1,0
				l0,1.3l1.1,0L116.2,478.3 M80.1,478.3l-0.1,1.3l1.1,0.1l0.1-1.3L80.1,478.3 M118,478.3l-1.1,0l0,1.3l1.1,0L118,478.3 M78.4,478.2
				l-0.1,1.3l1.1,0.1l0.1-1.3L78.4,478.2 M119.7,478.2l-1.1,0l0,1.3l1.1,0L119.7,478.2 M121.5,478.1l-1.1,0l0.1,1.3l1.1,0
				L121.5,478.1 M76.6,478.1l-0.1,1.3l1.1,0.1l0.1-1.3L76.6,478.1 M123.2,478l-1.1,0.1l0.1,1.3l1.1-0.1L123.2,478 M74.9,478
				l-0.1,1.3l1.1,0.1l0.1-1.3L74.9,478 M125,478l-1,0l-0.1,0.6l0.1,0.6l1,0L125,478 M126.7,477.9l-1,0.1l-0.1,0.7l0.1,0.6l1-0.1
				L126.7,477.9 M73.1,477.9l-0.1,1.3l1.1,0.1l0.1-1.3L73.1,477.9 M128.5,477.8l-1.1,0.1l0.1,1.3l1.1-0.1L128.5,477.8 M71.4,477.7
				l-0.1,1.3l1.1,0.1l0.1-1.3L71.4,477.7 M130.2,477.7l-1.1,0.1l0.1,1.3l1.1-0.1L130.2,477.7 M69.6,477.6l-0.1,1.3l1.1,0.1l0.1-1.3
				L69.6,477.6 M132,477.6l-1.1,0.1l0.1,1.3l1.1-0.1L132,477.6 M133.7,477.5l-1.1,0.1l0.1,1.3l1.1-0.1L133.7,477.5 M67.9,477.4
				l-0.1,1.3l1.1,0.1l0.1-1.3L67.9,477.4 M135.5,477.4l-1.1,0.1l0.1,1.3l1.1-0.1L135.5,477.4 M66.1,477.3l-0.1,1.3l1.1,0.1l0.1-1.3
				L66.1,477.3 M137.2,477.2l-1.1,0.1l0.1,1.3l1.1-0.1L137.2,477.2 M64.4,477.1l-0.1,1.3l1.1,0.1l0.1-1.3L64.4,477.1 M139,477.1
				l-1.1,0.1l0.1,1.3l1.1-0.1L139,477.1 M140.7,477l-1.1,0.1l0.1,1.3l1.1-0.1L140.7,477 M62.7,476.9l-0.1,1.3l1.1,0.1l0.1-1.3
				L62.7,476.9 M142.5,476.8l-1.1,0.1l0.1,1.3l1.1-0.1L142.5,476.8 M60.9,476.8l-0.1,1.3l1.1,0.1l0.1-1.3L60.9,476.8 M144.2,476.7
				l-1.1,0.1l0.1,1.3l1.1-0.1L144.2,476.7 M59.2,476.6l-0.1,1.3l1.1,0.1l0.1-1.3L59.2,476.6 M146,476.6l-1.1,0.1l0.1,1.3l1.1-0.1
				L146,476.6 M147.7,476.4l-1.1,0.1l0.1,1.3l1.1-0.1L147.7,476.4 M57.4,476.4l-0.1,1.3l1.1,0.1l0.1-1.3L57.4,476.4 M149.3,476.2
				l-1,0.1l0.1,1.3l1-0.1L149.3,476.2 M55.7,476.2l-0.2,1.3l1.1,0.1l0.1-1.3L55.7,476.2 M54,476l-0.2,1.3l1.1,0.1l0.2-1.3L54,476
				 M52.2,475.8l-0.2,1.3l1.1,0.1l0.2-1.3L52.2,475.8 M50.5,475.5l-0.2,1.3l1.1,0.1l0.2-1.3L50.5,475.5 M48.7,475.3l-0.2,1.3
				l1.1,0.1l0.2-1.3L48.7,475.3 M47,475.1l-0.2,1.3l1.1,0.2l0.2-1.3L47,475.1 M45.3,474.8l-0.2,1.3l1.1,0.2l0.2-1.3L45.3,474.8
				 M43.5,474.6l-0.2,1.3l1.1,0.2l0.2-1.3L43.5,474.6 M41.8,474.3l-0.2,1.3l1.1,0.2l0.2-1.3L41.8,474.3 M40.1,474l-0.2,1.3l1.1,0.2
				l0.1-0.6l0-0.7L40.1,474 M38.3,473.7l-0.2,1.3l1.1,0.2l0.2-1.3L38.3,473.7 M36.6,473.5l-0.2,1.3l1.1,0.2l0.2-1.3L36.6,473.5
				 M34.9,473.1l-0.2,1.3l1.1,0.2l0.2-1.3L34.9,473.1"/>
			<path d="M638.7,483.9l0,1.3l1.1,0v-1.3L638.7,483.9 M641.6,483.9l-1.1,0l0,1.3l1.1,0L641.6,483.9 M636.9,483.9l0,1.3l1.1,0l0-1.3
				L636.9,483.9 M643.3,483.9l-1.1,0l0,1.3l1.1,0L643.3,483.9 M635.2,483.9l0,1.3l1.1,0l0-1.3L635.2,483.9 M645.1,483.8l-1.1,0
				l0,1.3l1.1,0L645.1,483.8 M633.4,483.8l0,1.3l1.1,0l0-1.3L633.4,483.8 M631.7,483.8l0,1.3l1.1,0l0-1.3L631.7,483.8 M646.8,483.8
				l-1.1,0l0,1.3l1.1,0L646.8,483.8 M629.9,483.8l0,1.3l1.1,0l0-1.3L629.9,483.8 M648.5,483.8l-1.1,0l0,1.3l1.1,0L648.5,483.8
				 M628.2,483.7l0,1.3l1.1,0l0-1.3L628.2,483.7 M626.4,483.7l0,1.3l1.1,0l0-1.3L626.4,483.7 M650.3,483.7l-1.1,0l0,1.3l1.1,0
				L650.3,483.7 M624.7,483.7l0,1.3l1.1,0l0-1.3L624.7,483.7 M652,483.6l-1.1,0l0,1.3l1.1,0L652,483.6 M622.9,483.6l0,1.3l1.1,0
				l0-1.3L622.9,483.6 M621.2,483.6l0,1.3l1.1,0l0-1.3L621.2,483.6 M653.8,483.6l-1.1,0l0.1,1.3l1.1,0L653.8,483.6 M619.4,483.5
				l0,1.3l1.1,0l0-1.3L619.4,483.5 M655.5,483.5l-1.1,0.1l0.1,1.3l1.1-0.1L655.5,483.5 M617.7,483.4l-0.1,1.3l1.1,0l0-1.3
				L617.7,483.4 M657.3,483.4l-1.1,0.1l0.1,1.3l1.1-0.1L657.3,483.4 M615.9,483.4l-0.1,1.3l1.1,0l0-1.3L615.9,483.4 M614.2,483.3
				l-0.1,1.3l1.1,0l0.1-1.3L614.2,483.3 M659,483.3l-1.1,0.1l0.1,1.3l1.1-0.1L659,483.3 M612.4,483.2l-0.1,1.3l1.1,0.1l0.1-1.3
				L612.4,483.2 M660.8,483.2l-1.1,0.1l0.1,1.3l1.1-0.1L660.8,483.2 M610.7,483.1l-0.1,1.3l1.1,0.1l0-1.3L610.7,483.1 M608.9,483
				l-0.1,1.3l1.1,0.1l0-1.3L608.9,483 M662.5,483l-1.1,0.1l0.1,1.3l1.1-0.1L662.5,483 M607.2,482.9l-0.1,1.3l1.1,0.1l0.1-1.3
				L607.2,482.9 M664.3,482.9l-1.1,0.1l0.1,1.3l1.1-0.1L664.3,482.9 M605.4,482.8l-0.1,1.3l1.1,0.1l0.1-1.3L605.4,482.8 M666,482.8
				l-1.1,0.1l0.1,1.3l1.1-0.1L666,482.8 M603.7,482.7l-0.1,1.3l1.1,0.1l0.1-1.3L603.7,482.7 M601.9,482.6l-0.1,1.3l1.1,0.1l0.1-1.3
				L601.9,482.6 M667.8,482.6l-1.1,0.1l0.1,1.3l1.1-0.1L667.8,482.6 M600.2,482.5l-0.1,1.3l1.1,0.1l0.1-1.3L600.2,482.5
				 M669.5,482.5l-1.1,0.1l0.1,1.3l1.1-0.1L669.5,482.5 M598.4,482.4l-0.1,1.3l1.1,0.1l0.1-1.3L598.4,482.4 M671.3,482.3l-1.1,0.1
				l0.1,1.3l1.1-0.1L671.3,482.3 M596.7,482.3l-0.1,1.3l1.1,0.1l0.1-1.3L596.7,482.3 M594.9,482.1l-0.1,1.3l1.1,0.1l0.1-1.3
				L594.9,482.1 M673,482.1l-1.1,0.1l0.1,1.3l1.1-0.1L673,482.1 M593.2,482l-0.1,1.3l1.1,0.1l0.1-1.3L593.2,482 M674.7,481.9
				l-1.1,0.1l0.1,1.3l1.1-0.1L674.7,481.9 M591.4,481.9l-0.1,1.3l1.1,0.1l0.1-1.3L591.4,481.9 M676.5,481.7l-1.1,0.1l0.1,1.3
				l1.1-0.1L676.5,481.7 M589.7,481.7l-0.1,1.3l1.1,0.1l0.1-1.3L589.7,481.7 M587.9,481.6l-0.1,1.3l1.1,0.1l0.1-1.3L587.9,481.6
				 M678.2,481.6l-1.1,0.1l0.1,1.3l1.1-0.1L678.2,481.6 M586.3,481.4l0,1.3l0.9,0.1l0.1-1.3L586.3,481.4 M680,481.4l-1.1,0.1
				l0.1,1.3l1.1-0.1L680,481.4 M681.7,481.1l-1.1,0.1l0.2,1.3l1.1-0.1L681.7,481.1 M683.4,480.9l-1.1,0.1l0.2,1.3l1.1-0.1
				L683.4,480.9 M685.2,480.7l-1.1,0.1l0.2,1.3l1.1-0.1L685.2,480.7 M686.9,480.5l-1.1,0.1l0.2,1.3l1.1-0.1L686.9,480.5
				 M688.6,480.2l-1.1,0.2l0.2,1.3l1.1-0.2L688.6,480.2 M690.4,480l-1.1,0.2l0.2,1.3l1.1-0.2L690.4,480 M692.1,479.7l-1.1,0.2
				l0.2,1.3l1.1-0.2L692.1,479.7 M693.9,479.5l-1.1,0.2l0.2,1.3l1.1-0.2L693.9,479.5 M695.6,479.2l-1.1,0.2l0.3,1.3l1-0.2
				L695.6,479.2 M697.3,478.9l-1.1,0.2l0.2,1.3l1.1-0.2L697.3,478.9 M699,478.6l-1.1,0.2l0.2,1.3l1.1-0.2L699,478.6 M700.8,478.3
				l-1.1,0.2l0.2,1.3l1.1-0.2L700.8,478.3"/>
			<path d="M638.7,478.7l0,1.3l1.1,0v-1.3L638.7,478.7 M641.6,478.7l-1.1,0l0,1.3l1.1,0L641.6,478.7 M636.9,478.7l0,1.3l1.1,0l0-1.3
				L636.9,478.7 M643.3,478.7l-1.1,0l0,1.3l1.1,0L643.3,478.7 M635.2,478.7l0,1.3l1.1,0l0-1.3L635.2,478.7 M645.1,478.7l-1.1,0
				l0,1.3l1.1,0L645.1,478.7 M633.4,478.7l0,1.3l1.1,0l0-1.3L633.4,478.7 M631.7,478.6l0,1.3l1.1,0l0-1.3L631.7,478.6 M646.8,478.6
				l-1.1,0l0,1.3l1.1,0L646.8,478.6 M629.9,478.6l0,1.3l1.1,0l0-1.3L629.9,478.6 M648.5,478.6l-1.1,0l0,1.3l1.1,0L648.5,478.6
				 M628.2,478.6l0,1.3l1.1,0l0-1.3L628.2,478.6 M626.4,478.5l0,1.3l1.1,0l0-1.3L626.4,478.5 M650.3,478.5l-1.1,0l0,1.3l1.1,0
				L650.3,478.5 M624.7,478.5l0,1.3l1.1,0l0-1.3L624.7,478.5 M652,478.5l-1.1,0l0,1.3l1.1,0L652,478.5 M622.9,478.4l0,1.3l1.1,0
				l0-1.3L622.9,478.4 M621.2,478.4l0,1.3l1.1,0l0-1.3L621.2,478.4 M653.8,478.4l-1.1,0l0.1,1.3l1.1,0L653.8,478.4 M619.4,478.3
				l0,1.3l1.1,0l0-1.3L619.4,478.3 M655.5,478.3l-1.1,0.1l0.1,1.3l1.1-0.1L655.5,478.3 M617.7,478.3l-0.1,1.3l1.1,0l0-1.3
				L617.7,478.3 M657.3,478.2l-1.1,0.1l0.1,1.3l1.1-0.1L657.3,478.2 M615.9,478.2l-0.1,1.3l1.1,0l0-1.3L615.9,478.2 M614.2,478.1
				l-0.1,1.3l1.1,0l0.1-1.3L614.2,478.1 M659,478.1l-1.1,0.1l0.1,1.3l1.1-0.1L659,478.1 M612.4,478l-0.1,1.3l1.1,0.1l0.1-1.3
				L612.4,478 M660.8,478l-1.1,0.1l0.1,1.3l1.1-0.1L660.8,478 M610.7,478l-0.1,1.3l1.1,0.1l0-1.3L610.7,478 M608.9,477.9l-0.1,1.3
				l1.1,0.1l0-1.3L608.9,477.9 M662.5,477.9l-1.1,0.1l0.1,1.3l1.1-0.1L662.5,477.9 M607.2,477.8l-0.1,1.3l1.1,0.1l0.1-1.3
				L607.2,477.8 M664.3,477.7l-1.1,0.1l0.1,1.3l1.1-0.1L664.3,477.7 M605.4,477.7l-0.1,1.3l1.1,0.1l0.1-1.3L605.4,477.7 M666,477.6
				l-1.1,0.1l0.1,1.3l1.1-0.1L666,477.6 M603.7,477.6l-0.1,1.3l1.1,0.1l0.1-1.3L603.7,477.6 M601.9,477.5l-0.1,1.3l1.1,0.1l0.1-1.3
				L601.9,477.5 M667.8,477.4l-1.1,0.1l0.1,1.3l1.1-0.1L667.8,477.4 M600.2,477.4l-0.1,1.3l1.1,0.1l0.1-1.3L600.2,477.4
				 M669.5,477.3l-1.1,0.1l0.1,1.3l1.1-0.1L669.5,477.3 M598.4,477.2l-0.1,1.3l1.1,0.1l0.1-1.3L598.4,477.2 M671.3,477.1l-1.1,0.1
				l0.1,1.3l1.1-0.1L671.3,477.1 M596.7,477.1l-0.1,1.3l1.1,0.1l0.1-1.3L596.7,477.1 M594.9,477l-0.1,1.3l1.1,0.1l0.1-1.3L594.9,477
				 M673,476.9l-1.1,0.1l0.1,1.3l1.1-0.1L673,476.9 M593.2,476.8l-0.1,1.3l1.1,0.1l0.1-1.3L593.2,476.8 M674.7,476.8l-1.1,0.1
				l0.1,1.3l1.1-0.1L674.7,476.8 M591.4,476.7l-0.1,1.3l1.1,0.1l0.1-1.3L591.4,476.7 M676.5,476.6l-1.1,0.1l0.1,1.3l1.1-0.1
				L676.5,476.6 M589.7,476.6l-0.1,1.3l1.1,0.1l0.1-1.3L589.7,476.6 M587.9,476.4l-0.1,1.3l1.1,0.1l0.1-1.3L587.9,476.4
				 M678.2,476.4l-1.1,0.1l0.1,1.3l1.1-0.1L678.2,476.4 M586.3,476.2l0,1.3l0.9,0.1l0.1-1.3L586.3,476.2 M680,476.2l-1.1,0.1
				l0.1,1.3l1.1-0.1L680,476.2 M681.7,476l-1.1,0.1l0.2,1.3l1.1-0.1L681.7,476 M683.4,475.8l-1.1,0.1l0.2,1.3l1.1-0.1L683.4,475.8
				 M685.2,475.5l-1.1,0.1l0.2,1.3l1.1-0.1L685.2,475.5 M686.9,475.3l-1.1,0.1l0.2,1.3l1.1-0.1L686.9,475.3 M688.6,475.1l-1.1,0.2
				l0.2,1.3l1.1-0.2L688.6,475.1 M690.4,474.8l-1.1,0.2l0.2,1.3l1.1-0.2L690.4,474.8 M692.1,474.6l-1.1,0.2l0.2,1.3l1.1-0.2
				L692.1,474.6 M693.9,474.3l-1.1,0.2l0.2,1.3l1.1-0.2L693.9,474.3 M695.6,474l-1.1,0.2l0.3,1.3l1-0.2L695.6,474 M697.3,473.7
				l-1.1,0.2l0.2,1.3l1.1-0.2L697.3,473.7 M699,473.5l-1.1,0.2l0.2,1.3l1.1-0.2L699,473.5 M700.8,473.1l-1.1,0.2l0.2,1.3l1.1-0.2
				L700.8,473.1"/>
			<path d="M282.7,162.6l-1.1,0.2l0.2,1.3l1.1-0.2L282.7,162.6 M284.5,162.3l-1.1,0.2l0.2,1.3l1.1-0.2L284.5,162.3 M453,162
				l-0.2,1.3l0.9,0.1l0.2-1.3L453,162 M286.2,162l-1.1,0.2l0.2,1.3l1.1-0.2L286.2,162 M451.3,161.8l-0.2,1.3l1.1,0.2l0.2-1.3
				L451.3,161.8 M288,161.8l-1.1,0.2l0.2,1.3l1.1-0.2L288,161.8 M449.5,161.5l-0.1,0.6l0,0.7l1,0.1l0.2-1.3l-1-0.1l-0.2,0.6
				L449.5,161.5 M289.7,161.5l-1.1,0.2l0.2,1.3l1.1-0.2L289.7,161.5 M447.8,161.3l-0.2,1.3l1.1,0.2l0.2-1.3L447.8,161.3
				 M291.4,161.3l-1.1,0.2l0.2,1.3l1.1-0.2L291.4,161.3 M446,161.1l-0.2,1.3l1.1,0.1l0.2-1.3L446,161.1 M293.2,161l-1.1,0.2l0.2,1.3
				l1.1-0.2L293.2,161 M444.3,160.8l-0.2,1.3l1.1,0.1l0.2-1.3L444.3,160.8 M294.9,160.8l-1.1,0.2l0.2,1.3l1.1-0.2L294.9,160.8
				 M442.5,160.6l-0.2,1.3l1.1,0.1l0.2-1.3L442.5,160.6 M296.7,160.5l-1.1,0.1l0.2,1.3l1.1-0.1L296.7,160.5 M440.8,160.4l-0.2,1.3
				l1.1,0.1l0.2-1.3L440.8,160.4 M298.4,160.3l-1.1,0.1l0.2,1.3l1.1-0.1L298.4,160.3 M439.1,160.1l-0.2,1.3l1.1,0.1l0.2-1.3
				L439.1,160.1 M300.1,160.1l-1.1,0.1l0.2,1.3l1.1-0.1L300.1,160.1 M437.3,159.9l-0.2,1.3l1.1,0.1l0.2-1.3L437.3,159.9
				 M301.9,159.8l-1.1,0.1l0.2,1.3l1.1-0.1L301.9,159.8 M435.6,159.7l-0.2,1.3l1.1,0.1l0.2-1.3L435.6,159.7 M303.6,159.6l-1.1,0.1
				l0.2,1.3l1.1-0.1L303.6,159.6 M433.8,159.5l-0.2,1.3l1.1,0.1l0.2-1.3L433.8,159.5 M305.4,159.4l-1.1,0.1l0.2,1.3l1.1-0.1
				L305.4,159.4 M432.1,159.3l-0.1,1.3l1.1,0.1l0.2-1.3L432.1,159.3 M307.1,159.2l-1.1,0.1l0.2,1.3l1.1-0.1L307.1,159.2
				 M430.3,159.1l-0.1,1.3l1.1,0.1l0.1-1.3L430.3,159.1 M308.8,159l-1.1,0.1l0.2,1.3l1.1-0.1L308.8,159 M428.6,158.9l-0.1,1.3
				l1.1,0.1l0.1-1.3L428.6,158.9 M310.6,158.8l-1.1,0.1l0.2,1.3l1.1-0.1L310.6,158.8 M426.9,158.7l-0.1,1.3l1.1,0.1l0.1-1.3
				L426.9,158.7 M312.3,158.6l-1.1,0.1l0.2,1.3l1.1-0.1L312.3,158.6 M425.1,158.5l-0.1,1.3l1.1,0.1l0.1-1.3L425.1,158.5
				 M314.1,158.4l-1.1,0.1l0.1,1.3l1.1-0.1L314.1,158.4 M423.4,158.3l-0.1,1.3l1.1,0.1l0.1-1.3L423.4,158.3 M315.8,158.2l-1.1,0.1
				l0.1,1.3l1.1-0.1L315.8,158.2 M421.6,158.1l-0.1,1.3l1.1,0.1l0.1-1.3L421.6,158.1 M317.6,158l-1.1,0.1l0.1,1.3l1.1-0.1L317.6,158
				 M419.9,157.9l-0.1,1.3l1.1,0.1l0.1-1.3L419.9,157.9 M319.3,157.8l-1.1,0.1l0.1,1.3l1.1-0.1L319.3,157.8 M418.1,157.8l-0.1,1.3
				l1.1,0.1l0.1-1.3L418.1,157.8 M416.4,157.6l-0.1,1.3l1.1,0.1l0.1-1.3L416.4,157.6 M321.1,157.6l-1.1,0.1l0.1,1.3l1.1-0.1
				L321.1,157.6 M414.6,157.4l-0.1,1.3l1.1,0.1l0.1-1.3L414.6,157.4 M322.8,157.4l-1.1,0.1l0.1,1.3l1.1-0.1L322.8,157.4
				 M412.9,157.3l-0.1,1.3l1.1,0.1l0.1-1.3L412.9,157.3 M324.6,157.2l-1.1,0.1l0.1,1.3l1.1-0.1L324.6,157.2 M411.1,157.1l-0.1,1.3
				l1.1,0.1l0.1-1.3L411.1,157.1 M326.3,157.1l-1.1,0.1l0.1,1.3l1.1-0.1L326.3,157.1 M409.4,156.9l-0.1,1.3l1.1,0.1l0.1-1.3
				L409.4,156.9 M328.1,156.9l-1.1,0.1l0.1,1.3l1.1-0.1L328.1,156.9 M407.6,156.8l-0.1,1.3l1.1,0.1l0.1-1.3L407.6,156.8
				 M329.8,156.7l-1.1,0.1l0.1,1.3l1.1-0.1L329.8,156.7 M405.9,156.6l-0.1,1.3l1.1,0.1l0.1-1.3L405.9,156.6 M331.5,156.6l-1.1,0.1
				l0.1,1.3l1.1-0.1L331.5,156.6 M404.1,156.5l-0.1,1.3l1.1,0.1l0.1-1.3L404.1,156.5 M333.3,156.4l-1.1,0.1l0.1,1.3l1.1-0.1
				L333.3,156.4 M402.4,156.4l-0.1,1.3l1.1,0.1l0.1-1.3L402.4,156.4 M335.1,156.3l-1.1,0.1l0.1,1.3l1.1-0.1L335.1,156.3
				 M400.6,156.2l-0.1,1.3l1.1,0.1l0.1-1.3L400.6,156.2 M336.8,156.2l-1.1,0.1l0.1,1.3l1.1-0.1L336.8,156.2 M398.9,156.1l-0.1,1.3
				l1.1,0.1l0.1-1.3L398.9,156.1 M338.5,156l-1.1,0.1l0.1,1.3l1.1-0.1L338.5,156 M397.1,156l-0.1,1.3l1.1,0.1l0.1-1.3L397.1,156
				 M340.3,155.9l-1.1,0.1l0.1,1.3l1.1-0.1L340.3,155.9 M395.4,155.9l-0.1,1.3l1.1,0.1l0.1-1.3L395.4,155.9 M341.9,155.8l-1,0.1
				l0.1,1.3l1.1-0.1L341.9,155.8 M393.6,155.7l-0.1,1.3l1.1,0.1l0.1-1.3L393.6,155.7 M343.7,155.7l-1,0.1l0.1,1.3l1.1-0.1
				L343.7,155.7 M391.9,155.6l-0.1,1.3l1.1,0.1l0.1-1.3L391.9,155.6 M345.5,155.5l-1.1,0.1l0.1,1.3l1.1-0.1L345.5,155.5
				 M390.1,155.5l-0.1,1.3l1.1,0.1l0.1-1.3L390.1,155.5 M347.3,155.4l-1.1,0.1l0.1,1.3l1.1-0.1L347.3,155.4 M388.4,155.4l-0.1,1.3
				l1.1,0.1l0.1-1.3L388.4,155.4 M349.1,155.3l-1.1,0.1l0.1,1.3l1.1-0.1L349.1,155.3 M386.6,155.3l-0.1,1.3l1.1,0.1l0.1-1.3
				L386.6,155.3 M384.8,155.3l-0.1,1.3l1.1,0.1l0-1.3L384.8,155.3 M350.8,155.3l-1.1,0.1l0.1,1.3l1.1-0.1L350.8,155.3 M383.1,155.2
				l-0.1,1.3l1.1,0l0-1.3L383.1,155.2 M352.6,155.2l-1.1,0.1l0.1,1.3l1.1-0.1L352.6,155.2 M381.3,155.1l0,1.3l1.1,0l0.1-1.3
				L381.3,155.1 M354.3,155.1l-1.1,0l0.1,1.3l1.1,0L354.3,155.1 M379.6,155l0,1.3l1.1,0l0-1.3L379.6,155 M356.1,155l-1.1,0l0,1.3
				l1.1,0L356.1,155 M377.8,155l0,1.3l1.1,0l0-1.3L377.8,155 M357.8,155l-1.1,0l0,1.3l1.1,0L357.8,155 M376.1,154.9l0,1.3l1.1,0
				l0-1.3L376.1,154.9 M359.6,154.9l-1.1,0l0,1.3l1.1,0L359.6,154.9 M374.3,154.9l0,0.6l0,0.6l1.1,0l0-1.3L374.3,154.9l0,0.6
				L374.3,154.9 M361.4,154.9l-1.1,0l0,1.3l1.1,0L361.4,154.9 M372.6,154.9l0,1.3l1.1,0l0-1.3L372.6,154.9 M363.1,154.8l-1.1,0
				l0,1.3l1.1,0L363.1,154.8 M370.8,154.8l0,1.3l1.1,0l0-1.3L370.8,154.8 M364.9,154.8l-1.1,0l0,0.6l0,0.6l1.1,0L364.9,154.8
				 M369,154.8l0,1.3l1.1,0l0-1.3L369,154.8 M366.6,154.8l-1.1,0l0,1.3l1.1,0L366.6,154.8 M367.7,154.8l-0.4,0v1.3l0.4,0l0.7,0
				l0-1.3L367.7,154.8"/>
			<path d="M264.8,172.1l-1.1,0.2l0.2,1.3l1.1-0.2L264.8,172.1 M266.6,171.8l-1.1,0.2l0.2,1.3l1.1-0.2L266.6,171.8 M268.3,171.6
				l-1.1,0.2l0.2,1.3l1.1-0.2L268.3,171.6 M270.1,171.3l-1.1,0.2l0.2,1.3l1.1-0.2L270.1,171.3 M271.8,171l-1.1,0.2l0.2,1.3l1.1-0.2
				L271.8,171 M273.5,170.7l-1.1,0.2l0.2,1.3l1.1-0.2L273.5,170.7 M275.3,170.5l-1.1,0.2l0.2,1.3l1.1-0.2L275.3,170.5 M277,170.2
				l-1.1,0.2l0.2,1.3l1.1-0.2L277,170.2 M469.9,170.2l-0.1,0.6l-0.4-0.4l0.4,0.4l-0.1,0.7l0.5-0.1l-0.4-0.5L469.9,170.2L469.9,170.2
				 M278.7,170l-0.9,0.1l-0.1,0.7l0.2,0.6l0.9-0.1L278.7,170 M468.2,169.9l-0.2,1.3l1.1,0.1l0.2-1.3L468.2,169.9 M280.5,169.7
				l-1.1,0.2l0.2,1.3l1.1-0.2L280.5,169.7 M466.4,169.7l-0.2,1.3l1.1,0.1l0.1-1.3L466.4,169.7 M464.7,169.5l-0.2,1.3l1.1,0.1
				l0.2-1.3L464.7,169.5 M282.2,169.4l-1.1,0.2l0.2,1.3l1.1-0.2L282.2,169.4 M462.9,169.2l-0.2,1.3l1.1,0.1l0.2-1.3L462.9,169.2
				 M284,169.2l-1.1,0.2l0.2,1.3l1.1-0.2L284,169.2 M461.2,169l-0.2,1.3l1.1,0.1l0.2-1.3L461.2,169 M285.7,168.9l-1.1,0.2l0.2,1.3
				l1.1-0.2L285.7,168.9 M459.5,168.8l-0.2,1.3l1.1,0.1l0.2-1.3L459.5,168.8 M287.4,168.7l-1.1,0.2l0.2,1.3l1.1-0.2L287.4,168.7
				 M457.7,168.6l-0.2,1.3l1.1,0.1l0.2-1.3L457.7,168.6 M289.2,168.5l-1.1,0.2l0.2,1.3l1.1-0.2L289.2,168.5 M456,168.4l-0.2,1.3
				l1.1,0.1l0.2-1.3L456,168.4 M290.9,168.2l-1.1,0.2l0.2,1.3l1.1-0.2L290.9,168.2 M454.2,168.2l-0.2,1.3l1.1,0.1l0.2-1.3
				L454.2,168.2 M292.7,168l-1.1,0.2l0.2,1.3l1.1-0.2L292.7,168 M452.5,167.9l-0.2,1.3l1.1,0.1l0.2-1.3L452.5,167.9 M294.4,167.7
				l-1.1,0.1l0.2,1.3l1.1-0.1L294.4,167.7 M450.7,167.7l-0.2,1.3l1.1,0.1l0.2-1.3L450.7,167.7 M449,167.5l-0.2,1.3l1.1,0.1l0.2-1.3
				L449,167.5 M296.1,167.5l-1.1,0.1l0.2,1.3l1.1-0.1L296.1,167.5 M447.3,167.3l-0.1,1.3l1.1,0.1l0.2-1.3L447.3,167.3 M297.9,167.3
				l-1.1,0.1l0.2,1.3l1.1-0.1L297.9,167.3 M445.5,167.1l-0.1,1.3l1.1,0.1l0.2-1.3L445.5,167.1 M299.6,167l-1.1,0.1l0.2,1.3l1.1-0.1
				L299.6,167 M443.8,166.9l-0.1,1.3l1.1,0.1l0.1-1.3L443.8,166.9 M301.4,166.8l-1.1,0.1l0.2,1.3l1.1-0.1L301.4,166.8 M442,166.7
				l-0.1,1.3l1.1,0.1l0.1-1.3L442,166.7 M303.1,166.6l-1.1,0.1l0.2,1.3l1.1-0.1L303.1,166.6 M440.3,166.5l-0.1,1.3l1.1,0.1l0.1-1.3
				L440.3,166.5 M304.8,166.4l-1.1,0.1l0.2,1.3l1.1-0.1L304.8,166.4 M438.5,166.3l-0.1,1.3l1.1,0.1l0.1-1.3L438.5,166.3
				 M306.6,166.2l-1.1,0.1l0.2,1.3l1.1-0.1L306.6,166.2 M436.8,166.1l-0.1,1.3l1.1,0.1l0.1-1.3L436.8,166.1 M435,165.9l-0.1,1.3
				l1.1,0.1l0.1-1.3L435,165.9 M308.3,165.9l-1.1,0.1l0.2,1.3l1.1-0.1L308.3,165.9 M433.3,165.8l-0.1,1.3l1.1,0.1l0.1-1.3
				L433.3,165.8 M310.1,165.7l-1.1,0.1l0.2,1.3l1.1-0.1L310.1,165.7 M431.6,165.6l-0.1,1.3l1.1,0.1l0.1-1.3L431.6,165.6
				 M311.8,165.5l-1.1,0.1l0.2,1.3l1.1-0.1L311.8,165.5 M429.8,165.4l-0.1,1.3l1.1,0.1l0.1-1.3L429.8,165.4 M313.6,165.3l-1.1,0.1
				l0.1,1.3l1.1-0.1L313.6,165.3 M428.1,165.2l-0.1,1.3l1.1,0.1l0.1-1.3L428.1,165.2 M315.3,165.1l-1.1,0.1l0.1,1.3l1.1-0.1
				L315.3,165.1 M426.3,165l-0.1,1.3l1.1,0.1l0.1-1.3L426.3,165 M317,164.9l-1.1,0.1l0.1,1.3l1.1-0.1L317,164.9 M424.6,164.8l0,1.3
				l0.9,0.1l0.1-1.3L424.6,164.8 M318.8,164.7l-1.1,0.1l0.1,1.3l1.1-0.1L318.8,164.7 M422.8,164.7l-0.1,1.3l1.1,0.1l0.1-1.3
				L422.8,164.7 M320.5,164.5l-1.1,0.1l0.1,1.3l1.1-0.1L320.5,164.5 M421.1,164.5l-0.1,1.3l1.1,0.1l0.1-1.3L421.1,164.5
				 M419.3,164.3l-0.1,1.3l1.1,0.1l0.1-1.3L419.3,164.3 M322.3,164.3l-1.1,0.1l0.1,1.3l1.1-0.1L322.3,164.3 M417.6,164.2l-0.1,1.3
				l1.1,0.1l0.1-1.3L417.6,164.2 M324,164.1l-1.1,0.1l0.1,1.3l1.1-0.1L324,164.1 M415.8,164l-0.1,1.3l1.1,0.1l0.1-1.3L415.8,164
				 M325.8,164l-1.1,0.1l0.1,1.3l1.1-0.1L325.8,164 M414.1,163.8l-0.1,1.3l1.1,0.1l0.1-1.3L414.1,163.8 M327.5,163.8l-1.1,0.1
				l0.1,1.3l1.1-0.1L327.5,163.8 M412.3,163.7l-0.1,1.3l1.1,0.1l0.1-1.3L412.3,163.7 M329.3,163.6l-1.1,0.1l0.1,1.3l1.1-0.1
				L329.3,163.6 M410.6,163.5l-0.1,1.3l1.1,0.1l0.1-1.3L410.6,163.5 M331,163.4l-1.1,0.1l0.1,1.3l1.1-0.1L331,163.4 M408.8,163.4
				l-0.1,1.3l1.1,0.1l0.1-1.3L408.8,163.4 M332.8,163.3l-1.1,0.1l0.1,1.3l1.1-0.1L332.8,163.3 M407.1,163.2l-0.1,1.3l1.1,0.1
				l0.1-1.3L407.1,163.2 M334.5,163.1l-1.1,0.1l0.1,1.3l1.1-0.1L334.5,163.1 M405.3,163.1l-0.1,1.3l1.1,0.1l0.1-1.3L405.3,163.1
				 M403.6,163l-0.1,1.3l1.1,0.1l0.1-1.3L403.6,163 M336.3,163l-1.1,0.1l0.1,1.3l1.1-0.1L336.3,163 M401.8,162.8l-0.1,1.3l1.1,0.1
				l0.1-1.3L401.8,162.8 M337.9,162.8l-0.9,0.1l0.1,1.3l1.1-0.1L337.9,162.8 M400.1,162.7L400,164l1.1,0.1l0.1-1.3L400.1,162.7
				 M339.8,162.7l-1.1,0.1l0.1,1.3l1.1-0.1L339.8,162.7 M398.3,162.6l-0.1,1.3l1.1,0.1l0.1-1.3L398.3,162.6 M341.5,162.5l-1.1,0.1
				l0.1,1.3l1.1-0.1L341.5,162.5 M396.6,162.4l-0.1,1.3l1.1,0.1l0.1-1.3L396.6,162.4 M343.3,162.4l-1.1,0.1l0.1,1.3l1.1-0.1
				L343.3,162.4 M394.8,162.3l-0.1,1.3l1.1,0.1l0.1-1.3L394.8,162.3 M345,162.3l-1.1,0.1l0.1,1.3l1.1-0.1L345,162.3 M393.1,162.2
				l-0.1,1.3l1.1,0.1l0.1-1.3L393.1,162.2 M346.8,162.1l-1.1,0.1l0.1,1.3l1.1-0.1L346.8,162.1 M391.3,162.1l-0.1,1.3l1.1,0.1
				l0.1-1.3L391.3,162.1 M348.5,162l-1.1,0.1l0.1,1.3l1.1-0.1L348.5,162 M389.6,162l-0.1,1.3l1.1,0.1l0.1-1.3L389.6,162
				 M350.3,161.9l-1.1,0.1l0.1,1.3l1.1-0.1L350.3,161.9 M387.8,161.9l-0.1,1.3l1.1,0.1l0.1-1.3L387.8,161.9 M386.1,161.8l-0.1,1.3
				l1.1,0.1l0.1-1.3L386.1,161.8 M352,161.8l-1.1,0.1l0.1,1.3l1.1-0.1L352,161.8 M384.3,161.7l-0.1,1.3l1.1,0.1l0.1-1.3L384.3,161.7
				 M353.8,161.7l-1.1,0.1l0.1,1.3l1.1-0.1L353.8,161.7 M382.6,161.6l-0.1,1.3l1.1,0.1l0.1-1.3L382.6,161.6 M355.5,161.6l-1.1,0.1
				l0.1,1.3l1.1-0.1L355.5,161.6 M380.8,161.6l0,1.3l1.1,0l0-1.3L380.8,161.6 M357.3,161.5l-1,0l-0.1,0.6l0.1,0.6l1,0L357.3,161.5
				 M379,161.5l0,1.3l1.1,0l0-1.3L379,161.5 M359.1,161.5l-1.1,0l0.1,1.3l1.1,0L359.1,161.5 M377.3,161.4l0,1.3l1.1,0l0-1.3
				L377.3,161.4 M360.8,161.4l-1.1,0l0,1.3l1.1,0L360.8,161.4 M375.5,161.4l0,1.3l1.1,0l0-1.3L375.5,161.4 M362.6,161.4l-1.1,0
				l0,1.3l1.1,0L362.6,161.4 M373.8,161.3l0,0.6l0,0.6l1.1,0l0-1.3L373.8,161.3l0,0.6L373.8,161.3 M364.3,161.3l-1.1,0l0,1.3l1.1,0
				L364.3,161.3 M372,161.3l0,1.3l1.1,0l0-1.3L372,161.3 M366.1,161.3l-1.1,0l0,1.3l1.1,0L366.1,161.3 M370.3,161.3l0,1.3l1.1,0
				l0-1.3L370.3,161.3 M367.8,161.3l-1.1,0l0,1.3l1.1,0L367.8,161.3 M368.5,161.3l0.1,1.3l1,0l0-1.3L368.5,161.3"/>
			<path d="M149.8,468.8l0,1.1l1.3,0.1l0-1.1L149.8,468.8 M149.9,467.1l0,1.1l1.3,0l0-1.1L149.9,467.1 M149.9,465.3l0,1.1l1.3,0
				l0-1.1L149.9,465.3 M150,463.6l0,1.1l1.3,0l0-1.1L150,463.6 M150,461.8l0,1.1l1.3,0l0-1.1L150,461.8 M150,460.1l0,1.1l1.3,0
				l0-1.1L150,460.1 M150,458.3l0,1.1l1.3,0l0-1.1L150,458.3 M150.1,456.6l0,1.1l0.6,0l0.6,0l0-1.1L150.1,456.6 M150.1,454.8l0,1.1
				l1.3,0l0-1.1L150.1,454.8 M151.4,453.1h-1.3l0,1.1l1.3,0L151.4,453.1 M150.1,451.3l0,1.1h1.3l0-1.1L150.1,451.3 M151.4,449.6
				l-1.3,0c0,0.3,0,0.5,0,0.8v0.3h1.3v-0.3C151.4,450.1,151.4,449.8,151.4,449.6 M151.2,447.8l-1.3,0.1c0,0.4,0.1,0.7,0.1,1.1
				l1.3-0.1C151.3,448.5,151.3,448.1,151.2,447.8 M151,446l-1.3,0.2c0.1,0.4,0.1,0.7,0.1,1.1l1.3-0.1
				C151.1,446.7,151.1,446.4,151,446 M150.8,444.2l-1.3,0.2l0.2,1.1l1.3-0.2C150.9,445,150.8,444.6,150.8,444.2 M150.4,442.5
				l-1.3,0.3l0.2,1.1l1.3-0.2L150.4,442.5 M150.1,440.8l-1.3,0.3l0.2,1.1l1.3-0.3L150.1,440.8 M149.7,439l-1.3,0.3l0.3,1.1l1.3-0.3
				C149.8,439.8,149.8,439.4,149.7,439 M149.2,437.3l-1.3,0.3l0.3,1.1l1.3-0.3L149.2,437.3 M148.8,435.6l-1.2,0.3l0.3,1.1l1.2-0.3
				L148.8,435.6 M148.3,433.9l-1.2,0.3l0.3,1.1l1.2-0.3L148.3,433.9 M147.8,432.3l-1.2,0.4l0.3,1.1l1.2-0.4L147.8,432.3
				 M147.3,430.6l-1.2,0.4l0.3,1.1l1.2-0.4L147.3,430.6 M146.8,428.9l-1.2,0.4l0.3,1.1l1.2-0.4L146.8,428.9 M146.3,427.2l-1.2,0.4
				l0.3,1.1l1.2-0.4L146.3,427.2 M145.8,425.5l-1.2,0.4l0.3,1.1l1.2-0.4L145.8,425.5 M145.3,423.8l-1.2,0.4l0.3,1.1l1.2-0.4
				L145.3,423.8 M144.8,422.2l-1.2,0.4l0.3,1.1l1.2-0.4L144.8,422.2 M144.3,420.5l-1.2,0.4l0.3,1.1l1.2-0.4L144.3,420.5
				 M143.8,418.8l-1.2,0.4l0.3,1.1l1.2-0.4L143.8,418.8 M143.3,417.1l-1.2,0.4l0.3,1.1l1.2-0.4L143.3,417.1 M142.8,415.4l-1.2,0.4
				l0.3,1.1l1.2-0.4L142.8,415.4 M142.3,413.8l-1.2,0.4l0.3,1.1l1.2-0.4L142.3,413.8 M141.8,412.1l-1.2,0.4l0.3,1.1l1.2-0.4
				L141.8,412.1 M141.3,410.4l-1.2,0.3l0.3,1.1l1.2-0.4L141.3,410.4 M140.8,408.7l-1.2,0.3l0.3,1.1l1.2-0.4L140.8,408.7 M140.4,407
				l-1.2,0.3l0.3,1.1l1.2-0.3L140.4,407 M139.9,405.3l-1.2,0.3l0.3,1.1l1.2-0.3L139.9,405.3 M139.5,403.7l-1.3,0.3l0.3,1.1l1.2-0.3
				L139.5,403.7 M139,402l-1.3,0.3l0.3,1.1l1.2-0.3L139,402 M138.6,400.3l-1.3,0.3l0.3,1.1l1.3-0.3L138.6,400.3 M138.2,398.6
				l-1.3,0.3l0.3,1.1l1.3-0.3L138.2,398.6 M137.7,396.9l-1.3,0.3l0.3,1.1l1.3-0.3L137.7,396.9 M137.3,395.2l-1.3,0.3l0.3,1.1
				l1.3-0.3L137.3,395.2 M137,393.5l-1.3,0.3l0.2,1.1l1.3-0.3L137,393.5 M136.6,391.7l-1.3,0.3l0.2,1.1l1.3-0.3L136.6,391.7
				 M136.2,390l-1.3,0.3l0.2,1.1l1.3-0.3L136.2,390 M135.9,388.3l-1.3,0.2l0.2,1.1l1.3-0.3L135.9,388.3 M135.5,386.6l-1.3,0.2
				l0.2,1.1l1.3-0.3L135.5,386.6 M135.2,384.9l-1.3,0.2l0.2,1.1l1.3-0.2L135.2,384.9 M134.9,383.2l-1.3,0.2l0.2,1.1l1.3-0.2
				L134.9,383.2 M134.6,381.4l-1.3,0.2l0.2,1.1l1.3-0.2L134.6,381.4 M134.2,379.7L133,380l0.2,1.1l1.3-0.2L134.2,379.7 M133.9,378
				l-1.3,0.3l0.2,1.1l1.3-0.3L133.9,378 M133.5,376.3l-1.3,0.3l0.2,1.1l1.3-0.3L133.5,376.3 M133.2,374.5l-1.3,0.3l0.2,1.1l1.3-0.3
				L133.2,374.5 M132.8,372.8l-1.3,0.3l0.2,1.1l1.3-0.3L132.8,372.8 M132.5,371.1l-1.3,0.3l0.2,1.1l1.3-0.3L132.5,371.1
				 M132.1,369.4l-1.3,0.3l0.2,1.1l1.3-0.3L132.1,369.4 M131.7,367.7l-1.3,0.3l0.2,1.1l1.2-0.4L131.7,367.7 M131.3,366l-0.6,0.1
				l-0.6,0.3l0.2,1l1.3-0.3L131.3,366 M130.9,364.2l-1.3,0.3l0.2,1.1l1.3-0.3L130.9,364.2 M130.5,362.5l-1.3,0.3l0.2,1.1l1.2-0.4
				L130.5,362.5 M130.2,360.8l-1.3,0.3l0.2,1.1l1.2-0.3L130.2,360.8 M129.8,359.1l-1.3,0.3l0.2,1.1l1.3-0.3L129.8,359.1
				 M129.4,357.4l-1.3,0.3l0.3,1.1l1.3-0.3L129.4,357.4 M129,355.7l-1.3,0.3l0.3,1.1l1.3-0.3L129,355.7 M128.6,354l-1.3,0.3l0.3,1.1
				l1.3-0.3L128.6,354 M128.2,352.3l-1.3,0.3l0.3,1.1l1.3-0.3L128.2,352.3 M127.8,350.6l-1.3,0.3l0.3,1.1l1.3-0.3L127.8,350.6
				 M127.4,348.9l-1.3,0.3l0.3,1.1l1.3-0.3L127.4,348.9 M127,347.2l-1.3,0.3l0.3,1.1l1.3-0.3L127,347.2 M126.6,345.4l-1.3,0.3
				l0.3,1.1l1.3-0.3L126.6,345.4 M126.2,343.7l-1.3,0.3l0.3,1.1l1.3-0.3L126.2,343.7 M125.8,342l-1.3,0.3l0.3,1.1l1.3-0.3L125.8,342
				 M125.4,340.3l-1.3,0.3l0.3,1.1l1.3-0.3L125.4,340.3 M125,338.6l-1.3,0.3l0.3,1.1l1.3-0.3L125,338.6 M124.6,336.9l-1.3,0.3
				l0.3,1.1l1.3-0.3L124.6,336.9 M124.2,335.2l-1.3,0.3l0.2,1.1l1.2-0.4L124.2,335.2 M123.8,333.5l-1.3,0.3l0.2,1.1l1.3-0.3
				L123.8,333.5 M123.4,331.8l-1.3,0.3l0.2,1.1l1.3-0.3L123.4,331.8 M123.1,330.1l-1.3,0.3l0.2,1.1l1.3-0.3L123.1,330.1
				 M122.7,328.4l-1.3,0.3l0.2,1.1l1.3-0.3L122.7,328.4 M122.3,326.7l-1.3,0.3l0.2,1.1l1.3-0.3L122.3,326.7 M121.9,324.9l-1.3,0.3
				l0.2,1.1l1.3-0.3L121.9,324.9 M121.5,323.2l-1.3,0.3l0.2,1.1l1.3-0.3L121.5,323.2 M121.2,321.5l-1.3,0.3l0.2,1.1l1.3-0.3
				L121.2,321.5 M120.8,319.8l-1.3,0.3l0.2,1.1l1.3-0.3L120.8,319.8 M120.4,318.1l-1.3,0.3l0.2,1.1l1.3-0.3L120.4,318.1
				 M120.1,316.4l-1.3,0.3l0.2,1.1l1.3-0.3L120.1,316.4 M119.7,314.6l-1.3,0.3l0.2,1.1l1.3-0.3L119.7,314.6 M119.4,312.9l-1.3,0.3
				l0.2,1.1l1.3-0.3L119.4,312.9 M119,311.2l-1.3,0.3l0.2,1.1l1.3-0.3L119,311.2 M118.7,309.5l-1.3,0.3l0.2,1.1l1.3-0.3L118.7,309.5
				 M118.3,307.8l-1.3,0.2l0.2,1.1l1.3-0.3L118.3,307.8 M118,306l-1.3,0.2l0.2,1.1l1.3-0.2L118,306 M117.7,304.3l-1.3,0.2l0.2,1.1
				l1.3-0.2L117.7,304.3 M117.4,302.6l-1.3,0.2l0.2,1l0.7,0l-0.6,0.1l0.6-0.1l0.6-0.2L117.4,302.6 M117.1,300.9l-1.3,0.3l0.2,1
				l1.3-0.2L117.1,300.9 M116.7,299.2l-1.3,0.2l0.2,1.1l1.3-0.2L116.7,299.2 M116.5,297.4l-1.3,0.2l0.2,1.1l1.3-0.2L116.5,297.4
				 M116.2,295.7l-1.3,0.2l0.2,1.1l1.3-0.2L116.2,295.7 M115.9,294l-1.3,0.3l0.2,1l1.3-0.2L115.9,294 M115.6,292.2l-1.3,0.2l0.2,1
				l0.7,0l-0.6,0.1l0.6-0.1l0.6-0.2L115.6,292.2 M115.4,290.5l-1.3,0.2l0.2,1l0.6,0l-0.6,0.1l0.6-0.1l0.6-0.2L115.4,290.5
				 M114.6,290l-0.2,0l-0.4,0.1L114.6,290 M115.1,288.8l-1.3,0.2l0.1,1l0.4,0l0.8-0.2L115.1,288.8 M114.9,287l-1.3,0.2l0.1,1l0.6,0
				l-0.6,0.1l0.6-0.1l0.6-0.2L114.9,287 M114.2,286.5l-0.2,0l-0.4,0.1L114.2,286.5 M114.7,285.3l-1.3,0.2l0.1,1l0.4,0l0.8-0.2
				L114.7,285.3 M114.4,283.6l-1.3,0.2l0.1,1l1.3-0.2L114.4,283.6 M114.2,281.8L113,282l0.1,1.1l1.3-0.2L114.2,281.8 M113.5,281.3
				l-0.2,0l-0.4,0.1L113.5,281.3 M114.1,280.1l-1.3,0.1l0.1,1.1l0.4,0l0.9-0.1L114.1,280.1 M113.9,278.4l-1.3,0.1l0.1,1.1l1.3-0.1
				L113.9,278.4 M113.8,276.6l-1.3,0.1l0.1,1.1l1.3-0.1L113.8,276.6 M113.6,274.9l-1.3,0.1l0.1,1l0.6,0l-0.6,0l0.6,0l0.6-0.1
				L113.6,274.9 M112.7,274.3l-0.4,0l0.6,0L112.7,274.3 M113.5,273.1l-1.3,0.1l0.1,1l0.4,0l0.9-0.1L113.5,273.1 M113.5,271.4
				l-1.3,0.1l0,1.1l1.3-0.1L113.5,271.4 M113.4,269.6l-1.3,0.1l0,1.1l1.3,0L113.4,269.6 M113.4,267.9l-1.3,0l0,1.1l1.3,0
				L113.4,267.9 M112.1,266.1l0,1.1l1.3,0l0-1.1L112.1,266.1 M112.1,264.7l0,0.8l1.3,0l0-0.7L112.1,264.7"/>
		</g>
	</g>
</g>
<g id="SHADING">
	<g opacity="0.12">
		<path fill="#A39D9B" d="M145.2,449.1c0,0-19.9-3.6-34.2-8.3c-14.3-4.8-27.4-8.3-38.6-18.3c-11.1-9.9-33-36.2-33-36.2
			s38.6,33.4,41.7,36.6C84.4,426,145.2,449.1,145.2,449.1z"/>
		<path fill="#A39D9B" d="M128.5,433.6l-24.3-11.5l-4-8.7c0,0,28.2,20.3,25,14.7c-3.2-5.6-42.5-50.5-49.7-59.6
			c-7.2-9.1-24.3-28.6-24.3-28.6s21.1,13.9,23.5,18.7c2.4,4.8,40.2,50.9,44.5,56.5c4.4,5.6,15.9,15.1,15.1,17.1
			C133.7,434,128.5,433.6,128.5,433.6z"/>
		<path fill="#A39D9B" d="M100.7,428c0,0-27-28.2-31.4-33.4c-4.4-5.2-22.7-19.5-22.7-19.5l34.2,37.4L100.7,428z"/>
		<path fill="#A39D9B" d="M132.9,410.5c0,0-8-20.7-11.9-29.8s-10.7-44.1-17.5-43.3c-6.8,0.8-2.4,14.7,2.4,24.6
			c4.8,9.9,9.9,17.9,9.9,17.9s-11.5-4-18.3-14.7c-6.8-10.7-22.7-46.9-27-45.7s2.8,20.7,9.9,32.2c7.2,11.5,24.6,28.2,33.8,37.4
			S132.9,410.5,132.9,410.5z"/>
		<path fill="#A39D9B" d="M590.1,418.1c0,0,18.7-35,30.2-54.5c11.5-19.5,32.6-46.1,32.6-46.1s-35,61.6-37,64
			C613.9,383.9,590.1,418.1,590.1,418.1z"/>
		<path fill="#A39D9B" d="M607.9,395.8c0,0,14.3-21.1,30.2-33.8c15.9-12.7,33.8-19.5,33.8-19.5s-23.9,12.7-36.2,28.6
			c-12.3,15.9-33.4,39.8-36.6,48.9c-3.2,9.1-2.4,19.5-2.4,19.5s9.5-2.4,5.6,1.2c-4,3.6,3.2,12.7-2.4,14.7c-5.6,2-8.7,2.8-8.7,5.2
			s-8-1.6-8-1.6s4.4-31.8,6-35.4C590.9,420.1,607.9,395.8,607.9,395.8z"/>
		<path fill="#A39D9B" d="M603.2,426.8c0,0-0.4-13.9,9.9-18.3c10.3-4.4,21.5-6,30.2-10.3s14.7-9.5,14.7-9.5s-11.1,15.1-25,19.9
			c-13.9,4.8-19.1,4.8-22.3,8.7S603.2,426.8,603.2,426.8z"/>
		<path fill="#A39D9B" d="M215.8,770.4c0,0,101.3-21.9,145.8-20.6c44.5,1.3,158.1,31.6,158.1,31.6s-81.3-21.3-152.3-21.9
			S215.8,770.4,215.8,770.4z"/>
	</g>
</g>
</svg>
