<?xml version="1.0" encoding="utf-8"?>
<!-- Generator: Adobe Illustrator 26.0.2, SVG Export Plug-In . SVG Version: 6.00 Build 0)  -->
<svg version="1.1" xmlns="http://www.w3.org/2000/svg" xmlns:xlink="http://www.w3.org/1999/xlink" x="0px" y="0px"
	 viewBox="0 0 610.5 991.2" enable-background="new 0 0 746.5 991.2" xml:space="preserve">

<g id="OUTLINE">
	<path fill="#FFFFFF" stroke="#A39D9B" stroke-width="1.0729" stroke-miterlimit="10" d="M703.3,471.4l-3.2-16.1
		c0,0-2.1-92.1-12.8-129.5c-10.7-37.5-47.1-65.3-53.5-67.4c-4.8-1.6-12.5-6.7-16.2-9.3l0,0v0c-0.6-0.4-1.1-0.8-1.5-1
		c-0.2-0.1-0.3-0.2-0.4-0.3c-0.1-0.1-0.1-0.1-0.1-0.1s-1.3-0.4-3.6-1.2c-0.2-0.1-0.5-0.2-0.8-0.3c-1.3-0.4-2.8-1-4.6-1.6
		c-0.4-0.1-0.8-0.3-1.2-0.4c-1.3-0.5-2.7-1-4.3-1.5c-1.2-0.4-2.4-0.8-3.6-1.3c-1-0.3-1.9-0.7-3-1.1c-0.6-0.2-1.2-0.4-1.7-0.6
		c-1-0.4-2.1-0.8-3.2-1.2c-1.5-0.5-3.1-1.1-4.7-1.7c-4-1.5-8.3-3.1-12.8-4.8c-1.9-0.7-3.8-1.4-5.8-2.2c-3.6-1.4-7.4-2.8-11.3-4.4
		c-0.9-0.4-1.9-0.7-2.9-1.1c-2-0.8-4-1.6-6-2.4c-8-3.2-15.8-6.8-23-10.7c-1.5-0.8-2.9-1.6-4.3-2.4c-2.8-1.6-5.6-3.2-8.3-4.8
		c-2.7-1.6-5.3-3.2-7.8-4.8c-7.5-4.8-14.1-9.5-19.6-13.6l0,0h0c-8.5-6.4-14.3-11.3-16.3-12.9c-5.4-4.3-5.4-7.5-10.7-10.7
		c-5.4-3.2-7.5-12.8-18.2-18.2c-6.8-3.4-37.5-4.6-58.9-5.1l0-0.3c0,0-4.2,0-10.7,0.1c-6.5-0.1-10.7-0.1-10.7-0.1l0,0.3
		c-21.4,0.5-52.1,1.7-58.9,5.1c-10.7,5.4-12.8,15-18.2,18.2c-5.4,3.2-5.4,6.4-10.7,10.7c-1.6,1.3-5.6,4.6-11.4,9.2l0,0
		c-14.1,11-39.1,28.7-67.8,40c-7.6,3-14.8,5.8-21.5,8.3c-1.1,0.4-2.2,0.8-3.3,1.2c-5.4,2-10.5,3.9-15.1,5.6c-0.9,0.3-1.8,0.7-2.7,1
		c-1.5,0.6-3,1.1-4.4,1.6c-0.4,0.2-0.9,0.3-1.3,0.5c-1.2,0.4-2.3,0.8-3.4,1.2c-1.2,0.4-2.3,0.8-3.4,1.2c-1.5,0.5-3,1.1-4.3,1.5
		c-0.4,0.1-0.8,0.3-1.2,0.4c-1.8,0.6-3.3,1.2-4.6,1.6c-0.3,0.1-0.5,0.2-0.8,0.3c-2.3,0.8-3.6,1.2-3.6,1.2s-0.6,0.4-1.6,1.1
		c-0.3,0.2-0.5,0.4-0.9,0.6c-3.8,2.6-11.2,7.5-15.8,9c-6.4,2.1-42.8,30-53.5,67.4c-10.7,37.5-12.8,129.5-12.8,129.5l-3.2,16.1
		l-3.2,9.6c0,0,37.5,9.6,69.6,11.8C131.6,495,152,495,152,495s2.1-2.1,1.1-8.6c-1.1-6.4-2.1-8.6-1.1-11.8c1-3,4.8-12.5,5.3-13.8
		c0,0,0,0,0,0c0-0.1,0-0.1,0-0.1c0,0,0,0.1,0.1,0.4c0,0,0,0,0,0c0,0.1,0,0.2,0.1,0.3c0,0.1,0,0.1,0,0.2c0,0.1,0,0.2,0.1,0.3
		c0,0.1,0.1,0.3,0.1,0.5c0,0.1,0,0.1,0,0.2c0,0.3,0.1,0.5,0.1,0.8c0,0,0,0,0,0c0.1,0.3,0.1,0.7,0.2,1.1c0,0,0,0,0,0
		c0.6,3.7,1.7,9.8,2.6,16.4c0.1,0.8,0.2,1.7,0.3,2.6c0,0.1,0,0.3,0.1,0.4c0.1,1,0.3,1.9,0.4,2.9c0,0.1,0,0.3,0.1,0.4
		c0.1,1,0.2,2,0.3,3c0,0.1,0,0.2,0,0.3c0.1,1,0.2,2.1,0.3,3.1c0,0,0,0.1,0,0.1c0.2,2.1,0.4,4.2,0.5,6.2c0,0,0,0.1,0,0.1
		c0.1,2,0.2,3.8,0.2,5.5c0,0.2,0,0.4,0,0.6c0,0.3,0,0.6,0,0.9c0,0.2,0,0.3,0,0.5c0,0.5,0,0.9-0.1,1.3c0,0.3,0,0.5,0,0.8
		c0,0.1,0,0.2,0,0.3c0,0.2,0,0.5,0,0.8c0,0.1,0,0.2,0,0.3c-0.4,19,6.7,99.6,11.9,125.2c5.4,26.8,11.8,95.3,6.4,124.2
		c-1.8,9.8-4.5,25.1-7.4,42.4c8,4.2,34.6,17.3,62.9,21.2c33.9,4.8,51.1,10.1,125.4,7.4c74.3-2.7,123.6-3.9,150.7-7.1
		c27-3.3,37-7.8,40.3-9.6c0,0,6.4-3.7,7.8-6.6c0.8-1.6,1.8-3.1,2.6-4.3c-2.9-17.7-5.7-33.5-7.5-43.5c-5.4-28.9,1.1-97.4,6.4-124.2
		c5.1-25.6,12.2-106.3,11.9-125.2c0-0.1,0-0.2,0-0.3c0-0.3,0-0.5,0-0.8c0-0.1,0-0.2,0-0.3c0-0.3,0-0.6,0-0.8c0,0,0,0,0,0
		c0-0.5-0.1-1-0.1-1.5c0,0,0,0,0,0c0-0.1,0-0.1,0-0.2c-0.1-1.7,0-3.6,0.1-5.6c0.2-3.9,0.6-8.2,1.1-12.6c0,0,0,0,0-0.1
		c0.1-1,0.2-2,0.4-3.1c0-0.1,0-0.3,0.1-0.4c0.4-3.2,0.9-6.4,1.3-9.4c0.3-2.3,0.7-4.5,1-6.4c0.4-2.6,0.8-4.8,1.1-6.4
		c0-0.2,0.1-0.5,0.1-0.7c0.2-1.2,0.3-1.9,0.3-1.9s4.3,10.7,5.4,13.9c1.1,3.2,0,5.4-1.1,11.8c-1.1,6.4,1.1,8.6,1.1,8.6
		s20.3,0,52.5-2.1c32.1-2.1,69.6-11.8,69.6-11.8L703.3,471.4z M118.5,249.4c0,0.8,0,1.7,0.1,2.7
		C118.5,251.1,118.5,250.2,118.5,249.4z"/>
</g>
<g id="FRONT_BODY">
<g id="SHIRT_LOWER_BODY">
	<g>
		<path fill="#FFFFFF" d="M361.8,831.6c74.3-2.7,123.6-3.9,150.7-7.1c27-3.3,37-7.8,40.3-9.6c0,0,6.4-3.7,7.8-6.6
			c0.8-1.6,1.8-3.1,2.6-4.3c-2.9-17.7-5.7-33.5-7.5-43.5c-5.4-28.9,1.1-97.4,6.4-124.2c5.4-26.8,12.8-113.5,11.8-127.4
			c-0.9-12,3.7-39,5-46.3c0-4.9,0.1-12.7,1.2-18.1c1.7-8.5,14.8-80.9,17.7-94.6s15.4-59.8,17.7-72.4c1.6-8.8,2.1-21.7,2.2-28.4
			c-1.3-0.9-2-1.4-2-1.4s-28.9-9.6-69.6-25.7c-25.7-10.1-48.4-25.4-62.9-36.3c-7.2,7.9-37.5,35.2-109.6,35.9
			c-71.5,0.7-105.9-29.9-115.1-39.6c-14.1,11-39.1,28.7-67.8,40c-40.7,16.1-69.6,25.7-69.6,25.7s-0.9,0.7-2.4,1.7c0,0,0,0,0,0
			c0,0.8,0,1.7,0.1,2.7c0,0.1,0,0.2,0,0.2c0,0.5,0,0.9,0,1.4c0,0,0,0.1,0,0.1c0,0.5,0,1,0.1,1.5c0,0.1,0,0.2,0,0.3
			c0,0.4,0,0.9,0.1,1.3c0,0.1,0,0.3,0,0.4c0,0.5,0.1,1.1,0.1,1.6c0,0.1,0,0.1,0,0.2c0,0.5,0.1,1,0.1,1.4c0,0.2,0,0.3,0,0.5
			c0,0.5,0.1,0.9,0.1,1.4c0,0.1,0,0.2,0,0.3c0,0.6,0.1,1.1,0.1,1.7c0,0.2,0,0.3,0,0.5c0,0.4,0.1,0.9,0.1,1.3c0,0.2,0,0.3,0,0.5
			c0,0.6,0.1,1.1,0.2,1.7c0,0.1,0,0.1,0,0.2c0,0.5,0.1,1,0.2,1.5c0,0.2,0,0.3,0.1,0.5c0,0.4,0.1,0.9,0.2,1.3c0,0.1,0,0.3,0,0.4
			c0.1,0.5,0.1,1.1,0.2,1.6c0,0.1,0,0.3,0.1,0.4c0.1,0.4,0.1,0.8,0.2,1.2c0,0.1,0,0.3,0.1,0.4c0.1,0.5,0.2,1,0.3,1.5
			c2.3,12.5,14.8,58.7,17.7,72.4s16,86,17.7,94.6c0.1,0.6,0.2,1.2,0.3,1.8c0,0.1,0,0.1,0,0.2c0.1,0.6,0.2,1.2,0.2,1.8
			c0,0.1,0,0.1,0,0.2c0.1,0.6,0.1,1.3,0.2,1.9c0,0,0,0.1,0,0.1c0.1,0.7,0.1,1.4,0.2,2.1c0,0,0,0,0,0c0,0.7,0.1,1.4,0.1,2.1
			c0,0.1,0,0.1,0,0.2c0,0.6,0.1,1.3,0.1,1.9c0,0.1,0,0.1,0,0.2c0,0.7,0,1.3,0,1.9c0,0,0,0,0,0c0,0.7,0,1.3,0,1.9
			c0-0.1,0.1-0.1,0.1-0.1s6.4,34.3,5.4,48.2c-1.1,13.9,6.4,100.6,11.8,127.4c5.4,26.8,11.8,95.3,6.4,124.2
			c-1.8,9.8-4.5,25.1-7.4,42.4c8,4.2,34.6,17.3,62.9,21.2C270.3,828.9,287.5,834.2,361.8,831.6z"/>
	</g>
</g>
	</g>
<g id="CAMO3">
	<g>
		<g>
			<g>
				<rect x="296.4" y="505.2" fill="#FFFFFF" width="6.7" height="6.4"/>
				<rect x="283" y="415.8" fill="#FFFFFF" width="6.7" height="6.4"/>
				<rect x="283" y="415.8" fill="#FFFFFF" width="6.7" height="6.4"/>
				<polygon fill="#FFFFFF" points="303.2,447.8 303.2,441.4 296.4,441.4 296.4,447.8 289.7,447.8 283,447.8 283,441.4 276.3,441.4 
					276.3,447.8 276.3,454.1 269.5,454.1 269.5,447.8 262.8,447.8 262.8,441.4 256.1,441.4 256.1,447.8 256.1,454.1 262.8,454.1 
					262.8,460.5 262.8,466.9 256.1,466.9 256.1,473.3 262.8,473.3 262.8,479.7 269.5,479.7 269.5,473.3 276.3,473.3 276.3,479.7 
					276.3,486.1 283,486.1 283,479.7 289.7,479.7 289.7,473.3 283,473.3 283,466.9 283,460.5 289.7,460.5 289.7,454.1 296.4,454.1 
					296.4,460.5 303.2,460.5 309.9,460.5 309.9,454.1 303.2,454.1 				"/>
				<polygon fill="#FFFFFF" points="303.2,447.8 303.2,441.4 296.4,441.4 296.4,447.8 289.7,447.8 283,447.8 283,441.4 276.3,441.4 
					276.3,447.8 276.3,454.1 269.5,454.1 269.5,447.8 262.8,447.8 262.8,441.4 256.1,441.4 256.1,447.8 256.1,454.1 262.8,454.1 
					262.8,460.5 262.8,466.9 256.1,466.9 256.1,473.3 262.8,473.3 262.8,479.7 269.5,479.7 269.5,473.3 276.3,473.3 276.3,479.7 
					276.3,486.1 283,486.1 283,479.7 289.7,479.7 289.7,473.3 283,473.3 283,466.9 283,460.5 289.7,460.5 289.7,454.1 296.4,454.1 
					296.4,460.5 303.2,460.5 309.9,460.5 309.9,454.1 303.2,454.1 				"/>
				<polygon fill="#FFFFFF" points="269.5,549.9 269.5,543.5 276.3,543.5 276.3,537.1 269.5,537.1 262.8,537.1 262.8,543.5 
					256.1,543.5 256.1,537.1 249.3,537.1 249.3,543.5 242.6,543.5 242.6,549.9 242.6,556.3 242.6,562.6 249.3,562.6 249.3,556.3 
					256.1,556.3 256.1,562.6 262.8,562.6 269.5,562.6 269.5,569 269.5,575.4 276.3,575.4 283,575.4 283,569 276.3,569 276.3,562.6 
					276.3,556.3 283,556.3 283,549.9 276.3,549.9 				"/>
				<polygon fill="#FFFFFF" points="269.5,549.9 269.5,543.5 276.3,543.5 276.3,537.1 269.5,537.1 262.8,537.1 262.8,543.5 
					256.1,543.5 256.1,537.1 249.3,537.1 249.3,543.5 242.6,543.5 242.6,549.9 242.6,556.3 242.6,562.6 249.3,562.6 249.3,556.3 
					256.1,556.3 256.1,562.6 262.8,562.6 269.5,562.6 269.5,569 269.5,575.4 276.3,575.4 283,575.4 283,569 276.3,569 276.3,562.6 
					276.3,556.3 283,556.3 283,549.9 276.3,549.9 				"/>
				<path fill="#FFFFFF" d="M155.1,409.5h6.7v-6.4v-6.4h-6.7h-6.7v6.4h-0.7c0.8,4.3,1.6,8.6,2.4,12.8h5.1V409.5z"/>
				<rect x="249.3" y="460.5" fill="#FFFFFF" width="6.7" height="6.4"/>
				<rect x="249.3" y="460.5" fill="#FFFFFF" width="6.7" height="6.4"/>
				<rect x="276.3" y="422.2" fill="#FFFFFF" width="6.7" height="6.4"/>
				<rect x="276.3" y="422.2" fill="#FFFFFF" width="6.7" height="6.4"/>
				<polygon fill="#FFFFFF" points="188.8,479.7 188.8,486.1 182.1,486.1 182.1,479.7 182.1,473.3 182.1,466.9 175.3,466.9 
					175.3,473.3 168.6,473.3 168.6,479.7 161.9,479.7 161.9,486.1 168.6,486.1 175.3,486.1 175.3,492.4 175.3,498.8 182.1,498.8 
					182.1,492.4 188.8,492.4 195.5,492.4 195.5,486.1 202.2,486.1 202.2,479.7 195.5,479.7 				"/>
				<polygon fill="#FFFFFF" points="188.8,479.7 188.8,486.1 182.1,486.1 182.1,479.7 182.1,473.3 182.1,466.9 175.3,466.9 
					175.3,473.3 168.6,473.3 168.6,479.7 161.9,479.7 161.9,486.1 168.6,486.1 175.3,486.1 175.3,492.4 175.3,498.8 182.1,498.8 
					182.1,492.4 188.8,492.4 195.5,492.4 195.5,486.1 202.2,486.1 202.2,479.7 195.5,479.7 				"/>
				<path fill="#FFFFFF" d="M168.6,555.3l13.5,5.4v-4.5h6.7v-6.4h6.7v-6.4v-6.4h-6.7v-6.4h-6.7v-6.4h-6.7h-6.7h-5.8
					c0.3,6.8,0.8,15.7,1.6,25.5h4.2V555.3z"/>
				<path fill="#FFFFFF" d="M168.6,555.3l13.5,5.4v-4.5h6.7v-6.4h6.7v-6.4v-6.4h-6.7v-6.4h-6.7v-6.4h-6.7h-6.7h-5.8
					c0.3,6.8,0.8,15.7,1.6,25.5h4.2V555.3z"/>
				<polygon fill="#FFFFFF" points="188.8,562.6 186.9,562.6 195.5,566.1 195.5,562.6 195.5,556.3 188.8,556.3 				"/>
				<polygon fill="#FFFFFF" points="188.8,562.6 186.9,562.6 195.5,566.1 195.5,562.6 195.5,556.3 188.8,556.3 				"/>
				<polygon fill="#FFFFFF" points="357,441.4 350.3,441.4 350.3,447.8 350.3,454.1 357,454.1 357,447.8 363.7,447.8 363.7,441.4 
					366,441.4 357,437.7 				"/>
				<polygon fill="#FFFFFF" points="357,441.4 350.3,441.4 350.3,447.8 350.3,454.1 357,454.1 357,447.8 363.7,447.8 363.7,441.4 
					366,441.4 357,437.7 				"/>
				<rect x="330.1" y="600.9" fill="#FFFFFF" width="6.7" height="6.4"/>
				<rect x="330.1" y="600.9" fill="#FFFFFF" width="6.7" height="6.4"/>
				<polygon fill="#FFFFFF" points="323.4,607.3 316.6,607.3 316.6,613.7 316.6,614.8 329.8,620.1 330.1,620.1 330.1,613.7 
					323.4,613.7 				"/>
				<polygon fill="#FFFFFF" points="323.4,607.3 316.6,607.3 316.6,613.7 316.6,614.8 329.8,620.1 330.1,620.1 330.1,613.7 
					323.4,613.7 				"/>
				<rect x="343.5" y="498.8" fill="#FFFFFF" width="6.7" height="6.4"/>
				<rect x="343.5" y="498.8" fill="#FFFFFF" width="6.7" height="6.4"/>
				<polygon fill="#FFFFFF" points="336.8,479.7 336.8,486.1 330.1,486.1 330.1,479.7 323.4,479.7 323.4,486.1 316.6,486.1 
					316.6,492.4 309.9,492.4 309.9,486.1 309.9,479.7 303.2,479.7 296.4,479.7 296.4,486.1 289.7,486.1 289.7,492.4 296.4,492.4 
					296.4,498.8 303.2,498.8 303.2,505.2 309.9,505.2 309.9,498.8 316.6,498.8 323.4,498.8 330.1,498.8 330.1,505.2 336.8,505.2 
					336.8,498.8 343.5,498.8 343.5,492.4 343.5,486.1 350.3,486.1 350.3,479.7 343.5,479.7 				"/>
				<polygon fill="#FFFFFF" points="336.8,479.7 336.8,486.1 330.1,486.1 330.1,479.7 323.4,479.7 323.4,486.1 316.6,486.1 
					316.6,492.4 309.9,492.4 309.9,486.1 309.9,479.7 303.2,479.7 296.4,479.7 296.4,486.1 289.7,486.1 289.7,492.4 296.4,492.4 
					296.4,498.8 303.2,498.8 303.2,505.2 309.9,505.2 309.9,498.8 316.6,498.8 323.4,498.8 330.1,498.8 330.1,505.2 336.8,505.2 
					336.8,498.8 343.5,498.8 343.5,492.4 343.5,486.1 350.3,486.1 350.3,479.7 343.5,479.7 				"/>
				<polygon fill="#FFFFFF" points="552.1,567.7 558.9,565.1 558.9,562.6 552.1,562.6 				"/>
				<polygon fill="#FFFFFF" points="552.1,567.7 558.9,565.1 558.9,562.6 552.1,562.6 				"/>
				<rect x="545.4" y="479.7" fill="#FFFFFF" width="6.7" height="6.4"/>
				<polygon fill="#FFFFFF" points="552.1,524.3 552.1,530.7 558.9,530.7 565.6,530.7 565.6,524.3 558.9,524.3 				"/>
				<path fill="#FFFFFF" d="M572.3,486.1h-6.7h-6.7v-6.4h6.7v-6.4h-6.7v-6.4v-6.4v-6.4h-6.7h-6.7v6.4h-6.7v6.4H532v6.4v6.4v6.4v6.4
					h6.7v6.4v6.4v6.4H532v-6.4h-6.7v-6.4v-6.4h-6.7v-6.4h-6.7v-6.4H505h-6.7v-6.4h-6.7v-6.4h-6.7v-6.4h-6.7h-6.7v6.4v6.4h6.7v6.4
					h6.7v6.4h6.7h6.7v6.4h6.7v6.4h6.7v6.4H505v6.4h-6.7v6.4v6.4v6.4h-6.7v6.4h6.7h6.7v-6.4h6.7v-6.4h6.7h6.7v6.4v6.4v6.4h-6.7v6.4
					h6.7v6.4h6.7h6.7v6.4h6.7h6.7v-6.4v-6.4h-6.7v-6.4h6.7h6.7v-6.4h6.7v6.4h6.7v-6.4h0.6c0.3-4.8,0.5-9.1,0.7-12.8h-1.3V518h-6.7
					v-6.4h-6.7v-6.4h6.7v-6.4v-6.4h6.7v6.4v6.4h1.4c0.3-7.7,1.6-17.5,2.8-25.5h-4.2V486.1z"/>
				<path fill="#FFFFFF" d="M572.3,486.1h-6.7h-6.7v-6.4h6.7v-6.4h-6.7v-6.4v-6.4v-6.4h-6.7h-6.7v6.4h-6.7v6.4H532v6.4v6.4v6.4v6.4
					h6.7v6.4v6.4v6.4H532v-6.4h-6.7v-6.4v-6.4h-6.7v-6.4h-6.7v-6.4H505h-6.7v-6.4h-6.7v-6.4h-6.7v-6.4h-6.7h-6.7v6.4v6.4h6.7v6.4
					h6.7v6.4h6.7h6.7v6.4h6.7v6.4h6.7v6.4H505v6.4h-6.7v6.4v6.4v6.4h-6.7v6.4h6.7h6.7v-6.4h6.7v-6.4h6.7h6.7v6.4v6.4v6.4h-6.7v6.4
					h6.7v6.4h6.7h6.7v6.4h6.7h6.7v-6.4v-6.4h-6.7v-6.4h6.7h6.7v-6.4h6.7v6.4h6.7v-6.4h0.6c0.3-4.8,0.5-9.1,0.7-12.8h-1.3V518h-6.7
					v-6.4h-6.7v-6.4h6.7v-6.4v-6.4h6.7v6.4v6.4h1.4c0.3-7.7,1.6-17.5,2.8-25.5h-4.2V486.1z M545.4,486.1v-6.4h6.7v6.4H545.4z
					 M565.6,524.3v6.4h-6.7h-6.7v-6.4h6.7H565.6z"/>
				<rect x="525.2" y="460.5" fill="#FFFFFF" width="6.7" height="6.4"/>
				<rect x="525.2" y="460.5" fill="#FFFFFF" width="6.7" height="6.4"/>
				<polygon fill="#FFFFFF" points="478.1,479.7 471.4,479.7 464.7,479.7 464.7,486.1 457.9,486.1 457.9,479.7 457.9,473.3 
					451.2,473.3 444.5,473.3 444.5,479.7 437.8,479.7 437.8,486.1 444.5,486.1 451.2,486.1 451.2,492.4 457.9,492.4 464.7,492.4 
					464.7,498.8 471.4,498.8 478.1,498.8 478.1,492.4 484.9,492.4 484.9,486.1 478.1,486.1 				"/>
				<polygon fill="#FFFFFF" points="478.1,479.7 471.4,479.7 464.7,479.7 464.7,486.1 457.9,486.1 457.9,479.7 457.9,473.3 
					451.2,473.3 444.5,473.3 444.5,479.7 437.8,479.7 437.8,486.1 444.5,486.1 451.2,486.1 451.2,492.4 457.9,492.4 464.7,492.4 
					464.7,498.8 471.4,498.8 478.1,498.8 478.1,492.4 484.9,492.4 484.9,486.1 478.1,486.1 				"/>
				<rect x="478.1" y="498.8" fill="#FFFFFF" width="6.7" height="6.4"/>
				<rect x="478.1" y="498.8" fill="#FFFFFF" width="6.7" height="6.4"/>
				<path fill="#FFFFFF" d="M592.5,377.5h-6.7v6.4h6.1c0.8-4.5,1.6-8.8,2.4-12.8h-1.7V377.5z"/>
				<rect x="370.5" y="498.8" fill="#FFFFFF" width="6.7" height="6.4"/>
				<rect x="370.5" y="498.8" fill="#FFFFFF" width="6.7" height="6.4"/>
				<polygon fill="#FFFFFF" points="363.7,498.8 357,498.8 357,505.2 350.3,505.2 350.3,511.6 357,511.6 357,518 363.7,518 
					363.7,511.6 370.5,511.6 370.5,505.2 363.7,505.2 				"/>
				<polygon fill="#FFFFFF" points="363.7,498.8 357,498.8 357,505.2 350.3,505.2 350.3,511.6 357,511.6 357,518 363.7,518 
					363.7,511.6 370.5,511.6 370.5,505.2 363.7,505.2 				"/>
			</g>
			<g>
				<g>
					<polygon fill="#FFFFFF" points="478.1,524.3 471.4,524.3 471.4,518 471.4,511.6 464.7,511.6 464.7,518 457.9,518 451.2,518 
						451.2,524.3 444.5,524.3 444.5,530.7 437.8,530.7 437.8,524.3 431,524.3 431,518 424.3,518 424.3,524.3 424.3,530.7 
						417.6,530.7 417.6,537.1 410.8,537.1 410.8,543.5 410.8,549.9 404.1,549.9 404.1,556.3 410.8,556.3 417.6,556.3 417.6,562.6 
						417.6,569 424.3,569 424.3,575.4 424.3,581.8 417.6,581.8 417.6,588.2 410.8,588.2 410.8,594.6 417.6,594.6 417.6,600.9 
						410.8,600.9 410.8,594.6 404.1,594.6 404.1,600.9 397.4,600.9 397.4,607.3 397.4,613.7 390.6,613.7 390.6,607.3 383.9,607.3 
						377.2,607.3 377.2,613.7 370.5,613.7 370.5,607.3 370.5,607.3 363.7,607.3 363.7,600.9 357,600.9 357,594.6 363.7,594.6 
						363.7,588.2 370.5,588.2 370.5,588.2 370.5,581.8 370.5,575.4 370.5,575.4 363.7,575.4 363.7,569 357,569 350.3,569 
						350.3,562.6 343.5,562.6 343.5,569 343.5,575.4 350.3,575.4 350.3,581.8 357,581.8 357,588.2 350.3,588.2 343.5,588.2 
						343.5,581.8 336.8,581.8 330.1,581.8 330.1,588.2 323.4,588.2 323.4,581.8 316.6,581.8 316.6,588.2 309.9,588.2 309.9,594.6 
						316.6,594.6 316.6,600.9 309.9,600.9 309.9,594.6 303.2,594.6 296.4,594.6 296.4,600.9 289.7,600.9 289.7,604 316.6,614.8 
						316.6,613.7 316.6,607.3 323.4,607.3 323.4,613.7 330.1,613.7 330.1,607.3 330.1,600.9 336.8,600.9 336.8,594.6 343.5,594.6 
						350.3,594.6 350.3,600.9 343.5,600.9 336.8,600.9 336.8,607.3 343.5,607.3 343.5,613.7 343.5,620.1 336.8,620.1 336.8,613.7 
						330.1,613.7 330.1,620.1 329.8,620.1 345.6,626.5 350.3,626.5 357,626.5 357,620.1 363.7,620.1 370.5,620.1 370.5,626.5 
						370.5,626.5 377.2,626.5 377.2,632.9 383.9,632.9 383.9,633.9 397.4,628.6 397.4,626.5 402.7,626.5 410.8,623.3 410.8,620.1 
						417.6,620.1 417.6,620.6 431,615.3 431,613.7 435.2,613.7 464.7,602.1 464.7,600.9 457.9,600.9 457.9,594.6 451.2,594.6 
						451.2,600.9 444.5,600.9 444.5,594.6 451.2,594.6 451.2,588.2 444.5,588.2 437.8,588.2 437.8,581.8 444.5,581.8 444.5,575.4 
						451.2,575.4 457.9,575.4 464.7,575.4 464.7,569 457.9,569 457.9,562.6 451.2,562.6 444.5,562.6 444.5,556.3 451.2,556.3 
						451.2,549.9 457.9,549.9 457.9,543.5 464.7,543.5 464.7,537.1 471.4,537.1 478.1,537.1 484.9,537.1 484.9,530.7 478.1,530.7 
											"/>
					<polygon fill="#FFFFFF" points="316.6,428.6 316.6,422.2 309.9,422.2 309.9,428.6 303.2,428.6 303.2,435 296.4,435 
						296.4,428.6 289.7,428.6 289.7,422.2 283,422.2 283,428.6 276.3,428.6 276.3,422.2 283,422.2 283,415.8 283,409.5 287.6,409.5 
						175.3,363.8 175.3,364.8 168.6,364.8 168.6,371.2 161.9,371.2 161.9,377.5 161.9,383.9 161.9,390.3 168.6,390.3 168.6,396.7 
						175.3,396.7 175.3,390.3 182.1,390.3 182.1,383.9 188.8,383.9 188.8,377.5 195.5,377.5 202.2,377.5 202.2,383.9 209,383.9 
						209,390.3 209,396.7 209,403.1 215.7,403.1 222.4,403.1 222.4,409.5 229.2,409.5 229.2,415.8 229.2,422.2 235.9,422.2 
						242.6,422.2 249.3,422.2 249.3,428.6 242.6,428.6 242.6,435 235.9,435 235.9,441.4 242.6,441.4 242.6,447.8 249.3,447.8 
						256.1,447.8 256.1,441.4 262.8,441.4 262.8,447.8 269.5,447.8 269.5,454.1 276.3,454.1 276.3,447.8 276.3,441.4 283,441.4 
						283,447.8 289.7,447.8 296.4,447.8 296.4,441.4 303.2,441.4 303.2,447.8 309.9,447.8 309.9,441.4 316.6,441.4 323.4,441.4 
						323.4,435 316.6,435 					"/>
				</g>
			</g>
		</g>
		<path fill="#FFFFFF" d="M148.4,396.7h6.7h6.7h6.7v-6.4h-6.7v-6.4v-6.4v-6.4h6.7v-6.4h6.7v-1l-38.1-15.5c0.5,2.1,0.9,3.9,1.2,5.3
			c0.7,3.2,1.9,9.6,3.4,17.6h6.6v6.4h6.7v6.4h-6.7h-4.3c0.4,2.1,0.8,4.2,1.2,6.4h3.1V396.7z"/>
		<path fill="#FFFFFF" d="M155.1,441.4h6.7V435h6.7h6.7v-6.4v-6.4h6.7v6.4h6.7h6.7v-6.4v-6.4h6.7v6.4h6.7v6.4h6.7h6.7v6.4h-6.7v6.4
			H209v6.4h6.7h6.7v6.4h-6.7v6.4h6.7h6.7v6.4h6.7v6.4h6.7v-6.4h6.7v-6.4h6.7h6.7v-6.4h-6.7v-6.4h-6.7h-6.7v-6.4h-6.7V435h6.7v-6.4
			h6.7v-6.4h-6.7h-6.7h-6.7v-6.4v-6.4h-6.7v-6.4h-6.7H209v-6.4v-6.4v-6.4h-6.7v6.4h-6.7v-6.4h6.7v-6.4h-6.7h-6.7v6.4h-6.7v6.4h-6.7
			v6.4h-6.7v6.4h-6.7v6.4h-6.7v6.4H150c1.3,7.1,2.5,13.7,3.5,19.1h1.6V441.4z M188.8,403.1h6.7v6.4h-6.7V403.1z M175.3,403.1h6.7
			v6.4h-6.7V403.1z"/>
		<polygon fill="#FFFFFF" points="397.4,441.4 397.4,435.2 390.6,437.9 390.6,441.4 383.9,441.4 383.9,447.8 377.2,447.8 
			377.2,454.1 377.2,460.5 383.9,460.5 383.9,466.9 390.6,466.9 397.4,466.9 404.1,466.9 404.1,460.5 397.4,460.5 397.4,454.1 
			404.1,454.1 404.1,447.8 397.4,447.8 		"/>
		<path fill="#FFFFFF" d="M538.7,562.6v-6.4H532h-6.7v-6.4h-6.7h-6.7v6.4H505v-6.4h6.7v-6.4H505v-6.4h-6.7h-6.7v-6.4h6.7v-6.4h-6.7
			h-6.7h-6.7v6.4h6.7v6.4h-6.7h-6.7h-6.7v6.4h6.7v6.4h-6.7v-6.4h-6.7v6.4h-6.7v6.4h-6.7v6.4h6.7h6.7v6.4h6.7v6.4h-6.7h-6.7h-6.7v6.4
			h-6.7v6.4h6.7h6.7v6.4h6.7v6.4h6.7v1.2l40.4-15.9v-4.4h-6.7h-6.7v-6.4h-6.7V569h6.7v6.4h6.7h6.7h6.7h6.7v5.5l33.6-13.2v-5.1h-6.7
			H538.7z M471.4,588.2h-6.7v-6.4h6.7V588.2z"/>
	</g>
</g>
<g id="CAMO2">
	<g>
		<g>
			<polygon points="579.1,364.8 579.1,362.9 574.2,364.8 			"/>
			<polygon points="579.1,364.8 579.1,362.9 574.2,364.8 			"/>
			<path d="M592.5,358.4h4.2c0.2-1,0.4-2,0.5-2.8l-4.7,1.9V358.4z"/>
			<polygon points="283,409.5 283,415.8 289.7,415.8 289.7,410.3 287.6,409.5 			"/>
			<polygon points="283,409.5 283,415.8 289.7,415.8 289.7,410.3 287.6,409.5 			"/>
			<polygon points="309.9,422.2 316.6,422.2 316.6,421.3 309.9,418.6 			"/>
			<polygon points="309.9,422.2 316.6,422.2 316.6,421.3 309.9,418.6 			"/>
			<polygon points="303.2,415.8 296.4,415.8 289.7,415.8 289.7,422.2 289.7,428.6 296.4,428.6 296.4,435 303.2,435 303.2,428.6 
				309.9,428.6 309.9,422.2 303.2,422.2 			"/>
			<polygon points="303.2,415.8 296.4,415.8 289.7,415.8 289.7,422.2 289.7,428.6 296.4,428.6 296.4,435 303.2,435 303.2,428.6 
				309.9,428.6 309.9,422.2 303.2,422.2 			"/>
			<rect x="195.5" y="383.9" width="6.7" height="6.4"/>
			<path d="M148.4,383.9h6.7v-6.4h-6.7v-6.4h-6.6c0.7,3.9,1.5,8.2,2.4,12.8H148.4z"/>
			<path d="M155.1,409.5h6.7v-6.4h6.7v-6.4h-6.7h-6.7h-6.7v-6.4h-3.1c1.6,8.5,3.2,17.3,4.7,25.5h5.1V409.5z"/>
			<rect x="175.3" y="403.1" width="6.7" height="6.4"/>
			<rect x="188.8" y="403.1" width="6.7" height="6.4"/>
			<polygon points="336.8,594.6 336.8,600.9 343.5,600.9 350.3,600.9 350.3,594.6 343.5,594.6 			"/>
			<polygon points="336.8,594.6 336.8,600.9 343.5,600.9 350.3,600.9 350.3,594.6 343.5,594.6 			"/>
			<rect x="309.9" y="594.6" width="6.7" height="6.4"/>
			<rect x="309.9" y="594.6" width="6.7" height="6.4"/>
			<rect x="336.8" y="473.3" width="6.7" height="6.4"/>
			<rect x="336.8" y="473.3" width="6.7" height="6.4"/>
			<rect x="457.9" y="415.8" width="6.7" height="6.4"/>
			<rect x="457.9" y="415.8" width="6.7" height="6.4"/>
			<polygon points="471.4,415.8 471.4,422.2 478.1,422.2 484.9,422.2 484.9,415.8 478.1,415.8 			"/>
			<polygon points="471.4,415.8 471.4,422.2 478.1,422.2 484.9,422.2 484.9,415.8 478.1,415.8 			"/>
			<rect x="357" y="524.3" width="6.7" height="6.4"/>
			<rect x="390.6" y="575.4" width="6.7" height="6.4"/>
			<rect x="296.4" y="505.2" width="6.7" height="6.4"/>
			<rect x="168.6" y="511.6" width="6.7" height="6.4"/>
			<rect x="222.4" y="556.3" width="6.7" height="6.4"/>
			<rect x="390.6" y="530.7" width="6.7" height="6.4"/>
			<polygon points="303.2,549.9 303.2,556.3 309.9,556.3 316.6,556.3 316.6,549.9 309.9,549.9 			"/>
			<polygon points="215.7,498.8 215.7,505.2 222.4,505.2 229.2,505.2 229.2,498.8 222.4,498.8 			"/>
			<rect x="289.7" y="518" width="6.7" height="6.4"/>
			<rect x="383.9" y="581.8" width="6.7" height="6.4"/>
			<polygon points="336.8,543.5 336.8,549.9 343.5,549.9 343.5,543.5 343.5,537.1 336.8,537.1 			"/>
			<rect x="309.9" y="537.1" width="6.7" height="6.4"/>
			<path d="M175.3,524.3V518h-6.7v-6.4h6.7v6.4h6.7v-6.4h6.7v6.4h6.7v-6.4h6.7v6.4h6.7v6.4h6.7v6.4v6.4H209v6.4h-6.7h-6.7v6.4h6.7
				v6.4h6.7v6.4h-6.7v6.2l16.4,6.6h3.8h6.7h6.7V569v-6.4h6.7v-6.4h-6.7h-6.7v6.4h-6.7v-6.4h6.7v-6.4h6.7v-6.4h-6.7h-6.7v-6.4h6.7
				v-6.4h6.7v-6.4V518h6.7v6.4h6.7h6.7v6.4h6.7h6.7v6.4h6.7v6.4h6.7h6.7v6.4h6.7v6.4h6.7v-6.4h6.7h6.7v6.4h-6.7h-6.7v6.4v6.4h-6.7
				v-6.4h-6.7v6.4v6.4H283v6.4h-6.7v6.4v6.4h-6.7v-6.4v-6.4v-6.4V569v-6.4h-6.7h-6.7v6.4h-6.7v6.4h6.7v6.4v6.4v2.3l26.1,10.5h0.9
				v0.3l6.7,2.7v-3.1h6.7v-6.4h6.7h6.7v-6.4h6.7v-6.4h6.7v6.4h6.7v-6.4h6.7h6.7v6.4h6.7h6.7v-6.4h-6.7v-6.4h-6.7V569v-6.4h6.7v6.4
				h6.7h6.7v6.4h6.7h0v6.4v6.4h0h-6.7v6.4H357v6.4h6.7v6.4h6.7h0v6.4h6.7v-6.4h6.7h6.7v6.4h6.7v-6.4v-6.4h6.7v-6.4h6.7v-6.4h6.7
				v-6.4h6.7v-6.4V569h-6.7v-6.4v-6.4h-6.7h-6.7v-6.4h6.7v-6.4v-6.4h6.7v-6.4h6.7v-6.4V518h6.7v6.4h6.7v6.4h6.7v-6.4h6.7V518h-6.7
				v-6.4v-6.4v-6.4h6.7h6.7v-6.4h-6.7h-6.7v-6.4h-6.7v6.4H431h-6.7v-6.4h-6.7v6.4h-6.7v6.4h-6.7v6.4h6.7h6.7v6.4h-6.7h-6.7v6.4h-6.7
				h-6.7v6.4h-6.7v6.4v6.4h6.7v-6.4h6.7v6.4h-6.7v6.4h-6.7v6.4h-6.7v6.4h-6.7h0v-6.4h-6.7v-6.4h6.7v-6.4h-6.7v-6.4H357v-6.4h6.7v6.4
				h6.7v-6.4V518h-6.7H357h-6.7v-6.4h-6.7h-6.7v-6.4h-6.7h-6.7v-6.4h-6.7h-6.7v6.4h-6.7v6.4h-6.7v-6.4h6.7v-6.4h-6.7h-6.7H283v-6.4
				h-6.7v6.4h-6.7v-6.4h-6.7v-6.4h-6.7v6.4h-6.7v6.4h-6.7v-6.4h-6.7v-6.4h-6.7v-6.4h-6.7h-6.7v6.4H209h-6.7h-6.7v6.4h-6.7h-6.7v6.4
				h-6.7v-6.4h-6.7v-6.4h-6.7h-1.1c1.3,9.6,2.4,20.2,1.9,26.5c-0.2,2.2-0.1,6.4,0.1,11.8h5.8H175.3z M383.9,581.8h6.7v-6.4h6.7v6.4
				h-6.7v6.4h-6.7V581.8z M336.8,543.5v-6.4h6.7v6.4v6.4h-6.7V543.5z M309.9,537.1h6.7v6.4h-6.7V537.1z M289.7,518h6.7v6.4h-6.7V518
				z M215.7,498.8h6.7h6.7v6.4h-6.7h-6.7V498.8z"/>
			<rect x="464.7" y="460.5" width="6.7" height="6.4"/>
			<rect x="464.7" y="460.5" width="6.7" height="6.4"/>
			<rect x="484.9" y="441.4" width="6.7" height="6.4"/>
			<rect x="484.9" y="441.4" width="6.7" height="6.4"/>
			<polygon points="383.9,441.4 383.9,440.6 381.9,441.4 			"/>
			<polygon points="383.9,441.4 383.9,440.6 381.9,441.4 			"/>
			<rect x="377.2" y="466.9" width="6.7" height="6.4"/>
			<rect x="377.2" y="466.9" width="6.7" height="6.4"/>
			<rect x="383.9" y="511.6" width="6.7" height="6.4"/>
			<rect x="383.9" y="511.6" width="6.7" height="6.4"/>
			<path d="M579.1,435h3.4c0.4-2,0.8-4.1,1.2-6.4h-4.6V435z"/>
			<path d="M585.8,396.7h-6.7v-6.4h-6.7v-6.4h-6.7v6.4h-6.7v6.4h-6.7v6.4h-6.7v6.4h6.7h6.7v-6.4h6.7v6.4h6.7v6.4h-6.7h-6.7v6.4h6.7
				v6.4h-6.7v6.4h-6.7v6.4h-6.7h-6.7v6.4H532v6.4h-6.7v-6.4h-6.7v-6.4h-6.7V435v-6.4H505v-6.4h-6.7h-6.7h-6.7v6.4h6.7h6.7v6.4h-6.7
				v6.4h6.7v6.4v6.4h-6.7h-6.7h-6.7h-6.7v6.4h6.7h6.7v6.4h6.7v6.4h6.7v6.4h6.7h6.7h6.7h6.7h6.7v-6.4h-6.7v-6.4v-6.4h6.7h6.7h6.7
				v-6.4h6.7h6.7v6.4v6.4h6.7v6.4h6.7h5.2c0.5-3,0.9-5.5,1.2-7c0-4.9,0.1-12.7,1.2-18.1c0.4-1.8,1.3-6.6,2.5-13.2h-3.4v-6.4h4.6
				c1.4-7.5,3-16.5,4.7-25.5h-2.5V396.7z"/>
			<polygon points="404.1,435 404.1,441.4 410.8,441.4 410.8,435 410.8,429.8 397.9,435 			"/>
			<polygon points="404.1,435 404.1,441.4 410.8,441.4 410.8,435 410.8,429.8 397.9,435 			"/>
			<polygon points="397.4,441.4 397.4,435.2 390.6,437.9 390.6,441.4 383.9,441.4 383.9,447.8 377.2,447.8 377.2,454.1 377.2,460.5 
				383.9,460.5 383.9,466.9 390.6,466.9 397.4,466.9 404.1,466.9 404.1,460.5 397.4,460.5 397.4,454.1 404.1,454.1 404.1,447.8 
				397.4,447.8 			"/>
			<rect x="444.5" y="594.6" width="6.7" height="6.4"/>
			<rect x="444.5" y="594.6" width="6.7" height="6.4"/>
			<rect x="410.8" y="594.6" width="6.7" height="6.4"/>
			<rect x="410.8" y="594.6" width="6.7" height="6.4"/>
			<polygon points="309.9,441.4 309.9,447.8 303.2,447.8 303.2,454.1 309.9,454.1 316.6,454.1 316.6,460.5 323.4,460.5 323.4,454.1 
				323.4,447.8 323.4,441.4 316.6,441.4 			"/>
			<polygon points="309.9,441.4 309.9,447.8 303.2,447.8 303.2,454.1 309.9,454.1 316.6,454.1 316.6,460.5 323.4,460.5 323.4,454.1 
				323.4,447.8 323.4,441.4 316.6,441.4 			"/>
			<polygon points="323.4,424 318.9,422.2 316.6,422.2 316.6,428.6 316.6,435 323.4,435 323.4,441.4 330.1,441.4 330.1,435 
				330.1,428.6 323.4,428.6 			"/>
			<polygon points="323.4,424 318.9,422.2 316.6,422.2 316.6,428.6 316.6,435 323.4,435 323.4,441.4 330.1,441.4 330.1,435 
				330.1,428.6 323.4,428.6 			"/>
			<polygon points="363.7,454.1 357,454.1 350.3,454.1 350.3,460.5 343.5,460.5 343.5,466.9 350.3,466.9 350.3,473.3 357,473.3 
				357,479.7 363.7,479.7 363.7,473.3 370.5,473.3 370.5,466.9 370.5,460.5 363.7,460.5 			"/>
			<polygon points="363.7,454.1 357,454.1 350.3,454.1 350.3,460.5 343.5,460.5 343.5,466.9 350.3,466.9 350.3,473.3 357,473.3 
				357,479.7 363.7,479.7 363.7,473.3 370.5,473.3 370.5,466.9 370.5,460.5 363.7,460.5 			"/>
			<polygon points="330.1,607.3 330.1,613.7 336.8,613.7 336.8,620.1 343.5,620.1 343.5,613.7 343.5,607.3 336.8,607.3 			"/>
			<polygon points="330.1,607.3 330.1,613.7 336.8,613.7 336.8,620.1 343.5,620.1 343.5,613.7 343.5,607.3 336.8,607.3 			"/>
			<polygon points="330.1,454.1 330.1,460.5 336.8,460.5 336.8,454.1 336.8,447.8 330.1,447.8 			"/>
			<polygon points="330.1,454.1 330.1,460.5 336.8,460.5 336.8,454.1 336.8,447.8 330.1,447.8 			"/>
			<polygon points="235.9,581.8 235.9,582.4 242.6,585.1 242.6,581.8 242.6,575.4 235.9,575.4 			"/>
			<polygon points="235.9,581.8 235.9,582.4 242.6,585.1 242.6,581.8 242.6,575.4 235.9,575.4 			"/>
			<polygon points="457.9,498.8 457.9,505.2 451.2,505.2 451.2,511.6 451.2,518 457.9,518 464.7,518 464.7,511.6 471.4,511.6 
				471.4,505.2 471.4,498.8 464.7,498.8 			"/>
			<polygon points="457.9,498.8 457.9,505.2 451.2,505.2 451.2,511.6 451.2,518 457.9,518 464.7,518 464.7,511.6 471.4,511.6 
				471.4,505.2 471.4,498.8 464.7,498.8 			"/>
			<polygon points="525.2,492.4 525.2,498.8 525.2,505.2 532,505.2 532,511.6 538.7,511.6 538.7,505.2 538.7,498.8 538.7,492.4 
				532,492.4 			"/>
			<polygon points="525.2,492.4 525.2,498.8 525.2,505.2 532,505.2 532,511.6 538.7,511.6 538.7,505.2 538.7,498.8 538.7,492.4 
				532,492.4 			"/>
			<rect x="491.6" y="492.4" width="6.7" height="6.4"/>
			<rect x="491.6" y="492.4" width="6.7" height="6.4"/>
			<polygon points="471.4,511.6 471.4,518 471.4,524.3 478.1,524.3 478.1,518 484.9,518 484.9,511.6 478.1,511.6 			"/>
			<polygon points="471.4,511.6 471.4,518 471.4,524.3 478.1,524.3 478.1,518 484.9,518 484.9,511.6 478.1,511.6 			"/>
			<polygon points="457.9,422.2 451.2,422.2 451.2,428.6 444.5,428.6 444.5,435 451.2,435 451.2,441.4 457.9,441.4 464.7,441.4 
				464.7,435 464.7,428.6 457.9,428.6 			"/>
			<polygon points="457.9,422.2 451.2,422.2 451.2,428.6 444.5,428.6 444.5,435 451.2,435 451.2,441.4 457.9,441.4 464.7,441.4 
				464.7,435 464.7,428.6 457.9,428.6 			"/>
			<polygon points="585.8,371.2 579.1,371.2 579.1,377.5 579.1,383.9 585.8,383.9 585.8,377.5 592.5,377.5 592.5,371.2 592.5,364.8 
				585.8,364.8 			"/>
			<polygon points="585.8,371.2 579.1,371.2 579.1,377.5 579.1,383.9 585.8,383.9 585.8,377.5 592.5,377.5 592.5,371.2 592.5,364.8 
				585.8,364.8 			"/>
			<polygon points="383.9,486.1 383.9,492.4 390.6,492.4 397.4,492.4 397.4,486.1 390.6,486.1 			"/>
			<polygon points="383.9,486.1 383.9,492.4 390.6,492.4 397.4,492.4 397.4,486.1 390.6,486.1 			"/>
			<rect x="397.4" y="479.7" width="6.7" height="6.4"/>
			<rect x="397.4" y="479.7" width="6.7" height="6.4"/>
			<rect x="437.8" y="454.1" width="6.7" height="6.4"/>
			<rect x="437.8" y="454.1" width="6.7" height="6.4"/>
			<polygon points="538.7,378.9 538.7,383.9 545.4,383.9 545.4,377.5 542.2,377.5 			"/>
			<polygon points="538.7,378.9 538.7,383.9 545.4,383.9 545.4,377.5 542.2,377.5 			"/>
			<path d="M572.3,543.5h-6.7v6.4h-6.7h-6.7v6.4v6.4h6.7v2.4l12.4-4.9c0.7-8.3,1.3-16.2,1.7-23.1h-0.6V543.5z"/>
			<path d="M572.3,543.5h-6.7v6.4h-6.7h-6.7v6.4v6.4h6.7v2.4l12.4-4.9c0.7-8.3,1.3-16.2,1.7-23.1h-0.6V543.5z"/>
			<rect x="464.7" y="543.5" width="6.7" height="6.4"/>
			<rect x="505" y="549.9" width="6.7" height="6.4"/>
			<rect x="484.9" y="569" width="6.7" height="6.4"/>
			<rect x="464.7" y="581.8" width="6.7" height="6.4"/>
			<polygon points="538.7,562.6 538.7,556.3 532,556.3 525.2,556.3 525.2,549.9 518.5,549.9 511.8,549.9 511.8,543.5 505,543.5 
				505,537.1 498.3,537.1 491.6,537.1 491.6,530.7 498.3,530.7 498.3,524.3 491.6,524.3 484.9,524.3 478.1,524.3 478.1,530.7 
				484.9,530.7 484.9,537.1 478.1,537.1 471.4,537.1 464.7,537.1 464.7,543.5 457.9,543.5 457.9,549.9 451.2,549.9 451.2,556.3 
				444.5,556.3 444.5,562.6 451.2,562.6 457.9,562.6 457.9,569 464.7,569 464.7,575.4 457.9,575.4 451.2,575.4 444.5,575.4 
				444.5,581.8 437.8,581.8 437.8,588.2 444.5,588.2 451.2,588.2 451.2,594.6 457.9,594.6 457.9,600.9 464.7,600.9 464.7,602.1 
				505,586.2 505,581.8 498.3,581.8 491.6,581.8 491.6,575.4 498.3,575.4 505,575.4 511.8,575.4 518.5,575.4 518.5,580.9 
				552.1,567.7 552.1,562.6 545.4,562.6 			"/>
			<polygon points="377.2,626.5 370.5,626.5 370.5,626.5 370.5,620.1 363.7,620.1 357,620.1 357,626.5 350.3,626.5 345.6,626.5 
				373.9,637.8 383.9,633.9 383.9,632.9 377.2,632.9 			"/>
			<polygon points="377.2,626.5 370.5,626.5 370.5,626.5 370.5,620.1 363.7,620.1 357,620.1 357,626.5 350.3,626.5 345.6,626.5 
				373.9,637.8 383.9,633.9 383.9,632.9 377.2,632.9 			"/>
			<polygon points="397.4,628.6 402.7,626.5 397.4,626.5 			"/>
			<polygon points="397.4,628.6 402.7,626.5 397.4,626.5 			"/>
			<polygon points="410.8,623.3 417.6,620.6 417.6,620.1 410.8,620.1 			"/>
			<polygon points="410.8,623.3 417.6,620.6 417.6,620.1 410.8,620.1 			"/>
			<polygon points="431,615.3 435.2,613.7 431,613.7 			"/>
			<polygon points="431,615.3 435.2,613.7 431,613.7 			"/>
		</g>
	</g>
</g>
<g id="CAMO1">
	<g>
		<rect x="309.9" y="537.1" fill="#64625F" width="6.7" height="6.4"/>
		<rect x="309.9" y="537.1" fill="#64625F" width="6.7" height="6.4"/>
		<polygon fill="#64625F" points="202.2,549.9 195.5,549.9 188.8,549.9 188.8,556.3 195.5,556.3 195.5,562.6 195.5,566.1 
			202.2,568.8 202.2,562.6 209,562.6 209,556.3 202.2,556.3 		"/>
		<polygon fill="#64625F" points="202.2,549.9 195.5,549.9 188.8,549.9 188.8,556.3 195.5,556.3 195.5,562.6 195.5,566.1 
			202.2,568.8 202.2,562.6 209,562.6 209,556.3 202.2,556.3 		"/>
		<polygon fill="#64625F" points="296.4,549.9 289.7,549.9 289.7,543.5 283,543.5 276.3,543.5 269.5,543.5 269.5,549.9 276.3,549.9 
			283,549.9 283,556.3 276.3,556.3 276.3,562.6 276.3,569 283,569 283,575.4 289.7,575.4 289.7,569 289.7,562.6 296.4,562.6 
			296.4,569 303.2,569 303.2,562.6 303.2,556.3 296.4,556.3 		"/>
		<polygon fill="#64625F" points="296.4,549.9 289.7,549.9 289.7,543.5 283,543.5 276.3,543.5 269.5,543.5 269.5,549.9 276.3,549.9 
			283,549.9 283,556.3 276.3,556.3 276.3,562.6 276.3,569 283,569 283,575.4 289.7,575.4 289.7,569 289.7,562.6 296.4,562.6 
			296.4,569 303.2,569 303.2,562.6 303.2,556.3 296.4,556.3 		"/>
		<polygon fill="#64625F" points="303.2,549.9 303.2,556.3 309.9,556.3 316.6,556.3 316.6,549.9 309.9,549.9 		"/>
		<polygon fill="#64625F" points="303.2,549.9 303.2,556.3 309.9,556.3 316.6,556.3 316.6,549.9 309.9,549.9 		"/>
		<path fill="#64625F" d="M168.6,549.9h-4.2c0.1,1.3,0.2,2.5,0.3,3.8l3.9,1.6V549.9z"/>
		<path fill="#64625F" d="M168.6,549.9h-4.2c0.1,1.3,0.2,2.5,0.3,3.8l3.9,1.6V549.9z"/>
		<rect x="222.4" y="556.3" fill="#64625F" width="6.7" height="6.4"/>
		<rect x="222.4" y="556.3" fill="#64625F" width="6.7" height="6.4"/>
		<polygon fill="#64625F" points="182.1,560.7 186.9,562.6 188.8,562.6 188.8,556.3 182.1,556.3 		"/>
		<polygon fill="#64625F" points="182.1,560.7 186.9,562.6 188.8,562.6 188.8,556.3 182.1,556.3 		"/>
		<path fill="#64625F" d="M148.4,383.9h6.7v-6.4h-6.7v-6.4h-6.6c0.7,3.9,1.5,8.2,2.4,12.8H148.4z"/>
		<path fill="#64625F" d="M148.4,396.7v-6.4h-3.1c0.8,4.2,1.6,8.5,2.4,12.8h0.7V396.7z"/>
		<rect x="161.9" y="396.7" fill="#64625F" width="6.7" height="6.4"/>
		<rect x="161.9" y="396.7" fill="#64625F" width="6.7" height="6.4"/>
		<rect x="323.4" y="498.8" fill="#64625F" width="6.7" height="6.4"/>
		<rect x="323.4" y="498.8" fill="#64625F" width="6.7" height="6.4"/>
		<polygon fill="#64625F" points="269.5,575.4 269.5,581.8 269.5,588.2 269.5,594.6 276.3,594.6 276.3,588.2 276.3,581.8 283,581.8 
			283,575.4 276.3,575.4 		"/>
		<polygon fill="#64625F" points="269.5,575.4 269.5,581.8 269.5,588.2 269.5,594.6 276.3,594.6 276.3,588.2 276.3,581.8 283,581.8 
			283,575.4 276.3,575.4 		"/>
		<rect x="188.8" y="403.1" fill="#64625F" width="6.7" height="6.4"/>
		<rect x="188.8" y="403.1" fill="#64625F" width="6.7" height="6.4"/>
		<rect x="175.3" y="403.1" fill="#64625F" width="6.7" height="6.4"/>
		<rect x="175.3" y="403.1" fill="#64625F" width="6.7" height="6.4"/>
		<polygon fill="#64625F" points="215.7,498.8 215.7,505.2 222.4,505.2 229.2,505.2 229.2,498.8 222.4,498.8 		"/>
		<polygon fill="#64625F" points="215.7,498.8 215.7,505.2 222.4,505.2 229.2,505.2 229.2,498.8 222.4,498.8 		"/>
		<rect x="256.1" y="460.5" fill="#64625F" width="6.7" height="6.4"/>
		<rect x="256.1" y="460.5" fill="#64625F" width="6.7" height="6.4"/>
		<rect x="289.7" y="518" fill="#64625F" width="6.7" height="6.4"/>
		<rect x="289.7" y="518" fill="#64625F" width="6.7" height="6.4"/>
		<rect x="168.6" y="486.1" fill="#64625F" width="6.7" height="6.4"/>
		<rect x="168.6" y="486.1" fill="#64625F" width="6.7" height="6.4"/>
		<rect x="168.6" y="511.6" fill="#64625F" width="6.7" height="6.4"/>
		<rect x="168.6" y="511.6" fill="#64625F" width="6.7" height="6.4"/>
		<polygon fill="#64625F" points="209,518 202.2,518 202.2,511.6 195.5,511.6 195.5,518 188.8,518 188.8,511.6 182.1,511.6 
			182.1,518 175.3,518 175.3,524.3 182.1,524.3 182.1,530.7 188.8,530.7 188.8,537.1 195.5,537.1 195.5,543.5 202.2,543.5 
			209,543.5 209,537.1 215.7,537.1 215.7,530.7 215.7,524.3 209,524.3 		"/>
		<polygon fill="#64625F" points="209,518 202.2,518 202.2,511.6 195.5,511.6 195.5,518 188.8,518 188.8,511.6 182.1,511.6 
			182.1,518 175.3,518 175.3,524.3 182.1,524.3 182.1,530.7 188.8,530.7 188.8,537.1 195.5,537.1 195.5,543.5 202.2,543.5 
			209,543.5 209,537.1 215.7,537.1 215.7,530.7 215.7,524.3 209,524.3 		"/>
		<polygon fill="#64625F" points="256.1,530.7 256.1,524.3 249.3,524.3 242.6,524.3 242.6,518 235.9,518 235.9,524.3 235.9,530.7 
			229.2,530.7 229.2,537.1 222.4,537.1 222.4,543.5 229.2,543.5 235.9,543.5 235.9,549.9 229.2,549.9 229.2,556.3 235.9,556.3 
			242.6,556.3 242.6,549.9 242.6,543.5 249.3,543.5 249.3,537.1 256.1,537.1 256.1,543.5 262.8,543.5 262.8,537.1 269.5,537.1 
			269.5,530.7 262.8,530.7 		"/>
		<polygon fill="#64625F" points="256.1,530.7 256.1,524.3 249.3,524.3 242.6,524.3 242.6,518 235.9,518 235.9,524.3 235.9,530.7 
			229.2,530.7 229.2,537.1 222.4,537.1 222.4,543.5 229.2,543.5 235.9,543.5 235.9,549.9 229.2,549.9 229.2,556.3 235.9,556.3 
			242.6,556.3 242.6,549.9 242.6,543.5 249.3,543.5 249.3,537.1 256.1,537.1 256.1,543.5 262.8,543.5 262.8,537.1 269.5,537.1 
			269.5,530.7 262.8,530.7 		"/>
		<rect x="350.3" y="511.6" fill="#64625F" width="6.7" height="6.4"/>
		<rect x="350.3" y="511.6" fill="#64625F" width="6.7" height="6.4"/>
		<rect x="357" y="524.3" fill="#64625F" width="6.7" height="6.4"/>
		<rect x="357" y="524.3" fill="#64625F" width="6.7" height="6.4"/>
		<rect x="195.5" y="383.9" fill="#64625F" width="6.7" height="6.4"/>
		<rect x="195.5" y="383.9" fill="#64625F" width="6.7" height="6.4"/>
		<polygon fill="#64625F" points="343.5,498.8 336.8,498.8 336.8,505.2 336.8,511.6 343.5,511.6 350.3,511.6 350.3,505.2 
			343.5,505.2 		"/>
		<polygon fill="#64625F" points="343.5,498.8 336.8,498.8 336.8,505.2 336.8,511.6 343.5,511.6 350.3,511.6 350.3,505.2 
			343.5,505.2 		"/>
		<polygon fill="#64625F" points="336.8,543.5 336.8,549.9 343.5,549.9 343.5,543.5 343.5,537.1 336.8,537.1 		"/>
		<polygon fill="#64625F" points="336.8,543.5 336.8,549.9 343.5,549.9 343.5,543.5 343.5,537.1 336.8,537.1 		"/>
		<path fill="#64625F" d="M579.1,435h3.4c0.4-2,0.8-4.1,1.2-6.4h-4.6V435z"/>
		<path fill="#64625F" d="M579.1,435h3.4c0.4-2,0.8-4.1,1.2-6.4h-4.6V435z"/>
		<path fill="#64625F" d="M572.3,498.8v-6.4h-6.7v6.4v6.4h-6.7v6.4h6.7v6.4h6.7v6.4h1.3c0.2-5.4,0.3-9.5,0.1-11.8
			c-0.2-2.1-0.1-4.6,0-7.4h-1.4V498.8z"/>
		<path fill="#64625F" d="M572.3,498.8v-6.4h-6.7v6.4v6.4h-6.7v6.4h6.7v6.4h6.7v6.4h1.3c0.2-5.4,0.3-9.5,0.1-11.8
			c-0.2-2.1-0.1-4.6,0-7.4h-1.4V498.8z"/>
		<path fill="#64625F" d="M565.6,473.3v6.4h-6.7v6.4h6.7h6.7v-6.4h4.2c0.3-2.3,0.7-4.5,1-6.4h-5.2H565.6z"/>
		<path fill="#64625F" d="M565.6,473.3v6.4h-6.7v6.4h6.7h6.7v-6.4h4.2c0.3-2.3,0.7-4.5,1-6.4h-5.2H565.6z"/>
		<rect x="484.9" y="569" fill="#64625F" width="6.7" height="6.4"/>
		<rect x="484.9" y="569" fill="#64625F" width="6.7" height="6.4"/>
		<polygon fill="#64625F" points="511.8,524.3 511.8,530.7 505,530.7 505,537.1 505,543.5 511.8,543.5 511.8,549.9 518.5,549.9 
			518.5,543.5 525.2,543.5 525.2,537.1 525.2,530.7 525.2,524.3 518.5,524.3 		"/>
		<polygon fill="#64625F" points="511.8,524.3 511.8,530.7 505,530.7 505,537.1 505,543.5 511.8,543.5 511.8,549.9 518.5,549.9 
			518.5,543.5 525.2,543.5 525.2,537.1 525.2,530.7 525.2,524.3 518.5,524.3 		"/>
		<rect x="457.9" y="492.4" fill="#64625F" width="6.7" height="6.4"/>
		<rect x="457.9" y="492.4" fill="#64625F" width="6.7" height="6.4"/>
		<rect x="545.4" y="479.7" fill="#64625F" width="6.7" height="6.4"/>
		<rect x="545.4" y="479.7" fill="#64625F" width="6.7" height="6.4"/>
		<rect x="525.2" y="466.9" fill="#64625F" width="6.7" height="6.4"/>
		<rect x="525.2" y="466.9" fill="#64625F" width="6.7" height="6.4"/>
		<polygon fill="#64625F" points="518.5,479.7 511.8,479.7 511.8,486.1 518.5,486.1 518.5,492.4 525.2,492.4 532,492.4 532,486.1 
			532,479.7 525.2,479.7 		"/>
		<polygon fill="#64625F" points="518.5,479.7 511.8,479.7 511.8,486.1 518.5,486.1 518.5,492.4 525.2,492.4 532,492.4 532,486.1 
			532,479.7 525.2,479.7 		"/>
		<rect x="532" y="460.5" fill="#64625F" width="6.7" height="6.4"/>
		<rect x="532" y="460.5" fill="#64625F" width="6.7" height="6.4"/>
		<rect x="478.1" y="498.8" fill="#64625F" width="6.7" height="6.4"/>
		<rect x="491.6" y="492.4" fill="#64625F" width="6.7" height="6.4"/>
		<polygon fill="#64625F" points="505,492.4 498.3,492.4 498.3,486.1 491.6,486.1 484.9,486.1 484.9,492.4 478.1,492.4 478.1,498.8 
			471.4,498.8 471.4,505.2 471.4,511.6 478.1,511.6 484.9,511.6 484.9,518 478.1,518 478.1,524.3 484.9,524.3 491.6,524.3 
			498.3,524.3 498.3,518 498.3,511.6 505,511.6 505,505.2 511.8,505.2 511.8,498.8 505,498.8 		"/>
		<polygon fill="#64625F" points="505,492.4 498.3,492.4 498.3,498.8 491.6,498.8 491.6,492.4 498.3,492.4 498.3,486.1 491.6,486.1 
			484.9,486.1 484.9,492.4 478.1,492.4 478.1,498.8 484.9,498.8 484.9,505.2 478.1,505.2 478.1,498.8 471.4,498.8 471.4,505.2 
			471.4,511.6 478.1,511.6 484.9,511.6 484.9,518 478.1,518 478.1,524.3 484.9,524.3 491.6,524.3 498.3,524.3 498.3,518 
			498.3,511.6 505,511.6 505,505.2 511.8,505.2 511.8,498.8 505,498.8 		"/>
		<rect x="478.1" y="479.7" fill="#64625F" width="6.7" height="6.4"/>
		<rect x="478.1" y="479.7" fill="#64625F" width="6.7" height="6.4"/>
		<polygon fill="#64625F" points="558.9,543.5 552.1,543.5 545.4,543.5 545.4,549.9 552.1,549.9 558.9,549.9 565.6,549.9 
			565.6,543.5 565.6,537.1 558.9,537.1 		"/>
		<polygon fill="#64625F" points="558.9,543.5 552.1,543.5 545.4,543.5 545.4,549.9 552.1,549.9 558.9,549.9 565.6,549.9 
			565.6,543.5 565.6,537.1 558.9,537.1 		"/>
		<rect x="444.5" y="486.1" fill="#64625F" width="6.7" height="6.4"/>
		<rect x="444.5" y="486.1" fill="#64625F" width="6.7" height="6.4"/>
		<polygon fill="#64625F" points="444.5,498.8 444.5,505.2 444.5,511.6 444.5,518 451.2,518 451.2,511.6 451.2,505.2 457.9,505.2 
			457.9,498.8 451.2,498.8 		"/>
		<polygon fill="#64625F" points="444.5,498.8 444.5,505.2 444.5,511.6 444.5,518 451.2,518 451.2,511.6 451.2,505.2 457.9,505.2 
			457.9,498.8 451.2,498.8 		"/>
		<rect x="464.7" y="543.5" fill="#64625F" width="6.7" height="6.4"/>
		<rect x="464.7" y="543.5" fill="#64625F" width="6.7" height="6.4"/>
		<rect x="505" y="549.9" fill="#64625F" width="6.7" height="6.4"/>
		<rect x="505" y="549.9" fill="#64625F" width="6.7" height="6.4"/>
		<polygon fill="#64625F" points="552.1,524.3 552.1,530.7 558.9,530.7 565.6,530.7 565.6,524.3 558.9,524.3 		"/>
		<polygon fill="#64625F" points="552.1,524.3 552.1,530.7 558.9,530.7 565.6,530.7 565.6,524.3 558.9,524.3 		"/>
		<rect x="558.9" y="466.9" fill="#64625F" width="6.7" height="6.4"/>
		<rect x="558.9" y="466.9" fill="#64625F" width="6.7" height="6.4"/>
		<rect x="383.9" y="581.8" fill="#64625F" width="6.7" height="6.4"/>
		<rect x="383.9" y="581.8" fill="#64625F" width="6.7" height="6.4"/>
		<polygon fill="#64625F" points="397.4,435.2 397.9,435 397.4,435 		"/>
		<polygon fill="#64625F" points="397.4,435.2 397.9,435 397.4,435 		"/>
		<polygon fill="#64625F" points="283,601.3 283,600.9 282.1,600.9 		"/>
		<polygon fill="#64625F" points="283,601.3 283,600.9 282.1,600.9 		"/>
		<polygon fill="#64625F" points="330.1,454.1 330.1,460.5 336.8,460.5 336.8,454.1 336.8,447.8 330.1,447.8 		"/>
		<rect x="370.5" y="498.8" fill="#64625F" width="6.7" height="6.4"/>
		<rect x="377.2" y="466.9" fill="#64625F" width="6.7" height="6.4"/>
		<rect x="383.9" y="511.6" fill="#64625F" width="6.7" height="6.4"/>
		<rect x="484.9" y="441.4" fill="#64625F" width="6.7" height="6.4"/>
		<polygon fill="#64625F" points="471.4,415.8 471.4,422.2 478.1,422.2 484.9,422.2 484.9,415.8 478.1,415.8 		"/>
		<rect x="397.4" y="479.7" fill="#64625F" width="6.7" height="6.4"/>
		<polygon fill="#64625F" points="457.9,422.2 451.2,422.2 451.2,428.6 444.5,428.6 444.5,435 451.2,435 451.2,441.4 457.9,441.4 
			464.7,441.4 464.7,435 464.7,428.6 457.9,428.6 		"/>
		<polygon fill="#64625F" points="383.9,486.1 383.9,492.4 390.6,492.4 397.4,492.4 397.4,486.1 390.6,486.1 		"/>
		<rect x="437.8" y="454.1" fill="#64625F" width="6.7" height="6.4"/>
		<rect x="457.9" y="415.8" fill="#64625F" width="6.7" height="6.4"/>
		<path fill="#64625F" d="M592.5,357.5l-13.5,5.4v1.9h-4.8l-32.1,12.8h3.3v6.4h-6.7v-5l-127.8,50.9v5.2v6.4h-6.7V435h-6.2l-0.5,0.2
			v6.2v6.4h6.7v6.4h-6.7v6.4h6.7v6.4h-6.7h-6.7h-6.7v6.4h-6.7v-6.4h6.7v-6.4h-6.7v-6.4v-6.4h6.7v-6.4h-2.1l-8,3.2l-7.8-3.2h-2.3v6.4
			H357v6.4h6.7v6.4h6.7v6.4v6.4h-6.7v6.4H357v-6.4h-6.7v-6.4h-6.7v-6.4h6.7v-6.4v-6.4v-6.4h6.7v-3.7L323.4,424v4.6h6.7v6.4v6.4h-6.7
			v6.4v6.4v6.4h-6.7v-6.4h-6.7v6.4h-6.7h-6.7v-6.4h-6.7v6.4H283v6.4v6.4h6.7v6.4H283v6.4h-6.7v-6.4v-6.4h-6.7v6.4h-6.7v-6.4h-6.7
			v-6.4h-6.7h-6.7v6.4h-6.7v-6.4h-6.7v-6.4h-6.7h-6.7v-6.4h6.7v-6.4h-6.7H209v-6.4h6.7V435h6.7v-6.4h-6.7H209v-6.4h-6.7v-6.4h-6.7
			v6.4v6.4h-6.7h-6.7v-6.4h-6.7v6.4v6.4h-6.7h-6.7v6.4h-6.7V435h-1.6c1.2,6.5,2.1,11.3,2.5,13.2c0.1,0.6,0.2,1.2,0.3,1.8
			c0,0.1,0,0.1,0,0.2c0.1,0.6,0.2,1.2,0.2,1.8c0,0.1,0,0.1,0,0.2c0.1,0.6,0.1,1.3,0.2,1.9c0,0,0,0.1,0,0.1c0.1,0.7,0.1,1.4,0.2,2.1
			c0,0,0,0,0,0c0,0.7,0.1,1.4,0.1,2.1c0,0.1,0,0.1,0,0.2c0,0.6,0.1,1.3,0.1,1.9c0,0.1,0,0.1,0,0.2c0,0.7,0,1.3,0,1.9c0,0,0,0,0,0
			c0,0.7,0,1.3,0,1.9c0-0.1,0.1-0.1,0.1-0.1s1.9,10.2,3.5,21.7h1.1v-6.4h6.7v-6.4h6.7v-6.4h6.7v6.4v6.4v6.4h6.7v-6.4h6.7h6.7v6.4
			h6.7h6.7v-6.4h6.7h6.7v6.4h6.7v6.4h6.7v6.4h6.7v-6.4h6.7v-6.4h6.7v6.4h6.7v6.4h6.7v-6.4h6.7v6.4h6.7h6.7v-6.4h-6.7v-6.4h6.7v-6.4
			h6.7h6.7v6.4v6.4h6.7v-6.4h6.7v-6.4h6.7v6.4h6.7v-6.4v-6.4h6.7v6.4h6.7v6.4h-6.7v6.4v6.4h6.7v6.4h6.7v-6.4h6.7v6.4h6.7v6.4h-6.7
			v6.4h6.7v6.4v6.4h-6.7v6.4h6.7v6.4h-6.7v6.4h6.7v6.4h0h6.7v-6.4h6.7v-6.4h6.7v-6.4h-6.7v-6.4v-6.4h6.7V518h-6.7v-6.4h6.7v6.4h6.7
			h6.7v-6.4h6.7h6.7v-6.4h-6.7h-6.7v-6.4h6.7v-6.4h6.7v-6.4h6.7v6.4h6.7h6.7v-6.4v-6.4h6.7v-6.4h6.7h6.7v6.4v6.4h6.7v-6.4h6.7h6.7
			v-6.4h-6.7v-6.4h-6.7v-6.4h6.7v-6.4h6.7h6.7h6.7h6.7v-6.4v-6.4h-6.7v6.4h-6.7v-6.4h6.7V435h6.7v-6.4h-6.7h-6.7v-6.4h-6.7h-6.7
			v-6.4h6.7h6.7v6.4h6.7h6.7h6.7v6.4h6.7v6.4v6.4h6.7v6.4h6.7v6.4h6.7v-6.4h6.7v-6.4h6.7h6.7V435h6.7v-6.4h6.7v-6.4h-6.7v-6.4h6.7
			h6.7v-6.4h-6.7v-6.4h-6.7v6.4h-6.7h-6.7v-6.4h6.7v-6.4h6.7v-6.4h6.7v-6.4h6.7v6.4h6.7v6.4h6.7v6.4h2.5c1.2-6.5,2.4-13,3.5-19.1
			h-6.1h-6.7v-6.4v-6.4h6.7v-6.4h6.7v6.4h1.7c0.9-5,1.8-9.4,2.4-12.8h-4.2V357.5z M336.8,454.1v6.4h-6.7v-6.4v-6.4h6.7V454.1z
			 M377.2,505.2h-6.7v-6.4h6.7V505.2z M404.1,486.1h-6.7v6.4h-6.7h-6.7v-6.4h6.7h6.7v-6.4h6.7V486.1z M444.5,460.5h-6.7v-6.4h6.7
			V460.5z M464.7,422.2h-6.7v6.4h6.7v6.4v6.4h-6.7h-6.7V435h-6.7v-6.4h6.7v-6.4h6.7v-6.4h6.7V422.2z"/>
		<polygon fill="#64625F" points="222.4,575.4 218.6,575.4 235.9,582.4 235.9,581.8 235.9,575.4 229.2,575.4 		"/>
		<polygon fill="#64625F" points="222.4,575.4 218.6,575.4 235.9,582.4 235.9,581.8 235.9,575.4 229.2,575.4 		"/>
		<rect x="309.9" y="594.6" fill="#64625F" width="6.7" height="6.4"/>
		<rect x="410.8" y="594.6" fill="#64625F" width="6.7" height="6.4"/>
		<polygon fill="#64625F" points="336.8,594.6 336.8,600.9 343.5,600.9 350.3,600.9 350.3,594.6 343.5,594.6 		"/>
		<rect x="444.5" y="594.6" fill="#64625F" width="6.7" height="6.4"/>
		<polygon fill="#64625F" points="336.8,600.9 330.1,600.9 330.1,607.3 330.1,613.7 336.8,613.7 336.8,620.1 343.5,620.1 
			343.5,613.7 343.5,607.3 336.8,607.3 		"/>
		<polygon fill="#64625F" points="478.1,524.3 471.4,524.3 471.4,518 471.4,511.6 464.7,511.6 464.7,518 457.9,518 451.2,518 
			451.2,524.3 444.5,524.3 444.5,530.7 437.8,530.7 437.8,524.3 431,524.3 431,518 424.3,518 424.3,524.3 424.3,530.7 417.6,530.7 
			417.6,537.1 410.8,537.1 410.8,543.5 410.8,549.9 404.1,549.9 404.1,556.3 410.8,556.3 417.6,556.3 417.6,562.6 417.6,569 
			424.3,569 424.3,575.4 424.3,581.8 417.6,581.8 417.6,588.2 410.8,588.2 410.8,594.6 404.1,594.6 404.1,600.9 397.4,600.9 
			397.4,607.3 397.4,613.7 390.6,613.7 390.6,607.3 383.9,607.3 377.2,607.3 377.2,613.7 370.5,613.7 370.5,607.3 370.5,607.3 
			363.7,607.3 363.7,600.9 357,600.9 357,594.6 363.7,594.6 363.7,588.2 370.5,588.2 370.5,588.2 370.5,581.8 370.5,575.4 
			370.5,575.4 363.7,575.4 363.7,569 357,569 350.3,569 350.3,562.6 343.5,562.6 343.5,569 343.5,575.4 350.3,575.4 350.3,581.8 
			357,581.8 357,588.2 350.3,588.2 343.5,588.2 343.5,581.8 336.8,581.8 330.1,581.8 330.1,588.2 323.4,588.2 323.4,581.8 
			316.6,581.8 316.6,588.2 309.9,588.2 309.9,594.6 303.2,594.6 296.4,594.6 296.4,600.9 289.7,600.9 289.7,604 316.6,614.8 
			316.6,613.7 316.6,607.3 323.4,607.3 323.4,613.7 330.1,613.7 330.1,620.1 329.8,620.1 345.6,626.5 350.3,626.5 357,626.5 
			357,620.1 363.7,620.1 370.5,620.1 370.5,626.5 370.5,626.5 377.2,626.5 377.2,632.9 383.9,632.9 383.9,633.9 397.4,628.6 
			397.4,626.5 402.7,626.5 410.8,623.3 410.8,620.1 417.6,620.1 417.6,620.6 431,615.3 431,613.7 435.2,613.7 464.7,602.1 
			464.7,600.9 457.9,600.9 457.9,594.6 451.2,594.6 451.2,588.2 444.5,588.2 437.8,588.2 437.8,581.8 444.5,581.8 444.5,575.4 
			451.2,575.4 457.9,575.4 464.7,575.4 464.7,569 457.9,569 457.9,562.6 451.2,562.6 444.5,562.6 444.5,556.3 451.2,556.3 
			451.2,549.9 457.9,549.9 457.9,543.5 464.7,543.5 464.7,537.1 471.4,537.1 478.1,537.1 484.9,537.1 484.9,530.7 478.1,530.7 		"/>
		<polygon fill="#64625F" points="383.9,441.4 390.6,441.4 390.6,437.9 383.9,440.6 		"/>
		<polygon fill="#64625F" points="383.9,441.4 390.6,441.4 390.6,437.9 383.9,440.6 		"/>
		<polygon fill="#64625F" points="316.6,422.2 318.9,422.2 316.6,421.3 		"/>
		<polygon fill="#64625F" points="316.6,422.2 318.9,422.2 316.6,421.3 		"/>
		<rect x="276.3" y="422.2" fill="#64625F" width="6.7" height="6.4"/>
		<polygon fill="#64625F" points="316.6,428.6 316.6,422.2 309.9,422.2 309.9,428.6 303.2,428.6 303.2,435 296.4,435 296.4,428.6 
			289.7,428.6 289.7,422.2 283,422.2 283,415.8 283,409.5 287.6,409.5 175.3,363.8 175.3,364.8 168.6,364.8 168.6,371.2 
			161.9,371.2 161.9,377.5 161.9,383.9 161.9,390.3 168.6,390.3 168.6,396.7 175.3,396.7 175.3,390.3 182.1,390.3 182.1,383.9 
			188.8,383.9 188.8,377.5 195.5,377.5 202.2,377.5 202.2,383.9 209,383.9 209,390.3 209,396.7 209,403.1 215.7,403.1 222.4,403.1 
			222.4,409.5 229.2,409.5 229.2,415.8 229.2,422.2 235.9,422.2 242.6,422.2 249.3,422.2 249.3,428.6 242.6,428.6 242.6,435 
			235.9,435 235.9,441.4 242.6,441.4 242.6,447.8 249.3,447.8 256.1,447.8 256.1,441.4 262.8,441.4 262.8,447.8 269.5,447.8 
			269.5,454.1 276.3,454.1 276.3,447.8 276.3,441.4 283,441.4 283,447.8 289.7,447.8 296.4,447.8 296.4,441.4 303.2,441.4 
			303.2,447.8 309.9,447.8 309.9,441.4 316.6,441.4 323.4,441.4 323.4,435 316.6,435 		"/>
		<polygon fill="#64625F" points="249.3,562.6 242.6,562.6 235.9,562.6 235.9,569 235.9,575.4 242.6,575.4 242.6,581.8 242.6,585.1 
			256.1,590.5 256.1,588.2 256.1,581.8 256.1,575.4 249.3,575.4 249.3,569 256.1,569 256.1,562.6 256.1,556.3 249.3,556.3 		"/>
		<polygon fill="#64625F" points="249.3,562.6 242.6,562.6 235.9,562.6 235.9,569 235.9,575.4 242.6,575.4 242.6,581.8 242.6,585.1 
			256.1,590.5 256.1,588.2 256.1,581.8 256.1,575.4 249.3,575.4 249.3,569 256.1,569 256.1,562.6 256.1,556.3 249.3,556.3 		"/>
		<polygon fill="#64625F" points="289.7,415.8 296.4,415.8 303.2,415.8 303.2,422.2 309.9,422.2 309.9,418.6 289.7,410.3 		"/>
		<polygon fill="#64625F" points="289.7,415.8 296.4,415.8 303.2,415.8 303.2,422.2 309.9,422.2 309.9,418.6 289.7,410.3 		"/>
		<rect x="464.7" y="581.8" fill="#64625F" width="6.7" height="6.4"/>
		<rect x="464.7" y="581.8" fill="#64625F" width="6.7" height="6.4"/>
		<polygon fill="#64625F" points="505,575.4 498.3,575.4 491.6,575.4 491.6,581.8 498.3,581.8 505,581.8 505,586.2 518.5,580.9 
			518.5,575.4 511.8,575.4 		"/>
		<polygon fill="#64625F" points="505,575.4 498.3,575.4 491.6,575.4 491.6,581.8 498.3,581.8 505,581.8 505,586.2 518.5,580.9 
			518.5,575.4 511.8,575.4 		"/>
		<rect x="390.6" y="530.7" fill="#64625F" width="6.7" height="6.4"/>
		<rect x="390.6" y="530.7" fill="#64625F" width="6.7" height="6.4"/>
		<rect x="390.6" y="575.4" fill="#64625F" width="6.7" height="6.4"/>
		<rect x="390.6" y="575.4" fill="#64625F" width="6.7" height="6.4"/>
	</g>
</g>
	<g id="FRONT_BODY">
<g id="UPPER_BODY">
	<g>
		<g>
			<path fill="#A39D9B" d="M160.5,480.6c1.2,8.6,2.3,18.2,2.3,25.1L373.4,590l200.4-80.3c0-0.3,0-0.6,0-0.8
				c-0.4-5.8,0.4-15.1,1.6-24l-201.9,80.9L160.5,480.6z"/>
		</g>
		<g>
			<path fill="#A39D9B" d="M153.2,429.3c1.4,7.5,2.4,13.1,2.8,15.1c0.1,0.6,0.2,1.2,0.3,1.8c0,0.1,0,0.1,0,0.2
				c0.1,0.6,0.2,1.2,0.2,1.8c0,0.1,0,0.1,0,0.2c0.1,0.6,0.1,1.3,0.2,1.9c0,0,0,0.1,0,0.1c0.1,0.7,0.1,1.4,0.2,2.1c0,0,0,0,0,0
				c0,0.7,0.1,1.4,0.1,2.1c0,0.1,0,0.1,0,0.2c0,0,0,0.1,0,0.1l216.2,86.6l205.4-82.3c0.1-4.7,0.3-10.5,1.2-14.9
				c0.3-1.6,1-5.4,2-10.5l-208.6,83.6L153.2,429.3z"/>
		</g>
		<g>
			<path fill="#A39D9B" d="M163.3,530c0.4,7.3,1,15.8,1.8,24.9l208.3,83.5L571,559.1c0.8-8.9,1.4-17.4,1.9-24.9l-199.5,80L163.3,530
				z"/>
		</g>
		<g>
			<path fill="#A39D9B" d="M143.6,377.2c1.5,8.2,3.2,17.3,4.8,26.1l225,90.1l213.4-85.5c1.6-8.6,3.3-17.6,4.8-26.1l-218.2,87.4
				L143.6,377.2z"/>
		</g>
		<g>
			<path fill="#A39D9B" d="M615.3,277.6c1.6-8.8,2.1-21.7,2.2-28.4c-1.3-0.9-2-1.4-2-1.4s-28.9-9.6-69.6-25.7
				c-25.7-10.1-48.4-25.4-62.9-36.3c-7.2,7.9-37.5,35.2-109.6,35.9c-71.5,0.7-105.9-29.9-115.1-39.6c-14.1,11-39.1,28.7-67.8,40
				c-40.7,16.1-69.6,25.7-69.6,25.7s-0.9,0.7-2.4,1.7c0,0,0,0,0,0c0,0.8,0,1.7,0.1,2.7c0,0.1,0,0.2,0,0.2c0,0.5,0,0.9,0,1.4
				c0,0,0,0.1,0,0.1c0,0.5,0,1,0.1,1.5c0,0.1,0,0.2,0,0.3c0,0.4,0,0.9,0.1,1.3c0,0.1,0,0.3,0,0.4c0,0.5,0.1,1.1,0.1,1.6
				c0,0.1,0,0.1,0,0.2c0,0.5,0.1,1,0.1,1.4c0,0.2,0,0.3,0,0.5c0,0.5,0.1,0.9,0.1,1.4c0,0.1,0,0.2,0,0.3c0,0.6,0.1,1.1,0.1,1.7
				c0,0.2,0,0.3,0,0.5c0,0.4,0.1,0.9,0.1,1.3c0,0.2,0,0.3,0,0.5c0,0.6,0.1,1.1,0.2,1.7c0,0.1,0,0.1,0,0.2c0,0.5,0.1,1,0.2,1.5
				c0,0.2,0,0.3,0.1,0.5c0,0.4,0.1,0.9,0.2,1.3c0,0.1,0,0.3,0,0.4c0.1,0.5,0.1,1.1,0.2,1.6c0,0.1,0,0.3,0.1,0.4
				c0.1,0.4,0.1,0.8,0.2,1.2c0,0.1,0,0.3,0.1,0.4c0.1,0.5,0.2,1,0.3,1.5c2.3,12.5,14.8,58.7,17.7,72.4c0.1,0.3,0.1,0.7,0.2,1.1
				l234.8,94.1l223.1-89.4c0.5-2.4,0.9-4.4,1.1-5.8C600.5,336.2,613,290.1,615.3,277.6z"/>
		</g>
	</g>
	<rect x="296.4" y="501.5" fill="#FFFFFF" width="6.7" height="6.4"/>
</g>
		</g>
<g id="CUSTOM"></g>	
<g id="SHIRT_SLEEVES">
	<g>
		<path fill="#A39D9B" d="M157.2,459C157.2,459,157.2,458.9,157.2,459c0-0.7,0-1.3,0-2c0-0.1,0-0.1,0-0.2c0-0.6,0-1.3-0.1-1.9
			c0-0.1,0-0.1,0-0.2c0-0.7-0.1-1.4-0.1-2.1c0,0,0,0,0,0c0-0.7-0.1-1.4-0.2-2.1c0,0,0-0.1,0-0.1c-0.1-0.6-0.1-1.3-0.2-1.9
			c0-0.1,0-0.1,0-0.2c-0.1-0.6-0.2-1.2-0.2-1.8c0-0.1,0-0.1,0-0.2c-0.1-0.6-0.2-1.2-0.3-1.8c-1.7-8.5-14.8-80.9-17.7-94.6
			s-15.4-59.8-17.7-72.4c-0.1-0.5-0.2-1-0.3-1.5c0-0.1,0-0.3-0.1-0.4c-0.1-0.4-0.1-0.8-0.2-1.2c0-0.1,0-0.3-0.1-0.4
			c-0.1-0.5-0.1-1.1-0.2-1.6c0-0.1,0-0.2,0-0.4c-0.1-0.4-0.1-0.9-0.2-1.3c0-0.2,0-0.3-0.1-0.5c-0.1-0.5-0.1-1-0.2-1.5
			c0-0.1,0-0.1,0-0.2c-0.1-0.6-0.1-1.1-0.2-1.7c0-0.2,0-0.3,0-0.5c0-0.4-0.1-0.9-0.1-1.3c0-0.2,0-0.3,0-0.5c0-0.6-0.1-1.1-0.1-1.7
			c0-0.1,0-0.2,0-0.3c0-0.5-0.1-0.9-0.1-1.4c0-0.2,0-0.3,0-0.5c0-0.5-0.1-1-0.1-1.4c0-0.1,0-0.1,0-0.2c0-0.5-0.1-1.1-0.1-1.6
			c0-0.1,0-0.3,0-0.4c0-0.4,0-0.9-0.1-1.3c0-0.1,0-0.2,0-0.3c0-0.5,0-1-0.1-1.5c0,0,0-0.1,0-0.1c0-0.5,0-0.9,0-1.4
			c0-0.1,0-0.2,0-0.2c0-1-0.1-1.9-0.1-2.7c0,0,0,0,0,0c-3.8,2.6-11.2,7.5-15.8,9c-6.4,2.1-42.8,30-53.5,67.4
			c-10.7,37.5-12.8,129.5-12.8,129.5l-3.2,16.1l-3.2,9.6c0,0,37.5,9.6,69.6,11.8C131.6,495,152,495,152,495s2.1-2.1,1.1-8.6
			c-1.1-6.4-2.1-8.6-1.1-11.8c1-3,4.8-12.5,5.3-13.8l0,0C157.3,460.3,157.3,459.6,157.2,459z"/>
		<path fill="#A39D9B" d="M703.3,471.4l-3.2-16.1c0,0-2.1-92.1-12.8-129.5c-10.7-37.5-47.1-65.3-53.5-67.4
			c-4.8-1.6-12.5-6.7-16.2-9.3c-0.1,6.8-0.6,19.6-2.2,28.4c-2.3,12.5-14.8,58.7-17.7,72.4s-16,86-17.7,94.6
			c-1.1,5.4-1.3,13.2-1.2,18.1c0.2-1.2,0.3-1.9,0.3-1.9s4.3,10.7,5.4,13.9c1.1,3.2,0,5.4-1.1,11.8c-1.1,6.4,1.1,8.6,1.1,8.6
			s20.3,0,52.5-2.1c32.1-2.1,69.6-11.8,69.6-11.8L703.3,471.4z"/>
	</g>
</g>
<g id="SHIRT_COLLAR">
	<path fill="#A39D9B" d="M373.4,221.6c72.1-0.7,102.3-28.1,109.6-35.9c-8.5-6.4-14.3-11.3-16.3-12.9c-5.4-4.3-5.4-7.5-10.7-10.7
		c-5.4-3.2-7.5-12.8-18.2-18.2c-6.8-3.4-37.5-4.6-58.9-5.1l0-0.3c0,0-4.2,0-10.7,0.1c-6.5-0.1-10.7-0.1-10.7-0.1l0,0.3
		c-21.4,0.5-52.1,1.7-58.9,5.1c-10.7,5.4-12.8,15-18.2,18.2c-5.4,3.2-5.4,6.4-10.7,10.7c-1.6,1.3-5.6,4.6-11.4,9.2
		C267.5,191.7,301.9,222.3,373.4,221.6z"/>
</g>
<g id="SHIRT_STITCHING">
	<g>
		<path d="M369.6,216.6l0,1.3l1.1,0v-1.3L369.6,216.6 M372.8,216.6l-1.1,0l0,1.3l1.1,0L372.8,216.6 M367.4,216.5l0,1.3l1.1,0l0-1.3
			L367.4,216.5 M375,216.5l-1.1,0l0,1.3l1.1,0L375,216.5 M365.3,216.5l0,1.3l1.1,0l0-1.3L365.3,216.5 M377.2,216.5l-1.1,0l0,1.3
			l1.1,0L377.2,216.5 M363.1,216.5l0,1.3l1.1,0l0-1.3L363.1,216.5 M379.3,216.4l-1.1,0l0,1.3l1.1,0L379.3,216.4 M360.9,216.4l0,1.3
			l1.1,0l0-1.3L360.9,216.4 M381.5,216.4l-1.1,0l0,1.3l1.1,0L381.5,216.4 M358.8,216.3l-0.1,1.3l1.1,0l0.1-1.3L358.8,216.3
			 M383.7,216.3l-1.1,0l0.1,1.3l1.1,0L383.7,216.3 M385.8,216.2l-1.1,0.1l0.1,1.3l1.1-0.1L385.8,216.2 M356.6,216.2l-0.1,1.3
			l1.1,0.1l0.1-1.3L356.6,216.2 M388,216.1l-1.1,0.1l0.1,1.3l1.1-0.1L388,216.1 M354.4,216.1l-0.1,1.3l1.1,0.1l0.1-1.3L354.4,216.1
			 M390.1,215.9l-1.1,0.1l0.1,1.3l1.1-0.1L390.1,215.9 M352.3,215.9l-0.1,1.3l1.1,0.1l0.1-1.3L352.3,215.9 M392.3,215.8l-1.1,0.1
			l0.1,1.3l1.1-0.1L392.3,215.8 M350.1,215.7L350,217l1.1,0.1l0.1-1.3L350.1,215.7 M394.5,215.6l-1.1,0.1l0.1,1.3l1.1-0.1
			L394.5,215.6 M348,215.5l-0.1,1.3l1.1,0.1l0.1-1.3L348,215.5 M396.6,215.4l-1.1,0.1l0.1,1.3l1.1-0.1L396.6,215.4 M345.8,215.3
			l-0.1,1.3l1.1,0.1l0.1-1.3L345.8,215.3 M398.8,215.2l-1.1,0.1l0.1,1.3l1.1-0.1L398.8,215.2 M343.7,215.1l-0.1,1.3l1.1,0.1l0.1-1.3
			L343.7,215.1 M400.9,215l-1.1,0.1l0.1,1.3l1.1-0.1L400.9,215 M341.5,214.8l-0.2,1.3l1.1,0.1l0.1-1.3L341.5,214.8 M403.1,214.8
			l-1.1,0.1l0.1,1.3l1.1-0.1L403.1,214.8 M339.4,214.6l-0.2,1.3l1.1,0.1l0.2-1.3L339.4,214.6 M405.2,214.5l-1.1,0.1l0.1,1.3l1.1-0.1
			L405.2,214.5 M337.2,214.3l-0.2,1.3l1.1,0.2l0.2-1.3L337.2,214.3 M407.4,214.2l-1.1,0.1l0.2,1.3l1.1-0.1L407.4,214.2 M335.1,213.9
			l-0.2,1.2l1.1,0.2l0.2-1.2L335.1,213.9 M409.5,213.9l-1.1,0.2l0.2,1.3l1.1-0.2L409.5,213.9 M411.7,213.6l-1.1,0.2l0.2,1.2l1.1-0.2
			L411.7,213.6 M333,213.6l-0.2,1.2l1.1,0.2l0.2-1.2L333,213.6 M413.8,213.3l-1.1,0.2l0.2,1.2l1.1-0.2L413.8,213.3 M330.8,213.2
			l-0.2,1.2l1.1,0.2l0.2-1.2L330.8,213.2 M415.9,212.9l-1.1,0.2l0.2,1.2l1.1-0.2L415.9,212.9 M328.7,212.8l-0.2,1.2l1.1,0.2l0.2-1.2
			L328.7,212.8 M418.1,212.5l-1.1,0.2l0.2,1.2l1.1-0.2L418.1,212.5 M326.6,212.4l-0.3,1.2l1.1,0.2l0.2-1.2L326.6,212.4 M420.2,212.1
			l-1.1,0.2l0.2,1.2l1.1-0.2L420.2,212.1 M324.5,212l-0.3,1.2l1.1,0.2l0.3-1.2L324.5,212 M422.3,211.7l-1.1,0.2l0.3,1.2l1.1-0.2
			L422.3,211.7 M322.3,211.5l-0.3,1.2l1.1,0.2l0.3-1.2L322.3,211.5 M424.4,211.2l-1.1,0.2l0.3,1.2l1.1-0.2L424.4,211.2 M320.2,211
			l-0.3,1.2l1.1,0.3l0.3-1.2L320.2,211 M426.5,210.7l-1.1,0.2l0.3,1.2l1.1-0.2L426.5,210.7 M318.1,210.5l-0.3,1.2l1.1,0.3l0.3-1.2
			L318.1,210.5 M428.6,210.2l-1.1,0.3l0.3,1.2l1.1-0.3L428.6,210.2 M316.1,209.9l-0.3,1.2l1.1,0.3l0.3-1.2L316.1,209.9 M430.7,209.7
			l-1,0.3l0.3,1.2l1.1-0.3L430.7,209.7 M314,209.3l-0.4,1.2l1,0.3l0.3-1.2L314,209.3 M432.8,209.1l-1,0.3l0.3,1.2l1.1-0.3
			L432.8,209.1 M311.9,208.7l-0.4,1.2l1,0.3l0.4-1.2L311.9,208.7 M434.9,208.5l-1,0.3l0.3,1.2l1-0.3L434.9,208.5 M309.8,208.1
			l-0.4,1.2l1,0.3l0.4-1.2L309.8,208.1 M436.9,207.9l-1,0.3l0.4,1.2l1-0.3L436.9,207.9 M307.8,207.4l-0.4,1.2l1,0.3l0.4-1.2
			L307.8,207.4 M439,207.2l-1,0.3l0.4,1.2l1-0.3L439,207.2 M305.7,206.7l-0.4,1.2l1,0.4l0.4-1.2L305.7,206.7 M441.1,206.5l-1,0.3
			l0.4,1.2l1-0.3L441.1,206.5 M303.7,206l-0.4,1.2l1,0.4l0.4-1.2L303.7,206 M443.1,205.8l-1,0.4l0.4,1.2l1-0.4L443.1,205.8
			 M301.7,205.2l-0.5,1.2l1,0.4l0.4-1.2L301.7,205.2 M445.1,205.1l-1,0.4l0.4,1.2l1-0.4L445.1,205.1 M299.7,204.4l-0.5,1.2l1,0.4
			l0.5-1.2L299.7,204.4 M447.1,204.3l-1,0.4l0.5,1.2l1-0.4L447.1,204.3 M297.7,203.6l-0.5,1.2l1,0.4l0.5-1.2L297.7,203.6
			 M449.1,203.5l-1,0.4l0.5,1.2l1-0.4L449.1,203.5 M295.7,202.7l-0.5,1.2l1,0.4l0.5-1.2L295.7,202.7 M451.1,202.7l-1,0.4l0.5,1.2
			l1-0.4L451.1,202.7 M293.7,201.8l-0.5,1.1l1,0.5l0.5-1.1L293.7,201.8 M453.1,201.8l-1,0.4l0.5,1.2l1-0.4L453.1,201.8 M291.8,200.9
			l-0.6,1.1l1,0.5l0.5-1.1L291.8,200.9 M455.1,200.9l-1,0.5l0.5,1.1l1-0.5L455.1,200.9 M289.9,199.9l-0.6,1.1l1,0.5l0.6-1.1
			L289.9,199.9 M457,199.9l-1,0.5l0.6,1.1l1-0.5L457,199.9 M287.9,198.9l-0.6,1.1l1,0.5l0.6-1.1L287.9,198.9 M458.9,198.9l-1,0.5
			l0.6,1.1l1-0.5L458.9,198.9 M286.1,197.9l-0.6,1.1l1,0.5l0.6-1.1L286.1,197.9 M460.8,197.9l-0.9,0.5l0.6,1.1l1-0.5L460.8,197.9
			 M284.2,196.8l-0.6,1.1l0.9,0.5l0.6-1.1L284.2,196.8 M462.6,196.8l-0.9,0.5l0.6,1.1l0.9-0.6L462.6,196.8 M282.3,195.7l-0.7,1.1
			l0.9,0.6l0.6-1.1L282.3,195.7 M464.5,195.7l-0.9,0.6l0.7,1.1l0.9-0.6L464.5,195.7 M280.5,194.5l-0.7,1.1l0.9,0.6l0.7-1.1
			L280.5,194.5 M466.3,194.5l-0.9,0.6l0.7,1.1l0.9-0.6L466.3,194.5 M278.7,193.4l-0.7,1l0.9,0.6l0.7-1.1L278.7,193.4 M468.1,193.3
			l-0.9,0.6l0.7,1l0.9-0.6L468.1,193.3 M276.9,192.1l-0.7,1l0.9,0.6l0.7-1L276.9,192.1 M469.8,192l-0.9,0.6l0.7,1
			c0.3-0.2,0.6-0.4,0.9-0.7L469.8,192 M275.2,190.8l-0.8,1l0.9,0.7l0.7-1L275.2,190.8 M471.5,190.7l-0.8,0.7l0.8,1
			c0.3-0.2,0.6-0.5,0.9-0.7L471.5,190.7 M273.5,189.5l-0.8,1c0.3,0.2,0.6,0.4,0.9,0.7l0.8-1C274.1,190,273.8,189.8,273.5,189.5
			 M473.1,189.3c-0.3,0.2-0.5,0.5-0.8,0.7l0.8,1c0.3-0.2,0.6-0.5,0.8-0.7L473.1,189.3 M271.8,188.2l-0.8,1l0.8,0.7l0.8-1
			L271.8,188.2 M474.7,187.9c-0.3,0.2-0.5,0.5-0.8,0.7l0.8,0.9c0.3-0.3,0.6-0.5,0.8-0.7L474.7,187.9 M270.2,186.8l-0.8,0.9l0.8,0.7
			l0.8-1L270.2,186.8 M476.3,186.4c-0.2,0.2-0.5,0.5-0.8,0.8l0.9,0.9c0.3-0.3,0.5-0.5,0.8-0.8L476.3,186.4 M268.6,185.3l-0.9,0.9
			c0.3,0.2,0.5,0.5,0.8,0.7l0.8-0.9C269.1,185.8,268.9,185.6,268.6,185.3 M477.7,184.8c-0.2,0.2-0.4,0.5-0.7,0.8l0.9,0.9
			c0.3-0.3,0.5-0.6,0.7-0.8L477.7,184.8 M267.1,183.8l-0.9,0.9c0.2,0.2,0.5,0.5,0.8,0.8l0.9-0.9
			C267.6,184.3,267.3,184.1,267.1,183.8 M479,183.2c0,0-0.2,0.3-0.6,0.8l1,0.8c0.5-0.6,0.7-0.9,0.7-0.9L479,183.2 M265.6,182.3
			l-0.9,0.9c0.2,0.3,0.5,0.5,0.8,0.8l0.9-0.9C266,182.8,265.8,182.5,265.6,182.3 M264.2,180.7l-1,0.8c0.2,0.3,0.5,0.5,0.7,0.8
			l0.9-0.8C264.6,181.2,264.4,180.9,264.2,180.7 M262.8,179l-1,0.7c0.1,0.1,0.3,0.4,0.7,0.9l1-0.8
			C263.1,179.4,262.9,179.1,262.8,179"/>
		<path d="M151.4,474l0,1.3l0.6,0V474L151.4,474 M149.2,474l0,1.3l1.1,0l0-1.3L149.2,474 M147,473.9l0,1.3l1.1,0l0-1.3L147,473.9
			 M144.9,473.9l0,1.3l1.1,0l0-1.3L144.9,473.9 M142.7,473.8l0.1,1.3l1,0l0-1.3L142.7,473.8 M140.5,473.8l0,1.3l1.1,0l0-1.3
			L140.5,473.8 M138.4,473.7l0,1.3l1.1,0l0.1-1.3L138.4,473.7 M136.2,473.6l-0.1,1.3l1.1,0l0.1-1.3L136.2,473.6 M134,473.5l-0.1,1.3
			l1.1,0l0.1-1.3L134,473.5 M131.9,473.4l-0.1,1.3l1.1,0.1l0.1-1.3L131.9,473.4 M129.7,473.3l-0.1,1.3l1.1,0.1l0.1-1.3L129.7,473.3
			 M127.5,473.2l-0.1,1.3l1.1,0.1l0.1-1.3L127.5,473.2 M125.4,473l-0.1,1.3l1.1,0.1l0.1-1.3L125.4,473 M123.2,472.9l0.1,1.3l0.9,0.1
			l0.1-1.3L123.2,472.9 M121,472.8l0.1,1.3l0.9,0.1l0.1-1.3L121,472.8 M118.9,472.6l-0.1,1.3l1.1,0.1l0.1-1.3L118.9,472.6
			 M116.7,472.5l-0.1,1.3l1.1,0.1l0-0.6l-0.1-0.6L116.7,472.5 M114.6,472.3l-0.1,1.3l1.1,0.1l0-0.6l-0.1-0.6L114.6,472.3
			 M112.4,472.1l-0.1,1.3l1.1,0.1l0-0.6l0-0.6L112.4,472.1 M110.2,472l-0.1,1.3l1.1,0.1l0.1-1.3L110.2,472 M108.1,471.8L108,473
			l1.1,0.1l0.1-1.3L108.1,471.8 M105.9,471.6l-0.1,1.3l1.1,0.1l0.1-1.3L105.9,471.6 M103.8,471.4l0,1.3l1,0.1l0.1-1.3L103.8,471.4
			 M101.6,471.2l-0.1,1.3l1.1,0.1l0.1-1.3L101.6,471.2 M99.4,471l-0.1,1.3l1.1,0.1l0.1-0.6l0-0.6L99.4,471 M97.3,470.8l-0.1,1.3
			l1.1,0.1l0.1-1.3L97.3,470.8 M95.1,470.6l-0.1,1.3l1.1,0.1l0.1-1.3L95.1,470.6 M93,470.3l-0.1,1.3l1.1,0.1l0.1-1.3L93,470.3
			 M90.8,470.1l-0.1,1.3l1.1,0.1l0.1-0.6l0-0.6L90.8,470.1 M88.7,469.8l-0.1,1.3l1.1,0.1l0.1-1.3L88.7,469.8 M86.5,469.6l-0.2,1.3
			l1.1,0.1l0.1-1.3L86.5,469.6 M84.4,469.3l-0.2,1.3l1.1,0.1l0.2-1.3L84.4,469.3 M82.2,469l-0.2,1.3l1.1,0.1l0.2-1.3L82.2,469
			 M80.1,468.7l-0.2,1.3l1.1,0.2l0.2-1.3L80.1,468.7 M77.9,468.4l-0.2,1.2l1.1,0.2l0.2-1.3L77.9,468.4 M75.8,468.1l-0.2,1.2l1.1,0.2
			l0.2-1.2L75.8,468.1 M73.6,467.7l-0.2,1.2l1.1,0.2l0.2-1.2L73.6,467.7 M71.5,467.4l-0.2,1.2l1.1,0.2l0.2-1.2L71.5,467.4 M69.3,467
			l-0.2,1.2l1.1,0.2l0.2-1.2L69.3,467 M67.2,466.7l-0.2,1.2l1.1,0.2l0.2-1.2L67.2,466.7 M65.1,466.3l-0.2,1.2l1.1,0.2l0.2-1.2
			L65.1,466.3 M62.9,465.9l-0.2,1.2l1.1,0.2l0.2-1.2L62.9,465.9 M60.8,465.5l-0.2,1.2l1.1,0.2l0.2-1.2L60.8,465.5 M58.7,465.1
			l-0.2,1.2l1.1,0.2l0.2-1.2L58.7,465.1 M56.6,464.7l-0.3,1.2l1.1,0.2l0.2-1.2L56.6,464.7 M54.4,464.2l-0.3,1.2l1.1,0.2l0.3-1.2
			L54.4,464.2 M52.3,463.8l-0.3,1.2l1.1,0.2l0.3-1.2L52.3,463.8 M50.2,463.4l-0.3,1.2l1.1,0.2l0.1-0.6l0-0.7L50.2,463.4 M48.1,462.9
			l-0.3,1.2l1.1,0.2l0.3-1.2L48.1,462.9 M46,462.4l-0.3,1.2l1.1,0.2l0.3-1.2L46,462.4 M43.8,461.9l-0.3,1.2l1.1,0.2l0.3-1.2
			L43.8,461.9 M41.7,461.4l-0.3,1.2l1.1,0.3l0.3-1.2L41.7,461.4 M39.6,460.9l-0.3,1.2l1.1,0.3l0.3-1.2L39.6,460.9 M37.5,460.4
			l-0.3,1.2l1.1,0.3l0.3-1.2L37.5,460.4 M35.4,459.8l-0.3,1.2l1.1,0.3l0.3-1.2L35.4,459.8"/>
		<path d="M151.4,479.1l0,1.3l0.4,0l0.2,0l0-1.3L151.4,479.1 M149.2,479l0,1.3l1.1,0l0-1.3L149.2,479 M147,479l0,1.3l1.1,0l0-1.3
			L147,479 M144.9,478.9l0,1.3l1.1,0l0-1.3L144.9,478.9 M142.7,478.9l0.1,1.3l1,0l0-1.3L142.7,478.9 M140.5,478.8l0,1.3l1.1,0l0-1.3
			L140.5,478.8 M138.4,478.7l0,1.3l1.1,0l0.1-1.3L138.4,478.7 M136.2,478.6l-0.1,1.3l1.1,0l0.1-1.3L136.2,478.6 M134,478.6l-0.1,1.3
			l1.1,0l0.1-1.3L134,478.6 M131.9,478.4l-0.1,1.3l1.1,0.1l0.1-1.3L131.9,478.4 M129.7,478.3l-0.1,1.3l1.1,0.1l0.1-1.3L129.7,478.3
			 M127.5,478.2l-0.1,1.3l1.1,0.1l0.1-1.3L127.5,478.2 M125.4,478.1l-0.1,1.3l1.1,0.1l0.1-1.3L125.4,478.1 M123.2,478l-0.1,1.3
			l1.1,0.1l0.1-1.3L123.2,478 M121,477.8l0.1,1.3l0.9,0.1l0.1-1.3L121,477.8 M118.9,477.7l-0.1,1.3l1.1,0.1l0.1-1.3L118.9,477.7
			 M116.7,477.5l-0.1,1.3l1.1,0.1l0-0.6l-0.1-0.6L116.7,477.5 M114.6,477.4l-0.1,1.3l1.1,0.1l0-0.6l-0.1-0.6L114.6,477.4
			 M112.4,477.2l-0.1,1.3l1.1,0.1l0-0.6l0-0.6L112.4,477.2 M110.2,477l-0.1,1.3l1.1,0.1l0.1-1.3L110.2,477 M108.1,476.8l-0.1,1.3
			l1.1,0.1l0.1-1.3L108.1,476.8 M105.9,476.7l-0.1,1.3l1.1,0.1l0.1-1.3L105.9,476.7 M103.8,476.5l0,1.3l1,0.1l0.1-1.3L103.8,476.5
			 M101.6,476.3l-0.1,1.3l1.1,0.1l0.1-1.3L101.6,476.3 M99.4,476.1l-0.1,1.3l1.1,0.1l0.1-0.6l0-0.6L99.4,476.1 M97.3,475.8l-0.1,1.3
			l1.1,0.1l0.1-1.3L97.3,475.8 M95.1,475.6l-0.1,1.3l1.1,0.1l0.1-1.3L95.1,475.6 M93,475.4l-0.1,1.3l1.1,0.1l0.1-1.3L93,475.4
			 M90.8,475.2l-0.1,1.3l1.1,0.1l0.1-0.6l0-0.6L90.8,475.2 M88.7,474.9l-0.1,1.3l1.1,0.1l0.1-1.3L88.7,474.9 M86.5,474.6l-0.2,1.3
			l1.1,0.1l0.1-1.3L86.5,474.6 M84.4,474.4l-0.2,1.3l1.1,0.1l0.2-1.3L84.4,474.4 M82.2,474.1l-0.2,1.3l1.1,0.1l0.2-1.3L82.2,474.1
			 M80.1,473.8l-0.2,1.3l1.1,0.2l0.2-1.3L80.1,473.8 M77.9,473.5l-0.2,1.2l1.1,0.2l0.2-1.3L77.9,473.5 M75.8,473.1l-0.2,1.2l1.1,0.2
			l0.2-1.2L75.8,473.1 M73.6,472.8l-0.2,1.2l1.1,0.2l0.2-1.2L73.6,472.8 M71.5,472.5l-0.2,1.2l1.1,0.2l0.2-1.2L71.5,472.5
			 M69.3,472.1l-0.2,1.2l1.1,0.2l0.2-1.2L69.3,472.1 M67.2,471.7L67,473l1.1,0.2l0.2-1.2L67.2,471.7 M65.1,471.4l-0.2,1.2l1.1,0.2
			l0.2-1.2L65.1,471.4 M62.9,471l-0.2,1.2l1.1,0.2l0.2-1.2L62.9,471 M60.8,470.6l-0.2,1.2l1.1,0.2l0.2-1.2L60.8,470.6 M58.7,470.2
			l-0.2,1.2l1.1,0.2l0.2-1.2L58.7,470.2 M56.6,469.7l-0.3,1.2l1.1,0.2l0.2-1.2L56.6,469.7 M54.4,469.3l-0.3,1.2l1.1,0.2l0.3-1.2
			L54.4,469.3 M52.3,468.9l-0.3,1.2l1.1,0.2l0.3-1.2L52.3,468.9 M50.2,468.4l-0.3,1.2l1.1,0.2l0.1-0.6l0-0.7L50.2,468.4 M48.1,467.9
			l-0.3,1.2l1.1,0.2l0.3-1.2L48.1,467.9 M46,467.5l-0.3,1.2l1.1,0.2l0.3-1.2L46,467.5 M43.8,467l-0.3,1.2l1.1,0.2l0.3-1.2L43.8,467
			 M41.7,466.5l-0.3,1.2l1.1,0.3l0.3-1.2L41.7,466.5 M39.6,466l-0.3,1.2l1.1,0.3l0.3-1.2L39.6,466 M37.5,465.4l-0.3,1.2l1.1,0.3
			l0.3-1.2L37.5,465.4 M35.4,464.9l-0.3,1.2l1.1,0.3l0.3-1.2L35.4,464.9"/>
		<path d="M585.8,474l-0.6,0v1.3l0.6,0L585.8,474 M587.9,474l-1.1,0l0,1.3l1.1,0L587.9,474 M590.1,473.9l-1.1,0l0,1.3l1.1,0
			L590.1,473.9 M592.3,473.9l-1.1,0l0,1.3l1.1,0L592.3,473.9 M594.3,473.8l-0.9,0l0,1.3l1,0l0.1-0.6L594.3,473.8 M596.6,473.8
			l-1.1,0l0,1.3l1.1,0L596.6,473.8 M598.8,473.7l-1.1,0l0.1,1.3l1.1,0L598.8,473.7 M600.9,473.6l-1.1,0l0.1,1.3l1.1,0L600.9,473.6
			 M603.1,473.5l-1.1,0l0.1,1.3l1.1,0L603.1,473.5 M605.3,473.4l-1.1,0.1l0.1,1.3l1.1-0.1L605.3,473.4 M607.4,473.3l-1.1,0.1
			l0.1,1.3l1.1-0.1L607.4,473.3 M609.6,473.2l-1.1,0.1l0.1,1.3l1.1-0.1L609.6,473.2 M611.8,473l-1.1,0.1l0.1,1.3l1.1-0.1L611.8,473
			 M613.8,472.9l-0.9,0.1l0.1,1.3l0.9-0.1l0.1-0.6L613.8,472.9 M616,472.8l-0.9,0.1l0.1,1.3l0.9-0.1l0.1-0.6L616,472.8 M618.3,472.6
			l-1.1,0.1l0.1,1.3l1.1-0.1L618.3,472.6 M620.4,472.5l-1.1,0.1l0.2,1.3l0.9-0.1L620.4,472.5 M622.6,472.3l-1.1,0.1l0.2,1.2l0.9-0.1
			L622.6,472.3 M624.8,472.1l-1.1,0.1l0.2,1.3l1-0.1L624.8,472.1 M626.9,472l-1.1,0.1l0.1,1.3l1.1-0.1L626.9,472 M629.1,471.8
			l-1.1,0.1l0.1,1.3l1.1-0.1L629.1,471.8 M631.2,471.6l-1.1,0.1l0.1,1.3l1.1-0.1L631.2,471.6 M633.3,471.4l-1,0.1l0.1,1.3l1-0.1
			l0-0.6L633.3,471.4 M635.6,471.2l-1.1,0.1l0.1,1.3l1.1-0.1L635.6,471.2 M637.7,471l-1.1,0.1l0.2,1.2l1-0.1L637.7,471 M639.9,470.8
			l-1.1,0.1l0.1,1.3l1.1-0.1L639.9,470.8 M642,470.6l-1.1,0.1l0.1,1.3l1.1-0.1L642,470.6 M644.2,470.3l-1.1,0.1l0.1,1.3l1.1-0.1
			L644.2,470.3 M646.3,470.1l-1.1,0.1l0.2,1.2l1-0.1L646.3,470.1 M648.5,469.8l-1.1,0.1l0.1,1.3l1.1-0.1L648.5,469.8 M650.6,469.6
			l-1.1,0.1l0.1,1.3l1.1-0.1L650.6,469.6 M652.8,469.3l-1.1,0.1l0.2,1.3l1.1-0.1L652.8,469.3 M654.9,469l-1.1,0.1l0.2,1.3l1.1-0.1
			L654.9,469 M657.1,468.7l-1.1,0.2l0.2,1.3l1.1-0.2L657.1,468.7 M659.2,468.4l-1.1,0.2l0.2,1.3l1.1-0.2L659.2,468.4 M661.4,468.1
			l-1.1,0.2l0.2,1.2l1.1-0.2L661.4,468.1 M663.5,467.7l-1.1,0.2l0.2,1.2l1.1-0.2L663.5,467.7 M665.7,467.4l-1.1,0.2l0.2,1.2l1.1-0.2
			L665.7,467.4 M667.8,467l-1.1,0.2l0.2,1.2l1.1-0.2L667.8,467 M669.9,466.7l-1.1,0.2l0.2,1.2l1.1-0.2L669.9,466.7 M672.1,466.3
			l-1.1,0.2l0.2,1.2l1.1-0.2L672.1,466.3 M674.2,465.9l-1.1,0.2l0.2,1.2l1.1-0.2L674.2,465.9 M676.3,465.5l-1.1,0.2l0.2,1.2l1.1-0.2
			L676.3,465.5 M678.5,465.1l-1.1,0.2l0.2,1.2l1.1-0.2L678.5,465.1 M680.6,464.7l-1.1,0.2l0.2,1.2l1.1-0.2L680.6,464.7 M682.7,464.2
			l-1.1,0.2l0.3,1.2l1.1-0.2L682.7,464.2 M684.8,463.8l-1.1,0.2l0.3,1.2l1.1-0.2L684.8,463.8 M687,463.4l-1.1,0.2l0.4,1.2l0.9-0.2
			L687,463.4 M689.1,462.9l-1.1,0.2l0.3,1.2l1.1-0.2L689.1,462.9 M691.2,462.4l-1.1,0.2l0.3,1.2l1.1-0.2L691.2,462.4 M693.3,461.9
			l-1.1,0.2l0.3,1.2l1.1-0.2L693.3,461.9 M695.4,461.4l-1.1,0.3l0.3,1.2l1.1-0.3L695.4,461.4 M697.5,460.9l-1.1,0.3l0.3,1.2l1.1-0.3
			L697.5,460.9 M699.6,460.4l-1,0.3l0.3,1.2l1.1-0.3L699.6,460.4 M701.7,459.8l-1,0.3l0.3,1.2l1.1-0.3L701.7,459.8"/>
		<path d="M585.8,479.1l-0.6,0l0,1.3l0.2,0l0.4,0L585.8,479.1 M587.9,479l-1.1,0l0,1.3l1.1,0L587.9,479 M590.1,479l-1.1,0l0,1.3
			l1.1,0L590.1,479 M592.3,478.9l-1.1,0l0,1.3l1.1,0L592.3,478.9 M594.3,478.9l-0.9,0l0,1.3l1,0l0.1-0.6L594.3,478.9 M596.6,478.8
			l-1.1,0l0,1.3l1.1,0L596.6,478.8 M598.8,478.7l-1.1,0l0.1,1.3l1.1,0L598.8,478.7 M600.9,478.6l-1.1,0l0.1,1.3l1.1,0L600.9,478.6
			 M603.1,478.6l-1.1,0l0.1,1.3l1.1,0L603.1,478.6 M605.3,478.4l-1.1,0.1l0.1,1.3l1.1-0.1L605.3,478.4 M607.4,478.3l-1.1,0.1
			l0.1,1.3l1.1-0.1L607.4,478.3 M609.6,478.2l-1.1,0.1l0.1,1.3l1.1-0.1L609.6,478.2 M611.8,478.1l-1.1,0.1l0.1,1.3l1.1-0.1
			L611.8,478.1 M613.9,478l-1.1,0.1l0.1,1.3l1.1-0.1L613.9,478 M615.9,477.8l-0.9,0.1l0.1,1.3l0.9-0.1l0.1-0.6L615.9,477.8
			 M618.3,477.7l-1.1,0.1l0.1,1.3l1.1-0.1L618.3,477.7 M620.4,477.5l-1.1,0.1l0.2,1.3l0.9-0.1L620.4,477.5 M622.6,477.4l-1.1,0.1
			l0.2,1.2l0.9-0.1L622.6,477.4 M624.8,477.2l-1.1,0.1l0.2,1.3l1-0.1L624.8,477.2 M626.9,477l-1.1,0.1l0.1,1.3l1.1-0.1L626.9,477
			 M629.1,476.8l-1.1,0.1l0.1,1.3l1.1-0.1L629.1,476.8 M631.2,476.7l-1.1,0.1l0.1,1.3l1.1-0.1L631.2,476.7 M633.3,476.5l-1,0.1
			l0.1,1.3l1-0.1l0-0.6L633.3,476.5 M635.6,476.3l-1.1,0.1l0.1,1.3l1.1-0.1L635.6,476.3 M637.7,476.1l-1.1,0.1l0.2,1.2l1-0.1
			L637.7,476.1 M639.9,475.8l-1.1,0.1l0.1,1.3l1.1-0.1L639.9,475.8 M642,475.6l-1.1,0.1l0.1,1.3l1.1-0.1L642,475.6 M644.2,475.4
			l-1.1,0.1l0.1,1.3l1.1-0.1L644.2,475.4 M646.3,475.2l-1.1,0.1l0.2,1.2l1-0.1L646.3,475.2 M648.5,474.9l-1.1,0.1l0.1,1.3l1.1-0.1
			L648.5,474.9 M650.6,474.6l-1.1,0.1l0.1,1.3l1.1-0.1L650.6,474.6 M652.8,474.4l-1.1,0.1l0.2,1.3l1.1-0.1L652.8,474.4 M654.9,474.1
			l-1.1,0.1l0.2,1.3l1.1-0.1L654.9,474.1 M657.1,473.8l-1.1,0.2l0.2,1.3l1.1-0.2L657.1,473.8 M659.2,473.5l-1.1,0.2l0.2,1.3l1.1-0.2
			L659.2,473.5 M661.4,473.1l-1.1,0.2l0.2,1.2l1.1-0.2L661.4,473.1 M663.5,472.8l-1.1,0.2l0.2,1.2l1.1-0.2L663.5,472.8 M665.7,472.5
			l-1.1,0.2l0.2,1.2l1.1-0.2L665.7,472.5 M667.8,472.1l-1.1,0.2l0.2,1.2l1.1-0.2L667.8,472.1 M669.9,471.7l-1.1,0.2l0.2,1.2l1.1-0.2
			L669.9,471.7 M672.1,471.4l-1.1,0.2l0.2,1.2l1.1-0.2L672.1,471.4 M674.2,471l-1.1,0.2l0.2,1.2l1.1-0.2L674.2,471 M676.3,470.6
			l-1.1,0.2l0.2,1.2l1.1-0.2L676.3,470.6 M678.5,470.2l-1.1,0.2l0.2,1.2l1.1-0.2L678.5,470.2 M680.6,469.7l-1.1,0.2l0.2,1.2l1.1-0.2
			L680.6,469.7 M682.7,469.3l-1.1,0.2l0.3,1.2l1.1-0.2L682.7,469.3 M684.8,468.9l-1.1,0.2l0.3,1.2l1.1-0.2L684.8,468.9 M687,468.4
			l-1.1,0.2l0.4,1.2l0.9-0.2L687,468.4 M689.1,467.9l-1.1,0.2l0.3,1.2l1.1-0.2L689.1,467.9 M691.2,467.5l-1.1,0.2l0.3,1.2l1.1-0.2
			L691.2,467.5 M693.3,467l-1.1,0.2l0.3,1.2l1.1-0.2L693.3,467 M695.4,466.5l-1.1,0.3l0.3,1.2l1.1-0.3L695.4,466.5 M697.5,466
			l-1.1,0.3l0.3,1.2l1.1-0.3L697.5,466 M699.6,465.4l-1,0.3l0.3,1.2l1.1-0.3L699.6,465.4 M701.7,464.9l-1,0.3l0.3,1.2l1.1-0.3
			L701.7,464.9"/>
		<path d="M618.2,249.1l-1.3,0c0,0.2,0,16-2.2,28.3c-1.2,6.8-5.5,23.5-9.6,39.7c-3.5,13.6-6.7,26.4-8,32.6
			c-1.7,8.3-7.3,38.5-11.8,62.7c-2.8,15.3-5.2,28.5-5.9,31.8c-1.7,8.5-1.2,22.8-1.2,22.9l1.3-0.1c0-0.1-0.5-14.3,1.1-22.6
			c0.7-3.3,3.1-16.5,5.9-31.8c4.5-24.2,10-54.4,11.7-62.7c1.3-6.2,4.6-19,8-32.6c4.1-16.2,8.4-33,9.7-39.8
			C618.2,265.2,618.2,249.3,618.2,249.1"/>
		<path d="M117.9,249.4c0,0.2,0,15.8,2.2,28.3c1.2,6.9,5.5,23.6,9.6,39.8c3.5,13.6,6.7,26.4,8,32.6c1.7,8.3,7.3,38.4,11.7,62.6
			c2.8,15.3,5.3,28.6,5.9,31.9c1.7,8.4,1.1,22.5,1.1,22.6l1.3,0.1c0-0.1,0.6-14.4-1.2-22.9c-0.7-3.3-3.1-16.6-5.9-31.9
			c-4.5-24.2-10-54.3-11.7-62.7c-1.3-6.2-4.6-19-8-32.6c-4.1-16.2-8.4-32.9-9.6-39.7c-2.2-12.3-2.2-27.9-2.2-28L117.9,249.4"/>
		<path d="M369.2,221l0,1.3l1.1,0l0-1.3L369.2,221 M372.4,221l-1.1,0l0,1.3l1.1,0L372.4,221 M367,221l0,1.3l1.1,0l0-1.3L367,221
			 M374.6,221l-1.1,0l0,1.3l1.1,0L374.6,221 M376.8,220.9l-1.1,0l0,1.3l1.1,0L376.8,220.9 M364.9,220.9l0,1.3l1.1,0l0-1.3
			L364.9,220.9 M378.9,220.9l-1.1,0l0,1.3l1.1,0L378.9,220.9 M362.7,220.9l0,1.3l1.1,0l0-1.3L362.7,220.9 M381.1,220.8l-1.1,0l0,1.3
			l1.1,0L381.1,220.8 M360.5,220.8l-0.1,1.3l1.1,0l0-1.3L360.5,220.8 M383.3,220.7l-1.1,0l0,1.3l1.1,0L383.3,220.7 M358.4,220.7
			l-0.1,1.3l1.1,0.1l0.1-1.3L358.4,220.7 M385.4,220.6l-1.1,0.1l0.1,1.3l1.1-0.1L385.4,220.6 M356.2,220.6l-0.1,1.3l1.1,0.1l0.1-1.3
			L356.2,220.6 M387.6,220.5l-1.1,0.1l0.1,1.3l1.1-0.1L387.6,220.5 M354.1,220.4l-0.1,1.3l1.1,0.1l0.1-1.3L354.1,220.4 M389.7,220.4
			l-1.1,0.1l0.1,1.3l1.1-0.1L389.7,220.4 M351.9,220.3l-0.1,1.3l1.1,0.1l0.1-1.3L351.9,220.3 M391.9,220.2l-1.1,0.1l0.1,1.3l1.1-0.1
			L391.9,220.2 M349.7,220.1l-0.1,1.3l1.1,0.1l0.1-1.3L349.7,220.1 M394.1,220l-1.1,0.1l0.1,1.3l1.1-0.1L394.1,220 M347.6,219.9
			l-0.1,1.3l1.1,0.1l0.1-1.3L347.6,219.9 M396.2,219.8l-1.1,0.1l0.1,1.3l1.1-0.1L396.2,219.8 M345.4,219.7l-0.1,1.3l1.1,0.1l0.1-1.3
			L345.4,219.7 M398.4,219.6l-1.1,0.1l0.1,1.3l1.1-0.1L398.4,219.6 M343.3,219.4l-0.1,1.3l1.1,0.1l0.1-1.3L343.3,219.4 M400.5,219.4
			l-1.1,0.1l0.1,1.3l1.1-0.1L400.5,219.4 M341.1,219.2l-0.2,1.3l1.1,0.1l0.2-1.3L341.1,219.2 M402.7,219.1l-1.1,0.1l0.1,1.3l1.1-0.1
			L402.7,219.1 M404.8,218.9l-1.1,0.1l0.2,1.3l1.1-0.1L404.8,218.9 M339,218.9l-0.2,1.3l1.1,0.1l0.2-1.3L339,218.9 M407,218.6
			l-1.1,0.1l0.2,1.3l1.1-0.1L407,218.6 M336.8,218.6l-0.2,1.2l1.1,0.2l0.2-1.3L336.8,218.6 M409.1,218.3l-1.1,0.2l0.2,1.3l1.1-0.2
			L409.1,218.3 M334.7,218.2l-0.2,1.2l1.1,0.2l0.2-1.2L334.7,218.2 M411.3,217.9l-1.1,0.2l0.2,1.2l1.1-0.2L411.3,217.9 M332.6,217.9
			l-0.2,1.2l1.1,0.2l0.2-1.2L332.6,217.9 M413.4,217.6l-1.1,0.2l0.2,1.2l1.1-0.2L413.4,217.6 M330.4,217.5l-0.2,1.2l1.1,0.2l0.2-1.2
			L330.4,217.5 M415.5,217.2l-1.1,0.2l0.2,1.2l1.1-0.2L415.5,217.2 M328.3,217.1l-0.2,1.2l1.1,0.2l0.2-1.2L328.3,217.1 M417.6,216.8
			l-1.1,0.2l0.2,1.2l1.1-0.2L417.6,216.8 M326.2,216.6l-0.3,1.2l1.1,0.2l0.3-1.2L326.2,216.6 M419.8,216.4l-1.1,0.2l0.2,1.2l1.1-0.2
			L419.8,216.4 M324.1,216.2l-0.3,1.2l1.1,0.2l0.3-1.2L324.1,216.2 M421.9,215.9l-1.1,0.2l0.3,1.2l1.1-0.2L421.9,215.9 M322,215.7
			l-0.3,1.2l1.1,0.2l0.3-1.2L322,215.7 M424,215.5l-1.1,0.2l0.3,1.2l1.1-0.2L424,215.5 M319.9,215.2l-0.3,1.2l1.1,0.3l0.3-1.2
			L319.9,215.2 M426.1,215l-1,0.2l0.3,1.2l1.1-0.3L426.1,215 M317.8,214.6l-0.3,1.2l1.1,0.3l0.3-1.2L317.8,214.6 M428.2,214.5
			l-1,0.3l0.3,1.2l1.1-0.3L428.2,214.5 M315.7,214.1l-0.3,1.2l1.1,0.3l0.3-1.2L315.7,214.1 M430.3,213.9l-1,0.3l0.3,1.2l1.1-0.3
			L430.3,213.9 M313.6,213.5l-0.4,1.2l1,0.3l0.3-1.2L313.6,213.5 M432.4,213.4l-1,0.3l0.3,1.2l1-0.3L432.4,213.4 M311.6,212.9
			l-0.4,1.2l1,0.3l0.4-1.2L311.6,212.9 M434.5,212.8l-1,0.3l0.4,1.2l1-0.3L434.5,212.8 M309.5,212.2l-0.4,1.2l1,0.3l0.4-1.2
			L309.5,212.2 M436.5,212.1l-1,0.3l0.4,1.2l1-0.3L436.5,212.1 M307.4,211.5l-0.4,1.2l1,0.3l0.4-1.2L307.4,211.5 M438.6,211.5
			l-1,0.3l0.4,1.2l1-0.3L438.6,211.5 M305.4,210.8L305,212l1,0.4l0.4-1.2L305.4,210.8 M440.6,210.8l-1,0.3l0.4,1.2l1-0.3
			L440.6,210.8 M303.4,210.1l-0.4,1.2l1,0.4l0.4-1.2L303.4,210.1 M442.7,210.1l-1,0.4l0.4,1.2l1-0.4L442.7,210.1 M444.7,209.3
			l-1,0.4l0.4,1.2l1-0.4L444.7,209.3 M301.3,209.3l-0.5,1.2l1,0.4l0.4-1.2L301.3,209.3 M446.7,208.6l-1,0.4l0.5,1.2l1-0.4
			L446.7,208.6 M299.3,208.5l-0.5,1.2l1,0.4l0.5-1.2L299.3,208.5 M448.7,207.8l-1,0.4l0.5,1.2l1-0.4L448.7,207.8 M297.3,207.7
			l-0.5,1.2l1,0.4l0.5-1.2L297.3,207.7 M450.7,206.9l-1,0.4l0.5,1.2l1-0.4L450.7,206.9 M295.4,206.8l-0.5,1.2l1,0.4l0.5-1.2
			L295.4,206.8 M452.7,206.1l-1,0.4l0.5,1.2l1-0.4L452.7,206.1 M293.4,205.9l-0.5,1.1l1,0.5l0.5-1.1L293.4,205.9 M454.7,205.2
			l-1,0.5l0.5,1.1l1-0.5L454.7,205.2 M291.4,205l-0.6,1.1l1,0.5l0.5-1.1L291.4,205 M456.6,204.2l-1,0.5l0.6,1.1l1-0.5L456.6,204.2
			 M289.5,204.1l-0.6,1.1l1,0.5l0.6-1.1L289.5,204.1 M458.5,203.3l-1,0.5l0.6,1.1l1-0.5L458.5,203.3 M287.6,203.1l-0.6,1.1l1,0.5
			l0.6-1.1L287.6,203.1 M460.4,202.3l-1,0.5l0.6,1.1l1-0.5L460.4,202.3 M285.7,202.1l-0.6,1.1l1,0.5l0.6-1.1L285.7,202.1
			 M462.3,201.2l-0.9,0.5l0.6,1.1l1-0.5L462.3,201.2 M283.8,201l-0.6,1.1l1,0.5l0.6-1.1L283.8,201 M464.2,200.1l-0.9,0.5l0.6,1.1
			l0.9-0.5L464.2,200.1 M281.9,199.9l-0.6,1.1l0.9,0.6l0.6-1.1L281.9,199.9 M466,199l-0.9,0.6l0.7,1.1l0.9-0.6L466,199 M280.1,198.8
			l-0.7,1.1l0.9,0.6l0.7-1.1L280.1,198.8 M467.9,197.9l-0.9,0.6l0.7,1.1l0.9-0.6L467.9,197.9 M278.3,197.6l-0.7,1.1l0.9,0.6l0.7-1.1
			L278.3,197.6 M469.7,196.6l-0.9,0.6l0.7,1l0.9-0.6L469.7,196.6 M276.5,196.4l-0.7,1l0.9,0.6l0.7-1.1L276.5,196.4 M471.4,195.4
			l-0.9,0.6l0.7,1l0.9-0.6L471.4,195.4 M274.7,195.2l-0.7,1l0.9,0.6l0.7-1L274.7,195.2 M473.1,194.1l-0.9,0.7l0.8,1l0.9-0.7
			L473.1,194.1 M273,193.9l-0.8,1l0.9,0.6l0.7-1L273,193.9 M474.8,192.8c-0.3,0.2-0.6,0.4-0.8,0.7l0.8,1c0.3-0.2,0.6-0.5,0.9-0.7
			L474.8,192.8 M271.2,192.6l-0.8,1l0.9,0.7l0.8-1L271.2,192.6 M476.5,191.4c-0.3,0.2-0.5,0.5-0.8,0.7l0.8,1
			c0.3-0.2,0.6-0.5,0.8-0.7L476.5,191.4 M269.6,191.3l-0.8,1l0.8,0.7l0.8-1L269.6,191.3 M478.1,190c-0.3,0.2-0.5,0.5-0.8,0.7
			l0.8,0.9c0.3-0.3,0.6-0.5,0.8-0.7L478.1,190 M267.9,189.9l-0.8,1c0.3,0.2,0.5,0.5,0.8,0.7l0.8-1
			C268.5,190.3,268.2,190.1,267.9,189.9 M479.6,188.5c-0.2,0.2-0.5,0.5-0.8,0.8l0.9,0.9c0.3-0.3,0.5-0.5,0.8-0.8L479.6,188.5
			 M266.3,188.5l-0.9,0.9c0.3,0.2,0.5,0.5,0.8,0.7l0.8-0.9L266.3,188.5 M264.7,187l-0.9,0.9c0.3,0.2,0.5,0.5,0.8,0.8l0.9-0.9
			C265.2,187.5,265,187.2,264.7,187 M481.1,186.9c-0.2,0.2-0.5,0.5-0.7,0.8l0.9,0.9c0.3-0.3,0.5-0.6,0.7-0.8L481.1,186.9
			 M263.2,185.5l-0.9,0.9c0.2,0.3,0.5,0.5,0.8,0.8l0.9-0.9C263.7,186,263.4,185.7,263.2,185.5 M482.4,185.3c0,0-0.2,0.3-0.7,0.8
			l1,0.8c0.5-0.6,0.7-0.9,0.7-0.9L482.4,185.3 M261.7,183.9l-0.9,0.8c0.2,0.3,0.5,0.5,0.7,0.8l0.9-0.9
			C262.2,184.4,262,184.1,261.7,183.9 M260.4,182.3l-1,0.8c0.2,0.2,0.4,0.5,0.7,0.9l1-0.8C260.8,182.8,260.5,182.5,260.4,182.3"/>
	</g>
</g>
<g id="CK_LOGO">
	<g id="FILL_1_">
		<g>
			<g>
				<g>
					<g>
						<path d="M235.7,290.6l-0.5,0l-25.9-0.2c-7.8,0-14.1-6.4-14-14.2c0-7.7,6.1-13.8,13.8-14l0.5,0l25.9,0.2
							c7.8,0,14.1,6.4,14,14.2C249.5,284.3,243.4,290.4,235.7,290.6z M209.1,263.7c-6.8,0.2-12.2,5.7-12.3,12.5
							c0,7,5.6,12.6,12.5,12.7l26.3,0.2c6.8-0.2,12.2-5.7,12.3-12.5c0-7-5.6-12.6-12.5-12.7L209.1,263.7z"/>
					</g>
					<g>
						<path d="M200.2,276.2c0-5.2,4.1-9.4,9.1-9.7l-0.1,19.5C204.2,285.6,200.2,281.4,200.2,276.2z"/>
						<polygon fill-rule="evenodd" clip-rule="evenodd" points="219.4,275.1 211,266.5 219.4,266.6 						"/>
						<polygon fill-rule="evenodd" clip-rule="evenodd" points="219.4,277.6 210.8,286.1 219.3,286.1 						"/>
					</g>
					<g>
						<polygon fill-rule="evenodd" clip-rule="evenodd" points="230,275.2 238.6,266.7 230.1,266.7 						"/>
						<polygon fill-rule="evenodd" clip-rule="evenodd" points="230,277.7 238.4,286.2 229.9,286.2 						"/>
						<g>
							<rect x="214.9" y="272.9" transform="matrix(5.892445e-03 -1 1 5.892445e-03 -53.0145 499.4528)" width="19.5" height="7"/>
							<path d="M224.7,276.4"/>
						</g>
					</g>
				</g>
			</g>
		</g>
	</g>
</g>
<g id="SHADING">
	<path d="M157.2,458.9C157.2,458.9,157.2,459,157.2,458.9C157.2,459,157.2,458.9,157.2,458.9z"/>
	<polygon points="157.3,460.9 157.3,460.9 157.3,460.9 	"/>
	<path fill="#FFFFFF" d="M373.4,186.9c44.2,0.4,77.9-22.3,77.5-26.1c-0.4-3.8-7.7-10.8-12.3-14.2c-4.6-3.4-26.7-5.6-70.9-5.4
		c-44.7,0.2-59.9,2-66,3.4c-6.1,1.5-16.2,12.6-14.9,15.2C288.1,162.3,329.5,186.5,373.4,186.9z"/>
	<path opacity="0.5" d="M373.4,186.9c44.2,0.4,77.9-22.3,77.5-26.1c-0.4-3.8-7.7-10.8-12.3-14.2c-4.6-3.4-26.7-5.6-70.9-5.4
		c-44.7,0.2-59.9,2-66,3.4c-6.1,1.5-16.2,12.6-14.9,15.2C288.1,162.3,329.5,186.5,373.4,186.9z"/>
	<g opacity="0.5">
		<path opacity="0.1" fill="#A39D9B" d="M560.5,808.3c0.8-1.6,1.8-3.1,2.6-4.3c-2.9-17.7-5.7-33.5-7.5-43.5
			c-5.4-28.9,1.1-97.4,6.4-124.2c5.4-26.8,12.8-113.5,11.8-127.4c-0.9-12,3.7-39,5-46.3c0-4.9,0.1-12.7,1.2-18.1
			c1.7-8.5,14.8-80.9,17.7-94.6s15.4-59.8,17.7-72.4c1.6-8.8,2.1-21.7,2.2-28.4c-1.3-0.9-2-1.4-2-1.4s-28.9-9.6-69.6-25.7
			c-40.7-16.1-73.9-45-79.2-49.2c-5.4-4.3-5.4-7.5-10.7-10.7c-3.5-2.1-5.7-7.1-9.8-11.7l-2.2,0.8c3.5,3.3,6.7,7.2,6.9,9.7
			c0.2,2-9.1,9.3-24.4,15.7c1.2,2.6,2.1,5,2.3,6.9c0.6,7.2,0,6.6,0,17.1c0,10.5,3.9,21,10.5,36.4c6.6,15.5,13.8,7.2,18.8,29.3
			c5,22.1-24.8,18.2-24.8,18.2s27.1,3.9,56.9,2.2c29.8-1.7,23.2,0,44.2-2.2c21-2.2,21-5.5,53,3.3c32,8.8,7.7,28.7,5.5,51.4
			c-2.2,22.6-34.2,19.3-43.6,31.5c-9.4,12.1-3.3,106.6-2.2,117.1c1.1,10.5-21.5,28.7-21.5,28.7s-6.1,17.7-9.9,30.9
			c-3.9,13.3,6.1,40.9,5.5,70.7c-0.6,29.8-27.6,69-37,90.6c-9.4,21.5-2.2,42.5,13.3,89.5c15.5,46.9,6.1,6.1,17.7,20.4
			c1.7,2.1,3.1,3.8,4.1,5.2c22.1-3.2,30.7-7.1,33.7-8.7C552.8,814.9,559.1,811.2,560.5,808.3z"/>
		<path opacity="0.1" fill="#A39D9B" d="M291.3,811.2c0,0,7.2-9.9,6.1-23.7c-1.1-13.8-44.7-74.5-53-88.4
			c-8.3-13.8,4.4-12.1,4.4-12.1s-12.1-5.5-17.1-32.6c-5-27.1,8.3-60.2,20.4-88.9c12.1-28.7,47.5-58.5,47.5-58.5s-38.1,6.1-74.5-10.5
			c-36.4-16.6-38.7-44.7-43.6-131.4c-5-86.7,3.3-103.8,23.2-104.9c19.9-1.1,90,22.1,100.5,26.5c0,0,6.6-13.8,4.4-22.1
			c-2.2-8.3,4.4-21.5,12.1-35.9c7.7-14.4,7.7-7.7,10.5-9.9c2.8-2.2,0.6-14.9-1.1-18.8c-1.7-3.9-0.6-5,2.8-13.8
			c0.6-1.6-0.7-3.8-3.3-6.2c-24.7-7.5-42.8-18.4-43.6-20.1c-0.4-0.8,0.4-2.5,1.8-4.5c-0.6-0.3-1.1-0.5-1.7-0.8
			c-2.3,3.2-4.1,6.1-6.6,7.6c-5.4,3.2-5.4,6.4-10.7,10.7c-5.4,4.3-38.5,33.2-79.2,49.2s-69.6,25.7-69.6,25.7s-0.9,0.7-2.4,1.7
			c0.1,6.8,0.6,19.4,2.2,28.2c2.3,12.5,14.8,58.7,17.7,72.4s16,86,17.7,94.6c1,4.8,1.2,11.5,1.2,16.4c0-0.1,0.1-0.1,0.1-0.1
			s6.4,34.3,5.4,48.2c-1.1,13.9,6.4,100.6,11.8,127.4c5.4,26.8,11.8,95.3,6.4,124.2c-1.8,9.8-4.5,25.1-7.4,42.4
			c5.4,2.8,18.9,9.5,35.7,14.9C229.4,795.1,291.3,811.2,291.3,811.2z"/>
		<path opacity="0.12" fill="#A39D9B" d="M131.1,410.3c-2.8-4.4-66.8-90.6-66.8-90.6s1.1,8.3,5.5,17.7c4.4,9.4,49.1,65.7,49.1,65.7
			s-40.3-44.2-42.5-46.9C74.3,353.4,56,339,56,341.2c0,2.2,13.8,17.1,24.8,27.6c11,10.5,33.7,33.1,44.2,49.1
			c10.5,16,29.8,43.6,29.8,43.6s-3.9-16-6.6-22.6C145.5,432.3,133.9,414.7,131.1,410.3z"/>
		<path opacity="0.12" fill="#A39D9B" d="M87.5,333.5c-3.9-5.5-18.8-27.1-18.8-27.1s6.1,22.6,18.2,34.2
			c12.1,11.6,24.8,15.5,24.8,15.5S91.4,339,87.5,333.5z"/>
		<path opacity="0.12" fill="#A39D9B" d="M685,336.3c0,0-7.2,14.4-13.3,25.4c-6.1,11-32,32-45.8,39.8c-13.8,7.7-39.2,35.9-39.2,35.9
			s11.6-2.2,18.8-7.7c7.2-5.5,53-23.7,70.7-49.1C693.8,355,685,336.3,685,336.3z"/>
		<path opacity="0.12" fill="#A39D9B" d="M640.8,441.7c-15.5,4.4-44.7,9.9-44.7,9.9s21,5.5,46.9-5c26-10.5,33.1-26.5,33.1-26.5
			S656.3,437.3,640.8,441.7z"/>
		<path opacity="0.12" fill="#A39D9B" d="M642.5,353.9c-10.5,12.1-13.8,16.6-23.2,22.1c-9.1,5.4-14.1,27-14.3,28.1
			c0.2-1,3.7-15.6,16-21.5c12.7-6.1,21.5-5.5,27.6-16c6.1-10.5,15.5-18.2,15.5-18.2S653,341.8,642.5,353.9z"/>
	</g>
</g>
</svg>
